%TF.GenerationSoftware,KiCad,Pcbnew,5.1.10-88a1d61d58~88~ubuntu18.04.1*%
%TF.CreationDate,2022-02-07T17:49:34+01:00*%
%TF.ProjectId,FPGA_buffer_board,46504741-5f62-4756-9666-65725f626f61,v1.4*%
%TF.SameCoordinates,Original*%
%TF.FileFunction,Legend,Bot*%
%TF.FilePolarity,Positive*%
%FSLAX46Y46*%
G04 Gerber Fmt 4.6, Leading zero omitted, Abs format (unit mm)*
G04 Created by KiCad (PCBNEW 5.1.10-88a1d61d58~88~ubuntu18.04.1) date 2022-02-07 17:49:34*
%MOMM*%
%LPD*%
G01*
G04 APERTURE LIST*
%ADD10C,0.150000*%
%ADD11C,0.200000*%
%ADD12C,0.120000*%
G04 APERTURE END LIST*
D10*
X102456952Y-136040761D02*
X102552190Y-136088380D01*
X102742666Y-136088380D01*
X102837904Y-136040761D01*
X102885523Y-135993142D01*
X102933142Y-135897904D01*
X102933142Y-135612190D01*
X102885523Y-135516952D01*
X102837904Y-135469333D01*
X102742666Y-135421714D01*
X102552190Y-135421714D01*
X102456952Y-135469333D01*
X101885523Y-136088380D02*
X101980761Y-136040761D01*
X102028380Y-135945523D01*
X102028380Y-135088380D01*
X101361714Y-136088380D02*
X101456952Y-136040761D01*
X101504571Y-135993142D01*
X101552190Y-135897904D01*
X101552190Y-135612190D01*
X101504571Y-135516952D01*
X101456952Y-135469333D01*
X101361714Y-135421714D01*
X101218857Y-135421714D01*
X101123619Y-135469333D01*
X101076000Y-135516952D01*
X101028380Y-135612190D01*
X101028380Y-135897904D01*
X101076000Y-135993142D01*
X101123619Y-136040761D01*
X101218857Y-136088380D01*
X101361714Y-136088380D01*
X100171238Y-136040761D02*
X100266476Y-136088380D01*
X100456952Y-136088380D01*
X100552190Y-136040761D01*
X100599809Y-135993142D01*
X100647428Y-135897904D01*
X100647428Y-135612190D01*
X100599809Y-135516952D01*
X100552190Y-135469333D01*
X100456952Y-135421714D01*
X100266476Y-135421714D01*
X100171238Y-135469333D01*
X99742666Y-136088380D02*
X99742666Y-135088380D01*
X99647428Y-135707428D02*
X99361714Y-136088380D01*
X99361714Y-135421714D02*
X99742666Y-135802666D01*
X98171238Y-136088380D02*
X98171238Y-135421714D01*
X98171238Y-135088380D02*
X98218857Y-135136000D01*
X98171238Y-135183619D01*
X98123619Y-135136000D01*
X98171238Y-135088380D01*
X98171238Y-135183619D01*
X97695047Y-135421714D02*
X97695047Y-136088380D01*
X97695047Y-135516952D02*
X97647428Y-135469333D01*
X97552190Y-135421714D01*
X97409333Y-135421714D01*
X97314095Y-135469333D01*
X97266476Y-135564571D01*
X97266476Y-136088380D01*
X103464952Y-122324761D02*
X103560190Y-122372380D01*
X103750666Y-122372380D01*
X103845904Y-122324761D01*
X103893523Y-122277142D01*
X103941142Y-122181904D01*
X103941142Y-121896190D01*
X103893523Y-121800952D01*
X103845904Y-121753333D01*
X103750666Y-121705714D01*
X103560190Y-121705714D01*
X103464952Y-121753333D01*
X102893523Y-122372380D02*
X102988761Y-122324761D01*
X103036380Y-122229523D01*
X103036380Y-121372380D01*
X102369714Y-122372380D02*
X102464952Y-122324761D01*
X102512571Y-122277142D01*
X102560190Y-122181904D01*
X102560190Y-121896190D01*
X102512571Y-121800952D01*
X102464952Y-121753333D01*
X102369714Y-121705714D01*
X102226857Y-121705714D01*
X102131619Y-121753333D01*
X102084000Y-121800952D01*
X102036380Y-121896190D01*
X102036380Y-122181904D01*
X102084000Y-122277142D01*
X102131619Y-122324761D01*
X102226857Y-122372380D01*
X102369714Y-122372380D01*
X101179238Y-122324761D02*
X101274476Y-122372380D01*
X101464952Y-122372380D01*
X101560190Y-122324761D01*
X101607809Y-122277142D01*
X101655428Y-122181904D01*
X101655428Y-121896190D01*
X101607809Y-121800952D01*
X101560190Y-121753333D01*
X101464952Y-121705714D01*
X101274476Y-121705714D01*
X101179238Y-121753333D01*
X100750666Y-122372380D02*
X100750666Y-121372380D01*
X100655428Y-121991428D02*
X100369714Y-122372380D01*
X100369714Y-121705714D02*
X100750666Y-122086666D01*
X99036380Y-122372380D02*
X99131619Y-122324761D01*
X99179238Y-122277142D01*
X99226857Y-122181904D01*
X99226857Y-121896190D01*
X99179238Y-121800952D01*
X99131619Y-121753333D01*
X99036380Y-121705714D01*
X98893523Y-121705714D01*
X98798285Y-121753333D01*
X98750666Y-121800952D01*
X98703047Y-121896190D01*
X98703047Y-122181904D01*
X98750666Y-122277142D01*
X98798285Y-122324761D01*
X98893523Y-122372380D01*
X99036380Y-122372380D01*
X97845904Y-121705714D02*
X97845904Y-122372380D01*
X98274476Y-121705714D02*
X98274476Y-122229523D01*
X98226857Y-122324761D01*
X98131619Y-122372380D01*
X97988761Y-122372380D01*
X97893523Y-122324761D01*
X97845904Y-122277142D01*
X97512571Y-121705714D02*
X97131619Y-121705714D01*
X97369714Y-121372380D02*
X97369714Y-122229523D01*
X97322095Y-122324761D01*
X97226857Y-122372380D01*
X97131619Y-122372380D01*
D11*
X98337523Y-65222380D02*
X98337523Y-64555714D01*
X98337523Y-64222380D02*
X98385142Y-64270000D01*
X98337523Y-64317619D01*
X98289904Y-64270000D01*
X98337523Y-64222380D01*
X98337523Y-64317619D01*
X97861333Y-64555714D02*
X97861333Y-65222380D01*
X97861333Y-64650952D02*
X97813714Y-64603333D01*
X97718476Y-64555714D01*
X97575619Y-64555714D01*
X97480380Y-64603333D01*
X97432761Y-64698571D01*
X97432761Y-65222380D01*
X97194666Y-65317619D02*
X96432761Y-65317619D01*
X96004190Y-64222380D02*
X95908952Y-64222380D01*
X95813714Y-64270000D01*
X95766095Y-64317619D01*
X95718476Y-64412857D01*
X95670857Y-64603333D01*
X95670857Y-64841428D01*
X95718476Y-65031904D01*
X95766095Y-65127142D01*
X95813714Y-65174761D01*
X95908952Y-65222380D01*
X96004190Y-65222380D01*
X96099428Y-65174761D01*
X96147047Y-65127142D01*
X96194666Y-65031904D01*
X96242285Y-64841428D01*
X96242285Y-64603333D01*
X96194666Y-64412857D01*
X96147047Y-64317619D01*
X96099428Y-64270000D01*
X96004190Y-64222380D01*
X99456666Y-79192380D02*
X99551904Y-79144761D01*
X99599523Y-79097142D01*
X99647142Y-79001904D01*
X99647142Y-78716190D01*
X99599523Y-78620952D01*
X99551904Y-78573333D01*
X99456666Y-78525714D01*
X99313809Y-78525714D01*
X99218571Y-78573333D01*
X99170952Y-78620952D01*
X99123333Y-78716190D01*
X99123333Y-79001904D01*
X99170952Y-79097142D01*
X99218571Y-79144761D01*
X99313809Y-79192380D01*
X99456666Y-79192380D01*
X98266190Y-78525714D02*
X98266190Y-79192380D01*
X98694761Y-78525714D02*
X98694761Y-79049523D01*
X98647142Y-79144761D01*
X98551904Y-79192380D01*
X98409047Y-79192380D01*
X98313809Y-79144761D01*
X98266190Y-79097142D01*
X97932857Y-78525714D02*
X97551904Y-78525714D01*
X97790000Y-78192380D02*
X97790000Y-79049523D01*
X97742380Y-79144761D01*
X97647142Y-79192380D01*
X97551904Y-79192380D01*
X97456666Y-79287619D02*
X96694761Y-79287619D01*
X96266190Y-78192380D02*
X96170952Y-78192380D01*
X96075714Y-78240000D01*
X96028095Y-78287619D01*
X95980476Y-78382857D01*
X95932857Y-78573333D01*
X95932857Y-78811428D01*
X95980476Y-79001904D01*
X96028095Y-79097142D01*
X96075714Y-79144761D01*
X96170952Y-79192380D01*
X96266190Y-79192380D01*
X96361428Y-79144761D01*
X96409047Y-79097142D01*
X96456666Y-79001904D01*
X96504285Y-78811428D01*
X96504285Y-78573333D01*
X96456666Y-78382857D01*
X96409047Y-78287619D01*
X96361428Y-78240000D01*
X96266190Y-78192380D01*
D12*
X187224936Y-62965000D02*
X187679064Y-62965000D01*
X187224936Y-61495000D02*
X187679064Y-61495000D01*
X187224936Y-65505000D02*
X187679064Y-65505000D01*
X187224936Y-64035000D02*
X187679064Y-64035000D01*
X187224936Y-68045000D02*
X187679064Y-68045000D01*
X187224936Y-66575000D02*
X187679064Y-66575000D01*
X187224936Y-70458000D02*
X187679064Y-70458000D01*
X187224936Y-68988000D02*
X187679064Y-68988000D01*
X172020000Y-134858000D02*
X173420000Y-134858000D01*
X174120000Y-134158000D02*
X174120000Y-133558000D01*
X173420000Y-132858000D02*
X172020000Y-132858000D01*
X171320000Y-133558000D02*
X171320000Y-134158000D01*
X171320000Y-134158000D02*
G75*
G03*
X172020000Y-134858000I700000J0D01*
G01*
X172020000Y-132858000D02*
G75*
G03*
X171320000Y-133558000I0J-700000D01*
G01*
X174120000Y-133558000D02*
G75*
G03*
X173420000Y-132858000I-700000J0D01*
G01*
X173420000Y-134858000D02*
G75*
G03*
X174120000Y-134158000I0J700000D01*
G01*
X157268936Y-135028000D02*
X157723064Y-135028000D01*
X157268936Y-136498000D02*
X157723064Y-136498000D01*
X157268936Y-136933000D02*
X157723064Y-136933000D01*
X157268936Y-138403000D02*
X157723064Y-138403000D01*
X161390000Y-136551936D02*
X161390000Y-137006064D01*
X159920000Y-136551936D02*
X159920000Y-137006064D01*
X155114000Y-134096000D02*
X156514000Y-134096000D01*
X157214000Y-133396000D02*
X157214000Y-132796000D01*
X156514000Y-132096000D02*
X155114000Y-132096000D01*
X154414000Y-132796000D02*
X154414000Y-133396000D01*
X154414000Y-133396000D02*
G75*
G03*
X155114000Y-134096000I700000J0D01*
G01*
X155114000Y-132096000D02*
G75*
G03*
X154414000Y-132796000I0J-700000D01*
G01*
X157214000Y-132796000D02*
G75*
G03*
X156514000Y-132096000I-700000J0D01*
G01*
X156514000Y-134096000D02*
G75*
G03*
X157214000Y-133396000I0J700000D01*
G01*
X193625000Y-71680000D02*
X191810000Y-71680000D01*
X193625000Y-71915000D02*
X193625000Y-71680000D01*
X197485000Y-71915000D02*
X193625000Y-71915000D01*
X201345000Y-71915000D02*
X201345000Y-71680000D01*
X197485000Y-71915000D02*
X201345000Y-71915000D01*
X193625000Y-58895000D02*
X193625000Y-59130000D01*
X197485000Y-58895000D02*
X193625000Y-58895000D01*
X201345000Y-58895000D02*
X201345000Y-59130000D01*
X197485000Y-58895000D02*
X201345000Y-58895000D01*
X224790000Y-96360000D02*
X228650000Y-96360000D01*
X228650000Y-96360000D02*
X228650000Y-96595000D01*
X224790000Y-96360000D02*
X220930000Y-96360000D01*
X220930000Y-96360000D02*
X220930000Y-96595000D01*
X224790000Y-109380000D02*
X228650000Y-109380000D01*
X228650000Y-109380000D02*
X228650000Y-109145000D01*
X224790000Y-109380000D02*
X220930000Y-109380000D01*
X220930000Y-109380000D02*
X220930000Y-109145000D01*
X220930000Y-109145000D02*
X219115000Y-109145000D01*
X224790000Y-117950000D02*
X228650000Y-117950000D01*
X228650000Y-117950000D02*
X228650000Y-118185000D01*
X224790000Y-117950000D02*
X220930000Y-117950000D01*
X220930000Y-117950000D02*
X220930000Y-118185000D01*
X224790000Y-130970000D02*
X228650000Y-130970000D01*
X228650000Y-130970000D02*
X228650000Y-130735000D01*
X224790000Y-130970000D02*
X220930000Y-130970000D01*
X220930000Y-130970000D02*
X220930000Y-130735000D01*
X220930000Y-130735000D02*
X219115000Y-130735000D01*
X192148000Y-136636000D02*
X194948000Y-136636000D01*
X195598000Y-135936000D02*
X195598000Y-135336000D01*
X194948000Y-134636000D02*
X192148000Y-134636000D01*
X191498000Y-135336000D02*
X191498000Y-135936000D01*
X192348000Y-134436000D02*
X192048000Y-134136000D01*
X192048000Y-134136000D02*
X192648000Y-134136000D01*
X192348000Y-134436000D02*
X192648000Y-134136000D01*
X194898000Y-136636000D02*
G75*
G03*
X195598000Y-135936000I0J700000D01*
G01*
X195598000Y-135336000D02*
G75*
G03*
X194898000Y-134636000I-700000J0D01*
G01*
X192198000Y-134636000D02*
G75*
G03*
X191498000Y-135336000I0J-700000D01*
G01*
X191498000Y-135936000D02*
G75*
G03*
X192198000Y-136636000I700000J0D01*
G01*
X197358000Y-75786000D02*
X201218000Y-75786000D01*
X201218000Y-75786000D02*
X201218000Y-76021000D01*
X197358000Y-75786000D02*
X193498000Y-75786000D01*
X193498000Y-75786000D02*
X193498000Y-76021000D01*
X197358000Y-88806000D02*
X201218000Y-88806000D01*
X201218000Y-88806000D02*
X201218000Y-88571000D01*
X197358000Y-88806000D02*
X193498000Y-88806000D01*
X193498000Y-88806000D02*
X193498000Y-88571000D01*
X193498000Y-88571000D02*
X191683000Y-88571000D01*
X193498000Y-110415000D02*
X191683000Y-110415000D01*
X193498000Y-110650000D02*
X193498000Y-110415000D01*
X197358000Y-110650000D02*
X193498000Y-110650000D01*
X201218000Y-110650000D02*
X201218000Y-110415000D01*
X197358000Y-110650000D02*
X201218000Y-110650000D01*
X193498000Y-97630000D02*
X193498000Y-97865000D01*
X197358000Y-97630000D02*
X193498000Y-97630000D01*
X201218000Y-97630000D02*
X201218000Y-97865000D01*
X197358000Y-97630000D02*
X201218000Y-97630000D01*
X193498000Y-132005000D02*
X191683000Y-132005000D01*
X193498000Y-132240000D02*
X193498000Y-132005000D01*
X197358000Y-132240000D02*
X193498000Y-132240000D01*
X201218000Y-132240000D02*
X201218000Y-132005000D01*
X197358000Y-132240000D02*
X201218000Y-132240000D01*
X193498000Y-119220000D02*
X193498000Y-119455000D01*
X197358000Y-119220000D02*
X193498000Y-119220000D01*
X201218000Y-119220000D02*
X201218000Y-119455000D01*
X197358000Y-119220000D02*
X201218000Y-119220000D01*
X163192000Y-65008000D02*
X165992000Y-65008000D01*
X166642000Y-64308000D02*
X166642000Y-63708000D01*
X165992000Y-63008000D02*
X163192000Y-63008000D01*
X162542000Y-63708000D02*
X162542000Y-64308000D01*
X163392000Y-62808000D02*
X163092000Y-62508000D01*
X163092000Y-62508000D02*
X163692000Y-62508000D01*
X163392000Y-62808000D02*
X163692000Y-62508000D01*
X162542000Y-64308000D02*
G75*
G03*
X163242000Y-65008000I700000J0D01*
G01*
X163242000Y-63008000D02*
G75*
G03*
X162542000Y-63708000I0J-700000D01*
G01*
X166642000Y-63708000D02*
G75*
G03*
X165942000Y-63008000I-700000J0D01*
G01*
X165942000Y-65008000D02*
G75*
G03*
X166642000Y-64308000I0J700000D01*
G01*
X220930000Y-87301000D02*
X219115000Y-87301000D01*
X220930000Y-87536000D02*
X220930000Y-87301000D01*
X224790000Y-87536000D02*
X220930000Y-87536000D01*
X228650000Y-87536000D02*
X228650000Y-87301000D01*
X224790000Y-87536000D02*
X228650000Y-87536000D01*
X220930000Y-74516000D02*
X220930000Y-74751000D01*
X224790000Y-74516000D02*
X220930000Y-74516000D01*
X228650000Y-74516000D02*
X228650000Y-74751000D01*
X224790000Y-74516000D02*
X228650000Y-74516000D01*
X220930000Y-70410000D02*
X219115000Y-70410000D01*
X220930000Y-70645000D02*
X220930000Y-70410000D01*
X224790000Y-70645000D02*
X220930000Y-70645000D01*
X228650000Y-70645000D02*
X228650000Y-70410000D01*
X224790000Y-70645000D02*
X228650000Y-70645000D01*
X220930000Y-57625000D02*
X220930000Y-57860000D01*
X224790000Y-57625000D02*
X220930000Y-57625000D01*
X228650000Y-57625000D02*
X228650000Y-57860000D01*
X224790000Y-57625000D02*
X228650000Y-57625000D01*
X202646233Y-91188000D02*
X202938767Y-91188000D01*
X202646233Y-90168000D02*
X202938767Y-90168000D01*
X204722000Y-71836233D02*
X204722000Y-72128767D01*
X205742000Y-71836233D02*
X205742000Y-72128767D01*
X201213767Y-112012000D02*
X200921233Y-112012000D01*
X201213767Y-113032000D02*
X200921233Y-113032000D01*
X202646233Y-133602000D02*
X202938767Y-133602000D01*
X202646233Y-134622000D02*
X202938767Y-134622000D01*
X145794000Y-136009767D02*
X145794000Y-135717233D01*
X146814000Y-136009767D02*
X146814000Y-135717233D01*
X152144000Y-136009767D02*
X152144000Y-135717233D01*
X153164000Y-136009767D02*
X153164000Y-135717233D01*
X124839000Y-123398233D02*
X124839000Y-123690767D01*
X125859000Y-123398233D02*
X125859000Y-123690767D01*
X230078233Y-88898000D02*
X230370767Y-88898000D01*
X230078233Y-89918000D02*
X230370767Y-89918000D01*
X230078233Y-73154000D02*
X230370767Y-73154000D01*
X230078233Y-72134000D02*
X230370767Y-72134000D01*
X230078233Y-111762000D02*
X230370767Y-111762000D01*
X230078233Y-110742000D02*
X230370767Y-110742000D01*
X230078233Y-132332000D02*
X230370767Y-132332000D01*
X230078233Y-133352000D02*
X230370767Y-133352000D01*
X153408767Y-105535000D02*
X153116233Y-105535000D01*
X153408767Y-106555000D02*
X153116233Y-106555000D01*
X140460000Y-105328767D02*
X140460000Y-105036233D01*
X141480000Y-105328767D02*
X141480000Y-105036233D01*
X127735000Y-98287064D02*
X127735000Y-97832936D01*
X126265000Y-98287064D02*
X126265000Y-97832936D01*
X123090000Y-98287064D02*
X123090000Y-97832936D01*
X124560000Y-98287064D02*
X124560000Y-97832936D01*
X129440000Y-99832936D02*
X129440000Y-100287064D01*
X130910000Y-99832936D02*
X130910000Y-100287064D01*
X119915000Y-98287064D02*
X119915000Y-97832936D01*
X121385000Y-98287064D02*
X121385000Y-97832936D01*
X134085000Y-98287064D02*
X134085000Y-97832936D01*
X132615000Y-98287064D02*
X132615000Y-97832936D01*
X135790000Y-98287064D02*
X135790000Y-97832936D01*
X137260000Y-98287064D02*
X137260000Y-97832936D01*
D10*
X184538857Y-62682380D02*
X184872190Y-62206190D01*
X185110285Y-62682380D02*
X185110285Y-61682380D01*
X184729333Y-61682380D01*
X184634095Y-61730000D01*
X184586476Y-61777619D01*
X184538857Y-61872857D01*
X184538857Y-62015714D01*
X184586476Y-62110952D01*
X184634095Y-62158571D01*
X184729333Y-62206190D01*
X185110285Y-62206190D01*
X184157904Y-61777619D02*
X184110285Y-61730000D01*
X184015047Y-61682380D01*
X183776952Y-61682380D01*
X183681714Y-61730000D01*
X183634095Y-61777619D01*
X183586476Y-61872857D01*
X183586476Y-61968095D01*
X183634095Y-62110952D01*
X184205523Y-62682380D01*
X183586476Y-62682380D01*
X183253142Y-61682380D02*
X182586476Y-61682380D01*
X183015047Y-62682380D01*
X184665857Y-65222380D02*
X184999190Y-64746190D01*
X185237285Y-65222380D02*
X185237285Y-64222380D01*
X184856333Y-64222380D01*
X184761095Y-64270000D01*
X184713476Y-64317619D01*
X184665857Y-64412857D01*
X184665857Y-64555714D01*
X184713476Y-64650952D01*
X184761095Y-64698571D01*
X184856333Y-64746190D01*
X185237285Y-64746190D01*
X184284904Y-64317619D02*
X184237285Y-64270000D01*
X184142047Y-64222380D01*
X183903952Y-64222380D01*
X183808714Y-64270000D01*
X183761095Y-64317619D01*
X183713476Y-64412857D01*
X183713476Y-64508095D01*
X183761095Y-64650952D01*
X184332523Y-65222380D01*
X183713476Y-65222380D01*
X182808714Y-64222380D02*
X183284904Y-64222380D01*
X183332523Y-64698571D01*
X183284904Y-64650952D01*
X183189666Y-64603333D01*
X182951571Y-64603333D01*
X182856333Y-64650952D01*
X182808714Y-64698571D01*
X182761095Y-64793809D01*
X182761095Y-65031904D01*
X182808714Y-65127142D01*
X182856333Y-65174761D01*
X182951571Y-65222380D01*
X183189666Y-65222380D01*
X183284904Y-65174761D01*
X183332523Y-65127142D01*
X184665857Y-67762380D02*
X184999190Y-67286190D01*
X185237285Y-67762380D02*
X185237285Y-66762380D01*
X184856333Y-66762380D01*
X184761095Y-66810000D01*
X184713476Y-66857619D01*
X184665857Y-66952857D01*
X184665857Y-67095714D01*
X184713476Y-67190952D01*
X184761095Y-67238571D01*
X184856333Y-67286190D01*
X185237285Y-67286190D01*
X184284904Y-66857619D02*
X184237285Y-66810000D01*
X184142047Y-66762380D01*
X183903952Y-66762380D01*
X183808714Y-66810000D01*
X183761095Y-66857619D01*
X183713476Y-66952857D01*
X183713476Y-67048095D01*
X183761095Y-67190952D01*
X184332523Y-67762380D01*
X183713476Y-67762380D01*
X183380142Y-66762380D02*
X182761095Y-66762380D01*
X183094428Y-67143333D01*
X182951571Y-67143333D01*
X182856333Y-67190952D01*
X182808714Y-67238571D01*
X182761095Y-67333809D01*
X182761095Y-67571904D01*
X182808714Y-67667142D01*
X182856333Y-67714761D01*
X182951571Y-67762380D01*
X183237285Y-67762380D01*
X183332523Y-67714761D01*
X183380142Y-67667142D01*
X184665857Y-70175380D02*
X184999190Y-69699190D01*
X185237285Y-70175380D02*
X185237285Y-69175380D01*
X184856333Y-69175380D01*
X184761095Y-69223000D01*
X184713476Y-69270619D01*
X184665857Y-69365857D01*
X184665857Y-69508714D01*
X184713476Y-69603952D01*
X184761095Y-69651571D01*
X184856333Y-69699190D01*
X185237285Y-69699190D01*
X184284904Y-69270619D02*
X184237285Y-69223000D01*
X184142047Y-69175380D01*
X183903952Y-69175380D01*
X183808714Y-69223000D01*
X183761095Y-69270619D01*
X183713476Y-69365857D01*
X183713476Y-69461095D01*
X183761095Y-69603952D01*
X184332523Y-70175380D01*
X183713476Y-70175380D01*
X182761095Y-70175380D02*
X183332523Y-70175380D01*
X183046809Y-70175380D02*
X183046809Y-69175380D01*
X183142047Y-69318238D01*
X183237285Y-69413476D01*
X183332523Y-69461095D01*
X173553333Y-131532380D02*
X173553333Y-132246666D01*
X173600952Y-132389523D01*
X173696190Y-132484761D01*
X173839047Y-132532380D01*
X173934285Y-132532380D01*
X173077142Y-132532380D02*
X173077142Y-131532380D01*
X172696190Y-131532380D01*
X172600952Y-131580000D01*
X172553333Y-131627619D01*
X172505714Y-131722857D01*
X172505714Y-131865714D01*
X172553333Y-131960952D01*
X172600952Y-132008571D01*
X172696190Y-132056190D01*
X173077142Y-132056190D01*
X172029523Y-132532380D02*
X171839047Y-132532380D01*
X171743809Y-132484761D01*
X171696190Y-132437142D01*
X171600952Y-132294285D01*
X171553333Y-132103809D01*
X171553333Y-131722857D01*
X171600952Y-131627619D01*
X171648571Y-131580000D01*
X171743809Y-131532380D01*
X171934285Y-131532380D01*
X172029523Y-131580000D01*
X172077142Y-131627619D01*
X172124761Y-131722857D01*
X172124761Y-131960952D01*
X172077142Y-132056190D01*
X172029523Y-132103809D01*
X171934285Y-132151428D01*
X171743809Y-132151428D01*
X171648571Y-132103809D01*
X171600952Y-132056190D01*
X171553333Y-131960952D01*
X159011857Y-134691380D02*
X159345190Y-134215190D01*
X159583285Y-134691380D02*
X159583285Y-133691380D01*
X159202333Y-133691380D01*
X159107095Y-133739000D01*
X159059476Y-133786619D01*
X159011857Y-133881857D01*
X159011857Y-134024714D01*
X159059476Y-134119952D01*
X159107095Y-134167571D01*
X159202333Y-134215190D01*
X159583285Y-134215190D01*
X158678523Y-133691380D02*
X158059476Y-133691380D01*
X158392809Y-134072333D01*
X158249952Y-134072333D01*
X158154714Y-134119952D01*
X158107095Y-134167571D01*
X158059476Y-134262809D01*
X158059476Y-134500904D01*
X158107095Y-134596142D01*
X158154714Y-134643761D01*
X158249952Y-134691380D01*
X158535666Y-134691380D01*
X158630904Y-134643761D01*
X158678523Y-134596142D01*
X157726142Y-133691380D02*
X157059476Y-133691380D01*
X157488047Y-134691380D01*
X158138857Y-139770380D02*
X158472190Y-139294190D01*
X158710285Y-139770380D02*
X158710285Y-138770380D01*
X158329333Y-138770380D01*
X158234095Y-138818000D01*
X158186476Y-138865619D01*
X158138857Y-138960857D01*
X158138857Y-139103714D01*
X158186476Y-139198952D01*
X158234095Y-139246571D01*
X158329333Y-139294190D01*
X158710285Y-139294190D01*
X157805523Y-138770380D02*
X157186476Y-138770380D01*
X157519809Y-139151333D01*
X157376952Y-139151333D01*
X157281714Y-139198952D01*
X157234095Y-139246571D01*
X157186476Y-139341809D01*
X157186476Y-139579904D01*
X157234095Y-139675142D01*
X157281714Y-139722761D01*
X157376952Y-139770380D01*
X157662666Y-139770380D01*
X157757904Y-139722761D01*
X157805523Y-139675142D01*
X156329333Y-138770380D02*
X156519809Y-138770380D01*
X156615047Y-138818000D01*
X156662666Y-138865619D01*
X156757904Y-139008476D01*
X156805523Y-139198952D01*
X156805523Y-139579904D01*
X156757904Y-139675142D01*
X156710285Y-139722761D01*
X156615047Y-139770380D01*
X156424571Y-139770380D01*
X156329333Y-139722761D01*
X156281714Y-139675142D01*
X156234095Y-139579904D01*
X156234095Y-139341809D01*
X156281714Y-139246571D01*
X156329333Y-139198952D01*
X156424571Y-139151333D01*
X156615047Y-139151333D01*
X156710285Y-139198952D01*
X156757904Y-139246571D01*
X156805523Y-139341809D01*
X160980380Y-132834142D02*
X160504190Y-132500809D01*
X160980380Y-132262714D02*
X159980380Y-132262714D01*
X159980380Y-132643666D01*
X160028000Y-132738904D01*
X160075619Y-132786523D01*
X160170857Y-132834142D01*
X160313714Y-132834142D01*
X160408952Y-132786523D01*
X160456571Y-132738904D01*
X160504190Y-132643666D01*
X160504190Y-132262714D01*
X160313714Y-133691285D02*
X160980380Y-133691285D01*
X159932761Y-133453190D02*
X160647047Y-133215095D01*
X160647047Y-133834142D01*
X159980380Y-134405571D02*
X159980380Y-134500809D01*
X160028000Y-134596047D01*
X160075619Y-134643666D01*
X160170857Y-134691285D01*
X160361333Y-134738904D01*
X160599428Y-134738904D01*
X160789904Y-134691285D01*
X160885142Y-134643666D01*
X160932761Y-134596047D01*
X160980380Y-134500809D01*
X160980380Y-134405571D01*
X160932761Y-134310333D01*
X160885142Y-134262714D01*
X160789904Y-134215095D01*
X160599428Y-134167476D01*
X160361333Y-134167476D01*
X160170857Y-134215095D01*
X160075619Y-134262714D01*
X160028000Y-134310333D01*
X159980380Y-134405571D01*
X156647333Y-130770380D02*
X156647333Y-131484666D01*
X156694952Y-131627523D01*
X156790190Y-131722761D01*
X156933047Y-131770380D01*
X157028285Y-131770380D01*
X156171142Y-131770380D02*
X156171142Y-130770380D01*
X155790190Y-130770380D01*
X155694952Y-130818000D01*
X155647333Y-130865619D01*
X155599714Y-130960857D01*
X155599714Y-131103714D01*
X155647333Y-131198952D01*
X155694952Y-131246571D01*
X155790190Y-131294190D01*
X156171142Y-131294190D01*
X155266380Y-130770380D02*
X154599714Y-130770380D01*
X155028285Y-131770380D01*
X198246904Y-72207380D02*
X198246904Y-73016904D01*
X198199285Y-73112142D01*
X198151666Y-73159761D01*
X198056428Y-73207380D01*
X197865952Y-73207380D01*
X197770714Y-73159761D01*
X197723095Y-73112142D01*
X197675476Y-73016904D01*
X197675476Y-72207380D01*
X197056428Y-72635952D02*
X197151666Y-72588333D01*
X197199285Y-72540714D01*
X197246904Y-72445476D01*
X197246904Y-72397857D01*
X197199285Y-72302619D01*
X197151666Y-72255000D01*
X197056428Y-72207380D01*
X196865952Y-72207380D01*
X196770714Y-72255000D01*
X196723095Y-72302619D01*
X196675476Y-72397857D01*
X196675476Y-72445476D01*
X196723095Y-72540714D01*
X196770714Y-72588333D01*
X196865952Y-72635952D01*
X197056428Y-72635952D01*
X197151666Y-72683571D01*
X197199285Y-72731190D01*
X197246904Y-72826428D01*
X197246904Y-73016904D01*
X197199285Y-73112142D01*
X197151666Y-73159761D01*
X197056428Y-73207380D01*
X196865952Y-73207380D01*
X196770714Y-73159761D01*
X196723095Y-73112142D01*
X196675476Y-73016904D01*
X196675476Y-72826428D01*
X196723095Y-72731190D01*
X196770714Y-72683571D01*
X196865952Y-72635952D01*
X225551904Y-109672380D02*
X225551904Y-110481904D01*
X225504285Y-110577142D01*
X225456666Y-110624761D01*
X225361428Y-110672380D01*
X225170952Y-110672380D01*
X225075714Y-110624761D01*
X225028095Y-110577142D01*
X224980476Y-110481904D01*
X224980476Y-109672380D01*
X224599523Y-109672380D02*
X223980476Y-109672380D01*
X224313809Y-110053333D01*
X224170952Y-110053333D01*
X224075714Y-110100952D01*
X224028095Y-110148571D01*
X223980476Y-110243809D01*
X223980476Y-110481904D01*
X224028095Y-110577142D01*
X224075714Y-110624761D01*
X224170952Y-110672380D01*
X224456666Y-110672380D01*
X224551904Y-110624761D01*
X224599523Y-110577142D01*
X225551904Y-131262380D02*
X225551904Y-132071904D01*
X225504285Y-132167142D01*
X225456666Y-132214761D01*
X225361428Y-132262380D01*
X225170952Y-132262380D01*
X225075714Y-132214761D01*
X225028095Y-132167142D01*
X224980476Y-132071904D01*
X224980476Y-131262380D01*
X224075714Y-131595714D02*
X224075714Y-132262380D01*
X224313809Y-131214761D02*
X224551904Y-131929047D01*
X223932857Y-131929047D01*
X194381333Y-137628380D02*
X194381333Y-138342666D01*
X194428952Y-138485523D01*
X194524190Y-138580761D01*
X194667047Y-138628380D01*
X194762285Y-138628380D01*
X193905142Y-138628380D02*
X193905142Y-137628380D01*
X193524190Y-137628380D01*
X193428952Y-137676000D01*
X193381333Y-137723619D01*
X193333714Y-137818857D01*
X193333714Y-137961714D01*
X193381333Y-138056952D01*
X193428952Y-138104571D01*
X193524190Y-138152190D01*
X193905142Y-138152190D01*
X193000380Y-137628380D02*
X192381333Y-137628380D01*
X192714666Y-138009333D01*
X192571809Y-138009333D01*
X192476571Y-138056952D01*
X192428952Y-138104571D01*
X192381333Y-138199809D01*
X192381333Y-138437904D01*
X192428952Y-138533142D01*
X192476571Y-138580761D01*
X192571809Y-138628380D01*
X192857523Y-138628380D01*
X192952761Y-138580761D01*
X193000380Y-138533142D01*
X198119904Y-89098380D02*
X198119904Y-89907904D01*
X198072285Y-90003142D01*
X198024666Y-90050761D01*
X197929428Y-90098380D01*
X197738952Y-90098380D01*
X197643714Y-90050761D01*
X197596095Y-90003142D01*
X197548476Y-89907904D01*
X197548476Y-89098380D01*
X197167523Y-89098380D02*
X196500857Y-89098380D01*
X196929428Y-90098380D01*
X198119904Y-110942380D02*
X198119904Y-111751904D01*
X198072285Y-111847142D01*
X198024666Y-111894761D01*
X197929428Y-111942380D01*
X197738952Y-111942380D01*
X197643714Y-111894761D01*
X197596095Y-111847142D01*
X197548476Y-111751904D01*
X197548476Y-110942380D01*
X197024666Y-111942380D02*
X196834190Y-111942380D01*
X196738952Y-111894761D01*
X196691333Y-111847142D01*
X196596095Y-111704285D01*
X196548476Y-111513809D01*
X196548476Y-111132857D01*
X196596095Y-111037619D01*
X196643714Y-110990000D01*
X196738952Y-110942380D01*
X196929428Y-110942380D01*
X197024666Y-110990000D01*
X197072285Y-111037619D01*
X197119904Y-111132857D01*
X197119904Y-111370952D01*
X197072285Y-111466190D01*
X197024666Y-111513809D01*
X196929428Y-111561428D01*
X196738952Y-111561428D01*
X196643714Y-111513809D01*
X196596095Y-111466190D01*
X196548476Y-111370952D01*
X198596095Y-132532380D02*
X198596095Y-133341904D01*
X198548476Y-133437142D01*
X198500857Y-133484761D01*
X198405619Y-133532380D01*
X198215142Y-133532380D01*
X198119904Y-133484761D01*
X198072285Y-133437142D01*
X198024666Y-133341904D01*
X198024666Y-132532380D01*
X197024666Y-133532380D02*
X197596095Y-133532380D01*
X197310380Y-133532380D02*
X197310380Y-132532380D01*
X197405619Y-132675238D01*
X197500857Y-132770476D01*
X197596095Y-132818095D01*
X196405619Y-132532380D02*
X196310380Y-132532380D01*
X196215142Y-132580000D01*
X196167523Y-132627619D01*
X196119904Y-132722857D01*
X196072285Y-132913333D01*
X196072285Y-133151428D01*
X196119904Y-133341904D01*
X196167523Y-133437142D01*
X196215142Y-133484761D01*
X196310380Y-133532380D01*
X196405619Y-133532380D01*
X196500857Y-133484761D01*
X196548476Y-133437142D01*
X196596095Y-133341904D01*
X196643714Y-133151428D01*
X196643714Y-132913333D01*
X196596095Y-132722857D01*
X196548476Y-132627619D01*
X196500857Y-132580000D01*
X196405619Y-132532380D01*
X165425333Y-60920380D02*
X165425333Y-61634666D01*
X165472952Y-61777523D01*
X165568190Y-61872761D01*
X165711047Y-61920380D01*
X165806285Y-61920380D01*
X164949142Y-61920380D02*
X164949142Y-60920380D01*
X164568190Y-60920380D01*
X164472952Y-60968000D01*
X164425333Y-61015619D01*
X164377714Y-61110857D01*
X164377714Y-61253714D01*
X164425333Y-61348952D01*
X164472952Y-61396571D01*
X164568190Y-61444190D01*
X164949142Y-61444190D01*
X163996761Y-61015619D02*
X163949142Y-60968000D01*
X163853904Y-60920380D01*
X163615809Y-60920380D01*
X163520571Y-60968000D01*
X163472952Y-61015619D01*
X163425333Y-61110857D01*
X163425333Y-61206095D01*
X163472952Y-61348952D01*
X164044380Y-61920380D01*
X163425333Y-61920380D01*
X225551904Y-87828380D02*
X225551904Y-88637904D01*
X225504285Y-88733142D01*
X225456666Y-88780761D01*
X225361428Y-88828380D01*
X225170952Y-88828380D01*
X225075714Y-88780761D01*
X225028095Y-88733142D01*
X224980476Y-88637904D01*
X224980476Y-87828380D01*
X223980476Y-88828380D02*
X224551904Y-88828380D01*
X224266190Y-88828380D02*
X224266190Y-87828380D01*
X224361428Y-87971238D01*
X224456666Y-88066476D01*
X224551904Y-88114095D01*
X225551904Y-70937380D02*
X225551904Y-71746904D01*
X225504285Y-71842142D01*
X225456666Y-71889761D01*
X225361428Y-71937380D01*
X225170952Y-71937380D01*
X225075714Y-71889761D01*
X225028095Y-71842142D01*
X224980476Y-71746904D01*
X224980476Y-70937380D01*
X224551904Y-71032619D02*
X224504285Y-70985000D01*
X224409047Y-70937380D01*
X224170952Y-70937380D01*
X224075714Y-70985000D01*
X224028095Y-71032619D01*
X223980476Y-71127857D01*
X223980476Y-71223095D01*
X224028095Y-71365952D01*
X224599523Y-71937380D01*
X223980476Y-71937380D01*
X202959166Y-92465142D02*
X203006785Y-92512761D01*
X203149642Y-92560380D01*
X203244880Y-92560380D01*
X203387738Y-92512761D01*
X203482976Y-92417523D01*
X203530595Y-92322285D01*
X203578214Y-92131809D01*
X203578214Y-91988952D01*
X203530595Y-91798476D01*
X203482976Y-91703238D01*
X203387738Y-91608000D01*
X203244880Y-91560380D01*
X203149642Y-91560380D01*
X203006785Y-91608000D01*
X202959166Y-91655619D01*
X202482976Y-92560380D02*
X202292500Y-92560380D01*
X202197261Y-92512761D01*
X202149642Y-92465142D01*
X202054404Y-92322285D01*
X202006785Y-92131809D01*
X202006785Y-91750857D01*
X202054404Y-91655619D01*
X202102023Y-91608000D01*
X202197261Y-91560380D01*
X202387738Y-91560380D01*
X202482976Y-91608000D01*
X202530595Y-91655619D01*
X202578214Y-91750857D01*
X202578214Y-91988952D01*
X202530595Y-92084190D01*
X202482976Y-92131809D01*
X202387738Y-92179428D01*
X202197261Y-92179428D01*
X202102023Y-92131809D01*
X202054404Y-92084190D01*
X202006785Y-91988952D01*
X207367142Y-71239142D02*
X207414761Y-71191523D01*
X207462380Y-71048666D01*
X207462380Y-70953428D01*
X207414761Y-70810571D01*
X207319523Y-70715333D01*
X207224285Y-70667714D01*
X207033809Y-70620095D01*
X206890952Y-70620095D01*
X206700476Y-70667714D01*
X206605238Y-70715333D01*
X206510000Y-70810571D01*
X206462380Y-70953428D01*
X206462380Y-71048666D01*
X206510000Y-71191523D01*
X206557619Y-71239142D01*
X207462380Y-72191523D02*
X207462380Y-71620095D01*
X207462380Y-71905809D02*
X206462380Y-71905809D01*
X206605238Y-71810571D01*
X206700476Y-71715333D01*
X206748095Y-71620095D01*
X206462380Y-72810571D02*
X206462380Y-72905809D01*
X206510000Y-73001047D01*
X206557619Y-73048666D01*
X206652857Y-73096285D01*
X206843333Y-73143904D01*
X207081428Y-73143904D01*
X207271904Y-73096285D01*
X207367142Y-73048666D01*
X207414761Y-73001047D01*
X207462380Y-72905809D01*
X207462380Y-72810571D01*
X207414761Y-72715333D01*
X207367142Y-72667714D01*
X207271904Y-72620095D01*
X207081428Y-72572476D01*
X206843333Y-72572476D01*
X206652857Y-72620095D01*
X206557619Y-72667714D01*
X206510000Y-72715333D01*
X206462380Y-72810571D01*
X204604857Y-112879142D02*
X204652476Y-112926761D01*
X204795333Y-112974380D01*
X204890571Y-112974380D01*
X205033428Y-112926761D01*
X205128666Y-112831523D01*
X205176285Y-112736285D01*
X205223904Y-112545809D01*
X205223904Y-112402952D01*
X205176285Y-112212476D01*
X205128666Y-112117238D01*
X205033428Y-112022000D01*
X204890571Y-111974380D01*
X204795333Y-111974380D01*
X204652476Y-112022000D01*
X204604857Y-112069619D01*
X203652476Y-112974380D02*
X204223904Y-112974380D01*
X203938190Y-112974380D02*
X203938190Y-111974380D01*
X204033428Y-112117238D01*
X204128666Y-112212476D01*
X204223904Y-112260095D01*
X202700095Y-112974380D02*
X203271523Y-112974380D01*
X202985809Y-112974380D02*
X202985809Y-111974380D01*
X203081047Y-112117238D01*
X203176285Y-112212476D01*
X203271523Y-112260095D01*
X203435357Y-135899142D02*
X203482976Y-135946761D01*
X203625833Y-135994380D01*
X203721071Y-135994380D01*
X203863928Y-135946761D01*
X203959166Y-135851523D01*
X204006785Y-135756285D01*
X204054404Y-135565809D01*
X204054404Y-135422952D01*
X204006785Y-135232476D01*
X203959166Y-135137238D01*
X203863928Y-135042000D01*
X203721071Y-134994380D01*
X203625833Y-134994380D01*
X203482976Y-135042000D01*
X203435357Y-135089619D01*
X202482976Y-135994380D02*
X203054404Y-135994380D01*
X202768690Y-135994380D02*
X202768690Y-134994380D01*
X202863928Y-135137238D01*
X202959166Y-135232476D01*
X203054404Y-135280095D01*
X202102023Y-135089619D02*
X202054404Y-135042000D01*
X201959166Y-134994380D01*
X201721071Y-134994380D01*
X201625833Y-135042000D01*
X201578214Y-135089619D01*
X201530595Y-135184857D01*
X201530595Y-135280095D01*
X201578214Y-135422952D01*
X202149642Y-135994380D01*
X201530595Y-135994380D01*
X146661142Y-137914142D02*
X146708761Y-137866523D01*
X146756380Y-137723666D01*
X146756380Y-137628428D01*
X146708761Y-137485571D01*
X146613523Y-137390333D01*
X146518285Y-137342714D01*
X146327809Y-137295095D01*
X146184952Y-137295095D01*
X145994476Y-137342714D01*
X145899238Y-137390333D01*
X145804000Y-137485571D01*
X145756380Y-137628428D01*
X145756380Y-137723666D01*
X145804000Y-137866523D01*
X145851619Y-137914142D01*
X146756380Y-138866523D02*
X146756380Y-138295095D01*
X146756380Y-138580809D02*
X145756380Y-138580809D01*
X145899238Y-138485571D01*
X145994476Y-138390333D01*
X146042095Y-138295095D01*
X145756380Y-139723666D02*
X145756380Y-139533190D01*
X145804000Y-139437952D01*
X145851619Y-139390333D01*
X145994476Y-139295095D01*
X146184952Y-139247476D01*
X146565904Y-139247476D01*
X146661142Y-139295095D01*
X146708761Y-139342714D01*
X146756380Y-139437952D01*
X146756380Y-139628428D01*
X146708761Y-139723666D01*
X146661142Y-139771285D01*
X146565904Y-139818904D01*
X146327809Y-139818904D01*
X146232571Y-139771285D01*
X146184952Y-139723666D01*
X146137333Y-139628428D01*
X146137333Y-139437952D01*
X146184952Y-139342714D01*
X146232571Y-139295095D01*
X146327809Y-139247476D01*
X153011142Y-138676142D02*
X153058761Y-138628523D01*
X153106380Y-138485666D01*
X153106380Y-138390428D01*
X153058761Y-138247571D01*
X152963523Y-138152333D01*
X152868285Y-138104714D01*
X152677809Y-138057095D01*
X152534952Y-138057095D01*
X152344476Y-138104714D01*
X152249238Y-138152333D01*
X152154000Y-138247571D01*
X152106380Y-138390428D01*
X152106380Y-138485666D01*
X152154000Y-138628523D01*
X152201619Y-138676142D01*
X153106380Y-139628523D02*
X153106380Y-139057095D01*
X153106380Y-139342809D02*
X152106380Y-139342809D01*
X152249238Y-139247571D01*
X152344476Y-139152333D01*
X152392095Y-139057095D01*
X152106380Y-139961857D02*
X152106380Y-140628523D01*
X153106380Y-140199952D01*
X124276142Y-122901642D02*
X124323761Y-122854023D01*
X124371380Y-122711166D01*
X124371380Y-122615928D01*
X124323761Y-122473071D01*
X124228523Y-122377833D01*
X124133285Y-122330214D01*
X123942809Y-122282595D01*
X123799952Y-122282595D01*
X123609476Y-122330214D01*
X123514238Y-122377833D01*
X123419000Y-122473071D01*
X123371380Y-122615928D01*
X123371380Y-122711166D01*
X123419000Y-122854023D01*
X123466619Y-122901642D01*
X124371380Y-123854023D02*
X124371380Y-123282595D01*
X124371380Y-123568309D02*
X123371380Y-123568309D01*
X123514238Y-123473071D01*
X123609476Y-123377833D01*
X123657095Y-123282595D01*
X123371380Y-124187357D02*
X123371380Y-124806404D01*
X123752333Y-124473071D01*
X123752333Y-124615928D01*
X123799952Y-124711166D01*
X123847571Y-124758785D01*
X123942809Y-124806404D01*
X124180904Y-124806404D01*
X124276142Y-124758785D01*
X124323761Y-124711166D01*
X124371380Y-124615928D01*
X124371380Y-124330214D01*
X124323761Y-124234976D01*
X124276142Y-124187357D01*
X233846666Y-89765142D02*
X233894285Y-89812761D01*
X234037142Y-89860380D01*
X234132380Y-89860380D01*
X234275238Y-89812761D01*
X234370476Y-89717523D01*
X234418095Y-89622285D01*
X234465714Y-89431809D01*
X234465714Y-89288952D01*
X234418095Y-89098476D01*
X234370476Y-89003238D01*
X234275238Y-88908000D01*
X234132380Y-88860380D01*
X234037142Y-88860380D01*
X233894285Y-88908000D01*
X233846666Y-88955619D01*
X233513333Y-88860380D02*
X232894285Y-88860380D01*
X233227619Y-89241333D01*
X233084761Y-89241333D01*
X232989523Y-89288952D01*
X232941904Y-89336571D01*
X232894285Y-89431809D01*
X232894285Y-89669904D01*
X232941904Y-89765142D01*
X232989523Y-89812761D01*
X233084761Y-89860380D01*
X233370476Y-89860380D01*
X233465714Y-89812761D01*
X233513333Y-89765142D01*
X227242666Y-73255142D02*
X227290285Y-73302761D01*
X227433142Y-73350380D01*
X227528380Y-73350380D01*
X227671238Y-73302761D01*
X227766476Y-73207523D01*
X227814095Y-73112285D01*
X227861714Y-72921809D01*
X227861714Y-72778952D01*
X227814095Y-72588476D01*
X227766476Y-72493238D01*
X227671238Y-72398000D01*
X227528380Y-72350380D01*
X227433142Y-72350380D01*
X227290285Y-72398000D01*
X227242666Y-72445619D01*
X226385523Y-72683714D02*
X226385523Y-73350380D01*
X226623619Y-72302761D02*
X226861714Y-73017047D01*
X226242666Y-73017047D01*
X230391166Y-113039142D02*
X230438785Y-113086761D01*
X230581642Y-113134380D01*
X230676880Y-113134380D01*
X230819738Y-113086761D01*
X230914976Y-112991523D01*
X230962595Y-112896285D01*
X231010214Y-112705809D01*
X231010214Y-112562952D01*
X230962595Y-112372476D01*
X230914976Y-112277238D01*
X230819738Y-112182000D01*
X230676880Y-112134380D01*
X230581642Y-112134380D01*
X230438785Y-112182000D01*
X230391166Y-112229619D01*
X229486404Y-112134380D02*
X229962595Y-112134380D01*
X230010214Y-112610571D01*
X229962595Y-112562952D01*
X229867357Y-112515333D01*
X229629261Y-112515333D01*
X229534023Y-112562952D01*
X229486404Y-112610571D01*
X229438785Y-112705809D01*
X229438785Y-112943904D01*
X229486404Y-113039142D01*
X229534023Y-113086761D01*
X229629261Y-113134380D01*
X229867357Y-113134380D01*
X229962595Y-113086761D01*
X230010214Y-113039142D01*
X233846666Y-133199142D02*
X233894285Y-133246761D01*
X234037142Y-133294380D01*
X234132380Y-133294380D01*
X234275238Y-133246761D01*
X234370476Y-133151523D01*
X234418095Y-133056285D01*
X234465714Y-132865809D01*
X234465714Y-132722952D01*
X234418095Y-132532476D01*
X234370476Y-132437238D01*
X234275238Y-132342000D01*
X234132380Y-132294380D01*
X234037142Y-132294380D01*
X233894285Y-132342000D01*
X233846666Y-132389619D01*
X232989523Y-132294380D02*
X233180000Y-132294380D01*
X233275238Y-132342000D01*
X233322857Y-132389619D01*
X233418095Y-132532476D01*
X233465714Y-132722952D01*
X233465714Y-133103904D01*
X233418095Y-133199142D01*
X233370476Y-133246761D01*
X233275238Y-133294380D01*
X233084761Y-133294380D01*
X232989523Y-133246761D01*
X232941904Y-133199142D01*
X232894285Y-133103904D01*
X232894285Y-132865809D01*
X232941904Y-132770571D01*
X232989523Y-132722952D01*
X233084761Y-132675333D01*
X233275238Y-132675333D01*
X233370476Y-132722952D01*
X233418095Y-132770571D01*
X233465714Y-132865809D01*
X153429166Y-104972142D02*
X153476785Y-105019761D01*
X153619642Y-105067380D01*
X153714880Y-105067380D01*
X153857738Y-105019761D01*
X153952976Y-104924523D01*
X154000595Y-104829285D01*
X154048214Y-104638809D01*
X154048214Y-104495952D01*
X154000595Y-104305476D01*
X153952976Y-104210238D01*
X153857738Y-104115000D01*
X153714880Y-104067380D01*
X153619642Y-104067380D01*
X153476785Y-104115000D01*
X153429166Y-104162619D01*
X153095833Y-104067380D02*
X152429166Y-104067380D01*
X152857738Y-105067380D01*
X142757142Y-105015833D02*
X142804761Y-104968214D01*
X142852380Y-104825357D01*
X142852380Y-104730119D01*
X142804761Y-104587261D01*
X142709523Y-104492023D01*
X142614285Y-104444404D01*
X142423809Y-104396785D01*
X142280952Y-104396785D01*
X142090476Y-104444404D01*
X141995238Y-104492023D01*
X141900000Y-104587261D01*
X141852380Y-104730119D01*
X141852380Y-104825357D01*
X141900000Y-104968214D01*
X141947619Y-105015833D01*
X142280952Y-105587261D02*
X142233333Y-105492023D01*
X142185714Y-105444404D01*
X142090476Y-105396785D01*
X142042857Y-105396785D01*
X141947619Y-105444404D01*
X141900000Y-105492023D01*
X141852380Y-105587261D01*
X141852380Y-105777738D01*
X141900000Y-105872976D01*
X141947619Y-105920595D01*
X142042857Y-105968214D01*
X142090476Y-105968214D01*
X142185714Y-105920595D01*
X142233333Y-105872976D01*
X142280952Y-105777738D01*
X142280952Y-105587261D01*
X142328571Y-105492023D01*
X142376190Y-105444404D01*
X142471428Y-105396785D01*
X142661904Y-105396785D01*
X142757142Y-105444404D01*
X142804761Y-105492023D01*
X142852380Y-105587261D01*
X142852380Y-105777738D01*
X142804761Y-105872976D01*
X142757142Y-105920595D01*
X142661904Y-105968214D01*
X142471428Y-105968214D01*
X142376190Y-105920595D01*
X142328571Y-105872976D01*
X142280952Y-105777738D01*
X127579380Y-101179333D02*
X127103190Y-100846000D01*
X127579380Y-100607904D02*
X126579380Y-100607904D01*
X126579380Y-100988857D01*
X126627000Y-101084095D01*
X126674619Y-101131714D01*
X126769857Y-101179333D01*
X126912714Y-101179333D01*
X127007952Y-101131714D01*
X127055571Y-101084095D01*
X127103190Y-100988857D01*
X127103190Y-100607904D01*
X127579380Y-102131714D02*
X127579380Y-101560285D01*
X127579380Y-101846000D02*
X126579380Y-101846000D01*
X126722238Y-101750761D01*
X126817476Y-101655523D01*
X126865095Y-101560285D01*
X124277380Y-101703333D02*
X123801190Y-101370000D01*
X124277380Y-101131904D02*
X123277380Y-101131904D01*
X123277380Y-101512857D01*
X123325000Y-101608095D01*
X123372619Y-101655714D01*
X123467857Y-101703333D01*
X123610714Y-101703333D01*
X123705952Y-101655714D01*
X123753571Y-101608095D01*
X123801190Y-101512857D01*
X123801190Y-101131904D01*
X123372619Y-102084285D02*
X123325000Y-102131904D01*
X123277380Y-102227142D01*
X123277380Y-102465238D01*
X123325000Y-102560476D01*
X123372619Y-102608095D01*
X123467857Y-102655714D01*
X123563095Y-102655714D01*
X123705952Y-102608095D01*
X124277380Y-102036666D01*
X124277380Y-102655714D01*
X130881380Y-103211333D02*
X130405190Y-102878000D01*
X130881380Y-102639904D02*
X129881380Y-102639904D01*
X129881380Y-103020857D01*
X129929000Y-103116095D01*
X129976619Y-103163714D01*
X130071857Y-103211333D01*
X130214714Y-103211333D01*
X130309952Y-103163714D01*
X130357571Y-103116095D01*
X130405190Y-103020857D01*
X130405190Y-102639904D01*
X129881380Y-103544666D02*
X129881380Y-104163714D01*
X130262333Y-103830380D01*
X130262333Y-103973238D01*
X130309952Y-104068476D01*
X130357571Y-104116095D01*
X130452809Y-104163714D01*
X130690904Y-104163714D01*
X130786142Y-104116095D01*
X130833761Y-104068476D01*
X130881380Y-103973238D01*
X130881380Y-103687523D01*
X130833761Y-103592285D01*
X130786142Y-103544666D01*
X121102380Y-101211142D02*
X120626190Y-100877809D01*
X121102380Y-100639714D02*
X120102380Y-100639714D01*
X120102380Y-101020666D01*
X120150000Y-101115904D01*
X120197619Y-101163523D01*
X120292857Y-101211142D01*
X120435714Y-101211142D01*
X120530952Y-101163523D01*
X120578571Y-101115904D01*
X120626190Y-101020666D01*
X120626190Y-100639714D01*
X121102380Y-102163523D02*
X121102380Y-101592095D01*
X121102380Y-101877809D02*
X120102380Y-101877809D01*
X120245238Y-101782571D01*
X120340476Y-101687333D01*
X120388095Y-101592095D01*
X120102380Y-102782571D02*
X120102380Y-102877809D01*
X120150000Y-102973047D01*
X120197619Y-103020666D01*
X120292857Y-103068285D01*
X120483333Y-103115904D01*
X120721428Y-103115904D01*
X120911904Y-103068285D01*
X121007142Y-103020666D01*
X121054761Y-102973047D01*
X121102380Y-102877809D01*
X121102380Y-102782571D01*
X121054761Y-102687333D01*
X121007142Y-102639714D01*
X120911904Y-102592095D01*
X120721428Y-102544476D01*
X120483333Y-102544476D01*
X120292857Y-102592095D01*
X120197619Y-102639714D01*
X120150000Y-102687333D01*
X120102380Y-102782571D01*
X133802380Y-101227142D02*
X133326190Y-100893809D01*
X133802380Y-100655714D02*
X132802380Y-100655714D01*
X132802380Y-101036666D01*
X132850000Y-101131904D01*
X132897619Y-101179523D01*
X132992857Y-101227142D01*
X133135714Y-101227142D01*
X133230952Y-101179523D01*
X133278571Y-101131904D01*
X133326190Y-101036666D01*
X133326190Y-100655714D01*
X133802380Y-102179523D02*
X133802380Y-101608095D01*
X133802380Y-101893809D02*
X132802380Y-101893809D01*
X132945238Y-101798571D01*
X133040476Y-101703333D01*
X133088095Y-101608095D01*
X133802380Y-103131904D02*
X133802380Y-102560476D01*
X133802380Y-102846190D02*
X132802380Y-102846190D01*
X132945238Y-102750952D01*
X133040476Y-102655714D01*
X133088095Y-102560476D01*
X136072619Y-102496857D02*
X136548809Y-102830190D01*
X136072619Y-103068285D02*
X137072619Y-103068285D01*
X137072619Y-102687333D01*
X137025000Y-102592095D01*
X136977380Y-102544476D01*
X136882142Y-102496857D01*
X136739285Y-102496857D01*
X136644047Y-102544476D01*
X136596428Y-102592095D01*
X136548809Y-102687333D01*
X136548809Y-103068285D01*
X136072619Y-101544476D02*
X136072619Y-102115904D01*
X136072619Y-101830190D02*
X137072619Y-101830190D01*
X136929761Y-101925428D01*
X136834523Y-102020666D01*
X136786904Y-102115904D01*
X136977380Y-101163523D02*
X137025000Y-101115904D01*
X137072619Y-101020666D01*
X137072619Y-100782571D01*
X137025000Y-100687333D01*
X136977380Y-100639714D01*
X136882142Y-100592095D01*
X136786904Y-100592095D01*
X136644047Y-100639714D01*
X136072619Y-101211142D01*
X136072619Y-100592095D01*
M02*
