G04 #@! TF.GenerationSoftware,KiCad,Pcbnew,5.1.10-88a1d61d58~88~ubuntu18.04.1*
G04 #@! TF.CreationDate,2022-02-07T17:50:13+01:00*
G04 #@! TF.ProjectId,FPGA_buffer_board,46504741-5f62-4756-9666-65725f626f61,v1.4*
G04 #@! TF.SameCoordinates,Original*
G04 #@! TF.FileFunction,Soldermask,Top*
G04 #@! TF.FilePolarity,Negative*
%FSLAX46Y46*%
G04 Gerber Fmt 4.6, Leading zero omitted, Abs format (unit mm)*
G04 Created by KiCad (PCBNEW 5.1.10-88a1d61d58~88~ubuntu18.04.1) date 2022-02-07 17:50:13*
%MOMM*%
%LPD*%
G01*
G04 APERTURE LIST*
%ADD10O,1.700000X1.700000*%
%ADD11R,1.700000X1.700000*%
%ADD12C,0.100000*%
%ADD13R,3.150000X1.000000*%
%ADD14C,2.250000*%
%ADD15C,2.050000*%
%ADD16R,1.520000X0.600000*%
%ADD17R,1.524000X0.450000*%
%ADD18C,2.500000*%
%ADD19R,2.500000X2.500000*%
%ADD20C,1.600000*%
%ADD21R,1.600000X1.600000*%
%ADD22C,1.800000*%
%ADD23R,1.800000X1.800000*%
%ADD24C,2.000000*%
%ADD25R,1.000000X1.500000*%
%ADD26C,2.800000*%
%ADD27R,5.080000X1.500000*%
%ADD28R,1.500000X1.000000*%
%ADD29C,1.524000*%
%ADD30C,3.000000*%
%ADD31R,1.100000X0.400000*%
G04 APERTURE END LIST*
G36*
G01*
X189160999Y-73298000D02*
X190061001Y-73298000D01*
G75*
G02*
X190311000Y-73547999I0J-249999D01*
G01*
X190311000Y-74248001D01*
G75*
G02*
X190061001Y-74498000I-249999J0D01*
G01*
X189160999Y-74498000D01*
G75*
G02*
X188911000Y-74248001I0J249999D01*
G01*
X188911000Y-73547999D01*
G75*
G02*
X189160999Y-73298000I249999J0D01*
G01*
G37*
G36*
G01*
X189160999Y-71298000D02*
X190061001Y-71298000D01*
G75*
G02*
X190311000Y-71547999I0J-249999D01*
G01*
X190311000Y-72248001D01*
G75*
G02*
X190061001Y-72498000I-249999J0D01*
G01*
X189160999Y-72498000D01*
G75*
G02*
X188911000Y-72248001I0J249999D01*
G01*
X188911000Y-71547999D01*
G75*
G02*
X189160999Y-71298000I249999J0D01*
G01*
G37*
G36*
G01*
X193402000Y-60509999D02*
X193402000Y-61410001D01*
G75*
G02*
X193152001Y-61660000I-249999J0D01*
G01*
X192451999Y-61660000D01*
G75*
G02*
X192202000Y-61410001I0J249999D01*
G01*
X192202000Y-60509999D01*
G75*
G02*
X192451999Y-60260000I249999J0D01*
G01*
X193152001Y-60260000D01*
G75*
G02*
X193402000Y-60509999I0J-249999D01*
G01*
G37*
G36*
G01*
X195402000Y-60509999D02*
X195402000Y-61410001D01*
G75*
G02*
X195152001Y-61660000I-249999J0D01*
G01*
X194451999Y-61660000D01*
G75*
G02*
X194202000Y-61410001I0J249999D01*
G01*
X194202000Y-60509999D01*
G75*
G02*
X194451999Y-60260000I249999J0D01*
G01*
X195152001Y-60260000D01*
G75*
G02*
X195402000Y-60509999I0J-249999D01*
G01*
G37*
G36*
G01*
X193402000Y-63176999D02*
X193402000Y-64077001D01*
G75*
G02*
X193152001Y-64327000I-249999J0D01*
G01*
X192451999Y-64327000D01*
G75*
G02*
X192202000Y-64077001I0J249999D01*
G01*
X192202000Y-63176999D01*
G75*
G02*
X192451999Y-62927000I249999J0D01*
G01*
X193152001Y-62927000D01*
G75*
G02*
X193402000Y-63176999I0J-249999D01*
G01*
G37*
G36*
G01*
X195402000Y-63176999D02*
X195402000Y-64077001D01*
G75*
G02*
X195152001Y-64327000I-249999J0D01*
G01*
X194451999Y-64327000D01*
G75*
G02*
X194202000Y-64077001I0J249999D01*
G01*
X194202000Y-63176999D01*
G75*
G02*
X194451999Y-62927000I249999J0D01*
G01*
X195152001Y-62927000D01*
G75*
G02*
X195402000Y-63176999I0J-249999D01*
G01*
G37*
G36*
G01*
X193402000Y-65716999D02*
X193402000Y-66617001D01*
G75*
G02*
X193152001Y-66867000I-249999J0D01*
G01*
X192451999Y-66867000D01*
G75*
G02*
X192202000Y-66617001I0J249999D01*
G01*
X192202000Y-65716999D01*
G75*
G02*
X192451999Y-65467000I249999J0D01*
G01*
X193152001Y-65467000D01*
G75*
G02*
X193402000Y-65716999I0J-249999D01*
G01*
G37*
G36*
G01*
X195402000Y-65716999D02*
X195402000Y-66617001D01*
G75*
G02*
X195152001Y-66867000I-249999J0D01*
G01*
X194451999Y-66867000D01*
G75*
G02*
X194202000Y-66617001I0J249999D01*
G01*
X194202000Y-65716999D01*
G75*
G02*
X194451999Y-65467000I249999J0D01*
G01*
X195152001Y-65467000D01*
G75*
G02*
X195402000Y-65716999I0J-249999D01*
G01*
G37*
G36*
G01*
X193402000Y-68129999D02*
X193402000Y-69030001D01*
G75*
G02*
X193152001Y-69280000I-249999J0D01*
G01*
X192451999Y-69280000D01*
G75*
G02*
X192202000Y-69030001I0J249999D01*
G01*
X192202000Y-68129999D01*
G75*
G02*
X192451999Y-67880000I249999J0D01*
G01*
X193152001Y-67880000D01*
G75*
G02*
X193402000Y-68129999I0J-249999D01*
G01*
G37*
G36*
G01*
X195402000Y-68129999D02*
X195402000Y-69030001D01*
G75*
G02*
X195152001Y-69280000I-249999J0D01*
G01*
X194451999Y-69280000D01*
G75*
G02*
X194202000Y-69030001I0J249999D01*
G01*
X194202000Y-68129999D01*
G75*
G02*
X194451999Y-67880000I249999J0D01*
G01*
X195152001Y-67880000D01*
G75*
G02*
X195402000Y-68129999I0J-249999D01*
G01*
G37*
G36*
G01*
X180270999Y-77235000D02*
X181171001Y-77235000D01*
G75*
G02*
X181421000Y-77484999I0J-249999D01*
G01*
X181421000Y-78185001D01*
G75*
G02*
X181171001Y-78435000I-249999J0D01*
G01*
X180270999Y-78435000D01*
G75*
G02*
X180021000Y-78185001I0J249999D01*
G01*
X180021000Y-77484999D01*
G75*
G02*
X180270999Y-77235000I249999J0D01*
G01*
G37*
G36*
G01*
X180270999Y-75235000D02*
X181171001Y-75235000D01*
G75*
G02*
X181421000Y-75484999I0J-249999D01*
G01*
X181421000Y-76185001D01*
G75*
G02*
X181171001Y-76435000I-249999J0D01*
G01*
X180270999Y-76435000D01*
G75*
G02*
X180021000Y-76185001I0J249999D01*
G01*
X180021000Y-75484999D01*
G75*
G02*
X180270999Y-75235000I249999J0D01*
G01*
G37*
G36*
G01*
X181540999Y-81172000D02*
X182441001Y-81172000D01*
G75*
G02*
X182691000Y-81421999I0J-249999D01*
G01*
X182691000Y-82122001D01*
G75*
G02*
X182441001Y-82372000I-249999J0D01*
G01*
X181540999Y-82372000D01*
G75*
G02*
X181291000Y-82122001I0J249999D01*
G01*
X181291000Y-81421999D01*
G75*
G02*
X181540999Y-81172000I249999J0D01*
G01*
G37*
G36*
G01*
X181540999Y-79172000D02*
X182441001Y-79172000D01*
G75*
G02*
X182691000Y-79421999I0J-249999D01*
G01*
X182691000Y-80122001D01*
G75*
G02*
X182441001Y-80372000I-249999J0D01*
G01*
X181540999Y-80372000D01*
G75*
G02*
X181291000Y-80122001I0J249999D01*
G01*
X181291000Y-79421999D01*
G75*
G02*
X181540999Y-79172000I249999J0D01*
G01*
G37*
G36*
G01*
X182810999Y-77235000D02*
X183711001Y-77235000D01*
G75*
G02*
X183961000Y-77484999I0J-249999D01*
G01*
X183961000Y-78185001D01*
G75*
G02*
X183711001Y-78435000I-249999J0D01*
G01*
X182810999Y-78435000D01*
G75*
G02*
X182561000Y-78185001I0J249999D01*
G01*
X182561000Y-77484999D01*
G75*
G02*
X182810999Y-77235000I249999J0D01*
G01*
G37*
G36*
G01*
X182810999Y-75235000D02*
X183711001Y-75235000D01*
G75*
G02*
X183961000Y-75484999I0J-249999D01*
G01*
X183961000Y-76185001D01*
G75*
G02*
X183711001Y-76435000I-249999J0D01*
G01*
X182810999Y-76435000D01*
G75*
G02*
X182561000Y-76185001I0J249999D01*
G01*
X182561000Y-75484999D01*
G75*
G02*
X182810999Y-75235000I249999J0D01*
G01*
G37*
G36*
G01*
X184080999Y-81172000D02*
X184981001Y-81172000D01*
G75*
G02*
X185231000Y-81421999I0J-249999D01*
G01*
X185231000Y-82122001D01*
G75*
G02*
X184981001Y-82372000I-249999J0D01*
G01*
X184080999Y-82372000D01*
G75*
G02*
X183831000Y-82122001I0J249999D01*
G01*
X183831000Y-81421999D01*
G75*
G02*
X184080999Y-81172000I249999J0D01*
G01*
G37*
G36*
G01*
X184080999Y-79172000D02*
X184981001Y-79172000D01*
G75*
G02*
X185231000Y-79421999I0J-249999D01*
G01*
X185231000Y-80122001D01*
G75*
G02*
X184981001Y-80372000I-249999J0D01*
G01*
X184080999Y-80372000D01*
G75*
G02*
X183831000Y-80122001I0J249999D01*
G01*
X183831000Y-79421999D01*
G75*
G02*
X184080999Y-79172000I249999J0D01*
G01*
G37*
G36*
G01*
X185350999Y-77235000D02*
X186251001Y-77235000D01*
G75*
G02*
X186501000Y-77484999I0J-249999D01*
G01*
X186501000Y-78185001D01*
G75*
G02*
X186251001Y-78435000I-249999J0D01*
G01*
X185350999Y-78435000D01*
G75*
G02*
X185101000Y-78185001I0J249999D01*
G01*
X185101000Y-77484999D01*
G75*
G02*
X185350999Y-77235000I249999J0D01*
G01*
G37*
G36*
G01*
X185350999Y-75235000D02*
X186251001Y-75235000D01*
G75*
G02*
X186501000Y-75484999I0J-249999D01*
G01*
X186501000Y-76185001D01*
G75*
G02*
X186251001Y-76435000I-249999J0D01*
G01*
X185350999Y-76435000D01*
G75*
G02*
X185101000Y-76185001I0J249999D01*
G01*
X185101000Y-75484999D01*
G75*
G02*
X185350999Y-75235000I249999J0D01*
G01*
G37*
G36*
G01*
X186620999Y-81172000D02*
X187521001Y-81172000D01*
G75*
G02*
X187771000Y-81421999I0J-249999D01*
G01*
X187771000Y-82122001D01*
G75*
G02*
X187521001Y-82372000I-249999J0D01*
G01*
X186620999Y-82372000D01*
G75*
G02*
X186371000Y-82122001I0J249999D01*
G01*
X186371000Y-81421999D01*
G75*
G02*
X186620999Y-81172000I249999J0D01*
G01*
G37*
G36*
G01*
X186620999Y-79172000D02*
X187521001Y-79172000D01*
G75*
G02*
X187771000Y-79421999I0J-249999D01*
G01*
X187771000Y-80122001D01*
G75*
G02*
X187521001Y-80372000I-249999J0D01*
G01*
X186620999Y-80372000D01*
G75*
G02*
X186371000Y-80122001I0J249999D01*
G01*
X186371000Y-79421999D01*
G75*
G02*
X186620999Y-79172000I249999J0D01*
G01*
G37*
G36*
G01*
X187890999Y-77235000D02*
X188791001Y-77235000D01*
G75*
G02*
X189041000Y-77484999I0J-249999D01*
G01*
X189041000Y-78185001D01*
G75*
G02*
X188791001Y-78435000I-249999J0D01*
G01*
X187890999Y-78435000D01*
G75*
G02*
X187641000Y-78185001I0J249999D01*
G01*
X187641000Y-77484999D01*
G75*
G02*
X187890999Y-77235000I249999J0D01*
G01*
G37*
G36*
G01*
X187890999Y-75235000D02*
X188791001Y-75235000D01*
G75*
G02*
X189041000Y-75484999I0J-249999D01*
G01*
X189041000Y-76185001D01*
G75*
G02*
X188791001Y-76435000I-249999J0D01*
G01*
X187890999Y-76435000D01*
G75*
G02*
X187641000Y-76185001I0J249999D01*
G01*
X187641000Y-75484999D01*
G75*
G02*
X187890999Y-75235000I249999J0D01*
G01*
G37*
G36*
G01*
X169868001Y-142840000D02*
X168967999Y-142840000D01*
G75*
G02*
X168718000Y-142590001I0J249999D01*
G01*
X168718000Y-141889999D01*
G75*
G02*
X168967999Y-141640000I249999J0D01*
G01*
X169868001Y-141640000D01*
G75*
G02*
X170118000Y-141889999I0J-249999D01*
G01*
X170118000Y-142590001D01*
G75*
G02*
X169868001Y-142840000I-249999J0D01*
G01*
G37*
G36*
G01*
X169868001Y-144840000D02*
X168967999Y-144840000D01*
G75*
G02*
X168718000Y-144590001I0J249999D01*
G01*
X168718000Y-143889999D01*
G75*
G02*
X168967999Y-143640000I249999J0D01*
G01*
X169868001Y-143640000D01*
G75*
G02*
X170118000Y-143889999I0J-249999D01*
G01*
X170118000Y-144590001D01*
G75*
G02*
X169868001Y-144840000I-249999J0D01*
G01*
G37*
D10*
X178435000Y-91440000D03*
X180975000Y-91440000D03*
X178435000Y-93980000D03*
X180975000Y-93980000D03*
X178435000Y-96520000D03*
D11*
X180975000Y-96520000D03*
G36*
G01*
X166627000Y-144595001D02*
X166627000Y-143694999D01*
G75*
G02*
X166876999Y-143445000I249999J0D01*
G01*
X167577001Y-143445000D01*
G75*
G02*
X167827000Y-143694999I0J-249999D01*
G01*
X167827000Y-144595001D01*
G75*
G02*
X167577001Y-144845000I-249999J0D01*
G01*
X166876999Y-144845000D01*
G75*
G02*
X166627000Y-144595001I0J249999D01*
G01*
G37*
G36*
G01*
X164627000Y-144595001D02*
X164627000Y-143694999D01*
G75*
G02*
X164876999Y-143445000I249999J0D01*
G01*
X165577001Y-143445000D01*
G75*
G02*
X165827000Y-143694999I0J-249999D01*
G01*
X165827000Y-144595001D01*
G75*
G02*
X165577001Y-144845000I-249999J0D01*
G01*
X164876999Y-144845000D01*
G75*
G02*
X164627000Y-144595001I0J249999D01*
G01*
G37*
G36*
G01*
X166627000Y-142690001D02*
X166627000Y-141789999D01*
G75*
G02*
X166876999Y-141540000I249999J0D01*
G01*
X167577001Y-141540000D01*
G75*
G02*
X167827000Y-141789999I0J-249999D01*
G01*
X167827000Y-142690001D01*
G75*
G02*
X167577001Y-142940000I-249999J0D01*
G01*
X166876999Y-142940000D01*
G75*
G02*
X166627000Y-142690001I0J249999D01*
G01*
G37*
G36*
G01*
X164627000Y-142690001D02*
X164627000Y-141789999D01*
G75*
G02*
X164876999Y-141540000I249999J0D01*
G01*
X165577001Y-141540000D01*
G75*
G02*
X165827000Y-141789999I0J-249999D01*
G01*
X165827000Y-142690001D01*
G75*
G02*
X165577001Y-142940000I-249999J0D01*
G01*
X164876999Y-142940000D01*
G75*
G02*
X164627000Y-142690001I0J249999D01*
G01*
G37*
D12*
G36*
X158085000Y-145275398D02*
G01*
X158060466Y-145275398D01*
X158011635Y-145270588D01*
X157963510Y-145261016D01*
X157916555Y-145246772D01*
X157871222Y-145227995D01*
X157827949Y-145204864D01*
X157787150Y-145177604D01*
X157749221Y-145146476D01*
X157714524Y-145111779D01*
X157683396Y-145073850D01*
X157656136Y-145033051D01*
X157633005Y-144989778D01*
X157614228Y-144944445D01*
X157599984Y-144897490D01*
X157590412Y-144849365D01*
X157585602Y-144800534D01*
X157585602Y-144776000D01*
X157585000Y-144776000D01*
X157585000Y-144276000D01*
X157585602Y-144276000D01*
X157585602Y-144251466D01*
X157590412Y-144202635D01*
X157599984Y-144154510D01*
X157614228Y-144107555D01*
X157633005Y-144062222D01*
X157656136Y-144018949D01*
X157683396Y-143978150D01*
X157714524Y-143940221D01*
X157749221Y-143905524D01*
X157787150Y-143874396D01*
X157827949Y-143847136D01*
X157871222Y-143824005D01*
X157916555Y-143805228D01*
X157963510Y-143790984D01*
X158011635Y-143781412D01*
X158060466Y-143776602D01*
X158085000Y-143776602D01*
X158085000Y-143776000D01*
X158585000Y-143776000D01*
X158585000Y-145276000D01*
X158085000Y-145276000D01*
X158085000Y-145275398D01*
G37*
G36*
X158885000Y-143776000D02*
G01*
X159385000Y-143776000D01*
X159385000Y-143776602D01*
X159409534Y-143776602D01*
X159458365Y-143781412D01*
X159506490Y-143790984D01*
X159553445Y-143805228D01*
X159598778Y-143824005D01*
X159642051Y-143847136D01*
X159682850Y-143874396D01*
X159720779Y-143905524D01*
X159755476Y-143940221D01*
X159786604Y-143978150D01*
X159813864Y-144018949D01*
X159836995Y-144062222D01*
X159855772Y-144107555D01*
X159870016Y-144154510D01*
X159879588Y-144202635D01*
X159884398Y-144251466D01*
X159884398Y-144276000D01*
X159885000Y-144276000D01*
X159885000Y-144776000D01*
X159884398Y-144776000D01*
X159884398Y-144800534D01*
X159879588Y-144849365D01*
X159870016Y-144897490D01*
X159855772Y-144944445D01*
X159836995Y-144989778D01*
X159813864Y-145033051D01*
X159786604Y-145073850D01*
X159755476Y-145111779D01*
X159720779Y-145146476D01*
X159682850Y-145177604D01*
X159642051Y-145204864D01*
X159598778Y-145227995D01*
X159553445Y-145246772D01*
X159506490Y-145261016D01*
X159458365Y-145270588D01*
X159409534Y-145275398D01*
X159385000Y-145275398D01*
X159385000Y-145276000D01*
X158885000Y-145276000D01*
X158885000Y-143776000D01*
G37*
D13*
X192786000Y-99060000D03*
X197836000Y-99060000D03*
X192786000Y-101600000D03*
X197836000Y-101600000D03*
X192786000Y-104140000D03*
X197836000Y-104140000D03*
X192786000Y-106680000D03*
X197836000Y-106680000D03*
X192786000Y-109220000D03*
X197836000Y-109220000D03*
X192786000Y-111760000D03*
X197836000Y-111760000D03*
G36*
G01*
X151911000Y-135863000D02*
X151911000Y-135663000D01*
G75*
G02*
X152011000Y-135563000I100000J0D01*
G01*
X153261000Y-135563000D01*
G75*
G02*
X153361000Y-135663000I0J-100000D01*
G01*
X153361000Y-135863000D01*
G75*
G02*
X153261000Y-135963000I-100000J0D01*
G01*
X152011000Y-135963000D01*
G75*
G02*
X151911000Y-135863000I0J100000D01*
G01*
G37*
G36*
G01*
X151911000Y-136513000D02*
X151911000Y-136313000D01*
G75*
G02*
X152011000Y-136213000I100000J0D01*
G01*
X153261000Y-136213000D01*
G75*
G02*
X153361000Y-136313000I0J-100000D01*
G01*
X153361000Y-136513000D01*
G75*
G02*
X153261000Y-136613000I-100000J0D01*
G01*
X152011000Y-136613000D01*
G75*
G02*
X151911000Y-136513000I0J100000D01*
G01*
G37*
G36*
G01*
X151911000Y-137163000D02*
X151911000Y-136963000D01*
G75*
G02*
X152011000Y-136863000I100000J0D01*
G01*
X153261000Y-136863000D01*
G75*
G02*
X153361000Y-136963000I0J-100000D01*
G01*
X153361000Y-137163000D01*
G75*
G02*
X153261000Y-137263000I-100000J0D01*
G01*
X152011000Y-137263000D01*
G75*
G02*
X151911000Y-137163000I0J100000D01*
G01*
G37*
G36*
G01*
X151911000Y-137813000D02*
X151911000Y-137613000D01*
G75*
G02*
X152011000Y-137513000I100000J0D01*
G01*
X153261000Y-137513000D01*
G75*
G02*
X153361000Y-137613000I0J-100000D01*
G01*
X153361000Y-137813000D01*
G75*
G02*
X153261000Y-137913000I-100000J0D01*
G01*
X152011000Y-137913000D01*
G75*
G02*
X151911000Y-137813000I0J100000D01*
G01*
G37*
G36*
G01*
X151911000Y-138463000D02*
X151911000Y-138263000D01*
G75*
G02*
X152011000Y-138163000I100000J0D01*
G01*
X153261000Y-138163000D01*
G75*
G02*
X153361000Y-138263000I0J-100000D01*
G01*
X153361000Y-138463000D01*
G75*
G02*
X153261000Y-138563000I-100000J0D01*
G01*
X152011000Y-138563000D01*
G75*
G02*
X151911000Y-138463000I0J100000D01*
G01*
G37*
G36*
G01*
X151911000Y-139113000D02*
X151911000Y-138913000D01*
G75*
G02*
X152011000Y-138813000I100000J0D01*
G01*
X153261000Y-138813000D01*
G75*
G02*
X153361000Y-138913000I0J-100000D01*
G01*
X153361000Y-139113000D01*
G75*
G02*
X153261000Y-139213000I-100000J0D01*
G01*
X152011000Y-139213000D01*
G75*
G02*
X151911000Y-139113000I0J100000D01*
G01*
G37*
G36*
G01*
X147611000Y-139113000D02*
X147611000Y-138913000D01*
G75*
G02*
X147711000Y-138813000I100000J0D01*
G01*
X148961000Y-138813000D01*
G75*
G02*
X149061000Y-138913000I0J-100000D01*
G01*
X149061000Y-139113000D01*
G75*
G02*
X148961000Y-139213000I-100000J0D01*
G01*
X147711000Y-139213000D01*
G75*
G02*
X147611000Y-139113000I0J100000D01*
G01*
G37*
G36*
G01*
X147611000Y-138463000D02*
X147611000Y-138263000D01*
G75*
G02*
X147711000Y-138163000I100000J0D01*
G01*
X148961000Y-138163000D01*
G75*
G02*
X149061000Y-138263000I0J-100000D01*
G01*
X149061000Y-138463000D01*
G75*
G02*
X148961000Y-138563000I-100000J0D01*
G01*
X147711000Y-138563000D01*
G75*
G02*
X147611000Y-138463000I0J100000D01*
G01*
G37*
G36*
G01*
X147611000Y-137813000D02*
X147611000Y-137613000D01*
G75*
G02*
X147711000Y-137513000I100000J0D01*
G01*
X148961000Y-137513000D01*
G75*
G02*
X149061000Y-137613000I0J-100000D01*
G01*
X149061000Y-137813000D01*
G75*
G02*
X148961000Y-137913000I-100000J0D01*
G01*
X147711000Y-137913000D01*
G75*
G02*
X147611000Y-137813000I0J100000D01*
G01*
G37*
G36*
G01*
X147611000Y-137163000D02*
X147611000Y-136963000D01*
G75*
G02*
X147711000Y-136863000I100000J0D01*
G01*
X148961000Y-136863000D01*
G75*
G02*
X149061000Y-136963000I0J-100000D01*
G01*
X149061000Y-137163000D01*
G75*
G02*
X148961000Y-137263000I-100000J0D01*
G01*
X147711000Y-137263000D01*
G75*
G02*
X147611000Y-137163000I0J100000D01*
G01*
G37*
G36*
G01*
X147611000Y-136513000D02*
X147611000Y-136313000D01*
G75*
G02*
X147711000Y-136213000I100000J0D01*
G01*
X148961000Y-136213000D01*
G75*
G02*
X149061000Y-136313000I0J-100000D01*
G01*
X149061000Y-136513000D01*
G75*
G02*
X148961000Y-136613000I-100000J0D01*
G01*
X147711000Y-136613000D01*
G75*
G02*
X147611000Y-136513000I0J100000D01*
G01*
G37*
G36*
G01*
X147611000Y-135863000D02*
X147611000Y-135663000D01*
G75*
G02*
X147711000Y-135563000I100000J0D01*
G01*
X148961000Y-135563000D01*
G75*
G02*
X149061000Y-135663000I0J-100000D01*
G01*
X149061000Y-135863000D01*
G75*
G02*
X148961000Y-135963000I-100000J0D01*
G01*
X147711000Y-135963000D01*
G75*
G02*
X147611000Y-135863000I0J100000D01*
G01*
G37*
G36*
G01*
X144174500Y-138446500D02*
X144174500Y-138921500D01*
G75*
G02*
X143937000Y-139159000I-237500J0D01*
G01*
X143337000Y-139159000D01*
G75*
G02*
X143099500Y-138921500I0J237500D01*
G01*
X143099500Y-138446500D01*
G75*
G02*
X143337000Y-138209000I237500J0D01*
G01*
X143937000Y-138209000D01*
G75*
G02*
X144174500Y-138446500I0J-237500D01*
G01*
G37*
G36*
G01*
X145899500Y-138446500D02*
X145899500Y-138921500D01*
G75*
G02*
X145662000Y-139159000I-237500J0D01*
G01*
X145062000Y-139159000D01*
G75*
G02*
X144824500Y-138921500I0J237500D01*
G01*
X144824500Y-138446500D01*
G75*
G02*
X145062000Y-138209000I237500J0D01*
G01*
X145662000Y-138209000D01*
G75*
G02*
X145899500Y-138446500I0J-237500D01*
G01*
G37*
D14*
X163703000Y-138938000D03*
X163703000Y-133858000D03*
X168783000Y-133858000D03*
X168783000Y-138938000D03*
D15*
X166243000Y-136398000D03*
D16*
X123444000Y-121625000D03*
X123444000Y-122895000D03*
X123444000Y-124165000D03*
X123444000Y-125435000D03*
X117856000Y-125435000D03*
X117856000Y-124165000D03*
X117856000Y-121625000D03*
X117856000Y-122895000D03*
D17*
X125476000Y-124505000D03*
X125476000Y-123855000D03*
X125476000Y-123205000D03*
X125476000Y-122555000D03*
X121412000Y-123855000D03*
X121412000Y-123205000D03*
X121412000Y-124505000D03*
X121412000Y-122555000D03*
D18*
X199470000Y-139700000D03*
D19*
X204470000Y-139700000D03*
D20*
X152995000Y-58420000D03*
D21*
X150495000Y-58420000D03*
D22*
X93980000Y-127635000D03*
D23*
X93980000Y-130175000D03*
D22*
X93980000Y-69215000D03*
D23*
X93980000Y-71755000D03*
D22*
X93980000Y-55245000D03*
D23*
X93980000Y-57785000D03*
D24*
X210058000Y-132080000D03*
X213868000Y-58166000D03*
X177038000Y-60833000D03*
X146558000Y-55880000D03*
D10*
X165735000Y-68580000D03*
X165735000Y-71120000D03*
X168275000Y-68580000D03*
X168275000Y-71120000D03*
X170815000Y-68580000D03*
X170815000Y-71120000D03*
X173355000Y-68580000D03*
X173355000Y-71120000D03*
X175895000Y-68580000D03*
X175895000Y-71120000D03*
X178435000Y-68580000D03*
D11*
X178435000Y-71120000D03*
D13*
X197836000Y-89408000D03*
X192786000Y-89408000D03*
X197836000Y-86868000D03*
X192786000Y-86868000D03*
X197836000Y-84328000D03*
X192786000Y-84328000D03*
X197836000Y-81788000D03*
X192786000Y-81788000D03*
X197836000Y-79248000D03*
X192786000Y-79248000D03*
X197836000Y-76708000D03*
X192786000Y-76708000D03*
D12*
G36*
X149086000Y-133396000D02*
G01*
X148736000Y-133396000D01*
X148736000Y-132796000D01*
X149086000Y-132796000D01*
X149086000Y-132346000D01*
X149636000Y-132346000D01*
X149636000Y-132346602D01*
X149660534Y-132346602D01*
X149709365Y-132351412D01*
X149757490Y-132360984D01*
X149804445Y-132375228D01*
X149849778Y-132394005D01*
X149893051Y-132417136D01*
X149933850Y-132444396D01*
X149971779Y-132475524D01*
X150006476Y-132510221D01*
X150037604Y-132548150D01*
X150064864Y-132588949D01*
X150087995Y-132632222D01*
X150106772Y-132677555D01*
X150121016Y-132724510D01*
X150130588Y-132772635D01*
X150135398Y-132821466D01*
X150135398Y-132846000D01*
X150136000Y-132846000D01*
X150136000Y-133346000D01*
X150135398Y-133346000D01*
X150135398Y-133370534D01*
X150130588Y-133419365D01*
X150121016Y-133467490D01*
X150106772Y-133514445D01*
X150087995Y-133559778D01*
X150064864Y-133603051D01*
X150037604Y-133643850D01*
X150006476Y-133681779D01*
X149971779Y-133716476D01*
X149933850Y-133747604D01*
X149893051Y-133774864D01*
X149849778Y-133797995D01*
X149804445Y-133816772D01*
X149757490Y-133831016D01*
X149709365Y-133840588D01*
X149660534Y-133845398D01*
X149636000Y-133845398D01*
X149636000Y-133846000D01*
X149086000Y-133846000D01*
X149086000Y-133396000D01*
G37*
G36*
X147036000Y-133845398D02*
G01*
X147011466Y-133845398D01*
X146962635Y-133840588D01*
X146914510Y-133831016D01*
X146867555Y-133816772D01*
X146822222Y-133797995D01*
X146778949Y-133774864D01*
X146738150Y-133747604D01*
X146700221Y-133716476D01*
X146665524Y-133681779D01*
X146634396Y-133643850D01*
X146607136Y-133603051D01*
X146584005Y-133559778D01*
X146565228Y-133514445D01*
X146550984Y-133467490D01*
X146541412Y-133419365D01*
X146536602Y-133370534D01*
X146536602Y-133346000D01*
X146536000Y-133346000D01*
X146536000Y-132846000D01*
X146536602Y-132846000D01*
X146536602Y-132821466D01*
X146541412Y-132772635D01*
X146550984Y-132724510D01*
X146565228Y-132677555D01*
X146584005Y-132632222D01*
X146607136Y-132588949D01*
X146634396Y-132548150D01*
X146665524Y-132510221D01*
X146700221Y-132475524D01*
X146738150Y-132444396D01*
X146778949Y-132417136D01*
X146822222Y-132394005D01*
X146867555Y-132375228D01*
X146914510Y-132360984D01*
X146962635Y-132351412D01*
X147011466Y-132346602D01*
X147036000Y-132346602D01*
X147036000Y-132346000D01*
X147586000Y-132346000D01*
X147586000Y-133846000D01*
X147036000Y-133846000D01*
X147036000Y-133845398D01*
G37*
D25*
X148336000Y-133096000D03*
X148463000Y-141859000D03*
D12*
G36*
X147163000Y-142608398D02*
G01*
X147138466Y-142608398D01*
X147089635Y-142603588D01*
X147041510Y-142594016D01*
X146994555Y-142579772D01*
X146949222Y-142560995D01*
X146905949Y-142537864D01*
X146865150Y-142510604D01*
X146827221Y-142479476D01*
X146792524Y-142444779D01*
X146761396Y-142406850D01*
X146734136Y-142366051D01*
X146711005Y-142322778D01*
X146692228Y-142277445D01*
X146677984Y-142230490D01*
X146668412Y-142182365D01*
X146663602Y-142133534D01*
X146663602Y-142109000D01*
X146663000Y-142109000D01*
X146663000Y-141609000D01*
X146663602Y-141609000D01*
X146663602Y-141584466D01*
X146668412Y-141535635D01*
X146677984Y-141487510D01*
X146692228Y-141440555D01*
X146711005Y-141395222D01*
X146734136Y-141351949D01*
X146761396Y-141311150D01*
X146792524Y-141273221D01*
X146827221Y-141238524D01*
X146865150Y-141207396D01*
X146905949Y-141180136D01*
X146949222Y-141157005D01*
X146994555Y-141138228D01*
X147041510Y-141123984D01*
X147089635Y-141114412D01*
X147138466Y-141109602D01*
X147163000Y-141109602D01*
X147163000Y-141109000D01*
X147713000Y-141109000D01*
X147713000Y-142609000D01*
X147163000Y-142609000D01*
X147163000Y-142608398D01*
G37*
G36*
X149213000Y-142159000D02*
G01*
X148863000Y-142159000D01*
X148863000Y-141559000D01*
X149213000Y-141559000D01*
X149213000Y-141109000D01*
X149763000Y-141109000D01*
X149763000Y-141109602D01*
X149787534Y-141109602D01*
X149836365Y-141114412D01*
X149884490Y-141123984D01*
X149931445Y-141138228D01*
X149976778Y-141157005D01*
X150020051Y-141180136D01*
X150060850Y-141207396D01*
X150098779Y-141238524D01*
X150133476Y-141273221D01*
X150164604Y-141311150D01*
X150191864Y-141351949D01*
X150214995Y-141395222D01*
X150233772Y-141440555D01*
X150248016Y-141487510D01*
X150257588Y-141535635D01*
X150262398Y-141584466D01*
X150262398Y-141609000D01*
X150263000Y-141609000D01*
X150263000Y-142109000D01*
X150262398Y-142109000D01*
X150262398Y-142133534D01*
X150257588Y-142182365D01*
X150248016Y-142230490D01*
X150233772Y-142277445D01*
X150214995Y-142322778D01*
X150191864Y-142366051D01*
X150164604Y-142406850D01*
X150133476Y-142444779D01*
X150098779Y-142479476D01*
X150060850Y-142510604D01*
X150020051Y-142537864D01*
X149976778Y-142560995D01*
X149931445Y-142579772D01*
X149884490Y-142594016D01*
X149836365Y-142603588D01*
X149787534Y-142608398D01*
X149763000Y-142608398D01*
X149763000Y-142609000D01*
X149213000Y-142609000D01*
X149213000Y-142159000D01*
G37*
G36*
X151904000Y-144226000D02*
G01*
X152254000Y-144226000D01*
X152254000Y-144826000D01*
X151904000Y-144826000D01*
X151904000Y-145276000D01*
X151354000Y-145276000D01*
X151354000Y-145275398D01*
X151329466Y-145275398D01*
X151280635Y-145270588D01*
X151232510Y-145261016D01*
X151185555Y-145246772D01*
X151140222Y-145227995D01*
X151096949Y-145204864D01*
X151056150Y-145177604D01*
X151018221Y-145146476D01*
X150983524Y-145111779D01*
X150952396Y-145073850D01*
X150925136Y-145033051D01*
X150902005Y-144989778D01*
X150883228Y-144944445D01*
X150868984Y-144897490D01*
X150859412Y-144849365D01*
X150854602Y-144800534D01*
X150854602Y-144776000D01*
X150854000Y-144776000D01*
X150854000Y-144276000D01*
X150854602Y-144276000D01*
X150854602Y-144251466D01*
X150859412Y-144202635D01*
X150868984Y-144154510D01*
X150883228Y-144107555D01*
X150902005Y-144062222D01*
X150925136Y-144018949D01*
X150952396Y-143978150D01*
X150983524Y-143940221D01*
X151018221Y-143905524D01*
X151056150Y-143874396D01*
X151096949Y-143847136D01*
X151140222Y-143824005D01*
X151185555Y-143805228D01*
X151232510Y-143790984D01*
X151280635Y-143781412D01*
X151329466Y-143776602D01*
X151354000Y-143776602D01*
X151354000Y-143776000D01*
X151904000Y-143776000D01*
X151904000Y-144226000D01*
G37*
G36*
X153954000Y-143776602D02*
G01*
X153978534Y-143776602D01*
X154027365Y-143781412D01*
X154075490Y-143790984D01*
X154122445Y-143805228D01*
X154167778Y-143824005D01*
X154211051Y-143847136D01*
X154251850Y-143874396D01*
X154289779Y-143905524D01*
X154324476Y-143940221D01*
X154355604Y-143978150D01*
X154382864Y-144018949D01*
X154405995Y-144062222D01*
X154424772Y-144107555D01*
X154439016Y-144154510D01*
X154448588Y-144202635D01*
X154453398Y-144251466D01*
X154453398Y-144276000D01*
X154454000Y-144276000D01*
X154454000Y-144776000D01*
X154453398Y-144776000D01*
X154453398Y-144800534D01*
X154448588Y-144849365D01*
X154439016Y-144897490D01*
X154424772Y-144944445D01*
X154405995Y-144989778D01*
X154382864Y-145033051D01*
X154355604Y-145073850D01*
X154324476Y-145111779D01*
X154289779Y-145146476D01*
X154251850Y-145177604D01*
X154211051Y-145204864D01*
X154167778Y-145227995D01*
X154122445Y-145246772D01*
X154075490Y-145261016D01*
X154027365Y-145270588D01*
X153978534Y-145275398D01*
X153954000Y-145275398D01*
X153954000Y-145276000D01*
X153404000Y-145276000D01*
X153404000Y-143776000D01*
X153954000Y-143776000D01*
X153954000Y-143776602D01*
G37*
D25*
X152654000Y-144526000D03*
D11*
X185166000Y-96520000D03*
D10*
X185166000Y-93980000D03*
X185166000Y-91440000D03*
G36*
G01*
X152285000Y-65695000D02*
X152285000Y-63845000D01*
G75*
G02*
X152535000Y-63595000I250000J0D01*
G01*
X153535000Y-63595000D01*
G75*
G02*
X153785000Y-63845000I0J-250000D01*
G01*
X153785000Y-65695000D01*
G75*
G02*
X153535000Y-65945000I-250000J0D01*
G01*
X152535000Y-65945000D01*
G75*
G02*
X152285000Y-65695000I0J250000D01*
G01*
G37*
G36*
G01*
X155535000Y-65695000D02*
X155535000Y-63845000D01*
G75*
G02*
X155785000Y-63595000I250000J0D01*
G01*
X156785000Y-63595000D01*
G75*
G02*
X157035000Y-63845000I0J-250000D01*
G01*
X157035000Y-65695000D01*
G75*
G02*
X156785000Y-65945000I-250000J0D01*
G01*
X155785000Y-65945000D01*
G75*
G02*
X155535000Y-65695000I0J250000D01*
G01*
G37*
G36*
G01*
X231235000Y-138560400D02*
X231235000Y-140839600D01*
G75*
G02*
X230974600Y-141100000I-260400J0D01*
G01*
X228695400Y-141100000D01*
G75*
G02*
X228435000Y-140839600I0J260400D01*
G01*
X228435000Y-138560400D01*
G75*
G02*
X228695400Y-138300000I260400J0D01*
G01*
X230974600Y-138300000D01*
G75*
G02*
X231235000Y-138560400I0J-260400D01*
G01*
G37*
D26*
X225875000Y-139700000D03*
X221915000Y-139700000D03*
X217955000Y-139700000D03*
X213995000Y-139700000D03*
D27*
X92075000Y-132715000D03*
X92075000Y-139065000D03*
X92075000Y-135890000D03*
X92075000Y-121920000D03*
X92075000Y-125095000D03*
X92075000Y-118745000D03*
D12*
G36*
X233184602Y-72360000D02*
G01*
X233184602Y-72335466D01*
X233189412Y-72286635D01*
X233198984Y-72238510D01*
X233213228Y-72191555D01*
X233232005Y-72146222D01*
X233255136Y-72102949D01*
X233282396Y-72062150D01*
X233313524Y-72024221D01*
X233348221Y-71989524D01*
X233386150Y-71958396D01*
X233426949Y-71931136D01*
X233470222Y-71908005D01*
X233515555Y-71889228D01*
X233562510Y-71874984D01*
X233610635Y-71865412D01*
X233659466Y-71860602D01*
X233684000Y-71860602D01*
X233684000Y-71860000D01*
X234184000Y-71860000D01*
X234184000Y-71860602D01*
X234208534Y-71860602D01*
X234257365Y-71865412D01*
X234305490Y-71874984D01*
X234352445Y-71889228D01*
X234397778Y-71908005D01*
X234441051Y-71931136D01*
X234481850Y-71958396D01*
X234519779Y-71989524D01*
X234554476Y-72024221D01*
X234585604Y-72062150D01*
X234612864Y-72102949D01*
X234635995Y-72146222D01*
X234654772Y-72191555D01*
X234669016Y-72238510D01*
X234678588Y-72286635D01*
X234683398Y-72335466D01*
X234683398Y-72360000D01*
X234684000Y-72360000D01*
X234684000Y-72910000D01*
X233184000Y-72910000D01*
X233184000Y-72360000D01*
X233184602Y-72360000D01*
G37*
D28*
X233934000Y-73660000D03*
D12*
G36*
X234684000Y-74410000D02*
G01*
X234684000Y-74960000D01*
X234683398Y-74960000D01*
X234683398Y-74984534D01*
X234678588Y-75033365D01*
X234669016Y-75081490D01*
X234654772Y-75128445D01*
X234635995Y-75173778D01*
X234612864Y-75217051D01*
X234585604Y-75257850D01*
X234554476Y-75295779D01*
X234519779Y-75330476D01*
X234481850Y-75361604D01*
X234441051Y-75388864D01*
X234397778Y-75411995D01*
X234352445Y-75430772D01*
X234305490Y-75445016D01*
X234257365Y-75454588D01*
X234208534Y-75459398D01*
X234184000Y-75459398D01*
X234184000Y-75460000D01*
X233684000Y-75460000D01*
X233684000Y-75459398D01*
X233659466Y-75459398D01*
X233610635Y-75454588D01*
X233562510Y-75445016D01*
X233515555Y-75430772D01*
X233470222Y-75411995D01*
X233426949Y-75388864D01*
X233386150Y-75361604D01*
X233348221Y-75330476D01*
X233313524Y-75295779D01*
X233282396Y-75257850D01*
X233255136Y-75217051D01*
X233232005Y-75173778D01*
X233213228Y-75128445D01*
X233198984Y-75081490D01*
X233189412Y-75033365D01*
X233184602Y-74984534D01*
X233184602Y-74960000D01*
X233184000Y-74960000D01*
X233184000Y-74410000D01*
X234684000Y-74410000D01*
G37*
G36*
G01*
X145899500Y-135906500D02*
X145899500Y-136381500D01*
G75*
G02*
X145662000Y-136619000I-237500J0D01*
G01*
X145062000Y-136619000D01*
G75*
G02*
X144824500Y-136381500I0J237500D01*
G01*
X144824500Y-135906500D01*
G75*
G02*
X145062000Y-135669000I237500J0D01*
G01*
X145662000Y-135669000D01*
G75*
G02*
X145899500Y-135906500I0J-237500D01*
G01*
G37*
G36*
G01*
X144174500Y-135906500D02*
X144174500Y-136381500D01*
G75*
G02*
X143937000Y-136619000I-237500J0D01*
G01*
X143337000Y-136619000D01*
G75*
G02*
X143099500Y-136381500I0J237500D01*
G01*
X143099500Y-135906500D01*
G75*
G02*
X143337000Y-135669000I237500J0D01*
G01*
X143937000Y-135669000D01*
G75*
G02*
X144174500Y-135906500I0J-237500D01*
G01*
G37*
D13*
X227330000Y-127000000D03*
X222280000Y-127000000D03*
X227330000Y-124460000D03*
X222280000Y-124460000D03*
X227330000Y-121920000D03*
X222280000Y-121920000D03*
X227330000Y-119380000D03*
X222280000Y-119380000D03*
X227330000Y-116840000D03*
X222280000Y-116840000D03*
X227330000Y-114300000D03*
X222280000Y-114300000D03*
X227330000Y-111760000D03*
X222280000Y-111760000D03*
X227330000Y-109220000D03*
X222280000Y-109220000D03*
X227330000Y-106680000D03*
X222280000Y-106680000D03*
X227330000Y-104140000D03*
X222280000Y-104140000D03*
X227330000Y-101600000D03*
X222280000Y-101600000D03*
X227330000Y-99060000D03*
X222280000Y-99060000D03*
X227330000Y-96520000D03*
X222280000Y-96520000D03*
X227330000Y-93980000D03*
X222280000Y-93980000D03*
X227330000Y-91440000D03*
X222280000Y-91440000D03*
X227330000Y-88900000D03*
X222280000Y-88900000D03*
X227330000Y-86360000D03*
X222280000Y-86360000D03*
X227330000Y-83820000D03*
X222280000Y-83820000D03*
X227330000Y-81280000D03*
X222280000Y-81280000D03*
X227330000Y-78740000D03*
X222280000Y-78740000D03*
X227330000Y-76200000D03*
X222280000Y-76200000D03*
X227330000Y-73660000D03*
X222280000Y-73660000D03*
X227330000Y-71120000D03*
X222280000Y-71120000D03*
X227330000Y-68580000D03*
X222280000Y-68580000D03*
X227330000Y-66040000D03*
X222280000Y-66040000D03*
X213838000Y-127000000D03*
X208788000Y-127000000D03*
X213838000Y-124460000D03*
X208788000Y-124460000D03*
X213838000Y-121920000D03*
X208788000Y-121920000D03*
X213838000Y-119380000D03*
X208788000Y-119380000D03*
X213838000Y-116840000D03*
X208788000Y-116840000D03*
X213838000Y-114300000D03*
X208788000Y-114300000D03*
X213838000Y-111760000D03*
X208788000Y-111760000D03*
X213838000Y-109220000D03*
X208788000Y-109220000D03*
X213838000Y-106680000D03*
X208788000Y-106680000D03*
X213838000Y-104140000D03*
X208788000Y-104140000D03*
X213838000Y-101600000D03*
X208788000Y-101600000D03*
X213838000Y-99060000D03*
X208788000Y-99060000D03*
X213838000Y-96520000D03*
X208788000Y-96520000D03*
X213838000Y-93980000D03*
X208788000Y-93980000D03*
X213838000Y-91440000D03*
X208788000Y-91440000D03*
X213838000Y-88900000D03*
X208788000Y-88900000D03*
X213838000Y-86360000D03*
X208788000Y-86360000D03*
X213838000Y-83820000D03*
X208788000Y-83820000D03*
X213838000Y-81280000D03*
X208788000Y-81280000D03*
X213838000Y-78740000D03*
X208788000Y-78740000D03*
X213838000Y-76200000D03*
X208788000Y-76200000D03*
X213838000Y-73660000D03*
X208788000Y-73660000D03*
X213838000Y-71120000D03*
X208788000Y-71120000D03*
X213838000Y-68580000D03*
X208788000Y-68580000D03*
X213838000Y-66040000D03*
X208788000Y-66040000D03*
D29*
X238760000Y-60960000D03*
X238760000Y-63500000D03*
X238760000Y-66040000D03*
X238760000Y-68580000D03*
X238760000Y-71120000D03*
X238760000Y-73660000D03*
X238760000Y-76200000D03*
X238760000Y-78740000D03*
X238760000Y-81280000D03*
X238760000Y-83820000D03*
X238760000Y-86360000D03*
X238760000Y-88900000D03*
X238760000Y-91440000D03*
X238760000Y-93980000D03*
X238760000Y-96520000D03*
X238760000Y-99060000D03*
X238760000Y-101600000D03*
X238760000Y-104140000D03*
X238760000Y-106680000D03*
X238760000Y-109220000D03*
X238760000Y-111760000D03*
X238760000Y-114300000D03*
X238760000Y-116840000D03*
X238760000Y-119380000D03*
X238760000Y-121920000D03*
X238760000Y-124460000D03*
X238760000Y-127000000D03*
X238760000Y-129540000D03*
X238760000Y-132080000D03*
X238760000Y-134620000D03*
X238760000Y-137160000D03*
X238760000Y-139700000D03*
X243840000Y-139700000D03*
X243840000Y-137160000D03*
X243840000Y-134620000D03*
X243840000Y-132080000D03*
X243840000Y-129540000D03*
X243840000Y-127000000D03*
X243840000Y-124460000D03*
X243840000Y-121920000D03*
X243840000Y-119380000D03*
X243840000Y-116840000D03*
X243840000Y-114300000D03*
X243840000Y-111760000D03*
X243840000Y-109220000D03*
X243840000Y-106680000D03*
X243840000Y-104140000D03*
X243840000Y-101600000D03*
X243840000Y-99060000D03*
X243840000Y-96520000D03*
X243840000Y-93980000D03*
X243840000Y-91440000D03*
X243840000Y-88900000D03*
X243840000Y-86360000D03*
X243840000Y-83820000D03*
X243840000Y-81280000D03*
X243840000Y-78740000D03*
X243840000Y-76200000D03*
X243840000Y-73660000D03*
X243840000Y-71120000D03*
X243840000Y-68580000D03*
X243840000Y-66040000D03*
X243840000Y-63500000D03*
X243840000Y-60960000D03*
D30*
X246380000Y-144780000D03*
X246380000Y-55880000D03*
G36*
G01*
X131886000Y-136896001D02*
X131886000Y-135645999D01*
G75*
G02*
X132135999Y-135396000I249999J0D01*
G01*
X132936001Y-135396000D01*
G75*
G02*
X133186000Y-135645999I0J-249999D01*
G01*
X133186000Y-136896001D01*
G75*
G02*
X132936001Y-137146000I-249999J0D01*
G01*
X132135999Y-137146000D01*
G75*
G02*
X131886000Y-136896001I0J249999D01*
G01*
G37*
G36*
G01*
X134986000Y-136896001D02*
X134986000Y-135645999D01*
G75*
G02*
X135235999Y-135396000I249999J0D01*
G01*
X136036001Y-135396000D01*
G75*
G02*
X136286000Y-135645999I0J-249999D01*
G01*
X136286000Y-136896001D01*
G75*
G02*
X136036001Y-137146000I-249999J0D01*
G01*
X135235999Y-137146000D01*
G75*
G02*
X134986000Y-136896001I0J249999D01*
G01*
G37*
G36*
G01*
X134986000Y-139436001D02*
X134986000Y-138185999D01*
G75*
G02*
X135235999Y-137936000I249999J0D01*
G01*
X136036001Y-137936000D01*
G75*
G02*
X136286000Y-138185999I0J-249999D01*
G01*
X136286000Y-139436001D01*
G75*
G02*
X136036001Y-139686000I-249999J0D01*
G01*
X135235999Y-139686000D01*
G75*
G02*
X134986000Y-139436001I0J249999D01*
G01*
G37*
G36*
G01*
X131886000Y-139436001D02*
X131886000Y-138185999D01*
G75*
G02*
X132135999Y-137936000I249999J0D01*
G01*
X132936001Y-137936000D01*
G75*
G02*
X133186000Y-138185999I0J-249999D01*
G01*
X133186000Y-139436001D01*
G75*
G02*
X132936001Y-139686000I-249999J0D01*
G01*
X132135999Y-139686000D01*
G75*
G02*
X131886000Y-139436001I0J249999D01*
G01*
G37*
G36*
G01*
X138928001Y-142371500D02*
X137677999Y-142371500D01*
G75*
G02*
X137428000Y-142121501I0J249999D01*
G01*
X137428000Y-141321499D01*
G75*
G02*
X137677999Y-141071500I249999J0D01*
G01*
X138928001Y-141071500D01*
G75*
G02*
X139178000Y-141321499I0J-249999D01*
G01*
X139178000Y-142121501D01*
G75*
G02*
X138928001Y-142371500I-249999J0D01*
G01*
G37*
G36*
G01*
X138928001Y-139271500D02*
X137677999Y-139271500D01*
G75*
G02*
X137428000Y-139021501I0J249999D01*
G01*
X137428000Y-138221499D01*
G75*
G02*
X137677999Y-137971500I249999J0D01*
G01*
X138928001Y-137971500D01*
G75*
G02*
X139178000Y-138221499I0J-249999D01*
G01*
X139178000Y-139021501D01*
G75*
G02*
X138928001Y-139271500I-249999J0D01*
G01*
G37*
G36*
G01*
X141722001Y-142371500D02*
X140471999Y-142371500D01*
G75*
G02*
X140222000Y-142121501I0J249999D01*
G01*
X140222000Y-141321499D01*
G75*
G02*
X140471999Y-141071500I249999J0D01*
G01*
X141722001Y-141071500D01*
G75*
G02*
X141972000Y-141321499I0J-249999D01*
G01*
X141972000Y-142121501D01*
G75*
G02*
X141722001Y-142371500I-249999J0D01*
G01*
G37*
G36*
G01*
X141722001Y-139271500D02*
X140471999Y-139271500D01*
G75*
G02*
X140222000Y-139021501I0J249999D01*
G01*
X140222000Y-138221499D01*
G75*
G02*
X140471999Y-137971500I249999J0D01*
G01*
X141722001Y-137971500D01*
G75*
G02*
X141972000Y-138221499I0J-249999D01*
G01*
X141972000Y-139021501D01*
G75*
G02*
X141722001Y-139271500I-249999J0D01*
G01*
G37*
G36*
G01*
X140471999Y-135556500D02*
X141722001Y-135556500D01*
G75*
G02*
X141972000Y-135806499I0J-249999D01*
G01*
X141972000Y-136606501D01*
G75*
G02*
X141722001Y-136856500I-249999J0D01*
G01*
X140471999Y-136856500D01*
G75*
G02*
X140222000Y-136606501I0J249999D01*
G01*
X140222000Y-135806499D01*
G75*
G02*
X140471999Y-135556500I249999J0D01*
G01*
G37*
G36*
G01*
X140471999Y-132456500D02*
X141722001Y-132456500D01*
G75*
G02*
X141972000Y-132706499I0J-249999D01*
G01*
X141972000Y-133506501D01*
G75*
G02*
X141722001Y-133756500I-249999J0D01*
G01*
X140471999Y-133756500D01*
G75*
G02*
X140222000Y-133506501I0J249999D01*
G01*
X140222000Y-132706499D01*
G75*
G02*
X140471999Y-132456500I249999J0D01*
G01*
G37*
G36*
G01*
X137677999Y-135556500D02*
X138928001Y-135556500D01*
G75*
G02*
X139178000Y-135806499I0J-249999D01*
G01*
X139178000Y-136606501D01*
G75*
G02*
X138928001Y-136856500I-249999J0D01*
G01*
X137677999Y-136856500D01*
G75*
G02*
X137428000Y-136606501I0J249999D01*
G01*
X137428000Y-135806499D01*
G75*
G02*
X137677999Y-135556500I249999J0D01*
G01*
G37*
G36*
G01*
X137677999Y-132456500D02*
X138928001Y-132456500D01*
G75*
G02*
X139178000Y-132706499I0J-249999D01*
G01*
X139178000Y-133506501D01*
G75*
G02*
X138928001Y-133756500I-249999J0D01*
G01*
X137677999Y-133756500D01*
G75*
G02*
X137428000Y-133506501I0J249999D01*
G01*
X137428000Y-132706499D01*
G75*
G02*
X137677999Y-132456500I249999J0D01*
G01*
G37*
G36*
G01*
X143640000Y-123640001D02*
X143640000Y-122739999D01*
G75*
G02*
X143889999Y-122490000I249999J0D01*
G01*
X144590001Y-122490000D01*
G75*
G02*
X144840000Y-122739999I0J-249999D01*
G01*
X144840000Y-123640001D01*
G75*
G02*
X144590001Y-123890000I-249999J0D01*
G01*
X143889999Y-123890000D01*
G75*
G02*
X143640000Y-123640001I0J249999D01*
G01*
G37*
G36*
G01*
X141640000Y-123640001D02*
X141640000Y-122739999D01*
G75*
G02*
X141889999Y-122490000I249999J0D01*
G01*
X142590001Y-122490000D01*
G75*
G02*
X142840000Y-122739999I0J-249999D01*
G01*
X142840000Y-123640001D01*
G75*
G02*
X142590001Y-123890000I-249999J0D01*
G01*
X141889999Y-123890000D01*
G75*
G02*
X141640000Y-123640001I0J249999D01*
G01*
G37*
D27*
X92075000Y-60325000D03*
X92075000Y-66675000D03*
X92075000Y-63500000D03*
D15*
X104775000Y-58420000D03*
D14*
X107315000Y-60960000D03*
X107315000Y-55880000D03*
X102235000Y-55880000D03*
X102235000Y-60960000D03*
D15*
X116205000Y-58420000D03*
D14*
X118745000Y-60960000D03*
X118745000Y-55880000D03*
X113665000Y-55880000D03*
X113665000Y-60960000D03*
G36*
G01*
X144595001Y-97660000D02*
X143694999Y-97660000D01*
G75*
G02*
X143445000Y-97410001I0J249999D01*
G01*
X143445000Y-96709999D01*
G75*
G02*
X143694999Y-96460000I249999J0D01*
G01*
X144595001Y-96460000D01*
G75*
G02*
X144845000Y-96709999I0J-249999D01*
G01*
X144845000Y-97410001D01*
G75*
G02*
X144595001Y-97660000I-249999J0D01*
G01*
G37*
G36*
G01*
X144595001Y-99660000D02*
X143694999Y-99660000D01*
G75*
G02*
X143445000Y-99410001I0J249999D01*
G01*
X143445000Y-98709999D01*
G75*
G02*
X143694999Y-98460000I249999J0D01*
G01*
X144595001Y-98460000D01*
G75*
G02*
X144845000Y-98709999I0J-249999D01*
G01*
X144845000Y-99410001D01*
G75*
G02*
X144595001Y-99660000I-249999J0D01*
G01*
G37*
G36*
G01*
X156279001Y-102962000D02*
X155378999Y-102962000D01*
G75*
G02*
X155129000Y-102712001I0J249999D01*
G01*
X155129000Y-102011999D01*
G75*
G02*
X155378999Y-101762000I249999J0D01*
G01*
X156279001Y-101762000D01*
G75*
G02*
X156529000Y-102011999I0J-249999D01*
G01*
X156529000Y-102712001D01*
G75*
G02*
X156279001Y-102962000I-249999J0D01*
G01*
G37*
G36*
G01*
X156279001Y-100962000D02*
X155378999Y-100962000D01*
G75*
G02*
X155129000Y-100712001I0J249999D01*
G01*
X155129000Y-100011999D01*
G75*
G02*
X155378999Y-99762000I249999J0D01*
G01*
X156279001Y-99762000D01*
G75*
G02*
X156529000Y-100011999I0J-249999D01*
G01*
X156529000Y-100712001D01*
G75*
G02*
X156279001Y-100962000I-249999J0D01*
G01*
G37*
G36*
G01*
X147770001Y-99660000D02*
X146869999Y-99660000D01*
G75*
G02*
X146620000Y-99410001I0J249999D01*
G01*
X146620000Y-98709999D01*
G75*
G02*
X146869999Y-98460000I249999J0D01*
G01*
X147770001Y-98460000D01*
G75*
G02*
X148020000Y-98709999I0J-249999D01*
G01*
X148020000Y-99410001D01*
G75*
G02*
X147770001Y-99660000I-249999J0D01*
G01*
G37*
G36*
G01*
X147770001Y-97660000D02*
X146869999Y-97660000D01*
G75*
G02*
X146620000Y-97410001I0J249999D01*
G01*
X146620000Y-96709999D01*
G75*
G02*
X146869999Y-96460000I249999J0D01*
G01*
X147770001Y-96460000D01*
G75*
G02*
X148020000Y-96709999I0J-249999D01*
G01*
X148020000Y-97410001D01*
G75*
G02*
X147770001Y-97660000I-249999J0D01*
G01*
G37*
G36*
G01*
X141005000Y-99510001D02*
X141005000Y-98609999D01*
G75*
G02*
X141254999Y-98360000I249999J0D01*
G01*
X141955001Y-98360000D01*
G75*
G02*
X142205000Y-98609999I0J-249999D01*
G01*
X142205000Y-99510001D01*
G75*
G02*
X141955001Y-99760000I-249999J0D01*
G01*
X141254999Y-99760000D01*
G75*
G02*
X141005000Y-99510001I0J249999D01*
G01*
G37*
G36*
G01*
X139005000Y-99510001D02*
X139005000Y-98609999D01*
G75*
G02*
X139254999Y-98360000I249999J0D01*
G01*
X139955001Y-98360000D01*
G75*
G02*
X140205000Y-98609999I0J-249999D01*
G01*
X140205000Y-99510001D01*
G75*
G02*
X139955001Y-99760000I-249999J0D01*
G01*
X139254999Y-99760000D01*
G75*
G02*
X139005000Y-99510001I0J249999D01*
G01*
G37*
G36*
G01*
X161477000Y-101911999D02*
X161477000Y-102812001D01*
G75*
G02*
X161227001Y-103062000I-249999J0D01*
G01*
X160526999Y-103062000D01*
G75*
G02*
X160277000Y-102812001I0J249999D01*
G01*
X160277000Y-101911999D01*
G75*
G02*
X160526999Y-101662000I249999J0D01*
G01*
X161227001Y-101662000D01*
G75*
G02*
X161477000Y-101911999I0J-249999D01*
G01*
G37*
G36*
G01*
X159477000Y-101911999D02*
X159477000Y-102812001D01*
G75*
G02*
X159227001Y-103062000I-249999J0D01*
G01*
X158526999Y-103062000D01*
G75*
G02*
X158277000Y-102812001I0J249999D01*
G01*
X158277000Y-101911999D01*
G75*
G02*
X158526999Y-101662000I249999J0D01*
G01*
X159227001Y-101662000D01*
G75*
G02*
X159477000Y-101911999I0J-249999D01*
G01*
G37*
G36*
G01*
X150460000Y-98609999D02*
X150460000Y-99510001D01*
G75*
G02*
X150210001Y-99760000I-249999J0D01*
G01*
X149509999Y-99760000D01*
G75*
G02*
X149260000Y-99510001I0J249999D01*
G01*
X149260000Y-98609999D01*
G75*
G02*
X149509999Y-98360000I249999J0D01*
G01*
X150210001Y-98360000D01*
G75*
G02*
X150460000Y-98609999I0J-249999D01*
G01*
G37*
G36*
G01*
X152460000Y-98609999D02*
X152460000Y-99510001D01*
G75*
G02*
X152210001Y-99760000I-249999J0D01*
G01*
X151509999Y-99760000D01*
G75*
G02*
X151260000Y-99510001I0J249999D01*
G01*
X151260000Y-98609999D01*
G75*
G02*
X151509999Y-98360000I249999J0D01*
G01*
X152210001Y-98360000D01*
G75*
G02*
X152460000Y-98609999I0J-249999D01*
G01*
G37*
D15*
X139700000Y-58420000D03*
D14*
X142240000Y-60960000D03*
X142240000Y-55880000D03*
X137160000Y-55880000D03*
X137160000Y-60960000D03*
X125730000Y-60960000D03*
X125730000Y-55880000D03*
X130810000Y-55880000D03*
X130810000Y-60960000D03*
D15*
X128270000Y-58420000D03*
D27*
X92075000Y-74295000D03*
X92075000Y-80645000D03*
X92075000Y-77470000D03*
G36*
G01*
X134830000Y-104195000D02*
X134830000Y-103995000D01*
G75*
G02*
X134930000Y-103895000I100000J0D01*
G01*
X136205000Y-103895000D01*
G75*
G02*
X136305000Y-103995000I0J-100000D01*
G01*
X136305000Y-104195000D01*
G75*
G02*
X136205000Y-104295000I-100000J0D01*
G01*
X134930000Y-104295000D01*
G75*
G02*
X134830000Y-104195000I0J100000D01*
G01*
G37*
G36*
G01*
X134830000Y-104845000D02*
X134830000Y-104645000D01*
G75*
G02*
X134930000Y-104545000I100000J0D01*
G01*
X136205000Y-104545000D01*
G75*
G02*
X136305000Y-104645000I0J-100000D01*
G01*
X136305000Y-104845000D01*
G75*
G02*
X136205000Y-104945000I-100000J0D01*
G01*
X134930000Y-104945000D01*
G75*
G02*
X134830000Y-104845000I0J100000D01*
G01*
G37*
G36*
G01*
X134830000Y-105495000D02*
X134830000Y-105295000D01*
G75*
G02*
X134930000Y-105195000I100000J0D01*
G01*
X136205000Y-105195000D01*
G75*
G02*
X136305000Y-105295000I0J-100000D01*
G01*
X136305000Y-105495000D01*
G75*
G02*
X136205000Y-105595000I-100000J0D01*
G01*
X134930000Y-105595000D01*
G75*
G02*
X134830000Y-105495000I0J100000D01*
G01*
G37*
G36*
G01*
X134830000Y-106145000D02*
X134830000Y-105945000D01*
G75*
G02*
X134930000Y-105845000I100000J0D01*
G01*
X136205000Y-105845000D01*
G75*
G02*
X136305000Y-105945000I0J-100000D01*
G01*
X136305000Y-106145000D01*
G75*
G02*
X136205000Y-106245000I-100000J0D01*
G01*
X134930000Y-106245000D01*
G75*
G02*
X134830000Y-106145000I0J100000D01*
G01*
G37*
G36*
G01*
X134830000Y-106795000D02*
X134830000Y-106595000D01*
G75*
G02*
X134930000Y-106495000I100000J0D01*
G01*
X136205000Y-106495000D01*
G75*
G02*
X136305000Y-106595000I0J-100000D01*
G01*
X136305000Y-106795000D01*
G75*
G02*
X136205000Y-106895000I-100000J0D01*
G01*
X134930000Y-106895000D01*
G75*
G02*
X134830000Y-106795000I0J100000D01*
G01*
G37*
G36*
G01*
X134830000Y-107445000D02*
X134830000Y-107245000D01*
G75*
G02*
X134930000Y-107145000I100000J0D01*
G01*
X136205000Y-107145000D01*
G75*
G02*
X136305000Y-107245000I0J-100000D01*
G01*
X136305000Y-107445000D01*
G75*
G02*
X136205000Y-107545000I-100000J0D01*
G01*
X134930000Y-107545000D01*
G75*
G02*
X134830000Y-107445000I0J100000D01*
G01*
G37*
G36*
G01*
X134830000Y-108095000D02*
X134830000Y-107895000D01*
G75*
G02*
X134930000Y-107795000I100000J0D01*
G01*
X136205000Y-107795000D01*
G75*
G02*
X136305000Y-107895000I0J-100000D01*
G01*
X136305000Y-108095000D01*
G75*
G02*
X136205000Y-108195000I-100000J0D01*
G01*
X134930000Y-108195000D01*
G75*
G02*
X134830000Y-108095000I0J100000D01*
G01*
G37*
G36*
G01*
X140555000Y-108095000D02*
X140555000Y-107895000D01*
G75*
G02*
X140655000Y-107795000I100000J0D01*
G01*
X141930000Y-107795000D01*
G75*
G02*
X142030000Y-107895000I0J-100000D01*
G01*
X142030000Y-108095000D01*
G75*
G02*
X141930000Y-108195000I-100000J0D01*
G01*
X140655000Y-108195000D01*
G75*
G02*
X140555000Y-108095000I0J100000D01*
G01*
G37*
G36*
G01*
X140555000Y-107445000D02*
X140555000Y-107245000D01*
G75*
G02*
X140655000Y-107145000I100000J0D01*
G01*
X141930000Y-107145000D01*
G75*
G02*
X142030000Y-107245000I0J-100000D01*
G01*
X142030000Y-107445000D01*
G75*
G02*
X141930000Y-107545000I-100000J0D01*
G01*
X140655000Y-107545000D01*
G75*
G02*
X140555000Y-107445000I0J100000D01*
G01*
G37*
G36*
G01*
X140555000Y-106795000D02*
X140555000Y-106595000D01*
G75*
G02*
X140655000Y-106495000I100000J0D01*
G01*
X141930000Y-106495000D01*
G75*
G02*
X142030000Y-106595000I0J-100000D01*
G01*
X142030000Y-106795000D01*
G75*
G02*
X141930000Y-106895000I-100000J0D01*
G01*
X140655000Y-106895000D01*
G75*
G02*
X140555000Y-106795000I0J100000D01*
G01*
G37*
G36*
G01*
X140555000Y-106145000D02*
X140555000Y-105945000D01*
G75*
G02*
X140655000Y-105845000I100000J0D01*
G01*
X141930000Y-105845000D01*
G75*
G02*
X142030000Y-105945000I0J-100000D01*
G01*
X142030000Y-106145000D01*
G75*
G02*
X141930000Y-106245000I-100000J0D01*
G01*
X140655000Y-106245000D01*
G75*
G02*
X140555000Y-106145000I0J100000D01*
G01*
G37*
G36*
G01*
X140555000Y-105495000D02*
X140555000Y-105295000D01*
G75*
G02*
X140655000Y-105195000I100000J0D01*
G01*
X141930000Y-105195000D01*
G75*
G02*
X142030000Y-105295000I0J-100000D01*
G01*
X142030000Y-105495000D01*
G75*
G02*
X141930000Y-105595000I-100000J0D01*
G01*
X140655000Y-105595000D01*
G75*
G02*
X140555000Y-105495000I0J100000D01*
G01*
G37*
G36*
G01*
X140555000Y-104845000D02*
X140555000Y-104645000D01*
G75*
G02*
X140655000Y-104545000I100000J0D01*
G01*
X141930000Y-104545000D01*
G75*
G02*
X142030000Y-104645000I0J-100000D01*
G01*
X142030000Y-104845000D01*
G75*
G02*
X141930000Y-104945000I-100000J0D01*
G01*
X140655000Y-104945000D01*
G75*
G02*
X140555000Y-104845000I0J100000D01*
G01*
G37*
G36*
G01*
X140555000Y-104195000D02*
X140555000Y-103995000D01*
G75*
G02*
X140655000Y-103895000I100000J0D01*
G01*
X141930000Y-103895000D01*
G75*
G02*
X142030000Y-103995000I0J-100000D01*
G01*
X142030000Y-104195000D01*
G75*
G02*
X141930000Y-104295000I-100000J0D01*
G01*
X140655000Y-104295000D01*
G75*
G02*
X140555000Y-104195000I0J100000D01*
G01*
G37*
D11*
X135890000Y-116840000D03*
D10*
X133350000Y-116840000D03*
D11*
X160655000Y-68580000D03*
D10*
X158115000Y-68580000D03*
X155575000Y-68580000D03*
X153035000Y-68580000D03*
X150495000Y-68580000D03*
X147955000Y-68580000D03*
X145415000Y-68580000D03*
X142875000Y-68580000D03*
D11*
X160655000Y-71120000D03*
D10*
X158115000Y-71120000D03*
X155575000Y-71120000D03*
X153035000Y-71120000D03*
X138430000Y-116840000D03*
X138430000Y-114300000D03*
X140970000Y-116840000D03*
X140970000Y-114300000D03*
X143510000Y-116840000D03*
X143510000Y-114300000D03*
X146050000Y-116840000D03*
X146050000Y-114300000D03*
X148590000Y-116840000D03*
X148590000Y-114300000D03*
X151130000Y-116840000D03*
X151130000Y-114300000D03*
X153670000Y-116840000D03*
X153670000Y-114300000D03*
X156210000Y-116840000D03*
D11*
X156210000Y-114300000D03*
X178435000Y-114300000D03*
D10*
X178435000Y-116840000D03*
X175895000Y-114300000D03*
X175895000Y-116840000D03*
X173355000Y-114300000D03*
X173355000Y-116840000D03*
X170815000Y-114300000D03*
X170815000Y-116840000D03*
X168275000Y-114300000D03*
X168275000Y-116840000D03*
X165735000Y-114300000D03*
X165735000Y-116840000D03*
X163195000Y-114300000D03*
X163195000Y-116840000D03*
X160655000Y-114300000D03*
X160655000Y-116840000D03*
D31*
X149361000Y-105324000D03*
X149361000Y-105974000D03*
X149361000Y-106624000D03*
X149361000Y-107274000D03*
X153661000Y-107274000D03*
X153661000Y-106624000D03*
X153661000Y-105974000D03*
X153661000Y-105324000D03*
D24*
X193294000Y-139700000D03*
X166243000Y-127127000D03*
X238760000Y-54610000D03*
X234950000Y-84455000D03*
X234950000Y-128270000D03*
X216916000Y-132080000D03*
X142240000Y-126873000D03*
X125349000Y-130175000D03*
X162052000Y-55880000D03*
M02*
