G04 #@! TF.GenerationSoftware,KiCad,Pcbnew,5.1.9-73d0e3b20d~88~ubuntu18.04.1*
G04 #@! TF.CreationDate,2021-03-10T15:05:19+01:00*
G04 #@! TF.ProjectId,FPGA_buffer_board,46504741-5f62-4756-9666-65725f626f61,1.1*
G04 #@! TF.SameCoordinates,Original*
G04 #@! TF.FileFunction,Legend,Top*
G04 #@! TF.FilePolarity,Positive*
%FSLAX46Y46*%
G04 Gerber Fmt 4.6, Leading zero omitted, Abs format (unit mm)*
G04 Created by KiCad (PCBNEW 5.1.9-73d0e3b20d~88~ubuntu18.04.1) date 2021-03-10 15:05:19*
%MOMM*%
%LPD*%
G01*
G04 APERTURE LIST*
%ADD10C,0.150000*%
%ADD11C,0.100000*%
%ADD12C,0.300000*%
%ADD13C,0.120000*%
G04 APERTURE END LIST*
D10*
X138390476Y-63952380D02*
X138390476Y-63285714D01*
X138390476Y-62952380D02*
X138342857Y-63000000D01*
X138390476Y-63047619D01*
X138438095Y-63000000D01*
X138390476Y-62952380D01*
X138390476Y-63047619D01*
X138866666Y-63285714D02*
X138866666Y-63952380D01*
X138866666Y-63380952D02*
X138914285Y-63333333D01*
X139009523Y-63285714D01*
X139152380Y-63285714D01*
X139247619Y-63333333D01*
X139295238Y-63428571D01*
X139295238Y-63952380D01*
X139533333Y-64047619D02*
X140295238Y-64047619D01*
X140485714Y-63047619D02*
X140533333Y-63000000D01*
X140628571Y-62952380D01*
X140866666Y-62952380D01*
X140961904Y-63000000D01*
X141009523Y-63047619D01*
X141057142Y-63142857D01*
X141057142Y-63238095D01*
X141009523Y-63380952D01*
X140438095Y-63952380D01*
X141057142Y-63952380D01*
X126960476Y-63952380D02*
X126960476Y-63285714D01*
X126960476Y-62952380D02*
X126912857Y-63000000D01*
X126960476Y-63047619D01*
X127008095Y-63000000D01*
X126960476Y-62952380D01*
X126960476Y-63047619D01*
X127436666Y-63285714D02*
X127436666Y-63952380D01*
X127436666Y-63380952D02*
X127484285Y-63333333D01*
X127579523Y-63285714D01*
X127722380Y-63285714D01*
X127817619Y-63333333D01*
X127865238Y-63428571D01*
X127865238Y-63952380D01*
X128103333Y-64047619D02*
X128865238Y-64047619D01*
X129627142Y-63952380D02*
X129055714Y-63952380D01*
X129341428Y-63952380D02*
X129341428Y-62952380D01*
X129246190Y-63095238D01*
X129150952Y-63190476D01*
X129055714Y-63238095D01*
X114538333Y-63952380D02*
X114443095Y-63904761D01*
X114395476Y-63857142D01*
X114347857Y-63761904D01*
X114347857Y-63476190D01*
X114395476Y-63380952D01*
X114443095Y-63333333D01*
X114538333Y-63285714D01*
X114681190Y-63285714D01*
X114776428Y-63333333D01*
X114824047Y-63380952D01*
X114871666Y-63476190D01*
X114871666Y-63761904D01*
X114824047Y-63857142D01*
X114776428Y-63904761D01*
X114681190Y-63952380D01*
X114538333Y-63952380D01*
X115728809Y-63285714D02*
X115728809Y-63952380D01*
X115300238Y-63285714D02*
X115300238Y-63809523D01*
X115347857Y-63904761D01*
X115443095Y-63952380D01*
X115585952Y-63952380D01*
X115681190Y-63904761D01*
X115728809Y-63857142D01*
X116062142Y-63285714D02*
X116443095Y-63285714D01*
X116205000Y-62952380D02*
X116205000Y-63809523D01*
X116252619Y-63904761D01*
X116347857Y-63952380D01*
X116443095Y-63952380D01*
X116538333Y-64047619D02*
X117300238Y-64047619D01*
X117490714Y-63047619D02*
X117538333Y-63000000D01*
X117633571Y-62952380D01*
X117871666Y-62952380D01*
X117966904Y-63000000D01*
X118014523Y-63047619D01*
X118062142Y-63142857D01*
X118062142Y-63238095D01*
X118014523Y-63380952D01*
X117443095Y-63952380D01*
X118062142Y-63952380D01*
X96639238Y-130849714D02*
X96639238Y-131659238D01*
X96591619Y-131754476D01*
X96544000Y-131802095D01*
X96448761Y-131849714D01*
X96305904Y-131849714D01*
X96210666Y-131802095D01*
X96639238Y-131468761D02*
X96544000Y-131516380D01*
X96353523Y-131516380D01*
X96258285Y-131468761D01*
X96210666Y-131421142D01*
X96163047Y-131325904D01*
X96163047Y-131040190D01*
X96210666Y-130944952D01*
X96258285Y-130897333D01*
X96353523Y-130849714D01*
X96544000Y-130849714D01*
X96639238Y-130897333D01*
X97115428Y-131516380D02*
X97115428Y-130849714D01*
X97115428Y-131040190D02*
X97163047Y-130944952D01*
X97210666Y-130897333D01*
X97305904Y-130849714D01*
X97401142Y-130849714D01*
X98115428Y-131468761D02*
X98020190Y-131516380D01*
X97829714Y-131516380D01*
X97734476Y-131468761D01*
X97686857Y-131373523D01*
X97686857Y-130992571D01*
X97734476Y-130897333D01*
X97829714Y-130849714D01*
X98020190Y-130849714D01*
X98115428Y-130897333D01*
X98163047Y-130992571D01*
X98163047Y-131087809D01*
X97686857Y-131183047D01*
X98972571Y-131468761D02*
X98877333Y-131516380D01*
X98686857Y-131516380D01*
X98591619Y-131468761D01*
X98544000Y-131373523D01*
X98544000Y-130992571D01*
X98591619Y-130897333D01*
X98686857Y-130849714D01*
X98877333Y-130849714D01*
X98972571Y-130897333D01*
X99020190Y-130992571D01*
X99020190Y-131087809D01*
X98544000Y-131183047D01*
X99448761Y-130849714D02*
X99448761Y-131516380D01*
X99448761Y-130944952D02*
X99496380Y-130897333D01*
X99591619Y-130849714D01*
X99734476Y-130849714D01*
X99829714Y-130897333D01*
X99877333Y-130992571D01*
X99877333Y-131516380D01*
X96385238Y-72175714D02*
X96385238Y-72985238D01*
X96337619Y-73080476D01*
X96290000Y-73128095D01*
X96194761Y-73175714D01*
X96051904Y-73175714D01*
X95956666Y-73128095D01*
X96385238Y-72794761D02*
X96290000Y-72842380D01*
X96099523Y-72842380D01*
X96004285Y-72794761D01*
X95956666Y-72747142D01*
X95909047Y-72651904D01*
X95909047Y-72366190D01*
X95956666Y-72270952D01*
X96004285Y-72223333D01*
X96099523Y-72175714D01*
X96290000Y-72175714D01*
X96385238Y-72223333D01*
X96861428Y-72842380D02*
X96861428Y-72175714D01*
X96861428Y-72366190D02*
X96909047Y-72270952D01*
X96956666Y-72223333D01*
X97051904Y-72175714D01*
X97147142Y-72175714D01*
X97861428Y-72794761D02*
X97766190Y-72842380D01*
X97575714Y-72842380D01*
X97480476Y-72794761D01*
X97432857Y-72699523D01*
X97432857Y-72318571D01*
X97480476Y-72223333D01*
X97575714Y-72175714D01*
X97766190Y-72175714D01*
X97861428Y-72223333D01*
X97909047Y-72318571D01*
X97909047Y-72413809D01*
X97432857Y-72509047D01*
X98718571Y-72794761D02*
X98623333Y-72842380D01*
X98432857Y-72842380D01*
X98337619Y-72794761D01*
X98290000Y-72699523D01*
X98290000Y-72318571D01*
X98337619Y-72223333D01*
X98432857Y-72175714D01*
X98623333Y-72175714D01*
X98718571Y-72223333D01*
X98766190Y-72318571D01*
X98766190Y-72413809D01*
X98290000Y-72509047D01*
X99194761Y-72175714D02*
X99194761Y-72842380D01*
X99194761Y-72270952D02*
X99242380Y-72223333D01*
X99337619Y-72175714D01*
X99480476Y-72175714D01*
X99575714Y-72223333D01*
X99623333Y-72318571D01*
X99623333Y-72842380D01*
X96202619Y-58872380D02*
X96202619Y-58205714D01*
X96202619Y-58396190D02*
X96250238Y-58300952D01*
X96297857Y-58253333D01*
X96393095Y-58205714D01*
X96488333Y-58205714D01*
X97202619Y-58824761D02*
X97107380Y-58872380D01*
X96916904Y-58872380D01*
X96821666Y-58824761D01*
X96774047Y-58729523D01*
X96774047Y-58348571D01*
X96821666Y-58253333D01*
X96916904Y-58205714D01*
X97107380Y-58205714D01*
X97202619Y-58253333D01*
X97250238Y-58348571D01*
X97250238Y-58443809D01*
X96774047Y-58539047D01*
X98107380Y-58872380D02*
X98107380Y-57872380D01*
X98107380Y-58824761D02*
X98012142Y-58872380D01*
X97821666Y-58872380D01*
X97726428Y-58824761D01*
X97678809Y-58777142D01*
X97631190Y-58681904D01*
X97631190Y-58396190D01*
X97678809Y-58300952D01*
X97726428Y-58253333D01*
X97821666Y-58205714D01*
X98012142Y-58205714D01*
X98107380Y-58253333D01*
X95242380Y-65174761D02*
X95337619Y-65222380D01*
X95528095Y-65222380D01*
X95623333Y-65174761D01*
X95670952Y-65079523D01*
X95670952Y-65031904D01*
X95623333Y-64936666D01*
X95528095Y-64889047D01*
X95385238Y-64889047D01*
X95290000Y-64841428D01*
X95242380Y-64746190D01*
X95242380Y-64698571D01*
X95290000Y-64603333D01*
X95385238Y-64555714D01*
X95528095Y-64555714D01*
X95623333Y-64603333D01*
X96004285Y-64555714D02*
X96242380Y-65222380D01*
X96480476Y-64555714D02*
X96242380Y-65222380D01*
X96147142Y-65460476D01*
X96099523Y-65508095D01*
X96004285Y-65555714D01*
X96861428Y-64555714D02*
X96861428Y-65222380D01*
X96861428Y-64650952D02*
X96909047Y-64603333D01*
X97004285Y-64555714D01*
X97147142Y-64555714D01*
X97242380Y-64603333D01*
X97290000Y-64698571D01*
X97290000Y-65222380D01*
X98194761Y-65174761D02*
X98099523Y-65222380D01*
X97909047Y-65222380D01*
X97813809Y-65174761D01*
X97766190Y-65127142D01*
X97718571Y-65031904D01*
X97718571Y-64746190D01*
X97766190Y-64650952D01*
X97813809Y-64603333D01*
X97909047Y-64555714D01*
X98099523Y-64555714D01*
X98194761Y-64603333D01*
X98385238Y-65317619D02*
X99147142Y-65317619D01*
X99385238Y-65222380D02*
X99385238Y-64555714D01*
X99385238Y-64222380D02*
X99337619Y-64270000D01*
X99385238Y-64317619D01*
X99432857Y-64270000D01*
X99385238Y-64222380D01*
X99385238Y-64317619D01*
X99861428Y-64555714D02*
X99861428Y-65222380D01*
X99861428Y-64650952D02*
X99909047Y-64603333D01*
X100004285Y-64555714D01*
X100147142Y-64555714D01*
X100242380Y-64603333D01*
X100290000Y-64698571D01*
X100290000Y-65222380D01*
X208788095Y-139200000D02*
X208692857Y-139152380D01*
X208550000Y-139152380D01*
X208407142Y-139200000D01*
X208311904Y-139295238D01*
X208264285Y-139390476D01*
X208216666Y-139580952D01*
X208216666Y-139723809D01*
X208264285Y-139914285D01*
X208311904Y-140009523D01*
X208407142Y-140104761D01*
X208550000Y-140152380D01*
X208645238Y-140152380D01*
X208788095Y-140104761D01*
X208835714Y-140057142D01*
X208835714Y-139723809D01*
X208645238Y-139723809D01*
X209264285Y-140152380D02*
X209264285Y-139152380D01*
X209835714Y-140152380D01*
X209835714Y-139152380D01*
X210311904Y-140152380D02*
X210311904Y-139152380D01*
X210550000Y-139152380D01*
X210692857Y-139200000D01*
X210788095Y-139295238D01*
X210835714Y-139390476D01*
X210883333Y-139580952D01*
X210883333Y-139723809D01*
X210835714Y-139914285D01*
X210788095Y-140009523D01*
X210692857Y-140104761D01*
X210550000Y-140152380D01*
X210311904Y-140152380D01*
X193024285Y-139771428D02*
X193786190Y-139771428D01*
X193405238Y-140152380D02*
X193405238Y-139390476D01*
X194738571Y-139152380D02*
X194262380Y-139152380D01*
X194214761Y-139628571D01*
X194262380Y-139580952D01*
X194357619Y-139533333D01*
X194595714Y-139533333D01*
X194690952Y-139580952D01*
X194738571Y-139628571D01*
X194786190Y-139723809D01*
X194786190Y-139961904D01*
X194738571Y-140057142D01*
X194690952Y-140104761D01*
X194595714Y-140152380D01*
X194357619Y-140152380D01*
X194262380Y-140104761D01*
X194214761Y-140057142D01*
X195071904Y-139152380D02*
X195405238Y-140152380D01*
X195738571Y-139152380D01*
D11*
G36*
X218694000Y-96520000D02*
G01*
X216154000Y-97790000D01*
X216154000Y-95250000D01*
X218694000Y-96520000D01*
G37*
X218694000Y-96520000D02*
X216154000Y-97790000D01*
X216154000Y-95250000D01*
X218694000Y-96520000D01*
X218928190Y-97722380D02*
X219285333Y-97722380D01*
X219356761Y-97746190D01*
X219404380Y-97793809D01*
X219428190Y-97865238D01*
X219428190Y-97912857D01*
X219428190Y-97222380D02*
X219428190Y-97508095D01*
X219428190Y-97365238D02*
X218928190Y-97365238D01*
X218999619Y-97412857D01*
X219047238Y-97460476D01*
X219071047Y-97508095D01*
X218928190Y-97055714D02*
X218928190Y-96722380D01*
X219428190Y-96936666D01*
X219428190Y-96150952D02*
X218928190Y-96150952D01*
X219237714Y-96103333D02*
X219428190Y-95960476D01*
X219094857Y-95960476D02*
X219285333Y-96150952D01*
X219404380Y-95555714D02*
X219428190Y-95603333D01*
X219428190Y-95698571D01*
X219404380Y-95746190D01*
X219356761Y-95770000D01*
X219166285Y-95770000D01*
X219118666Y-95746190D01*
X219094857Y-95698571D01*
X219094857Y-95603333D01*
X219118666Y-95555714D01*
X219166285Y-95531904D01*
X219213904Y-95531904D01*
X219261523Y-95770000D01*
X219094857Y-95365238D02*
X219428190Y-95246190D01*
X219094857Y-95127142D02*
X219428190Y-95246190D01*
X219547238Y-95293809D01*
X219571047Y-95317619D01*
X219594857Y-95365238D01*
X232644190Y-97722380D02*
X233001333Y-97722380D01*
X233072761Y-97746190D01*
X233120380Y-97793809D01*
X233144190Y-97865238D01*
X233144190Y-97912857D01*
X233144190Y-97222380D02*
X233144190Y-97508095D01*
X233144190Y-97365238D02*
X232644190Y-97365238D01*
X232715619Y-97412857D01*
X232763238Y-97460476D01*
X232787047Y-97508095D01*
X232644190Y-96770000D02*
X232644190Y-97008095D01*
X232882285Y-97031904D01*
X232858476Y-97008095D01*
X232834666Y-96960476D01*
X232834666Y-96841428D01*
X232858476Y-96793809D01*
X232882285Y-96770000D01*
X232929904Y-96746190D01*
X233048952Y-96746190D01*
X233096571Y-96770000D01*
X233120380Y-96793809D01*
X233144190Y-96841428D01*
X233144190Y-96960476D01*
X233120380Y-97008095D01*
X233096571Y-97031904D01*
X233144190Y-96150952D02*
X232644190Y-96150952D01*
X232953714Y-96103333D02*
X233144190Y-95960476D01*
X232810857Y-95960476D02*
X233001333Y-96150952D01*
X233120380Y-95555714D02*
X233144190Y-95603333D01*
X233144190Y-95698571D01*
X233120380Y-95746190D01*
X233072761Y-95770000D01*
X232882285Y-95770000D01*
X232834666Y-95746190D01*
X232810857Y-95698571D01*
X232810857Y-95603333D01*
X232834666Y-95555714D01*
X232882285Y-95531904D01*
X232929904Y-95531904D01*
X232977523Y-95770000D01*
X232810857Y-95365238D02*
X233144190Y-95246190D01*
X232810857Y-95127142D02*
X233144190Y-95246190D01*
X233263238Y-95293809D01*
X233287047Y-95317619D01*
X233310857Y-95365238D01*
G36*
X232410000Y-96520000D02*
G01*
X229870000Y-97790000D01*
X229870000Y-95250000D01*
X232410000Y-96520000D01*
G37*
X232410000Y-96520000D02*
X229870000Y-97790000D01*
X229870000Y-95250000D01*
X232410000Y-96520000D01*
D10*
X96123333Y-79192380D02*
X96028095Y-79144761D01*
X95980476Y-79097142D01*
X95932857Y-79001904D01*
X95932857Y-78716190D01*
X95980476Y-78620952D01*
X96028095Y-78573333D01*
X96123333Y-78525714D01*
X96266190Y-78525714D01*
X96361428Y-78573333D01*
X96409047Y-78620952D01*
X96456666Y-78716190D01*
X96456666Y-79001904D01*
X96409047Y-79097142D01*
X96361428Y-79144761D01*
X96266190Y-79192380D01*
X96123333Y-79192380D01*
X97313809Y-78525714D02*
X97313809Y-79192380D01*
X96885238Y-78525714D02*
X96885238Y-79049523D01*
X96932857Y-79144761D01*
X97028095Y-79192380D01*
X97170952Y-79192380D01*
X97266190Y-79144761D01*
X97313809Y-79097142D01*
X97647142Y-78525714D02*
X98028095Y-78525714D01*
X97790000Y-78192380D02*
X97790000Y-79049523D01*
X97837619Y-79144761D01*
X97932857Y-79192380D01*
X98028095Y-79192380D01*
X98123333Y-79287619D02*
X98885238Y-79287619D01*
X99313809Y-78192380D02*
X99409047Y-78192380D01*
X99504285Y-78240000D01*
X99551904Y-78287619D01*
X99599523Y-78382857D01*
X99647142Y-78573333D01*
X99647142Y-78811428D01*
X99599523Y-79001904D01*
X99551904Y-79097142D01*
X99504285Y-79144761D01*
X99409047Y-79192380D01*
X99313809Y-79192380D01*
X99218571Y-79144761D01*
X99170952Y-79097142D01*
X99123333Y-79001904D01*
X99075714Y-78811428D01*
X99075714Y-78573333D01*
X99123333Y-78382857D01*
X99170952Y-78287619D01*
X99218571Y-78240000D01*
X99313809Y-78192380D01*
X103108333Y-63952380D02*
X103013095Y-63904761D01*
X102965476Y-63857142D01*
X102917857Y-63761904D01*
X102917857Y-63476190D01*
X102965476Y-63380952D01*
X103013095Y-63333333D01*
X103108333Y-63285714D01*
X103251190Y-63285714D01*
X103346428Y-63333333D01*
X103394047Y-63380952D01*
X103441666Y-63476190D01*
X103441666Y-63761904D01*
X103394047Y-63857142D01*
X103346428Y-63904761D01*
X103251190Y-63952380D01*
X103108333Y-63952380D01*
X104298809Y-63285714D02*
X104298809Y-63952380D01*
X103870238Y-63285714D02*
X103870238Y-63809523D01*
X103917857Y-63904761D01*
X104013095Y-63952380D01*
X104155952Y-63952380D01*
X104251190Y-63904761D01*
X104298809Y-63857142D01*
X104632142Y-63285714D02*
X105013095Y-63285714D01*
X104775000Y-62952380D02*
X104775000Y-63809523D01*
X104822619Y-63904761D01*
X104917857Y-63952380D01*
X105013095Y-63952380D01*
X105108333Y-64047619D02*
X105870238Y-64047619D01*
X106632142Y-63952380D02*
X106060714Y-63952380D01*
X106346428Y-63952380D02*
X106346428Y-62952380D01*
X106251190Y-63095238D01*
X106155952Y-63190476D01*
X106060714Y-63238095D01*
X97703047Y-122324761D02*
X97607809Y-122372380D01*
X97417333Y-122372380D01*
X97322095Y-122324761D01*
X97274476Y-122277142D01*
X97226857Y-122181904D01*
X97226857Y-121896190D01*
X97274476Y-121800952D01*
X97322095Y-121753333D01*
X97417333Y-121705714D01*
X97607809Y-121705714D01*
X97703047Y-121753333D01*
X98274476Y-122372380D02*
X98179238Y-122324761D01*
X98131619Y-122229523D01*
X98131619Y-121372380D01*
X98798285Y-122372380D02*
X98703047Y-122324761D01*
X98655428Y-122277142D01*
X98607809Y-122181904D01*
X98607809Y-121896190D01*
X98655428Y-121800952D01*
X98703047Y-121753333D01*
X98798285Y-121705714D01*
X98941142Y-121705714D01*
X99036380Y-121753333D01*
X99084000Y-121800952D01*
X99131619Y-121896190D01*
X99131619Y-122181904D01*
X99084000Y-122277142D01*
X99036380Y-122324761D01*
X98941142Y-122372380D01*
X98798285Y-122372380D01*
X99988761Y-122324761D02*
X99893523Y-122372380D01*
X99703047Y-122372380D01*
X99607809Y-122324761D01*
X99560190Y-122277142D01*
X99512571Y-122181904D01*
X99512571Y-121896190D01*
X99560190Y-121800952D01*
X99607809Y-121753333D01*
X99703047Y-121705714D01*
X99893523Y-121705714D01*
X99988761Y-121753333D01*
X100417333Y-122372380D02*
X100417333Y-121372380D01*
X100512571Y-121991428D02*
X100798285Y-122372380D01*
X100798285Y-121705714D02*
X100417333Y-122086666D01*
X102131619Y-122372380D02*
X102036380Y-122324761D01*
X101988761Y-122277142D01*
X101941142Y-122181904D01*
X101941142Y-121896190D01*
X101988761Y-121800952D01*
X102036380Y-121753333D01*
X102131619Y-121705714D01*
X102274476Y-121705714D01*
X102369714Y-121753333D01*
X102417333Y-121800952D01*
X102464952Y-121896190D01*
X102464952Y-122181904D01*
X102417333Y-122277142D01*
X102369714Y-122324761D01*
X102274476Y-122372380D01*
X102131619Y-122372380D01*
X103322095Y-121705714D02*
X103322095Y-122372380D01*
X102893523Y-121705714D02*
X102893523Y-122229523D01*
X102941142Y-122324761D01*
X103036380Y-122372380D01*
X103179238Y-122372380D01*
X103274476Y-122324761D01*
X103322095Y-122277142D01*
X103655428Y-121705714D02*
X104036380Y-121705714D01*
X103798285Y-121372380D02*
X103798285Y-122229523D01*
X103845904Y-122324761D01*
X103941142Y-122372380D01*
X104036380Y-122372380D01*
X97695047Y-136040761D02*
X97599809Y-136088380D01*
X97409333Y-136088380D01*
X97314095Y-136040761D01*
X97266476Y-135993142D01*
X97218857Y-135897904D01*
X97218857Y-135612190D01*
X97266476Y-135516952D01*
X97314095Y-135469333D01*
X97409333Y-135421714D01*
X97599809Y-135421714D01*
X97695047Y-135469333D01*
X98266476Y-136088380D02*
X98171238Y-136040761D01*
X98123619Y-135945523D01*
X98123619Y-135088380D01*
X98790285Y-136088380D02*
X98695047Y-136040761D01*
X98647428Y-135993142D01*
X98599809Y-135897904D01*
X98599809Y-135612190D01*
X98647428Y-135516952D01*
X98695047Y-135469333D01*
X98790285Y-135421714D01*
X98933142Y-135421714D01*
X99028380Y-135469333D01*
X99076000Y-135516952D01*
X99123619Y-135612190D01*
X99123619Y-135897904D01*
X99076000Y-135993142D01*
X99028380Y-136040761D01*
X98933142Y-136088380D01*
X98790285Y-136088380D01*
X99980761Y-136040761D02*
X99885523Y-136088380D01*
X99695047Y-136088380D01*
X99599809Y-136040761D01*
X99552190Y-135993142D01*
X99504571Y-135897904D01*
X99504571Y-135612190D01*
X99552190Y-135516952D01*
X99599809Y-135469333D01*
X99695047Y-135421714D01*
X99885523Y-135421714D01*
X99980761Y-135469333D01*
X100409333Y-136088380D02*
X100409333Y-135088380D01*
X100504571Y-135707428D02*
X100790285Y-136088380D01*
X100790285Y-135421714D02*
X100409333Y-135802666D01*
X101980761Y-136088380D02*
X101980761Y-135421714D01*
X101980761Y-135088380D02*
X101933142Y-135136000D01*
X101980761Y-135183619D01*
X102028380Y-135136000D01*
X101980761Y-135088380D01*
X101980761Y-135183619D01*
X102456952Y-135421714D02*
X102456952Y-136088380D01*
X102456952Y-135516952D02*
X102504571Y-135469333D01*
X102599809Y-135421714D01*
X102742666Y-135421714D01*
X102837904Y-135469333D01*
X102885523Y-135564571D01*
X102885523Y-136088380D01*
D12*
X95150714Y-107671428D02*
X95222142Y-107742857D01*
X95293571Y-107957142D01*
X95293571Y-108100000D01*
X95222142Y-108314285D01*
X95079285Y-108457142D01*
X94936428Y-108528571D01*
X94650714Y-108600000D01*
X94436428Y-108600000D01*
X94150714Y-108528571D01*
X94007857Y-108457142D01*
X93865000Y-108314285D01*
X93793571Y-108100000D01*
X93793571Y-107957142D01*
X93865000Y-107742857D01*
X93936428Y-107671428D01*
X95293571Y-106814285D02*
X95222142Y-106957142D01*
X95150714Y-107028571D01*
X95007857Y-107100000D01*
X94579285Y-107100000D01*
X94436428Y-107028571D01*
X94365000Y-106957142D01*
X94293571Y-106814285D01*
X94293571Y-106600000D01*
X94365000Y-106457142D01*
X94436428Y-106385714D01*
X94579285Y-106314285D01*
X95007857Y-106314285D01*
X95150714Y-106385714D01*
X95222142Y-106457142D01*
X95293571Y-106600000D01*
X95293571Y-106814285D01*
X95293571Y-105671428D02*
X94293571Y-105671428D01*
X94579285Y-105671428D02*
X94436428Y-105600000D01*
X94365000Y-105528571D01*
X94293571Y-105385714D01*
X94293571Y-105242857D01*
X95293571Y-104100000D02*
X94507857Y-104100000D01*
X94365000Y-104171428D01*
X94293571Y-104314285D01*
X94293571Y-104600000D01*
X94365000Y-104742857D01*
X95222142Y-104100000D02*
X95293571Y-104242857D01*
X95293571Y-104600000D01*
X95222142Y-104742857D01*
X95079285Y-104814285D01*
X94936428Y-104814285D01*
X94793571Y-104742857D01*
X94722142Y-104600000D01*
X94722142Y-104242857D01*
X94650714Y-104100000D01*
X94722142Y-103385714D02*
X94722142Y-102242857D01*
X93793571Y-101671428D02*
X93793571Y-100671428D01*
X95293571Y-101671428D01*
X95293571Y-100671428D01*
X93793571Y-100242857D02*
X93793571Y-99242857D01*
X95293571Y-99885714D01*
X94722142Y-98671428D02*
X94722142Y-97528571D01*
X95293571Y-96028571D02*
X95293571Y-96885714D01*
X95293571Y-96457142D02*
X93793571Y-96457142D01*
X94007857Y-96600000D01*
X94150714Y-96742857D01*
X94222142Y-96885714D01*
X93793571Y-95100000D02*
X93793571Y-94957142D01*
X93865000Y-94814285D01*
X93936428Y-94742857D01*
X94079285Y-94671428D01*
X94365000Y-94600000D01*
X94722142Y-94600000D01*
X95007857Y-94671428D01*
X95150714Y-94742857D01*
X95222142Y-94814285D01*
X95293571Y-94957142D01*
X95293571Y-95100000D01*
X95222142Y-95242857D01*
X95150714Y-95314285D01*
X95007857Y-95385714D01*
X94722142Y-95457142D01*
X94365000Y-95457142D01*
X94079285Y-95385714D01*
X93936428Y-95314285D01*
X93865000Y-95242857D01*
X93793571Y-95100000D01*
D13*
X179765000Y-67250000D02*
X179765000Y-69850000D01*
X179765000Y-67250000D02*
X164405000Y-67250000D01*
X164405000Y-67250000D02*
X164405000Y-72450000D01*
X177165000Y-72450000D02*
X164405000Y-72450000D01*
X177165000Y-69850000D02*
X177165000Y-72450000D01*
X179765000Y-69850000D02*
X177165000Y-69850000D01*
X179765000Y-72450000D02*
X178435000Y-72450000D01*
X179765000Y-71120000D02*
X179765000Y-72450000D01*
X201975000Y-87120000D02*
X201975000Y-88140000D01*
X196775000Y-87120000D02*
X196775000Y-88140000D01*
X201975000Y-84580000D02*
X201975000Y-85600000D01*
X196775000Y-84580000D02*
X196775000Y-85600000D01*
X201975000Y-82040000D02*
X201975000Y-83060000D01*
X196775000Y-82040000D02*
X196775000Y-83060000D01*
X201975000Y-79500000D02*
X201975000Y-80520000D01*
X196775000Y-79500000D02*
X196775000Y-80520000D01*
X201975000Y-76960000D02*
X201975000Y-77980000D01*
X196775000Y-76960000D02*
X196775000Y-77980000D01*
X201975000Y-89660000D02*
X201975000Y-90230000D01*
X196775000Y-89660000D02*
X196775000Y-90230000D01*
X201975000Y-74870000D02*
X201975000Y-75440000D01*
X196775000Y-74870000D02*
X196775000Y-75440000D01*
X195335000Y-75440000D02*
X196775000Y-75440000D01*
X196775000Y-90230000D02*
X201975000Y-90230000D01*
X196775000Y-74870000D02*
X201975000Y-74870000D01*
X161474000Y-131642000D02*
X161174000Y-131342000D01*
X161774000Y-131342000D02*
X161174000Y-131342000D01*
X161474000Y-131642000D02*
X161774000Y-131342000D01*
X162324000Y-132542000D02*
X162324000Y-133142000D01*
X158874000Y-131842000D02*
X161674000Y-131842000D01*
X158224000Y-133142000D02*
X158224000Y-132542000D01*
X161674000Y-133842000D02*
X158874000Y-133842000D01*
X158924000Y-133842000D02*
G75*
G02*
X158224000Y-133142000I0J700000D01*
G01*
X158224000Y-132542000D02*
G75*
G02*
X158924000Y-131842000I700000J0D01*
G01*
X161624000Y-131842000D02*
G75*
G02*
X162324000Y-132542000I0J-700000D01*
G01*
X162324000Y-133142000D02*
G75*
G02*
X161624000Y-133842000I-700000J0D01*
G01*
X157115000Y-58420000D02*
G75*
G03*
X157115000Y-58420000I-4120000J0D01*
G01*
X152995000Y-54340000D02*
X152995000Y-62500000D01*
X153035000Y-54340000D02*
X153035000Y-62500000D01*
X153075000Y-54340000D02*
X153075000Y-62500000D01*
X153115000Y-54341000D02*
X153115000Y-62499000D01*
X153155000Y-54343000D02*
X153155000Y-62497000D01*
X153195000Y-54344000D02*
X153195000Y-62496000D01*
X153235000Y-54346000D02*
X153235000Y-62494000D01*
X153275000Y-54349000D02*
X153275000Y-62491000D01*
X153315000Y-54352000D02*
X153315000Y-62488000D01*
X153355000Y-54355000D02*
X153355000Y-62485000D01*
X153395000Y-54359000D02*
X153395000Y-62481000D01*
X153435000Y-54363000D02*
X153435000Y-62477000D01*
X153475000Y-54368000D02*
X153475000Y-62472000D01*
X153515000Y-54372000D02*
X153515000Y-62468000D01*
X153555000Y-54378000D02*
X153555000Y-62462000D01*
X153595000Y-54383000D02*
X153595000Y-62457000D01*
X153635000Y-54390000D02*
X153635000Y-62450000D01*
X153675000Y-54396000D02*
X153675000Y-62444000D01*
X153716000Y-54403000D02*
X153716000Y-62437000D01*
X153756000Y-54410000D02*
X153756000Y-62430000D01*
X153796000Y-54418000D02*
X153796000Y-62422000D01*
X153836000Y-54426000D02*
X153836000Y-62414000D01*
X153876000Y-54435000D02*
X153876000Y-62405000D01*
X153916000Y-54444000D02*
X153916000Y-62396000D01*
X153956000Y-54453000D02*
X153956000Y-62387000D01*
X153996000Y-54463000D02*
X153996000Y-62377000D01*
X154036000Y-54473000D02*
X154036000Y-62367000D01*
X154076000Y-54484000D02*
X154076000Y-62356000D01*
X154116000Y-54495000D02*
X154116000Y-62345000D01*
X154156000Y-54506000D02*
X154156000Y-62334000D01*
X154196000Y-54518000D02*
X154196000Y-62322000D01*
X154236000Y-54531000D02*
X154236000Y-62309000D01*
X154276000Y-54543000D02*
X154276000Y-62297000D01*
X154316000Y-54557000D02*
X154316000Y-62283000D01*
X154356000Y-54570000D02*
X154356000Y-62270000D01*
X154396000Y-54585000D02*
X154396000Y-62255000D01*
X154436000Y-54599000D02*
X154436000Y-62241000D01*
X154476000Y-54615000D02*
X154476000Y-57380000D01*
X154476000Y-59460000D02*
X154476000Y-62225000D01*
X154516000Y-54630000D02*
X154516000Y-57380000D01*
X154516000Y-59460000D02*
X154516000Y-62210000D01*
X154556000Y-54646000D02*
X154556000Y-57380000D01*
X154556000Y-59460000D02*
X154556000Y-62194000D01*
X154596000Y-54663000D02*
X154596000Y-57380000D01*
X154596000Y-59460000D02*
X154596000Y-62177000D01*
X154636000Y-54680000D02*
X154636000Y-57380000D01*
X154636000Y-59460000D02*
X154636000Y-62160000D01*
X154676000Y-54698000D02*
X154676000Y-57380000D01*
X154676000Y-59460000D02*
X154676000Y-62142000D01*
X154716000Y-54716000D02*
X154716000Y-57380000D01*
X154716000Y-59460000D02*
X154716000Y-62124000D01*
X154756000Y-54734000D02*
X154756000Y-57380000D01*
X154756000Y-59460000D02*
X154756000Y-62106000D01*
X154796000Y-54754000D02*
X154796000Y-57380000D01*
X154796000Y-59460000D02*
X154796000Y-62086000D01*
X154836000Y-54773000D02*
X154836000Y-57380000D01*
X154836000Y-59460000D02*
X154836000Y-62067000D01*
X154876000Y-54793000D02*
X154876000Y-57380000D01*
X154876000Y-59460000D02*
X154876000Y-62047000D01*
X154916000Y-54814000D02*
X154916000Y-57380000D01*
X154916000Y-59460000D02*
X154916000Y-62026000D01*
X154956000Y-54836000D02*
X154956000Y-57380000D01*
X154956000Y-59460000D02*
X154956000Y-62004000D01*
X154996000Y-54858000D02*
X154996000Y-57380000D01*
X154996000Y-59460000D02*
X154996000Y-61982000D01*
X155036000Y-54880000D02*
X155036000Y-57380000D01*
X155036000Y-59460000D02*
X155036000Y-61960000D01*
X155076000Y-54903000D02*
X155076000Y-57380000D01*
X155076000Y-59460000D02*
X155076000Y-61937000D01*
X155116000Y-54927000D02*
X155116000Y-57380000D01*
X155116000Y-59460000D02*
X155116000Y-61913000D01*
X155156000Y-54951000D02*
X155156000Y-57380000D01*
X155156000Y-59460000D02*
X155156000Y-61889000D01*
X155196000Y-54976000D02*
X155196000Y-57380000D01*
X155196000Y-59460000D02*
X155196000Y-61864000D01*
X155236000Y-55002000D02*
X155236000Y-57380000D01*
X155236000Y-59460000D02*
X155236000Y-61838000D01*
X155276000Y-55028000D02*
X155276000Y-57380000D01*
X155276000Y-59460000D02*
X155276000Y-61812000D01*
X155316000Y-55055000D02*
X155316000Y-57380000D01*
X155316000Y-59460000D02*
X155316000Y-61785000D01*
X155356000Y-55082000D02*
X155356000Y-57380000D01*
X155356000Y-59460000D02*
X155356000Y-61758000D01*
X155396000Y-55111000D02*
X155396000Y-57380000D01*
X155396000Y-59460000D02*
X155396000Y-61729000D01*
X155436000Y-55140000D02*
X155436000Y-57380000D01*
X155436000Y-59460000D02*
X155436000Y-61700000D01*
X155476000Y-55170000D02*
X155476000Y-57380000D01*
X155476000Y-59460000D02*
X155476000Y-61670000D01*
X155516000Y-55200000D02*
X155516000Y-57380000D01*
X155516000Y-59460000D02*
X155516000Y-61640000D01*
X155556000Y-55231000D02*
X155556000Y-57380000D01*
X155556000Y-59460000D02*
X155556000Y-61609000D01*
X155596000Y-55264000D02*
X155596000Y-57380000D01*
X155596000Y-59460000D02*
X155596000Y-61576000D01*
X155636000Y-55296000D02*
X155636000Y-57380000D01*
X155636000Y-59460000D02*
X155636000Y-61544000D01*
X155676000Y-55330000D02*
X155676000Y-57380000D01*
X155676000Y-59460000D02*
X155676000Y-61510000D01*
X155716000Y-55365000D02*
X155716000Y-57380000D01*
X155716000Y-59460000D02*
X155716000Y-61475000D01*
X155756000Y-55401000D02*
X155756000Y-57380000D01*
X155756000Y-59460000D02*
X155756000Y-61439000D01*
X155796000Y-55437000D02*
X155796000Y-57380000D01*
X155796000Y-59460000D02*
X155796000Y-61403000D01*
X155836000Y-55475000D02*
X155836000Y-57380000D01*
X155836000Y-59460000D02*
X155836000Y-61365000D01*
X155876000Y-55513000D02*
X155876000Y-57380000D01*
X155876000Y-59460000D02*
X155876000Y-61327000D01*
X155916000Y-55553000D02*
X155916000Y-57380000D01*
X155916000Y-59460000D02*
X155916000Y-61287000D01*
X155956000Y-55594000D02*
X155956000Y-57380000D01*
X155956000Y-59460000D02*
X155956000Y-61246000D01*
X155996000Y-55636000D02*
X155996000Y-57380000D01*
X155996000Y-59460000D02*
X155996000Y-61204000D01*
X156036000Y-55679000D02*
X156036000Y-57380000D01*
X156036000Y-59460000D02*
X156036000Y-61161000D01*
X156076000Y-55723000D02*
X156076000Y-57380000D01*
X156076000Y-59460000D02*
X156076000Y-61117000D01*
X156116000Y-55769000D02*
X156116000Y-57380000D01*
X156116000Y-59460000D02*
X156116000Y-61071000D01*
X156156000Y-55816000D02*
X156156000Y-57380000D01*
X156156000Y-59460000D02*
X156156000Y-61024000D01*
X156196000Y-55864000D02*
X156196000Y-57380000D01*
X156196000Y-59460000D02*
X156196000Y-60976000D01*
X156236000Y-55915000D02*
X156236000Y-57380000D01*
X156236000Y-59460000D02*
X156236000Y-60925000D01*
X156276000Y-55966000D02*
X156276000Y-57380000D01*
X156276000Y-59460000D02*
X156276000Y-60874000D01*
X156316000Y-56020000D02*
X156316000Y-57380000D01*
X156316000Y-59460000D02*
X156316000Y-60820000D01*
X156356000Y-56075000D02*
X156356000Y-57380000D01*
X156356000Y-59460000D02*
X156356000Y-60765000D01*
X156396000Y-56133000D02*
X156396000Y-57380000D01*
X156396000Y-59460000D02*
X156396000Y-60707000D01*
X156436000Y-56192000D02*
X156436000Y-57380000D01*
X156436000Y-59460000D02*
X156436000Y-60648000D01*
X156476000Y-56254000D02*
X156476000Y-57380000D01*
X156476000Y-59460000D02*
X156476000Y-60586000D01*
X156516000Y-56318000D02*
X156516000Y-57380000D01*
X156516000Y-59460000D02*
X156516000Y-60522000D01*
X156556000Y-56386000D02*
X156556000Y-60454000D01*
X156596000Y-56456000D02*
X156596000Y-60384000D01*
X156636000Y-56530000D02*
X156636000Y-60310000D01*
X156676000Y-56607000D02*
X156676000Y-60233000D01*
X156716000Y-56689000D02*
X156716000Y-60151000D01*
X156756000Y-56775000D02*
X156756000Y-60065000D01*
X156796000Y-56868000D02*
X156796000Y-59972000D01*
X156836000Y-56967000D02*
X156836000Y-59873000D01*
X156876000Y-57074000D02*
X156876000Y-59766000D01*
X156916000Y-57191000D02*
X156916000Y-59649000D01*
X156956000Y-57322000D02*
X156956000Y-59518000D01*
X156996000Y-57472000D02*
X156996000Y-59368000D01*
X157036000Y-57652000D02*
X157036000Y-59188000D01*
X157076000Y-57887000D02*
X157076000Y-58953000D01*
X148585302Y-56105000D02*
X149385302Y-56105000D01*
X148985302Y-55705000D02*
X148985302Y-56505000D01*
X161801000Y-142478000D02*
X159001000Y-142478000D01*
X158351000Y-141778000D02*
X158351000Y-141178000D01*
X159001000Y-140478000D02*
X161801000Y-140478000D01*
X162451000Y-141178000D02*
X162451000Y-141778000D01*
X161601000Y-140278000D02*
X161901000Y-139978000D01*
X161901000Y-139978000D02*
X161301000Y-139978000D01*
X161601000Y-140278000D02*
X161301000Y-139978000D01*
X162451000Y-141778000D02*
G75*
G02*
X161751000Y-142478000I-700000J0D01*
G01*
X161751000Y-140478000D02*
G75*
G02*
X162451000Y-141178000I0J-700000D01*
G01*
X158351000Y-141178000D02*
G75*
G02*
X159051000Y-140478000I700000J0D01*
G01*
X159051000Y-142478000D02*
G75*
G02*
X158351000Y-141778000I0J700000D01*
G01*
X164281000Y-142678000D02*
X164581000Y-142978000D01*
X163981000Y-142978000D02*
X164581000Y-142978000D01*
X164281000Y-142678000D02*
X163981000Y-142978000D01*
X163431000Y-141778000D02*
X163431000Y-141178000D01*
X166881000Y-142478000D02*
X164081000Y-142478000D01*
X167531000Y-141178000D02*
X167531000Y-141778000D01*
X164081000Y-140478000D02*
X166881000Y-140478000D01*
X166831000Y-140478000D02*
G75*
G02*
X167531000Y-141178000I0J-700000D01*
G01*
X167531000Y-141778000D02*
G75*
G02*
X166831000Y-142478000I-700000J0D01*
G01*
X164131000Y-142478000D02*
G75*
G02*
X163431000Y-141778000I0J700000D01*
G01*
X163431000Y-141178000D02*
G75*
G02*
X164131000Y-140478000I700000J0D01*
G01*
X138119000Y-123895000D02*
X137819000Y-124195000D01*
X137819000Y-123595000D02*
X137819000Y-124195000D01*
X138119000Y-123895000D02*
X137819000Y-123595000D01*
X139019000Y-123045000D02*
X139619000Y-123045000D01*
X138319000Y-126495000D02*
X138319000Y-123695000D01*
X139619000Y-127145000D02*
X139019000Y-127145000D01*
X140319000Y-123695000D02*
X140319000Y-126495000D01*
X140319000Y-126445000D02*
G75*
G02*
X139619000Y-127145000I-700000J0D01*
G01*
X139019000Y-127145000D02*
G75*
G02*
X138319000Y-126445000I0J700000D01*
G01*
X138319000Y-123745000D02*
G75*
G02*
X139019000Y-123045000I700000J0D01*
G01*
X139619000Y-123045000D02*
G75*
G02*
X140319000Y-123745000I0J-700000D01*
G01*
X177105000Y-138370000D02*
X177105000Y-141030000D01*
X182245000Y-138370000D02*
X177105000Y-138370000D01*
X182245000Y-141030000D02*
X177105000Y-141030000D01*
X182245000Y-138370000D02*
X182245000Y-141030000D01*
X183515000Y-138370000D02*
X184845000Y-138370000D01*
X184845000Y-138370000D02*
X184845000Y-139700000D01*
X156410000Y-63260000D02*
X152025000Y-63260000D01*
X152025000Y-63260000D02*
X152025000Y-66280000D01*
X152025000Y-66280000D02*
X156410000Y-66280000D01*
X231895000Y-134790000D02*
X231895000Y-141810000D01*
X231895000Y-141810000D02*
X230695000Y-141810000D01*
X230695000Y-141810000D02*
X230695000Y-143510000D01*
X230695000Y-143510000D02*
X213135000Y-143510000D01*
X213135000Y-143510000D02*
X213135000Y-141810000D01*
X213135000Y-141810000D02*
X211935000Y-141810000D01*
X211935000Y-141810000D02*
X211935000Y-134790000D01*
X211935000Y-134790000D02*
X231895000Y-134790000D01*
X232095000Y-139700000D02*
X232695000Y-139400000D01*
X232695000Y-139400000D02*
X232695000Y-140000000D01*
X232695000Y-140000000D02*
X232095000Y-139700000D01*
D10*
X132233000Y-123795000D02*
X132233000Y-123920000D01*
X135483000Y-123795000D02*
X135483000Y-124020000D01*
X135483000Y-127045000D02*
X135483000Y-126820000D01*
X132233000Y-127045000D02*
X132233000Y-126820000D01*
X132233000Y-123795000D02*
X135483000Y-123795000D01*
X132233000Y-127045000D02*
X135483000Y-127045000D01*
X132233000Y-123920000D02*
X131158000Y-123920000D01*
X164061000Y-134908000D02*
X164061000Y-134973000D01*
X164061000Y-139158000D02*
X164061000Y-139093000D01*
X160811000Y-139158000D02*
X160811000Y-139093000D01*
X160811000Y-134908000D02*
X164061000Y-134908000D01*
X160811000Y-139158000D02*
X164061000Y-139158000D01*
X160811000Y-134908000D02*
X159886000Y-134908000D01*
D13*
X196775000Y-97730000D02*
X201975000Y-97730000D01*
X196775000Y-113090000D02*
X201975000Y-113090000D01*
X195335000Y-98300000D02*
X196775000Y-98300000D01*
X196775000Y-97730000D02*
X196775000Y-98300000D01*
X201975000Y-97730000D02*
X201975000Y-98300000D01*
X196775000Y-112520000D02*
X196775000Y-113090000D01*
X201975000Y-112520000D02*
X201975000Y-113090000D01*
X196775000Y-99820000D02*
X196775000Y-100840000D01*
X201975000Y-99820000D02*
X201975000Y-100840000D01*
X196775000Y-102360000D02*
X196775000Y-103380000D01*
X201975000Y-102360000D02*
X201975000Y-103380000D01*
X196775000Y-104900000D02*
X196775000Y-105920000D01*
X201975000Y-104900000D02*
X201975000Y-105920000D01*
X196775000Y-107440000D02*
X196775000Y-108460000D01*
X201975000Y-107440000D02*
X201975000Y-108460000D01*
X196775000Y-109980000D02*
X196775000Y-111000000D01*
X201975000Y-109980000D02*
X201975000Y-111000000D01*
X95785000Y-135640000D02*
X95285000Y-135890000D01*
X95785000Y-136140000D02*
X95785000Y-135640000D01*
X95285000Y-135890000D02*
X95785000Y-136140000D01*
X95285000Y-121920000D02*
X95785000Y-122170000D01*
X95785000Y-122170000D02*
X95785000Y-121670000D01*
X95785000Y-121670000D02*
X95285000Y-121920000D01*
X196670000Y-144000000D02*
X198670000Y-144000000D01*
X196670000Y-141760000D02*
X196670000Y-144000000D01*
X203170000Y-140783000D02*
X203120000Y-140833000D01*
X205603000Y-138350000D02*
X205578000Y-138374000D01*
X203362000Y-141025000D02*
X203338000Y-141050000D01*
X205820000Y-138567000D02*
X205771000Y-138617000D01*
X207030000Y-133140000D02*
X207030000Y-143760000D01*
X196910000Y-133140000D02*
X196910000Y-143760000D01*
X196910000Y-143760000D02*
X207030000Y-143760000D01*
X196910000Y-133140000D02*
X207030000Y-133140000D01*
X196910000Y-136700000D02*
X207030000Y-136700000D01*
X196910000Y-137700000D02*
X207030000Y-137700000D01*
X196910000Y-141700000D02*
X207030000Y-141700000D01*
X206250000Y-139700000D02*
G75*
G03*
X206250000Y-139700000I-1780000J0D01*
G01*
X200165501Y-141338499D02*
G75*
G02*
X199470000Y-141480000I-695501J1638499D01*
G01*
X201109205Y-139004484D02*
G75*
G02*
X201109000Y-140396000I-1639205J-695516D01*
G01*
X198774484Y-138060795D02*
G75*
G02*
X200166000Y-138061000I695516J-1639205D01*
G01*
X197830795Y-140395516D02*
G75*
G02*
X197831000Y-139004000I1639205J695516D01*
G01*
X199500814Y-141480389D02*
G75*
G02*
X198774000Y-141339000I-30814J1780389D01*
G01*
X232934000Y-75060000D02*
X232934000Y-72260000D01*
X233634000Y-71610000D02*
X234234000Y-71610000D01*
X234934000Y-72260000D02*
X234934000Y-75060000D01*
X234234000Y-75710000D02*
X233634000Y-75710000D01*
X235134000Y-74860000D02*
X235434000Y-75160000D01*
X235434000Y-75160000D02*
X235434000Y-74560000D01*
X235134000Y-74860000D02*
X235434000Y-74560000D01*
X232934000Y-72310000D02*
G75*
G02*
X233634000Y-71610000I700000J0D01*
G01*
X234234000Y-71610000D02*
G75*
G02*
X234934000Y-72310000I0J-700000D01*
G01*
X234934000Y-75010000D02*
G75*
G02*
X234234000Y-75710000I-700000J0D01*
G01*
X233634000Y-75710000D02*
G75*
G02*
X232934000Y-75010000I0J700000D01*
G01*
X157612267Y-135253000D02*
X157319733Y-135253000D01*
X157612267Y-136273000D02*
X157319733Y-136273000D01*
X157612267Y-138813000D02*
X157319733Y-138813000D01*
X157612267Y-137793000D02*
X157319733Y-137793000D01*
X222205000Y-67820000D02*
X222205000Y-66800000D01*
X227405000Y-67820000D02*
X227405000Y-66800000D01*
X222205000Y-70360000D02*
X222205000Y-69340000D01*
X227405000Y-70360000D02*
X227405000Y-69340000D01*
X222205000Y-72900000D02*
X222205000Y-71880000D01*
X227405000Y-72900000D02*
X227405000Y-71880000D01*
X222205000Y-75440000D02*
X222205000Y-74420000D01*
X227405000Y-75440000D02*
X227405000Y-74420000D01*
X222205000Y-77980000D02*
X222205000Y-76960000D01*
X227405000Y-77980000D02*
X227405000Y-76960000D01*
X222205000Y-80520000D02*
X222205000Y-79500000D01*
X227405000Y-80520000D02*
X227405000Y-79500000D01*
X222205000Y-83060000D02*
X222205000Y-82040000D01*
X227405000Y-83060000D02*
X227405000Y-82040000D01*
X222205000Y-85600000D02*
X222205000Y-84580000D01*
X227405000Y-85600000D02*
X227405000Y-84580000D01*
X222205000Y-88140000D02*
X222205000Y-87120000D01*
X227405000Y-88140000D02*
X227405000Y-87120000D01*
X222205000Y-90680000D02*
X222205000Y-89660000D01*
X227405000Y-90680000D02*
X227405000Y-89660000D01*
X222205000Y-93220000D02*
X222205000Y-92200000D01*
X227405000Y-93220000D02*
X227405000Y-92200000D01*
X222205000Y-95760000D02*
X222205000Y-94740000D01*
X227405000Y-95760000D02*
X227405000Y-94740000D01*
X222205000Y-98300000D02*
X222205000Y-97280000D01*
X227405000Y-98300000D02*
X227405000Y-97280000D01*
X222205000Y-100840000D02*
X222205000Y-99820000D01*
X227405000Y-100840000D02*
X227405000Y-99820000D01*
X222205000Y-103380000D02*
X222205000Y-102360000D01*
X227405000Y-103380000D02*
X227405000Y-102360000D01*
X222205000Y-105920000D02*
X222205000Y-104900000D01*
X227405000Y-105920000D02*
X227405000Y-104900000D01*
X222205000Y-108460000D02*
X222205000Y-107440000D01*
X227405000Y-108460000D02*
X227405000Y-107440000D01*
X222205000Y-111000000D02*
X222205000Y-109980000D01*
X227405000Y-111000000D02*
X227405000Y-109980000D01*
X222205000Y-113540000D02*
X222205000Y-112520000D01*
X227405000Y-113540000D02*
X227405000Y-112520000D01*
X222205000Y-116080000D02*
X222205000Y-115060000D01*
X227405000Y-116080000D02*
X227405000Y-115060000D01*
X222205000Y-118620000D02*
X222205000Y-117600000D01*
X227405000Y-118620000D02*
X227405000Y-117600000D01*
X222205000Y-121160000D02*
X222205000Y-120140000D01*
X227405000Y-121160000D02*
X227405000Y-120140000D01*
X222205000Y-123700000D02*
X222205000Y-122680000D01*
X227405000Y-123700000D02*
X227405000Y-122680000D01*
X222205000Y-126240000D02*
X222205000Y-125220000D01*
X227405000Y-126240000D02*
X227405000Y-125220000D01*
X222205000Y-65280000D02*
X222205000Y-64710000D01*
X227405000Y-65280000D02*
X227405000Y-64710000D01*
X222205000Y-128330000D02*
X222205000Y-127760000D01*
X227405000Y-128330000D02*
X227405000Y-127760000D01*
X228845000Y-127760000D02*
X227405000Y-127760000D01*
X227405000Y-64710000D02*
X222205000Y-64710000D01*
X227405000Y-128330000D02*
X222205000Y-128330000D01*
X208713000Y-67820000D02*
X208713000Y-66800000D01*
X213913000Y-67820000D02*
X213913000Y-66800000D01*
X208713000Y-70360000D02*
X208713000Y-69340000D01*
X213913000Y-70360000D02*
X213913000Y-69340000D01*
X208713000Y-72900000D02*
X208713000Y-71880000D01*
X213913000Y-72900000D02*
X213913000Y-71880000D01*
X208713000Y-75440000D02*
X208713000Y-74420000D01*
X213913000Y-75440000D02*
X213913000Y-74420000D01*
X208713000Y-77980000D02*
X208713000Y-76960000D01*
X213913000Y-77980000D02*
X213913000Y-76960000D01*
X208713000Y-80520000D02*
X208713000Y-79500000D01*
X213913000Y-80520000D02*
X213913000Y-79500000D01*
X208713000Y-83060000D02*
X208713000Y-82040000D01*
X213913000Y-83060000D02*
X213913000Y-82040000D01*
X208713000Y-85600000D02*
X208713000Y-84580000D01*
X213913000Y-85600000D02*
X213913000Y-84580000D01*
X208713000Y-88140000D02*
X208713000Y-87120000D01*
X213913000Y-88140000D02*
X213913000Y-87120000D01*
X208713000Y-90680000D02*
X208713000Y-89660000D01*
X213913000Y-90680000D02*
X213913000Y-89660000D01*
X208713000Y-93220000D02*
X208713000Y-92200000D01*
X213913000Y-93220000D02*
X213913000Y-92200000D01*
X208713000Y-95760000D02*
X208713000Y-94740000D01*
X213913000Y-95760000D02*
X213913000Y-94740000D01*
X208713000Y-98300000D02*
X208713000Y-97280000D01*
X213913000Y-98300000D02*
X213913000Y-97280000D01*
X208713000Y-100840000D02*
X208713000Y-99820000D01*
X213913000Y-100840000D02*
X213913000Y-99820000D01*
X208713000Y-103380000D02*
X208713000Y-102360000D01*
X213913000Y-103380000D02*
X213913000Y-102360000D01*
X208713000Y-105920000D02*
X208713000Y-104900000D01*
X213913000Y-105920000D02*
X213913000Y-104900000D01*
X208713000Y-108460000D02*
X208713000Y-107440000D01*
X213913000Y-108460000D02*
X213913000Y-107440000D01*
X208713000Y-111000000D02*
X208713000Y-109980000D01*
X213913000Y-111000000D02*
X213913000Y-109980000D01*
X208713000Y-113540000D02*
X208713000Y-112520000D01*
X213913000Y-113540000D02*
X213913000Y-112520000D01*
X208713000Y-116080000D02*
X208713000Y-115060000D01*
X213913000Y-116080000D02*
X213913000Y-115060000D01*
X208713000Y-118620000D02*
X208713000Y-117600000D01*
X213913000Y-118620000D02*
X213913000Y-117600000D01*
X208713000Y-121160000D02*
X208713000Y-120140000D01*
X213913000Y-121160000D02*
X213913000Y-120140000D01*
X208713000Y-123700000D02*
X208713000Y-122680000D01*
X213913000Y-123700000D02*
X213913000Y-122680000D01*
X208713000Y-126240000D02*
X208713000Y-125220000D01*
X213913000Y-126240000D02*
X213913000Y-125220000D01*
X208713000Y-65280000D02*
X208713000Y-64710000D01*
X213913000Y-65280000D02*
X213913000Y-64710000D01*
X208713000Y-128330000D02*
X208713000Y-127760000D01*
X213913000Y-128330000D02*
X213913000Y-127760000D01*
X215353000Y-127760000D02*
X213913000Y-127760000D01*
X213913000Y-64710000D02*
X208713000Y-64710000D01*
X213913000Y-128330000D02*
X208713000Y-128330000D01*
X182305000Y-90110000D02*
X177105000Y-90110000D01*
X182305000Y-95250000D02*
X182305000Y-90110000D01*
X177105000Y-97850000D02*
X177105000Y-90110000D01*
X182305000Y-95250000D02*
X179705000Y-95250000D01*
X179705000Y-95250000D02*
X179705000Y-97850000D01*
X179705000Y-97850000D02*
X177105000Y-97850000D01*
X182305000Y-96520000D02*
X182305000Y-97850000D01*
X182305000Y-97850000D02*
X180975000Y-97850000D01*
X243840000Y-53340000D02*
X257810000Y-53340000D01*
X248920000Y-53340000D02*
X248920000Y-147320000D01*
X257810000Y-147320000D02*
X243840000Y-147320000D01*
X243840000Y-147320000D02*
X243840000Y-53340000D01*
X257810000Y-147320000D02*
X257810000Y-53340000D01*
X146375436Y-134980000D02*
X147829564Y-134980000D01*
X146375436Y-136800000D02*
X147829564Y-136800000D01*
X146375436Y-139340000D02*
X147829564Y-139340000D01*
X146375436Y-137520000D02*
X147829564Y-137520000D01*
X150601000Y-140517564D02*
X150601000Y-139063436D01*
X152421000Y-140517564D02*
X152421000Y-139063436D01*
X153141000Y-140517564D02*
X153141000Y-139063436D01*
X154961000Y-140517564D02*
X154961000Y-139063436D01*
X153141000Y-133548436D02*
X153141000Y-135002564D01*
X154961000Y-133548436D02*
X154961000Y-135002564D01*
X150601000Y-133548436D02*
X150601000Y-135002564D01*
X152421000Y-133548436D02*
X152421000Y-135002564D01*
X143037936Y-127735000D02*
X143492064Y-127735000D01*
X143037936Y-126265000D02*
X143492064Y-126265000D01*
X143037936Y-124179000D02*
X143492064Y-124179000D01*
X143037936Y-122709000D02*
X143492064Y-122709000D01*
X95285000Y-63500000D02*
X95785000Y-63750000D01*
X95785000Y-63750000D02*
X95785000Y-63250000D01*
X95785000Y-63250000D02*
X95285000Y-63500000D01*
X102975000Y-54740000D02*
X106575000Y-54740000D01*
X102975000Y-62100000D02*
X106575000Y-62100000D01*
X108455000Y-56620000D02*
X108455000Y-60220000D01*
X101095000Y-56620000D02*
X101095000Y-60220000D01*
X114405000Y-54740000D02*
X118005000Y-54740000D01*
X114405000Y-62100000D02*
X118005000Y-62100000D01*
X119885000Y-56620000D02*
X119885000Y-60220000D01*
X112525000Y-56620000D02*
X112525000Y-60220000D01*
X143410000Y-98287064D02*
X143410000Y-97832936D01*
X144880000Y-98287064D02*
X144880000Y-97832936D01*
X156564000Y-101589064D02*
X156564000Y-101134936D01*
X155094000Y-101589064D02*
X155094000Y-101134936D01*
X148055000Y-98287064D02*
X148055000Y-97832936D01*
X146585000Y-98287064D02*
X146585000Y-97832936D01*
X140377936Y-98325000D02*
X140832064Y-98325000D01*
X140377936Y-99795000D02*
X140832064Y-99795000D01*
X160104064Y-101627000D02*
X159649936Y-101627000D01*
X160104064Y-103097000D02*
X159649936Y-103097000D01*
X151087064Y-99795000D02*
X150632936Y-99795000D01*
X151087064Y-98325000D02*
X150632936Y-98325000D01*
X137900000Y-54740000D02*
X141500000Y-54740000D01*
X137900000Y-62100000D02*
X141500000Y-62100000D01*
X143380000Y-56620000D02*
X143380000Y-60220000D01*
X136020000Y-56620000D02*
X136020000Y-60220000D01*
X124590000Y-56620000D02*
X124590000Y-60220000D01*
X131950000Y-56620000D02*
X131950000Y-60220000D01*
X126470000Y-62100000D02*
X130070000Y-62100000D01*
X126470000Y-54740000D02*
X130070000Y-54740000D01*
X95285000Y-77470000D02*
X95785000Y-77720000D01*
X95785000Y-77720000D02*
X95785000Y-77220000D01*
X95785000Y-77220000D02*
X95285000Y-77470000D01*
X138430000Y-103435000D02*
X134830000Y-103435000D01*
X138430000Y-103435000D02*
X140630000Y-103435000D01*
X138430000Y-108655000D02*
X136230000Y-108655000D01*
X138430000Y-108655000D02*
X140630000Y-108655000D01*
X137220000Y-115510000D02*
X137220000Y-116840000D01*
X135890000Y-115510000D02*
X137220000Y-115510000D01*
X134620000Y-115510000D02*
X134620000Y-118170000D01*
X134620000Y-118170000D02*
X132020000Y-118170000D01*
X134620000Y-115510000D02*
X132020000Y-115510000D01*
X132020000Y-115510000D02*
X132020000Y-118170000D01*
X161985000Y-67250000D02*
X161985000Y-68580000D01*
X160655000Y-67250000D02*
X161985000Y-67250000D01*
X159385000Y-67250000D02*
X159385000Y-69910000D01*
X159385000Y-69910000D02*
X141545000Y-69910000D01*
X159385000Y-67250000D02*
X141545000Y-67250000D01*
X141545000Y-67250000D02*
X141545000Y-69910000D01*
X161985000Y-69790000D02*
X161985000Y-71120000D01*
X160655000Y-69790000D02*
X161985000Y-69790000D01*
X159385000Y-69790000D02*
X159385000Y-72450000D01*
X159385000Y-72450000D02*
X151705000Y-72450000D01*
X159385000Y-69790000D02*
X151705000Y-69790000D01*
X151705000Y-69790000D02*
X151705000Y-72450000D01*
X137100000Y-112970000D02*
X137100000Y-118170000D01*
X154940000Y-112970000D02*
X137100000Y-112970000D01*
X157540000Y-118170000D02*
X137100000Y-118170000D01*
X154940000Y-112970000D02*
X154940000Y-115570000D01*
X154940000Y-115570000D02*
X157540000Y-115570000D01*
X157540000Y-115570000D02*
X157540000Y-118170000D01*
X156210000Y-112970000D02*
X157540000Y-112970000D01*
X157540000Y-112970000D02*
X157540000Y-114300000D01*
X179765000Y-112970000D02*
X179765000Y-114300000D01*
X178435000Y-112970000D02*
X179765000Y-112970000D01*
X179765000Y-115570000D02*
X179765000Y-118170000D01*
X177165000Y-115570000D02*
X179765000Y-115570000D01*
X177165000Y-112970000D02*
X177165000Y-115570000D01*
X179765000Y-118170000D02*
X159325000Y-118170000D01*
X177165000Y-112970000D02*
X159325000Y-112970000D01*
X159325000Y-112970000D02*
X159325000Y-118170000D01*
X92770000Y-54955000D02*
X88910000Y-54955000D01*
X92770000Y-58075000D02*
X88910000Y-58075000D01*
X92770000Y-54955000D02*
X92770000Y-58075000D01*
X92770000Y-58475000D02*
X91650000Y-58475000D01*
X91650000Y-58475000D02*
X91650000Y-58075000D01*
X91650000Y-58075000D02*
X92770000Y-58075000D01*
X92770000Y-58075000D02*
X92770000Y-58475000D01*
X92900000Y-55245000D02*
X92770000Y-55245000D01*
X92770000Y-55245000D02*
X92770000Y-55245000D01*
X92770000Y-55245000D02*
X92900000Y-55245000D01*
X92900000Y-55245000D02*
X92900000Y-55245000D01*
X92900000Y-57785000D02*
X92770000Y-57785000D01*
X92770000Y-57785000D02*
X92770000Y-57785000D01*
X92770000Y-57785000D02*
X92900000Y-57785000D01*
X92900000Y-57785000D02*
X92900000Y-57785000D01*
X88910000Y-58075000D02*
G75*
G02*
X88910000Y-54955000I0J1560000D01*
G01*
X92900000Y-71755000D02*
X92900000Y-71755000D01*
X92770000Y-71755000D02*
X92900000Y-71755000D01*
X92770000Y-71755000D02*
X92770000Y-71755000D01*
X92900000Y-71755000D02*
X92770000Y-71755000D01*
X92900000Y-69215000D02*
X92900000Y-69215000D01*
X92770000Y-69215000D02*
X92900000Y-69215000D01*
X92770000Y-69215000D02*
X92770000Y-69215000D01*
X92900000Y-69215000D02*
X92770000Y-69215000D01*
X92770000Y-72045000D02*
X92770000Y-72445000D01*
X91650000Y-72045000D02*
X92770000Y-72045000D01*
X91650000Y-72445000D02*
X91650000Y-72045000D01*
X92770000Y-72445000D02*
X91650000Y-72445000D01*
X92770000Y-68925000D02*
X92770000Y-72045000D01*
X92770000Y-72045000D02*
X88910000Y-72045000D01*
X92770000Y-68925000D02*
X88910000Y-68925000D01*
X88910000Y-72045000D02*
G75*
G02*
X88910000Y-68925000I0J1560000D01*
G01*
X92770000Y-127345000D02*
X88910000Y-127345000D01*
X92770000Y-130465000D02*
X88910000Y-130465000D01*
X92770000Y-127345000D02*
X92770000Y-130465000D01*
X92770000Y-130865000D02*
X91650000Y-130865000D01*
X91650000Y-130865000D02*
X91650000Y-130465000D01*
X91650000Y-130465000D02*
X92770000Y-130465000D01*
X92770000Y-130465000D02*
X92770000Y-130865000D01*
X92900000Y-127635000D02*
X92770000Y-127635000D01*
X92770000Y-127635000D02*
X92770000Y-127635000D01*
X92770000Y-127635000D02*
X92900000Y-127635000D01*
X92900000Y-127635000D02*
X92900000Y-127635000D01*
X92900000Y-130175000D02*
X92770000Y-130175000D01*
X92770000Y-130175000D02*
X92770000Y-130175000D01*
X92770000Y-130175000D02*
X92900000Y-130175000D01*
X92900000Y-130175000D02*
X92900000Y-130175000D01*
X88910000Y-130465000D02*
G75*
G02*
X88910000Y-127345000I0J1560000D01*
G01*
D10*
X149886000Y-104799000D02*
X148811000Y-104799000D01*
X149886000Y-107924000D02*
X153136000Y-107924000D01*
X149886000Y-104674000D02*
X153136000Y-104674000D01*
X149886000Y-107924000D02*
X149886000Y-107699000D01*
X153136000Y-107924000D02*
X153136000Y-107699000D01*
X153136000Y-104674000D02*
X153136000Y-104899000D01*
X149886000Y-104674000D02*
X149886000Y-104799000D01*
X180657380Y-70183333D02*
X181371666Y-70183333D01*
X181514523Y-70230952D01*
X181609761Y-70326190D01*
X181657380Y-70469047D01*
X181657380Y-70564285D01*
X180657380Y-69278571D02*
X180657380Y-69469047D01*
X180705000Y-69564285D01*
X180752619Y-69611904D01*
X180895476Y-69707142D01*
X181085952Y-69754761D01*
X181466904Y-69754761D01*
X181562142Y-69707142D01*
X181609761Y-69659523D01*
X181657380Y-69564285D01*
X181657380Y-69373809D01*
X181609761Y-69278571D01*
X181562142Y-69230952D01*
X181466904Y-69183333D01*
X181228809Y-69183333D01*
X181133571Y-69230952D01*
X181085952Y-69278571D01*
X181038333Y-69373809D01*
X181038333Y-69564285D01*
X181085952Y-69659523D01*
X181133571Y-69707142D01*
X181228809Y-69754761D01*
X198565476Y-73322380D02*
X198565476Y-74036666D01*
X198517857Y-74179523D01*
X198422619Y-74274761D01*
X198279761Y-74322380D01*
X198184523Y-74322380D01*
X199565476Y-74322380D02*
X198994047Y-74322380D01*
X199279761Y-74322380D02*
X199279761Y-73322380D01*
X199184523Y-73465238D01*
X199089285Y-73560476D01*
X198994047Y-73608095D01*
X200517857Y-74322380D02*
X199946428Y-74322380D01*
X200232142Y-74322380D02*
X200232142Y-73322380D01*
X200136904Y-73465238D01*
X200041666Y-73560476D01*
X199946428Y-73608095D01*
X159821666Y-130262380D02*
X159821666Y-130976666D01*
X159774047Y-131119523D01*
X159678809Y-131214761D01*
X159535952Y-131262380D01*
X159440714Y-131262380D01*
X160297857Y-131262380D02*
X160297857Y-130262380D01*
X160678809Y-130262380D01*
X160774047Y-130310000D01*
X160821666Y-130357619D01*
X160869285Y-130452857D01*
X160869285Y-130595714D01*
X160821666Y-130690952D01*
X160774047Y-130738571D01*
X160678809Y-130786190D01*
X160297857Y-130786190D01*
X161202619Y-130262380D02*
X161821666Y-130262380D01*
X161488333Y-130643333D01*
X161631190Y-130643333D01*
X161726428Y-130690952D01*
X161774047Y-130738571D01*
X161821666Y-130833809D01*
X161821666Y-131071904D01*
X161774047Y-131167142D01*
X161726428Y-131214761D01*
X161631190Y-131262380D01*
X161345476Y-131262380D01*
X161250238Y-131214761D01*
X161202619Y-131167142D01*
X158583333Y-57507142D02*
X158535714Y-57554761D01*
X158392857Y-57602380D01*
X158297619Y-57602380D01*
X158154761Y-57554761D01*
X158059523Y-57459523D01*
X158011904Y-57364285D01*
X157964285Y-57173809D01*
X157964285Y-57030952D01*
X158011904Y-56840476D01*
X158059523Y-56745238D01*
X158154761Y-56650000D01*
X158297619Y-56602380D01*
X158392857Y-56602380D01*
X158535714Y-56650000D01*
X158583333Y-56697619D01*
X159535714Y-57602380D02*
X158964285Y-57602380D01*
X159250000Y-57602380D02*
X159250000Y-56602380D01*
X159154761Y-56745238D01*
X159059523Y-56840476D01*
X158964285Y-56888095D01*
X158932666Y-142835380D02*
X158932666Y-143549666D01*
X158885047Y-143692523D01*
X158789809Y-143787761D01*
X158646952Y-143835380D01*
X158551714Y-143835380D01*
X159408857Y-143835380D02*
X159408857Y-142835380D01*
X159789809Y-142835380D01*
X159885047Y-142883000D01*
X159932666Y-142930619D01*
X159980285Y-143025857D01*
X159980285Y-143168714D01*
X159932666Y-143263952D01*
X159885047Y-143311571D01*
X159789809Y-143359190D01*
X159408857Y-143359190D01*
X160837428Y-143168714D02*
X160837428Y-143835380D01*
X160599333Y-142787761D02*
X160361238Y-143502047D01*
X160980285Y-143502047D01*
X168457666Y-140930380D02*
X168457666Y-141644666D01*
X168410047Y-141787523D01*
X168314809Y-141882761D01*
X168171952Y-141930380D01*
X168076714Y-141930380D01*
X168933857Y-141930380D02*
X168933857Y-140930380D01*
X169314809Y-140930380D01*
X169410047Y-140978000D01*
X169457666Y-141025619D01*
X169505285Y-141120857D01*
X169505285Y-141263714D01*
X169457666Y-141358952D01*
X169410047Y-141406571D01*
X169314809Y-141454190D01*
X168933857Y-141454190D01*
X170410047Y-140930380D02*
X169933857Y-140930380D01*
X169886238Y-141406571D01*
X169933857Y-141358952D01*
X170029095Y-141311333D01*
X170267190Y-141311333D01*
X170362428Y-141358952D01*
X170410047Y-141406571D01*
X170457666Y-141501809D01*
X170457666Y-141739904D01*
X170410047Y-141835142D01*
X170362428Y-141882761D01*
X170267190Y-141930380D01*
X170029095Y-141930380D01*
X169933857Y-141882761D01*
X169886238Y-141835142D01*
X138612666Y-121626380D02*
X138612666Y-122340666D01*
X138565047Y-122483523D01*
X138469809Y-122578761D01*
X138326952Y-122626380D01*
X138231714Y-122626380D01*
X139088857Y-122626380D02*
X139088857Y-121626380D01*
X139469809Y-121626380D01*
X139565047Y-121674000D01*
X139612666Y-121721619D01*
X139660285Y-121816857D01*
X139660285Y-121959714D01*
X139612666Y-122054952D01*
X139565047Y-122102571D01*
X139469809Y-122150190D01*
X139088857Y-122150190D01*
X140517428Y-121626380D02*
X140326952Y-121626380D01*
X140231714Y-121674000D01*
X140184095Y-121721619D01*
X140088857Y-121864476D01*
X140041238Y-122054952D01*
X140041238Y-122435904D01*
X140088857Y-122531142D01*
X140136476Y-122578761D01*
X140231714Y-122626380D01*
X140422190Y-122626380D01*
X140517428Y-122578761D01*
X140565047Y-122531142D01*
X140612666Y-122435904D01*
X140612666Y-122197809D01*
X140565047Y-122102571D01*
X140517428Y-122054952D01*
X140422190Y-122007333D01*
X140231714Y-122007333D01*
X140136476Y-122054952D01*
X140088857Y-122102571D01*
X140041238Y-122197809D01*
X185507380Y-140033333D02*
X186221666Y-140033333D01*
X186364523Y-140080952D01*
X186459761Y-140176190D01*
X186507380Y-140319047D01*
X186507380Y-140414285D01*
X186507380Y-139033333D02*
X186507380Y-139604761D01*
X186507380Y-139319047D02*
X185507380Y-139319047D01*
X185650238Y-139414285D01*
X185745476Y-139509523D01*
X185793095Y-139604761D01*
X158583333Y-63857142D02*
X158535714Y-63904761D01*
X158392857Y-63952380D01*
X158297619Y-63952380D01*
X158154761Y-63904761D01*
X158059523Y-63809523D01*
X158011904Y-63714285D01*
X157964285Y-63523809D01*
X157964285Y-63380952D01*
X158011904Y-63190476D01*
X158059523Y-63095238D01*
X158154761Y-63000000D01*
X158297619Y-62952380D01*
X158392857Y-62952380D01*
X158535714Y-63000000D01*
X158583333Y-63047619D01*
X158964285Y-63047619D02*
X159011904Y-63000000D01*
X159107142Y-62952380D01*
X159345238Y-62952380D01*
X159440476Y-63000000D01*
X159488095Y-63047619D01*
X159535714Y-63142857D01*
X159535714Y-63238095D01*
X159488095Y-63380952D01*
X158916666Y-63952380D01*
X159535714Y-63952380D01*
X209340476Y-134707380D02*
X209340476Y-135421666D01*
X209292857Y-135564523D01*
X209197619Y-135659761D01*
X209054761Y-135707380D01*
X208959523Y-135707380D01*
X210340476Y-135707380D02*
X209769047Y-135707380D01*
X210054761Y-135707380D02*
X210054761Y-134707380D01*
X209959523Y-134850238D01*
X209864285Y-134945476D01*
X209769047Y-134993095D01*
X210959523Y-134707380D02*
X211054761Y-134707380D01*
X211150000Y-134755000D01*
X211197619Y-134802619D01*
X211245238Y-134897857D01*
X211292857Y-135088333D01*
X211292857Y-135326428D01*
X211245238Y-135516904D01*
X211197619Y-135612142D01*
X211150000Y-135659761D01*
X211054761Y-135707380D01*
X210959523Y-135707380D01*
X210864285Y-135659761D01*
X210816666Y-135612142D01*
X210769047Y-135516904D01*
X210721428Y-135326428D01*
X210721428Y-135088333D01*
X210769047Y-134897857D01*
X210816666Y-134802619D01*
X210864285Y-134755000D01*
X210959523Y-134707380D01*
X133096095Y-127722380D02*
X133096095Y-128531904D01*
X133143714Y-128627142D01*
X133191333Y-128674761D01*
X133286571Y-128722380D01*
X133477047Y-128722380D01*
X133572285Y-128674761D01*
X133619904Y-128627142D01*
X133667523Y-128531904D01*
X133667523Y-127722380D01*
X134572285Y-127722380D02*
X134381809Y-127722380D01*
X134286571Y-127770000D01*
X134238952Y-127817619D01*
X134143714Y-127960476D01*
X134096095Y-128150952D01*
X134096095Y-128531904D01*
X134143714Y-128627142D01*
X134191333Y-128674761D01*
X134286571Y-128722380D01*
X134477047Y-128722380D01*
X134572285Y-128674761D01*
X134619904Y-128627142D01*
X134667523Y-128531904D01*
X134667523Y-128293809D01*
X134619904Y-128198571D01*
X134572285Y-128150952D01*
X134477047Y-128103333D01*
X134286571Y-128103333D01*
X134191333Y-128150952D01*
X134143714Y-128198571D01*
X134096095Y-128293809D01*
X165354095Y-134580380D02*
X165354095Y-135389904D01*
X165401714Y-135485142D01*
X165449333Y-135532761D01*
X165544571Y-135580380D01*
X165735047Y-135580380D01*
X165830285Y-135532761D01*
X165877904Y-135485142D01*
X165925523Y-135389904D01*
X165925523Y-134580380D01*
X166877904Y-134580380D02*
X166401714Y-134580380D01*
X166354095Y-135056571D01*
X166401714Y-135008952D01*
X166496952Y-134961333D01*
X166735047Y-134961333D01*
X166830285Y-135008952D01*
X166877904Y-135056571D01*
X166925523Y-135151809D01*
X166925523Y-135389904D01*
X166877904Y-135485142D01*
X166830285Y-135532761D01*
X166735047Y-135580380D01*
X166496952Y-135580380D01*
X166401714Y-135532761D01*
X166354095Y-135485142D01*
X198565476Y-96182380D02*
X198565476Y-96896666D01*
X198517857Y-97039523D01*
X198422619Y-97134761D01*
X198279761Y-97182380D01*
X198184523Y-97182380D01*
X199565476Y-97182380D02*
X198994047Y-97182380D01*
X199279761Y-97182380D02*
X199279761Y-96182380D01*
X199184523Y-96325238D01*
X199089285Y-96420476D01*
X198994047Y-96468095D01*
X199946428Y-96277619D02*
X199994047Y-96230000D01*
X200089285Y-96182380D01*
X200327380Y-96182380D01*
X200422619Y-96230000D01*
X200470238Y-96277619D01*
X200517857Y-96372857D01*
X200517857Y-96468095D01*
X200470238Y-96610952D01*
X199898809Y-97182380D01*
X200517857Y-97182380D01*
X92535476Y-130262380D02*
X92535476Y-130976666D01*
X92487857Y-131119523D01*
X92392619Y-131214761D01*
X92249761Y-131262380D01*
X92154523Y-131262380D01*
X93535476Y-131262380D02*
X92964047Y-131262380D01*
X93249761Y-131262380D02*
X93249761Y-130262380D01*
X93154523Y-130405238D01*
X93059285Y-130500476D01*
X92964047Y-130548095D01*
X94392619Y-130262380D02*
X94202142Y-130262380D01*
X94106904Y-130310000D01*
X94059285Y-130357619D01*
X93964047Y-130500476D01*
X93916428Y-130690952D01*
X93916428Y-131071904D01*
X93964047Y-131167142D01*
X94011666Y-131214761D01*
X94106904Y-131262380D01*
X94297380Y-131262380D01*
X94392619Y-131214761D01*
X94440238Y-131167142D01*
X94487857Y-131071904D01*
X94487857Y-130833809D01*
X94440238Y-130738571D01*
X94392619Y-130690952D01*
X94297380Y-130643333D01*
X94106904Y-130643333D01*
X94011666Y-130690952D01*
X93964047Y-130738571D01*
X93916428Y-130833809D01*
X92535476Y-116292380D02*
X92535476Y-117006666D01*
X92487857Y-117149523D01*
X92392619Y-117244761D01*
X92249761Y-117292380D01*
X92154523Y-117292380D01*
X93535476Y-117292380D02*
X92964047Y-117292380D01*
X93249761Y-117292380D02*
X93249761Y-116292380D01*
X93154523Y-116435238D01*
X93059285Y-116530476D01*
X92964047Y-116578095D01*
X93868809Y-116292380D02*
X94535476Y-116292380D01*
X94106904Y-117292380D01*
X194611666Y-134707380D02*
X194611666Y-135421666D01*
X194564047Y-135564523D01*
X194468809Y-135659761D01*
X194325952Y-135707380D01*
X194230714Y-135707380D01*
X195135476Y-135707380D02*
X195325952Y-135707380D01*
X195421190Y-135659761D01*
X195468809Y-135612142D01*
X195564047Y-135469285D01*
X195611666Y-135278809D01*
X195611666Y-134897857D01*
X195564047Y-134802619D01*
X195516428Y-134755000D01*
X195421190Y-134707380D01*
X195230714Y-134707380D01*
X195135476Y-134755000D01*
X195087857Y-134802619D01*
X195040238Y-134897857D01*
X195040238Y-135135952D01*
X195087857Y-135231190D01*
X195135476Y-135278809D01*
X195230714Y-135326428D01*
X195421190Y-135326428D01*
X195516428Y-135278809D01*
X195564047Y-135231190D01*
X195611666Y-135135952D01*
X231586380Y-74493333D02*
X232300666Y-74493333D01*
X232443523Y-74540952D01*
X232538761Y-74636190D01*
X232586380Y-74779047D01*
X232586380Y-74874285D01*
X232586380Y-74017142D02*
X231586380Y-74017142D01*
X231586380Y-73636190D01*
X231634000Y-73540952D01*
X231681619Y-73493333D01*
X231776857Y-73445714D01*
X231919714Y-73445714D01*
X232014952Y-73493333D01*
X232062571Y-73540952D01*
X232110190Y-73636190D01*
X232110190Y-74017142D01*
X232586380Y-72493333D02*
X232586380Y-73064761D01*
X232586380Y-72779047D02*
X231586380Y-72779047D01*
X231729238Y-72874285D01*
X231824476Y-72969523D01*
X231872095Y-73064761D01*
X155408333Y-136247142D02*
X155360714Y-136294761D01*
X155217857Y-136342380D01*
X155122619Y-136342380D01*
X154979761Y-136294761D01*
X154884523Y-136199523D01*
X154836904Y-136104285D01*
X154789285Y-135913809D01*
X154789285Y-135770952D01*
X154836904Y-135580476D01*
X154884523Y-135485238D01*
X154979761Y-135390000D01*
X155122619Y-135342380D01*
X155217857Y-135342380D01*
X155360714Y-135390000D01*
X155408333Y-135437619D01*
X155741666Y-135342380D02*
X156408333Y-135342380D01*
X155979761Y-136342380D01*
X157299333Y-140090142D02*
X157251714Y-140137761D01*
X157108857Y-140185380D01*
X157013619Y-140185380D01*
X156870761Y-140137761D01*
X156775523Y-140042523D01*
X156727904Y-139947285D01*
X156680285Y-139756809D01*
X156680285Y-139613952D01*
X156727904Y-139423476D01*
X156775523Y-139328238D01*
X156870761Y-139233000D01*
X157013619Y-139185380D01*
X157108857Y-139185380D01*
X157251714Y-139233000D01*
X157299333Y-139280619D01*
X157870761Y-139613952D02*
X157775523Y-139566333D01*
X157727904Y-139518714D01*
X157680285Y-139423476D01*
X157680285Y-139375857D01*
X157727904Y-139280619D01*
X157775523Y-139233000D01*
X157870761Y-139185380D01*
X158061238Y-139185380D01*
X158156476Y-139233000D01*
X158204095Y-139280619D01*
X158251714Y-139375857D01*
X158251714Y-139423476D01*
X158204095Y-139518714D01*
X158156476Y-139566333D01*
X158061238Y-139613952D01*
X157870761Y-139613952D01*
X157775523Y-139661571D01*
X157727904Y-139709190D01*
X157680285Y-139804428D01*
X157680285Y-139994904D01*
X157727904Y-140090142D01*
X157775523Y-140137761D01*
X157870761Y-140185380D01*
X158061238Y-140185380D01*
X158156476Y-140137761D01*
X158204095Y-140090142D01*
X158251714Y-139994904D01*
X158251714Y-139804428D01*
X158204095Y-139709190D01*
X158156476Y-139661571D01*
X158061238Y-139613952D01*
X223995476Y-128782380D02*
X223995476Y-129496666D01*
X223947857Y-129639523D01*
X223852619Y-129734761D01*
X223709761Y-129782380D01*
X223614523Y-129782380D01*
X224995476Y-129782380D02*
X224424047Y-129782380D01*
X224709761Y-129782380D02*
X224709761Y-128782380D01*
X224614523Y-128925238D01*
X224519285Y-129020476D01*
X224424047Y-129068095D01*
X225328809Y-128782380D02*
X225947857Y-128782380D01*
X225614523Y-129163333D01*
X225757380Y-129163333D01*
X225852619Y-129210952D01*
X225900238Y-129258571D01*
X225947857Y-129353809D01*
X225947857Y-129591904D01*
X225900238Y-129687142D01*
X225852619Y-129734761D01*
X225757380Y-129782380D01*
X225471666Y-129782380D01*
X225376428Y-129734761D01*
X225328809Y-129687142D01*
X210503476Y-128782380D02*
X210503476Y-129496666D01*
X210455857Y-129639523D01*
X210360619Y-129734761D01*
X210217761Y-129782380D01*
X210122523Y-129782380D01*
X211503476Y-129782380D02*
X210932047Y-129782380D01*
X211217761Y-129782380D02*
X211217761Y-128782380D01*
X211122523Y-128925238D01*
X211027285Y-129020476D01*
X210932047Y-129068095D01*
X212408238Y-128782380D02*
X211932047Y-128782380D01*
X211884428Y-129258571D01*
X211932047Y-129210952D01*
X212027285Y-129163333D01*
X212265380Y-129163333D01*
X212360619Y-129210952D01*
X212408238Y-129258571D01*
X212455857Y-129353809D01*
X212455857Y-129591904D01*
X212408238Y-129687142D01*
X212360619Y-129734761D01*
X212265380Y-129782380D01*
X212027285Y-129782380D01*
X211932047Y-129734761D01*
X211884428Y-129687142D01*
X179371666Y-98302380D02*
X179371666Y-99016666D01*
X179324047Y-99159523D01*
X179228809Y-99254761D01*
X179085952Y-99302380D01*
X178990714Y-99302380D01*
X179752619Y-98302380D02*
X180419285Y-98302380D01*
X179990714Y-99302380D01*
X240490476Y-49617380D02*
X240490476Y-50331666D01*
X240442857Y-50474523D01*
X240347619Y-50569761D01*
X240204761Y-50617380D01*
X240109523Y-50617380D01*
X241490476Y-50617380D02*
X240919047Y-50617380D01*
X241204761Y-50617380D02*
X241204761Y-49617380D01*
X241109523Y-49760238D01*
X241014285Y-49855476D01*
X240919047Y-49903095D01*
X242347619Y-49950714D02*
X242347619Y-50617380D01*
X242109523Y-49569761D02*
X241871428Y-50284047D01*
X242490476Y-50284047D01*
X146935833Y-134522380D02*
X146602500Y-134046190D01*
X146364404Y-134522380D02*
X146364404Y-133522380D01*
X146745357Y-133522380D01*
X146840595Y-133570000D01*
X146888214Y-133617619D01*
X146935833Y-133712857D01*
X146935833Y-133855714D01*
X146888214Y-133950952D01*
X146840595Y-133998571D01*
X146745357Y-134046190D01*
X146364404Y-134046190D01*
X147888214Y-134522380D02*
X147316785Y-134522380D01*
X147602500Y-134522380D02*
X147602500Y-133522380D01*
X147507261Y-133665238D01*
X147412023Y-133760476D01*
X147316785Y-133808095D01*
X146935833Y-137062380D02*
X146602500Y-136586190D01*
X146364404Y-137062380D02*
X146364404Y-136062380D01*
X146745357Y-136062380D01*
X146840595Y-136110000D01*
X146888214Y-136157619D01*
X146935833Y-136252857D01*
X146935833Y-136395714D01*
X146888214Y-136490952D01*
X146840595Y-136538571D01*
X146745357Y-136586190D01*
X146364404Y-136586190D01*
X147316785Y-136157619D02*
X147364404Y-136110000D01*
X147459642Y-136062380D01*
X147697738Y-136062380D01*
X147792976Y-136110000D01*
X147840595Y-136157619D01*
X147888214Y-136252857D01*
X147888214Y-136348095D01*
X147840595Y-136490952D01*
X147269166Y-137062380D01*
X147888214Y-137062380D01*
X150143380Y-139957166D02*
X149667190Y-140290500D01*
X150143380Y-140528595D02*
X149143380Y-140528595D01*
X149143380Y-140147642D01*
X149191000Y-140052404D01*
X149238619Y-140004785D01*
X149333857Y-139957166D01*
X149476714Y-139957166D01*
X149571952Y-140004785D01*
X149619571Y-140052404D01*
X149667190Y-140147642D01*
X149667190Y-140528595D01*
X149143380Y-139623833D02*
X149143380Y-139004785D01*
X149524333Y-139338119D01*
X149524333Y-139195261D01*
X149571952Y-139100023D01*
X149619571Y-139052404D01*
X149714809Y-139004785D01*
X149952904Y-139004785D01*
X150048142Y-139052404D01*
X150095761Y-139100023D01*
X150143380Y-139195261D01*
X150143380Y-139480976D01*
X150095761Y-139576214D01*
X150048142Y-139623833D01*
X152683380Y-139957166D02*
X152207190Y-140290500D01*
X152683380Y-140528595D02*
X151683380Y-140528595D01*
X151683380Y-140147642D01*
X151731000Y-140052404D01*
X151778619Y-140004785D01*
X151873857Y-139957166D01*
X152016714Y-139957166D01*
X152111952Y-140004785D01*
X152159571Y-140052404D01*
X152207190Y-140147642D01*
X152207190Y-140528595D01*
X152016714Y-139100023D02*
X152683380Y-139100023D01*
X151635761Y-139338119D02*
X152350047Y-139576214D01*
X152350047Y-138957166D01*
X156323380Y-134442166D02*
X155847190Y-134775500D01*
X156323380Y-135013595D02*
X155323380Y-135013595D01*
X155323380Y-134632642D01*
X155371000Y-134537404D01*
X155418619Y-134489785D01*
X155513857Y-134442166D01*
X155656714Y-134442166D01*
X155751952Y-134489785D01*
X155799571Y-134537404D01*
X155847190Y-134632642D01*
X155847190Y-135013595D01*
X155323380Y-133537404D02*
X155323380Y-134013595D01*
X155799571Y-134061214D01*
X155751952Y-134013595D01*
X155704333Y-133918357D01*
X155704333Y-133680261D01*
X155751952Y-133585023D01*
X155799571Y-133537404D01*
X155894809Y-133489785D01*
X156132904Y-133489785D01*
X156228142Y-133537404D01*
X156275761Y-133585023D01*
X156323380Y-133680261D01*
X156323380Y-133918357D01*
X156275761Y-134013595D01*
X156228142Y-134061214D01*
X153783380Y-134442166D02*
X153307190Y-134775500D01*
X153783380Y-135013595D02*
X152783380Y-135013595D01*
X152783380Y-134632642D01*
X152831000Y-134537404D01*
X152878619Y-134489785D01*
X152973857Y-134442166D01*
X153116714Y-134442166D01*
X153211952Y-134489785D01*
X153259571Y-134537404D01*
X153307190Y-134632642D01*
X153307190Y-135013595D01*
X152783380Y-133585023D02*
X152783380Y-133775500D01*
X152831000Y-133870738D01*
X152878619Y-133918357D01*
X153021476Y-134013595D01*
X153211952Y-134061214D01*
X153592904Y-134061214D01*
X153688142Y-134013595D01*
X153735761Y-133965976D01*
X153783380Y-133870738D01*
X153783380Y-133680261D01*
X153735761Y-133585023D01*
X153688142Y-133537404D01*
X153592904Y-133489785D01*
X153354809Y-133489785D01*
X153259571Y-133537404D01*
X153211952Y-133585023D01*
X153164333Y-133680261D01*
X153164333Y-133870738D01*
X153211952Y-133965976D01*
X153259571Y-134013595D01*
X153354809Y-134061214D01*
X143098333Y-125802380D02*
X142765000Y-125326190D01*
X142526904Y-125802380D02*
X142526904Y-124802380D01*
X142907857Y-124802380D01*
X143003095Y-124850000D01*
X143050714Y-124897619D01*
X143098333Y-124992857D01*
X143098333Y-125135714D01*
X143050714Y-125230952D01*
X143003095Y-125278571D01*
X142907857Y-125326190D01*
X142526904Y-125326190D01*
X143431666Y-124802380D02*
X144098333Y-124802380D01*
X143669761Y-125802380D01*
X143098333Y-122246380D02*
X142765000Y-121770190D01*
X142526904Y-122246380D02*
X142526904Y-121246380D01*
X142907857Y-121246380D01*
X143003095Y-121294000D01*
X143050714Y-121341619D01*
X143098333Y-121436857D01*
X143098333Y-121579714D01*
X143050714Y-121674952D01*
X143003095Y-121722571D01*
X142907857Y-121770190D01*
X142526904Y-121770190D01*
X143669761Y-121674952D02*
X143574523Y-121627333D01*
X143526904Y-121579714D01*
X143479285Y-121484476D01*
X143479285Y-121436857D01*
X143526904Y-121341619D01*
X143574523Y-121294000D01*
X143669761Y-121246380D01*
X143860238Y-121246380D01*
X143955476Y-121294000D01*
X144003095Y-121341619D01*
X144050714Y-121436857D01*
X144050714Y-121484476D01*
X144003095Y-121579714D01*
X143955476Y-121627333D01*
X143860238Y-121674952D01*
X143669761Y-121674952D01*
X143574523Y-121722571D01*
X143526904Y-121770190D01*
X143479285Y-121865428D01*
X143479285Y-122055904D01*
X143526904Y-122151142D01*
X143574523Y-122198761D01*
X143669761Y-122246380D01*
X143860238Y-122246380D01*
X143955476Y-122198761D01*
X144003095Y-122151142D01*
X144050714Y-122055904D01*
X144050714Y-121865428D01*
X144003095Y-121770190D01*
X143955476Y-121722571D01*
X143860238Y-121674952D01*
X95487380Y-67309523D02*
X96201666Y-67309523D01*
X96344523Y-67357142D01*
X96439761Y-67452380D01*
X96487380Y-67595238D01*
X96487380Y-67690476D01*
X96487380Y-66309523D02*
X96487380Y-66880952D01*
X96487380Y-66595238D02*
X95487380Y-66595238D01*
X95630238Y-66690476D01*
X95725476Y-66785714D01*
X95773095Y-66880952D01*
X95915952Y-65738095D02*
X95868333Y-65833333D01*
X95820714Y-65880952D01*
X95725476Y-65928571D01*
X95677857Y-65928571D01*
X95582619Y-65880952D01*
X95535000Y-65833333D01*
X95487380Y-65738095D01*
X95487380Y-65547619D01*
X95535000Y-65452380D01*
X95582619Y-65404761D01*
X95677857Y-65357142D01*
X95725476Y-65357142D01*
X95820714Y-65404761D01*
X95868333Y-65452380D01*
X95915952Y-65547619D01*
X95915952Y-65738095D01*
X95963571Y-65833333D01*
X96011190Y-65880952D01*
X96106428Y-65928571D01*
X96296904Y-65928571D01*
X96392142Y-65880952D01*
X96439761Y-65833333D01*
X96487380Y-65738095D01*
X96487380Y-65547619D01*
X96439761Y-65452380D01*
X96392142Y-65404761D01*
X96296904Y-65357142D01*
X96106428Y-65357142D01*
X96011190Y-65404761D01*
X95963571Y-65452380D01*
X95915952Y-65547619D01*
X103965476Y-53122380D02*
X103965476Y-53836666D01*
X103917857Y-53979523D01*
X103822619Y-54074761D01*
X103679761Y-54122380D01*
X103584523Y-54122380D01*
X104394047Y-53217619D02*
X104441666Y-53170000D01*
X104536904Y-53122380D01*
X104775000Y-53122380D01*
X104870238Y-53170000D01*
X104917857Y-53217619D01*
X104965476Y-53312857D01*
X104965476Y-53408095D01*
X104917857Y-53550952D01*
X104346428Y-54122380D01*
X104965476Y-54122380D01*
X105346428Y-53217619D02*
X105394047Y-53170000D01*
X105489285Y-53122380D01*
X105727380Y-53122380D01*
X105822619Y-53170000D01*
X105870238Y-53217619D01*
X105917857Y-53312857D01*
X105917857Y-53408095D01*
X105870238Y-53550952D01*
X105298809Y-54122380D01*
X105917857Y-54122380D01*
X115395476Y-53122380D02*
X115395476Y-53836666D01*
X115347857Y-53979523D01*
X115252619Y-54074761D01*
X115109761Y-54122380D01*
X115014523Y-54122380D01*
X115824047Y-53217619D02*
X115871666Y-53170000D01*
X115966904Y-53122380D01*
X116205000Y-53122380D01*
X116300238Y-53170000D01*
X116347857Y-53217619D01*
X116395476Y-53312857D01*
X116395476Y-53408095D01*
X116347857Y-53550952D01*
X115776428Y-54122380D01*
X116395476Y-54122380D01*
X116728809Y-53122380D02*
X117347857Y-53122380D01*
X117014523Y-53503333D01*
X117157380Y-53503333D01*
X117252619Y-53550952D01*
X117300238Y-53598571D01*
X117347857Y-53693809D01*
X117347857Y-53931904D01*
X117300238Y-54027142D01*
X117252619Y-54074761D01*
X117157380Y-54122380D01*
X116871666Y-54122380D01*
X116776428Y-54074761D01*
X116728809Y-54027142D01*
X143327380Y-95257857D02*
X142851190Y-95591190D01*
X143327380Y-95829285D02*
X142327380Y-95829285D01*
X142327380Y-95448333D01*
X142375000Y-95353095D01*
X142422619Y-95305476D01*
X142517857Y-95257857D01*
X142660714Y-95257857D01*
X142755952Y-95305476D01*
X142803571Y-95353095D01*
X142851190Y-95448333D01*
X142851190Y-95829285D01*
X143327380Y-94305476D02*
X143327380Y-94876904D01*
X143327380Y-94591190D02*
X142327380Y-94591190D01*
X142470238Y-94686428D01*
X142565476Y-94781666D01*
X142613095Y-94876904D01*
X142422619Y-93924523D02*
X142375000Y-93876904D01*
X142327380Y-93781666D01*
X142327380Y-93543571D01*
X142375000Y-93448333D01*
X142422619Y-93400714D01*
X142517857Y-93353095D01*
X142613095Y-93353095D01*
X142755952Y-93400714D01*
X143327380Y-93972142D01*
X143327380Y-93353095D01*
X156662380Y-98432857D02*
X156186190Y-98766190D01*
X156662380Y-99004285D02*
X155662380Y-99004285D01*
X155662380Y-98623333D01*
X155710000Y-98528095D01*
X155757619Y-98480476D01*
X155852857Y-98432857D01*
X155995714Y-98432857D01*
X156090952Y-98480476D01*
X156138571Y-98528095D01*
X156186190Y-98623333D01*
X156186190Y-99004285D01*
X156662380Y-97480476D02*
X156662380Y-98051904D01*
X156662380Y-97766190D02*
X155662380Y-97766190D01*
X155805238Y-97861428D01*
X155900476Y-97956666D01*
X155948095Y-98051904D01*
X155662380Y-97147142D02*
X155662380Y-96528095D01*
X156043333Y-96861428D01*
X156043333Y-96718571D01*
X156090952Y-96623333D01*
X156138571Y-96575714D01*
X156233809Y-96528095D01*
X156471904Y-96528095D01*
X156567142Y-96575714D01*
X156614761Y-96623333D01*
X156662380Y-96718571D01*
X156662380Y-97004285D01*
X156614761Y-97099523D01*
X156567142Y-97147142D01*
X149042380Y-95257857D02*
X148566190Y-95591190D01*
X149042380Y-95829285D02*
X148042380Y-95829285D01*
X148042380Y-95448333D01*
X148090000Y-95353095D01*
X148137619Y-95305476D01*
X148232857Y-95257857D01*
X148375714Y-95257857D01*
X148470952Y-95305476D01*
X148518571Y-95353095D01*
X148566190Y-95448333D01*
X148566190Y-95829285D01*
X149042380Y-94305476D02*
X149042380Y-94876904D01*
X149042380Y-94591190D02*
X148042380Y-94591190D01*
X148185238Y-94686428D01*
X148280476Y-94781666D01*
X148328095Y-94876904D01*
X148375714Y-93448333D02*
X149042380Y-93448333D01*
X147994761Y-93686428D02*
X148709047Y-93924523D01*
X148709047Y-93305476D01*
X139962142Y-97862380D02*
X139628809Y-97386190D01*
X139390714Y-97862380D02*
X139390714Y-96862380D01*
X139771666Y-96862380D01*
X139866904Y-96910000D01*
X139914523Y-96957619D01*
X139962142Y-97052857D01*
X139962142Y-97195714D01*
X139914523Y-97290952D01*
X139866904Y-97338571D01*
X139771666Y-97386190D01*
X139390714Y-97386190D01*
X140914523Y-97862380D02*
X140343095Y-97862380D01*
X140628809Y-97862380D02*
X140628809Y-96862380D01*
X140533571Y-97005238D01*
X140438333Y-97100476D01*
X140343095Y-97148095D01*
X141819285Y-96862380D02*
X141343095Y-96862380D01*
X141295476Y-97338571D01*
X141343095Y-97290952D01*
X141438333Y-97243333D01*
X141676428Y-97243333D01*
X141771666Y-97290952D01*
X141819285Y-97338571D01*
X141866904Y-97433809D01*
X141866904Y-97671904D01*
X141819285Y-97767142D01*
X141771666Y-97814761D01*
X141676428Y-97862380D01*
X141438333Y-97862380D01*
X141343095Y-97814761D01*
X141295476Y-97767142D01*
X162552142Y-102687380D02*
X162218809Y-102211190D01*
X161980714Y-102687380D02*
X161980714Y-101687380D01*
X162361666Y-101687380D01*
X162456904Y-101735000D01*
X162504523Y-101782619D01*
X162552142Y-101877857D01*
X162552142Y-102020714D01*
X162504523Y-102115952D01*
X162456904Y-102163571D01*
X162361666Y-102211190D01*
X161980714Y-102211190D01*
X163504523Y-102687380D02*
X162933095Y-102687380D01*
X163218809Y-102687380D02*
X163218809Y-101687380D01*
X163123571Y-101830238D01*
X163028333Y-101925476D01*
X162933095Y-101973095D01*
X164361666Y-101687380D02*
X164171190Y-101687380D01*
X164075952Y-101735000D01*
X164028333Y-101782619D01*
X163933095Y-101925476D01*
X163885476Y-102115952D01*
X163885476Y-102496904D01*
X163933095Y-102592142D01*
X163980714Y-102639761D01*
X164075952Y-102687380D01*
X164266428Y-102687380D01*
X164361666Y-102639761D01*
X164409285Y-102592142D01*
X164456904Y-102496904D01*
X164456904Y-102258809D01*
X164409285Y-102163571D01*
X164361666Y-102115952D01*
X164266428Y-102068333D01*
X164075952Y-102068333D01*
X163980714Y-102115952D01*
X163933095Y-102163571D01*
X163885476Y-102258809D01*
X150217142Y-97607380D02*
X149883809Y-97131190D01*
X149645714Y-97607380D02*
X149645714Y-96607380D01*
X150026666Y-96607380D01*
X150121904Y-96655000D01*
X150169523Y-96702619D01*
X150217142Y-96797857D01*
X150217142Y-96940714D01*
X150169523Y-97035952D01*
X150121904Y-97083571D01*
X150026666Y-97131190D01*
X149645714Y-97131190D01*
X151169523Y-97607380D02*
X150598095Y-97607380D01*
X150883809Y-97607380D02*
X150883809Y-96607380D01*
X150788571Y-96750238D01*
X150693333Y-96845476D01*
X150598095Y-96893095D01*
X151502857Y-96607380D02*
X152169523Y-96607380D01*
X151740952Y-97607380D01*
X138890476Y-53122380D02*
X138890476Y-53836666D01*
X138842857Y-53979523D01*
X138747619Y-54074761D01*
X138604761Y-54122380D01*
X138509523Y-54122380D01*
X139890476Y-54122380D02*
X139319047Y-54122380D01*
X139604761Y-54122380D02*
X139604761Y-53122380D01*
X139509523Y-53265238D01*
X139414285Y-53360476D01*
X139319047Y-53408095D01*
X140366666Y-54122380D02*
X140557142Y-54122380D01*
X140652380Y-54074761D01*
X140700000Y-54027142D01*
X140795238Y-53884285D01*
X140842857Y-53693809D01*
X140842857Y-53312857D01*
X140795238Y-53217619D01*
X140747619Y-53170000D01*
X140652380Y-53122380D01*
X140461904Y-53122380D01*
X140366666Y-53170000D01*
X140319047Y-53217619D01*
X140271428Y-53312857D01*
X140271428Y-53550952D01*
X140319047Y-53646190D01*
X140366666Y-53693809D01*
X140461904Y-53741428D01*
X140652380Y-53741428D01*
X140747619Y-53693809D01*
X140795238Y-53646190D01*
X140842857Y-53550952D01*
X127460476Y-53122380D02*
X127460476Y-53836666D01*
X127412857Y-53979523D01*
X127317619Y-54074761D01*
X127174761Y-54122380D01*
X127079523Y-54122380D01*
X127889047Y-53217619D02*
X127936666Y-53170000D01*
X128031904Y-53122380D01*
X128270000Y-53122380D01*
X128365238Y-53170000D01*
X128412857Y-53217619D01*
X128460476Y-53312857D01*
X128460476Y-53408095D01*
X128412857Y-53550952D01*
X127841428Y-54122380D01*
X128460476Y-54122380D01*
X129079523Y-53122380D02*
X129174761Y-53122380D01*
X129270000Y-53170000D01*
X129317619Y-53217619D01*
X129365238Y-53312857D01*
X129412857Y-53503333D01*
X129412857Y-53741428D01*
X129365238Y-53931904D01*
X129317619Y-54027142D01*
X129270000Y-54074761D01*
X129174761Y-54122380D01*
X129079523Y-54122380D01*
X128984285Y-54074761D01*
X128936666Y-54027142D01*
X128889047Y-53931904D01*
X128841428Y-53741428D01*
X128841428Y-53503333D01*
X128889047Y-53312857D01*
X128936666Y-53217619D01*
X128984285Y-53170000D01*
X129079523Y-53122380D01*
X95487380Y-81279523D02*
X96201666Y-81279523D01*
X96344523Y-81327142D01*
X96439761Y-81422380D01*
X96487380Y-81565238D01*
X96487380Y-81660476D01*
X95582619Y-80850952D02*
X95535000Y-80803333D01*
X95487380Y-80708095D01*
X95487380Y-80470000D01*
X95535000Y-80374761D01*
X95582619Y-80327142D01*
X95677857Y-80279523D01*
X95773095Y-80279523D01*
X95915952Y-80327142D01*
X96487380Y-80898571D01*
X96487380Y-80279523D01*
X96487380Y-79327142D02*
X96487380Y-79898571D01*
X96487380Y-79612857D02*
X95487380Y-79612857D01*
X95630238Y-79708095D01*
X95725476Y-79803333D01*
X95773095Y-79898571D01*
X137191904Y-102047380D02*
X137191904Y-102856904D01*
X137239523Y-102952142D01*
X137287142Y-102999761D01*
X137382380Y-103047380D01*
X137572857Y-103047380D01*
X137668095Y-102999761D01*
X137715714Y-102952142D01*
X137763333Y-102856904D01*
X137763333Y-102047380D01*
X138763333Y-103047380D02*
X138191904Y-103047380D01*
X138477619Y-103047380D02*
X138477619Y-102047380D01*
X138382380Y-102190238D01*
X138287142Y-102285476D01*
X138191904Y-102333095D01*
X139715714Y-103047380D02*
X139144285Y-103047380D01*
X139430000Y-103047380D02*
X139430000Y-102047380D01*
X139334761Y-102190238D01*
X139239523Y-102285476D01*
X139144285Y-102333095D01*
X137672380Y-117173333D02*
X138386666Y-117173333D01*
X138529523Y-117220952D01*
X138624761Y-117316190D01*
X138672380Y-117459047D01*
X138672380Y-117554285D01*
X137767619Y-116744761D02*
X137720000Y-116697142D01*
X137672380Y-116601904D01*
X137672380Y-116363809D01*
X137720000Y-116268571D01*
X137767619Y-116220952D01*
X137862857Y-116173333D01*
X137958095Y-116173333D01*
X138100952Y-116220952D01*
X138672380Y-116792380D01*
X138672380Y-116173333D01*
X162437380Y-68913333D02*
X163151666Y-68913333D01*
X163294523Y-68960952D01*
X163389761Y-69056190D01*
X163437380Y-69199047D01*
X163437380Y-69294285D01*
X162770714Y-68008571D02*
X163437380Y-68008571D01*
X162389761Y-68246666D02*
X163104047Y-68484761D01*
X163104047Y-67865714D01*
X162437380Y-71453333D02*
X163151666Y-71453333D01*
X163294523Y-71500952D01*
X163389761Y-71596190D01*
X163437380Y-71739047D01*
X163437380Y-71834285D01*
X162437380Y-70500952D02*
X162437380Y-70977142D01*
X162913571Y-71024761D01*
X162865952Y-70977142D01*
X162818333Y-70881904D01*
X162818333Y-70643809D01*
X162865952Y-70548571D01*
X162913571Y-70500952D01*
X163008809Y-70453333D01*
X163246904Y-70453333D01*
X163342142Y-70500952D01*
X163389761Y-70548571D01*
X163437380Y-70643809D01*
X163437380Y-70881904D01*
X163389761Y-70977142D01*
X163342142Y-71024761D01*
X157992380Y-115903333D02*
X158706666Y-115903333D01*
X158849523Y-115950952D01*
X158944761Y-116046190D01*
X158992380Y-116189047D01*
X158992380Y-116284285D01*
X157992380Y-115522380D02*
X157992380Y-114903333D01*
X158373333Y-115236666D01*
X158373333Y-115093809D01*
X158420952Y-114998571D01*
X158468571Y-114950952D01*
X158563809Y-114903333D01*
X158801904Y-114903333D01*
X158897142Y-114950952D01*
X158944761Y-114998571D01*
X158992380Y-115093809D01*
X158992380Y-115379523D01*
X158944761Y-115474761D01*
X158897142Y-115522380D01*
X180217380Y-115903333D02*
X180931666Y-115903333D01*
X181074523Y-115950952D01*
X181169761Y-116046190D01*
X181217380Y-116189047D01*
X181217380Y-116284285D01*
X180645952Y-115284285D02*
X180598333Y-115379523D01*
X180550714Y-115427142D01*
X180455476Y-115474761D01*
X180407857Y-115474761D01*
X180312619Y-115427142D01*
X180265000Y-115379523D01*
X180217380Y-115284285D01*
X180217380Y-115093809D01*
X180265000Y-114998571D01*
X180312619Y-114950952D01*
X180407857Y-114903333D01*
X180455476Y-114903333D01*
X180550714Y-114950952D01*
X180598333Y-114998571D01*
X180645952Y-115093809D01*
X180645952Y-115284285D01*
X180693571Y-115379523D01*
X180741190Y-115427142D01*
X180836428Y-115474761D01*
X181026904Y-115474761D01*
X181122142Y-115427142D01*
X181169761Y-115379523D01*
X181217380Y-115284285D01*
X181217380Y-115093809D01*
X181169761Y-114998571D01*
X181122142Y-114950952D01*
X181026904Y-114903333D01*
X180836428Y-114903333D01*
X180741190Y-114950952D01*
X180693571Y-114998571D01*
X180645952Y-115093809D01*
X96392380Y-57253095D02*
X95392380Y-57253095D01*
X95392380Y-57015000D01*
X95440000Y-56872142D01*
X95535238Y-56776904D01*
X95630476Y-56729285D01*
X95820952Y-56681666D01*
X95963809Y-56681666D01*
X96154285Y-56729285D01*
X96249523Y-56776904D01*
X96344761Y-56872142D01*
X96392380Y-57015000D01*
X96392380Y-57253095D01*
X96392380Y-55729285D02*
X96392380Y-56300714D01*
X96392380Y-56015000D02*
X95392380Y-56015000D01*
X95535238Y-56110238D01*
X95630476Y-56205476D01*
X95678095Y-56300714D01*
X96392380Y-71223095D02*
X95392380Y-71223095D01*
X95392380Y-70985000D01*
X95440000Y-70842142D01*
X95535238Y-70746904D01*
X95630476Y-70699285D01*
X95820952Y-70651666D01*
X95963809Y-70651666D01*
X96154285Y-70699285D01*
X96249523Y-70746904D01*
X96344761Y-70842142D01*
X96392380Y-70985000D01*
X96392380Y-71223095D01*
X95487619Y-70270714D02*
X95440000Y-70223095D01*
X95392380Y-70127857D01*
X95392380Y-69889761D01*
X95440000Y-69794523D01*
X95487619Y-69746904D01*
X95582857Y-69699285D01*
X95678095Y-69699285D01*
X95820952Y-69746904D01*
X96392380Y-70318333D01*
X96392380Y-69699285D01*
X96392380Y-129643095D02*
X95392380Y-129643095D01*
X95392380Y-129405000D01*
X95440000Y-129262142D01*
X95535238Y-129166904D01*
X95630476Y-129119285D01*
X95820952Y-129071666D01*
X95963809Y-129071666D01*
X96154285Y-129119285D01*
X96249523Y-129166904D01*
X96344761Y-129262142D01*
X96392380Y-129405000D01*
X96392380Y-129643095D01*
X95392380Y-128738333D02*
X95392380Y-128119285D01*
X95773333Y-128452619D01*
X95773333Y-128309761D01*
X95820952Y-128214523D01*
X95868571Y-128166904D01*
X95963809Y-128119285D01*
X96201904Y-128119285D01*
X96297142Y-128166904D01*
X96344761Y-128214523D01*
X96392380Y-128309761D01*
X96392380Y-128595476D01*
X96344761Y-128690714D01*
X96297142Y-128738333D01*
X150272904Y-103201380D02*
X150272904Y-104010904D01*
X150320523Y-104106142D01*
X150368142Y-104153761D01*
X150463380Y-104201380D01*
X150653857Y-104201380D01*
X150749095Y-104153761D01*
X150796714Y-104106142D01*
X150844333Y-104010904D01*
X150844333Y-103201380D01*
X151844333Y-104201380D02*
X151272904Y-104201380D01*
X151558619Y-104201380D02*
X151558619Y-103201380D01*
X151463380Y-103344238D01*
X151368142Y-103439476D01*
X151272904Y-103487095D01*
X152225285Y-103296619D02*
X152272904Y-103249000D01*
X152368142Y-103201380D01*
X152606238Y-103201380D01*
X152701476Y-103249000D01*
X152749095Y-103296619D01*
X152796714Y-103391857D01*
X152796714Y-103487095D01*
X152749095Y-103629952D01*
X152177666Y-104201380D01*
X152796714Y-104201380D01*
M02*
