G04 #@! TF.GenerationSoftware,KiCad,Pcbnew,5.1.9-73d0e3b20d~88~ubuntu18.04.1*
G04 #@! TF.CreationDate,2021-03-10T15:05:19+01:00*
G04 #@! TF.ProjectId,FPGA_buffer_board,46504741-5f62-4756-9666-65725f626f61,1.1*
G04 #@! TF.SameCoordinates,Original*
G04 #@! TF.FileFunction,Paste,Top*
G04 #@! TF.FilePolarity,Positive*
%FSLAX46Y46*%
G04 Gerber Fmt 4.6, Leading zero omitted, Abs format (unit mm)*
G04 Created by KiCad (PCBNEW 5.1.9-73d0e3b20d~88~ubuntu18.04.1) date 2021-03-10 15:05:19*
%MOMM*%
%LPD*%
G01*
G04 APERTURE LIST*
%ADD10R,3.150000X1.000000*%
%ADD11R,1.100000X0.400000*%
%ADD12R,0.890000X0.420000*%
%ADD13R,0.680000X0.750000*%
%ADD14R,5.080000X1.500000*%
G04 APERTURE END LIST*
D10*
X201900000Y-88900000D03*
X196850000Y-88900000D03*
X201900000Y-86360000D03*
X196850000Y-86360000D03*
X201900000Y-83820000D03*
X196850000Y-83820000D03*
X201900000Y-81280000D03*
X196850000Y-81280000D03*
X201900000Y-78740000D03*
X196850000Y-78740000D03*
X201900000Y-76200000D03*
X196850000Y-76200000D03*
G36*
G01*
X152285000Y-65695000D02*
X152285000Y-63845000D01*
G75*
G02*
X152535000Y-63595000I250000J0D01*
G01*
X153535000Y-63595000D01*
G75*
G02*
X153785000Y-63845000I0J-250000D01*
G01*
X153785000Y-65695000D01*
G75*
G02*
X153535000Y-65945000I-250000J0D01*
G01*
X152535000Y-65945000D01*
G75*
G02*
X152285000Y-65695000I0J250000D01*
G01*
G37*
G36*
G01*
X155535000Y-65695000D02*
X155535000Y-63845000D01*
G75*
G02*
X155785000Y-63595000I250000J0D01*
G01*
X156785000Y-63595000D01*
G75*
G02*
X157035000Y-63845000I0J-250000D01*
G01*
X157035000Y-65695000D01*
G75*
G02*
X156785000Y-65945000I-250000J0D01*
G01*
X155785000Y-65945000D01*
G75*
G02*
X155535000Y-65695000I0J250000D01*
G01*
G37*
D11*
X131708000Y-124445000D03*
X131708000Y-125095000D03*
X131708000Y-125745000D03*
X131708000Y-126395000D03*
X136008000Y-126395000D03*
X136008000Y-125745000D03*
X136008000Y-125095000D03*
X136008000Y-124445000D03*
D12*
X160331000Y-135408000D03*
X160331000Y-136058000D03*
X160331000Y-136708000D03*
X160331000Y-137358000D03*
X160331000Y-138008000D03*
X160331000Y-138658000D03*
X164541000Y-138658000D03*
X164541000Y-138008000D03*
X164541000Y-137358000D03*
X164541000Y-136708000D03*
X164541000Y-136058000D03*
X164541000Y-135408000D03*
D13*
X162848500Y-137983000D03*
X162023500Y-137983000D03*
X162023500Y-137033000D03*
X162848500Y-137033000D03*
X162023500Y-136083000D03*
X162848500Y-136083000D03*
D10*
X196850000Y-99060000D03*
X201900000Y-99060000D03*
X196850000Y-101600000D03*
X201900000Y-101600000D03*
X196850000Y-104140000D03*
X201900000Y-104140000D03*
X196850000Y-106680000D03*
X201900000Y-106680000D03*
X196850000Y-109220000D03*
X201900000Y-109220000D03*
X196850000Y-111760000D03*
X201900000Y-111760000D03*
D14*
X92075000Y-132715000D03*
X92075000Y-139065000D03*
X92075000Y-135890000D03*
X92075000Y-121920000D03*
X92075000Y-125095000D03*
X92075000Y-118745000D03*
G36*
G01*
X158866000Y-135525500D02*
X158866000Y-136000500D01*
G75*
G02*
X158628500Y-136238000I-237500J0D01*
G01*
X158028500Y-136238000D01*
G75*
G02*
X157791000Y-136000500I0J237500D01*
G01*
X157791000Y-135525500D01*
G75*
G02*
X158028500Y-135288000I237500J0D01*
G01*
X158628500Y-135288000D01*
G75*
G02*
X158866000Y-135525500I0J-237500D01*
G01*
G37*
G36*
G01*
X157141000Y-135525500D02*
X157141000Y-136000500D01*
G75*
G02*
X156903500Y-136238000I-237500J0D01*
G01*
X156303500Y-136238000D01*
G75*
G02*
X156066000Y-136000500I0J237500D01*
G01*
X156066000Y-135525500D01*
G75*
G02*
X156303500Y-135288000I237500J0D01*
G01*
X156903500Y-135288000D01*
G75*
G02*
X157141000Y-135525500I0J-237500D01*
G01*
G37*
G36*
G01*
X157141000Y-138065500D02*
X157141000Y-138540500D01*
G75*
G02*
X156903500Y-138778000I-237500J0D01*
G01*
X156303500Y-138778000D01*
G75*
G02*
X156066000Y-138540500I0J237500D01*
G01*
X156066000Y-138065500D01*
G75*
G02*
X156303500Y-137828000I237500J0D01*
G01*
X156903500Y-137828000D01*
G75*
G02*
X157141000Y-138065500I0J-237500D01*
G01*
G37*
G36*
G01*
X158866000Y-138065500D02*
X158866000Y-138540500D01*
G75*
G02*
X158628500Y-138778000I-237500J0D01*
G01*
X158028500Y-138778000D01*
G75*
G02*
X157791000Y-138540500I0J237500D01*
G01*
X157791000Y-138065500D01*
G75*
G02*
X158028500Y-137828000I237500J0D01*
G01*
X158628500Y-137828000D01*
G75*
G02*
X158866000Y-138065500I0J-237500D01*
G01*
G37*
D10*
X227330000Y-127000000D03*
X222280000Y-127000000D03*
X227330000Y-124460000D03*
X222280000Y-124460000D03*
X227330000Y-121920000D03*
X222280000Y-121920000D03*
X227330000Y-119380000D03*
X222280000Y-119380000D03*
X227330000Y-116840000D03*
X222280000Y-116840000D03*
X227330000Y-114300000D03*
X222280000Y-114300000D03*
X227330000Y-111760000D03*
X222280000Y-111760000D03*
X227330000Y-109220000D03*
X222280000Y-109220000D03*
X227330000Y-106680000D03*
X222280000Y-106680000D03*
X227330000Y-104140000D03*
X222280000Y-104140000D03*
X227330000Y-101600000D03*
X222280000Y-101600000D03*
X227330000Y-99060000D03*
X222280000Y-99060000D03*
X227330000Y-96520000D03*
X222280000Y-96520000D03*
X227330000Y-93980000D03*
X222280000Y-93980000D03*
X227330000Y-91440000D03*
X222280000Y-91440000D03*
X227330000Y-88900000D03*
X222280000Y-88900000D03*
X227330000Y-86360000D03*
X222280000Y-86360000D03*
X227330000Y-83820000D03*
X222280000Y-83820000D03*
X227330000Y-81280000D03*
X222280000Y-81280000D03*
X227330000Y-78740000D03*
X222280000Y-78740000D03*
X227330000Y-76200000D03*
X222280000Y-76200000D03*
X227330000Y-73660000D03*
X222280000Y-73660000D03*
X227330000Y-71120000D03*
X222280000Y-71120000D03*
X227330000Y-68580000D03*
X222280000Y-68580000D03*
X227330000Y-66040000D03*
X222280000Y-66040000D03*
X213838000Y-127000000D03*
X208788000Y-127000000D03*
X213838000Y-124460000D03*
X208788000Y-124460000D03*
X213838000Y-121920000D03*
X208788000Y-121920000D03*
X213838000Y-119380000D03*
X208788000Y-119380000D03*
X213838000Y-116840000D03*
X208788000Y-116840000D03*
X213838000Y-114300000D03*
X208788000Y-114300000D03*
X213838000Y-111760000D03*
X208788000Y-111760000D03*
X213838000Y-109220000D03*
X208788000Y-109220000D03*
X213838000Y-106680000D03*
X208788000Y-106680000D03*
X213838000Y-104140000D03*
X208788000Y-104140000D03*
X213838000Y-101600000D03*
X208788000Y-101600000D03*
X213838000Y-99060000D03*
X208788000Y-99060000D03*
X213838000Y-96520000D03*
X208788000Y-96520000D03*
X213838000Y-93980000D03*
X208788000Y-93980000D03*
X213838000Y-91440000D03*
X208788000Y-91440000D03*
X213838000Y-88900000D03*
X208788000Y-88900000D03*
X213838000Y-86360000D03*
X208788000Y-86360000D03*
X213838000Y-83820000D03*
X208788000Y-83820000D03*
X213838000Y-81280000D03*
X208788000Y-81280000D03*
X213838000Y-78740000D03*
X208788000Y-78740000D03*
X213838000Y-76200000D03*
X208788000Y-76200000D03*
X213838000Y-73660000D03*
X208788000Y-73660000D03*
X213838000Y-71120000D03*
X208788000Y-71120000D03*
X213838000Y-68580000D03*
X208788000Y-68580000D03*
X213838000Y-66040000D03*
X208788000Y-66040000D03*
G36*
G01*
X144902500Y-136515000D02*
X144902500Y-135265000D01*
G75*
G02*
X145152500Y-135015000I250000J0D01*
G01*
X145952500Y-135015000D01*
G75*
G02*
X146202500Y-135265000I0J-250000D01*
G01*
X146202500Y-136515000D01*
G75*
G02*
X145952500Y-136765000I-250000J0D01*
G01*
X145152500Y-136765000D01*
G75*
G02*
X144902500Y-136515000I0J250000D01*
G01*
G37*
G36*
G01*
X148002500Y-136515000D02*
X148002500Y-135265000D01*
G75*
G02*
X148252500Y-135015000I250000J0D01*
G01*
X149052500Y-135015000D01*
G75*
G02*
X149302500Y-135265000I0J-250000D01*
G01*
X149302500Y-136515000D01*
G75*
G02*
X149052500Y-136765000I-250000J0D01*
G01*
X148252500Y-136765000D01*
G75*
G02*
X148002500Y-136515000I0J250000D01*
G01*
G37*
G36*
G01*
X148002500Y-139055000D02*
X148002500Y-137805000D01*
G75*
G02*
X148252500Y-137555000I250000J0D01*
G01*
X149052500Y-137555000D01*
G75*
G02*
X149302500Y-137805000I0J-250000D01*
G01*
X149302500Y-139055000D01*
G75*
G02*
X149052500Y-139305000I-250000J0D01*
G01*
X148252500Y-139305000D01*
G75*
G02*
X148002500Y-139055000I0J250000D01*
G01*
G37*
G36*
G01*
X144902500Y-139055000D02*
X144902500Y-137805000D01*
G75*
G02*
X145152500Y-137555000I250000J0D01*
G01*
X145952500Y-137555000D01*
G75*
G02*
X146202500Y-137805000I0J-250000D01*
G01*
X146202500Y-139055000D01*
G75*
G02*
X145952500Y-139305000I-250000J0D01*
G01*
X145152500Y-139305000D01*
G75*
G02*
X144902500Y-139055000I0J250000D01*
G01*
G37*
G36*
G01*
X152136000Y-141990500D02*
X150886000Y-141990500D01*
G75*
G02*
X150636000Y-141740500I0J250000D01*
G01*
X150636000Y-140940500D01*
G75*
G02*
X150886000Y-140690500I250000J0D01*
G01*
X152136000Y-140690500D01*
G75*
G02*
X152386000Y-140940500I0J-250000D01*
G01*
X152386000Y-141740500D01*
G75*
G02*
X152136000Y-141990500I-250000J0D01*
G01*
G37*
G36*
G01*
X152136000Y-138890500D02*
X150886000Y-138890500D01*
G75*
G02*
X150636000Y-138640500I0J250000D01*
G01*
X150636000Y-137840500D01*
G75*
G02*
X150886000Y-137590500I250000J0D01*
G01*
X152136000Y-137590500D01*
G75*
G02*
X152386000Y-137840500I0J-250000D01*
G01*
X152386000Y-138640500D01*
G75*
G02*
X152136000Y-138890500I-250000J0D01*
G01*
G37*
G36*
G01*
X154676000Y-141990500D02*
X153426000Y-141990500D01*
G75*
G02*
X153176000Y-141740500I0J250000D01*
G01*
X153176000Y-140940500D01*
G75*
G02*
X153426000Y-140690500I250000J0D01*
G01*
X154676000Y-140690500D01*
G75*
G02*
X154926000Y-140940500I0J-250000D01*
G01*
X154926000Y-141740500D01*
G75*
G02*
X154676000Y-141990500I-250000J0D01*
G01*
G37*
G36*
G01*
X154676000Y-138890500D02*
X153426000Y-138890500D01*
G75*
G02*
X153176000Y-138640500I0J250000D01*
G01*
X153176000Y-137840500D01*
G75*
G02*
X153426000Y-137590500I250000J0D01*
G01*
X154676000Y-137590500D01*
G75*
G02*
X154926000Y-137840500I0J-250000D01*
G01*
X154926000Y-138640500D01*
G75*
G02*
X154676000Y-138890500I-250000J0D01*
G01*
G37*
G36*
G01*
X153426000Y-135175500D02*
X154676000Y-135175500D01*
G75*
G02*
X154926000Y-135425500I0J-250000D01*
G01*
X154926000Y-136225500D01*
G75*
G02*
X154676000Y-136475500I-250000J0D01*
G01*
X153426000Y-136475500D01*
G75*
G02*
X153176000Y-136225500I0J250000D01*
G01*
X153176000Y-135425500D01*
G75*
G02*
X153426000Y-135175500I250000J0D01*
G01*
G37*
G36*
G01*
X153426000Y-132075500D02*
X154676000Y-132075500D01*
G75*
G02*
X154926000Y-132325500I0J-250000D01*
G01*
X154926000Y-133125500D01*
G75*
G02*
X154676000Y-133375500I-250000J0D01*
G01*
X153426000Y-133375500D01*
G75*
G02*
X153176000Y-133125500I0J250000D01*
G01*
X153176000Y-132325500D01*
G75*
G02*
X153426000Y-132075500I250000J0D01*
G01*
G37*
G36*
G01*
X150886000Y-135175500D02*
X152136000Y-135175500D01*
G75*
G02*
X152386000Y-135425500I0J-250000D01*
G01*
X152386000Y-136225500D01*
G75*
G02*
X152136000Y-136475500I-250000J0D01*
G01*
X150886000Y-136475500D01*
G75*
G02*
X150636000Y-136225500I0J250000D01*
G01*
X150636000Y-135425500D01*
G75*
G02*
X150886000Y-135175500I250000J0D01*
G01*
G37*
G36*
G01*
X150886000Y-132075500D02*
X152136000Y-132075500D01*
G75*
G02*
X152386000Y-132325500I0J-250000D01*
G01*
X152386000Y-133125500D01*
G75*
G02*
X152136000Y-133375500I-250000J0D01*
G01*
X150886000Y-133375500D01*
G75*
G02*
X150636000Y-133125500I0J250000D01*
G01*
X150636000Y-132325500D01*
G75*
G02*
X150886000Y-132075500I250000J0D01*
G01*
G37*
G36*
G01*
X143665000Y-127450001D02*
X143665000Y-126549999D01*
G75*
G02*
X143914999Y-126300000I249999J0D01*
G01*
X144615001Y-126300000D01*
G75*
G02*
X144865000Y-126549999I0J-249999D01*
G01*
X144865000Y-127450001D01*
G75*
G02*
X144615001Y-127700000I-249999J0D01*
G01*
X143914999Y-127700000D01*
G75*
G02*
X143665000Y-127450001I0J249999D01*
G01*
G37*
G36*
G01*
X141665000Y-127450001D02*
X141665000Y-126549999D01*
G75*
G02*
X141914999Y-126300000I249999J0D01*
G01*
X142615001Y-126300000D01*
G75*
G02*
X142865000Y-126549999I0J-249999D01*
G01*
X142865000Y-127450001D01*
G75*
G02*
X142615001Y-127700000I-249999J0D01*
G01*
X141914999Y-127700000D01*
G75*
G02*
X141665000Y-127450001I0J249999D01*
G01*
G37*
G36*
G01*
X143665000Y-123894001D02*
X143665000Y-122993999D01*
G75*
G02*
X143914999Y-122744000I249999J0D01*
G01*
X144615001Y-122744000D01*
G75*
G02*
X144865000Y-122993999I0J-249999D01*
G01*
X144865000Y-123894001D01*
G75*
G02*
X144615001Y-124144000I-249999J0D01*
G01*
X143914999Y-124144000D01*
G75*
G02*
X143665000Y-123894001I0J249999D01*
G01*
G37*
G36*
G01*
X141665000Y-123894001D02*
X141665000Y-122993999D01*
G75*
G02*
X141914999Y-122744000I249999J0D01*
G01*
X142615001Y-122744000D01*
G75*
G02*
X142865000Y-122993999I0J-249999D01*
G01*
X142865000Y-123894001D01*
G75*
G02*
X142615001Y-124144000I-249999J0D01*
G01*
X141914999Y-124144000D01*
G75*
G02*
X141665000Y-123894001I0J249999D01*
G01*
G37*
D14*
X92075000Y-60325000D03*
X92075000Y-66675000D03*
X92075000Y-63500000D03*
G36*
G01*
X144595001Y-97660000D02*
X143694999Y-97660000D01*
G75*
G02*
X143445000Y-97410001I0J249999D01*
G01*
X143445000Y-96709999D01*
G75*
G02*
X143694999Y-96460000I249999J0D01*
G01*
X144595001Y-96460000D01*
G75*
G02*
X144845000Y-96709999I0J-249999D01*
G01*
X144845000Y-97410001D01*
G75*
G02*
X144595001Y-97660000I-249999J0D01*
G01*
G37*
G36*
G01*
X144595001Y-99660000D02*
X143694999Y-99660000D01*
G75*
G02*
X143445000Y-99410001I0J249999D01*
G01*
X143445000Y-98709999D01*
G75*
G02*
X143694999Y-98460000I249999J0D01*
G01*
X144595001Y-98460000D01*
G75*
G02*
X144845000Y-98709999I0J-249999D01*
G01*
X144845000Y-99410001D01*
G75*
G02*
X144595001Y-99660000I-249999J0D01*
G01*
G37*
G36*
G01*
X156279001Y-102962000D02*
X155378999Y-102962000D01*
G75*
G02*
X155129000Y-102712001I0J249999D01*
G01*
X155129000Y-102011999D01*
G75*
G02*
X155378999Y-101762000I249999J0D01*
G01*
X156279001Y-101762000D01*
G75*
G02*
X156529000Y-102011999I0J-249999D01*
G01*
X156529000Y-102712001D01*
G75*
G02*
X156279001Y-102962000I-249999J0D01*
G01*
G37*
G36*
G01*
X156279001Y-100962000D02*
X155378999Y-100962000D01*
G75*
G02*
X155129000Y-100712001I0J249999D01*
G01*
X155129000Y-100011999D01*
G75*
G02*
X155378999Y-99762000I249999J0D01*
G01*
X156279001Y-99762000D01*
G75*
G02*
X156529000Y-100011999I0J-249999D01*
G01*
X156529000Y-100712001D01*
G75*
G02*
X156279001Y-100962000I-249999J0D01*
G01*
G37*
G36*
G01*
X147770001Y-99660000D02*
X146869999Y-99660000D01*
G75*
G02*
X146620000Y-99410001I0J249999D01*
G01*
X146620000Y-98709999D01*
G75*
G02*
X146869999Y-98460000I249999J0D01*
G01*
X147770001Y-98460000D01*
G75*
G02*
X148020000Y-98709999I0J-249999D01*
G01*
X148020000Y-99410001D01*
G75*
G02*
X147770001Y-99660000I-249999J0D01*
G01*
G37*
G36*
G01*
X147770001Y-97660000D02*
X146869999Y-97660000D01*
G75*
G02*
X146620000Y-97410001I0J249999D01*
G01*
X146620000Y-96709999D01*
G75*
G02*
X146869999Y-96460000I249999J0D01*
G01*
X147770001Y-96460000D01*
G75*
G02*
X148020000Y-96709999I0J-249999D01*
G01*
X148020000Y-97410001D01*
G75*
G02*
X147770001Y-97660000I-249999J0D01*
G01*
G37*
G36*
G01*
X141005000Y-99510001D02*
X141005000Y-98609999D01*
G75*
G02*
X141254999Y-98360000I249999J0D01*
G01*
X141955001Y-98360000D01*
G75*
G02*
X142205000Y-98609999I0J-249999D01*
G01*
X142205000Y-99510001D01*
G75*
G02*
X141955001Y-99760000I-249999J0D01*
G01*
X141254999Y-99760000D01*
G75*
G02*
X141005000Y-99510001I0J249999D01*
G01*
G37*
G36*
G01*
X139005000Y-99510001D02*
X139005000Y-98609999D01*
G75*
G02*
X139254999Y-98360000I249999J0D01*
G01*
X139955001Y-98360000D01*
G75*
G02*
X140205000Y-98609999I0J-249999D01*
G01*
X140205000Y-99510001D01*
G75*
G02*
X139955001Y-99760000I-249999J0D01*
G01*
X139254999Y-99760000D01*
G75*
G02*
X139005000Y-99510001I0J249999D01*
G01*
G37*
G36*
G01*
X161477000Y-101911999D02*
X161477000Y-102812001D01*
G75*
G02*
X161227001Y-103062000I-249999J0D01*
G01*
X160526999Y-103062000D01*
G75*
G02*
X160277000Y-102812001I0J249999D01*
G01*
X160277000Y-101911999D01*
G75*
G02*
X160526999Y-101662000I249999J0D01*
G01*
X161227001Y-101662000D01*
G75*
G02*
X161477000Y-101911999I0J-249999D01*
G01*
G37*
G36*
G01*
X159477000Y-101911999D02*
X159477000Y-102812001D01*
G75*
G02*
X159227001Y-103062000I-249999J0D01*
G01*
X158526999Y-103062000D01*
G75*
G02*
X158277000Y-102812001I0J249999D01*
G01*
X158277000Y-101911999D01*
G75*
G02*
X158526999Y-101662000I249999J0D01*
G01*
X159227001Y-101662000D01*
G75*
G02*
X159477000Y-101911999I0J-249999D01*
G01*
G37*
G36*
G01*
X150460000Y-98609999D02*
X150460000Y-99510001D01*
G75*
G02*
X150210001Y-99760000I-249999J0D01*
G01*
X149509999Y-99760000D01*
G75*
G02*
X149260000Y-99510001I0J249999D01*
G01*
X149260000Y-98609999D01*
G75*
G02*
X149509999Y-98360000I249999J0D01*
G01*
X150210001Y-98360000D01*
G75*
G02*
X150460000Y-98609999I0J-249999D01*
G01*
G37*
G36*
G01*
X152460000Y-98609999D02*
X152460000Y-99510001D01*
G75*
G02*
X152210001Y-99760000I-249999J0D01*
G01*
X151509999Y-99760000D01*
G75*
G02*
X151260000Y-99510001I0J249999D01*
G01*
X151260000Y-98609999D01*
G75*
G02*
X151509999Y-98360000I249999J0D01*
G01*
X152210001Y-98360000D01*
G75*
G02*
X152460000Y-98609999I0J-249999D01*
G01*
G37*
X92075000Y-74295000D03*
X92075000Y-80645000D03*
X92075000Y-77470000D03*
G36*
G01*
X134830000Y-104195000D02*
X134830000Y-103995000D01*
G75*
G02*
X134930000Y-103895000I100000J0D01*
G01*
X136205000Y-103895000D01*
G75*
G02*
X136305000Y-103995000I0J-100000D01*
G01*
X136305000Y-104195000D01*
G75*
G02*
X136205000Y-104295000I-100000J0D01*
G01*
X134930000Y-104295000D01*
G75*
G02*
X134830000Y-104195000I0J100000D01*
G01*
G37*
G36*
G01*
X134830000Y-104845000D02*
X134830000Y-104645000D01*
G75*
G02*
X134930000Y-104545000I100000J0D01*
G01*
X136205000Y-104545000D01*
G75*
G02*
X136305000Y-104645000I0J-100000D01*
G01*
X136305000Y-104845000D01*
G75*
G02*
X136205000Y-104945000I-100000J0D01*
G01*
X134930000Y-104945000D01*
G75*
G02*
X134830000Y-104845000I0J100000D01*
G01*
G37*
G36*
G01*
X134830000Y-105495000D02*
X134830000Y-105295000D01*
G75*
G02*
X134930000Y-105195000I100000J0D01*
G01*
X136205000Y-105195000D01*
G75*
G02*
X136305000Y-105295000I0J-100000D01*
G01*
X136305000Y-105495000D01*
G75*
G02*
X136205000Y-105595000I-100000J0D01*
G01*
X134930000Y-105595000D01*
G75*
G02*
X134830000Y-105495000I0J100000D01*
G01*
G37*
G36*
G01*
X134830000Y-106145000D02*
X134830000Y-105945000D01*
G75*
G02*
X134930000Y-105845000I100000J0D01*
G01*
X136205000Y-105845000D01*
G75*
G02*
X136305000Y-105945000I0J-100000D01*
G01*
X136305000Y-106145000D01*
G75*
G02*
X136205000Y-106245000I-100000J0D01*
G01*
X134930000Y-106245000D01*
G75*
G02*
X134830000Y-106145000I0J100000D01*
G01*
G37*
G36*
G01*
X134830000Y-106795000D02*
X134830000Y-106595000D01*
G75*
G02*
X134930000Y-106495000I100000J0D01*
G01*
X136205000Y-106495000D01*
G75*
G02*
X136305000Y-106595000I0J-100000D01*
G01*
X136305000Y-106795000D01*
G75*
G02*
X136205000Y-106895000I-100000J0D01*
G01*
X134930000Y-106895000D01*
G75*
G02*
X134830000Y-106795000I0J100000D01*
G01*
G37*
G36*
G01*
X134830000Y-107445000D02*
X134830000Y-107245000D01*
G75*
G02*
X134930000Y-107145000I100000J0D01*
G01*
X136205000Y-107145000D01*
G75*
G02*
X136305000Y-107245000I0J-100000D01*
G01*
X136305000Y-107445000D01*
G75*
G02*
X136205000Y-107545000I-100000J0D01*
G01*
X134930000Y-107545000D01*
G75*
G02*
X134830000Y-107445000I0J100000D01*
G01*
G37*
G36*
G01*
X134830000Y-108095000D02*
X134830000Y-107895000D01*
G75*
G02*
X134930000Y-107795000I100000J0D01*
G01*
X136205000Y-107795000D01*
G75*
G02*
X136305000Y-107895000I0J-100000D01*
G01*
X136305000Y-108095000D01*
G75*
G02*
X136205000Y-108195000I-100000J0D01*
G01*
X134930000Y-108195000D01*
G75*
G02*
X134830000Y-108095000I0J100000D01*
G01*
G37*
G36*
G01*
X140555000Y-108095000D02*
X140555000Y-107895000D01*
G75*
G02*
X140655000Y-107795000I100000J0D01*
G01*
X141930000Y-107795000D01*
G75*
G02*
X142030000Y-107895000I0J-100000D01*
G01*
X142030000Y-108095000D01*
G75*
G02*
X141930000Y-108195000I-100000J0D01*
G01*
X140655000Y-108195000D01*
G75*
G02*
X140555000Y-108095000I0J100000D01*
G01*
G37*
G36*
G01*
X140555000Y-107445000D02*
X140555000Y-107245000D01*
G75*
G02*
X140655000Y-107145000I100000J0D01*
G01*
X141930000Y-107145000D01*
G75*
G02*
X142030000Y-107245000I0J-100000D01*
G01*
X142030000Y-107445000D01*
G75*
G02*
X141930000Y-107545000I-100000J0D01*
G01*
X140655000Y-107545000D01*
G75*
G02*
X140555000Y-107445000I0J100000D01*
G01*
G37*
G36*
G01*
X140555000Y-106795000D02*
X140555000Y-106595000D01*
G75*
G02*
X140655000Y-106495000I100000J0D01*
G01*
X141930000Y-106495000D01*
G75*
G02*
X142030000Y-106595000I0J-100000D01*
G01*
X142030000Y-106795000D01*
G75*
G02*
X141930000Y-106895000I-100000J0D01*
G01*
X140655000Y-106895000D01*
G75*
G02*
X140555000Y-106795000I0J100000D01*
G01*
G37*
G36*
G01*
X140555000Y-106145000D02*
X140555000Y-105945000D01*
G75*
G02*
X140655000Y-105845000I100000J0D01*
G01*
X141930000Y-105845000D01*
G75*
G02*
X142030000Y-105945000I0J-100000D01*
G01*
X142030000Y-106145000D01*
G75*
G02*
X141930000Y-106245000I-100000J0D01*
G01*
X140655000Y-106245000D01*
G75*
G02*
X140555000Y-106145000I0J100000D01*
G01*
G37*
G36*
G01*
X140555000Y-105495000D02*
X140555000Y-105295000D01*
G75*
G02*
X140655000Y-105195000I100000J0D01*
G01*
X141930000Y-105195000D01*
G75*
G02*
X142030000Y-105295000I0J-100000D01*
G01*
X142030000Y-105495000D01*
G75*
G02*
X141930000Y-105595000I-100000J0D01*
G01*
X140655000Y-105595000D01*
G75*
G02*
X140555000Y-105495000I0J100000D01*
G01*
G37*
G36*
G01*
X140555000Y-104845000D02*
X140555000Y-104645000D01*
G75*
G02*
X140655000Y-104545000I100000J0D01*
G01*
X141930000Y-104545000D01*
G75*
G02*
X142030000Y-104645000I0J-100000D01*
G01*
X142030000Y-104845000D01*
G75*
G02*
X141930000Y-104945000I-100000J0D01*
G01*
X140655000Y-104945000D01*
G75*
G02*
X140555000Y-104845000I0J100000D01*
G01*
G37*
G36*
G01*
X140555000Y-104195000D02*
X140555000Y-103995000D01*
G75*
G02*
X140655000Y-103895000I100000J0D01*
G01*
X141930000Y-103895000D01*
G75*
G02*
X142030000Y-103995000I0J-100000D01*
G01*
X142030000Y-104195000D01*
G75*
G02*
X141930000Y-104295000I-100000J0D01*
G01*
X140655000Y-104295000D01*
G75*
G02*
X140555000Y-104195000I0J100000D01*
G01*
G37*
D11*
X149361000Y-105324000D03*
X149361000Y-105974000D03*
X149361000Y-106624000D03*
X149361000Y-107274000D03*
X153661000Y-107274000D03*
X153661000Y-106624000D03*
X153661000Y-105974000D03*
X153661000Y-105324000D03*
M02*
