G04 #@! TF.GenerationSoftware,KiCad,Pcbnew,5.1.10-88a1d61d58~88~ubuntu18.04.1*
G04 #@! TF.CreationDate,2022-09-15T09:05:11+02:00*
G04 #@! TF.ProjectId,FPGA_buffer_board,46504741-5f62-4756-9666-65725f626f61,v1.4*
G04 #@! TF.SameCoordinates,Original*
G04 #@! TF.FileFunction,Soldermask,Bot*
G04 #@! TF.FilePolarity,Negative*
%FSLAX46Y46*%
G04 Gerber Fmt 4.6, Leading zero omitted, Abs format (unit mm)*
G04 Created by KiCad (PCBNEW 5.1.10-88a1d61d58~88~ubuntu18.04.1) date 2022-09-15 09:05:11*
%MOMM*%
%LPD*%
G01*
G04 APERTURE LIST*
G04 #@! TA.AperFunction,Profile*
%ADD10C,0.200000*%
G04 #@! TD*
%ADD11C,0.100000*%
%ADD12O,1.700000X1.700000*%
%ADD13R,1.700000X1.700000*%
%ADD14C,2.250000*%
%ADD15C,2.050000*%
%ADD16C,2.500000*%
%ADD17R,2.500000X2.500000*%
%ADD18C,1.600000*%
%ADD19R,1.600000X1.600000*%
%ADD20C,1.800000*%
%ADD21R,1.800000X1.800000*%
%ADD22C,2.000000*%
%ADD23C,2.800000*%
%ADD24R,5.080000X1.500000*%
%ADD25R,1.000000X1.500000*%
%ADD26C,1.524000*%
%ADD27C,3.000000*%
G04 APERTURE END LIST*
D10*
X86756666Y-153670000D02*
G75*
G03*
X86756666Y-153670000I-1666666J0D01*
G01*
X82590000Y-153670000D02*
X87590000Y-153670000D01*
X85090000Y-151170000D02*
X85090000Y-156170000D01*
X254396666Y-45720000D02*
G75*
G03*
X254396666Y-45720000I-1666666J0D01*
G01*
X250230000Y-45720000D02*
X255230000Y-45720000D01*
X252730000Y-43220000D02*
X252730000Y-48220000D01*
X86756666Y-45720000D02*
G75*
G03*
X86756666Y-45720000I-1666666J0D01*
G01*
X82590000Y-45720000D02*
X87590000Y-45720000D01*
X85090000Y-43220000D02*
X85090000Y-48220000D01*
X248920000Y-149860000D02*
X88900000Y-149860000D01*
X248920000Y-49530000D02*
X248920000Y-149860000D01*
X88900000Y-49530000D02*
X248920000Y-49530000D01*
X88900000Y-149860000D02*
X88900000Y-49530000D01*
G36*
G01*
X187852000Y-62680001D02*
X187852000Y-61779999D01*
G75*
G02*
X188101999Y-61530000I249999J0D01*
G01*
X188802001Y-61530000D01*
G75*
G02*
X189052000Y-61779999I0J-249999D01*
G01*
X189052000Y-62680001D01*
G75*
G02*
X188802001Y-62930000I-249999J0D01*
G01*
X188101999Y-62930000D01*
G75*
G02*
X187852000Y-62680001I0J249999D01*
G01*
G37*
G36*
G01*
X185852000Y-62680001D02*
X185852000Y-61779999D01*
G75*
G02*
X186101999Y-61530000I249999J0D01*
G01*
X186802001Y-61530000D01*
G75*
G02*
X187052000Y-61779999I0J-249999D01*
G01*
X187052000Y-62680001D01*
G75*
G02*
X186802001Y-62930000I-249999J0D01*
G01*
X186101999Y-62930000D01*
G75*
G02*
X185852000Y-62680001I0J249999D01*
G01*
G37*
G36*
G01*
X187852000Y-65220001D02*
X187852000Y-64319999D01*
G75*
G02*
X188101999Y-64070000I249999J0D01*
G01*
X188802001Y-64070000D01*
G75*
G02*
X189052000Y-64319999I0J-249999D01*
G01*
X189052000Y-65220001D01*
G75*
G02*
X188802001Y-65470000I-249999J0D01*
G01*
X188101999Y-65470000D01*
G75*
G02*
X187852000Y-65220001I0J249999D01*
G01*
G37*
G36*
G01*
X185852000Y-65220001D02*
X185852000Y-64319999D01*
G75*
G02*
X186101999Y-64070000I249999J0D01*
G01*
X186802001Y-64070000D01*
G75*
G02*
X187052000Y-64319999I0J-249999D01*
G01*
X187052000Y-65220001D01*
G75*
G02*
X186802001Y-65470000I-249999J0D01*
G01*
X186101999Y-65470000D01*
G75*
G02*
X185852000Y-65220001I0J249999D01*
G01*
G37*
G36*
G01*
X187852000Y-67760001D02*
X187852000Y-66859999D01*
G75*
G02*
X188101999Y-66610000I249999J0D01*
G01*
X188802001Y-66610000D01*
G75*
G02*
X189052000Y-66859999I0J-249999D01*
G01*
X189052000Y-67760001D01*
G75*
G02*
X188802001Y-68010000I-249999J0D01*
G01*
X188101999Y-68010000D01*
G75*
G02*
X187852000Y-67760001I0J249999D01*
G01*
G37*
G36*
G01*
X185852000Y-67760001D02*
X185852000Y-66859999D01*
G75*
G02*
X186101999Y-66610000I249999J0D01*
G01*
X186802001Y-66610000D01*
G75*
G02*
X187052000Y-66859999I0J-249999D01*
G01*
X187052000Y-67760001D01*
G75*
G02*
X186802001Y-68010000I-249999J0D01*
G01*
X186101999Y-68010000D01*
G75*
G02*
X185852000Y-67760001I0J249999D01*
G01*
G37*
G36*
G01*
X187852000Y-70173001D02*
X187852000Y-69272999D01*
G75*
G02*
X188101999Y-69023000I249999J0D01*
G01*
X188802001Y-69023000D01*
G75*
G02*
X189052000Y-69272999I0J-249999D01*
G01*
X189052000Y-70173001D01*
G75*
G02*
X188802001Y-70423000I-249999J0D01*
G01*
X188101999Y-70423000D01*
G75*
G02*
X187852000Y-70173001I0J249999D01*
G01*
G37*
G36*
G01*
X185852000Y-70173001D02*
X185852000Y-69272999D01*
G75*
G02*
X186101999Y-69023000I249999J0D01*
G01*
X186802001Y-69023000D01*
G75*
G02*
X187052000Y-69272999I0J-249999D01*
G01*
X187052000Y-70173001D01*
G75*
G02*
X186802001Y-70423000I-249999J0D01*
G01*
X186101999Y-70423000D01*
G75*
G02*
X185852000Y-70173001I0J249999D01*
G01*
G37*
D11*
G36*
X173370000Y-133108602D02*
G01*
X173394534Y-133108602D01*
X173443365Y-133113412D01*
X173491490Y-133122984D01*
X173538445Y-133137228D01*
X173583778Y-133156005D01*
X173627051Y-133179136D01*
X173667850Y-133206396D01*
X173705779Y-133237524D01*
X173740476Y-133272221D01*
X173771604Y-133310150D01*
X173798864Y-133350949D01*
X173821995Y-133394222D01*
X173840772Y-133439555D01*
X173855016Y-133486510D01*
X173864588Y-133534635D01*
X173869398Y-133583466D01*
X173869398Y-133608000D01*
X173870000Y-133608000D01*
X173870000Y-134108000D01*
X173869398Y-134108000D01*
X173869398Y-134132534D01*
X173864588Y-134181365D01*
X173855016Y-134229490D01*
X173840772Y-134276445D01*
X173821995Y-134321778D01*
X173798864Y-134365051D01*
X173771604Y-134405850D01*
X173740476Y-134443779D01*
X173705779Y-134478476D01*
X173667850Y-134509604D01*
X173627051Y-134536864D01*
X173583778Y-134559995D01*
X173538445Y-134578772D01*
X173491490Y-134593016D01*
X173443365Y-134602588D01*
X173394534Y-134607398D01*
X173370000Y-134607398D01*
X173370000Y-134608000D01*
X172870000Y-134608000D01*
X172870000Y-133108000D01*
X173370000Y-133108000D01*
X173370000Y-133108602D01*
G37*
G36*
X172570000Y-134608000D02*
G01*
X172070000Y-134608000D01*
X172070000Y-134607398D01*
X172045466Y-134607398D01*
X171996635Y-134602588D01*
X171948510Y-134593016D01*
X171901555Y-134578772D01*
X171856222Y-134559995D01*
X171812949Y-134536864D01*
X171772150Y-134509604D01*
X171734221Y-134478476D01*
X171699524Y-134443779D01*
X171668396Y-134405850D01*
X171641136Y-134365051D01*
X171618005Y-134321778D01*
X171599228Y-134276445D01*
X171584984Y-134229490D01*
X171575412Y-134181365D01*
X171570602Y-134132534D01*
X171570602Y-134108000D01*
X171570000Y-134108000D01*
X171570000Y-133608000D01*
X171570602Y-133608000D01*
X171570602Y-133583466D01*
X171575412Y-133534635D01*
X171584984Y-133486510D01*
X171599228Y-133439555D01*
X171618005Y-133394222D01*
X171641136Y-133350949D01*
X171668396Y-133310150D01*
X171699524Y-133272221D01*
X171734221Y-133237524D01*
X171772150Y-133206396D01*
X171812949Y-133179136D01*
X171856222Y-133156005D01*
X171901555Y-133137228D01*
X171948510Y-133122984D01*
X171996635Y-133113412D01*
X172045466Y-133108602D01*
X172070000Y-133108602D01*
X172070000Y-133108000D01*
X172570000Y-133108000D01*
X172570000Y-134608000D01*
G37*
D12*
X178435000Y-91440000D03*
X180975000Y-91440000D03*
X178435000Y-93980000D03*
X180975000Y-93980000D03*
X178435000Y-96520000D03*
D13*
X180975000Y-96520000D03*
G36*
G01*
X157896000Y-136213001D02*
X157896000Y-135312999D01*
G75*
G02*
X158145999Y-135063000I249999J0D01*
G01*
X158846001Y-135063000D01*
G75*
G02*
X159096000Y-135312999I0J-249999D01*
G01*
X159096000Y-136213001D01*
G75*
G02*
X158846001Y-136463000I-249999J0D01*
G01*
X158145999Y-136463000D01*
G75*
G02*
X157896000Y-136213001I0J249999D01*
G01*
G37*
G36*
G01*
X155896000Y-136213001D02*
X155896000Y-135312999D01*
G75*
G02*
X156145999Y-135063000I249999J0D01*
G01*
X156846001Y-135063000D01*
G75*
G02*
X157096000Y-135312999I0J-249999D01*
G01*
X157096000Y-136213001D01*
G75*
G02*
X156846001Y-136463000I-249999J0D01*
G01*
X156145999Y-136463000D01*
G75*
G02*
X155896000Y-136213001I0J249999D01*
G01*
G37*
G36*
G01*
X157896000Y-138118001D02*
X157896000Y-137217999D01*
G75*
G02*
X158145999Y-136968000I249999J0D01*
G01*
X158846001Y-136968000D01*
G75*
G02*
X159096000Y-137217999I0J-249999D01*
G01*
X159096000Y-138118001D01*
G75*
G02*
X158846001Y-138368000I-249999J0D01*
G01*
X158145999Y-138368000D01*
G75*
G02*
X157896000Y-138118001I0J249999D01*
G01*
G37*
G36*
G01*
X155896000Y-138118001D02*
X155896000Y-137217999D01*
G75*
G02*
X156145999Y-136968000I249999J0D01*
G01*
X156846001Y-136968000D01*
G75*
G02*
X157096000Y-137217999I0J-249999D01*
G01*
X157096000Y-138118001D01*
G75*
G02*
X156846001Y-138368000I-249999J0D01*
G01*
X156145999Y-138368000D01*
G75*
G02*
X155896000Y-138118001I0J249999D01*
G01*
G37*
G36*
G01*
X160204999Y-137179000D02*
X161105001Y-137179000D01*
G75*
G02*
X161355000Y-137428999I0J-249999D01*
G01*
X161355000Y-138129001D01*
G75*
G02*
X161105001Y-138379000I-249999J0D01*
G01*
X160204999Y-138379000D01*
G75*
G02*
X159955000Y-138129001I0J249999D01*
G01*
X159955000Y-137428999D01*
G75*
G02*
X160204999Y-137179000I249999J0D01*
G01*
G37*
G36*
G01*
X160204999Y-135179000D02*
X161105001Y-135179000D01*
G75*
G02*
X161355000Y-135428999I0J-249999D01*
G01*
X161355000Y-136129001D01*
G75*
G02*
X161105001Y-136379000I-249999J0D01*
G01*
X160204999Y-136379000D01*
G75*
G02*
X159955000Y-136129001I0J249999D01*
G01*
X159955000Y-135428999D01*
G75*
G02*
X160204999Y-135179000I249999J0D01*
G01*
G37*
D11*
G36*
X156464000Y-132346602D02*
G01*
X156488534Y-132346602D01*
X156537365Y-132351412D01*
X156585490Y-132360984D01*
X156632445Y-132375228D01*
X156677778Y-132394005D01*
X156721051Y-132417136D01*
X156761850Y-132444396D01*
X156799779Y-132475524D01*
X156834476Y-132510221D01*
X156865604Y-132548150D01*
X156892864Y-132588949D01*
X156915995Y-132632222D01*
X156934772Y-132677555D01*
X156949016Y-132724510D01*
X156958588Y-132772635D01*
X156963398Y-132821466D01*
X156963398Y-132846000D01*
X156964000Y-132846000D01*
X156964000Y-133346000D01*
X156963398Y-133346000D01*
X156963398Y-133370534D01*
X156958588Y-133419365D01*
X156949016Y-133467490D01*
X156934772Y-133514445D01*
X156915995Y-133559778D01*
X156892864Y-133603051D01*
X156865604Y-133643850D01*
X156834476Y-133681779D01*
X156799779Y-133716476D01*
X156761850Y-133747604D01*
X156721051Y-133774864D01*
X156677778Y-133797995D01*
X156632445Y-133816772D01*
X156585490Y-133831016D01*
X156537365Y-133840588D01*
X156488534Y-133845398D01*
X156464000Y-133845398D01*
X156464000Y-133846000D01*
X155964000Y-133846000D01*
X155964000Y-132346000D01*
X156464000Y-132346000D01*
X156464000Y-132346602D01*
G37*
G36*
X155664000Y-133846000D02*
G01*
X155164000Y-133846000D01*
X155164000Y-133845398D01*
X155139466Y-133845398D01*
X155090635Y-133840588D01*
X155042510Y-133831016D01*
X154995555Y-133816772D01*
X154950222Y-133797995D01*
X154906949Y-133774864D01*
X154866150Y-133747604D01*
X154828221Y-133716476D01*
X154793524Y-133681779D01*
X154762396Y-133643850D01*
X154735136Y-133603051D01*
X154712005Y-133559778D01*
X154693228Y-133514445D01*
X154678984Y-133467490D01*
X154669412Y-133419365D01*
X154664602Y-133370534D01*
X154664602Y-133346000D01*
X154664000Y-133346000D01*
X154664000Y-132846000D01*
X154664602Y-132846000D01*
X154664602Y-132821466D01*
X154669412Y-132772635D01*
X154678984Y-132724510D01*
X154693228Y-132677555D01*
X154712005Y-132632222D01*
X154735136Y-132588949D01*
X154762396Y-132548150D01*
X154793524Y-132510221D01*
X154828221Y-132475524D01*
X154866150Y-132444396D01*
X154906949Y-132417136D01*
X154950222Y-132394005D01*
X154995555Y-132375228D01*
X155042510Y-132360984D01*
X155090635Y-132351412D01*
X155139466Y-132346602D01*
X155164000Y-132346602D01*
X155164000Y-132346000D01*
X155664000Y-132346000D01*
X155664000Y-133846000D01*
G37*
D14*
X163703000Y-138938000D03*
X163703000Y-133858000D03*
X168783000Y-133858000D03*
X168783000Y-138938000D03*
D15*
X166243000Y-136398000D03*
D16*
X199470000Y-139700000D03*
D17*
X204470000Y-139700000D03*
D18*
X152995000Y-58420000D03*
D19*
X150495000Y-58420000D03*
D20*
X93980000Y-127635000D03*
D21*
X93980000Y-130175000D03*
D20*
X93980000Y-69215000D03*
D21*
X93980000Y-71755000D03*
D20*
X93980000Y-55245000D03*
D21*
X93980000Y-57785000D03*
D22*
X210058000Y-132080000D03*
X213868000Y-58166000D03*
X177038000Y-60833000D03*
X146558000Y-55880000D03*
D12*
X165735000Y-68580000D03*
X165735000Y-71120000D03*
X168275000Y-68580000D03*
X168275000Y-71120000D03*
X170815000Y-68580000D03*
X170815000Y-71120000D03*
X173355000Y-68580000D03*
X173355000Y-71120000D03*
X175895000Y-68580000D03*
X175895000Y-71120000D03*
X178435000Y-68580000D03*
D13*
X178435000Y-71120000D03*
G36*
G01*
X201110000Y-71270000D02*
X201110000Y-70970000D01*
G75*
G02*
X201260000Y-70820000I150000J0D01*
G01*
X203010000Y-70820000D01*
G75*
G02*
X203160000Y-70970000I0J-150000D01*
G01*
X203160000Y-71270000D01*
G75*
G02*
X203010000Y-71420000I-150000J0D01*
G01*
X201260000Y-71420000D01*
G75*
G02*
X201110000Y-71270000I0J150000D01*
G01*
G37*
G36*
G01*
X201110000Y-70000000D02*
X201110000Y-69700000D01*
G75*
G02*
X201260000Y-69550000I150000J0D01*
G01*
X203010000Y-69550000D01*
G75*
G02*
X203160000Y-69700000I0J-150000D01*
G01*
X203160000Y-70000000D01*
G75*
G02*
X203010000Y-70150000I-150000J0D01*
G01*
X201260000Y-70150000D01*
G75*
G02*
X201110000Y-70000000I0J150000D01*
G01*
G37*
G36*
G01*
X201110000Y-68730000D02*
X201110000Y-68430000D01*
G75*
G02*
X201260000Y-68280000I150000J0D01*
G01*
X203010000Y-68280000D01*
G75*
G02*
X203160000Y-68430000I0J-150000D01*
G01*
X203160000Y-68730000D01*
G75*
G02*
X203010000Y-68880000I-150000J0D01*
G01*
X201260000Y-68880000D01*
G75*
G02*
X201110000Y-68730000I0J150000D01*
G01*
G37*
G36*
G01*
X201110000Y-67460000D02*
X201110000Y-67160000D01*
G75*
G02*
X201260000Y-67010000I150000J0D01*
G01*
X203010000Y-67010000D01*
G75*
G02*
X203160000Y-67160000I0J-150000D01*
G01*
X203160000Y-67460000D01*
G75*
G02*
X203010000Y-67610000I-150000J0D01*
G01*
X201260000Y-67610000D01*
G75*
G02*
X201110000Y-67460000I0J150000D01*
G01*
G37*
G36*
G01*
X201110000Y-66190000D02*
X201110000Y-65890000D01*
G75*
G02*
X201260000Y-65740000I150000J0D01*
G01*
X203010000Y-65740000D01*
G75*
G02*
X203160000Y-65890000I0J-150000D01*
G01*
X203160000Y-66190000D01*
G75*
G02*
X203010000Y-66340000I-150000J0D01*
G01*
X201260000Y-66340000D01*
G75*
G02*
X201110000Y-66190000I0J150000D01*
G01*
G37*
G36*
G01*
X201110000Y-64920000D02*
X201110000Y-64620000D01*
G75*
G02*
X201260000Y-64470000I150000J0D01*
G01*
X203010000Y-64470000D01*
G75*
G02*
X203160000Y-64620000I0J-150000D01*
G01*
X203160000Y-64920000D01*
G75*
G02*
X203010000Y-65070000I-150000J0D01*
G01*
X201260000Y-65070000D01*
G75*
G02*
X201110000Y-64920000I0J150000D01*
G01*
G37*
G36*
G01*
X201110000Y-63650000D02*
X201110000Y-63350000D01*
G75*
G02*
X201260000Y-63200000I150000J0D01*
G01*
X203010000Y-63200000D01*
G75*
G02*
X203160000Y-63350000I0J-150000D01*
G01*
X203160000Y-63650000D01*
G75*
G02*
X203010000Y-63800000I-150000J0D01*
G01*
X201260000Y-63800000D01*
G75*
G02*
X201110000Y-63650000I0J150000D01*
G01*
G37*
G36*
G01*
X201110000Y-62380000D02*
X201110000Y-62080000D01*
G75*
G02*
X201260000Y-61930000I150000J0D01*
G01*
X203010000Y-61930000D01*
G75*
G02*
X203160000Y-62080000I0J-150000D01*
G01*
X203160000Y-62380000D01*
G75*
G02*
X203010000Y-62530000I-150000J0D01*
G01*
X201260000Y-62530000D01*
G75*
G02*
X201110000Y-62380000I0J150000D01*
G01*
G37*
G36*
G01*
X201110000Y-61110000D02*
X201110000Y-60810000D01*
G75*
G02*
X201260000Y-60660000I150000J0D01*
G01*
X203010000Y-60660000D01*
G75*
G02*
X203160000Y-60810000I0J-150000D01*
G01*
X203160000Y-61110000D01*
G75*
G02*
X203010000Y-61260000I-150000J0D01*
G01*
X201260000Y-61260000D01*
G75*
G02*
X201110000Y-61110000I0J150000D01*
G01*
G37*
G36*
G01*
X201110000Y-59840000D02*
X201110000Y-59540000D01*
G75*
G02*
X201260000Y-59390000I150000J0D01*
G01*
X203010000Y-59390000D01*
G75*
G02*
X203160000Y-59540000I0J-150000D01*
G01*
X203160000Y-59840000D01*
G75*
G02*
X203010000Y-59990000I-150000J0D01*
G01*
X201260000Y-59990000D01*
G75*
G02*
X201110000Y-59840000I0J150000D01*
G01*
G37*
G36*
G01*
X191810000Y-59840000D02*
X191810000Y-59540000D01*
G75*
G02*
X191960000Y-59390000I150000J0D01*
G01*
X193710000Y-59390000D01*
G75*
G02*
X193860000Y-59540000I0J-150000D01*
G01*
X193860000Y-59840000D01*
G75*
G02*
X193710000Y-59990000I-150000J0D01*
G01*
X191960000Y-59990000D01*
G75*
G02*
X191810000Y-59840000I0J150000D01*
G01*
G37*
G36*
G01*
X191810000Y-61110000D02*
X191810000Y-60810000D01*
G75*
G02*
X191960000Y-60660000I150000J0D01*
G01*
X193710000Y-60660000D01*
G75*
G02*
X193860000Y-60810000I0J-150000D01*
G01*
X193860000Y-61110000D01*
G75*
G02*
X193710000Y-61260000I-150000J0D01*
G01*
X191960000Y-61260000D01*
G75*
G02*
X191810000Y-61110000I0J150000D01*
G01*
G37*
G36*
G01*
X191810000Y-62380000D02*
X191810000Y-62080000D01*
G75*
G02*
X191960000Y-61930000I150000J0D01*
G01*
X193710000Y-61930000D01*
G75*
G02*
X193860000Y-62080000I0J-150000D01*
G01*
X193860000Y-62380000D01*
G75*
G02*
X193710000Y-62530000I-150000J0D01*
G01*
X191960000Y-62530000D01*
G75*
G02*
X191810000Y-62380000I0J150000D01*
G01*
G37*
G36*
G01*
X191810000Y-63650000D02*
X191810000Y-63350000D01*
G75*
G02*
X191960000Y-63200000I150000J0D01*
G01*
X193710000Y-63200000D01*
G75*
G02*
X193860000Y-63350000I0J-150000D01*
G01*
X193860000Y-63650000D01*
G75*
G02*
X193710000Y-63800000I-150000J0D01*
G01*
X191960000Y-63800000D01*
G75*
G02*
X191810000Y-63650000I0J150000D01*
G01*
G37*
G36*
G01*
X191810000Y-64920000D02*
X191810000Y-64620000D01*
G75*
G02*
X191960000Y-64470000I150000J0D01*
G01*
X193710000Y-64470000D01*
G75*
G02*
X193860000Y-64620000I0J-150000D01*
G01*
X193860000Y-64920000D01*
G75*
G02*
X193710000Y-65070000I-150000J0D01*
G01*
X191960000Y-65070000D01*
G75*
G02*
X191810000Y-64920000I0J150000D01*
G01*
G37*
G36*
G01*
X191810000Y-66190000D02*
X191810000Y-65890000D01*
G75*
G02*
X191960000Y-65740000I150000J0D01*
G01*
X193710000Y-65740000D01*
G75*
G02*
X193860000Y-65890000I0J-150000D01*
G01*
X193860000Y-66190000D01*
G75*
G02*
X193710000Y-66340000I-150000J0D01*
G01*
X191960000Y-66340000D01*
G75*
G02*
X191810000Y-66190000I0J150000D01*
G01*
G37*
G36*
G01*
X191810000Y-67460000D02*
X191810000Y-67160000D01*
G75*
G02*
X191960000Y-67010000I150000J0D01*
G01*
X193710000Y-67010000D01*
G75*
G02*
X193860000Y-67160000I0J-150000D01*
G01*
X193860000Y-67460000D01*
G75*
G02*
X193710000Y-67610000I-150000J0D01*
G01*
X191960000Y-67610000D01*
G75*
G02*
X191810000Y-67460000I0J150000D01*
G01*
G37*
G36*
G01*
X191810000Y-68730000D02*
X191810000Y-68430000D01*
G75*
G02*
X191960000Y-68280000I150000J0D01*
G01*
X193710000Y-68280000D01*
G75*
G02*
X193860000Y-68430000I0J-150000D01*
G01*
X193860000Y-68730000D01*
G75*
G02*
X193710000Y-68880000I-150000J0D01*
G01*
X191960000Y-68880000D01*
G75*
G02*
X191810000Y-68730000I0J150000D01*
G01*
G37*
G36*
G01*
X191810000Y-70000000D02*
X191810000Y-69700000D01*
G75*
G02*
X191960000Y-69550000I150000J0D01*
G01*
X193710000Y-69550000D01*
G75*
G02*
X193860000Y-69700000I0J-150000D01*
G01*
X193860000Y-70000000D01*
G75*
G02*
X193710000Y-70150000I-150000J0D01*
G01*
X191960000Y-70150000D01*
G75*
G02*
X191810000Y-70000000I0J150000D01*
G01*
G37*
G36*
G01*
X191810000Y-71270000D02*
X191810000Y-70970000D01*
G75*
G02*
X191960000Y-70820000I150000J0D01*
G01*
X193710000Y-70820000D01*
G75*
G02*
X193860000Y-70970000I0J-150000D01*
G01*
X193860000Y-71270000D01*
G75*
G02*
X193710000Y-71420000I-150000J0D01*
G01*
X191960000Y-71420000D01*
G75*
G02*
X191810000Y-71270000I0J150000D01*
G01*
G37*
G36*
G01*
X219115000Y-108735000D02*
X219115000Y-108435000D01*
G75*
G02*
X219265000Y-108285000I150000J0D01*
G01*
X221015000Y-108285000D01*
G75*
G02*
X221165000Y-108435000I0J-150000D01*
G01*
X221165000Y-108735000D01*
G75*
G02*
X221015000Y-108885000I-150000J0D01*
G01*
X219265000Y-108885000D01*
G75*
G02*
X219115000Y-108735000I0J150000D01*
G01*
G37*
G36*
G01*
X219115000Y-107465000D02*
X219115000Y-107165000D01*
G75*
G02*
X219265000Y-107015000I150000J0D01*
G01*
X221015000Y-107015000D01*
G75*
G02*
X221165000Y-107165000I0J-150000D01*
G01*
X221165000Y-107465000D01*
G75*
G02*
X221015000Y-107615000I-150000J0D01*
G01*
X219265000Y-107615000D01*
G75*
G02*
X219115000Y-107465000I0J150000D01*
G01*
G37*
G36*
G01*
X219115000Y-106195000D02*
X219115000Y-105895000D01*
G75*
G02*
X219265000Y-105745000I150000J0D01*
G01*
X221015000Y-105745000D01*
G75*
G02*
X221165000Y-105895000I0J-150000D01*
G01*
X221165000Y-106195000D01*
G75*
G02*
X221015000Y-106345000I-150000J0D01*
G01*
X219265000Y-106345000D01*
G75*
G02*
X219115000Y-106195000I0J150000D01*
G01*
G37*
G36*
G01*
X219115000Y-104925000D02*
X219115000Y-104625000D01*
G75*
G02*
X219265000Y-104475000I150000J0D01*
G01*
X221015000Y-104475000D01*
G75*
G02*
X221165000Y-104625000I0J-150000D01*
G01*
X221165000Y-104925000D01*
G75*
G02*
X221015000Y-105075000I-150000J0D01*
G01*
X219265000Y-105075000D01*
G75*
G02*
X219115000Y-104925000I0J150000D01*
G01*
G37*
G36*
G01*
X219115000Y-103655000D02*
X219115000Y-103355000D01*
G75*
G02*
X219265000Y-103205000I150000J0D01*
G01*
X221015000Y-103205000D01*
G75*
G02*
X221165000Y-103355000I0J-150000D01*
G01*
X221165000Y-103655000D01*
G75*
G02*
X221015000Y-103805000I-150000J0D01*
G01*
X219265000Y-103805000D01*
G75*
G02*
X219115000Y-103655000I0J150000D01*
G01*
G37*
G36*
G01*
X219115000Y-102385000D02*
X219115000Y-102085000D01*
G75*
G02*
X219265000Y-101935000I150000J0D01*
G01*
X221015000Y-101935000D01*
G75*
G02*
X221165000Y-102085000I0J-150000D01*
G01*
X221165000Y-102385000D01*
G75*
G02*
X221015000Y-102535000I-150000J0D01*
G01*
X219265000Y-102535000D01*
G75*
G02*
X219115000Y-102385000I0J150000D01*
G01*
G37*
G36*
G01*
X219115000Y-101115000D02*
X219115000Y-100815000D01*
G75*
G02*
X219265000Y-100665000I150000J0D01*
G01*
X221015000Y-100665000D01*
G75*
G02*
X221165000Y-100815000I0J-150000D01*
G01*
X221165000Y-101115000D01*
G75*
G02*
X221015000Y-101265000I-150000J0D01*
G01*
X219265000Y-101265000D01*
G75*
G02*
X219115000Y-101115000I0J150000D01*
G01*
G37*
G36*
G01*
X219115000Y-99845000D02*
X219115000Y-99545000D01*
G75*
G02*
X219265000Y-99395000I150000J0D01*
G01*
X221015000Y-99395000D01*
G75*
G02*
X221165000Y-99545000I0J-150000D01*
G01*
X221165000Y-99845000D01*
G75*
G02*
X221015000Y-99995000I-150000J0D01*
G01*
X219265000Y-99995000D01*
G75*
G02*
X219115000Y-99845000I0J150000D01*
G01*
G37*
G36*
G01*
X219115000Y-98575000D02*
X219115000Y-98275000D01*
G75*
G02*
X219265000Y-98125000I150000J0D01*
G01*
X221015000Y-98125000D01*
G75*
G02*
X221165000Y-98275000I0J-150000D01*
G01*
X221165000Y-98575000D01*
G75*
G02*
X221015000Y-98725000I-150000J0D01*
G01*
X219265000Y-98725000D01*
G75*
G02*
X219115000Y-98575000I0J150000D01*
G01*
G37*
G36*
G01*
X219115000Y-97305000D02*
X219115000Y-97005000D01*
G75*
G02*
X219265000Y-96855000I150000J0D01*
G01*
X221015000Y-96855000D01*
G75*
G02*
X221165000Y-97005000I0J-150000D01*
G01*
X221165000Y-97305000D01*
G75*
G02*
X221015000Y-97455000I-150000J0D01*
G01*
X219265000Y-97455000D01*
G75*
G02*
X219115000Y-97305000I0J150000D01*
G01*
G37*
G36*
G01*
X228415000Y-97305000D02*
X228415000Y-97005000D01*
G75*
G02*
X228565000Y-96855000I150000J0D01*
G01*
X230315000Y-96855000D01*
G75*
G02*
X230465000Y-97005000I0J-150000D01*
G01*
X230465000Y-97305000D01*
G75*
G02*
X230315000Y-97455000I-150000J0D01*
G01*
X228565000Y-97455000D01*
G75*
G02*
X228415000Y-97305000I0J150000D01*
G01*
G37*
G36*
G01*
X228415000Y-98575000D02*
X228415000Y-98275000D01*
G75*
G02*
X228565000Y-98125000I150000J0D01*
G01*
X230315000Y-98125000D01*
G75*
G02*
X230465000Y-98275000I0J-150000D01*
G01*
X230465000Y-98575000D01*
G75*
G02*
X230315000Y-98725000I-150000J0D01*
G01*
X228565000Y-98725000D01*
G75*
G02*
X228415000Y-98575000I0J150000D01*
G01*
G37*
G36*
G01*
X228415000Y-99845000D02*
X228415000Y-99545000D01*
G75*
G02*
X228565000Y-99395000I150000J0D01*
G01*
X230315000Y-99395000D01*
G75*
G02*
X230465000Y-99545000I0J-150000D01*
G01*
X230465000Y-99845000D01*
G75*
G02*
X230315000Y-99995000I-150000J0D01*
G01*
X228565000Y-99995000D01*
G75*
G02*
X228415000Y-99845000I0J150000D01*
G01*
G37*
G36*
G01*
X228415000Y-101115000D02*
X228415000Y-100815000D01*
G75*
G02*
X228565000Y-100665000I150000J0D01*
G01*
X230315000Y-100665000D01*
G75*
G02*
X230465000Y-100815000I0J-150000D01*
G01*
X230465000Y-101115000D01*
G75*
G02*
X230315000Y-101265000I-150000J0D01*
G01*
X228565000Y-101265000D01*
G75*
G02*
X228415000Y-101115000I0J150000D01*
G01*
G37*
G36*
G01*
X228415000Y-102385000D02*
X228415000Y-102085000D01*
G75*
G02*
X228565000Y-101935000I150000J0D01*
G01*
X230315000Y-101935000D01*
G75*
G02*
X230465000Y-102085000I0J-150000D01*
G01*
X230465000Y-102385000D01*
G75*
G02*
X230315000Y-102535000I-150000J0D01*
G01*
X228565000Y-102535000D01*
G75*
G02*
X228415000Y-102385000I0J150000D01*
G01*
G37*
G36*
G01*
X228415000Y-103655000D02*
X228415000Y-103355000D01*
G75*
G02*
X228565000Y-103205000I150000J0D01*
G01*
X230315000Y-103205000D01*
G75*
G02*
X230465000Y-103355000I0J-150000D01*
G01*
X230465000Y-103655000D01*
G75*
G02*
X230315000Y-103805000I-150000J0D01*
G01*
X228565000Y-103805000D01*
G75*
G02*
X228415000Y-103655000I0J150000D01*
G01*
G37*
G36*
G01*
X228415000Y-104925000D02*
X228415000Y-104625000D01*
G75*
G02*
X228565000Y-104475000I150000J0D01*
G01*
X230315000Y-104475000D01*
G75*
G02*
X230465000Y-104625000I0J-150000D01*
G01*
X230465000Y-104925000D01*
G75*
G02*
X230315000Y-105075000I-150000J0D01*
G01*
X228565000Y-105075000D01*
G75*
G02*
X228415000Y-104925000I0J150000D01*
G01*
G37*
G36*
G01*
X228415000Y-106195000D02*
X228415000Y-105895000D01*
G75*
G02*
X228565000Y-105745000I150000J0D01*
G01*
X230315000Y-105745000D01*
G75*
G02*
X230465000Y-105895000I0J-150000D01*
G01*
X230465000Y-106195000D01*
G75*
G02*
X230315000Y-106345000I-150000J0D01*
G01*
X228565000Y-106345000D01*
G75*
G02*
X228415000Y-106195000I0J150000D01*
G01*
G37*
G36*
G01*
X228415000Y-107465000D02*
X228415000Y-107165000D01*
G75*
G02*
X228565000Y-107015000I150000J0D01*
G01*
X230315000Y-107015000D01*
G75*
G02*
X230465000Y-107165000I0J-150000D01*
G01*
X230465000Y-107465000D01*
G75*
G02*
X230315000Y-107615000I-150000J0D01*
G01*
X228565000Y-107615000D01*
G75*
G02*
X228415000Y-107465000I0J150000D01*
G01*
G37*
G36*
G01*
X228415000Y-108735000D02*
X228415000Y-108435000D01*
G75*
G02*
X228565000Y-108285000I150000J0D01*
G01*
X230315000Y-108285000D01*
G75*
G02*
X230465000Y-108435000I0J-150000D01*
G01*
X230465000Y-108735000D01*
G75*
G02*
X230315000Y-108885000I-150000J0D01*
G01*
X228565000Y-108885000D01*
G75*
G02*
X228415000Y-108735000I0J150000D01*
G01*
G37*
G36*
G01*
X219115000Y-130325000D02*
X219115000Y-130025000D01*
G75*
G02*
X219265000Y-129875000I150000J0D01*
G01*
X221015000Y-129875000D01*
G75*
G02*
X221165000Y-130025000I0J-150000D01*
G01*
X221165000Y-130325000D01*
G75*
G02*
X221015000Y-130475000I-150000J0D01*
G01*
X219265000Y-130475000D01*
G75*
G02*
X219115000Y-130325000I0J150000D01*
G01*
G37*
G36*
G01*
X219115000Y-129055000D02*
X219115000Y-128755000D01*
G75*
G02*
X219265000Y-128605000I150000J0D01*
G01*
X221015000Y-128605000D01*
G75*
G02*
X221165000Y-128755000I0J-150000D01*
G01*
X221165000Y-129055000D01*
G75*
G02*
X221015000Y-129205000I-150000J0D01*
G01*
X219265000Y-129205000D01*
G75*
G02*
X219115000Y-129055000I0J150000D01*
G01*
G37*
G36*
G01*
X219115000Y-127785000D02*
X219115000Y-127485000D01*
G75*
G02*
X219265000Y-127335000I150000J0D01*
G01*
X221015000Y-127335000D01*
G75*
G02*
X221165000Y-127485000I0J-150000D01*
G01*
X221165000Y-127785000D01*
G75*
G02*
X221015000Y-127935000I-150000J0D01*
G01*
X219265000Y-127935000D01*
G75*
G02*
X219115000Y-127785000I0J150000D01*
G01*
G37*
G36*
G01*
X219115000Y-126515000D02*
X219115000Y-126215000D01*
G75*
G02*
X219265000Y-126065000I150000J0D01*
G01*
X221015000Y-126065000D01*
G75*
G02*
X221165000Y-126215000I0J-150000D01*
G01*
X221165000Y-126515000D01*
G75*
G02*
X221015000Y-126665000I-150000J0D01*
G01*
X219265000Y-126665000D01*
G75*
G02*
X219115000Y-126515000I0J150000D01*
G01*
G37*
G36*
G01*
X219115000Y-125245000D02*
X219115000Y-124945000D01*
G75*
G02*
X219265000Y-124795000I150000J0D01*
G01*
X221015000Y-124795000D01*
G75*
G02*
X221165000Y-124945000I0J-150000D01*
G01*
X221165000Y-125245000D01*
G75*
G02*
X221015000Y-125395000I-150000J0D01*
G01*
X219265000Y-125395000D01*
G75*
G02*
X219115000Y-125245000I0J150000D01*
G01*
G37*
G36*
G01*
X219115000Y-123975000D02*
X219115000Y-123675000D01*
G75*
G02*
X219265000Y-123525000I150000J0D01*
G01*
X221015000Y-123525000D01*
G75*
G02*
X221165000Y-123675000I0J-150000D01*
G01*
X221165000Y-123975000D01*
G75*
G02*
X221015000Y-124125000I-150000J0D01*
G01*
X219265000Y-124125000D01*
G75*
G02*
X219115000Y-123975000I0J150000D01*
G01*
G37*
G36*
G01*
X219115000Y-122705000D02*
X219115000Y-122405000D01*
G75*
G02*
X219265000Y-122255000I150000J0D01*
G01*
X221015000Y-122255000D01*
G75*
G02*
X221165000Y-122405000I0J-150000D01*
G01*
X221165000Y-122705000D01*
G75*
G02*
X221015000Y-122855000I-150000J0D01*
G01*
X219265000Y-122855000D01*
G75*
G02*
X219115000Y-122705000I0J150000D01*
G01*
G37*
G36*
G01*
X219115000Y-121435000D02*
X219115000Y-121135000D01*
G75*
G02*
X219265000Y-120985000I150000J0D01*
G01*
X221015000Y-120985000D01*
G75*
G02*
X221165000Y-121135000I0J-150000D01*
G01*
X221165000Y-121435000D01*
G75*
G02*
X221015000Y-121585000I-150000J0D01*
G01*
X219265000Y-121585000D01*
G75*
G02*
X219115000Y-121435000I0J150000D01*
G01*
G37*
G36*
G01*
X219115000Y-120165000D02*
X219115000Y-119865000D01*
G75*
G02*
X219265000Y-119715000I150000J0D01*
G01*
X221015000Y-119715000D01*
G75*
G02*
X221165000Y-119865000I0J-150000D01*
G01*
X221165000Y-120165000D01*
G75*
G02*
X221015000Y-120315000I-150000J0D01*
G01*
X219265000Y-120315000D01*
G75*
G02*
X219115000Y-120165000I0J150000D01*
G01*
G37*
G36*
G01*
X219115000Y-118895000D02*
X219115000Y-118595000D01*
G75*
G02*
X219265000Y-118445000I150000J0D01*
G01*
X221015000Y-118445000D01*
G75*
G02*
X221165000Y-118595000I0J-150000D01*
G01*
X221165000Y-118895000D01*
G75*
G02*
X221015000Y-119045000I-150000J0D01*
G01*
X219265000Y-119045000D01*
G75*
G02*
X219115000Y-118895000I0J150000D01*
G01*
G37*
G36*
G01*
X228415000Y-118895000D02*
X228415000Y-118595000D01*
G75*
G02*
X228565000Y-118445000I150000J0D01*
G01*
X230315000Y-118445000D01*
G75*
G02*
X230465000Y-118595000I0J-150000D01*
G01*
X230465000Y-118895000D01*
G75*
G02*
X230315000Y-119045000I-150000J0D01*
G01*
X228565000Y-119045000D01*
G75*
G02*
X228415000Y-118895000I0J150000D01*
G01*
G37*
G36*
G01*
X228415000Y-120165000D02*
X228415000Y-119865000D01*
G75*
G02*
X228565000Y-119715000I150000J0D01*
G01*
X230315000Y-119715000D01*
G75*
G02*
X230465000Y-119865000I0J-150000D01*
G01*
X230465000Y-120165000D01*
G75*
G02*
X230315000Y-120315000I-150000J0D01*
G01*
X228565000Y-120315000D01*
G75*
G02*
X228415000Y-120165000I0J150000D01*
G01*
G37*
G36*
G01*
X228415000Y-121435000D02*
X228415000Y-121135000D01*
G75*
G02*
X228565000Y-120985000I150000J0D01*
G01*
X230315000Y-120985000D01*
G75*
G02*
X230465000Y-121135000I0J-150000D01*
G01*
X230465000Y-121435000D01*
G75*
G02*
X230315000Y-121585000I-150000J0D01*
G01*
X228565000Y-121585000D01*
G75*
G02*
X228415000Y-121435000I0J150000D01*
G01*
G37*
G36*
G01*
X228415000Y-122705000D02*
X228415000Y-122405000D01*
G75*
G02*
X228565000Y-122255000I150000J0D01*
G01*
X230315000Y-122255000D01*
G75*
G02*
X230465000Y-122405000I0J-150000D01*
G01*
X230465000Y-122705000D01*
G75*
G02*
X230315000Y-122855000I-150000J0D01*
G01*
X228565000Y-122855000D01*
G75*
G02*
X228415000Y-122705000I0J150000D01*
G01*
G37*
G36*
G01*
X228415000Y-123975000D02*
X228415000Y-123675000D01*
G75*
G02*
X228565000Y-123525000I150000J0D01*
G01*
X230315000Y-123525000D01*
G75*
G02*
X230465000Y-123675000I0J-150000D01*
G01*
X230465000Y-123975000D01*
G75*
G02*
X230315000Y-124125000I-150000J0D01*
G01*
X228565000Y-124125000D01*
G75*
G02*
X228415000Y-123975000I0J150000D01*
G01*
G37*
G36*
G01*
X228415000Y-125245000D02*
X228415000Y-124945000D01*
G75*
G02*
X228565000Y-124795000I150000J0D01*
G01*
X230315000Y-124795000D01*
G75*
G02*
X230465000Y-124945000I0J-150000D01*
G01*
X230465000Y-125245000D01*
G75*
G02*
X230315000Y-125395000I-150000J0D01*
G01*
X228565000Y-125395000D01*
G75*
G02*
X228415000Y-125245000I0J150000D01*
G01*
G37*
G36*
G01*
X228415000Y-126515000D02*
X228415000Y-126215000D01*
G75*
G02*
X228565000Y-126065000I150000J0D01*
G01*
X230315000Y-126065000D01*
G75*
G02*
X230465000Y-126215000I0J-150000D01*
G01*
X230465000Y-126515000D01*
G75*
G02*
X230315000Y-126665000I-150000J0D01*
G01*
X228565000Y-126665000D01*
G75*
G02*
X228415000Y-126515000I0J150000D01*
G01*
G37*
G36*
G01*
X228415000Y-127785000D02*
X228415000Y-127485000D01*
G75*
G02*
X228565000Y-127335000I150000J0D01*
G01*
X230315000Y-127335000D01*
G75*
G02*
X230465000Y-127485000I0J-150000D01*
G01*
X230465000Y-127785000D01*
G75*
G02*
X230315000Y-127935000I-150000J0D01*
G01*
X228565000Y-127935000D01*
G75*
G02*
X228415000Y-127785000I0J150000D01*
G01*
G37*
G36*
G01*
X228415000Y-129055000D02*
X228415000Y-128755000D01*
G75*
G02*
X228565000Y-128605000I150000J0D01*
G01*
X230315000Y-128605000D01*
G75*
G02*
X230465000Y-128755000I0J-150000D01*
G01*
X230465000Y-129055000D01*
G75*
G02*
X230315000Y-129205000I-150000J0D01*
G01*
X228565000Y-129205000D01*
G75*
G02*
X228415000Y-129055000I0J150000D01*
G01*
G37*
G36*
G01*
X228415000Y-130325000D02*
X228415000Y-130025000D01*
G75*
G02*
X228565000Y-129875000I150000J0D01*
G01*
X230315000Y-129875000D01*
G75*
G02*
X230465000Y-130025000I0J-150000D01*
G01*
X230465000Y-130325000D01*
G75*
G02*
X230315000Y-130475000I-150000J0D01*
G01*
X228565000Y-130475000D01*
G75*
G02*
X228415000Y-130325000I0J150000D01*
G01*
G37*
X185166000Y-96520000D03*
D12*
X185166000Y-93980000D03*
X185166000Y-91440000D03*
G36*
G01*
X231235000Y-138560400D02*
X231235000Y-140839600D01*
G75*
G02*
X230974600Y-141100000I-260400J0D01*
G01*
X228695400Y-141100000D01*
G75*
G02*
X228435000Y-140839600I0J260400D01*
G01*
X228435000Y-138560400D01*
G75*
G02*
X228695400Y-138300000I260400J0D01*
G01*
X230974600Y-138300000D01*
G75*
G02*
X231235000Y-138560400I0J-260400D01*
G01*
G37*
D23*
X225875000Y-139700000D03*
X221915000Y-139700000D03*
X217955000Y-139700000D03*
X213995000Y-139700000D03*
D24*
X92075000Y-132715000D03*
X92075000Y-139065000D03*
X92075000Y-125095000D03*
X92075000Y-118745000D03*
D11*
G36*
X194848000Y-134886602D02*
G01*
X194872534Y-134886602D01*
X194921365Y-134891412D01*
X194969490Y-134900984D01*
X195016445Y-134915228D01*
X195061778Y-134934005D01*
X195105051Y-134957136D01*
X195145850Y-134984396D01*
X195183779Y-135015524D01*
X195218476Y-135050221D01*
X195249604Y-135088150D01*
X195276864Y-135128949D01*
X195299995Y-135172222D01*
X195318772Y-135217555D01*
X195333016Y-135264510D01*
X195342588Y-135312635D01*
X195347398Y-135361466D01*
X195347398Y-135386000D01*
X195348000Y-135386000D01*
X195348000Y-135886000D01*
X195347398Y-135886000D01*
X195347398Y-135910534D01*
X195342588Y-135959365D01*
X195333016Y-136007490D01*
X195318772Y-136054445D01*
X195299995Y-136099778D01*
X195276864Y-136143051D01*
X195249604Y-136183850D01*
X195218476Y-136221779D01*
X195183779Y-136256476D01*
X195145850Y-136287604D01*
X195105051Y-136314864D01*
X195061778Y-136337995D01*
X195016445Y-136356772D01*
X194969490Y-136371016D01*
X194921365Y-136380588D01*
X194872534Y-136385398D01*
X194848000Y-136385398D01*
X194848000Y-136386000D01*
X194298000Y-136386000D01*
X194298000Y-134886000D01*
X194848000Y-134886000D01*
X194848000Y-134886602D01*
G37*
D25*
X193548000Y-135636000D03*
D11*
G36*
X192798000Y-136386000D02*
G01*
X192248000Y-136386000D01*
X192248000Y-136385398D01*
X192223466Y-136385398D01*
X192174635Y-136380588D01*
X192126510Y-136371016D01*
X192079555Y-136356772D01*
X192034222Y-136337995D01*
X191990949Y-136314864D01*
X191950150Y-136287604D01*
X191912221Y-136256476D01*
X191877524Y-136221779D01*
X191846396Y-136183850D01*
X191819136Y-136143051D01*
X191796005Y-136099778D01*
X191777228Y-136054445D01*
X191762984Y-136007490D01*
X191753412Y-135959365D01*
X191748602Y-135910534D01*
X191748602Y-135886000D01*
X191748000Y-135886000D01*
X191748000Y-135386000D01*
X191748602Y-135386000D01*
X191748602Y-135361466D01*
X191753412Y-135312635D01*
X191762984Y-135264510D01*
X191777228Y-135217555D01*
X191796005Y-135172222D01*
X191819136Y-135128949D01*
X191846396Y-135088150D01*
X191877524Y-135050221D01*
X191912221Y-135015524D01*
X191950150Y-134984396D01*
X191990949Y-134957136D01*
X192034222Y-134934005D01*
X192079555Y-134915228D01*
X192126510Y-134900984D01*
X192174635Y-134891412D01*
X192223466Y-134886602D01*
X192248000Y-134886602D01*
X192248000Y-134886000D01*
X192798000Y-134886000D01*
X192798000Y-136386000D01*
G37*
G36*
G01*
X200983000Y-88161000D02*
X200983000Y-87861000D01*
G75*
G02*
X201133000Y-87711000I150000J0D01*
G01*
X202883000Y-87711000D01*
G75*
G02*
X203033000Y-87861000I0J-150000D01*
G01*
X203033000Y-88161000D01*
G75*
G02*
X202883000Y-88311000I-150000J0D01*
G01*
X201133000Y-88311000D01*
G75*
G02*
X200983000Y-88161000I0J150000D01*
G01*
G37*
G36*
G01*
X200983000Y-86891000D02*
X200983000Y-86591000D01*
G75*
G02*
X201133000Y-86441000I150000J0D01*
G01*
X202883000Y-86441000D01*
G75*
G02*
X203033000Y-86591000I0J-150000D01*
G01*
X203033000Y-86891000D01*
G75*
G02*
X202883000Y-87041000I-150000J0D01*
G01*
X201133000Y-87041000D01*
G75*
G02*
X200983000Y-86891000I0J150000D01*
G01*
G37*
G36*
G01*
X200983000Y-85621000D02*
X200983000Y-85321000D01*
G75*
G02*
X201133000Y-85171000I150000J0D01*
G01*
X202883000Y-85171000D01*
G75*
G02*
X203033000Y-85321000I0J-150000D01*
G01*
X203033000Y-85621000D01*
G75*
G02*
X202883000Y-85771000I-150000J0D01*
G01*
X201133000Y-85771000D01*
G75*
G02*
X200983000Y-85621000I0J150000D01*
G01*
G37*
G36*
G01*
X200983000Y-84351000D02*
X200983000Y-84051000D01*
G75*
G02*
X201133000Y-83901000I150000J0D01*
G01*
X202883000Y-83901000D01*
G75*
G02*
X203033000Y-84051000I0J-150000D01*
G01*
X203033000Y-84351000D01*
G75*
G02*
X202883000Y-84501000I-150000J0D01*
G01*
X201133000Y-84501000D01*
G75*
G02*
X200983000Y-84351000I0J150000D01*
G01*
G37*
G36*
G01*
X200983000Y-83081000D02*
X200983000Y-82781000D01*
G75*
G02*
X201133000Y-82631000I150000J0D01*
G01*
X202883000Y-82631000D01*
G75*
G02*
X203033000Y-82781000I0J-150000D01*
G01*
X203033000Y-83081000D01*
G75*
G02*
X202883000Y-83231000I-150000J0D01*
G01*
X201133000Y-83231000D01*
G75*
G02*
X200983000Y-83081000I0J150000D01*
G01*
G37*
G36*
G01*
X200983000Y-81811000D02*
X200983000Y-81511000D01*
G75*
G02*
X201133000Y-81361000I150000J0D01*
G01*
X202883000Y-81361000D01*
G75*
G02*
X203033000Y-81511000I0J-150000D01*
G01*
X203033000Y-81811000D01*
G75*
G02*
X202883000Y-81961000I-150000J0D01*
G01*
X201133000Y-81961000D01*
G75*
G02*
X200983000Y-81811000I0J150000D01*
G01*
G37*
G36*
G01*
X200983000Y-80541000D02*
X200983000Y-80241000D01*
G75*
G02*
X201133000Y-80091000I150000J0D01*
G01*
X202883000Y-80091000D01*
G75*
G02*
X203033000Y-80241000I0J-150000D01*
G01*
X203033000Y-80541000D01*
G75*
G02*
X202883000Y-80691000I-150000J0D01*
G01*
X201133000Y-80691000D01*
G75*
G02*
X200983000Y-80541000I0J150000D01*
G01*
G37*
G36*
G01*
X200983000Y-79271000D02*
X200983000Y-78971000D01*
G75*
G02*
X201133000Y-78821000I150000J0D01*
G01*
X202883000Y-78821000D01*
G75*
G02*
X203033000Y-78971000I0J-150000D01*
G01*
X203033000Y-79271000D01*
G75*
G02*
X202883000Y-79421000I-150000J0D01*
G01*
X201133000Y-79421000D01*
G75*
G02*
X200983000Y-79271000I0J150000D01*
G01*
G37*
G36*
G01*
X200983000Y-78001000D02*
X200983000Y-77701000D01*
G75*
G02*
X201133000Y-77551000I150000J0D01*
G01*
X202883000Y-77551000D01*
G75*
G02*
X203033000Y-77701000I0J-150000D01*
G01*
X203033000Y-78001000D01*
G75*
G02*
X202883000Y-78151000I-150000J0D01*
G01*
X201133000Y-78151000D01*
G75*
G02*
X200983000Y-78001000I0J150000D01*
G01*
G37*
G36*
G01*
X200983000Y-76731000D02*
X200983000Y-76431000D01*
G75*
G02*
X201133000Y-76281000I150000J0D01*
G01*
X202883000Y-76281000D01*
G75*
G02*
X203033000Y-76431000I0J-150000D01*
G01*
X203033000Y-76731000D01*
G75*
G02*
X202883000Y-76881000I-150000J0D01*
G01*
X201133000Y-76881000D01*
G75*
G02*
X200983000Y-76731000I0J150000D01*
G01*
G37*
G36*
G01*
X191683000Y-76731000D02*
X191683000Y-76431000D01*
G75*
G02*
X191833000Y-76281000I150000J0D01*
G01*
X193583000Y-76281000D01*
G75*
G02*
X193733000Y-76431000I0J-150000D01*
G01*
X193733000Y-76731000D01*
G75*
G02*
X193583000Y-76881000I-150000J0D01*
G01*
X191833000Y-76881000D01*
G75*
G02*
X191683000Y-76731000I0J150000D01*
G01*
G37*
G36*
G01*
X191683000Y-78001000D02*
X191683000Y-77701000D01*
G75*
G02*
X191833000Y-77551000I150000J0D01*
G01*
X193583000Y-77551000D01*
G75*
G02*
X193733000Y-77701000I0J-150000D01*
G01*
X193733000Y-78001000D01*
G75*
G02*
X193583000Y-78151000I-150000J0D01*
G01*
X191833000Y-78151000D01*
G75*
G02*
X191683000Y-78001000I0J150000D01*
G01*
G37*
G36*
G01*
X191683000Y-79271000D02*
X191683000Y-78971000D01*
G75*
G02*
X191833000Y-78821000I150000J0D01*
G01*
X193583000Y-78821000D01*
G75*
G02*
X193733000Y-78971000I0J-150000D01*
G01*
X193733000Y-79271000D01*
G75*
G02*
X193583000Y-79421000I-150000J0D01*
G01*
X191833000Y-79421000D01*
G75*
G02*
X191683000Y-79271000I0J150000D01*
G01*
G37*
G36*
G01*
X191683000Y-80541000D02*
X191683000Y-80241000D01*
G75*
G02*
X191833000Y-80091000I150000J0D01*
G01*
X193583000Y-80091000D01*
G75*
G02*
X193733000Y-80241000I0J-150000D01*
G01*
X193733000Y-80541000D01*
G75*
G02*
X193583000Y-80691000I-150000J0D01*
G01*
X191833000Y-80691000D01*
G75*
G02*
X191683000Y-80541000I0J150000D01*
G01*
G37*
G36*
G01*
X191683000Y-81811000D02*
X191683000Y-81511000D01*
G75*
G02*
X191833000Y-81361000I150000J0D01*
G01*
X193583000Y-81361000D01*
G75*
G02*
X193733000Y-81511000I0J-150000D01*
G01*
X193733000Y-81811000D01*
G75*
G02*
X193583000Y-81961000I-150000J0D01*
G01*
X191833000Y-81961000D01*
G75*
G02*
X191683000Y-81811000I0J150000D01*
G01*
G37*
G36*
G01*
X191683000Y-83081000D02*
X191683000Y-82781000D01*
G75*
G02*
X191833000Y-82631000I150000J0D01*
G01*
X193583000Y-82631000D01*
G75*
G02*
X193733000Y-82781000I0J-150000D01*
G01*
X193733000Y-83081000D01*
G75*
G02*
X193583000Y-83231000I-150000J0D01*
G01*
X191833000Y-83231000D01*
G75*
G02*
X191683000Y-83081000I0J150000D01*
G01*
G37*
G36*
G01*
X191683000Y-84351000D02*
X191683000Y-84051000D01*
G75*
G02*
X191833000Y-83901000I150000J0D01*
G01*
X193583000Y-83901000D01*
G75*
G02*
X193733000Y-84051000I0J-150000D01*
G01*
X193733000Y-84351000D01*
G75*
G02*
X193583000Y-84501000I-150000J0D01*
G01*
X191833000Y-84501000D01*
G75*
G02*
X191683000Y-84351000I0J150000D01*
G01*
G37*
G36*
G01*
X191683000Y-85621000D02*
X191683000Y-85321000D01*
G75*
G02*
X191833000Y-85171000I150000J0D01*
G01*
X193583000Y-85171000D01*
G75*
G02*
X193733000Y-85321000I0J-150000D01*
G01*
X193733000Y-85621000D01*
G75*
G02*
X193583000Y-85771000I-150000J0D01*
G01*
X191833000Y-85771000D01*
G75*
G02*
X191683000Y-85621000I0J150000D01*
G01*
G37*
G36*
G01*
X191683000Y-86891000D02*
X191683000Y-86591000D01*
G75*
G02*
X191833000Y-86441000I150000J0D01*
G01*
X193583000Y-86441000D01*
G75*
G02*
X193733000Y-86591000I0J-150000D01*
G01*
X193733000Y-86891000D01*
G75*
G02*
X193583000Y-87041000I-150000J0D01*
G01*
X191833000Y-87041000D01*
G75*
G02*
X191683000Y-86891000I0J150000D01*
G01*
G37*
G36*
G01*
X191683000Y-88161000D02*
X191683000Y-87861000D01*
G75*
G02*
X191833000Y-87711000I150000J0D01*
G01*
X193583000Y-87711000D01*
G75*
G02*
X193733000Y-87861000I0J-150000D01*
G01*
X193733000Y-88161000D01*
G75*
G02*
X193583000Y-88311000I-150000J0D01*
G01*
X191833000Y-88311000D01*
G75*
G02*
X191683000Y-88161000I0J150000D01*
G01*
G37*
G36*
G01*
X191683000Y-110005000D02*
X191683000Y-109705000D01*
G75*
G02*
X191833000Y-109555000I150000J0D01*
G01*
X193583000Y-109555000D01*
G75*
G02*
X193733000Y-109705000I0J-150000D01*
G01*
X193733000Y-110005000D01*
G75*
G02*
X193583000Y-110155000I-150000J0D01*
G01*
X191833000Y-110155000D01*
G75*
G02*
X191683000Y-110005000I0J150000D01*
G01*
G37*
G36*
G01*
X191683000Y-108735000D02*
X191683000Y-108435000D01*
G75*
G02*
X191833000Y-108285000I150000J0D01*
G01*
X193583000Y-108285000D01*
G75*
G02*
X193733000Y-108435000I0J-150000D01*
G01*
X193733000Y-108735000D01*
G75*
G02*
X193583000Y-108885000I-150000J0D01*
G01*
X191833000Y-108885000D01*
G75*
G02*
X191683000Y-108735000I0J150000D01*
G01*
G37*
G36*
G01*
X191683000Y-107465000D02*
X191683000Y-107165000D01*
G75*
G02*
X191833000Y-107015000I150000J0D01*
G01*
X193583000Y-107015000D01*
G75*
G02*
X193733000Y-107165000I0J-150000D01*
G01*
X193733000Y-107465000D01*
G75*
G02*
X193583000Y-107615000I-150000J0D01*
G01*
X191833000Y-107615000D01*
G75*
G02*
X191683000Y-107465000I0J150000D01*
G01*
G37*
G36*
G01*
X191683000Y-106195000D02*
X191683000Y-105895000D01*
G75*
G02*
X191833000Y-105745000I150000J0D01*
G01*
X193583000Y-105745000D01*
G75*
G02*
X193733000Y-105895000I0J-150000D01*
G01*
X193733000Y-106195000D01*
G75*
G02*
X193583000Y-106345000I-150000J0D01*
G01*
X191833000Y-106345000D01*
G75*
G02*
X191683000Y-106195000I0J150000D01*
G01*
G37*
G36*
G01*
X191683000Y-104925000D02*
X191683000Y-104625000D01*
G75*
G02*
X191833000Y-104475000I150000J0D01*
G01*
X193583000Y-104475000D01*
G75*
G02*
X193733000Y-104625000I0J-150000D01*
G01*
X193733000Y-104925000D01*
G75*
G02*
X193583000Y-105075000I-150000J0D01*
G01*
X191833000Y-105075000D01*
G75*
G02*
X191683000Y-104925000I0J150000D01*
G01*
G37*
G36*
G01*
X191683000Y-103655000D02*
X191683000Y-103355000D01*
G75*
G02*
X191833000Y-103205000I150000J0D01*
G01*
X193583000Y-103205000D01*
G75*
G02*
X193733000Y-103355000I0J-150000D01*
G01*
X193733000Y-103655000D01*
G75*
G02*
X193583000Y-103805000I-150000J0D01*
G01*
X191833000Y-103805000D01*
G75*
G02*
X191683000Y-103655000I0J150000D01*
G01*
G37*
G36*
G01*
X191683000Y-102385000D02*
X191683000Y-102085000D01*
G75*
G02*
X191833000Y-101935000I150000J0D01*
G01*
X193583000Y-101935000D01*
G75*
G02*
X193733000Y-102085000I0J-150000D01*
G01*
X193733000Y-102385000D01*
G75*
G02*
X193583000Y-102535000I-150000J0D01*
G01*
X191833000Y-102535000D01*
G75*
G02*
X191683000Y-102385000I0J150000D01*
G01*
G37*
G36*
G01*
X191683000Y-101115000D02*
X191683000Y-100815000D01*
G75*
G02*
X191833000Y-100665000I150000J0D01*
G01*
X193583000Y-100665000D01*
G75*
G02*
X193733000Y-100815000I0J-150000D01*
G01*
X193733000Y-101115000D01*
G75*
G02*
X193583000Y-101265000I-150000J0D01*
G01*
X191833000Y-101265000D01*
G75*
G02*
X191683000Y-101115000I0J150000D01*
G01*
G37*
G36*
G01*
X191683000Y-99845000D02*
X191683000Y-99545000D01*
G75*
G02*
X191833000Y-99395000I150000J0D01*
G01*
X193583000Y-99395000D01*
G75*
G02*
X193733000Y-99545000I0J-150000D01*
G01*
X193733000Y-99845000D01*
G75*
G02*
X193583000Y-99995000I-150000J0D01*
G01*
X191833000Y-99995000D01*
G75*
G02*
X191683000Y-99845000I0J150000D01*
G01*
G37*
G36*
G01*
X191683000Y-98575000D02*
X191683000Y-98275000D01*
G75*
G02*
X191833000Y-98125000I150000J0D01*
G01*
X193583000Y-98125000D01*
G75*
G02*
X193733000Y-98275000I0J-150000D01*
G01*
X193733000Y-98575000D01*
G75*
G02*
X193583000Y-98725000I-150000J0D01*
G01*
X191833000Y-98725000D01*
G75*
G02*
X191683000Y-98575000I0J150000D01*
G01*
G37*
G36*
G01*
X200983000Y-98575000D02*
X200983000Y-98275000D01*
G75*
G02*
X201133000Y-98125000I150000J0D01*
G01*
X202883000Y-98125000D01*
G75*
G02*
X203033000Y-98275000I0J-150000D01*
G01*
X203033000Y-98575000D01*
G75*
G02*
X202883000Y-98725000I-150000J0D01*
G01*
X201133000Y-98725000D01*
G75*
G02*
X200983000Y-98575000I0J150000D01*
G01*
G37*
G36*
G01*
X200983000Y-99845000D02*
X200983000Y-99545000D01*
G75*
G02*
X201133000Y-99395000I150000J0D01*
G01*
X202883000Y-99395000D01*
G75*
G02*
X203033000Y-99545000I0J-150000D01*
G01*
X203033000Y-99845000D01*
G75*
G02*
X202883000Y-99995000I-150000J0D01*
G01*
X201133000Y-99995000D01*
G75*
G02*
X200983000Y-99845000I0J150000D01*
G01*
G37*
G36*
G01*
X200983000Y-101115000D02*
X200983000Y-100815000D01*
G75*
G02*
X201133000Y-100665000I150000J0D01*
G01*
X202883000Y-100665000D01*
G75*
G02*
X203033000Y-100815000I0J-150000D01*
G01*
X203033000Y-101115000D01*
G75*
G02*
X202883000Y-101265000I-150000J0D01*
G01*
X201133000Y-101265000D01*
G75*
G02*
X200983000Y-101115000I0J150000D01*
G01*
G37*
G36*
G01*
X200983000Y-102385000D02*
X200983000Y-102085000D01*
G75*
G02*
X201133000Y-101935000I150000J0D01*
G01*
X202883000Y-101935000D01*
G75*
G02*
X203033000Y-102085000I0J-150000D01*
G01*
X203033000Y-102385000D01*
G75*
G02*
X202883000Y-102535000I-150000J0D01*
G01*
X201133000Y-102535000D01*
G75*
G02*
X200983000Y-102385000I0J150000D01*
G01*
G37*
G36*
G01*
X200983000Y-103655000D02*
X200983000Y-103355000D01*
G75*
G02*
X201133000Y-103205000I150000J0D01*
G01*
X202883000Y-103205000D01*
G75*
G02*
X203033000Y-103355000I0J-150000D01*
G01*
X203033000Y-103655000D01*
G75*
G02*
X202883000Y-103805000I-150000J0D01*
G01*
X201133000Y-103805000D01*
G75*
G02*
X200983000Y-103655000I0J150000D01*
G01*
G37*
G36*
G01*
X200983000Y-104925000D02*
X200983000Y-104625000D01*
G75*
G02*
X201133000Y-104475000I150000J0D01*
G01*
X202883000Y-104475000D01*
G75*
G02*
X203033000Y-104625000I0J-150000D01*
G01*
X203033000Y-104925000D01*
G75*
G02*
X202883000Y-105075000I-150000J0D01*
G01*
X201133000Y-105075000D01*
G75*
G02*
X200983000Y-104925000I0J150000D01*
G01*
G37*
G36*
G01*
X200983000Y-106195000D02*
X200983000Y-105895000D01*
G75*
G02*
X201133000Y-105745000I150000J0D01*
G01*
X202883000Y-105745000D01*
G75*
G02*
X203033000Y-105895000I0J-150000D01*
G01*
X203033000Y-106195000D01*
G75*
G02*
X202883000Y-106345000I-150000J0D01*
G01*
X201133000Y-106345000D01*
G75*
G02*
X200983000Y-106195000I0J150000D01*
G01*
G37*
G36*
G01*
X200983000Y-107465000D02*
X200983000Y-107165000D01*
G75*
G02*
X201133000Y-107015000I150000J0D01*
G01*
X202883000Y-107015000D01*
G75*
G02*
X203033000Y-107165000I0J-150000D01*
G01*
X203033000Y-107465000D01*
G75*
G02*
X202883000Y-107615000I-150000J0D01*
G01*
X201133000Y-107615000D01*
G75*
G02*
X200983000Y-107465000I0J150000D01*
G01*
G37*
G36*
G01*
X200983000Y-108735000D02*
X200983000Y-108435000D01*
G75*
G02*
X201133000Y-108285000I150000J0D01*
G01*
X202883000Y-108285000D01*
G75*
G02*
X203033000Y-108435000I0J-150000D01*
G01*
X203033000Y-108735000D01*
G75*
G02*
X202883000Y-108885000I-150000J0D01*
G01*
X201133000Y-108885000D01*
G75*
G02*
X200983000Y-108735000I0J150000D01*
G01*
G37*
G36*
G01*
X200983000Y-110005000D02*
X200983000Y-109705000D01*
G75*
G02*
X201133000Y-109555000I150000J0D01*
G01*
X202883000Y-109555000D01*
G75*
G02*
X203033000Y-109705000I0J-150000D01*
G01*
X203033000Y-110005000D01*
G75*
G02*
X202883000Y-110155000I-150000J0D01*
G01*
X201133000Y-110155000D01*
G75*
G02*
X200983000Y-110005000I0J150000D01*
G01*
G37*
G36*
G01*
X191683000Y-131595000D02*
X191683000Y-131295000D01*
G75*
G02*
X191833000Y-131145000I150000J0D01*
G01*
X193583000Y-131145000D01*
G75*
G02*
X193733000Y-131295000I0J-150000D01*
G01*
X193733000Y-131595000D01*
G75*
G02*
X193583000Y-131745000I-150000J0D01*
G01*
X191833000Y-131745000D01*
G75*
G02*
X191683000Y-131595000I0J150000D01*
G01*
G37*
G36*
G01*
X191683000Y-130325000D02*
X191683000Y-130025000D01*
G75*
G02*
X191833000Y-129875000I150000J0D01*
G01*
X193583000Y-129875000D01*
G75*
G02*
X193733000Y-130025000I0J-150000D01*
G01*
X193733000Y-130325000D01*
G75*
G02*
X193583000Y-130475000I-150000J0D01*
G01*
X191833000Y-130475000D01*
G75*
G02*
X191683000Y-130325000I0J150000D01*
G01*
G37*
G36*
G01*
X191683000Y-129055000D02*
X191683000Y-128755000D01*
G75*
G02*
X191833000Y-128605000I150000J0D01*
G01*
X193583000Y-128605000D01*
G75*
G02*
X193733000Y-128755000I0J-150000D01*
G01*
X193733000Y-129055000D01*
G75*
G02*
X193583000Y-129205000I-150000J0D01*
G01*
X191833000Y-129205000D01*
G75*
G02*
X191683000Y-129055000I0J150000D01*
G01*
G37*
G36*
G01*
X191683000Y-127785000D02*
X191683000Y-127485000D01*
G75*
G02*
X191833000Y-127335000I150000J0D01*
G01*
X193583000Y-127335000D01*
G75*
G02*
X193733000Y-127485000I0J-150000D01*
G01*
X193733000Y-127785000D01*
G75*
G02*
X193583000Y-127935000I-150000J0D01*
G01*
X191833000Y-127935000D01*
G75*
G02*
X191683000Y-127785000I0J150000D01*
G01*
G37*
G36*
G01*
X191683000Y-126515000D02*
X191683000Y-126215000D01*
G75*
G02*
X191833000Y-126065000I150000J0D01*
G01*
X193583000Y-126065000D01*
G75*
G02*
X193733000Y-126215000I0J-150000D01*
G01*
X193733000Y-126515000D01*
G75*
G02*
X193583000Y-126665000I-150000J0D01*
G01*
X191833000Y-126665000D01*
G75*
G02*
X191683000Y-126515000I0J150000D01*
G01*
G37*
G36*
G01*
X191683000Y-125245000D02*
X191683000Y-124945000D01*
G75*
G02*
X191833000Y-124795000I150000J0D01*
G01*
X193583000Y-124795000D01*
G75*
G02*
X193733000Y-124945000I0J-150000D01*
G01*
X193733000Y-125245000D01*
G75*
G02*
X193583000Y-125395000I-150000J0D01*
G01*
X191833000Y-125395000D01*
G75*
G02*
X191683000Y-125245000I0J150000D01*
G01*
G37*
G36*
G01*
X191683000Y-123975000D02*
X191683000Y-123675000D01*
G75*
G02*
X191833000Y-123525000I150000J0D01*
G01*
X193583000Y-123525000D01*
G75*
G02*
X193733000Y-123675000I0J-150000D01*
G01*
X193733000Y-123975000D01*
G75*
G02*
X193583000Y-124125000I-150000J0D01*
G01*
X191833000Y-124125000D01*
G75*
G02*
X191683000Y-123975000I0J150000D01*
G01*
G37*
G36*
G01*
X191683000Y-122705000D02*
X191683000Y-122405000D01*
G75*
G02*
X191833000Y-122255000I150000J0D01*
G01*
X193583000Y-122255000D01*
G75*
G02*
X193733000Y-122405000I0J-150000D01*
G01*
X193733000Y-122705000D01*
G75*
G02*
X193583000Y-122855000I-150000J0D01*
G01*
X191833000Y-122855000D01*
G75*
G02*
X191683000Y-122705000I0J150000D01*
G01*
G37*
G36*
G01*
X191683000Y-121435000D02*
X191683000Y-121135000D01*
G75*
G02*
X191833000Y-120985000I150000J0D01*
G01*
X193583000Y-120985000D01*
G75*
G02*
X193733000Y-121135000I0J-150000D01*
G01*
X193733000Y-121435000D01*
G75*
G02*
X193583000Y-121585000I-150000J0D01*
G01*
X191833000Y-121585000D01*
G75*
G02*
X191683000Y-121435000I0J150000D01*
G01*
G37*
G36*
G01*
X191683000Y-120165000D02*
X191683000Y-119865000D01*
G75*
G02*
X191833000Y-119715000I150000J0D01*
G01*
X193583000Y-119715000D01*
G75*
G02*
X193733000Y-119865000I0J-150000D01*
G01*
X193733000Y-120165000D01*
G75*
G02*
X193583000Y-120315000I-150000J0D01*
G01*
X191833000Y-120315000D01*
G75*
G02*
X191683000Y-120165000I0J150000D01*
G01*
G37*
G36*
G01*
X200983000Y-120165000D02*
X200983000Y-119865000D01*
G75*
G02*
X201133000Y-119715000I150000J0D01*
G01*
X202883000Y-119715000D01*
G75*
G02*
X203033000Y-119865000I0J-150000D01*
G01*
X203033000Y-120165000D01*
G75*
G02*
X202883000Y-120315000I-150000J0D01*
G01*
X201133000Y-120315000D01*
G75*
G02*
X200983000Y-120165000I0J150000D01*
G01*
G37*
G36*
G01*
X200983000Y-121435000D02*
X200983000Y-121135000D01*
G75*
G02*
X201133000Y-120985000I150000J0D01*
G01*
X202883000Y-120985000D01*
G75*
G02*
X203033000Y-121135000I0J-150000D01*
G01*
X203033000Y-121435000D01*
G75*
G02*
X202883000Y-121585000I-150000J0D01*
G01*
X201133000Y-121585000D01*
G75*
G02*
X200983000Y-121435000I0J150000D01*
G01*
G37*
G36*
G01*
X200983000Y-122705000D02*
X200983000Y-122405000D01*
G75*
G02*
X201133000Y-122255000I150000J0D01*
G01*
X202883000Y-122255000D01*
G75*
G02*
X203033000Y-122405000I0J-150000D01*
G01*
X203033000Y-122705000D01*
G75*
G02*
X202883000Y-122855000I-150000J0D01*
G01*
X201133000Y-122855000D01*
G75*
G02*
X200983000Y-122705000I0J150000D01*
G01*
G37*
G36*
G01*
X200983000Y-123975000D02*
X200983000Y-123675000D01*
G75*
G02*
X201133000Y-123525000I150000J0D01*
G01*
X202883000Y-123525000D01*
G75*
G02*
X203033000Y-123675000I0J-150000D01*
G01*
X203033000Y-123975000D01*
G75*
G02*
X202883000Y-124125000I-150000J0D01*
G01*
X201133000Y-124125000D01*
G75*
G02*
X200983000Y-123975000I0J150000D01*
G01*
G37*
G36*
G01*
X200983000Y-125245000D02*
X200983000Y-124945000D01*
G75*
G02*
X201133000Y-124795000I150000J0D01*
G01*
X202883000Y-124795000D01*
G75*
G02*
X203033000Y-124945000I0J-150000D01*
G01*
X203033000Y-125245000D01*
G75*
G02*
X202883000Y-125395000I-150000J0D01*
G01*
X201133000Y-125395000D01*
G75*
G02*
X200983000Y-125245000I0J150000D01*
G01*
G37*
G36*
G01*
X200983000Y-126515000D02*
X200983000Y-126215000D01*
G75*
G02*
X201133000Y-126065000I150000J0D01*
G01*
X202883000Y-126065000D01*
G75*
G02*
X203033000Y-126215000I0J-150000D01*
G01*
X203033000Y-126515000D01*
G75*
G02*
X202883000Y-126665000I-150000J0D01*
G01*
X201133000Y-126665000D01*
G75*
G02*
X200983000Y-126515000I0J150000D01*
G01*
G37*
G36*
G01*
X200983000Y-127785000D02*
X200983000Y-127485000D01*
G75*
G02*
X201133000Y-127335000I150000J0D01*
G01*
X202883000Y-127335000D01*
G75*
G02*
X203033000Y-127485000I0J-150000D01*
G01*
X203033000Y-127785000D01*
G75*
G02*
X202883000Y-127935000I-150000J0D01*
G01*
X201133000Y-127935000D01*
G75*
G02*
X200983000Y-127785000I0J150000D01*
G01*
G37*
G36*
G01*
X200983000Y-129055000D02*
X200983000Y-128755000D01*
G75*
G02*
X201133000Y-128605000I150000J0D01*
G01*
X202883000Y-128605000D01*
G75*
G02*
X203033000Y-128755000I0J-150000D01*
G01*
X203033000Y-129055000D01*
G75*
G02*
X202883000Y-129205000I-150000J0D01*
G01*
X201133000Y-129205000D01*
G75*
G02*
X200983000Y-129055000I0J150000D01*
G01*
G37*
G36*
G01*
X200983000Y-130325000D02*
X200983000Y-130025000D01*
G75*
G02*
X201133000Y-129875000I150000J0D01*
G01*
X202883000Y-129875000D01*
G75*
G02*
X203033000Y-130025000I0J-150000D01*
G01*
X203033000Y-130325000D01*
G75*
G02*
X202883000Y-130475000I-150000J0D01*
G01*
X201133000Y-130475000D01*
G75*
G02*
X200983000Y-130325000I0J150000D01*
G01*
G37*
G36*
G01*
X200983000Y-131595000D02*
X200983000Y-131295000D01*
G75*
G02*
X201133000Y-131145000I150000J0D01*
G01*
X202883000Y-131145000D01*
G75*
G02*
X203033000Y-131295000I0J-150000D01*
G01*
X203033000Y-131595000D01*
G75*
G02*
X202883000Y-131745000I-150000J0D01*
G01*
X201133000Y-131745000D01*
G75*
G02*
X200983000Y-131595000I0J150000D01*
G01*
G37*
G36*
X163842000Y-64758000D02*
G01*
X163292000Y-64758000D01*
X163292000Y-64757398D01*
X163267466Y-64757398D01*
X163218635Y-64752588D01*
X163170510Y-64743016D01*
X163123555Y-64728772D01*
X163078222Y-64709995D01*
X163034949Y-64686864D01*
X162994150Y-64659604D01*
X162956221Y-64628476D01*
X162921524Y-64593779D01*
X162890396Y-64555850D01*
X162863136Y-64515051D01*
X162840005Y-64471778D01*
X162821228Y-64426445D01*
X162806984Y-64379490D01*
X162797412Y-64331365D01*
X162792602Y-64282534D01*
X162792602Y-64258000D01*
X162792000Y-64258000D01*
X162792000Y-63758000D01*
X162792602Y-63758000D01*
X162792602Y-63733466D01*
X162797412Y-63684635D01*
X162806984Y-63636510D01*
X162821228Y-63589555D01*
X162840005Y-63544222D01*
X162863136Y-63500949D01*
X162890396Y-63460150D01*
X162921524Y-63422221D01*
X162956221Y-63387524D01*
X162994150Y-63356396D01*
X163034949Y-63329136D01*
X163078222Y-63306005D01*
X163123555Y-63287228D01*
X163170510Y-63272984D01*
X163218635Y-63263412D01*
X163267466Y-63258602D01*
X163292000Y-63258602D01*
X163292000Y-63258000D01*
X163842000Y-63258000D01*
X163842000Y-64758000D01*
G37*
D25*
X164592000Y-64008000D03*
D11*
G36*
X165892000Y-63258602D02*
G01*
X165916534Y-63258602D01*
X165965365Y-63263412D01*
X166013490Y-63272984D01*
X166060445Y-63287228D01*
X166105778Y-63306005D01*
X166149051Y-63329136D01*
X166189850Y-63356396D01*
X166227779Y-63387524D01*
X166262476Y-63422221D01*
X166293604Y-63460150D01*
X166320864Y-63500949D01*
X166343995Y-63544222D01*
X166362772Y-63589555D01*
X166377016Y-63636510D01*
X166386588Y-63684635D01*
X166391398Y-63733466D01*
X166391398Y-63758000D01*
X166392000Y-63758000D01*
X166392000Y-64258000D01*
X166391398Y-64258000D01*
X166391398Y-64282534D01*
X166386588Y-64331365D01*
X166377016Y-64379490D01*
X166362772Y-64426445D01*
X166343995Y-64471778D01*
X166320864Y-64515051D01*
X166293604Y-64555850D01*
X166262476Y-64593779D01*
X166227779Y-64628476D01*
X166189850Y-64659604D01*
X166149051Y-64686864D01*
X166105778Y-64709995D01*
X166060445Y-64728772D01*
X166013490Y-64743016D01*
X165965365Y-64752588D01*
X165916534Y-64757398D01*
X165892000Y-64757398D01*
X165892000Y-64758000D01*
X165342000Y-64758000D01*
X165342000Y-63258000D01*
X165892000Y-63258000D01*
X165892000Y-63258602D01*
G37*
G36*
G01*
X228415000Y-86891000D02*
X228415000Y-86591000D01*
G75*
G02*
X228565000Y-86441000I150000J0D01*
G01*
X230315000Y-86441000D01*
G75*
G02*
X230465000Y-86591000I0J-150000D01*
G01*
X230465000Y-86891000D01*
G75*
G02*
X230315000Y-87041000I-150000J0D01*
G01*
X228565000Y-87041000D01*
G75*
G02*
X228415000Y-86891000I0J150000D01*
G01*
G37*
G36*
G01*
X228415000Y-85621000D02*
X228415000Y-85321000D01*
G75*
G02*
X228565000Y-85171000I150000J0D01*
G01*
X230315000Y-85171000D01*
G75*
G02*
X230465000Y-85321000I0J-150000D01*
G01*
X230465000Y-85621000D01*
G75*
G02*
X230315000Y-85771000I-150000J0D01*
G01*
X228565000Y-85771000D01*
G75*
G02*
X228415000Y-85621000I0J150000D01*
G01*
G37*
G36*
G01*
X228415000Y-84351000D02*
X228415000Y-84051000D01*
G75*
G02*
X228565000Y-83901000I150000J0D01*
G01*
X230315000Y-83901000D01*
G75*
G02*
X230465000Y-84051000I0J-150000D01*
G01*
X230465000Y-84351000D01*
G75*
G02*
X230315000Y-84501000I-150000J0D01*
G01*
X228565000Y-84501000D01*
G75*
G02*
X228415000Y-84351000I0J150000D01*
G01*
G37*
G36*
G01*
X228415000Y-83081000D02*
X228415000Y-82781000D01*
G75*
G02*
X228565000Y-82631000I150000J0D01*
G01*
X230315000Y-82631000D01*
G75*
G02*
X230465000Y-82781000I0J-150000D01*
G01*
X230465000Y-83081000D01*
G75*
G02*
X230315000Y-83231000I-150000J0D01*
G01*
X228565000Y-83231000D01*
G75*
G02*
X228415000Y-83081000I0J150000D01*
G01*
G37*
G36*
G01*
X228415000Y-81811000D02*
X228415000Y-81511000D01*
G75*
G02*
X228565000Y-81361000I150000J0D01*
G01*
X230315000Y-81361000D01*
G75*
G02*
X230465000Y-81511000I0J-150000D01*
G01*
X230465000Y-81811000D01*
G75*
G02*
X230315000Y-81961000I-150000J0D01*
G01*
X228565000Y-81961000D01*
G75*
G02*
X228415000Y-81811000I0J150000D01*
G01*
G37*
G36*
G01*
X228415000Y-80541000D02*
X228415000Y-80241000D01*
G75*
G02*
X228565000Y-80091000I150000J0D01*
G01*
X230315000Y-80091000D01*
G75*
G02*
X230465000Y-80241000I0J-150000D01*
G01*
X230465000Y-80541000D01*
G75*
G02*
X230315000Y-80691000I-150000J0D01*
G01*
X228565000Y-80691000D01*
G75*
G02*
X228415000Y-80541000I0J150000D01*
G01*
G37*
G36*
G01*
X228415000Y-79271000D02*
X228415000Y-78971000D01*
G75*
G02*
X228565000Y-78821000I150000J0D01*
G01*
X230315000Y-78821000D01*
G75*
G02*
X230465000Y-78971000I0J-150000D01*
G01*
X230465000Y-79271000D01*
G75*
G02*
X230315000Y-79421000I-150000J0D01*
G01*
X228565000Y-79421000D01*
G75*
G02*
X228415000Y-79271000I0J150000D01*
G01*
G37*
G36*
G01*
X228415000Y-78001000D02*
X228415000Y-77701000D01*
G75*
G02*
X228565000Y-77551000I150000J0D01*
G01*
X230315000Y-77551000D01*
G75*
G02*
X230465000Y-77701000I0J-150000D01*
G01*
X230465000Y-78001000D01*
G75*
G02*
X230315000Y-78151000I-150000J0D01*
G01*
X228565000Y-78151000D01*
G75*
G02*
X228415000Y-78001000I0J150000D01*
G01*
G37*
G36*
G01*
X228415000Y-76731000D02*
X228415000Y-76431000D01*
G75*
G02*
X228565000Y-76281000I150000J0D01*
G01*
X230315000Y-76281000D01*
G75*
G02*
X230465000Y-76431000I0J-150000D01*
G01*
X230465000Y-76731000D01*
G75*
G02*
X230315000Y-76881000I-150000J0D01*
G01*
X228565000Y-76881000D01*
G75*
G02*
X228415000Y-76731000I0J150000D01*
G01*
G37*
G36*
G01*
X228415000Y-75461000D02*
X228415000Y-75161000D01*
G75*
G02*
X228565000Y-75011000I150000J0D01*
G01*
X230315000Y-75011000D01*
G75*
G02*
X230465000Y-75161000I0J-150000D01*
G01*
X230465000Y-75461000D01*
G75*
G02*
X230315000Y-75611000I-150000J0D01*
G01*
X228565000Y-75611000D01*
G75*
G02*
X228415000Y-75461000I0J150000D01*
G01*
G37*
G36*
G01*
X219115000Y-75461000D02*
X219115000Y-75161000D01*
G75*
G02*
X219265000Y-75011000I150000J0D01*
G01*
X221015000Y-75011000D01*
G75*
G02*
X221165000Y-75161000I0J-150000D01*
G01*
X221165000Y-75461000D01*
G75*
G02*
X221015000Y-75611000I-150000J0D01*
G01*
X219265000Y-75611000D01*
G75*
G02*
X219115000Y-75461000I0J150000D01*
G01*
G37*
G36*
G01*
X219115000Y-76731000D02*
X219115000Y-76431000D01*
G75*
G02*
X219265000Y-76281000I150000J0D01*
G01*
X221015000Y-76281000D01*
G75*
G02*
X221165000Y-76431000I0J-150000D01*
G01*
X221165000Y-76731000D01*
G75*
G02*
X221015000Y-76881000I-150000J0D01*
G01*
X219265000Y-76881000D01*
G75*
G02*
X219115000Y-76731000I0J150000D01*
G01*
G37*
G36*
G01*
X219115000Y-78001000D02*
X219115000Y-77701000D01*
G75*
G02*
X219265000Y-77551000I150000J0D01*
G01*
X221015000Y-77551000D01*
G75*
G02*
X221165000Y-77701000I0J-150000D01*
G01*
X221165000Y-78001000D01*
G75*
G02*
X221015000Y-78151000I-150000J0D01*
G01*
X219265000Y-78151000D01*
G75*
G02*
X219115000Y-78001000I0J150000D01*
G01*
G37*
G36*
G01*
X219115000Y-79271000D02*
X219115000Y-78971000D01*
G75*
G02*
X219265000Y-78821000I150000J0D01*
G01*
X221015000Y-78821000D01*
G75*
G02*
X221165000Y-78971000I0J-150000D01*
G01*
X221165000Y-79271000D01*
G75*
G02*
X221015000Y-79421000I-150000J0D01*
G01*
X219265000Y-79421000D01*
G75*
G02*
X219115000Y-79271000I0J150000D01*
G01*
G37*
G36*
G01*
X219115000Y-80541000D02*
X219115000Y-80241000D01*
G75*
G02*
X219265000Y-80091000I150000J0D01*
G01*
X221015000Y-80091000D01*
G75*
G02*
X221165000Y-80241000I0J-150000D01*
G01*
X221165000Y-80541000D01*
G75*
G02*
X221015000Y-80691000I-150000J0D01*
G01*
X219265000Y-80691000D01*
G75*
G02*
X219115000Y-80541000I0J150000D01*
G01*
G37*
G36*
G01*
X219115000Y-81811000D02*
X219115000Y-81511000D01*
G75*
G02*
X219265000Y-81361000I150000J0D01*
G01*
X221015000Y-81361000D01*
G75*
G02*
X221165000Y-81511000I0J-150000D01*
G01*
X221165000Y-81811000D01*
G75*
G02*
X221015000Y-81961000I-150000J0D01*
G01*
X219265000Y-81961000D01*
G75*
G02*
X219115000Y-81811000I0J150000D01*
G01*
G37*
G36*
G01*
X219115000Y-83081000D02*
X219115000Y-82781000D01*
G75*
G02*
X219265000Y-82631000I150000J0D01*
G01*
X221015000Y-82631000D01*
G75*
G02*
X221165000Y-82781000I0J-150000D01*
G01*
X221165000Y-83081000D01*
G75*
G02*
X221015000Y-83231000I-150000J0D01*
G01*
X219265000Y-83231000D01*
G75*
G02*
X219115000Y-83081000I0J150000D01*
G01*
G37*
G36*
G01*
X219115000Y-84351000D02*
X219115000Y-84051000D01*
G75*
G02*
X219265000Y-83901000I150000J0D01*
G01*
X221015000Y-83901000D01*
G75*
G02*
X221165000Y-84051000I0J-150000D01*
G01*
X221165000Y-84351000D01*
G75*
G02*
X221015000Y-84501000I-150000J0D01*
G01*
X219265000Y-84501000D01*
G75*
G02*
X219115000Y-84351000I0J150000D01*
G01*
G37*
G36*
G01*
X219115000Y-85621000D02*
X219115000Y-85321000D01*
G75*
G02*
X219265000Y-85171000I150000J0D01*
G01*
X221015000Y-85171000D01*
G75*
G02*
X221165000Y-85321000I0J-150000D01*
G01*
X221165000Y-85621000D01*
G75*
G02*
X221015000Y-85771000I-150000J0D01*
G01*
X219265000Y-85771000D01*
G75*
G02*
X219115000Y-85621000I0J150000D01*
G01*
G37*
G36*
G01*
X219115000Y-86891000D02*
X219115000Y-86591000D01*
G75*
G02*
X219265000Y-86441000I150000J0D01*
G01*
X221015000Y-86441000D01*
G75*
G02*
X221165000Y-86591000I0J-150000D01*
G01*
X221165000Y-86891000D01*
G75*
G02*
X221015000Y-87041000I-150000J0D01*
G01*
X219265000Y-87041000D01*
G75*
G02*
X219115000Y-86891000I0J150000D01*
G01*
G37*
G36*
G01*
X219115000Y-70000000D02*
X219115000Y-69700000D01*
G75*
G02*
X219265000Y-69550000I150000J0D01*
G01*
X221015000Y-69550000D01*
G75*
G02*
X221165000Y-69700000I0J-150000D01*
G01*
X221165000Y-70000000D01*
G75*
G02*
X221015000Y-70150000I-150000J0D01*
G01*
X219265000Y-70150000D01*
G75*
G02*
X219115000Y-70000000I0J150000D01*
G01*
G37*
G36*
G01*
X219115000Y-68730000D02*
X219115000Y-68430000D01*
G75*
G02*
X219265000Y-68280000I150000J0D01*
G01*
X221015000Y-68280000D01*
G75*
G02*
X221165000Y-68430000I0J-150000D01*
G01*
X221165000Y-68730000D01*
G75*
G02*
X221015000Y-68880000I-150000J0D01*
G01*
X219265000Y-68880000D01*
G75*
G02*
X219115000Y-68730000I0J150000D01*
G01*
G37*
G36*
G01*
X219115000Y-67460000D02*
X219115000Y-67160000D01*
G75*
G02*
X219265000Y-67010000I150000J0D01*
G01*
X221015000Y-67010000D01*
G75*
G02*
X221165000Y-67160000I0J-150000D01*
G01*
X221165000Y-67460000D01*
G75*
G02*
X221015000Y-67610000I-150000J0D01*
G01*
X219265000Y-67610000D01*
G75*
G02*
X219115000Y-67460000I0J150000D01*
G01*
G37*
G36*
G01*
X219115000Y-66190000D02*
X219115000Y-65890000D01*
G75*
G02*
X219265000Y-65740000I150000J0D01*
G01*
X221015000Y-65740000D01*
G75*
G02*
X221165000Y-65890000I0J-150000D01*
G01*
X221165000Y-66190000D01*
G75*
G02*
X221015000Y-66340000I-150000J0D01*
G01*
X219265000Y-66340000D01*
G75*
G02*
X219115000Y-66190000I0J150000D01*
G01*
G37*
G36*
G01*
X219115000Y-64920000D02*
X219115000Y-64620000D01*
G75*
G02*
X219265000Y-64470000I150000J0D01*
G01*
X221015000Y-64470000D01*
G75*
G02*
X221165000Y-64620000I0J-150000D01*
G01*
X221165000Y-64920000D01*
G75*
G02*
X221015000Y-65070000I-150000J0D01*
G01*
X219265000Y-65070000D01*
G75*
G02*
X219115000Y-64920000I0J150000D01*
G01*
G37*
G36*
G01*
X219115000Y-63650000D02*
X219115000Y-63350000D01*
G75*
G02*
X219265000Y-63200000I150000J0D01*
G01*
X221015000Y-63200000D01*
G75*
G02*
X221165000Y-63350000I0J-150000D01*
G01*
X221165000Y-63650000D01*
G75*
G02*
X221015000Y-63800000I-150000J0D01*
G01*
X219265000Y-63800000D01*
G75*
G02*
X219115000Y-63650000I0J150000D01*
G01*
G37*
G36*
G01*
X219115000Y-62380000D02*
X219115000Y-62080000D01*
G75*
G02*
X219265000Y-61930000I150000J0D01*
G01*
X221015000Y-61930000D01*
G75*
G02*
X221165000Y-62080000I0J-150000D01*
G01*
X221165000Y-62380000D01*
G75*
G02*
X221015000Y-62530000I-150000J0D01*
G01*
X219265000Y-62530000D01*
G75*
G02*
X219115000Y-62380000I0J150000D01*
G01*
G37*
G36*
G01*
X219115000Y-61110000D02*
X219115000Y-60810000D01*
G75*
G02*
X219265000Y-60660000I150000J0D01*
G01*
X221015000Y-60660000D01*
G75*
G02*
X221165000Y-60810000I0J-150000D01*
G01*
X221165000Y-61110000D01*
G75*
G02*
X221015000Y-61260000I-150000J0D01*
G01*
X219265000Y-61260000D01*
G75*
G02*
X219115000Y-61110000I0J150000D01*
G01*
G37*
G36*
G01*
X219115000Y-59840000D02*
X219115000Y-59540000D01*
G75*
G02*
X219265000Y-59390000I150000J0D01*
G01*
X221015000Y-59390000D01*
G75*
G02*
X221165000Y-59540000I0J-150000D01*
G01*
X221165000Y-59840000D01*
G75*
G02*
X221015000Y-59990000I-150000J0D01*
G01*
X219265000Y-59990000D01*
G75*
G02*
X219115000Y-59840000I0J150000D01*
G01*
G37*
G36*
G01*
X219115000Y-58570000D02*
X219115000Y-58270000D01*
G75*
G02*
X219265000Y-58120000I150000J0D01*
G01*
X221015000Y-58120000D01*
G75*
G02*
X221165000Y-58270000I0J-150000D01*
G01*
X221165000Y-58570000D01*
G75*
G02*
X221015000Y-58720000I-150000J0D01*
G01*
X219265000Y-58720000D01*
G75*
G02*
X219115000Y-58570000I0J150000D01*
G01*
G37*
G36*
G01*
X228415000Y-58570000D02*
X228415000Y-58270000D01*
G75*
G02*
X228565000Y-58120000I150000J0D01*
G01*
X230315000Y-58120000D01*
G75*
G02*
X230465000Y-58270000I0J-150000D01*
G01*
X230465000Y-58570000D01*
G75*
G02*
X230315000Y-58720000I-150000J0D01*
G01*
X228565000Y-58720000D01*
G75*
G02*
X228415000Y-58570000I0J150000D01*
G01*
G37*
G36*
G01*
X228415000Y-59840000D02*
X228415000Y-59540000D01*
G75*
G02*
X228565000Y-59390000I150000J0D01*
G01*
X230315000Y-59390000D01*
G75*
G02*
X230465000Y-59540000I0J-150000D01*
G01*
X230465000Y-59840000D01*
G75*
G02*
X230315000Y-59990000I-150000J0D01*
G01*
X228565000Y-59990000D01*
G75*
G02*
X228415000Y-59840000I0J150000D01*
G01*
G37*
G36*
G01*
X228415000Y-61110000D02*
X228415000Y-60810000D01*
G75*
G02*
X228565000Y-60660000I150000J0D01*
G01*
X230315000Y-60660000D01*
G75*
G02*
X230465000Y-60810000I0J-150000D01*
G01*
X230465000Y-61110000D01*
G75*
G02*
X230315000Y-61260000I-150000J0D01*
G01*
X228565000Y-61260000D01*
G75*
G02*
X228415000Y-61110000I0J150000D01*
G01*
G37*
G36*
G01*
X228415000Y-62380000D02*
X228415000Y-62080000D01*
G75*
G02*
X228565000Y-61930000I150000J0D01*
G01*
X230315000Y-61930000D01*
G75*
G02*
X230465000Y-62080000I0J-150000D01*
G01*
X230465000Y-62380000D01*
G75*
G02*
X230315000Y-62530000I-150000J0D01*
G01*
X228565000Y-62530000D01*
G75*
G02*
X228415000Y-62380000I0J150000D01*
G01*
G37*
G36*
G01*
X228415000Y-63650000D02*
X228415000Y-63350000D01*
G75*
G02*
X228565000Y-63200000I150000J0D01*
G01*
X230315000Y-63200000D01*
G75*
G02*
X230465000Y-63350000I0J-150000D01*
G01*
X230465000Y-63650000D01*
G75*
G02*
X230315000Y-63800000I-150000J0D01*
G01*
X228565000Y-63800000D01*
G75*
G02*
X228415000Y-63650000I0J150000D01*
G01*
G37*
G36*
G01*
X228415000Y-64920000D02*
X228415000Y-64620000D01*
G75*
G02*
X228565000Y-64470000I150000J0D01*
G01*
X230315000Y-64470000D01*
G75*
G02*
X230465000Y-64620000I0J-150000D01*
G01*
X230465000Y-64920000D01*
G75*
G02*
X230315000Y-65070000I-150000J0D01*
G01*
X228565000Y-65070000D01*
G75*
G02*
X228415000Y-64920000I0J150000D01*
G01*
G37*
G36*
G01*
X228415000Y-66190000D02*
X228415000Y-65890000D01*
G75*
G02*
X228565000Y-65740000I150000J0D01*
G01*
X230315000Y-65740000D01*
G75*
G02*
X230465000Y-65890000I0J-150000D01*
G01*
X230465000Y-66190000D01*
G75*
G02*
X230315000Y-66340000I-150000J0D01*
G01*
X228565000Y-66340000D01*
G75*
G02*
X228415000Y-66190000I0J150000D01*
G01*
G37*
G36*
G01*
X228415000Y-67460000D02*
X228415000Y-67160000D01*
G75*
G02*
X228565000Y-67010000I150000J0D01*
G01*
X230315000Y-67010000D01*
G75*
G02*
X230465000Y-67160000I0J-150000D01*
G01*
X230465000Y-67460000D01*
G75*
G02*
X230315000Y-67610000I-150000J0D01*
G01*
X228565000Y-67610000D01*
G75*
G02*
X228415000Y-67460000I0J150000D01*
G01*
G37*
G36*
G01*
X228415000Y-68730000D02*
X228415000Y-68430000D01*
G75*
G02*
X228565000Y-68280000I150000J0D01*
G01*
X230315000Y-68280000D01*
G75*
G02*
X230465000Y-68430000I0J-150000D01*
G01*
X230465000Y-68730000D01*
G75*
G02*
X230315000Y-68880000I-150000J0D01*
G01*
X228565000Y-68880000D01*
G75*
G02*
X228415000Y-68730000I0J150000D01*
G01*
G37*
G36*
G01*
X228415000Y-70000000D02*
X228415000Y-69700000D01*
G75*
G02*
X228565000Y-69550000I150000J0D01*
G01*
X230315000Y-69550000D01*
G75*
G02*
X230465000Y-69700000I0J-150000D01*
G01*
X230465000Y-70000000D01*
G75*
G02*
X230315000Y-70150000I-150000J0D01*
G01*
X228565000Y-70150000D01*
G75*
G02*
X228415000Y-70000000I0J150000D01*
G01*
G37*
G36*
G01*
X203117500Y-90915500D02*
X203117500Y-90440500D01*
G75*
G02*
X203355000Y-90203000I237500J0D01*
G01*
X203955000Y-90203000D01*
G75*
G02*
X204192500Y-90440500I0J-237500D01*
G01*
X204192500Y-90915500D01*
G75*
G02*
X203955000Y-91153000I-237500J0D01*
G01*
X203355000Y-91153000D01*
G75*
G02*
X203117500Y-90915500I0J237500D01*
G01*
G37*
G36*
G01*
X201392500Y-90915500D02*
X201392500Y-90440500D01*
G75*
G02*
X201630000Y-90203000I237500J0D01*
G01*
X202230000Y-90203000D01*
G75*
G02*
X202467500Y-90440500I0J-237500D01*
G01*
X202467500Y-90915500D01*
G75*
G02*
X202230000Y-91153000I-237500J0D01*
G01*
X201630000Y-91153000D01*
G75*
G02*
X201392500Y-90915500I0J237500D01*
G01*
G37*
G36*
G01*
X204994500Y-72307500D02*
X205469500Y-72307500D01*
G75*
G02*
X205707000Y-72545000I0J-237500D01*
G01*
X205707000Y-73145000D01*
G75*
G02*
X205469500Y-73382500I-237500J0D01*
G01*
X204994500Y-73382500D01*
G75*
G02*
X204757000Y-73145000I0J237500D01*
G01*
X204757000Y-72545000D01*
G75*
G02*
X204994500Y-72307500I237500J0D01*
G01*
G37*
G36*
G01*
X204994500Y-70582500D02*
X205469500Y-70582500D01*
G75*
G02*
X205707000Y-70820000I0J-237500D01*
G01*
X205707000Y-71420000D01*
G75*
G02*
X205469500Y-71657500I-237500J0D01*
G01*
X204994500Y-71657500D01*
G75*
G02*
X204757000Y-71420000I0J237500D01*
G01*
X204757000Y-70820000D01*
G75*
G02*
X204994500Y-70582500I237500J0D01*
G01*
G37*
G36*
G01*
X200742500Y-112284500D02*
X200742500Y-112759500D01*
G75*
G02*
X200505000Y-112997000I-237500J0D01*
G01*
X199905000Y-112997000D01*
G75*
G02*
X199667500Y-112759500I0J237500D01*
G01*
X199667500Y-112284500D01*
G75*
G02*
X199905000Y-112047000I237500J0D01*
G01*
X200505000Y-112047000D01*
G75*
G02*
X200742500Y-112284500I0J-237500D01*
G01*
G37*
G36*
G01*
X202467500Y-112284500D02*
X202467500Y-112759500D01*
G75*
G02*
X202230000Y-112997000I-237500J0D01*
G01*
X201630000Y-112997000D01*
G75*
G02*
X201392500Y-112759500I0J237500D01*
G01*
X201392500Y-112284500D01*
G75*
G02*
X201630000Y-112047000I237500J0D01*
G01*
X202230000Y-112047000D01*
G75*
G02*
X202467500Y-112284500I0J-237500D01*
G01*
G37*
G36*
G01*
X201392500Y-134349500D02*
X201392500Y-133874500D01*
G75*
G02*
X201630000Y-133637000I237500J0D01*
G01*
X202230000Y-133637000D01*
G75*
G02*
X202467500Y-133874500I0J-237500D01*
G01*
X202467500Y-134349500D01*
G75*
G02*
X202230000Y-134587000I-237500J0D01*
G01*
X201630000Y-134587000D01*
G75*
G02*
X201392500Y-134349500I0J237500D01*
G01*
G37*
G36*
G01*
X203117500Y-134349500D02*
X203117500Y-133874500D01*
G75*
G02*
X203355000Y-133637000I237500J0D01*
G01*
X203955000Y-133637000D01*
G75*
G02*
X204192500Y-133874500I0J-237500D01*
G01*
X204192500Y-134349500D01*
G75*
G02*
X203955000Y-134587000I-237500J0D01*
G01*
X203355000Y-134587000D01*
G75*
G02*
X203117500Y-134349500I0J237500D01*
G01*
G37*
G36*
G01*
X146541500Y-137263500D02*
X146066500Y-137263500D01*
G75*
G02*
X145829000Y-137026000I0J237500D01*
G01*
X145829000Y-136426000D01*
G75*
G02*
X146066500Y-136188500I237500J0D01*
G01*
X146541500Y-136188500D01*
G75*
G02*
X146779000Y-136426000I0J-237500D01*
G01*
X146779000Y-137026000D01*
G75*
G02*
X146541500Y-137263500I-237500J0D01*
G01*
G37*
G36*
G01*
X146541500Y-135538500D02*
X146066500Y-135538500D01*
G75*
G02*
X145829000Y-135301000I0J237500D01*
G01*
X145829000Y-134701000D01*
G75*
G02*
X146066500Y-134463500I237500J0D01*
G01*
X146541500Y-134463500D01*
G75*
G02*
X146779000Y-134701000I0J-237500D01*
G01*
X146779000Y-135301000D01*
G75*
G02*
X146541500Y-135538500I-237500J0D01*
G01*
G37*
G36*
G01*
X152891500Y-137263500D02*
X152416500Y-137263500D01*
G75*
G02*
X152179000Y-137026000I0J237500D01*
G01*
X152179000Y-136426000D01*
G75*
G02*
X152416500Y-136188500I237500J0D01*
G01*
X152891500Y-136188500D01*
G75*
G02*
X153129000Y-136426000I0J-237500D01*
G01*
X153129000Y-137026000D01*
G75*
G02*
X152891500Y-137263500I-237500J0D01*
G01*
G37*
G36*
G01*
X152891500Y-135538500D02*
X152416500Y-135538500D01*
G75*
G02*
X152179000Y-135301000I0J237500D01*
G01*
X152179000Y-134701000D01*
G75*
G02*
X152416500Y-134463500I237500J0D01*
G01*
X152891500Y-134463500D01*
G75*
G02*
X153129000Y-134701000I0J-237500D01*
G01*
X153129000Y-135301000D01*
G75*
G02*
X152891500Y-135538500I-237500J0D01*
G01*
G37*
G36*
G01*
X125111500Y-123869500D02*
X125586500Y-123869500D01*
G75*
G02*
X125824000Y-124107000I0J-237500D01*
G01*
X125824000Y-124707000D01*
G75*
G02*
X125586500Y-124944500I-237500J0D01*
G01*
X125111500Y-124944500D01*
G75*
G02*
X124874000Y-124707000I0J237500D01*
G01*
X124874000Y-124107000D01*
G75*
G02*
X125111500Y-123869500I237500J0D01*
G01*
G37*
G36*
G01*
X125111500Y-122144500D02*
X125586500Y-122144500D01*
G75*
G02*
X125824000Y-122382000I0J-237500D01*
G01*
X125824000Y-122982000D01*
G75*
G02*
X125586500Y-123219500I-237500J0D01*
G01*
X125111500Y-123219500D01*
G75*
G02*
X124874000Y-122982000I0J237500D01*
G01*
X124874000Y-122382000D01*
G75*
G02*
X125111500Y-122144500I237500J0D01*
G01*
G37*
G36*
G01*
X228824500Y-89645500D02*
X228824500Y-89170500D01*
G75*
G02*
X229062000Y-88933000I237500J0D01*
G01*
X229662000Y-88933000D01*
G75*
G02*
X229899500Y-89170500I0J-237500D01*
G01*
X229899500Y-89645500D01*
G75*
G02*
X229662000Y-89883000I-237500J0D01*
G01*
X229062000Y-89883000D01*
G75*
G02*
X228824500Y-89645500I0J237500D01*
G01*
G37*
G36*
G01*
X230549500Y-89645500D02*
X230549500Y-89170500D01*
G75*
G02*
X230787000Y-88933000I237500J0D01*
G01*
X231387000Y-88933000D01*
G75*
G02*
X231624500Y-89170500I0J-237500D01*
G01*
X231624500Y-89645500D01*
G75*
G02*
X231387000Y-89883000I-237500J0D01*
G01*
X230787000Y-89883000D01*
G75*
G02*
X230549500Y-89645500I0J237500D01*
G01*
G37*
G36*
G01*
X230549500Y-72881500D02*
X230549500Y-72406500D01*
G75*
G02*
X230787000Y-72169000I237500J0D01*
G01*
X231387000Y-72169000D01*
G75*
G02*
X231624500Y-72406500I0J-237500D01*
G01*
X231624500Y-72881500D01*
G75*
G02*
X231387000Y-73119000I-237500J0D01*
G01*
X230787000Y-73119000D01*
G75*
G02*
X230549500Y-72881500I0J237500D01*
G01*
G37*
G36*
G01*
X228824500Y-72881500D02*
X228824500Y-72406500D01*
G75*
G02*
X229062000Y-72169000I237500J0D01*
G01*
X229662000Y-72169000D01*
G75*
G02*
X229899500Y-72406500I0J-237500D01*
G01*
X229899500Y-72881500D01*
G75*
G02*
X229662000Y-73119000I-237500J0D01*
G01*
X229062000Y-73119000D01*
G75*
G02*
X228824500Y-72881500I0J237500D01*
G01*
G37*
G36*
G01*
X230549500Y-111489500D02*
X230549500Y-111014500D01*
G75*
G02*
X230787000Y-110777000I237500J0D01*
G01*
X231387000Y-110777000D01*
G75*
G02*
X231624500Y-111014500I0J-237500D01*
G01*
X231624500Y-111489500D01*
G75*
G02*
X231387000Y-111727000I-237500J0D01*
G01*
X230787000Y-111727000D01*
G75*
G02*
X230549500Y-111489500I0J237500D01*
G01*
G37*
G36*
G01*
X228824500Y-111489500D02*
X228824500Y-111014500D01*
G75*
G02*
X229062000Y-110777000I237500J0D01*
G01*
X229662000Y-110777000D01*
G75*
G02*
X229899500Y-111014500I0J-237500D01*
G01*
X229899500Y-111489500D01*
G75*
G02*
X229662000Y-111727000I-237500J0D01*
G01*
X229062000Y-111727000D01*
G75*
G02*
X228824500Y-111489500I0J237500D01*
G01*
G37*
G36*
G01*
X228824500Y-133079500D02*
X228824500Y-132604500D01*
G75*
G02*
X229062000Y-132367000I237500J0D01*
G01*
X229662000Y-132367000D01*
G75*
G02*
X229899500Y-132604500I0J-237500D01*
G01*
X229899500Y-133079500D01*
G75*
G02*
X229662000Y-133317000I-237500J0D01*
G01*
X229062000Y-133317000D01*
G75*
G02*
X228824500Y-133079500I0J237500D01*
G01*
G37*
G36*
G01*
X230549500Y-133079500D02*
X230549500Y-132604500D01*
G75*
G02*
X230787000Y-132367000I237500J0D01*
G01*
X231387000Y-132367000D01*
G75*
G02*
X231624500Y-132604500I0J-237500D01*
G01*
X231624500Y-133079500D01*
G75*
G02*
X231387000Y-133317000I-237500J0D01*
G01*
X230787000Y-133317000D01*
G75*
G02*
X230549500Y-133079500I0J237500D01*
G01*
G37*
D26*
X238760000Y-60960000D03*
X238760000Y-63500000D03*
X238760000Y-66040000D03*
X238760000Y-68580000D03*
X238760000Y-71120000D03*
X238760000Y-73660000D03*
X238760000Y-76200000D03*
X238760000Y-78740000D03*
X238760000Y-81280000D03*
X238760000Y-83820000D03*
X238760000Y-86360000D03*
X238760000Y-88900000D03*
X238760000Y-91440000D03*
X238760000Y-93980000D03*
X238760000Y-96520000D03*
X238760000Y-99060000D03*
X238760000Y-101600000D03*
X238760000Y-104140000D03*
X238760000Y-106680000D03*
X238760000Y-109220000D03*
X238760000Y-111760000D03*
X238760000Y-114300000D03*
X238760000Y-116840000D03*
X238760000Y-119380000D03*
X238760000Y-121920000D03*
X238760000Y-124460000D03*
X238760000Y-127000000D03*
X238760000Y-129540000D03*
X238760000Y-132080000D03*
X238760000Y-134620000D03*
X238760000Y-137160000D03*
X238760000Y-139700000D03*
X243840000Y-139700000D03*
X243840000Y-137160000D03*
X243840000Y-134620000D03*
X243840000Y-132080000D03*
X243840000Y-129540000D03*
X243840000Y-127000000D03*
X243840000Y-124460000D03*
X243840000Y-121920000D03*
X243840000Y-119380000D03*
X243840000Y-116840000D03*
X243840000Y-114300000D03*
X243840000Y-111760000D03*
X243840000Y-109220000D03*
X243840000Y-106680000D03*
X243840000Y-104140000D03*
X243840000Y-101600000D03*
X243840000Y-99060000D03*
X243840000Y-96520000D03*
X243840000Y-93980000D03*
X243840000Y-91440000D03*
X243840000Y-88900000D03*
X243840000Y-86360000D03*
X243840000Y-83820000D03*
X243840000Y-81280000D03*
X243840000Y-78740000D03*
X243840000Y-76200000D03*
X243840000Y-73660000D03*
X243840000Y-71120000D03*
X243840000Y-68580000D03*
X243840000Y-66040000D03*
X243840000Y-63500000D03*
X243840000Y-60960000D03*
D27*
X246380000Y-144780000D03*
X246380000Y-55880000D03*
G36*
G01*
X152937500Y-105807500D02*
X152937500Y-106282500D01*
G75*
G02*
X152700000Y-106520000I-237500J0D01*
G01*
X152100000Y-106520000D01*
G75*
G02*
X151862500Y-106282500I0J237500D01*
G01*
X151862500Y-105807500D01*
G75*
G02*
X152100000Y-105570000I237500J0D01*
G01*
X152700000Y-105570000D01*
G75*
G02*
X152937500Y-105807500I0J-237500D01*
G01*
G37*
G36*
G01*
X154662500Y-105807500D02*
X154662500Y-106282500D01*
G75*
G02*
X154425000Y-106520000I-237500J0D01*
G01*
X153825000Y-106520000D01*
G75*
G02*
X153587500Y-106282500I0J237500D01*
G01*
X153587500Y-105807500D01*
G75*
G02*
X153825000Y-105570000I237500J0D01*
G01*
X154425000Y-105570000D01*
G75*
G02*
X154662500Y-105807500I0J-237500D01*
G01*
G37*
G36*
G01*
X141207500Y-106582500D02*
X140732500Y-106582500D01*
G75*
G02*
X140495000Y-106345000I0J237500D01*
G01*
X140495000Y-105745000D01*
G75*
G02*
X140732500Y-105507500I237500J0D01*
G01*
X141207500Y-105507500D01*
G75*
G02*
X141445000Y-105745000I0J-237500D01*
G01*
X141445000Y-106345000D01*
G75*
G02*
X141207500Y-106582500I-237500J0D01*
G01*
G37*
G36*
G01*
X141207500Y-104857500D02*
X140732500Y-104857500D01*
G75*
G02*
X140495000Y-104620000I0J237500D01*
G01*
X140495000Y-104020000D01*
G75*
G02*
X140732500Y-103782500I237500J0D01*
G01*
X141207500Y-103782500D01*
G75*
G02*
X141445000Y-104020000I0J-237500D01*
G01*
X141445000Y-104620000D01*
G75*
G02*
X141207500Y-104857500I-237500J0D01*
G01*
G37*
D24*
X92075000Y-60325000D03*
X92075000Y-66675000D03*
D15*
X104775000Y-58420000D03*
D14*
X107315000Y-60960000D03*
X107315000Y-55880000D03*
X102235000Y-55880000D03*
X102235000Y-60960000D03*
D15*
X116205000Y-58420000D03*
D14*
X118745000Y-60960000D03*
X118745000Y-55880000D03*
X113665000Y-55880000D03*
X113665000Y-60960000D03*
G36*
G01*
X127450001Y-97660000D02*
X126549999Y-97660000D01*
G75*
G02*
X126300000Y-97410001I0J249999D01*
G01*
X126300000Y-96709999D01*
G75*
G02*
X126549999Y-96460000I249999J0D01*
G01*
X127450001Y-96460000D01*
G75*
G02*
X127700000Y-96709999I0J-249999D01*
G01*
X127700000Y-97410001D01*
G75*
G02*
X127450001Y-97660000I-249999J0D01*
G01*
G37*
G36*
G01*
X127450001Y-99660000D02*
X126549999Y-99660000D01*
G75*
G02*
X126300000Y-99410001I0J249999D01*
G01*
X126300000Y-98709999D01*
G75*
G02*
X126549999Y-98460000I249999J0D01*
G01*
X127450001Y-98460000D01*
G75*
G02*
X127700000Y-98709999I0J-249999D01*
G01*
X127700000Y-99410001D01*
G75*
G02*
X127450001Y-99660000I-249999J0D01*
G01*
G37*
G36*
G01*
X124275001Y-99660000D02*
X123374999Y-99660000D01*
G75*
G02*
X123125000Y-99410001I0J249999D01*
G01*
X123125000Y-98709999D01*
G75*
G02*
X123374999Y-98460000I249999J0D01*
G01*
X124275001Y-98460000D01*
G75*
G02*
X124525000Y-98709999I0J-249999D01*
G01*
X124525000Y-99410001D01*
G75*
G02*
X124275001Y-99660000I-249999J0D01*
G01*
G37*
G36*
G01*
X124275001Y-97660000D02*
X123374999Y-97660000D01*
G75*
G02*
X123125000Y-97410001I0J249999D01*
G01*
X123125000Y-96709999D01*
G75*
G02*
X123374999Y-96460000I249999J0D01*
G01*
X124275001Y-96460000D01*
G75*
G02*
X124525000Y-96709999I0J-249999D01*
G01*
X124525000Y-97410001D01*
G75*
G02*
X124275001Y-97660000I-249999J0D01*
G01*
G37*
G36*
G01*
X129724999Y-100460000D02*
X130625001Y-100460000D01*
G75*
G02*
X130875000Y-100709999I0J-249999D01*
G01*
X130875000Y-101410001D01*
G75*
G02*
X130625001Y-101660000I-249999J0D01*
G01*
X129724999Y-101660000D01*
G75*
G02*
X129475000Y-101410001I0J249999D01*
G01*
X129475000Y-100709999D01*
G75*
G02*
X129724999Y-100460000I249999J0D01*
G01*
G37*
G36*
G01*
X129724999Y-98460000D02*
X130625001Y-98460000D01*
G75*
G02*
X130875000Y-98709999I0J-249999D01*
G01*
X130875000Y-99410001D01*
G75*
G02*
X130625001Y-99660000I-249999J0D01*
G01*
X129724999Y-99660000D01*
G75*
G02*
X129475000Y-99410001I0J249999D01*
G01*
X129475000Y-98709999D01*
G75*
G02*
X129724999Y-98460000I249999J0D01*
G01*
G37*
G36*
G01*
X121100001Y-99660000D02*
X120199999Y-99660000D01*
G75*
G02*
X119950000Y-99410001I0J249999D01*
G01*
X119950000Y-98709999D01*
G75*
G02*
X120199999Y-98460000I249999J0D01*
G01*
X121100001Y-98460000D01*
G75*
G02*
X121350000Y-98709999I0J-249999D01*
G01*
X121350000Y-99410001D01*
G75*
G02*
X121100001Y-99660000I-249999J0D01*
G01*
G37*
G36*
G01*
X121100001Y-97660000D02*
X120199999Y-97660000D01*
G75*
G02*
X119950000Y-97410001I0J249999D01*
G01*
X119950000Y-96709999D01*
G75*
G02*
X120199999Y-96460000I249999J0D01*
G01*
X121100001Y-96460000D01*
G75*
G02*
X121350000Y-96709999I0J-249999D01*
G01*
X121350000Y-97410001D01*
G75*
G02*
X121100001Y-97660000I-249999J0D01*
G01*
G37*
G36*
G01*
X133800001Y-97660000D02*
X132899999Y-97660000D01*
G75*
G02*
X132650000Y-97410001I0J249999D01*
G01*
X132650000Y-96709999D01*
G75*
G02*
X132899999Y-96460000I249999J0D01*
G01*
X133800001Y-96460000D01*
G75*
G02*
X134050000Y-96709999I0J-249999D01*
G01*
X134050000Y-97410001D01*
G75*
G02*
X133800001Y-97660000I-249999J0D01*
G01*
G37*
G36*
G01*
X133800001Y-99660000D02*
X132899999Y-99660000D01*
G75*
G02*
X132650000Y-99410001I0J249999D01*
G01*
X132650000Y-98709999D01*
G75*
G02*
X132899999Y-98460000I249999J0D01*
G01*
X133800001Y-98460000D01*
G75*
G02*
X134050000Y-98709999I0J-249999D01*
G01*
X134050000Y-99410001D01*
G75*
G02*
X133800001Y-99660000I-249999J0D01*
G01*
G37*
G36*
G01*
X136975001Y-99660000D02*
X136074999Y-99660000D01*
G75*
G02*
X135825000Y-99410001I0J249999D01*
G01*
X135825000Y-98709999D01*
G75*
G02*
X136074999Y-98460000I249999J0D01*
G01*
X136975001Y-98460000D01*
G75*
G02*
X137225000Y-98709999I0J-249999D01*
G01*
X137225000Y-99410001D01*
G75*
G02*
X136975001Y-99660000I-249999J0D01*
G01*
G37*
G36*
G01*
X136975001Y-97660000D02*
X136074999Y-97660000D01*
G75*
G02*
X135825000Y-97410001I0J249999D01*
G01*
X135825000Y-96709999D01*
G75*
G02*
X136074999Y-96460000I249999J0D01*
G01*
X136975001Y-96460000D01*
G75*
G02*
X137225000Y-96709999I0J-249999D01*
G01*
X137225000Y-97410001D01*
G75*
G02*
X136975001Y-97660000I-249999J0D01*
G01*
G37*
D15*
X139700000Y-58420000D03*
D14*
X142240000Y-60960000D03*
X142240000Y-55880000D03*
X137160000Y-55880000D03*
X137160000Y-60960000D03*
X125730000Y-60960000D03*
X125730000Y-55880000D03*
X130810000Y-55880000D03*
X130810000Y-60960000D03*
D15*
X128270000Y-58420000D03*
D24*
X92075000Y-74295000D03*
X92075000Y-80645000D03*
D13*
X135890000Y-116840000D03*
D12*
X133350000Y-116840000D03*
D13*
X160655000Y-68580000D03*
D12*
X158115000Y-68580000D03*
X155575000Y-68580000D03*
X153035000Y-68580000D03*
X150495000Y-68580000D03*
X147955000Y-68580000D03*
X145415000Y-68580000D03*
X142875000Y-68580000D03*
D13*
X160655000Y-71120000D03*
D12*
X158115000Y-71120000D03*
X155575000Y-71120000D03*
X153035000Y-71120000D03*
X138430000Y-116840000D03*
X138430000Y-114300000D03*
X140970000Y-116840000D03*
X140970000Y-114300000D03*
X143510000Y-116840000D03*
X143510000Y-114300000D03*
X146050000Y-116840000D03*
X146050000Y-114300000D03*
X148590000Y-116840000D03*
X148590000Y-114300000D03*
X151130000Y-116840000D03*
X151130000Y-114300000D03*
X153670000Y-116840000D03*
X153670000Y-114300000D03*
X156210000Y-116840000D03*
D13*
X156210000Y-114300000D03*
X178435000Y-114300000D03*
D12*
X178435000Y-116840000D03*
X175895000Y-114300000D03*
X175895000Y-116840000D03*
X173355000Y-114300000D03*
X173355000Y-116840000D03*
X170815000Y-114300000D03*
X170815000Y-116840000D03*
X168275000Y-114300000D03*
X168275000Y-116840000D03*
X165735000Y-114300000D03*
X165735000Y-116840000D03*
X163195000Y-114300000D03*
X163195000Y-116840000D03*
X160655000Y-114300000D03*
X160655000Y-116840000D03*
D22*
X193294000Y-139700000D03*
X166243000Y-127127000D03*
X238760000Y-54610000D03*
X234950000Y-84455000D03*
X234950000Y-128270000D03*
X216916000Y-132080000D03*
X142240000Y-126873000D03*
X125349000Y-130175000D03*
X162052000Y-55880000D03*
M02*
