G04 #@! TF.GenerationSoftware,KiCad,Pcbnew,(5.1.5)-3*
G04 #@! TF.CreationDate,2020-02-25T10:17:19+01:00*
G04 #@! TF.ProjectId,FPGA_buffer_board,46504741-5f62-4756-9666-65725f626f61,1.1*
G04 #@! TF.SameCoordinates,Original*
G04 #@! TF.FileFunction,Legend,Top*
G04 #@! TF.FilePolarity,Positive*
%FSLAX46Y46*%
G04 Gerber Fmt 4.6, Leading zero omitted, Abs format (unit mm)*
G04 Created by KiCad (PCBNEW (5.1.5)-3) date 2020-02-25 10:17:19*
%MOMM*%
%LPD*%
G04 APERTURE LIST*
%ADD10C,0.150000*%
%ADD11C,0.300000*%
%ADD12C,0.120000*%
G04 APERTURE END LIST*
D10*
X94861428Y-64555714D02*
X95242380Y-64555714D01*
X95004285Y-64222380D02*
X95004285Y-65079523D01*
X95051904Y-65174761D01*
X95147142Y-65222380D01*
X95242380Y-65222380D01*
X95575714Y-65222380D02*
X95575714Y-64555714D01*
X95575714Y-64746190D02*
X95623333Y-64650952D01*
X95670952Y-64603333D01*
X95766190Y-64555714D01*
X95861428Y-64555714D01*
X96623333Y-64555714D02*
X96623333Y-65365238D01*
X96575714Y-65460476D01*
X96528095Y-65508095D01*
X96432857Y-65555714D01*
X96290000Y-65555714D01*
X96194761Y-65508095D01*
X96623333Y-65174761D02*
X96528095Y-65222380D01*
X96337619Y-65222380D01*
X96242380Y-65174761D01*
X96194761Y-65127142D01*
X96147142Y-65031904D01*
X96147142Y-64746190D01*
X96194761Y-64650952D01*
X96242380Y-64603333D01*
X96337619Y-64555714D01*
X96528095Y-64555714D01*
X96623333Y-64603333D01*
X97813809Y-65174761D02*
X97909047Y-65222380D01*
X98099523Y-65222380D01*
X98194761Y-65174761D01*
X98242380Y-65079523D01*
X98242380Y-65031904D01*
X98194761Y-64936666D01*
X98099523Y-64889047D01*
X97956666Y-64889047D01*
X97861428Y-64841428D01*
X97813809Y-64746190D01*
X97813809Y-64698571D01*
X97861428Y-64603333D01*
X97956666Y-64555714D01*
X98099523Y-64555714D01*
X98194761Y-64603333D01*
X98528095Y-64555714D02*
X98909047Y-64555714D01*
X98670952Y-64222380D02*
X98670952Y-65079523D01*
X98718571Y-65174761D01*
X98813809Y-65222380D01*
X98909047Y-65222380D01*
X99385238Y-65222380D02*
X99290000Y-65174761D01*
X99242380Y-65127142D01*
X99194761Y-65031904D01*
X99194761Y-64746190D01*
X99242380Y-64650952D01*
X99290000Y-64603333D01*
X99385238Y-64555714D01*
X99528095Y-64555714D01*
X99623333Y-64603333D01*
X99670952Y-64650952D01*
X99718571Y-64746190D01*
X99718571Y-65031904D01*
X99670952Y-65127142D01*
X99623333Y-65174761D01*
X99528095Y-65222380D01*
X99385238Y-65222380D01*
X100147142Y-64555714D02*
X100147142Y-65555714D01*
X100147142Y-64603333D02*
X100242380Y-64555714D01*
X100432857Y-64555714D01*
X100528095Y-64603333D01*
X100575714Y-64650952D01*
X100623333Y-64746190D01*
X100623333Y-65031904D01*
X100575714Y-65127142D01*
X100528095Y-65174761D01*
X100432857Y-65222380D01*
X100242380Y-65222380D01*
X100147142Y-65174761D01*
X94718571Y-78525714D02*
X95099523Y-78525714D01*
X94861428Y-78192380D02*
X94861428Y-79049523D01*
X94909047Y-79144761D01*
X95004285Y-79192380D01*
X95099523Y-79192380D01*
X95432857Y-79192380D02*
X95432857Y-78525714D01*
X95432857Y-78716190D02*
X95480476Y-78620952D01*
X95528095Y-78573333D01*
X95623333Y-78525714D01*
X95718571Y-78525714D01*
X96480476Y-78525714D02*
X96480476Y-79335238D01*
X96432857Y-79430476D01*
X96385238Y-79478095D01*
X96290000Y-79525714D01*
X96147142Y-79525714D01*
X96051904Y-79478095D01*
X96480476Y-79144761D02*
X96385238Y-79192380D01*
X96194761Y-79192380D01*
X96099523Y-79144761D01*
X96051904Y-79097142D01*
X96004285Y-79001904D01*
X96004285Y-78716190D01*
X96051904Y-78620952D01*
X96099523Y-78573333D01*
X96194761Y-78525714D01*
X96385238Y-78525714D01*
X96480476Y-78573333D01*
X97670952Y-79144761D02*
X97766190Y-79192380D01*
X97956666Y-79192380D01*
X98051904Y-79144761D01*
X98099523Y-79049523D01*
X98099523Y-79001904D01*
X98051904Y-78906666D01*
X97956666Y-78859047D01*
X97813809Y-78859047D01*
X97718571Y-78811428D01*
X97670952Y-78716190D01*
X97670952Y-78668571D01*
X97718571Y-78573333D01*
X97813809Y-78525714D01*
X97956666Y-78525714D01*
X98051904Y-78573333D01*
X98385238Y-78525714D02*
X98766190Y-78525714D01*
X98528095Y-78192380D02*
X98528095Y-79049523D01*
X98575714Y-79144761D01*
X98670952Y-79192380D01*
X98766190Y-79192380D01*
X99528095Y-79192380D02*
X99528095Y-78668571D01*
X99480476Y-78573333D01*
X99385238Y-78525714D01*
X99194761Y-78525714D01*
X99099523Y-78573333D01*
X99528095Y-79144761D02*
X99432857Y-79192380D01*
X99194761Y-79192380D01*
X99099523Y-79144761D01*
X99051904Y-79049523D01*
X99051904Y-78954285D01*
X99099523Y-78859047D01*
X99194761Y-78811428D01*
X99432857Y-78811428D01*
X99528095Y-78763809D01*
X100004285Y-79192380D02*
X100004285Y-78525714D01*
X100004285Y-78716190D02*
X100051904Y-78620952D01*
X100099523Y-78573333D01*
X100194761Y-78525714D01*
X100290000Y-78525714D01*
X100480476Y-78525714D02*
X100861428Y-78525714D01*
X100623333Y-78192380D02*
X100623333Y-79049523D01*
X100670952Y-79144761D01*
X100766190Y-79192380D01*
X100861428Y-79192380D01*
X107966190Y-53125714D02*
X108347142Y-53125714D01*
X108109047Y-52792380D02*
X108109047Y-53649523D01*
X108156666Y-53744761D01*
X108251904Y-53792380D01*
X108347142Y-53792380D01*
X108680476Y-53792380D02*
X108680476Y-53125714D01*
X108680476Y-53316190D02*
X108728095Y-53220952D01*
X108775714Y-53173333D01*
X108870952Y-53125714D01*
X108966190Y-53125714D01*
X109728095Y-53125714D02*
X109728095Y-53935238D01*
X109680476Y-54030476D01*
X109632857Y-54078095D01*
X109537619Y-54125714D01*
X109394761Y-54125714D01*
X109299523Y-54078095D01*
X109728095Y-53744761D02*
X109632857Y-53792380D01*
X109442380Y-53792380D01*
X109347142Y-53744761D01*
X109299523Y-53697142D01*
X109251904Y-53601904D01*
X109251904Y-53316190D01*
X109299523Y-53220952D01*
X109347142Y-53173333D01*
X109442380Y-53125714D01*
X109632857Y-53125714D01*
X109728095Y-53173333D01*
X111109047Y-53792380D02*
X111013809Y-53744761D01*
X110966190Y-53697142D01*
X110918571Y-53601904D01*
X110918571Y-53316190D01*
X110966190Y-53220952D01*
X111013809Y-53173333D01*
X111109047Y-53125714D01*
X111251904Y-53125714D01*
X111347142Y-53173333D01*
X111394761Y-53220952D01*
X111442380Y-53316190D01*
X111442380Y-53601904D01*
X111394761Y-53697142D01*
X111347142Y-53744761D01*
X111251904Y-53792380D01*
X111109047Y-53792380D01*
X112299523Y-53125714D02*
X112299523Y-53792380D01*
X111870952Y-53125714D02*
X111870952Y-53649523D01*
X111918571Y-53744761D01*
X112013809Y-53792380D01*
X112156666Y-53792380D01*
X112251904Y-53744761D01*
X112299523Y-53697142D01*
X112632857Y-53125714D02*
X113013809Y-53125714D01*
X112775714Y-52792380D02*
X112775714Y-53649523D01*
X112823333Y-53744761D01*
X112918571Y-53792380D01*
X113013809Y-53792380D01*
X91099047Y-137564761D02*
X91003809Y-137612380D01*
X90813333Y-137612380D01*
X90718095Y-137564761D01*
X90670476Y-137517142D01*
X90622857Y-137421904D01*
X90622857Y-137136190D01*
X90670476Y-137040952D01*
X90718095Y-136993333D01*
X90813333Y-136945714D01*
X91003809Y-136945714D01*
X91099047Y-136993333D01*
X91670476Y-137612380D02*
X91575238Y-137564761D01*
X91527619Y-137469523D01*
X91527619Y-136612380D01*
X92194285Y-137612380D02*
X92099047Y-137564761D01*
X92051428Y-137517142D01*
X92003809Y-137421904D01*
X92003809Y-137136190D01*
X92051428Y-137040952D01*
X92099047Y-136993333D01*
X92194285Y-136945714D01*
X92337142Y-136945714D01*
X92432380Y-136993333D01*
X92480000Y-137040952D01*
X92527619Y-137136190D01*
X92527619Y-137421904D01*
X92480000Y-137517142D01*
X92432380Y-137564761D01*
X92337142Y-137612380D01*
X92194285Y-137612380D01*
X93384761Y-137564761D02*
X93289523Y-137612380D01*
X93099047Y-137612380D01*
X93003809Y-137564761D01*
X92956190Y-137517142D01*
X92908571Y-137421904D01*
X92908571Y-137136190D01*
X92956190Y-137040952D01*
X93003809Y-136993333D01*
X93099047Y-136945714D01*
X93289523Y-136945714D01*
X93384761Y-136993333D01*
X93813333Y-137612380D02*
X93813333Y-136612380D01*
X93908571Y-137231428D02*
X94194285Y-137612380D01*
X94194285Y-136945714D02*
X93813333Y-137326666D01*
X95527619Y-137612380D02*
X95432380Y-137564761D01*
X95384761Y-137517142D01*
X95337142Y-137421904D01*
X95337142Y-137136190D01*
X95384761Y-137040952D01*
X95432380Y-136993333D01*
X95527619Y-136945714D01*
X95670476Y-136945714D01*
X95765714Y-136993333D01*
X95813333Y-137040952D01*
X95860952Y-137136190D01*
X95860952Y-137421904D01*
X95813333Y-137517142D01*
X95765714Y-137564761D01*
X95670476Y-137612380D01*
X95527619Y-137612380D01*
X96718095Y-136945714D02*
X96718095Y-137612380D01*
X96289523Y-136945714D02*
X96289523Y-137469523D01*
X96337142Y-137564761D01*
X96432380Y-137612380D01*
X96575238Y-137612380D01*
X96670476Y-137564761D01*
X96718095Y-137517142D01*
X97051428Y-136945714D02*
X97432380Y-136945714D01*
X97194285Y-136612380D02*
X97194285Y-137469523D01*
X97241904Y-137564761D01*
X97337142Y-137612380D01*
X97432380Y-137612380D01*
X90964047Y-125499761D02*
X90868809Y-125547380D01*
X90678333Y-125547380D01*
X90583095Y-125499761D01*
X90535476Y-125452142D01*
X90487857Y-125356904D01*
X90487857Y-125071190D01*
X90535476Y-124975952D01*
X90583095Y-124928333D01*
X90678333Y-124880714D01*
X90868809Y-124880714D01*
X90964047Y-124928333D01*
X91535476Y-125547380D02*
X91440238Y-125499761D01*
X91392619Y-125404523D01*
X91392619Y-124547380D01*
X92059285Y-125547380D02*
X91964047Y-125499761D01*
X91916428Y-125452142D01*
X91868809Y-125356904D01*
X91868809Y-125071190D01*
X91916428Y-124975952D01*
X91964047Y-124928333D01*
X92059285Y-124880714D01*
X92202142Y-124880714D01*
X92297380Y-124928333D01*
X92345000Y-124975952D01*
X92392619Y-125071190D01*
X92392619Y-125356904D01*
X92345000Y-125452142D01*
X92297380Y-125499761D01*
X92202142Y-125547380D01*
X92059285Y-125547380D01*
X93249761Y-125499761D02*
X93154523Y-125547380D01*
X92964047Y-125547380D01*
X92868809Y-125499761D01*
X92821190Y-125452142D01*
X92773571Y-125356904D01*
X92773571Y-125071190D01*
X92821190Y-124975952D01*
X92868809Y-124928333D01*
X92964047Y-124880714D01*
X93154523Y-124880714D01*
X93249761Y-124928333D01*
X93678333Y-125547380D02*
X93678333Y-124547380D01*
X93773571Y-125166428D02*
X94059285Y-125547380D01*
X94059285Y-124880714D02*
X93678333Y-125261666D01*
X95249761Y-125547380D02*
X95249761Y-124880714D01*
X95249761Y-124547380D02*
X95202142Y-124595000D01*
X95249761Y-124642619D01*
X95297380Y-124595000D01*
X95249761Y-124547380D01*
X95249761Y-124642619D01*
X95725952Y-124880714D02*
X95725952Y-125547380D01*
X95725952Y-124975952D02*
X95773571Y-124928333D01*
X95868809Y-124880714D01*
X96011666Y-124880714D01*
X96106904Y-124928333D01*
X96154523Y-125023571D01*
X96154523Y-125547380D01*
D11*
X109377142Y-122455714D02*
X109305714Y-122527142D01*
X109091428Y-122598571D01*
X108948571Y-122598571D01*
X108734285Y-122527142D01*
X108591428Y-122384285D01*
X108520000Y-122241428D01*
X108448571Y-121955714D01*
X108448571Y-121741428D01*
X108520000Y-121455714D01*
X108591428Y-121312857D01*
X108734285Y-121170000D01*
X108948571Y-121098571D01*
X109091428Y-121098571D01*
X109305714Y-121170000D01*
X109377142Y-121241428D01*
X110234285Y-122598571D02*
X110091428Y-122527142D01*
X110020000Y-122455714D01*
X109948571Y-122312857D01*
X109948571Y-121884285D01*
X110020000Y-121741428D01*
X110091428Y-121670000D01*
X110234285Y-121598571D01*
X110448571Y-121598571D01*
X110591428Y-121670000D01*
X110662857Y-121741428D01*
X110734285Y-121884285D01*
X110734285Y-122312857D01*
X110662857Y-122455714D01*
X110591428Y-122527142D01*
X110448571Y-122598571D01*
X110234285Y-122598571D01*
X111377142Y-122598571D02*
X111377142Y-121598571D01*
X111377142Y-121884285D02*
X111448571Y-121741428D01*
X111520000Y-121670000D01*
X111662857Y-121598571D01*
X111805714Y-121598571D01*
X112948571Y-122598571D02*
X112948571Y-121812857D01*
X112877142Y-121670000D01*
X112734285Y-121598571D01*
X112448571Y-121598571D01*
X112305714Y-121670000D01*
X112948571Y-122527142D02*
X112805714Y-122598571D01*
X112448571Y-122598571D01*
X112305714Y-122527142D01*
X112234285Y-122384285D01*
X112234285Y-122241428D01*
X112305714Y-122098571D01*
X112448571Y-122027142D01*
X112805714Y-122027142D01*
X112948571Y-121955714D01*
X113662857Y-122027142D02*
X114805714Y-122027142D01*
X115377142Y-121098571D02*
X116377142Y-121098571D01*
X115377142Y-122598571D01*
X116377142Y-122598571D01*
X116805714Y-121098571D02*
X117805714Y-121098571D01*
X117162857Y-122598571D01*
X118377142Y-122027142D02*
X119520000Y-122027142D01*
X120520000Y-121098571D02*
X120662857Y-121098571D01*
X120805714Y-121170000D01*
X120877142Y-121241428D01*
X120948571Y-121384285D01*
X121020000Y-121670000D01*
X121020000Y-122027142D01*
X120948571Y-122312857D01*
X120877142Y-122455714D01*
X120805714Y-122527142D01*
X120662857Y-122598571D01*
X120520000Y-122598571D01*
X120377142Y-122527142D01*
X120305714Y-122455714D01*
X120234285Y-122312857D01*
X120162857Y-122027142D01*
X120162857Y-121670000D01*
X120234285Y-121384285D01*
X120305714Y-121241428D01*
X120377142Y-121170000D01*
X120520000Y-121098571D01*
X121520000Y-121098571D02*
X122520000Y-121098571D01*
X121877142Y-122598571D01*
X123020000Y-122527142D02*
X123234285Y-122598571D01*
X123591428Y-122598571D01*
X123734285Y-122527142D01*
X123805714Y-122455714D01*
X123877142Y-122312857D01*
X123877142Y-122170000D01*
X123805714Y-122027142D01*
X123734285Y-121955714D01*
X123591428Y-121884285D01*
X123305714Y-121812857D01*
X123162857Y-121741428D01*
X123091428Y-121670000D01*
X123020000Y-121527142D01*
X123020000Y-121384285D01*
X123091428Y-121241428D01*
X123162857Y-121170000D01*
X123305714Y-121098571D01*
X123662857Y-121098571D01*
X123877142Y-121170000D01*
X125591428Y-121027142D02*
X124305714Y-122955714D01*
X126877142Y-122598571D02*
X126020000Y-122598571D01*
X126448571Y-122598571D02*
X126448571Y-121098571D01*
X126305714Y-121312857D01*
X126162857Y-121455714D01*
X126020000Y-121527142D01*
X127805714Y-121098571D02*
X127948571Y-121098571D01*
X128091428Y-121170000D01*
X128162857Y-121241428D01*
X128234285Y-121384285D01*
X128305714Y-121670000D01*
X128305714Y-122027142D01*
X128234285Y-122312857D01*
X128162857Y-122455714D01*
X128091428Y-122527142D01*
X127948571Y-122598571D01*
X127805714Y-122598571D01*
X127662857Y-122527142D01*
X127591428Y-122455714D01*
X127520000Y-122312857D01*
X127448571Y-122027142D01*
X127448571Y-121670000D01*
X127520000Y-121384285D01*
X127591428Y-121241428D01*
X127662857Y-121170000D01*
X127805714Y-121098571D01*
X130877142Y-122598571D02*
X130020000Y-122598571D01*
X130448571Y-122598571D02*
X130448571Y-121098571D01*
X130305714Y-121312857D01*
X130162857Y-121455714D01*
X130020000Y-121527142D01*
X131805714Y-121098571D02*
X131948571Y-121098571D01*
X132091428Y-121170000D01*
X132162857Y-121241428D01*
X132234285Y-121384285D01*
X132305714Y-121670000D01*
X132305714Y-122027142D01*
X132234285Y-122312857D01*
X132162857Y-122455714D01*
X132091428Y-122527142D01*
X131948571Y-122598571D01*
X131805714Y-122598571D01*
X131662857Y-122527142D01*
X131591428Y-122455714D01*
X131520000Y-122312857D01*
X131448571Y-122027142D01*
X131448571Y-121670000D01*
X131520000Y-121384285D01*
X131591428Y-121241428D01*
X131662857Y-121170000D01*
X131805714Y-121098571D01*
X132877142Y-121241428D02*
X132948571Y-121170000D01*
X133091428Y-121098571D01*
X133448571Y-121098571D01*
X133591428Y-121170000D01*
X133662857Y-121241428D01*
X133734285Y-121384285D01*
X133734285Y-121527142D01*
X133662857Y-121741428D01*
X132805714Y-122598571D01*
X133734285Y-122598571D01*
X134377142Y-122598571D02*
X134377142Y-121598571D01*
X134377142Y-121741428D02*
X134448571Y-121670000D01*
X134591428Y-121598571D01*
X134805714Y-121598571D01*
X134948571Y-121670000D01*
X135020000Y-121812857D01*
X135020000Y-122598571D01*
X135020000Y-121812857D02*
X135091428Y-121670000D01*
X135234285Y-121598571D01*
X135448571Y-121598571D01*
X135591428Y-121670000D01*
X135662857Y-121812857D01*
X135662857Y-122598571D01*
X136377142Y-122598571D02*
X136377142Y-121598571D01*
X136377142Y-121741428D02*
X136448571Y-121670000D01*
X136591428Y-121598571D01*
X136805714Y-121598571D01*
X136948571Y-121670000D01*
X137020000Y-121812857D01*
X137020000Y-122598571D01*
X137020000Y-121812857D02*
X137091428Y-121670000D01*
X137234285Y-121598571D01*
X137448571Y-121598571D01*
X137591428Y-121670000D01*
X137662857Y-121812857D01*
X137662857Y-122598571D01*
X139377142Y-122598571D02*
X140162857Y-121598571D01*
X139377142Y-121598571D02*
X140162857Y-122598571D01*
X142591428Y-121098571D02*
X141877142Y-121098571D01*
X141805714Y-121812857D01*
X141877142Y-121741428D01*
X142020000Y-121670000D01*
X142377142Y-121670000D01*
X142520000Y-121741428D01*
X142591428Y-121812857D01*
X142662857Y-121955714D01*
X142662857Y-122312857D01*
X142591428Y-122455714D01*
X142520000Y-122527142D01*
X142377142Y-122598571D01*
X142020000Y-122598571D01*
X141877142Y-122527142D01*
X141805714Y-122455714D01*
X143520000Y-121741428D02*
X143377142Y-121670000D01*
X143305714Y-121598571D01*
X143234285Y-121455714D01*
X143234285Y-121384285D01*
X143305714Y-121241428D01*
X143377142Y-121170000D01*
X143520000Y-121098571D01*
X143805714Y-121098571D01*
X143948571Y-121170000D01*
X144020000Y-121241428D01*
X144091428Y-121384285D01*
X144091428Y-121455714D01*
X144020000Y-121598571D01*
X143948571Y-121670000D01*
X143805714Y-121741428D01*
X143520000Y-121741428D01*
X143377142Y-121812857D01*
X143305714Y-121884285D01*
X143234285Y-122027142D01*
X143234285Y-122312857D01*
X143305714Y-122455714D01*
X143377142Y-122527142D01*
X143520000Y-122598571D01*
X143805714Y-122598571D01*
X143948571Y-122527142D01*
X144020000Y-122455714D01*
X144091428Y-122312857D01*
X144091428Y-122027142D01*
X144020000Y-121884285D01*
X143948571Y-121812857D01*
X143805714Y-121741428D01*
X144734285Y-122598571D02*
X144734285Y-121598571D01*
X144734285Y-121741428D02*
X144805714Y-121670000D01*
X144948571Y-121598571D01*
X145162857Y-121598571D01*
X145305714Y-121670000D01*
X145377142Y-121812857D01*
X145377142Y-122598571D01*
X145377142Y-121812857D02*
X145448571Y-121670000D01*
X145591428Y-121598571D01*
X145805714Y-121598571D01*
X145948571Y-121670000D01*
X146020000Y-121812857D01*
X146020000Y-122598571D01*
X146734285Y-122598571D02*
X146734285Y-121598571D01*
X146734285Y-121741428D02*
X146805714Y-121670000D01*
X146948571Y-121598571D01*
X147162857Y-121598571D01*
X147305714Y-121670000D01*
X147377142Y-121812857D01*
X147377142Y-122598571D01*
X147377142Y-121812857D02*
X147448571Y-121670000D01*
X147591428Y-121598571D01*
X147805714Y-121598571D01*
X147948571Y-121670000D01*
X148020000Y-121812857D01*
X148020000Y-122598571D01*
D12*
X135186267Y-83060000D02*
X134843733Y-83060000D01*
X135186267Y-82040000D02*
X134843733Y-82040000D01*
X111931267Y-128145000D02*
X111588733Y-128145000D01*
X111931267Y-127125000D02*
X111588733Y-127125000D01*
X102360000Y-142068733D02*
X102360000Y-142411267D01*
X103380000Y-142068733D02*
X103380000Y-142411267D01*
X122890000Y-134130000D02*
G75*
G02X122190000Y-133430000I0J700000D01*
G01*
X124190000Y-133430000D02*
G75*
G02X123490000Y-134130000I-700000J0D01*
G01*
X123490000Y-130030000D02*
G75*
G02X124190000Y-130730000I0J-700000D01*
G01*
X122190000Y-130730000D02*
G75*
G02X122890000Y-130030000I700000J0D01*
G01*
X122190000Y-133480000D02*
X122190000Y-130680000D01*
X122890000Y-130030000D02*
X123490000Y-130030000D01*
X124190000Y-130680000D02*
X124190000Y-133480000D01*
X123490000Y-134130000D02*
X122890000Y-134130000D01*
X124390000Y-133280000D02*
X124690000Y-133580000D01*
X124690000Y-133580000D02*
X124690000Y-132980000D01*
X124390000Y-133280000D02*
X124690000Y-132980000D01*
X95652335Y-69406392D02*
G75*
G03X92420000Y-69249484I-1672335J-1078608D01*
G01*
X95652335Y-71563608D02*
G75*
G02X92420000Y-71720516I-1672335J1078608D01*
G01*
X95021130Y-69405163D02*
G75*
G03X92939039Y-69405000I-1041130J-1079837D01*
G01*
X95021130Y-71564837D02*
G75*
G02X92939039Y-71565000I-1041130J1079837D01*
G01*
X92420000Y-69249000D02*
X92420000Y-69405000D01*
X92420000Y-71565000D02*
X92420000Y-71721000D01*
X137720000Y-84583748D02*
X137720000Y-85106252D01*
X139140000Y-84583748D02*
X139140000Y-85106252D01*
X128286252Y-81990000D02*
X127763748Y-81990000D01*
X128286252Y-80570000D02*
X127763748Y-80570000D01*
X141866252Y-84530000D02*
X141343748Y-84530000D01*
X141866252Y-83110000D02*
X141343748Y-83110000D01*
X132155000Y-82566252D02*
X132155000Y-82043748D01*
X130735000Y-82566252D02*
X130735000Y-82043748D01*
X97405436Y-131085000D02*
X98609564Y-131085000D01*
X97405436Y-129265000D02*
X98609564Y-129265000D01*
X108713748Y-140260000D02*
X109236252Y-140260000D01*
X108713748Y-141680000D02*
X109236252Y-141680000D01*
X112960000Y-123895000D02*
X112660000Y-123595000D01*
X113260000Y-123595000D02*
X112660000Y-123595000D01*
X112960000Y-123895000D02*
X113260000Y-123595000D01*
X113810000Y-124795000D02*
X113810000Y-125395000D01*
X110360000Y-124095000D02*
X113160000Y-124095000D01*
X109710000Y-125395000D02*
X109710000Y-124795000D01*
X113160000Y-126095000D02*
X110360000Y-126095000D01*
X110410000Y-126095000D02*
G75*
G02X109710000Y-125395000I0J700000D01*
G01*
X109710000Y-124795000D02*
G75*
G02X110410000Y-124095000I700000J0D01*
G01*
X113110000Y-124095000D02*
G75*
G02X113810000Y-124795000I0J-700000D01*
G01*
X113810000Y-125395000D02*
G75*
G02X113110000Y-126095000I-700000J0D01*
G01*
X131715000Y-58420000D02*
G75*
G03X131715000Y-58420000I-4120000J0D01*
G01*
X127595000Y-54340000D02*
X127595000Y-62500000D01*
X127635000Y-54340000D02*
X127635000Y-62500000D01*
X127675000Y-54340000D02*
X127675000Y-62500000D01*
X127715000Y-54341000D02*
X127715000Y-62499000D01*
X127755000Y-54343000D02*
X127755000Y-62497000D01*
X127795000Y-54344000D02*
X127795000Y-62496000D01*
X127835000Y-54346000D02*
X127835000Y-62494000D01*
X127875000Y-54349000D02*
X127875000Y-62491000D01*
X127915000Y-54352000D02*
X127915000Y-62488000D01*
X127955000Y-54355000D02*
X127955000Y-62485000D01*
X127995000Y-54359000D02*
X127995000Y-62481000D01*
X128035000Y-54363000D02*
X128035000Y-62477000D01*
X128075000Y-54368000D02*
X128075000Y-62472000D01*
X128115000Y-54372000D02*
X128115000Y-62468000D01*
X128155000Y-54378000D02*
X128155000Y-62462000D01*
X128195000Y-54383000D02*
X128195000Y-62457000D01*
X128235000Y-54390000D02*
X128235000Y-62450000D01*
X128275000Y-54396000D02*
X128275000Y-62444000D01*
X128316000Y-54403000D02*
X128316000Y-62437000D01*
X128356000Y-54410000D02*
X128356000Y-62430000D01*
X128396000Y-54418000D02*
X128396000Y-62422000D01*
X128436000Y-54426000D02*
X128436000Y-62414000D01*
X128476000Y-54435000D02*
X128476000Y-62405000D01*
X128516000Y-54444000D02*
X128516000Y-62396000D01*
X128556000Y-54453000D02*
X128556000Y-62387000D01*
X128596000Y-54463000D02*
X128596000Y-62377000D01*
X128636000Y-54473000D02*
X128636000Y-62367000D01*
X128676000Y-54484000D02*
X128676000Y-62356000D01*
X128716000Y-54495000D02*
X128716000Y-62345000D01*
X128756000Y-54506000D02*
X128756000Y-62334000D01*
X128796000Y-54518000D02*
X128796000Y-62322000D01*
X128836000Y-54531000D02*
X128836000Y-62309000D01*
X128876000Y-54543000D02*
X128876000Y-62297000D01*
X128916000Y-54557000D02*
X128916000Y-62283000D01*
X128956000Y-54570000D02*
X128956000Y-62270000D01*
X128996000Y-54585000D02*
X128996000Y-62255000D01*
X129036000Y-54599000D02*
X129036000Y-62241000D01*
X129076000Y-54615000D02*
X129076000Y-57380000D01*
X129076000Y-59460000D02*
X129076000Y-62225000D01*
X129116000Y-54630000D02*
X129116000Y-57380000D01*
X129116000Y-59460000D02*
X129116000Y-62210000D01*
X129156000Y-54646000D02*
X129156000Y-57380000D01*
X129156000Y-59460000D02*
X129156000Y-62194000D01*
X129196000Y-54663000D02*
X129196000Y-57380000D01*
X129196000Y-59460000D02*
X129196000Y-62177000D01*
X129236000Y-54680000D02*
X129236000Y-57380000D01*
X129236000Y-59460000D02*
X129236000Y-62160000D01*
X129276000Y-54698000D02*
X129276000Y-57380000D01*
X129276000Y-59460000D02*
X129276000Y-62142000D01*
X129316000Y-54716000D02*
X129316000Y-57380000D01*
X129316000Y-59460000D02*
X129316000Y-62124000D01*
X129356000Y-54734000D02*
X129356000Y-57380000D01*
X129356000Y-59460000D02*
X129356000Y-62106000D01*
X129396000Y-54754000D02*
X129396000Y-57380000D01*
X129396000Y-59460000D02*
X129396000Y-62086000D01*
X129436000Y-54773000D02*
X129436000Y-57380000D01*
X129436000Y-59460000D02*
X129436000Y-62067000D01*
X129476000Y-54793000D02*
X129476000Y-57380000D01*
X129476000Y-59460000D02*
X129476000Y-62047000D01*
X129516000Y-54814000D02*
X129516000Y-57380000D01*
X129516000Y-59460000D02*
X129516000Y-62026000D01*
X129556000Y-54836000D02*
X129556000Y-57380000D01*
X129556000Y-59460000D02*
X129556000Y-62004000D01*
X129596000Y-54858000D02*
X129596000Y-57380000D01*
X129596000Y-59460000D02*
X129596000Y-61982000D01*
X129636000Y-54880000D02*
X129636000Y-57380000D01*
X129636000Y-59460000D02*
X129636000Y-61960000D01*
X129676000Y-54903000D02*
X129676000Y-57380000D01*
X129676000Y-59460000D02*
X129676000Y-61937000D01*
X129716000Y-54927000D02*
X129716000Y-57380000D01*
X129716000Y-59460000D02*
X129716000Y-61913000D01*
X129756000Y-54951000D02*
X129756000Y-57380000D01*
X129756000Y-59460000D02*
X129756000Y-61889000D01*
X129796000Y-54976000D02*
X129796000Y-57380000D01*
X129796000Y-59460000D02*
X129796000Y-61864000D01*
X129836000Y-55002000D02*
X129836000Y-57380000D01*
X129836000Y-59460000D02*
X129836000Y-61838000D01*
X129876000Y-55028000D02*
X129876000Y-57380000D01*
X129876000Y-59460000D02*
X129876000Y-61812000D01*
X129916000Y-55055000D02*
X129916000Y-57380000D01*
X129916000Y-59460000D02*
X129916000Y-61785000D01*
X129956000Y-55082000D02*
X129956000Y-57380000D01*
X129956000Y-59460000D02*
X129956000Y-61758000D01*
X129996000Y-55111000D02*
X129996000Y-57380000D01*
X129996000Y-59460000D02*
X129996000Y-61729000D01*
X130036000Y-55140000D02*
X130036000Y-57380000D01*
X130036000Y-59460000D02*
X130036000Y-61700000D01*
X130076000Y-55170000D02*
X130076000Y-57380000D01*
X130076000Y-59460000D02*
X130076000Y-61670000D01*
X130116000Y-55200000D02*
X130116000Y-57380000D01*
X130116000Y-59460000D02*
X130116000Y-61640000D01*
X130156000Y-55231000D02*
X130156000Y-57380000D01*
X130156000Y-59460000D02*
X130156000Y-61609000D01*
X130196000Y-55264000D02*
X130196000Y-57380000D01*
X130196000Y-59460000D02*
X130196000Y-61576000D01*
X130236000Y-55296000D02*
X130236000Y-57380000D01*
X130236000Y-59460000D02*
X130236000Y-61544000D01*
X130276000Y-55330000D02*
X130276000Y-57380000D01*
X130276000Y-59460000D02*
X130276000Y-61510000D01*
X130316000Y-55365000D02*
X130316000Y-57380000D01*
X130316000Y-59460000D02*
X130316000Y-61475000D01*
X130356000Y-55401000D02*
X130356000Y-57380000D01*
X130356000Y-59460000D02*
X130356000Y-61439000D01*
X130396000Y-55437000D02*
X130396000Y-57380000D01*
X130396000Y-59460000D02*
X130396000Y-61403000D01*
X130436000Y-55475000D02*
X130436000Y-57380000D01*
X130436000Y-59460000D02*
X130436000Y-61365000D01*
X130476000Y-55513000D02*
X130476000Y-57380000D01*
X130476000Y-59460000D02*
X130476000Y-61327000D01*
X130516000Y-55553000D02*
X130516000Y-57380000D01*
X130516000Y-59460000D02*
X130516000Y-61287000D01*
X130556000Y-55594000D02*
X130556000Y-57380000D01*
X130556000Y-59460000D02*
X130556000Y-61246000D01*
X130596000Y-55636000D02*
X130596000Y-57380000D01*
X130596000Y-59460000D02*
X130596000Y-61204000D01*
X130636000Y-55679000D02*
X130636000Y-57380000D01*
X130636000Y-59460000D02*
X130636000Y-61161000D01*
X130676000Y-55723000D02*
X130676000Y-57380000D01*
X130676000Y-59460000D02*
X130676000Y-61117000D01*
X130716000Y-55769000D02*
X130716000Y-57380000D01*
X130716000Y-59460000D02*
X130716000Y-61071000D01*
X130756000Y-55816000D02*
X130756000Y-57380000D01*
X130756000Y-59460000D02*
X130756000Y-61024000D01*
X130796000Y-55864000D02*
X130796000Y-57380000D01*
X130796000Y-59460000D02*
X130796000Y-60976000D01*
X130836000Y-55915000D02*
X130836000Y-57380000D01*
X130836000Y-59460000D02*
X130836000Y-60925000D01*
X130876000Y-55966000D02*
X130876000Y-57380000D01*
X130876000Y-59460000D02*
X130876000Y-60874000D01*
X130916000Y-56020000D02*
X130916000Y-57380000D01*
X130916000Y-59460000D02*
X130916000Y-60820000D01*
X130956000Y-56075000D02*
X130956000Y-57380000D01*
X130956000Y-59460000D02*
X130956000Y-60765000D01*
X130996000Y-56133000D02*
X130996000Y-57380000D01*
X130996000Y-59460000D02*
X130996000Y-60707000D01*
X131036000Y-56192000D02*
X131036000Y-57380000D01*
X131036000Y-59460000D02*
X131036000Y-60648000D01*
X131076000Y-56254000D02*
X131076000Y-57380000D01*
X131076000Y-59460000D02*
X131076000Y-60586000D01*
X131116000Y-56318000D02*
X131116000Y-57380000D01*
X131116000Y-59460000D02*
X131116000Y-60522000D01*
X131156000Y-56386000D02*
X131156000Y-60454000D01*
X131196000Y-56456000D02*
X131196000Y-60384000D01*
X131236000Y-56530000D02*
X131236000Y-60310000D01*
X131276000Y-56607000D02*
X131276000Y-60233000D01*
X131316000Y-56689000D02*
X131316000Y-60151000D01*
X131356000Y-56775000D02*
X131356000Y-60065000D01*
X131396000Y-56868000D02*
X131396000Y-59972000D01*
X131436000Y-56967000D02*
X131436000Y-59873000D01*
X131476000Y-57074000D02*
X131476000Y-59766000D01*
X131516000Y-57191000D02*
X131516000Y-59649000D01*
X131556000Y-57322000D02*
X131556000Y-59518000D01*
X131596000Y-57472000D02*
X131596000Y-59368000D01*
X131636000Y-57652000D02*
X131636000Y-59188000D01*
X131676000Y-57887000D02*
X131676000Y-58953000D01*
X123185302Y-56105000D02*
X123985302Y-56105000D01*
X123585302Y-55705000D02*
X123585302Y-56505000D01*
X111700000Y-112970000D02*
X111700000Y-115630000D01*
X129540000Y-112970000D02*
X111700000Y-112970000D01*
X129540000Y-115630000D02*
X111700000Y-115630000D01*
X129540000Y-112970000D02*
X129540000Y-115630000D01*
X130810000Y-112970000D02*
X132140000Y-112970000D01*
X132140000Y-112970000D02*
X132140000Y-114300000D01*
X121215000Y-132010000D02*
X121515000Y-131710000D01*
X121515000Y-132310000D02*
X121515000Y-131710000D01*
X121215000Y-132010000D02*
X121515000Y-132310000D01*
X120315000Y-132860000D02*
X119715000Y-132860000D01*
X121015000Y-129410000D02*
X121015000Y-132210000D01*
X119715000Y-128760000D02*
X120315000Y-128760000D01*
X119015000Y-132210000D02*
X119015000Y-129410000D01*
X119015000Y-129460000D02*
G75*
G02X119715000Y-128760000I700000J0D01*
G01*
X120315000Y-128760000D02*
G75*
G02X121015000Y-129460000I0J-700000D01*
G01*
X121015000Y-132160000D02*
G75*
G02X120315000Y-132860000I-700000J0D01*
G01*
X119715000Y-132860000D02*
G75*
G02X119015000Y-132160000I0J700000D01*
G01*
X113175000Y-136190000D02*
G75*
G02X112475000Y-136890000I-700000J0D01*
G01*
X112475000Y-134890000D02*
G75*
G02X113175000Y-135590000I0J-700000D01*
G01*
X109075000Y-135590000D02*
G75*
G02X109775000Y-134890000I700000J0D01*
G01*
X109775000Y-136890000D02*
G75*
G02X109075000Y-136190000I0J700000D01*
G01*
X112525000Y-136890000D02*
X109725000Y-136890000D01*
X109075000Y-136190000D02*
X109075000Y-135590000D01*
X109725000Y-134890000D02*
X112525000Y-134890000D01*
X113175000Y-135590000D02*
X113175000Y-136190000D01*
X112325000Y-134690000D02*
X112625000Y-134390000D01*
X112625000Y-134390000D02*
X112025000Y-134390000D01*
X112325000Y-134690000D02*
X112025000Y-134390000D01*
X115005000Y-137090000D02*
X115305000Y-137390000D01*
X114705000Y-137390000D02*
X115305000Y-137390000D01*
X115005000Y-137090000D02*
X114705000Y-137390000D01*
X114155000Y-136190000D02*
X114155000Y-135590000D01*
X117605000Y-136890000D02*
X114805000Y-136890000D01*
X118255000Y-135590000D02*
X118255000Y-136190000D01*
X114805000Y-134890000D02*
X117605000Y-134890000D01*
X117555000Y-134890000D02*
G75*
G02X118255000Y-135590000I0J-700000D01*
G01*
X118255000Y-136190000D02*
G75*
G02X117555000Y-136890000I-700000J0D01*
G01*
X114855000Y-136890000D02*
G75*
G02X114155000Y-136190000I0J700000D01*
G01*
X114155000Y-135590000D02*
G75*
G02X114855000Y-134890000I700000J0D01*
G01*
X106610000Y-143440000D02*
X106910000Y-143140000D01*
X106910000Y-143740000D02*
X106910000Y-143140000D01*
X106610000Y-143440000D02*
X106910000Y-143740000D01*
X105710000Y-144290000D02*
X105110000Y-144290000D01*
X106410000Y-140840000D02*
X106410000Y-143640000D01*
X105110000Y-140190000D02*
X105710000Y-140190000D01*
X104410000Y-143640000D02*
X104410000Y-140840000D01*
X104410000Y-140890000D02*
G75*
G02X105110000Y-140190000I700000J0D01*
G01*
X105710000Y-140190000D02*
G75*
G02X106410000Y-140890000I0J-700000D01*
G01*
X106410000Y-143590000D02*
G75*
G02X105710000Y-144290000I-700000J0D01*
G01*
X105110000Y-144290000D02*
G75*
G02X104410000Y-143590000I0J700000D01*
G01*
X112290000Y-62735000D02*
X108690000Y-62735000D01*
X112290000Y-55375000D02*
X108690000Y-55375000D01*
X106810000Y-60855000D02*
X106810000Y-57255000D01*
X114170000Y-60855000D02*
X114170000Y-57255000D01*
X108361267Y-130685000D02*
X108018733Y-130685000D01*
X108361267Y-129665000D02*
X108018733Y-129665000D01*
X108361267Y-132205000D02*
X108018733Y-132205000D01*
X108361267Y-133225000D02*
X108018733Y-133225000D01*
X115158733Y-127125000D02*
X115501267Y-127125000D01*
X115158733Y-128145000D02*
X115501267Y-128145000D01*
X208340000Y-109795000D02*
X205680000Y-109795000D01*
X208340000Y-114935000D02*
X208340000Y-109795000D01*
X205680000Y-114935000D02*
X205680000Y-109795000D01*
X208340000Y-114935000D02*
X205680000Y-114935000D01*
X208340000Y-116205000D02*
X208340000Y-117535000D01*
X208340000Y-117535000D02*
X207010000Y-117535000D01*
X106620000Y-115510000D02*
X106620000Y-118170000D01*
X129540000Y-115510000D02*
X106620000Y-115510000D01*
X129540000Y-118170000D02*
X106620000Y-118170000D01*
X129540000Y-115510000D02*
X129540000Y-118170000D01*
X130810000Y-115510000D02*
X132140000Y-115510000D01*
X132140000Y-115510000D02*
X132140000Y-116840000D01*
X133925000Y-115510000D02*
X133925000Y-118170000D01*
X151765000Y-115510000D02*
X133925000Y-115510000D01*
X151765000Y-118170000D02*
X133925000Y-118170000D01*
X151765000Y-115510000D02*
X151765000Y-118170000D01*
X153035000Y-115510000D02*
X154365000Y-115510000D01*
X154365000Y-115510000D02*
X154365000Y-116840000D01*
X139005000Y-69790000D02*
X139005000Y-72450000D01*
X151765000Y-69790000D02*
X139005000Y-69790000D01*
X151765000Y-72450000D02*
X139005000Y-72450000D01*
X151765000Y-69790000D02*
X151765000Y-72450000D01*
X153035000Y-69790000D02*
X154365000Y-69790000D01*
X154365000Y-69790000D02*
X154365000Y-71120000D01*
X131010000Y-63260000D02*
X126625000Y-63260000D01*
X126625000Y-63260000D02*
X126625000Y-66280000D01*
X126625000Y-66280000D02*
X131010000Y-66280000D01*
X97405436Y-133625000D02*
X98609564Y-133625000D01*
X97405436Y-131805000D02*
X98609564Y-131805000D01*
X101325000Y-134804564D02*
X101325000Y-133600436D01*
X103145000Y-134804564D02*
X103145000Y-133600436D01*
X103865000Y-134804564D02*
X103865000Y-133600436D01*
X105685000Y-134804564D02*
X105685000Y-133600436D01*
X103865000Y-128085436D02*
X103865000Y-129289564D01*
X105685000Y-128085436D02*
X105685000Y-129289564D01*
X127763748Y-76760000D02*
X128286252Y-76760000D01*
X127763748Y-78180000D02*
X128286252Y-78180000D01*
X108713748Y-142800000D02*
X109236252Y-142800000D01*
X108713748Y-144220000D02*
X109236252Y-144220000D01*
X229310000Y-83168748D02*
X229310000Y-83691252D01*
X227890000Y-83168748D02*
X227890000Y-83691252D01*
X215340000Y-67326252D02*
X215340000Y-66803748D01*
X213920000Y-67326252D02*
X213920000Y-66803748D01*
X229795000Y-83168748D02*
X229795000Y-83691252D01*
X231215000Y-83168748D02*
X231215000Y-83691252D01*
X215825000Y-67326252D02*
X215825000Y-66803748D01*
X217245000Y-67326252D02*
X217245000Y-66803748D01*
X233120000Y-83168748D02*
X233120000Y-83691252D01*
X231700000Y-83168748D02*
X231700000Y-83691252D01*
X219150000Y-67326252D02*
X219150000Y-66803748D01*
X217730000Y-67326252D02*
X217730000Y-66803748D01*
X233605000Y-83168748D02*
X233605000Y-83691252D01*
X235025000Y-83168748D02*
X235025000Y-83691252D01*
X219635000Y-67326252D02*
X219635000Y-66803748D01*
X221055000Y-67326252D02*
X221055000Y-66803748D01*
X233605000Y-67326252D02*
X233605000Y-66803748D01*
X235025000Y-67326252D02*
X235025000Y-66803748D01*
X221055000Y-83168748D02*
X221055000Y-83691252D01*
X219635000Y-83168748D02*
X219635000Y-83691252D01*
X233120000Y-67326252D02*
X233120000Y-66803748D01*
X231700000Y-67326252D02*
X231700000Y-66803748D01*
X219150000Y-83168748D02*
X219150000Y-83691252D01*
X217730000Y-83168748D02*
X217730000Y-83691252D01*
X229795000Y-67326252D02*
X229795000Y-66803748D01*
X231215000Y-67326252D02*
X231215000Y-66803748D01*
X215340000Y-83168748D02*
X215340000Y-83691252D01*
X213920000Y-83168748D02*
X213920000Y-83691252D01*
X229310000Y-67326252D02*
X229310000Y-66803748D01*
X227890000Y-67326252D02*
X227890000Y-66803748D01*
X215825000Y-83168748D02*
X215825000Y-83691252D01*
X217245000Y-83168748D02*
X217245000Y-83691252D01*
X213920000Y-116221252D02*
X213920000Y-115698748D01*
X215340000Y-116221252D02*
X215340000Y-115698748D01*
X227890000Y-132063748D02*
X227890000Y-132586252D01*
X229310000Y-132063748D02*
X229310000Y-132586252D01*
X215340000Y-93996252D02*
X215340000Y-93473748D01*
X213920000Y-93996252D02*
X213920000Y-93473748D01*
X229310000Y-109838748D02*
X229310000Y-110361252D01*
X227890000Y-109838748D02*
X227890000Y-110361252D01*
X217245000Y-116221252D02*
X217245000Y-115698748D01*
X215825000Y-116221252D02*
X215825000Y-115698748D01*
X231215000Y-132063748D02*
X231215000Y-132586252D01*
X229795000Y-132063748D02*
X229795000Y-132586252D01*
X215825000Y-93996252D02*
X215825000Y-93473748D01*
X217245000Y-93996252D02*
X217245000Y-93473748D01*
X229795000Y-109838748D02*
X229795000Y-110361252D01*
X231215000Y-109838748D02*
X231215000Y-110361252D01*
X219150000Y-116221252D02*
X219150000Y-115698748D01*
X217730000Y-116221252D02*
X217730000Y-115698748D01*
X231700000Y-132063748D02*
X231700000Y-132586252D01*
X233120000Y-132063748D02*
X233120000Y-132586252D01*
X219150000Y-93996252D02*
X219150000Y-93473748D01*
X217730000Y-93996252D02*
X217730000Y-93473748D01*
X233120000Y-109838748D02*
X233120000Y-110361252D01*
X231700000Y-109838748D02*
X231700000Y-110361252D01*
X219635000Y-116221252D02*
X219635000Y-115698748D01*
X221055000Y-116221252D02*
X221055000Y-115698748D01*
X233605000Y-132063748D02*
X233605000Y-132586252D01*
X235025000Y-132063748D02*
X235025000Y-132586252D01*
X219635000Y-93996252D02*
X219635000Y-93473748D01*
X221055000Y-93996252D02*
X221055000Y-93473748D01*
X233605000Y-109838748D02*
X233605000Y-110361252D01*
X235025000Y-109838748D02*
X235025000Y-110361252D01*
X219635000Y-132063748D02*
X219635000Y-132586252D01*
X221055000Y-132063748D02*
X221055000Y-132586252D01*
X235025000Y-116221252D02*
X235025000Y-115698748D01*
X233605000Y-116221252D02*
X233605000Y-115698748D01*
X219635000Y-109838748D02*
X219635000Y-110361252D01*
X221055000Y-109838748D02*
X221055000Y-110361252D01*
X235025000Y-93996252D02*
X235025000Y-93473748D01*
X233605000Y-93996252D02*
X233605000Y-93473748D01*
X219150000Y-132063748D02*
X219150000Y-132586252D01*
X217730000Y-132063748D02*
X217730000Y-132586252D01*
X231700000Y-116221252D02*
X231700000Y-115698748D01*
X233120000Y-116221252D02*
X233120000Y-115698748D01*
X219150000Y-109838748D02*
X219150000Y-110361252D01*
X217730000Y-109838748D02*
X217730000Y-110361252D01*
X231700000Y-93996252D02*
X231700000Y-93473748D01*
X233120000Y-93996252D02*
X233120000Y-93473748D01*
X215825000Y-132063748D02*
X215825000Y-132586252D01*
X217245000Y-132063748D02*
X217245000Y-132586252D01*
X231215000Y-116221252D02*
X231215000Y-115698748D01*
X229795000Y-116221252D02*
X229795000Y-115698748D01*
X215825000Y-109838748D02*
X215825000Y-110361252D01*
X217245000Y-109838748D02*
X217245000Y-110361252D01*
X231215000Y-93996252D02*
X231215000Y-93473748D01*
X229795000Y-93996252D02*
X229795000Y-93473748D01*
X215340000Y-132063748D02*
X215340000Y-132586252D01*
X213920000Y-132063748D02*
X213920000Y-132586252D01*
X227890000Y-116221252D02*
X227890000Y-115698748D01*
X229310000Y-116221252D02*
X229310000Y-115698748D01*
X215340000Y-109838748D02*
X215340000Y-110361252D01*
X213920000Y-109838748D02*
X213920000Y-110361252D01*
X95652335Y-55436392D02*
G75*
G03X92420000Y-55279484I-1672335J-1078608D01*
G01*
X95652335Y-57593608D02*
G75*
G02X92420000Y-57750516I-1672335J1078608D01*
G01*
X95021130Y-55435163D02*
G75*
G03X92939039Y-55435000I-1041130J-1079837D01*
G01*
X95021130Y-57594837D02*
G75*
G02X92939039Y-57595000I-1041130J1079837D01*
G01*
X92420000Y-55279000D02*
X92420000Y-55435000D01*
X92420000Y-57595000D02*
X92420000Y-57751000D01*
X116145000Y-67250000D02*
X116145000Y-69910000D01*
X133985000Y-67250000D02*
X116145000Y-67250000D01*
X133985000Y-69910000D02*
X116145000Y-69910000D01*
X133985000Y-67250000D02*
X133985000Y-69910000D01*
X135255000Y-67250000D02*
X136585000Y-67250000D01*
X136585000Y-67250000D02*
X136585000Y-68580000D01*
X227890000Y-93996252D02*
X227890000Y-93473748D01*
X229310000Y-93996252D02*
X229310000Y-93473748D01*
X126305000Y-69790000D02*
X126305000Y-72450000D01*
X133985000Y-69790000D02*
X126305000Y-69790000D01*
X133985000Y-72450000D02*
X126305000Y-72450000D01*
X133985000Y-69790000D02*
X133985000Y-72450000D01*
X135255000Y-69790000D02*
X136585000Y-69790000D01*
X136585000Y-69790000D02*
X136585000Y-71120000D01*
X133925000Y-112970000D02*
X133925000Y-115630000D01*
X151765000Y-112970000D02*
X133925000Y-112970000D01*
X151765000Y-115630000D02*
X133925000Y-115630000D01*
X151765000Y-112970000D02*
X151765000Y-115630000D01*
X153035000Y-112970000D02*
X154365000Y-112970000D01*
X154365000Y-112970000D02*
X154365000Y-114300000D01*
X139005000Y-67250000D02*
X139005000Y-69910000D01*
X151765000Y-67250000D02*
X139005000Y-67250000D01*
X151765000Y-69910000D02*
X139005000Y-69910000D01*
X151765000Y-67250000D02*
X151765000Y-69910000D01*
X153035000Y-67250000D02*
X154365000Y-67250000D01*
X154365000Y-67250000D02*
X154365000Y-68580000D01*
X202215000Y-142550000D02*
X207995000Y-142550000D01*
X202215000Y-137450000D02*
X207995000Y-137450000D01*
X202215000Y-136330000D02*
X207995000Y-136330000D01*
X202215000Y-143070000D02*
X207995000Y-143070000D01*
X202215000Y-136330000D02*
X202215000Y-143070000D01*
X207995000Y-136330000D02*
X207995000Y-143070000D01*
X201975000Y-142670000D02*
X201975000Y-143310000D01*
X201975000Y-143310000D02*
X202375000Y-143310000D01*
X215110000Y-144610000D02*
X215110000Y-137590000D01*
X215110000Y-137590000D02*
X216310000Y-137590000D01*
X216310000Y-137590000D02*
X216310000Y-135890000D01*
X216310000Y-135890000D02*
X233870000Y-135890000D01*
X233870000Y-135890000D02*
X233870000Y-137590000D01*
X233870000Y-137590000D02*
X235070000Y-137590000D01*
X235070000Y-137590000D02*
X235070000Y-144610000D01*
X235070000Y-144610000D02*
X215110000Y-144610000D01*
X214910000Y-139700000D02*
X214310000Y-140000000D01*
X214310000Y-140000000D02*
X214310000Y-139400000D01*
X214310000Y-139400000D02*
X214910000Y-139700000D01*
X103145000Y-128085436D02*
X103145000Y-129289564D01*
X101325000Y-128085436D02*
X101325000Y-129289564D01*
D10*
X97045000Y-140940000D02*
X97045000Y-141065000D01*
X100295000Y-140940000D02*
X100295000Y-141165000D01*
X100295000Y-144190000D02*
X100295000Y-143965000D01*
X97045000Y-144190000D02*
X97045000Y-143965000D01*
X97045000Y-140940000D02*
X100295000Y-140940000D01*
X97045000Y-144190000D02*
X100295000Y-144190000D01*
X97045000Y-141065000D02*
X95970000Y-141065000D01*
X137905000Y-81295000D02*
X137905000Y-81170000D01*
X134655000Y-81295000D02*
X134655000Y-81070000D01*
X134655000Y-78045000D02*
X134655000Y-78270000D01*
X137905000Y-78045000D02*
X137905000Y-78270000D01*
X137905000Y-81295000D02*
X134655000Y-81295000D01*
X137905000Y-78045000D02*
X134655000Y-78045000D01*
X137905000Y-81170000D02*
X138980000Y-81170000D01*
X114785000Y-129320000D02*
X114785000Y-129385000D01*
X114785000Y-133570000D02*
X114785000Y-133505000D01*
X111535000Y-133570000D02*
X111535000Y-133505000D01*
X111535000Y-129320000D02*
X114785000Y-129320000D01*
X111535000Y-133570000D02*
X114785000Y-133570000D01*
X111535000Y-129320000D02*
X110610000Y-129320000D01*
D12*
X140210000Y-146730000D02*
X139190000Y-146730000D01*
X140210000Y-141530000D02*
X139190000Y-141530000D01*
X142750000Y-146730000D02*
X141730000Y-146730000D01*
X142750000Y-141530000D02*
X141730000Y-141530000D01*
X145290000Y-146730000D02*
X144270000Y-146730000D01*
X145290000Y-141530000D02*
X144270000Y-141530000D01*
X147830000Y-146730000D02*
X146810000Y-146730000D01*
X147830000Y-141530000D02*
X146810000Y-141530000D01*
X150370000Y-146730000D02*
X149350000Y-146730000D01*
X150370000Y-141530000D02*
X149350000Y-141530000D01*
X137670000Y-146730000D02*
X137100000Y-146730000D01*
X137670000Y-141530000D02*
X137100000Y-141530000D01*
X152460000Y-146730000D02*
X151890000Y-146730000D01*
X152460000Y-141530000D02*
X151890000Y-141530000D01*
X151890000Y-140090000D02*
X151890000Y-141530000D01*
X137100000Y-141530000D02*
X137100000Y-146730000D01*
X152460000Y-141530000D02*
X152460000Y-146730000D01*
X128965000Y-141530000D02*
X128965000Y-146730000D01*
X113605000Y-141530000D02*
X113605000Y-146730000D01*
X128395000Y-140090000D02*
X128395000Y-141530000D01*
X128965000Y-141530000D02*
X128395000Y-141530000D01*
X128965000Y-146730000D02*
X128395000Y-146730000D01*
X114175000Y-141530000D02*
X113605000Y-141530000D01*
X114175000Y-146730000D02*
X113605000Y-146730000D01*
X126875000Y-141530000D02*
X125855000Y-141530000D01*
X126875000Y-146730000D02*
X125855000Y-146730000D01*
X124335000Y-141530000D02*
X123315000Y-141530000D01*
X124335000Y-146730000D02*
X123315000Y-146730000D01*
X121795000Y-141530000D02*
X120775000Y-141530000D01*
X121795000Y-146730000D02*
X120775000Y-146730000D01*
X119255000Y-141530000D02*
X118235000Y-141530000D01*
X119255000Y-146730000D02*
X118235000Y-146730000D01*
X116715000Y-141530000D02*
X115695000Y-141530000D01*
X116715000Y-146730000D02*
X115695000Y-146730000D01*
X151690000Y-90110000D02*
X156890000Y-90110000D01*
X151690000Y-97850000D02*
X156890000Y-97850000D01*
X150250000Y-90680000D02*
X151690000Y-90680000D01*
X151690000Y-90110000D02*
X151690000Y-90680000D01*
X156890000Y-90110000D02*
X156890000Y-90680000D01*
X151690000Y-97280000D02*
X151690000Y-97850000D01*
X156890000Y-97280000D02*
X156890000Y-97850000D01*
X151690000Y-92200000D02*
X151690000Y-93220000D01*
X156890000Y-92200000D02*
X156890000Y-93220000D01*
X151690000Y-94740000D02*
X151690000Y-95760000D01*
X156890000Y-94740000D02*
X156890000Y-95760000D01*
X176575000Y-87120000D02*
X176575000Y-88140000D01*
X171375000Y-87120000D02*
X171375000Y-88140000D01*
X176575000Y-84580000D02*
X176575000Y-85600000D01*
X171375000Y-84580000D02*
X171375000Y-85600000D01*
X176575000Y-82040000D02*
X176575000Y-83060000D01*
X171375000Y-82040000D02*
X171375000Y-83060000D01*
X176575000Y-79500000D02*
X176575000Y-80520000D01*
X171375000Y-79500000D02*
X171375000Y-80520000D01*
X176575000Y-76960000D02*
X176575000Y-77980000D01*
X171375000Y-76960000D02*
X171375000Y-77980000D01*
X176575000Y-89660000D02*
X176575000Y-90230000D01*
X171375000Y-89660000D02*
X171375000Y-90230000D01*
X176575000Y-74870000D02*
X176575000Y-75440000D01*
X171375000Y-74870000D02*
X171375000Y-75440000D01*
X169935000Y-75440000D02*
X171375000Y-75440000D01*
X171375000Y-90230000D02*
X176575000Y-90230000D01*
X171375000Y-74870000D02*
X176575000Y-74870000D01*
X171375000Y-97730000D02*
X176575000Y-97730000D01*
X171375000Y-113090000D02*
X176575000Y-113090000D01*
X169935000Y-98300000D02*
X171375000Y-98300000D01*
X171375000Y-97730000D02*
X171375000Y-98300000D01*
X176575000Y-97730000D02*
X176575000Y-98300000D01*
X171375000Y-112520000D02*
X171375000Y-113090000D01*
X176575000Y-112520000D02*
X176575000Y-113090000D01*
X171375000Y-99820000D02*
X171375000Y-100840000D01*
X176575000Y-99820000D02*
X176575000Y-100840000D01*
X171375000Y-102360000D02*
X171375000Y-103380000D01*
X176575000Y-102360000D02*
X176575000Y-103380000D01*
X171375000Y-104900000D02*
X171375000Y-105920000D01*
X176575000Y-104900000D02*
X176575000Y-105920000D01*
X171375000Y-107440000D02*
X171375000Y-108460000D01*
X176575000Y-107440000D02*
X176575000Y-108460000D01*
X171375000Y-109980000D02*
X171375000Y-111000000D01*
X176575000Y-109980000D02*
X176575000Y-111000000D01*
X95150000Y-129925000D02*
X94650000Y-130175000D01*
X95150000Y-130425000D02*
X95150000Y-129925000D01*
X94650000Y-130175000D02*
X95150000Y-130425000D01*
X94650000Y-77470000D02*
X95150000Y-77720000D01*
X95150000Y-77720000D02*
X95150000Y-77220000D01*
X95150000Y-77220000D02*
X94650000Y-77470000D01*
X95150000Y-63250000D02*
X94650000Y-63500000D01*
X95150000Y-63750000D02*
X95150000Y-63250000D01*
X94650000Y-63500000D02*
X95150000Y-63750000D01*
X94650000Y-142240000D02*
X95150000Y-142490000D01*
X95150000Y-142490000D02*
X95150000Y-141990000D01*
X95150000Y-141990000D02*
X94650000Y-142240000D01*
D10*
X134608333Y-84812142D02*
X134560714Y-84859761D01*
X134417857Y-84907380D01*
X134322619Y-84907380D01*
X134179761Y-84859761D01*
X134084523Y-84764523D01*
X134036904Y-84669285D01*
X133989285Y-84478809D01*
X133989285Y-84335952D01*
X134036904Y-84145476D01*
X134084523Y-84050238D01*
X134179761Y-83955000D01*
X134322619Y-83907380D01*
X134417857Y-83907380D01*
X134560714Y-83955000D01*
X134608333Y-84002619D01*
X135465476Y-83907380D02*
X135275000Y-83907380D01*
X135179761Y-83955000D01*
X135132142Y-84002619D01*
X135036904Y-84145476D01*
X134989285Y-84335952D01*
X134989285Y-84716904D01*
X135036904Y-84812142D01*
X135084523Y-84859761D01*
X135179761Y-84907380D01*
X135370238Y-84907380D01*
X135465476Y-84859761D01*
X135513095Y-84812142D01*
X135560714Y-84716904D01*
X135560714Y-84478809D01*
X135513095Y-84383571D01*
X135465476Y-84335952D01*
X135370238Y-84288333D01*
X135179761Y-84288333D01*
X135084523Y-84335952D01*
X135036904Y-84383571D01*
X134989285Y-84478809D01*
X109053333Y-127357142D02*
X109005714Y-127404761D01*
X108862857Y-127452380D01*
X108767619Y-127452380D01*
X108624761Y-127404761D01*
X108529523Y-127309523D01*
X108481904Y-127214285D01*
X108434285Y-127023809D01*
X108434285Y-126880952D01*
X108481904Y-126690476D01*
X108529523Y-126595238D01*
X108624761Y-126500000D01*
X108767619Y-126452380D01*
X108862857Y-126452380D01*
X109005714Y-126500000D01*
X109053333Y-126547619D01*
X109958095Y-126452380D02*
X109481904Y-126452380D01*
X109434285Y-126928571D01*
X109481904Y-126880952D01*
X109577142Y-126833333D01*
X109815238Y-126833333D01*
X109910476Y-126880952D01*
X109958095Y-126928571D01*
X110005714Y-127023809D01*
X110005714Y-127261904D01*
X109958095Y-127357142D01*
X109910476Y-127404761D01*
X109815238Y-127452380D01*
X109577142Y-127452380D01*
X109481904Y-127404761D01*
X109434285Y-127357142D01*
X103227142Y-145186666D02*
X103274761Y-145234285D01*
X103322380Y-145377142D01*
X103322380Y-145472380D01*
X103274761Y-145615238D01*
X103179523Y-145710476D01*
X103084285Y-145758095D01*
X102893809Y-145805714D01*
X102750952Y-145805714D01*
X102560476Y-145758095D01*
X102465238Y-145710476D01*
X102370000Y-145615238D01*
X102322380Y-145472380D01*
X102322380Y-145377142D01*
X102370000Y-145234285D01*
X102417619Y-145186666D01*
X102750952Y-144615238D02*
X102703333Y-144710476D01*
X102655714Y-144758095D01*
X102560476Y-144805714D01*
X102512857Y-144805714D01*
X102417619Y-144758095D01*
X102370000Y-144710476D01*
X102322380Y-144615238D01*
X102322380Y-144424761D01*
X102370000Y-144329523D01*
X102417619Y-144281904D01*
X102512857Y-144234285D01*
X102560476Y-144234285D01*
X102655714Y-144281904D01*
X102703333Y-144329523D01*
X102750952Y-144424761D01*
X102750952Y-144615238D01*
X102798571Y-144710476D01*
X102846190Y-144758095D01*
X102941428Y-144805714D01*
X103131904Y-144805714D01*
X103227142Y-144758095D01*
X103274761Y-144710476D01*
X103322380Y-144615238D01*
X103322380Y-144424761D01*
X103274761Y-144329523D01*
X103227142Y-144281904D01*
X103131904Y-144234285D01*
X102941428Y-144234285D01*
X102846190Y-144281904D01*
X102798571Y-144329523D01*
X102750952Y-144424761D01*
X124261666Y-128357380D02*
X124261666Y-129071666D01*
X124214047Y-129214523D01*
X124118809Y-129309761D01*
X123975952Y-129357380D01*
X123880714Y-129357380D01*
X124737857Y-129357380D02*
X124737857Y-128357380D01*
X125118809Y-128357380D01*
X125214047Y-128405000D01*
X125261666Y-128452619D01*
X125309285Y-128547857D01*
X125309285Y-128690714D01*
X125261666Y-128785952D01*
X125214047Y-128833571D01*
X125118809Y-128881190D01*
X124737857Y-128881190D01*
X126261666Y-129357380D02*
X125690238Y-129357380D01*
X125975952Y-129357380D02*
X125975952Y-128357380D01*
X125880714Y-128500238D01*
X125785476Y-128595476D01*
X125690238Y-128643095D01*
X96416904Y-69032380D02*
X96416904Y-68032380D01*
X96655000Y-68032380D01*
X96797857Y-68080000D01*
X96893095Y-68175238D01*
X96940714Y-68270476D01*
X96988333Y-68460952D01*
X96988333Y-68603809D01*
X96940714Y-68794285D01*
X96893095Y-68889523D01*
X96797857Y-68984761D01*
X96655000Y-69032380D01*
X96416904Y-69032380D01*
X97940714Y-69032380D02*
X97369285Y-69032380D01*
X97655000Y-69032380D02*
X97655000Y-68032380D01*
X97559761Y-68175238D01*
X97464523Y-68270476D01*
X97369285Y-68318095D01*
X138263333Y-88082380D02*
X137930000Y-87606190D01*
X137691904Y-88082380D02*
X137691904Y-87082380D01*
X138072857Y-87082380D01*
X138168095Y-87130000D01*
X138215714Y-87177619D01*
X138263333Y-87272857D01*
X138263333Y-87415714D01*
X138215714Y-87510952D01*
X138168095Y-87558571D01*
X138072857Y-87606190D01*
X137691904Y-87606190D01*
X138739523Y-88082380D02*
X138930000Y-88082380D01*
X139025238Y-88034761D01*
X139072857Y-87987142D01*
X139168095Y-87844285D01*
X139215714Y-87653809D01*
X139215714Y-87272857D01*
X139168095Y-87177619D01*
X139120476Y-87130000D01*
X139025238Y-87082380D01*
X138834761Y-87082380D01*
X138739523Y-87130000D01*
X138691904Y-87177619D01*
X138644285Y-87272857D01*
X138644285Y-87510952D01*
X138691904Y-87606190D01*
X138739523Y-87653809D01*
X138834761Y-87701428D01*
X139025238Y-87701428D01*
X139120476Y-87653809D01*
X139168095Y-87606190D01*
X139215714Y-87510952D01*
X125722142Y-83637380D02*
X125388809Y-83161190D01*
X125150714Y-83637380D02*
X125150714Y-82637380D01*
X125531666Y-82637380D01*
X125626904Y-82685000D01*
X125674523Y-82732619D01*
X125722142Y-82827857D01*
X125722142Y-82970714D01*
X125674523Y-83065952D01*
X125626904Y-83113571D01*
X125531666Y-83161190D01*
X125150714Y-83161190D01*
X126674523Y-83637380D02*
X126103095Y-83637380D01*
X126388809Y-83637380D02*
X126388809Y-82637380D01*
X126293571Y-82780238D01*
X126198333Y-82875476D01*
X126103095Y-82923095D01*
X127293571Y-82637380D02*
X127388809Y-82637380D01*
X127484047Y-82685000D01*
X127531666Y-82732619D01*
X127579285Y-82827857D01*
X127626904Y-83018333D01*
X127626904Y-83256428D01*
X127579285Y-83446904D01*
X127531666Y-83542142D01*
X127484047Y-83589761D01*
X127388809Y-83637380D01*
X127293571Y-83637380D01*
X127198333Y-83589761D01*
X127150714Y-83542142D01*
X127103095Y-83446904D01*
X127055476Y-83256428D01*
X127055476Y-83018333D01*
X127103095Y-82827857D01*
X127150714Y-82732619D01*
X127198333Y-82685000D01*
X127293571Y-82637380D01*
X140962142Y-86177380D02*
X140628809Y-85701190D01*
X140390714Y-86177380D02*
X140390714Y-85177380D01*
X140771666Y-85177380D01*
X140866904Y-85225000D01*
X140914523Y-85272619D01*
X140962142Y-85367857D01*
X140962142Y-85510714D01*
X140914523Y-85605952D01*
X140866904Y-85653571D01*
X140771666Y-85701190D01*
X140390714Y-85701190D01*
X141914523Y-86177380D02*
X141343095Y-86177380D01*
X141628809Y-86177380D02*
X141628809Y-85177380D01*
X141533571Y-85320238D01*
X141438333Y-85415476D01*
X141343095Y-85463095D01*
X142866904Y-86177380D02*
X142295476Y-86177380D01*
X142581190Y-86177380D02*
X142581190Y-85177380D01*
X142485952Y-85320238D01*
X142390714Y-85415476D01*
X142295476Y-85463095D01*
X130802142Y-85542380D02*
X130468809Y-85066190D01*
X130230714Y-85542380D02*
X130230714Y-84542380D01*
X130611666Y-84542380D01*
X130706904Y-84590000D01*
X130754523Y-84637619D01*
X130802142Y-84732857D01*
X130802142Y-84875714D01*
X130754523Y-84970952D01*
X130706904Y-85018571D01*
X130611666Y-85066190D01*
X130230714Y-85066190D01*
X131754523Y-85542380D02*
X131183095Y-85542380D01*
X131468809Y-85542380D02*
X131468809Y-84542380D01*
X131373571Y-84685238D01*
X131278333Y-84780476D01*
X131183095Y-84828095D01*
X132135476Y-84637619D02*
X132183095Y-84590000D01*
X132278333Y-84542380D01*
X132516428Y-84542380D01*
X132611666Y-84590000D01*
X132659285Y-84637619D01*
X132706904Y-84732857D01*
X132706904Y-84828095D01*
X132659285Y-84970952D01*
X132087857Y-85542380D01*
X132706904Y-85542380D01*
X96353333Y-128722380D02*
X96020000Y-128246190D01*
X95781904Y-128722380D02*
X95781904Y-127722380D01*
X96162857Y-127722380D01*
X96258095Y-127770000D01*
X96305714Y-127817619D01*
X96353333Y-127912857D01*
X96353333Y-128055714D01*
X96305714Y-128150952D01*
X96258095Y-128198571D01*
X96162857Y-128246190D01*
X95781904Y-128246190D01*
X96686666Y-127722380D02*
X97305714Y-127722380D01*
X96972380Y-128103333D01*
X97115238Y-128103333D01*
X97210476Y-128150952D01*
X97258095Y-128198571D01*
X97305714Y-128293809D01*
X97305714Y-128531904D01*
X97258095Y-128627142D01*
X97210476Y-128674761D01*
X97115238Y-128722380D01*
X96829523Y-128722380D01*
X96734285Y-128674761D01*
X96686666Y-128627142D01*
X108332142Y-139517380D02*
X107998809Y-139041190D01*
X107760714Y-139517380D02*
X107760714Y-138517380D01*
X108141666Y-138517380D01*
X108236904Y-138565000D01*
X108284523Y-138612619D01*
X108332142Y-138707857D01*
X108332142Y-138850714D01*
X108284523Y-138945952D01*
X108236904Y-138993571D01*
X108141666Y-139041190D01*
X107760714Y-139041190D01*
X109284523Y-139517380D02*
X108713095Y-139517380D01*
X108998809Y-139517380D02*
X108998809Y-138517380D01*
X108903571Y-138660238D01*
X108808333Y-138755476D01*
X108713095Y-138803095D01*
X110141666Y-138850714D02*
X110141666Y-139517380D01*
X109903571Y-138469761D02*
X109665476Y-139184047D01*
X110284523Y-139184047D01*
X107116666Y-124547380D02*
X107116666Y-125261666D01*
X107069047Y-125404523D01*
X106973809Y-125499761D01*
X106830952Y-125547380D01*
X106735714Y-125547380D01*
X107592857Y-125547380D02*
X107592857Y-124547380D01*
X107973809Y-124547380D01*
X108069047Y-124595000D01*
X108116666Y-124642619D01*
X108164285Y-124737857D01*
X108164285Y-124880714D01*
X108116666Y-124975952D01*
X108069047Y-125023571D01*
X107973809Y-125071190D01*
X107592857Y-125071190D01*
X109021428Y-124880714D02*
X109021428Y-125547380D01*
X108783333Y-124499761D02*
X108545238Y-125214047D01*
X109164285Y-125214047D01*
X133183333Y-58777142D02*
X133135714Y-58824761D01*
X132992857Y-58872380D01*
X132897619Y-58872380D01*
X132754761Y-58824761D01*
X132659523Y-58729523D01*
X132611904Y-58634285D01*
X132564285Y-58443809D01*
X132564285Y-58300952D01*
X132611904Y-58110476D01*
X132659523Y-58015238D01*
X132754761Y-57920000D01*
X132897619Y-57872380D01*
X132992857Y-57872380D01*
X133135714Y-57920000D01*
X133183333Y-57967619D01*
X134135714Y-58872380D02*
X133564285Y-58872380D01*
X133850000Y-58872380D02*
X133850000Y-57872380D01*
X133754761Y-58015238D01*
X133659523Y-58110476D01*
X133564285Y-58158095D01*
X109942380Y-114633333D02*
X110656666Y-114633333D01*
X110799523Y-114680952D01*
X110894761Y-114776190D01*
X110942380Y-114919047D01*
X110942380Y-115014285D01*
X110275714Y-113728571D02*
X110942380Y-113728571D01*
X109894761Y-113966666D02*
X110609047Y-114204761D01*
X110609047Y-113585714D01*
X118546666Y-127087380D02*
X118546666Y-127801666D01*
X118499047Y-127944523D01*
X118403809Y-128039761D01*
X118260952Y-128087380D01*
X118165714Y-128087380D01*
X119022857Y-128087380D02*
X119022857Y-127087380D01*
X119403809Y-127087380D01*
X119499047Y-127135000D01*
X119546666Y-127182619D01*
X119594285Y-127277857D01*
X119594285Y-127420714D01*
X119546666Y-127515952D01*
X119499047Y-127563571D01*
X119403809Y-127611190D01*
X119022857Y-127611190D01*
X119975238Y-127182619D02*
X120022857Y-127135000D01*
X120118095Y-127087380D01*
X120356190Y-127087380D01*
X120451428Y-127135000D01*
X120499047Y-127182619D01*
X120546666Y-127277857D01*
X120546666Y-127373095D01*
X120499047Y-127515952D01*
X119927619Y-128087380D01*
X120546666Y-128087380D01*
X109656666Y-137247380D02*
X109656666Y-137961666D01*
X109609047Y-138104523D01*
X109513809Y-138199761D01*
X109370952Y-138247380D01*
X109275714Y-138247380D01*
X110132857Y-138247380D02*
X110132857Y-137247380D01*
X110513809Y-137247380D01*
X110609047Y-137295000D01*
X110656666Y-137342619D01*
X110704285Y-137437857D01*
X110704285Y-137580714D01*
X110656666Y-137675952D01*
X110609047Y-137723571D01*
X110513809Y-137771190D01*
X110132857Y-137771190D01*
X111609047Y-137247380D02*
X111132857Y-137247380D01*
X111085238Y-137723571D01*
X111132857Y-137675952D01*
X111228095Y-137628333D01*
X111466190Y-137628333D01*
X111561428Y-137675952D01*
X111609047Y-137723571D01*
X111656666Y-137818809D01*
X111656666Y-138056904D01*
X111609047Y-138152142D01*
X111561428Y-138199761D01*
X111466190Y-138247380D01*
X111228095Y-138247380D01*
X111132857Y-138199761D01*
X111085238Y-138152142D01*
X119181666Y-135342380D02*
X119181666Y-136056666D01*
X119134047Y-136199523D01*
X119038809Y-136294761D01*
X118895952Y-136342380D01*
X118800714Y-136342380D01*
X119657857Y-136342380D02*
X119657857Y-135342380D01*
X120038809Y-135342380D01*
X120134047Y-135390000D01*
X120181666Y-135437619D01*
X120229285Y-135532857D01*
X120229285Y-135675714D01*
X120181666Y-135770952D01*
X120134047Y-135818571D01*
X120038809Y-135866190D01*
X119657857Y-135866190D01*
X121086428Y-135342380D02*
X120895952Y-135342380D01*
X120800714Y-135390000D01*
X120753095Y-135437619D01*
X120657857Y-135580476D01*
X120610238Y-135770952D01*
X120610238Y-136151904D01*
X120657857Y-136247142D01*
X120705476Y-136294761D01*
X120800714Y-136342380D01*
X120991190Y-136342380D01*
X121086428Y-136294761D01*
X121134047Y-136247142D01*
X121181666Y-136151904D01*
X121181666Y-135913809D01*
X121134047Y-135818571D01*
X121086428Y-135770952D01*
X120991190Y-135723333D01*
X120800714Y-135723333D01*
X120705476Y-135770952D01*
X120657857Y-135818571D01*
X120610238Y-135913809D01*
X104449666Y-144613380D02*
X104449666Y-145327666D01*
X104402047Y-145470523D01*
X104306809Y-145565761D01*
X104163952Y-145613380D01*
X104068714Y-145613380D01*
X104925857Y-145613380D02*
X104925857Y-144613380D01*
X105306809Y-144613380D01*
X105402047Y-144661000D01*
X105449666Y-144708619D01*
X105497285Y-144803857D01*
X105497285Y-144946714D01*
X105449666Y-145041952D01*
X105402047Y-145089571D01*
X105306809Y-145137190D01*
X104925857Y-145137190D01*
X105830619Y-144613380D02*
X106497285Y-144613380D01*
X106068714Y-145613380D01*
X115395476Y-55332380D02*
X115395476Y-56046666D01*
X115347857Y-56189523D01*
X115252619Y-56284761D01*
X115109761Y-56332380D01*
X115014523Y-56332380D01*
X115824047Y-55427619D02*
X115871666Y-55380000D01*
X115966904Y-55332380D01*
X116205000Y-55332380D01*
X116300238Y-55380000D01*
X116347857Y-55427619D01*
X116395476Y-55522857D01*
X116395476Y-55618095D01*
X116347857Y-55760952D01*
X115776428Y-56332380D01*
X116395476Y-56332380D01*
X117347857Y-56332380D02*
X116776428Y-56332380D01*
X117062142Y-56332380D02*
X117062142Y-55332380D01*
X116966904Y-55475238D01*
X116871666Y-55570476D01*
X116776428Y-55618095D01*
X107783333Y-129008142D02*
X107735714Y-129055761D01*
X107592857Y-129103380D01*
X107497619Y-129103380D01*
X107354761Y-129055761D01*
X107259523Y-128960523D01*
X107211904Y-128865285D01*
X107164285Y-128674809D01*
X107164285Y-128531952D01*
X107211904Y-128341476D01*
X107259523Y-128246238D01*
X107354761Y-128151000D01*
X107497619Y-128103380D01*
X107592857Y-128103380D01*
X107735714Y-128151000D01*
X107783333Y-128198619D01*
X108116666Y-128103380D02*
X108735714Y-128103380D01*
X108402380Y-128484333D01*
X108545238Y-128484333D01*
X108640476Y-128531952D01*
X108688095Y-128579571D01*
X108735714Y-128674809D01*
X108735714Y-128912904D01*
X108688095Y-129008142D01*
X108640476Y-129055761D01*
X108545238Y-129103380D01*
X108259523Y-129103380D01*
X108164285Y-129055761D01*
X108116666Y-129008142D01*
X107783333Y-134342142D02*
X107735714Y-134389761D01*
X107592857Y-134437380D01*
X107497619Y-134437380D01*
X107354761Y-134389761D01*
X107259523Y-134294523D01*
X107211904Y-134199285D01*
X107164285Y-134008809D01*
X107164285Y-133865952D01*
X107211904Y-133675476D01*
X107259523Y-133580238D01*
X107354761Y-133485000D01*
X107497619Y-133437380D01*
X107592857Y-133437380D01*
X107735714Y-133485000D01*
X107783333Y-133532619D01*
X108640476Y-133770714D02*
X108640476Y-134437380D01*
X108402380Y-133389761D02*
X108164285Y-134104047D01*
X108783333Y-134104047D01*
X117308333Y-126722142D02*
X117260714Y-126769761D01*
X117117857Y-126817380D01*
X117022619Y-126817380D01*
X116879761Y-126769761D01*
X116784523Y-126674523D01*
X116736904Y-126579285D01*
X116689285Y-126388809D01*
X116689285Y-126245952D01*
X116736904Y-126055476D01*
X116784523Y-125960238D01*
X116879761Y-125865000D01*
X117022619Y-125817380D01*
X117117857Y-125817380D01*
X117260714Y-125865000D01*
X117308333Y-125912619D01*
X117641666Y-125817380D02*
X118308333Y-125817380D01*
X117879761Y-126817380D01*
X204136666Y-111847380D02*
X204136666Y-112561666D01*
X204089047Y-112704523D01*
X203993809Y-112799761D01*
X203850952Y-112847380D01*
X203755714Y-112847380D01*
X205136666Y-112847380D02*
X204565238Y-112847380D01*
X204850952Y-112847380D02*
X204850952Y-111847380D01*
X204755714Y-111990238D01*
X204660476Y-112085476D01*
X204565238Y-112133095D01*
X104862380Y-117173333D02*
X105576666Y-117173333D01*
X105719523Y-117220952D01*
X105814761Y-117316190D01*
X105862380Y-117459047D01*
X105862380Y-117554285D01*
X104957619Y-116744761D02*
X104910000Y-116697142D01*
X104862380Y-116601904D01*
X104862380Y-116363809D01*
X104910000Y-116268571D01*
X104957619Y-116220952D01*
X105052857Y-116173333D01*
X105148095Y-116173333D01*
X105290952Y-116220952D01*
X105862380Y-116792380D01*
X105862380Y-116173333D01*
X155027380Y-117649523D02*
X155741666Y-117649523D01*
X155884523Y-117697142D01*
X155979761Y-117792380D01*
X156027380Y-117935238D01*
X156027380Y-118030476D01*
X156027380Y-116649523D02*
X156027380Y-117220952D01*
X156027380Y-116935238D02*
X155027380Y-116935238D01*
X155170238Y-117030476D01*
X155265476Y-117125714D01*
X155313095Y-117220952D01*
X155027380Y-116030476D02*
X155027380Y-115935238D01*
X155075000Y-115840000D01*
X155122619Y-115792380D01*
X155217857Y-115744761D01*
X155408333Y-115697142D01*
X155646428Y-115697142D01*
X155836904Y-115744761D01*
X155932142Y-115792380D01*
X155979761Y-115840000D01*
X156027380Y-115935238D01*
X156027380Y-116030476D01*
X155979761Y-116125714D01*
X155932142Y-116173333D01*
X155836904Y-116220952D01*
X155646428Y-116268571D01*
X155408333Y-116268571D01*
X155217857Y-116220952D01*
X155122619Y-116173333D01*
X155075000Y-116125714D01*
X155027380Y-116030476D01*
X155027380Y-72564523D02*
X155741666Y-72564523D01*
X155884523Y-72612142D01*
X155979761Y-72707380D01*
X156027380Y-72850238D01*
X156027380Y-72945476D01*
X156027380Y-71564523D02*
X156027380Y-72135952D01*
X156027380Y-71850238D02*
X155027380Y-71850238D01*
X155170238Y-71945476D01*
X155265476Y-72040714D01*
X155313095Y-72135952D01*
X155122619Y-71183571D02*
X155075000Y-71135952D01*
X155027380Y-71040714D01*
X155027380Y-70802619D01*
X155075000Y-70707380D01*
X155122619Y-70659761D01*
X155217857Y-70612142D01*
X155313095Y-70612142D01*
X155455952Y-70659761D01*
X156027380Y-71231190D01*
X156027380Y-70612142D01*
X133183333Y-63857142D02*
X133135714Y-63904761D01*
X132992857Y-63952380D01*
X132897619Y-63952380D01*
X132754761Y-63904761D01*
X132659523Y-63809523D01*
X132611904Y-63714285D01*
X132564285Y-63523809D01*
X132564285Y-63380952D01*
X132611904Y-63190476D01*
X132659523Y-63095238D01*
X132754761Y-63000000D01*
X132897619Y-62952380D01*
X132992857Y-62952380D01*
X133135714Y-63000000D01*
X133183333Y-63047619D01*
X133564285Y-63047619D02*
X133611904Y-63000000D01*
X133707142Y-62952380D01*
X133945238Y-62952380D01*
X134040476Y-63000000D01*
X134088095Y-63047619D01*
X134135714Y-63142857D01*
X134135714Y-63238095D01*
X134088095Y-63380952D01*
X133516666Y-63952380D01*
X134135714Y-63952380D01*
X96353333Y-135072380D02*
X96020000Y-134596190D01*
X95781904Y-135072380D02*
X95781904Y-134072380D01*
X96162857Y-134072380D01*
X96258095Y-134120000D01*
X96305714Y-134167619D01*
X96353333Y-134262857D01*
X96353333Y-134405714D01*
X96305714Y-134500952D01*
X96258095Y-134548571D01*
X96162857Y-134596190D01*
X95781904Y-134596190D01*
X97210476Y-134405714D02*
X97210476Y-135072380D01*
X96972380Y-134024761D02*
X96734285Y-134739047D01*
X97353333Y-134739047D01*
X100163333Y-137612380D02*
X99830000Y-137136190D01*
X99591904Y-137612380D02*
X99591904Y-136612380D01*
X99972857Y-136612380D01*
X100068095Y-136660000D01*
X100115714Y-136707619D01*
X100163333Y-136802857D01*
X100163333Y-136945714D01*
X100115714Y-137040952D01*
X100068095Y-137088571D01*
X99972857Y-137136190D01*
X99591904Y-137136190D01*
X101068095Y-136612380D02*
X100591904Y-136612380D01*
X100544285Y-137088571D01*
X100591904Y-137040952D01*
X100687142Y-136993333D01*
X100925238Y-136993333D01*
X101020476Y-137040952D01*
X101068095Y-137088571D01*
X101115714Y-137183809D01*
X101115714Y-137421904D01*
X101068095Y-137517142D01*
X101020476Y-137564761D01*
X100925238Y-137612380D01*
X100687142Y-137612380D01*
X100591904Y-137564761D01*
X100544285Y-137517142D01*
X106513333Y-137612380D02*
X106180000Y-137136190D01*
X105941904Y-137612380D02*
X105941904Y-136612380D01*
X106322857Y-136612380D01*
X106418095Y-136660000D01*
X106465714Y-136707619D01*
X106513333Y-136802857D01*
X106513333Y-136945714D01*
X106465714Y-137040952D01*
X106418095Y-137088571D01*
X106322857Y-137136190D01*
X105941904Y-137136190D01*
X107370476Y-136612380D02*
X107180000Y-136612380D01*
X107084761Y-136660000D01*
X107037142Y-136707619D01*
X106941904Y-136850476D01*
X106894285Y-137040952D01*
X106894285Y-137421904D01*
X106941904Y-137517142D01*
X106989523Y-137564761D01*
X107084761Y-137612380D01*
X107275238Y-137612380D01*
X107370476Y-137564761D01*
X107418095Y-137517142D01*
X107465714Y-137421904D01*
X107465714Y-137183809D01*
X107418095Y-137088571D01*
X107370476Y-137040952D01*
X107275238Y-136993333D01*
X107084761Y-136993333D01*
X106989523Y-137040952D01*
X106941904Y-137088571D01*
X106894285Y-137183809D01*
X106513333Y-127452380D02*
X106180000Y-126976190D01*
X105941904Y-127452380D02*
X105941904Y-126452380D01*
X106322857Y-126452380D01*
X106418095Y-126500000D01*
X106465714Y-126547619D01*
X106513333Y-126642857D01*
X106513333Y-126785714D01*
X106465714Y-126880952D01*
X106418095Y-126928571D01*
X106322857Y-126976190D01*
X105941904Y-126976190D01*
X106846666Y-126452380D02*
X107513333Y-126452380D01*
X107084761Y-127452380D01*
X127382142Y-75890380D02*
X127048809Y-75414190D01*
X126810714Y-75890380D02*
X126810714Y-74890380D01*
X127191666Y-74890380D01*
X127286904Y-74938000D01*
X127334523Y-74985619D01*
X127382142Y-75080857D01*
X127382142Y-75223714D01*
X127334523Y-75318952D01*
X127286904Y-75366571D01*
X127191666Y-75414190D01*
X126810714Y-75414190D01*
X128334523Y-75890380D02*
X127763095Y-75890380D01*
X128048809Y-75890380D02*
X128048809Y-74890380D01*
X127953571Y-75033238D01*
X127858333Y-75128476D01*
X127763095Y-75176095D01*
X128667857Y-74890380D02*
X129286904Y-74890380D01*
X128953571Y-75271333D01*
X129096428Y-75271333D01*
X129191666Y-75318952D01*
X129239285Y-75366571D01*
X129286904Y-75461809D01*
X129286904Y-75699904D01*
X129239285Y-75795142D01*
X129191666Y-75842761D01*
X129096428Y-75890380D01*
X128810714Y-75890380D01*
X128715476Y-75842761D01*
X128667857Y-75795142D01*
X108577142Y-145867380D02*
X108243809Y-145391190D01*
X108005714Y-145867380D02*
X108005714Y-144867380D01*
X108386666Y-144867380D01*
X108481904Y-144915000D01*
X108529523Y-144962619D01*
X108577142Y-145057857D01*
X108577142Y-145200714D01*
X108529523Y-145295952D01*
X108481904Y-145343571D01*
X108386666Y-145391190D01*
X108005714Y-145391190D01*
X109529523Y-145867380D02*
X108958095Y-145867380D01*
X109243809Y-145867380D02*
X109243809Y-144867380D01*
X109148571Y-145010238D01*
X109053333Y-145105476D01*
X108958095Y-145153095D01*
X110434285Y-144867380D02*
X109958095Y-144867380D01*
X109910476Y-145343571D01*
X109958095Y-145295952D01*
X110053333Y-145248333D01*
X110291428Y-145248333D01*
X110386666Y-145295952D01*
X110434285Y-145343571D01*
X110481904Y-145438809D01*
X110481904Y-145676904D01*
X110434285Y-145772142D01*
X110386666Y-145819761D01*
X110291428Y-145867380D01*
X110053333Y-145867380D01*
X109958095Y-145819761D01*
X109910476Y-145772142D01*
X229052380Y-80652857D02*
X228576190Y-80986190D01*
X229052380Y-81224285D02*
X228052380Y-81224285D01*
X228052380Y-80843333D01*
X228100000Y-80748095D01*
X228147619Y-80700476D01*
X228242857Y-80652857D01*
X228385714Y-80652857D01*
X228480952Y-80700476D01*
X228528571Y-80748095D01*
X228576190Y-80843333D01*
X228576190Y-81224285D01*
X229052380Y-79700476D02*
X229052380Y-80271904D01*
X229052380Y-79986190D02*
X228052380Y-79986190D01*
X228195238Y-80081428D01*
X228290476Y-80176666D01*
X228338095Y-80271904D01*
X228052380Y-78843333D02*
X228052380Y-79033809D01*
X228100000Y-79129047D01*
X228147619Y-79176666D01*
X228290476Y-79271904D01*
X228480952Y-79319523D01*
X228861904Y-79319523D01*
X228957142Y-79271904D01*
X229004761Y-79224285D01*
X229052380Y-79129047D01*
X229052380Y-78938571D01*
X229004761Y-78843333D01*
X228957142Y-78795714D01*
X228861904Y-78748095D01*
X228623809Y-78748095D01*
X228528571Y-78795714D01*
X228480952Y-78843333D01*
X228433333Y-78938571D01*
X228433333Y-79129047D01*
X228480952Y-79224285D01*
X228528571Y-79271904D01*
X228623809Y-79319523D01*
X215082380Y-71127857D02*
X214606190Y-71461190D01*
X215082380Y-71699285D02*
X214082380Y-71699285D01*
X214082380Y-71318333D01*
X214130000Y-71223095D01*
X214177619Y-71175476D01*
X214272857Y-71127857D01*
X214415714Y-71127857D01*
X214510952Y-71175476D01*
X214558571Y-71223095D01*
X214606190Y-71318333D01*
X214606190Y-71699285D01*
X215082380Y-70175476D02*
X215082380Y-70746904D01*
X215082380Y-70461190D02*
X214082380Y-70461190D01*
X214225238Y-70556428D01*
X214320476Y-70651666D01*
X214368095Y-70746904D01*
X214082380Y-69842142D02*
X214082380Y-69175476D01*
X215082380Y-69604047D01*
X230957380Y-80652857D02*
X230481190Y-80986190D01*
X230957380Y-81224285D02*
X229957380Y-81224285D01*
X229957380Y-80843333D01*
X230005000Y-80748095D01*
X230052619Y-80700476D01*
X230147857Y-80652857D01*
X230290714Y-80652857D01*
X230385952Y-80700476D01*
X230433571Y-80748095D01*
X230481190Y-80843333D01*
X230481190Y-81224285D01*
X230957380Y-79700476D02*
X230957380Y-80271904D01*
X230957380Y-79986190D02*
X229957380Y-79986190D01*
X230100238Y-80081428D01*
X230195476Y-80176666D01*
X230243095Y-80271904D01*
X230385952Y-79129047D02*
X230338333Y-79224285D01*
X230290714Y-79271904D01*
X230195476Y-79319523D01*
X230147857Y-79319523D01*
X230052619Y-79271904D01*
X230005000Y-79224285D01*
X229957380Y-79129047D01*
X229957380Y-78938571D01*
X230005000Y-78843333D01*
X230052619Y-78795714D01*
X230147857Y-78748095D01*
X230195476Y-78748095D01*
X230290714Y-78795714D01*
X230338333Y-78843333D01*
X230385952Y-78938571D01*
X230385952Y-79129047D01*
X230433571Y-79224285D01*
X230481190Y-79271904D01*
X230576428Y-79319523D01*
X230766904Y-79319523D01*
X230862142Y-79271904D01*
X230909761Y-79224285D01*
X230957380Y-79129047D01*
X230957380Y-78938571D01*
X230909761Y-78843333D01*
X230862142Y-78795714D01*
X230766904Y-78748095D01*
X230576428Y-78748095D01*
X230481190Y-78795714D01*
X230433571Y-78843333D01*
X230385952Y-78938571D01*
X216987380Y-71127857D02*
X216511190Y-71461190D01*
X216987380Y-71699285D02*
X215987380Y-71699285D01*
X215987380Y-71318333D01*
X216035000Y-71223095D01*
X216082619Y-71175476D01*
X216177857Y-71127857D01*
X216320714Y-71127857D01*
X216415952Y-71175476D01*
X216463571Y-71223095D01*
X216511190Y-71318333D01*
X216511190Y-71699285D01*
X216987380Y-70175476D02*
X216987380Y-70746904D01*
X216987380Y-70461190D02*
X215987380Y-70461190D01*
X216130238Y-70556428D01*
X216225476Y-70651666D01*
X216273095Y-70746904D01*
X216987380Y-69699285D02*
X216987380Y-69508809D01*
X216939761Y-69413571D01*
X216892142Y-69365952D01*
X216749285Y-69270714D01*
X216558809Y-69223095D01*
X216177857Y-69223095D01*
X216082619Y-69270714D01*
X216035000Y-69318333D01*
X215987380Y-69413571D01*
X215987380Y-69604047D01*
X216035000Y-69699285D01*
X216082619Y-69746904D01*
X216177857Y-69794523D01*
X216415952Y-69794523D01*
X216511190Y-69746904D01*
X216558809Y-69699285D01*
X216606428Y-69604047D01*
X216606428Y-69413571D01*
X216558809Y-69318333D01*
X216511190Y-69270714D01*
X216415952Y-69223095D01*
X232862380Y-80652857D02*
X232386190Y-80986190D01*
X232862380Y-81224285D02*
X231862380Y-81224285D01*
X231862380Y-80843333D01*
X231910000Y-80748095D01*
X231957619Y-80700476D01*
X232052857Y-80652857D01*
X232195714Y-80652857D01*
X232290952Y-80700476D01*
X232338571Y-80748095D01*
X232386190Y-80843333D01*
X232386190Y-81224285D01*
X231957619Y-80271904D02*
X231910000Y-80224285D01*
X231862380Y-80129047D01*
X231862380Y-79890952D01*
X231910000Y-79795714D01*
X231957619Y-79748095D01*
X232052857Y-79700476D01*
X232148095Y-79700476D01*
X232290952Y-79748095D01*
X232862380Y-80319523D01*
X232862380Y-79700476D01*
X231862380Y-79081428D02*
X231862380Y-78986190D01*
X231910000Y-78890952D01*
X231957619Y-78843333D01*
X232052857Y-78795714D01*
X232243333Y-78748095D01*
X232481428Y-78748095D01*
X232671904Y-78795714D01*
X232767142Y-78843333D01*
X232814761Y-78890952D01*
X232862380Y-78986190D01*
X232862380Y-79081428D01*
X232814761Y-79176666D01*
X232767142Y-79224285D01*
X232671904Y-79271904D01*
X232481428Y-79319523D01*
X232243333Y-79319523D01*
X232052857Y-79271904D01*
X231957619Y-79224285D01*
X231910000Y-79176666D01*
X231862380Y-79081428D01*
X218892380Y-71127857D02*
X218416190Y-71461190D01*
X218892380Y-71699285D02*
X217892380Y-71699285D01*
X217892380Y-71318333D01*
X217940000Y-71223095D01*
X217987619Y-71175476D01*
X218082857Y-71127857D01*
X218225714Y-71127857D01*
X218320952Y-71175476D01*
X218368571Y-71223095D01*
X218416190Y-71318333D01*
X218416190Y-71699285D01*
X217987619Y-70746904D02*
X217940000Y-70699285D01*
X217892380Y-70604047D01*
X217892380Y-70365952D01*
X217940000Y-70270714D01*
X217987619Y-70223095D01*
X218082857Y-70175476D01*
X218178095Y-70175476D01*
X218320952Y-70223095D01*
X218892380Y-70794523D01*
X218892380Y-70175476D01*
X218892380Y-69223095D02*
X218892380Y-69794523D01*
X218892380Y-69508809D02*
X217892380Y-69508809D01*
X218035238Y-69604047D01*
X218130476Y-69699285D01*
X218178095Y-69794523D01*
X234767380Y-80652857D02*
X234291190Y-80986190D01*
X234767380Y-81224285D02*
X233767380Y-81224285D01*
X233767380Y-80843333D01*
X233815000Y-80748095D01*
X233862619Y-80700476D01*
X233957857Y-80652857D01*
X234100714Y-80652857D01*
X234195952Y-80700476D01*
X234243571Y-80748095D01*
X234291190Y-80843333D01*
X234291190Y-81224285D01*
X233862619Y-80271904D02*
X233815000Y-80224285D01*
X233767380Y-80129047D01*
X233767380Y-79890952D01*
X233815000Y-79795714D01*
X233862619Y-79748095D01*
X233957857Y-79700476D01*
X234053095Y-79700476D01*
X234195952Y-79748095D01*
X234767380Y-80319523D01*
X234767380Y-79700476D01*
X233862619Y-79319523D02*
X233815000Y-79271904D01*
X233767380Y-79176666D01*
X233767380Y-78938571D01*
X233815000Y-78843333D01*
X233862619Y-78795714D01*
X233957857Y-78748095D01*
X234053095Y-78748095D01*
X234195952Y-78795714D01*
X234767380Y-79367142D01*
X234767380Y-78748095D01*
X220797380Y-71127857D02*
X220321190Y-71461190D01*
X220797380Y-71699285D02*
X219797380Y-71699285D01*
X219797380Y-71318333D01*
X219845000Y-71223095D01*
X219892619Y-71175476D01*
X219987857Y-71127857D01*
X220130714Y-71127857D01*
X220225952Y-71175476D01*
X220273571Y-71223095D01*
X220321190Y-71318333D01*
X220321190Y-71699285D01*
X219892619Y-70746904D02*
X219845000Y-70699285D01*
X219797380Y-70604047D01*
X219797380Y-70365952D01*
X219845000Y-70270714D01*
X219892619Y-70223095D01*
X219987857Y-70175476D01*
X220083095Y-70175476D01*
X220225952Y-70223095D01*
X220797380Y-70794523D01*
X220797380Y-70175476D01*
X219797380Y-69842142D02*
X219797380Y-69223095D01*
X220178333Y-69556428D01*
X220178333Y-69413571D01*
X220225952Y-69318333D01*
X220273571Y-69270714D01*
X220368809Y-69223095D01*
X220606904Y-69223095D01*
X220702142Y-69270714D01*
X220749761Y-69318333D01*
X220797380Y-69413571D01*
X220797380Y-69699285D01*
X220749761Y-69794523D01*
X220702142Y-69842142D01*
X234767380Y-71127857D02*
X234291190Y-71461190D01*
X234767380Y-71699285D02*
X233767380Y-71699285D01*
X233767380Y-71318333D01*
X233815000Y-71223095D01*
X233862619Y-71175476D01*
X233957857Y-71127857D01*
X234100714Y-71127857D01*
X234195952Y-71175476D01*
X234243571Y-71223095D01*
X234291190Y-71318333D01*
X234291190Y-71699285D01*
X233862619Y-70746904D02*
X233815000Y-70699285D01*
X233767380Y-70604047D01*
X233767380Y-70365952D01*
X233815000Y-70270714D01*
X233862619Y-70223095D01*
X233957857Y-70175476D01*
X234053095Y-70175476D01*
X234195952Y-70223095D01*
X234767380Y-70794523D01*
X234767380Y-70175476D01*
X234100714Y-69318333D02*
X234767380Y-69318333D01*
X233719761Y-69556428D02*
X234434047Y-69794523D01*
X234434047Y-69175476D01*
X220797380Y-80652857D02*
X220321190Y-80986190D01*
X220797380Y-81224285D02*
X219797380Y-81224285D01*
X219797380Y-80843333D01*
X219845000Y-80748095D01*
X219892619Y-80700476D01*
X219987857Y-80652857D01*
X220130714Y-80652857D01*
X220225952Y-80700476D01*
X220273571Y-80748095D01*
X220321190Y-80843333D01*
X220321190Y-81224285D01*
X219892619Y-80271904D02*
X219845000Y-80224285D01*
X219797380Y-80129047D01*
X219797380Y-79890952D01*
X219845000Y-79795714D01*
X219892619Y-79748095D01*
X219987857Y-79700476D01*
X220083095Y-79700476D01*
X220225952Y-79748095D01*
X220797380Y-80319523D01*
X220797380Y-79700476D01*
X219797380Y-78795714D02*
X219797380Y-79271904D01*
X220273571Y-79319523D01*
X220225952Y-79271904D01*
X220178333Y-79176666D01*
X220178333Y-78938571D01*
X220225952Y-78843333D01*
X220273571Y-78795714D01*
X220368809Y-78748095D01*
X220606904Y-78748095D01*
X220702142Y-78795714D01*
X220749761Y-78843333D01*
X220797380Y-78938571D01*
X220797380Y-79176666D01*
X220749761Y-79271904D01*
X220702142Y-79319523D01*
X232862380Y-71127857D02*
X232386190Y-71461190D01*
X232862380Y-71699285D02*
X231862380Y-71699285D01*
X231862380Y-71318333D01*
X231910000Y-71223095D01*
X231957619Y-71175476D01*
X232052857Y-71127857D01*
X232195714Y-71127857D01*
X232290952Y-71175476D01*
X232338571Y-71223095D01*
X232386190Y-71318333D01*
X232386190Y-71699285D01*
X231957619Y-70746904D02*
X231910000Y-70699285D01*
X231862380Y-70604047D01*
X231862380Y-70365952D01*
X231910000Y-70270714D01*
X231957619Y-70223095D01*
X232052857Y-70175476D01*
X232148095Y-70175476D01*
X232290952Y-70223095D01*
X232862380Y-70794523D01*
X232862380Y-70175476D01*
X231862380Y-69318333D02*
X231862380Y-69508809D01*
X231910000Y-69604047D01*
X231957619Y-69651666D01*
X232100476Y-69746904D01*
X232290952Y-69794523D01*
X232671904Y-69794523D01*
X232767142Y-69746904D01*
X232814761Y-69699285D01*
X232862380Y-69604047D01*
X232862380Y-69413571D01*
X232814761Y-69318333D01*
X232767142Y-69270714D01*
X232671904Y-69223095D01*
X232433809Y-69223095D01*
X232338571Y-69270714D01*
X232290952Y-69318333D01*
X232243333Y-69413571D01*
X232243333Y-69604047D01*
X232290952Y-69699285D01*
X232338571Y-69746904D01*
X232433809Y-69794523D01*
X218892380Y-80652857D02*
X218416190Y-80986190D01*
X218892380Y-81224285D02*
X217892380Y-81224285D01*
X217892380Y-80843333D01*
X217940000Y-80748095D01*
X217987619Y-80700476D01*
X218082857Y-80652857D01*
X218225714Y-80652857D01*
X218320952Y-80700476D01*
X218368571Y-80748095D01*
X218416190Y-80843333D01*
X218416190Y-81224285D01*
X217987619Y-80271904D02*
X217940000Y-80224285D01*
X217892380Y-80129047D01*
X217892380Y-79890952D01*
X217940000Y-79795714D01*
X217987619Y-79748095D01*
X218082857Y-79700476D01*
X218178095Y-79700476D01*
X218320952Y-79748095D01*
X218892380Y-80319523D01*
X218892380Y-79700476D01*
X217892380Y-79367142D02*
X217892380Y-78700476D01*
X218892380Y-79129047D01*
X230957380Y-71127857D02*
X230481190Y-71461190D01*
X230957380Y-71699285D02*
X229957380Y-71699285D01*
X229957380Y-71318333D01*
X230005000Y-71223095D01*
X230052619Y-71175476D01*
X230147857Y-71127857D01*
X230290714Y-71127857D01*
X230385952Y-71175476D01*
X230433571Y-71223095D01*
X230481190Y-71318333D01*
X230481190Y-71699285D01*
X230052619Y-70746904D02*
X230005000Y-70699285D01*
X229957380Y-70604047D01*
X229957380Y-70365952D01*
X230005000Y-70270714D01*
X230052619Y-70223095D01*
X230147857Y-70175476D01*
X230243095Y-70175476D01*
X230385952Y-70223095D01*
X230957380Y-70794523D01*
X230957380Y-70175476D01*
X230385952Y-69604047D02*
X230338333Y-69699285D01*
X230290714Y-69746904D01*
X230195476Y-69794523D01*
X230147857Y-69794523D01*
X230052619Y-69746904D01*
X230005000Y-69699285D01*
X229957380Y-69604047D01*
X229957380Y-69413571D01*
X230005000Y-69318333D01*
X230052619Y-69270714D01*
X230147857Y-69223095D01*
X230195476Y-69223095D01*
X230290714Y-69270714D01*
X230338333Y-69318333D01*
X230385952Y-69413571D01*
X230385952Y-69604047D01*
X230433571Y-69699285D01*
X230481190Y-69746904D01*
X230576428Y-69794523D01*
X230766904Y-69794523D01*
X230862142Y-69746904D01*
X230909761Y-69699285D01*
X230957380Y-69604047D01*
X230957380Y-69413571D01*
X230909761Y-69318333D01*
X230862142Y-69270714D01*
X230766904Y-69223095D01*
X230576428Y-69223095D01*
X230481190Y-69270714D01*
X230433571Y-69318333D01*
X230385952Y-69413571D01*
X215082380Y-80652857D02*
X214606190Y-80986190D01*
X215082380Y-81224285D02*
X214082380Y-81224285D01*
X214082380Y-80843333D01*
X214130000Y-80748095D01*
X214177619Y-80700476D01*
X214272857Y-80652857D01*
X214415714Y-80652857D01*
X214510952Y-80700476D01*
X214558571Y-80748095D01*
X214606190Y-80843333D01*
X214606190Y-81224285D01*
X214177619Y-80271904D02*
X214130000Y-80224285D01*
X214082380Y-80129047D01*
X214082380Y-79890952D01*
X214130000Y-79795714D01*
X214177619Y-79748095D01*
X214272857Y-79700476D01*
X214368095Y-79700476D01*
X214510952Y-79748095D01*
X215082380Y-80319523D01*
X215082380Y-79700476D01*
X215082380Y-79224285D02*
X215082380Y-79033809D01*
X215034761Y-78938571D01*
X214987142Y-78890952D01*
X214844285Y-78795714D01*
X214653809Y-78748095D01*
X214272857Y-78748095D01*
X214177619Y-78795714D01*
X214130000Y-78843333D01*
X214082380Y-78938571D01*
X214082380Y-79129047D01*
X214130000Y-79224285D01*
X214177619Y-79271904D01*
X214272857Y-79319523D01*
X214510952Y-79319523D01*
X214606190Y-79271904D01*
X214653809Y-79224285D01*
X214701428Y-79129047D01*
X214701428Y-78938571D01*
X214653809Y-78843333D01*
X214606190Y-78795714D01*
X214510952Y-78748095D01*
X229052380Y-71127857D02*
X228576190Y-71461190D01*
X229052380Y-71699285D02*
X228052380Y-71699285D01*
X228052380Y-71318333D01*
X228100000Y-71223095D01*
X228147619Y-71175476D01*
X228242857Y-71127857D01*
X228385714Y-71127857D01*
X228480952Y-71175476D01*
X228528571Y-71223095D01*
X228576190Y-71318333D01*
X228576190Y-71699285D01*
X228052380Y-70794523D02*
X228052380Y-70175476D01*
X228433333Y-70508809D01*
X228433333Y-70365952D01*
X228480952Y-70270714D01*
X228528571Y-70223095D01*
X228623809Y-70175476D01*
X228861904Y-70175476D01*
X228957142Y-70223095D01*
X229004761Y-70270714D01*
X229052380Y-70365952D01*
X229052380Y-70651666D01*
X229004761Y-70746904D01*
X228957142Y-70794523D01*
X228052380Y-69556428D02*
X228052380Y-69461190D01*
X228100000Y-69365952D01*
X228147619Y-69318333D01*
X228242857Y-69270714D01*
X228433333Y-69223095D01*
X228671428Y-69223095D01*
X228861904Y-69270714D01*
X228957142Y-69318333D01*
X229004761Y-69365952D01*
X229052380Y-69461190D01*
X229052380Y-69556428D01*
X229004761Y-69651666D01*
X228957142Y-69699285D01*
X228861904Y-69746904D01*
X228671428Y-69794523D01*
X228433333Y-69794523D01*
X228242857Y-69746904D01*
X228147619Y-69699285D01*
X228100000Y-69651666D01*
X228052380Y-69556428D01*
X216987380Y-80652857D02*
X216511190Y-80986190D01*
X216987380Y-81224285D02*
X215987380Y-81224285D01*
X215987380Y-80843333D01*
X216035000Y-80748095D01*
X216082619Y-80700476D01*
X216177857Y-80652857D01*
X216320714Y-80652857D01*
X216415952Y-80700476D01*
X216463571Y-80748095D01*
X216511190Y-80843333D01*
X216511190Y-81224285D01*
X215987380Y-80319523D02*
X215987380Y-79700476D01*
X216368333Y-80033809D01*
X216368333Y-79890952D01*
X216415952Y-79795714D01*
X216463571Y-79748095D01*
X216558809Y-79700476D01*
X216796904Y-79700476D01*
X216892142Y-79748095D01*
X216939761Y-79795714D01*
X216987380Y-79890952D01*
X216987380Y-80176666D01*
X216939761Y-80271904D01*
X216892142Y-80319523D01*
X216987380Y-78748095D02*
X216987380Y-79319523D01*
X216987380Y-79033809D02*
X215987380Y-79033809D01*
X216130238Y-79129047D01*
X216225476Y-79224285D01*
X216273095Y-79319523D01*
X215082380Y-120022857D02*
X214606190Y-120356190D01*
X215082380Y-120594285D02*
X214082380Y-120594285D01*
X214082380Y-120213333D01*
X214130000Y-120118095D01*
X214177619Y-120070476D01*
X214272857Y-120022857D01*
X214415714Y-120022857D01*
X214510952Y-120070476D01*
X214558571Y-120118095D01*
X214606190Y-120213333D01*
X214606190Y-120594285D01*
X214082380Y-119689523D02*
X214082380Y-119070476D01*
X214463333Y-119403809D01*
X214463333Y-119260952D01*
X214510952Y-119165714D01*
X214558571Y-119118095D01*
X214653809Y-119070476D01*
X214891904Y-119070476D01*
X214987142Y-119118095D01*
X215034761Y-119165714D01*
X215082380Y-119260952D01*
X215082380Y-119546666D01*
X215034761Y-119641904D01*
X214987142Y-119689523D01*
X214177619Y-118689523D02*
X214130000Y-118641904D01*
X214082380Y-118546666D01*
X214082380Y-118308571D01*
X214130000Y-118213333D01*
X214177619Y-118165714D01*
X214272857Y-118118095D01*
X214368095Y-118118095D01*
X214510952Y-118165714D01*
X215082380Y-118737142D01*
X215082380Y-118118095D01*
X229052380Y-129547857D02*
X228576190Y-129881190D01*
X229052380Y-130119285D02*
X228052380Y-130119285D01*
X228052380Y-129738333D01*
X228100000Y-129643095D01*
X228147619Y-129595476D01*
X228242857Y-129547857D01*
X228385714Y-129547857D01*
X228480952Y-129595476D01*
X228528571Y-129643095D01*
X228576190Y-129738333D01*
X228576190Y-130119285D01*
X228052380Y-129214523D02*
X228052380Y-128595476D01*
X228433333Y-128928809D01*
X228433333Y-128785952D01*
X228480952Y-128690714D01*
X228528571Y-128643095D01*
X228623809Y-128595476D01*
X228861904Y-128595476D01*
X228957142Y-128643095D01*
X229004761Y-128690714D01*
X229052380Y-128785952D01*
X229052380Y-129071666D01*
X229004761Y-129166904D01*
X228957142Y-129214523D01*
X228052380Y-128262142D02*
X228052380Y-127643095D01*
X228433333Y-127976428D01*
X228433333Y-127833571D01*
X228480952Y-127738333D01*
X228528571Y-127690714D01*
X228623809Y-127643095D01*
X228861904Y-127643095D01*
X228957142Y-127690714D01*
X229004761Y-127738333D01*
X229052380Y-127833571D01*
X229052380Y-128119285D01*
X229004761Y-128214523D01*
X228957142Y-128262142D01*
X215082380Y-98432857D02*
X214606190Y-98766190D01*
X215082380Y-99004285D02*
X214082380Y-99004285D01*
X214082380Y-98623333D01*
X214130000Y-98528095D01*
X214177619Y-98480476D01*
X214272857Y-98432857D01*
X214415714Y-98432857D01*
X214510952Y-98480476D01*
X214558571Y-98528095D01*
X214606190Y-98623333D01*
X214606190Y-99004285D01*
X214082380Y-98099523D02*
X214082380Y-97480476D01*
X214463333Y-97813809D01*
X214463333Y-97670952D01*
X214510952Y-97575714D01*
X214558571Y-97528095D01*
X214653809Y-97480476D01*
X214891904Y-97480476D01*
X214987142Y-97528095D01*
X215034761Y-97575714D01*
X215082380Y-97670952D01*
X215082380Y-97956666D01*
X215034761Y-98051904D01*
X214987142Y-98099523D01*
X214415714Y-96623333D02*
X215082380Y-96623333D01*
X214034761Y-96861428D02*
X214749047Y-97099523D01*
X214749047Y-96480476D01*
X229052380Y-107322857D02*
X228576190Y-107656190D01*
X229052380Y-107894285D02*
X228052380Y-107894285D01*
X228052380Y-107513333D01*
X228100000Y-107418095D01*
X228147619Y-107370476D01*
X228242857Y-107322857D01*
X228385714Y-107322857D01*
X228480952Y-107370476D01*
X228528571Y-107418095D01*
X228576190Y-107513333D01*
X228576190Y-107894285D01*
X228052380Y-106989523D02*
X228052380Y-106370476D01*
X228433333Y-106703809D01*
X228433333Y-106560952D01*
X228480952Y-106465714D01*
X228528571Y-106418095D01*
X228623809Y-106370476D01*
X228861904Y-106370476D01*
X228957142Y-106418095D01*
X229004761Y-106465714D01*
X229052380Y-106560952D01*
X229052380Y-106846666D01*
X229004761Y-106941904D01*
X228957142Y-106989523D01*
X228052380Y-105465714D02*
X228052380Y-105941904D01*
X228528571Y-105989523D01*
X228480952Y-105941904D01*
X228433333Y-105846666D01*
X228433333Y-105608571D01*
X228480952Y-105513333D01*
X228528571Y-105465714D01*
X228623809Y-105418095D01*
X228861904Y-105418095D01*
X228957142Y-105465714D01*
X229004761Y-105513333D01*
X229052380Y-105608571D01*
X229052380Y-105846666D01*
X229004761Y-105941904D01*
X228957142Y-105989523D01*
X216987380Y-120022857D02*
X216511190Y-120356190D01*
X216987380Y-120594285D02*
X215987380Y-120594285D01*
X215987380Y-120213333D01*
X216035000Y-120118095D01*
X216082619Y-120070476D01*
X216177857Y-120022857D01*
X216320714Y-120022857D01*
X216415952Y-120070476D01*
X216463571Y-120118095D01*
X216511190Y-120213333D01*
X216511190Y-120594285D01*
X215987380Y-119689523D02*
X215987380Y-119070476D01*
X216368333Y-119403809D01*
X216368333Y-119260952D01*
X216415952Y-119165714D01*
X216463571Y-119118095D01*
X216558809Y-119070476D01*
X216796904Y-119070476D01*
X216892142Y-119118095D01*
X216939761Y-119165714D01*
X216987380Y-119260952D01*
X216987380Y-119546666D01*
X216939761Y-119641904D01*
X216892142Y-119689523D01*
X215987380Y-118213333D02*
X215987380Y-118403809D01*
X216035000Y-118499047D01*
X216082619Y-118546666D01*
X216225476Y-118641904D01*
X216415952Y-118689523D01*
X216796904Y-118689523D01*
X216892142Y-118641904D01*
X216939761Y-118594285D01*
X216987380Y-118499047D01*
X216987380Y-118308571D01*
X216939761Y-118213333D01*
X216892142Y-118165714D01*
X216796904Y-118118095D01*
X216558809Y-118118095D01*
X216463571Y-118165714D01*
X216415952Y-118213333D01*
X216368333Y-118308571D01*
X216368333Y-118499047D01*
X216415952Y-118594285D01*
X216463571Y-118641904D01*
X216558809Y-118689523D01*
X230957380Y-129547857D02*
X230481190Y-129881190D01*
X230957380Y-130119285D02*
X229957380Y-130119285D01*
X229957380Y-129738333D01*
X230005000Y-129643095D01*
X230052619Y-129595476D01*
X230147857Y-129547857D01*
X230290714Y-129547857D01*
X230385952Y-129595476D01*
X230433571Y-129643095D01*
X230481190Y-129738333D01*
X230481190Y-130119285D01*
X229957380Y-129214523D02*
X229957380Y-128595476D01*
X230338333Y-128928809D01*
X230338333Y-128785952D01*
X230385952Y-128690714D01*
X230433571Y-128643095D01*
X230528809Y-128595476D01*
X230766904Y-128595476D01*
X230862142Y-128643095D01*
X230909761Y-128690714D01*
X230957380Y-128785952D01*
X230957380Y-129071666D01*
X230909761Y-129166904D01*
X230862142Y-129214523D01*
X229957380Y-128262142D02*
X229957380Y-127595476D01*
X230957380Y-128024047D01*
X216987380Y-98432857D02*
X216511190Y-98766190D01*
X216987380Y-99004285D02*
X215987380Y-99004285D01*
X215987380Y-98623333D01*
X216035000Y-98528095D01*
X216082619Y-98480476D01*
X216177857Y-98432857D01*
X216320714Y-98432857D01*
X216415952Y-98480476D01*
X216463571Y-98528095D01*
X216511190Y-98623333D01*
X216511190Y-99004285D01*
X215987380Y-98099523D02*
X215987380Y-97480476D01*
X216368333Y-97813809D01*
X216368333Y-97670952D01*
X216415952Y-97575714D01*
X216463571Y-97528095D01*
X216558809Y-97480476D01*
X216796904Y-97480476D01*
X216892142Y-97528095D01*
X216939761Y-97575714D01*
X216987380Y-97670952D01*
X216987380Y-97956666D01*
X216939761Y-98051904D01*
X216892142Y-98099523D01*
X216415952Y-96909047D02*
X216368333Y-97004285D01*
X216320714Y-97051904D01*
X216225476Y-97099523D01*
X216177857Y-97099523D01*
X216082619Y-97051904D01*
X216035000Y-97004285D01*
X215987380Y-96909047D01*
X215987380Y-96718571D01*
X216035000Y-96623333D01*
X216082619Y-96575714D01*
X216177857Y-96528095D01*
X216225476Y-96528095D01*
X216320714Y-96575714D01*
X216368333Y-96623333D01*
X216415952Y-96718571D01*
X216415952Y-96909047D01*
X216463571Y-97004285D01*
X216511190Y-97051904D01*
X216606428Y-97099523D01*
X216796904Y-97099523D01*
X216892142Y-97051904D01*
X216939761Y-97004285D01*
X216987380Y-96909047D01*
X216987380Y-96718571D01*
X216939761Y-96623333D01*
X216892142Y-96575714D01*
X216796904Y-96528095D01*
X216606428Y-96528095D01*
X216511190Y-96575714D01*
X216463571Y-96623333D01*
X216415952Y-96718571D01*
X230957380Y-107322857D02*
X230481190Y-107656190D01*
X230957380Y-107894285D02*
X229957380Y-107894285D01*
X229957380Y-107513333D01*
X230005000Y-107418095D01*
X230052619Y-107370476D01*
X230147857Y-107322857D01*
X230290714Y-107322857D01*
X230385952Y-107370476D01*
X230433571Y-107418095D01*
X230481190Y-107513333D01*
X230481190Y-107894285D01*
X229957380Y-106989523D02*
X229957380Y-106370476D01*
X230338333Y-106703809D01*
X230338333Y-106560952D01*
X230385952Y-106465714D01*
X230433571Y-106418095D01*
X230528809Y-106370476D01*
X230766904Y-106370476D01*
X230862142Y-106418095D01*
X230909761Y-106465714D01*
X230957380Y-106560952D01*
X230957380Y-106846666D01*
X230909761Y-106941904D01*
X230862142Y-106989523D01*
X230957380Y-105894285D02*
X230957380Y-105703809D01*
X230909761Y-105608571D01*
X230862142Y-105560952D01*
X230719285Y-105465714D01*
X230528809Y-105418095D01*
X230147857Y-105418095D01*
X230052619Y-105465714D01*
X230005000Y-105513333D01*
X229957380Y-105608571D01*
X229957380Y-105799047D01*
X230005000Y-105894285D01*
X230052619Y-105941904D01*
X230147857Y-105989523D01*
X230385952Y-105989523D01*
X230481190Y-105941904D01*
X230528809Y-105894285D01*
X230576428Y-105799047D01*
X230576428Y-105608571D01*
X230528809Y-105513333D01*
X230481190Y-105465714D01*
X230385952Y-105418095D01*
X218892380Y-120022857D02*
X218416190Y-120356190D01*
X218892380Y-120594285D02*
X217892380Y-120594285D01*
X217892380Y-120213333D01*
X217940000Y-120118095D01*
X217987619Y-120070476D01*
X218082857Y-120022857D01*
X218225714Y-120022857D01*
X218320952Y-120070476D01*
X218368571Y-120118095D01*
X218416190Y-120213333D01*
X218416190Y-120594285D01*
X218225714Y-119165714D02*
X218892380Y-119165714D01*
X217844761Y-119403809D02*
X218559047Y-119641904D01*
X218559047Y-119022857D01*
X217892380Y-118451428D02*
X217892380Y-118356190D01*
X217940000Y-118260952D01*
X217987619Y-118213333D01*
X218082857Y-118165714D01*
X218273333Y-118118095D01*
X218511428Y-118118095D01*
X218701904Y-118165714D01*
X218797142Y-118213333D01*
X218844761Y-118260952D01*
X218892380Y-118356190D01*
X218892380Y-118451428D01*
X218844761Y-118546666D01*
X218797142Y-118594285D01*
X218701904Y-118641904D01*
X218511428Y-118689523D01*
X218273333Y-118689523D01*
X218082857Y-118641904D01*
X217987619Y-118594285D01*
X217940000Y-118546666D01*
X217892380Y-118451428D01*
X232862380Y-129547857D02*
X232386190Y-129881190D01*
X232862380Y-130119285D02*
X231862380Y-130119285D01*
X231862380Y-129738333D01*
X231910000Y-129643095D01*
X231957619Y-129595476D01*
X232052857Y-129547857D01*
X232195714Y-129547857D01*
X232290952Y-129595476D01*
X232338571Y-129643095D01*
X232386190Y-129738333D01*
X232386190Y-130119285D01*
X232195714Y-128690714D02*
X232862380Y-128690714D01*
X231814761Y-128928809D02*
X232529047Y-129166904D01*
X232529047Y-128547857D01*
X232862380Y-127643095D02*
X232862380Y-128214523D01*
X232862380Y-127928809D02*
X231862380Y-127928809D01*
X232005238Y-128024047D01*
X232100476Y-128119285D01*
X232148095Y-128214523D01*
X218892380Y-98432857D02*
X218416190Y-98766190D01*
X218892380Y-99004285D02*
X217892380Y-99004285D01*
X217892380Y-98623333D01*
X217940000Y-98528095D01*
X217987619Y-98480476D01*
X218082857Y-98432857D01*
X218225714Y-98432857D01*
X218320952Y-98480476D01*
X218368571Y-98528095D01*
X218416190Y-98623333D01*
X218416190Y-99004285D01*
X218225714Y-97575714D02*
X218892380Y-97575714D01*
X217844761Y-97813809D02*
X218559047Y-98051904D01*
X218559047Y-97432857D01*
X217987619Y-97099523D02*
X217940000Y-97051904D01*
X217892380Y-96956666D01*
X217892380Y-96718571D01*
X217940000Y-96623333D01*
X217987619Y-96575714D01*
X218082857Y-96528095D01*
X218178095Y-96528095D01*
X218320952Y-96575714D01*
X218892380Y-97147142D01*
X218892380Y-96528095D01*
X232862380Y-107322857D02*
X232386190Y-107656190D01*
X232862380Y-107894285D02*
X231862380Y-107894285D01*
X231862380Y-107513333D01*
X231910000Y-107418095D01*
X231957619Y-107370476D01*
X232052857Y-107322857D01*
X232195714Y-107322857D01*
X232290952Y-107370476D01*
X232338571Y-107418095D01*
X232386190Y-107513333D01*
X232386190Y-107894285D01*
X232195714Y-106465714D02*
X232862380Y-106465714D01*
X231814761Y-106703809D02*
X232529047Y-106941904D01*
X232529047Y-106322857D01*
X231862380Y-106037142D02*
X231862380Y-105418095D01*
X232243333Y-105751428D01*
X232243333Y-105608571D01*
X232290952Y-105513333D01*
X232338571Y-105465714D01*
X232433809Y-105418095D01*
X232671904Y-105418095D01*
X232767142Y-105465714D01*
X232814761Y-105513333D01*
X232862380Y-105608571D01*
X232862380Y-105894285D01*
X232814761Y-105989523D01*
X232767142Y-106037142D01*
X220797380Y-120022857D02*
X220321190Y-120356190D01*
X220797380Y-120594285D02*
X219797380Y-120594285D01*
X219797380Y-120213333D01*
X219845000Y-120118095D01*
X219892619Y-120070476D01*
X219987857Y-120022857D01*
X220130714Y-120022857D01*
X220225952Y-120070476D01*
X220273571Y-120118095D01*
X220321190Y-120213333D01*
X220321190Y-120594285D01*
X220130714Y-119165714D02*
X220797380Y-119165714D01*
X219749761Y-119403809D02*
X220464047Y-119641904D01*
X220464047Y-119022857D01*
X220130714Y-118213333D02*
X220797380Y-118213333D01*
X219749761Y-118451428D02*
X220464047Y-118689523D01*
X220464047Y-118070476D01*
X234767380Y-129547857D02*
X234291190Y-129881190D01*
X234767380Y-130119285D02*
X233767380Y-130119285D01*
X233767380Y-129738333D01*
X233815000Y-129643095D01*
X233862619Y-129595476D01*
X233957857Y-129547857D01*
X234100714Y-129547857D01*
X234195952Y-129595476D01*
X234243571Y-129643095D01*
X234291190Y-129738333D01*
X234291190Y-130119285D01*
X234100714Y-128690714D02*
X234767380Y-128690714D01*
X233719761Y-128928809D02*
X234434047Y-129166904D01*
X234434047Y-128547857D01*
X233767380Y-127690714D02*
X233767380Y-128166904D01*
X234243571Y-128214523D01*
X234195952Y-128166904D01*
X234148333Y-128071666D01*
X234148333Y-127833571D01*
X234195952Y-127738333D01*
X234243571Y-127690714D01*
X234338809Y-127643095D01*
X234576904Y-127643095D01*
X234672142Y-127690714D01*
X234719761Y-127738333D01*
X234767380Y-127833571D01*
X234767380Y-128071666D01*
X234719761Y-128166904D01*
X234672142Y-128214523D01*
X220797380Y-98432857D02*
X220321190Y-98766190D01*
X220797380Y-99004285D02*
X219797380Y-99004285D01*
X219797380Y-98623333D01*
X219845000Y-98528095D01*
X219892619Y-98480476D01*
X219987857Y-98432857D01*
X220130714Y-98432857D01*
X220225952Y-98480476D01*
X220273571Y-98528095D01*
X220321190Y-98623333D01*
X220321190Y-99004285D01*
X220130714Y-97575714D02*
X220797380Y-97575714D01*
X219749761Y-97813809D02*
X220464047Y-98051904D01*
X220464047Y-97432857D01*
X219797380Y-96623333D02*
X219797380Y-96813809D01*
X219845000Y-96909047D01*
X219892619Y-96956666D01*
X220035476Y-97051904D01*
X220225952Y-97099523D01*
X220606904Y-97099523D01*
X220702142Y-97051904D01*
X220749761Y-97004285D01*
X220797380Y-96909047D01*
X220797380Y-96718571D01*
X220749761Y-96623333D01*
X220702142Y-96575714D01*
X220606904Y-96528095D01*
X220368809Y-96528095D01*
X220273571Y-96575714D01*
X220225952Y-96623333D01*
X220178333Y-96718571D01*
X220178333Y-96909047D01*
X220225952Y-97004285D01*
X220273571Y-97051904D01*
X220368809Y-97099523D01*
X234767380Y-107322857D02*
X234291190Y-107656190D01*
X234767380Y-107894285D02*
X233767380Y-107894285D01*
X233767380Y-107513333D01*
X233815000Y-107418095D01*
X233862619Y-107370476D01*
X233957857Y-107322857D01*
X234100714Y-107322857D01*
X234195952Y-107370476D01*
X234243571Y-107418095D01*
X234291190Y-107513333D01*
X234291190Y-107894285D01*
X234100714Y-106465714D02*
X234767380Y-106465714D01*
X233719761Y-106703809D02*
X234434047Y-106941904D01*
X234434047Y-106322857D01*
X233767380Y-106037142D02*
X233767380Y-105370476D01*
X234767380Y-105799047D01*
X220797380Y-129547857D02*
X220321190Y-129881190D01*
X220797380Y-130119285D02*
X219797380Y-130119285D01*
X219797380Y-129738333D01*
X219845000Y-129643095D01*
X219892619Y-129595476D01*
X219987857Y-129547857D01*
X220130714Y-129547857D01*
X220225952Y-129595476D01*
X220273571Y-129643095D01*
X220321190Y-129738333D01*
X220321190Y-130119285D01*
X220130714Y-128690714D02*
X220797380Y-128690714D01*
X219749761Y-128928809D02*
X220464047Y-129166904D01*
X220464047Y-128547857D01*
X220225952Y-128024047D02*
X220178333Y-128119285D01*
X220130714Y-128166904D01*
X220035476Y-128214523D01*
X219987857Y-128214523D01*
X219892619Y-128166904D01*
X219845000Y-128119285D01*
X219797380Y-128024047D01*
X219797380Y-127833571D01*
X219845000Y-127738333D01*
X219892619Y-127690714D01*
X219987857Y-127643095D01*
X220035476Y-127643095D01*
X220130714Y-127690714D01*
X220178333Y-127738333D01*
X220225952Y-127833571D01*
X220225952Y-128024047D01*
X220273571Y-128119285D01*
X220321190Y-128166904D01*
X220416428Y-128214523D01*
X220606904Y-128214523D01*
X220702142Y-128166904D01*
X220749761Y-128119285D01*
X220797380Y-128024047D01*
X220797380Y-127833571D01*
X220749761Y-127738333D01*
X220702142Y-127690714D01*
X220606904Y-127643095D01*
X220416428Y-127643095D01*
X220321190Y-127690714D01*
X220273571Y-127738333D01*
X220225952Y-127833571D01*
X234767380Y-120022857D02*
X234291190Y-120356190D01*
X234767380Y-120594285D02*
X233767380Y-120594285D01*
X233767380Y-120213333D01*
X233815000Y-120118095D01*
X233862619Y-120070476D01*
X233957857Y-120022857D01*
X234100714Y-120022857D01*
X234195952Y-120070476D01*
X234243571Y-120118095D01*
X234291190Y-120213333D01*
X234291190Y-120594285D01*
X234100714Y-119165714D02*
X234767380Y-119165714D01*
X233719761Y-119403809D02*
X234434047Y-119641904D01*
X234434047Y-119022857D01*
X234767380Y-118594285D02*
X234767380Y-118403809D01*
X234719761Y-118308571D01*
X234672142Y-118260952D01*
X234529285Y-118165714D01*
X234338809Y-118118095D01*
X233957857Y-118118095D01*
X233862619Y-118165714D01*
X233815000Y-118213333D01*
X233767380Y-118308571D01*
X233767380Y-118499047D01*
X233815000Y-118594285D01*
X233862619Y-118641904D01*
X233957857Y-118689523D01*
X234195952Y-118689523D01*
X234291190Y-118641904D01*
X234338809Y-118594285D01*
X234386428Y-118499047D01*
X234386428Y-118308571D01*
X234338809Y-118213333D01*
X234291190Y-118165714D01*
X234195952Y-118118095D01*
X220797380Y-107322857D02*
X220321190Y-107656190D01*
X220797380Y-107894285D02*
X219797380Y-107894285D01*
X219797380Y-107513333D01*
X219845000Y-107418095D01*
X219892619Y-107370476D01*
X219987857Y-107322857D01*
X220130714Y-107322857D01*
X220225952Y-107370476D01*
X220273571Y-107418095D01*
X220321190Y-107513333D01*
X220321190Y-107894285D01*
X219797380Y-106418095D02*
X219797380Y-106894285D01*
X220273571Y-106941904D01*
X220225952Y-106894285D01*
X220178333Y-106799047D01*
X220178333Y-106560952D01*
X220225952Y-106465714D01*
X220273571Y-106418095D01*
X220368809Y-106370476D01*
X220606904Y-106370476D01*
X220702142Y-106418095D01*
X220749761Y-106465714D01*
X220797380Y-106560952D01*
X220797380Y-106799047D01*
X220749761Y-106894285D01*
X220702142Y-106941904D01*
X219797380Y-105751428D02*
X219797380Y-105656190D01*
X219845000Y-105560952D01*
X219892619Y-105513333D01*
X219987857Y-105465714D01*
X220178333Y-105418095D01*
X220416428Y-105418095D01*
X220606904Y-105465714D01*
X220702142Y-105513333D01*
X220749761Y-105560952D01*
X220797380Y-105656190D01*
X220797380Y-105751428D01*
X220749761Y-105846666D01*
X220702142Y-105894285D01*
X220606904Y-105941904D01*
X220416428Y-105989523D01*
X220178333Y-105989523D01*
X219987857Y-105941904D01*
X219892619Y-105894285D01*
X219845000Y-105846666D01*
X219797380Y-105751428D01*
X234767380Y-98432857D02*
X234291190Y-98766190D01*
X234767380Y-99004285D02*
X233767380Y-99004285D01*
X233767380Y-98623333D01*
X233815000Y-98528095D01*
X233862619Y-98480476D01*
X233957857Y-98432857D01*
X234100714Y-98432857D01*
X234195952Y-98480476D01*
X234243571Y-98528095D01*
X234291190Y-98623333D01*
X234291190Y-99004285D01*
X233767380Y-97528095D02*
X233767380Y-98004285D01*
X234243571Y-98051904D01*
X234195952Y-98004285D01*
X234148333Y-97909047D01*
X234148333Y-97670952D01*
X234195952Y-97575714D01*
X234243571Y-97528095D01*
X234338809Y-97480476D01*
X234576904Y-97480476D01*
X234672142Y-97528095D01*
X234719761Y-97575714D01*
X234767380Y-97670952D01*
X234767380Y-97909047D01*
X234719761Y-98004285D01*
X234672142Y-98051904D01*
X234767380Y-96528095D02*
X234767380Y-97099523D01*
X234767380Y-96813809D02*
X233767380Y-96813809D01*
X233910238Y-96909047D01*
X234005476Y-97004285D01*
X234053095Y-97099523D01*
X218892380Y-129547857D02*
X218416190Y-129881190D01*
X218892380Y-130119285D02*
X217892380Y-130119285D01*
X217892380Y-129738333D01*
X217940000Y-129643095D01*
X217987619Y-129595476D01*
X218082857Y-129547857D01*
X218225714Y-129547857D01*
X218320952Y-129595476D01*
X218368571Y-129643095D01*
X218416190Y-129738333D01*
X218416190Y-130119285D01*
X217892380Y-128643095D02*
X217892380Y-129119285D01*
X218368571Y-129166904D01*
X218320952Y-129119285D01*
X218273333Y-129024047D01*
X218273333Y-128785952D01*
X218320952Y-128690714D01*
X218368571Y-128643095D01*
X218463809Y-128595476D01*
X218701904Y-128595476D01*
X218797142Y-128643095D01*
X218844761Y-128690714D01*
X218892380Y-128785952D01*
X218892380Y-129024047D01*
X218844761Y-129119285D01*
X218797142Y-129166904D01*
X217987619Y-128214523D02*
X217940000Y-128166904D01*
X217892380Y-128071666D01*
X217892380Y-127833571D01*
X217940000Y-127738333D01*
X217987619Y-127690714D01*
X218082857Y-127643095D01*
X218178095Y-127643095D01*
X218320952Y-127690714D01*
X218892380Y-128262142D01*
X218892380Y-127643095D01*
X232862380Y-120022857D02*
X232386190Y-120356190D01*
X232862380Y-120594285D02*
X231862380Y-120594285D01*
X231862380Y-120213333D01*
X231910000Y-120118095D01*
X231957619Y-120070476D01*
X232052857Y-120022857D01*
X232195714Y-120022857D01*
X232290952Y-120070476D01*
X232338571Y-120118095D01*
X232386190Y-120213333D01*
X232386190Y-120594285D01*
X231862380Y-119118095D02*
X231862380Y-119594285D01*
X232338571Y-119641904D01*
X232290952Y-119594285D01*
X232243333Y-119499047D01*
X232243333Y-119260952D01*
X232290952Y-119165714D01*
X232338571Y-119118095D01*
X232433809Y-119070476D01*
X232671904Y-119070476D01*
X232767142Y-119118095D01*
X232814761Y-119165714D01*
X232862380Y-119260952D01*
X232862380Y-119499047D01*
X232814761Y-119594285D01*
X232767142Y-119641904D01*
X231862380Y-118737142D02*
X231862380Y-118118095D01*
X232243333Y-118451428D01*
X232243333Y-118308571D01*
X232290952Y-118213333D01*
X232338571Y-118165714D01*
X232433809Y-118118095D01*
X232671904Y-118118095D01*
X232767142Y-118165714D01*
X232814761Y-118213333D01*
X232862380Y-118308571D01*
X232862380Y-118594285D01*
X232814761Y-118689523D01*
X232767142Y-118737142D01*
X218892380Y-107322857D02*
X218416190Y-107656190D01*
X218892380Y-107894285D02*
X217892380Y-107894285D01*
X217892380Y-107513333D01*
X217940000Y-107418095D01*
X217987619Y-107370476D01*
X218082857Y-107322857D01*
X218225714Y-107322857D01*
X218320952Y-107370476D01*
X218368571Y-107418095D01*
X218416190Y-107513333D01*
X218416190Y-107894285D01*
X217892380Y-106418095D02*
X217892380Y-106894285D01*
X218368571Y-106941904D01*
X218320952Y-106894285D01*
X218273333Y-106799047D01*
X218273333Y-106560952D01*
X218320952Y-106465714D01*
X218368571Y-106418095D01*
X218463809Y-106370476D01*
X218701904Y-106370476D01*
X218797142Y-106418095D01*
X218844761Y-106465714D01*
X218892380Y-106560952D01*
X218892380Y-106799047D01*
X218844761Y-106894285D01*
X218797142Y-106941904D01*
X218225714Y-105513333D02*
X218892380Y-105513333D01*
X217844761Y-105751428D02*
X218559047Y-105989523D01*
X218559047Y-105370476D01*
X232862380Y-98432857D02*
X232386190Y-98766190D01*
X232862380Y-99004285D02*
X231862380Y-99004285D01*
X231862380Y-98623333D01*
X231910000Y-98528095D01*
X231957619Y-98480476D01*
X232052857Y-98432857D01*
X232195714Y-98432857D01*
X232290952Y-98480476D01*
X232338571Y-98528095D01*
X232386190Y-98623333D01*
X232386190Y-99004285D01*
X231862380Y-97528095D02*
X231862380Y-98004285D01*
X232338571Y-98051904D01*
X232290952Y-98004285D01*
X232243333Y-97909047D01*
X232243333Y-97670952D01*
X232290952Y-97575714D01*
X232338571Y-97528095D01*
X232433809Y-97480476D01*
X232671904Y-97480476D01*
X232767142Y-97528095D01*
X232814761Y-97575714D01*
X232862380Y-97670952D01*
X232862380Y-97909047D01*
X232814761Y-98004285D01*
X232767142Y-98051904D01*
X231862380Y-96575714D02*
X231862380Y-97051904D01*
X232338571Y-97099523D01*
X232290952Y-97051904D01*
X232243333Y-96956666D01*
X232243333Y-96718571D01*
X232290952Y-96623333D01*
X232338571Y-96575714D01*
X232433809Y-96528095D01*
X232671904Y-96528095D01*
X232767142Y-96575714D01*
X232814761Y-96623333D01*
X232862380Y-96718571D01*
X232862380Y-96956666D01*
X232814761Y-97051904D01*
X232767142Y-97099523D01*
X216987380Y-129547857D02*
X216511190Y-129881190D01*
X216987380Y-130119285D02*
X215987380Y-130119285D01*
X215987380Y-129738333D01*
X216035000Y-129643095D01*
X216082619Y-129595476D01*
X216177857Y-129547857D01*
X216320714Y-129547857D01*
X216415952Y-129595476D01*
X216463571Y-129643095D01*
X216511190Y-129738333D01*
X216511190Y-130119285D01*
X215987380Y-128643095D02*
X215987380Y-129119285D01*
X216463571Y-129166904D01*
X216415952Y-129119285D01*
X216368333Y-129024047D01*
X216368333Y-128785952D01*
X216415952Y-128690714D01*
X216463571Y-128643095D01*
X216558809Y-128595476D01*
X216796904Y-128595476D01*
X216892142Y-128643095D01*
X216939761Y-128690714D01*
X216987380Y-128785952D01*
X216987380Y-129024047D01*
X216939761Y-129119285D01*
X216892142Y-129166904D01*
X215987380Y-127738333D02*
X215987380Y-127928809D01*
X216035000Y-128024047D01*
X216082619Y-128071666D01*
X216225476Y-128166904D01*
X216415952Y-128214523D01*
X216796904Y-128214523D01*
X216892142Y-128166904D01*
X216939761Y-128119285D01*
X216987380Y-128024047D01*
X216987380Y-127833571D01*
X216939761Y-127738333D01*
X216892142Y-127690714D01*
X216796904Y-127643095D01*
X216558809Y-127643095D01*
X216463571Y-127690714D01*
X216415952Y-127738333D01*
X216368333Y-127833571D01*
X216368333Y-128024047D01*
X216415952Y-128119285D01*
X216463571Y-128166904D01*
X216558809Y-128214523D01*
X230957380Y-120022857D02*
X230481190Y-120356190D01*
X230957380Y-120594285D02*
X229957380Y-120594285D01*
X229957380Y-120213333D01*
X230005000Y-120118095D01*
X230052619Y-120070476D01*
X230147857Y-120022857D01*
X230290714Y-120022857D01*
X230385952Y-120070476D01*
X230433571Y-120118095D01*
X230481190Y-120213333D01*
X230481190Y-120594285D01*
X229957380Y-119118095D02*
X229957380Y-119594285D01*
X230433571Y-119641904D01*
X230385952Y-119594285D01*
X230338333Y-119499047D01*
X230338333Y-119260952D01*
X230385952Y-119165714D01*
X230433571Y-119118095D01*
X230528809Y-119070476D01*
X230766904Y-119070476D01*
X230862142Y-119118095D01*
X230909761Y-119165714D01*
X230957380Y-119260952D01*
X230957380Y-119499047D01*
X230909761Y-119594285D01*
X230862142Y-119641904D01*
X229957380Y-118737142D02*
X229957380Y-118070476D01*
X230957380Y-118499047D01*
X216987380Y-107322857D02*
X216511190Y-107656190D01*
X216987380Y-107894285D02*
X215987380Y-107894285D01*
X215987380Y-107513333D01*
X216035000Y-107418095D01*
X216082619Y-107370476D01*
X216177857Y-107322857D01*
X216320714Y-107322857D01*
X216415952Y-107370476D01*
X216463571Y-107418095D01*
X216511190Y-107513333D01*
X216511190Y-107894285D01*
X215987380Y-106418095D02*
X215987380Y-106894285D01*
X216463571Y-106941904D01*
X216415952Y-106894285D01*
X216368333Y-106799047D01*
X216368333Y-106560952D01*
X216415952Y-106465714D01*
X216463571Y-106418095D01*
X216558809Y-106370476D01*
X216796904Y-106370476D01*
X216892142Y-106418095D01*
X216939761Y-106465714D01*
X216987380Y-106560952D01*
X216987380Y-106799047D01*
X216939761Y-106894285D01*
X216892142Y-106941904D01*
X216415952Y-105799047D02*
X216368333Y-105894285D01*
X216320714Y-105941904D01*
X216225476Y-105989523D01*
X216177857Y-105989523D01*
X216082619Y-105941904D01*
X216035000Y-105894285D01*
X215987380Y-105799047D01*
X215987380Y-105608571D01*
X216035000Y-105513333D01*
X216082619Y-105465714D01*
X216177857Y-105418095D01*
X216225476Y-105418095D01*
X216320714Y-105465714D01*
X216368333Y-105513333D01*
X216415952Y-105608571D01*
X216415952Y-105799047D01*
X216463571Y-105894285D01*
X216511190Y-105941904D01*
X216606428Y-105989523D01*
X216796904Y-105989523D01*
X216892142Y-105941904D01*
X216939761Y-105894285D01*
X216987380Y-105799047D01*
X216987380Y-105608571D01*
X216939761Y-105513333D01*
X216892142Y-105465714D01*
X216796904Y-105418095D01*
X216606428Y-105418095D01*
X216511190Y-105465714D01*
X216463571Y-105513333D01*
X216415952Y-105608571D01*
X230957380Y-98432857D02*
X230481190Y-98766190D01*
X230957380Y-99004285D02*
X229957380Y-99004285D01*
X229957380Y-98623333D01*
X230005000Y-98528095D01*
X230052619Y-98480476D01*
X230147857Y-98432857D01*
X230290714Y-98432857D01*
X230385952Y-98480476D01*
X230433571Y-98528095D01*
X230481190Y-98623333D01*
X230481190Y-99004285D01*
X229957380Y-97528095D02*
X229957380Y-98004285D01*
X230433571Y-98051904D01*
X230385952Y-98004285D01*
X230338333Y-97909047D01*
X230338333Y-97670952D01*
X230385952Y-97575714D01*
X230433571Y-97528095D01*
X230528809Y-97480476D01*
X230766904Y-97480476D01*
X230862142Y-97528095D01*
X230909761Y-97575714D01*
X230957380Y-97670952D01*
X230957380Y-97909047D01*
X230909761Y-98004285D01*
X230862142Y-98051904D01*
X230957380Y-97004285D02*
X230957380Y-96813809D01*
X230909761Y-96718571D01*
X230862142Y-96670952D01*
X230719285Y-96575714D01*
X230528809Y-96528095D01*
X230147857Y-96528095D01*
X230052619Y-96575714D01*
X230005000Y-96623333D01*
X229957380Y-96718571D01*
X229957380Y-96909047D01*
X230005000Y-97004285D01*
X230052619Y-97051904D01*
X230147857Y-97099523D01*
X230385952Y-97099523D01*
X230481190Y-97051904D01*
X230528809Y-97004285D01*
X230576428Y-96909047D01*
X230576428Y-96718571D01*
X230528809Y-96623333D01*
X230481190Y-96575714D01*
X230385952Y-96528095D01*
X215082380Y-129547857D02*
X214606190Y-129881190D01*
X215082380Y-130119285D02*
X214082380Y-130119285D01*
X214082380Y-129738333D01*
X214130000Y-129643095D01*
X214177619Y-129595476D01*
X214272857Y-129547857D01*
X214415714Y-129547857D01*
X214510952Y-129595476D01*
X214558571Y-129643095D01*
X214606190Y-129738333D01*
X214606190Y-130119285D01*
X214082380Y-128690714D02*
X214082380Y-128881190D01*
X214130000Y-128976428D01*
X214177619Y-129024047D01*
X214320476Y-129119285D01*
X214510952Y-129166904D01*
X214891904Y-129166904D01*
X214987142Y-129119285D01*
X215034761Y-129071666D01*
X215082380Y-128976428D01*
X215082380Y-128785952D01*
X215034761Y-128690714D01*
X214987142Y-128643095D01*
X214891904Y-128595476D01*
X214653809Y-128595476D01*
X214558571Y-128643095D01*
X214510952Y-128690714D01*
X214463333Y-128785952D01*
X214463333Y-128976428D01*
X214510952Y-129071666D01*
X214558571Y-129119285D01*
X214653809Y-129166904D01*
X214082380Y-127976428D02*
X214082380Y-127881190D01*
X214130000Y-127785952D01*
X214177619Y-127738333D01*
X214272857Y-127690714D01*
X214463333Y-127643095D01*
X214701428Y-127643095D01*
X214891904Y-127690714D01*
X214987142Y-127738333D01*
X215034761Y-127785952D01*
X215082380Y-127881190D01*
X215082380Y-127976428D01*
X215034761Y-128071666D01*
X214987142Y-128119285D01*
X214891904Y-128166904D01*
X214701428Y-128214523D01*
X214463333Y-128214523D01*
X214272857Y-128166904D01*
X214177619Y-128119285D01*
X214130000Y-128071666D01*
X214082380Y-127976428D01*
X229052380Y-120022857D02*
X228576190Y-120356190D01*
X229052380Y-120594285D02*
X228052380Y-120594285D01*
X228052380Y-120213333D01*
X228100000Y-120118095D01*
X228147619Y-120070476D01*
X228242857Y-120022857D01*
X228385714Y-120022857D01*
X228480952Y-120070476D01*
X228528571Y-120118095D01*
X228576190Y-120213333D01*
X228576190Y-120594285D01*
X228052380Y-119165714D02*
X228052380Y-119356190D01*
X228100000Y-119451428D01*
X228147619Y-119499047D01*
X228290476Y-119594285D01*
X228480952Y-119641904D01*
X228861904Y-119641904D01*
X228957142Y-119594285D01*
X229004761Y-119546666D01*
X229052380Y-119451428D01*
X229052380Y-119260952D01*
X229004761Y-119165714D01*
X228957142Y-119118095D01*
X228861904Y-119070476D01*
X228623809Y-119070476D01*
X228528571Y-119118095D01*
X228480952Y-119165714D01*
X228433333Y-119260952D01*
X228433333Y-119451428D01*
X228480952Y-119546666D01*
X228528571Y-119594285D01*
X228623809Y-119641904D01*
X229052380Y-118118095D02*
X229052380Y-118689523D01*
X229052380Y-118403809D02*
X228052380Y-118403809D01*
X228195238Y-118499047D01*
X228290476Y-118594285D01*
X228338095Y-118689523D01*
X215082380Y-107322857D02*
X214606190Y-107656190D01*
X215082380Y-107894285D02*
X214082380Y-107894285D01*
X214082380Y-107513333D01*
X214130000Y-107418095D01*
X214177619Y-107370476D01*
X214272857Y-107322857D01*
X214415714Y-107322857D01*
X214510952Y-107370476D01*
X214558571Y-107418095D01*
X214606190Y-107513333D01*
X214606190Y-107894285D01*
X214082380Y-106465714D02*
X214082380Y-106656190D01*
X214130000Y-106751428D01*
X214177619Y-106799047D01*
X214320476Y-106894285D01*
X214510952Y-106941904D01*
X214891904Y-106941904D01*
X214987142Y-106894285D01*
X215034761Y-106846666D01*
X215082380Y-106751428D01*
X215082380Y-106560952D01*
X215034761Y-106465714D01*
X214987142Y-106418095D01*
X214891904Y-106370476D01*
X214653809Y-106370476D01*
X214558571Y-106418095D01*
X214510952Y-106465714D01*
X214463333Y-106560952D01*
X214463333Y-106751428D01*
X214510952Y-106846666D01*
X214558571Y-106894285D01*
X214653809Y-106941904D01*
X214177619Y-105989523D02*
X214130000Y-105941904D01*
X214082380Y-105846666D01*
X214082380Y-105608571D01*
X214130000Y-105513333D01*
X214177619Y-105465714D01*
X214272857Y-105418095D01*
X214368095Y-105418095D01*
X214510952Y-105465714D01*
X215082380Y-106037142D01*
X215082380Y-105418095D01*
X96416904Y-55062380D02*
X96416904Y-54062380D01*
X96655000Y-54062380D01*
X96797857Y-54110000D01*
X96893095Y-54205238D01*
X96940714Y-54300476D01*
X96988333Y-54490952D01*
X96988333Y-54633809D01*
X96940714Y-54824285D01*
X96893095Y-54919523D01*
X96797857Y-55014761D01*
X96655000Y-55062380D01*
X96416904Y-55062380D01*
X97369285Y-54157619D02*
X97416904Y-54110000D01*
X97512142Y-54062380D01*
X97750238Y-54062380D01*
X97845476Y-54110000D01*
X97893095Y-54157619D01*
X97940714Y-54252857D01*
X97940714Y-54348095D01*
X97893095Y-54490952D01*
X97321666Y-55062380D01*
X97940714Y-55062380D01*
X114387380Y-68913333D02*
X115101666Y-68913333D01*
X115244523Y-68960952D01*
X115339761Y-69056190D01*
X115387380Y-69199047D01*
X115387380Y-69294285D01*
X114387380Y-67960952D02*
X114387380Y-68437142D01*
X114863571Y-68484761D01*
X114815952Y-68437142D01*
X114768333Y-68341904D01*
X114768333Y-68103809D01*
X114815952Y-68008571D01*
X114863571Y-67960952D01*
X114958809Y-67913333D01*
X115196904Y-67913333D01*
X115292142Y-67960952D01*
X115339761Y-68008571D01*
X115387380Y-68103809D01*
X115387380Y-68341904D01*
X115339761Y-68437142D01*
X115292142Y-68484761D01*
X240490476Y-58372380D02*
X240490476Y-59086666D01*
X240442857Y-59229523D01*
X240347619Y-59324761D01*
X240204761Y-59372380D01*
X240109523Y-59372380D01*
X241490476Y-59372380D02*
X240919047Y-59372380D01*
X241204761Y-59372380D02*
X241204761Y-58372380D01*
X241109523Y-58515238D01*
X241014285Y-58610476D01*
X240919047Y-58658095D01*
X241823809Y-58372380D02*
X242490476Y-58372380D01*
X242061904Y-59372380D01*
X229052380Y-98432857D02*
X228576190Y-98766190D01*
X229052380Y-99004285D02*
X228052380Y-99004285D01*
X228052380Y-98623333D01*
X228100000Y-98528095D01*
X228147619Y-98480476D01*
X228242857Y-98432857D01*
X228385714Y-98432857D01*
X228480952Y-98480476D01*
X228528571Y-98528095D01*
X228576190Y-98623333D01*
X228576190Y-99004285D01*
X228052380Y-97575714D02*
X228052380Y-97766190D01*
X228100000Y-97861428D01*
X228147619Y-97909047D01*
X228290476Y-98004285D01*
X228480952Y-98051904D01*
X228861904Y-98051904D01*
X228957142Y-98004285D01*
X229004761Y-97956666D01*
X229052380Y-97861428D01*
X229052380Y-97670952D01*
X229004761Y-97575714D01*
X228957142Y-97528095D01*
X228861904Y-97480476D01*
X228623809Y-97480476D01*
X228528571Y-97528095D01*
X228480952Y-97575714D01*
X228433333Y-97670952D01*
X228433333Y-97861428D01*
X228480952Y-97956666D01*
X228528571Y-98004285D01*
X228623809Y-98051904D01*
X228052380Y-97147142D02*
X228052380Y-96528095D01*
X228433333Y-96861428D01*
X228433333Y-96718571D01*
X228480952Y-96623333D01*
X228528571Y-96575714D01*
X228623809Y-96528095D01*
X228861904Y-96528095D01*
X228957142Y-96575714D01*
X229004761Y-96623333D01*
X229052380Y-96718571D01*
X229052380Y-97004285D01*
X229004761Y-97099523D01*
X228957142Y-97147142D01*
X124547380Y-72088333D02*
X125261666Y-72088333D01*
X125404523Y-72135952D01*
X125499761Y-72231190D01*
X125547380Y-72374047D01*
X125547380Y-72469285D01*
X124547380Y-71183571D02*
X124547380Y-71374047D01*
X124595000Y-71469285D01*
X124642619Y-71516904D01*
X124785476Y-71612142D01*
X124975952Y-71659761D01*
X125356904Y-71659761D01*
X125452142Y-71612142D01*
X125499761Y-71564523D01*
X125547380Y-71469285D01*
X125547380Y-71278809D01*
X125499761Y-71183571D01*
X125452142Y-71135952D01*
X125356904Y-71088333D01*
X125118809Y-71088333D01*
X125023571Y-71135952D01*
X124975952Y-71183571D01*
X124928333Y-71278809D01*
X124928333Y-71469285D01*
X124975952Y-71564523D01*
X125023571Y-71612142D01*
X125118809Y-71659761D01*
X155027380Y-114633333D02*
X155741666Y-114633333D01*
X155884523Y-114680952D01*
X155979761Y-114776190D01*
X156027380Y-114919047D01*
X156027380Y-115014285D01*
X156027380Y-114109523D02*
X156027380Y-113919047D01*
X155979761Y-113823809D01*
X155932142Y-113776190D01*
X155789285Y-113680952D01*
X155598809Y-113633333D01*
X155217857Y-113633333D01*
X155122619Y-113680952D01*
X155075000Y-113728571D01*
X155027380Y-113823809D01*
X155027380Y-114014285D01*
X155075000Y-114109523D01*
X155122619Y-114157142D01*
X155217857Y-114204761D01*
X155455952Y-114204761D01*
X155551190Y-114157142D01*
X155598809Y-114109523D01*
X155646428Y-114014285D01*
X155646428Y-113823809D01*
X155598809Y-113728571D01*
X155551190Y-113680952D01*
X155455952Y-113633333D01*
X154817380Y-68754523D02*
X155531666Y-68754523D01*
X155674523Y-68802142D01*
X155769761Y-68897380D01*
X155817380Y-69040238D01*
X155817380Y-69135476D01*
X155817380Y-67754523D02*
X155817380Y-68325952D01*
X155817380Y-68040238D02*
X154817380Y-68040238D01*
X154960238Y-68135476D01*
X155055476Y-68230714D01*
X155103095Y-68325952D01*
X155817380Y-66802142D02*
X155817380Y-67373571D01*
X155817380Y-67087857D02*
X154817380Y-67087857D01*
X154960238Y-67183095D01*
X155055476Y-67278333D01*
X155103095Y-67373571D01*
X199215476Y-142327380D02*
X199215476Y-143041666D01*
X199167857Y-143184523D01*
X199072619Y-143279761D01*
X198929761Y-143327380D01*
X198834523Y-143327380D01*
X200215476Y-143327380D02*
X199644047Y-143327380D01*
X199929761Y-143327380D02*
X199929761Y-142327380D01*
X199834523Y-142470238D01*
X199739285Y-142565476D01*
X199644047Y-142613095D01*
X201120238Y-142327380D02*
X200644047Y-142327380D01*
X200596428Y-142803571D01*
X200644047Y-142755952D01*
X200739285Y-142708333D01*
X200977380Y-142708333D01*
X201072619Y-142755952D01*
X201120238Y-142803571D01*
X201167857Y-142898809D01*
X201167857Y-143136904D01*
X201120238Y-143232142D01*
X201072619Y-143279761D01*
X200977380Y-143327380D01*
X200739285Y-143327380D01*
X200644047Y-143279761D01*
X200596428Y-143232142D01*
X236045476Y-143597380D02*
X236045476Y-144311666D01*
X235997857Y-144454523D01*
X235902619Y-144549761D01*
X235759761Y-144597380D01*
X235664523Y-144597380D01*
X237045476Y-144597380D02*
X236474047Y-144597380D01*
X236759761Y-144597380D02*
X236759761Y-143597380D01*
X236664523Y-143740238D01*
X236569285Y-143835476D01*
X236474047Y-143883095D01*
X237902619Y-143597380D02*
X237712142Y-143597380D01*
X237616904Y-143645000D01*
X237569285Y-143692619D01*
X237474047Y-143835476D01*
X237426428Y-144025952D01*
X237426428Y-144406904D01*
X237474047Y-144502142D01*
X237521666Y-144549761D01*
X237616904Y-144597380D01*
X237807380Y-144597380D01*
X237902619Y-144549761D01*
X237950238Y-144502142D01*
X237997857Y-144406904D01*
X237997857Y-144168809D01*
X237950238Y-144073571D01*
X237902619Y-144025952D01*
X237807380Y-143978333D01*
X237616904Y-143978333D01*
X237521666Y-144025952D01*
X237474047Y-144073571D01*
X237426428Y-144168809D01*
X100798333Y-126182380D02*
X100465000Y-125706190D01*
X100226904Y-126182380D02*
X100226904Y-125182380D01*
X100607857Y-125182380D01*
X100703095Y-125230000D01*
X100750714Y-125277619D01*
X100798333Y-125372857D01*
X100798333Y-125515714D01*
X100750714Y-125610952D01*
X100703095Y-125658571D01*
X100607857Y-125706190D01*
X100226904Y-125706190D01*
X101369761Y-125610952D02*
X101274523Y-125563333D01*
X101226904Y-125515714D01*
X101179285Y-125420476D01*
X101179285Y-125372857D01*
X101226904Y-125277619D01*
X101274523Y-125230000D01*
X101369761Y-125182380D01*
X101560238Y-125182380D01*
X101655476Y-125230000D01*
X101703095Y-125277619D01*
X101750714Y-125372857D01*
X101750714Y-125420476D01*
X101703095Y-125515714D01*
X101655476Y-125563333D01*
X101560238Y-125610952D01*
X101369761Y-125610952D01*
X101274523Y-125658571D01*
X101226904Y-125706190D01*
X101179285Y-125801428D01*
X101179285Y-125991904D01*
X101226904Y-126087142D01*
X101274523Y-126134761D01*
X101369761Y-126182380D01*
X101560238Y-126182380D01*
X101655476Y-126134761D01*
X101703095Y-126087142D01*
X101750714Y-125991904D01*
X101750714Y-125801428D01*
X101703095Y-125706190D01*
X101655476Y-125658571D01*
X101560238Y-125610952D01*
X97908095Y-144867380D02*
X97908095Y-145676904D01*
X97955714Y-145772142D01*
X98003333Y-145819761D01*
X98098571Y-145867380D01*
X98289047Y-145867380D01*
X98384285Y-145819761D01*
X98431904Y-145772142D01*
X98479523Y-145676904D01*
X98479523Y-144867380D01*
X98860476Y-144867380D02*
X99479523Y-144867380D01*
X99146190Y-145248333D01*
X99289047Y-145248333D01*
X99384285Y-145295952D01*
X99431904Y-145343571D01*
X99479523Y-145438809D01*
X99479523Y-145676904D01*
X99431904Y-145772142D01*
X99384285Y-145819761D01*
X99289047Y-145867380D01*
X99003333Y-145867380D01*
X98908095Y-145819761D01*
X98860476Y-145772142D01*
X135518095Y-76287380D02*
X135518095Y-77096904D01*
X135565714Y-77192142D01*
X135613333Y-77239761D01*
X135708571Y-77287380D01*
X135899047Y-77287380D01*
X135994285Y-77239761D01*
X136041904Y-77192142D01*
X136089523Y-77096904D01*
X136089523Y-76287380D01*
X137089523Y-77287380D02*
X136518095Y-77287380D01*
X136803809Y-77287380D02*
X136803809Y-76287380D01*
X136708571Y-76430238D01*
X136613333Y-76525476D01*
X136518095Y-76573095D01*
X116078095Y-128992380D02*
X116078095Y-129801904D01*
X116125714Y-129897142D01*
X116173333Y-129944761D01*
X116268571Y-129992380D01*
X116459047Y-129992380D01*
X116554285Y-129944761D01*
X116601904Y-129897142D01*
X116649523Y-129801904D01*
X116649523Y-128992380D01*
X117078095Y-129087619D02*
X117125714Y-129040000D01*
X117220952Y-128992380D01*
X117459047Y-128992380D01*
X117554285Y-129040000D01*
X117601904Y-129087619D01*
X117649523Y-129182857D01*
X117649523Y-129278095D01*
X117601904Y-129420952D01*
X117030476Y-129992380D01*
X117649523Y-129992380D01*
X152912380Y-144463333D02*
X153626666Y-144463333D01*
X153769523Y-144510952D01*
X153864761Y-144606190D01*
X153912380Y-144749047D01*
X153912380Y-144844285D01*
X152912380Y-144082380D02*
X152912380Y-143463333D01*
X153293333Y-143796666D01*
X153293333Y-143653809D01*
X153340952Y-143558571D01*
X153388571Y-143510952D01*
X153483809Y-143463333D01*
X153721904Y-143463333D01*
X153817142Y-143510952D01*
X153864761Y-143558571D01*
X153912380Y-143653809D01*
X153912380Y-143939523D01*
X153864761Y-144034761D01*
X153817142Y-144082380D01*
X129627380Y-144478333D02*
X130341666Y-144478333D01*
X130484523Y-144525952D01*
X130579761Y-144621190D01*
X130627380Y-144764047D01*
X130627380Y-144859285D01*
X129627380Y-144097380D02*
X129627380Y-143430714D01*
X130627380Y-143859285D01*
X153956666Y-88562380D02*
X153956666Y-89276666D01*
X153909047Y-89419523D01*
X153813809Y-89514761D01*
X153670952Y-89562380D01*
X153575714Y-89562380D01*
X154575714Y-88990952D02*
X154480476Y-88943333D01*
X154432857Y-88895714D01*
X154385238Y-88800476D01*
X154385238Y-88752857D01*
X154432857Y-88657619D01*
X154480476Y-88610000D01*
X154575714Y-88562380D01*
X154766190Y-88562380D01*
X154861428Y-88610000D01*
X154909047Y-88657619D01*
X154956666Y-88752857D01*
X154956666Y-88800476D01*
X154909047Y-88895714D01*
X154861428Y-88943333D01*
X154766190Y-88990952D01*
X154575714Y-88990952D01*
X154480476Y-89038571D01*
X154432857Y-89086190D01*
X154385238Y-89181428D01*
X154385238Y-89371904D01*
X154432857Y-89467142D01*
X154480476Y-89514761D01*
X154575714Y-89562380D01*
X154766190Y-89562380D01*
X154861428Y-89514761D01*
X154909047Y-89467142D01*
X154956666Y-89371904D01*
X154956666Y-89181428D01*
X154909047Y-89086190D01*
X154861428Y-89038571D01*
X154766190Y-88990952D01*
X173165476Y-73322380D02*
X173165476Y-74036666D01*
X173117857Y-74179523D01*
X173022619Y-74274761D01*
X172879761Y-74322380D01*
X172784523Y-74322380D01*
X174165476Y-74322380D02*
X173594047Y-74322380D01*
X173879761Y-74322380D02*
X173879761Y-73322380D01*
X173784523Y-73465238D01*
X173689285Y-73560476D01*
X173594047Y-73608095D01*
X174498809Y-73322380D02*
X175117857Y-73322380D01*
X174784523Y-73703333D01*
X174927380Y-73703333D01*
X175022619Y-73750952D01*
X175070238Y-73798571D01*
X175117857Y-73893809D01*
X175117857Y-74131904D01*
X175070238Y-74227142D01*
X175022619Y-74274761D01*
X174927380Y-74322380D01*
X174641666Y-74322380D01*
X174546428Y-74274761D01*
X174498809Y-74227142D01*
X173165476Y-96182380D02*
X173165476Y-96896666D01*
X173117857Y-97039523D01*
X173022619Y-97134761D01*
X172879761Y-97182380D01*
X172784523Y-97182380D01*
X174165476Y-97182380D02*
X173594047Y-97182380D01*
X173879761Y-97182380D02*
X173879761Y-96182380D01*
X173784523Y-96325238D01*
X173689285Y-96420476D01*
X173594047Y-96468095D01*
X175022619Y-96515714D02*
X175022619Y-97182380D01*
X174784523Y-96134761D02*
X174546428Y-96849047D01*
X175165476Y-96849047D01*
X90630476Y-123277380D02*
X90630476Y-123991666D01*
X90582857Y-124134523D01*
X90487619Y-124229761D01*
X90344761Y-124277380D01*
X90249523Y-124277380D01*
X91630476Y-124277380D02*
X91059047Y-124277380D01*
X91344761Y-124277380D02*
X91344761Y-123277380D01*
X91249523Y-123420238D01*
X91154285Y-123515476D01*
X91059047Y-123563095D01*
X92201904Y-123705952D02*
X92106666Y-123658333D01*
X92059047Y-123610714D01*
X92011428Y-123515476D01*
X92011428Y-123467857D01*
X92059047Y-123372619D01*
X92106666Y-123325000D01*
X92201904Y-123277380D01*
X92392380Y-123277380D01*
X92487619Y-123325000D01*
X92535238Y-123372619D01*
X92582857Y-123467857D01*
X92582857Y-123515476D01*
X92535238Y-123610714D01*
X92487619Y-123658333D01*
X92392380Y-123705952D01*
X92201904Y-123705952D01*
X92106666Y-123753571D01*
X92059047Y-123801190D01*
X92011428Y-123896428D01*
X92011428Y-124086904D01*
X92059047Y-124182142D01*
X92106666Y-124229761D01*
X92201904Y-124277380D01*
X92392380Y-124277380D01*
X92487619Y-124229761D01*
X92535238Y-124182142D01*
X92582857Y-124086904D01*
X92582857Y-123896428D01*
X92535238Y-123801190D01*
X92487619Y-123753571D01*
X92392380Y-123705952D01*
X95075476Y-75652380D02*
X95075476Y-76366666D01*
X95027857Y-76509523D01*
X94932619Y-76604761D01*
X94789761Y-76652380D01*
X94694523Y-76652380D01*
X96075476Y-76652380D02*
X95504047Y-76652380D01*
X95789761Y-76652380D02*
X95789761Y-75652380D01*
X95694523Y-75795238D01*
X95599285Y-75890476D01*
X95504047Y-75938095D01*
X96551666Y-76652380D02*
X96742142Y-76652380D01*
X96837380Y-76604761D01*
X96885000Y-76557142D01*
X96980238Y-76414285D01*
X97027857Y-76223809D01*
X97027857Y-75842857D01*
X96980238Y-75747619D01*
X96932619Y-75700000D01*
X96837380Y-75652380D01*
X96646904Y-75652380D01*
X96551666Y-75700000D01*
X96504047Y-75747619D01*
X96456428Y-75842857D01*
X96456428Y-76080952D01*
X96504047Y-76176190D01*
X96551666Y-76223809D01*
X96646904Y-76271428D01*
X96837380Y-76271428D01*
X96932619Y-76223809D01*
X96980238Y-76176190D01*
X97027857Y-76080952D01*
X95075476Y-61682380D02*
X95075476Y-62396666D01*
X95027857Y-62539523D01*
X94932619Y-62634761D01*
X94789761Y-62682380D01*
X94694523Y-62682380D01*
X95504047Y-61777619D02*
X95551666Y-61730000D01*
X95646904Y-61682380D01*
X95885000Y-61682380D01*
X95980238Y-61730000D01*
X96027857Y-61777619D01*
X96075476Y-61872857D01*
X96075476Y-61968095D01*
X96027857Y-62110952D01*
X95456428Y-62682380D01*
X96075476Y-62682380D01*
X96694523Y-61682380D02*
X96789761Y-61682380D01*
X96885000Y-61730000D01*
X96932619Y-61777619D01*
X96980238Y-61872857D01*
X97027857Y-62063333D01*
X97027857Y-62301428D01*
X96980238Y-62491904D01*
X96932619Y-62587142D01*
X96885000Y-62634761D01*
X96789761Y-62682380D01*
X96694523Y-62682380D01*
X96599285Y-62634761D01*
X96551666Y-62587142D01*
X96504047Y-62491904D01*
X96456428Y-62301428D01*
X96456428Y-62063333D01*
X96504047Y-61872857D01*
X96551666Y-61777619D01*
X96599285Y-61730000D01*
X96694523Y-61682380D01*
X90630476Y-135342380D02*
X90630476Y-136056666D01*
X90582857Y-136199523D01*
X90487619Y-136294761D01*
X90344761Y-136342380D01*
X90249523Y-136342380D01*
X91059047Y-135437619D02*
X91106666Y-135390000D01*
X91201904Y-135342380D01*
X91440000Y-135342380D01*
X91535238Y-135390000D01*
X91582857Y-135437619D01*
X91630476Y-135532857D01*
X91630476Y-135628095D01*
X91582857Y-135770952D01*
X91011428Y-136342380D01*
X91630476Y-136342380D01*
X92011428Y-135437619D02*
X92059047Y-135390000D01*
X92154285Y-135342380D01*
X92392380Y-135342380D01*
X92487619Y-135390000D01*
X92535238Y-135437619D01*
X92582857Y-135532857D01*
X92582857Y-135628095D01*
X92535238Y-135770952D01*
X91963809Y-136342380D01*
X92582857Y-136342380D01*
M02*
