G04 #@! TF.GenerationSoftware,KiCad,Pcbnew,(5.1.5)-3*
G04 #@! TF.CreationDate,2020-02-25T10:17:19+01:00*
G04 #@! TF.ProjectId,FPGA_buffer_board,46504741-5f62-4756-9666-65725f626f61,1.1*
G04 #@! TF.SameCoordinates,Original*
G04 #@! TF.FileFunction,Legend,Bot*
G04 #@! TF.FilePolarity,Positive*
%FSLAX46Y46*%
G04 Gerber Fmt 4.6, Leading zero omitted, Abs format (unit mm)*
G04 Created by KiCad (PCBNEW (5.1.5)-3) date 2020-02-25 10:17:19*
%MOMM*%
%LPD*%
G04 APERTURE LIST*
%ADD10C,0.200000*%
%ADD11C,0.120000*%
%ADD12C,0.150000*%
G04 APERTURE END LIST*
D10*
X100718571Y-64555714D02*
X100337619Y-64555714D01*
X100575714Y-64222380D02*
X100575714Y-65079523D01*
X100528095Y-65174761D01*
X100432857Y-65222380D01*
X100337619Y-65222380D01*
X100004285Y-65222380D02*
X100004285Y-64555714D01*
X100004285Y-64746190D02*
X99956666Y-64650952D01*
X99909047Y-64603333D01*
X99813809Y-64555714D01*
X99718571Y-64555714D01*
X98956666Y-64555714D02*
X98956666Y-65365238D01*
X99004285Y-65460476D01*
X99051904Y-65508095D01*
X99147142Y-65555714D01*
X99290000Y-65555714D01*
X99385238Y-65508095D01*
X98956666Y-65174761D02*
X99051904Y-65222380D01*
X99242380Y-65222380D01*
X99337619Y-65174761D01*
X99385238Y-65127142D01*
X99432857Y-65031904D01*
X99432857Y-64746190D01*
X99385238Y-64650952D01*
X99337619Y-64603333D01*
X99242380Y-64555714D01*
X99051904Y-64555714D01*
X98956666Y-64603333D01*
X97766190Y-65174761D02*
X97670952Y-65222380D01*
X97480476Y-65222380D01*
X97385238Y-65174761D01*
X97337619Y-65079523D01*
X97337619Y-65031904D01*
X97385238Y-64936666D01*
X97480476Y-64889047D01*
X97623333Y-64889047D01*
X97718571Y-64841428D01*
X97766190Y-64746190D01*
X97766190Y-64698571D01*
X97718571Y-64603333D01*
X97623333Y-64555714D01*
X97480476Y-64555714D01*
X97385238Y-64603333D01*
X97051904Y-64555714D02*
X96670952Y-64555714D01*
X96909047Y-64222380D02*
X96909047Y-65079523D01*
X96861428Y-65174761D01*
X96766190Y-65222380D01*
X96670952Y-65222380D01*
X96194761Y-65222380D02*
X96290000Y-65174761D01*
X96337619Y-65127142D01*
X96385238Y-65031904D01*
X96385238Y-64746190D01*
X96337619Y-64650952D01*
X96290000Y-64603333D01*
X96194761Y-64555714D01*
X96051904Y-64555714D01*
X95956666Y-64603333D01*
X95909047Y-64650952D01*
X95861428Y-64746190D01*
X95861428Y-65031904D01*
X95909047Y-65127142D01*
X95956666Y-65174761D01*
X96051904Y-65222380D01*
X96194761Y-65222380D01*
X95432857Y-64555714D02*
X95432857Y-65555714D01*
X95432857Y-64603333D02*
X95337619Y-64555714D01*
X95147142Y-64555714D01*
X95051904Y-64603333D01*
X95004285Y-64650952D01*
X94956666Y-64746190D01*
X94956666Y-65031904D01*
X95004285Y-65127142D01*
X95051904Y-65174761D01*
X95147142Y-65222380D01*
X95337619Y-65222380D01*
X95432857Y-65174761D01*
X100861428Y-78525714D02*
X100480476Y-78525714D01*
X100718571Y-78192380D02*
X100718571Y-79049523D01*
X100670952Y-79144761D01*
X100575714Y-79192380D01*
X100480476Y-79192380D01*
X100147142Y-79192380D02*
X100147142Y-78525714D01*
X100147142Y-78716190D02*
X100099523Y-78620952D01*
X100051904Y-78573333D01*
X99956666Y-78525714D01*
X99861428Y-78525714D01*
X99099523Y-78525714D02*
X99099523Y-79335238D01*
X99147142Y-79430476D01*
X99194761Y-79478095D01*
X99290000Y-79525714D01*
X99432857Y-79525714D01*
X99528095Y-79478095D01*
X99099523Y-79144761D02*
X99194761Y-79192380D01*
X99385238Y-79192380D01*
X99480476Y-79144761D01*
X99528095Y-79097142D01*
X99575714Y-79001904D01*
X99575714Y-78716190D01*
X99528095Y-78620952D01*
X99480476Y-78573333D01*
X99385238Y-78525714D01*
X99194761Y-78525714D01*
X99099523Y-78573333D01*
X97909047Y-79144761D02*
X97813809Y-79192380D01*
X97623333Y-79192380D01*
X97528095Y-79144761D01*
X97480476Y-79049523D01*
X97480476Y-79001904D01*
X97528095Y-78906666D01*
X97623333Y-78859047D01*
X97766190Y-78859047D01*
X97861428Y-78811428D01*
X97909047Y-78716190D01*
X97909047Y-78668571D01*
X97861428Y-78573333D01*
X97766190Y-78525714D01*
X97623333Y-78525714D01*
X97528095Y-78573333D01*
X97194761Y-78525714D02*
X96813809Y-78525714D01*
X97051904Y-78192380D02*
X97051904Y-79049523D01*
X97004285Y-79144761D01*
X96909047Y-79192380D01*
X96813809Y-79192380D01*
X96051904Y-79192380D02*
X96051904Y-78668571D01*
X96099523Y-78573333D01*
X96194761Y-78525714D01*
X96385238Y-78525714D01*
X96480476Y-78573333D01*
X96051904Y-79144761D02*
X96147142Y-79192380D01*
X96385238Y-79192380D01*
X96480476Y-79144761D01*
X96528095Y-79049523D01*
X96528095Y-78954285D01*
X96480476Y-78859047D01*
X96385238Y-78811428D01*
X96147142Y-78811428D01*
X96051904Y-78763809D01*
X95575714Y-79192380D02*
X95575714Y-78525714D01*
X95575714Y-78716190D02*
X95528095Y-78620952D01*
X95480476Y-78573333D01*
X95385238Y-78525714D01*
X95290000Y-78525714D01*
X95099523Y-78525714D02*
X94718571Y-78525714D01*
X94956666Y-78192380D02*
X94956666Y-79049523D01*
X94909047Y-79144761D01*
X94813809Y-79192380D01*
X94718571Y-79192380D01*
D11*
X221683733Y-82675000D02*
X222026267Y-82675000D01*
X221683733Y-83695000D02*
X222026267Y-83695000D01*
X211155000Y-141460000D02*
G75*
G03X210455000Y-142160000I0J-700000D01*
G01*
X212455000Y-142160000D02*
G75*
G03X211755000Y-141460000I-700000J0D01*
G01*
X211755000Y-145560000D02*
G75*
G03X212455000Y-144860000I0J700000D01*
G01*
X210455000Y-144860000D02*
G75*
G03X211155000Y-145560000I700000J0D01*
G01*
X210455000Y-142110000D02*
X210455000Y-144910000D01*
X211155000Y-145560000D02*
X211755000Y-145560000D01*
X212455000Y-144910000D02*
X212455000Y-142110000D01*
X211755000Y-141460000D02*
X211155000Y-141460000D01*
X212655000Y-142310000D02*
X212955000Y-142010000D01*
X212955000Y-142010000D02*
X212955000Y-142610000D01*
X212655000Y-142310000D02*
X212955000Y-142610000D01*
X99711252Y-71195000D02*
X99188748Y-71195000D01*
X99711252Y-69775000D02*
X99188748Y-69775000D01*
X221683733Y-132590000D02*
X222026267Y-132590000D01*
X221683733Y-131570000D02*
X222026267Y-131570000D01*
X221683733Y-110365000D02*
X222026267Y-110365000D01*
X221683733Y-109345000D02*
X222026267Y-109345000D01*
X118210000Y-108020000D02*
X118510000Y-107720000D01*
X117910000Y-107720000D02*
X118510000Y-107720000D01*
X118210000Y-108020000D02*
X117910000Y-107720000D01*
X117360000Y-108920000D02*
X117360000Y-109520000D01*
X120810000Y-108220000D02*
X118010000Y-108220000D01*
X121460000Y-109520000D02*
X121460000Y-108920000D01*
X118010000Y-110220000D02*
X120810000Y-110220000D01*
X120760000Y-110220000D02*
G75*
G03X121460000Y-109520000I0J700000D01*
G01*
X121460000Y-108920000D02*
G75*
G03X120760000Y-108220000I-700000J0D01*
G01*
X118060000Y-108220000D02*
G75*
G03X117360000Y-108920000I0J-700000D01*
G01*
X117360000Y-109520000D02*
G75*
G03X118060000Y-110220000I700000J0D01*
G01*
D12*
X215455000Y-81890000D02*
X213655000Y-81890000D01*
X215455000Y-68990000D02*
X223205000Y-68990000D01*
X215455000Y-82140000D02*
X223205000Y-82140000D01*
X215455000Y-68990000D02*
X215455000Y-69325000D01*
X223205000Y-68990000D02*
X223205000Y-69325000D01*
X223205000Y-82140000D02*
X223205000Y-81805000D01*
X215455000Y-82140000D02*
X215455000Y-81890000D01*
X215455000Y-108810000D02*
X215455000Y-108560000D01*
X223205000Y-108810000D02*
X223205000Y-108475000D01*
X223205000Y-95660000D02*
X223205000Y-95995000D01*
X215455000Y-95660000D02*
X215455000Y-95995000D01*
X215455000Y-108810000D02*
X223205000Y-108810000D01*
X215455000Y-95660000D02*
X223205000Y-95660000D01*
X215455000Y-108560000D02*
X213655000Y-108560000D01*
X215455000Y-131035000D02*
X215455000Y-130785000D01*
X223205000Y-131035000D02*
X223205000Y-130700000D01*
X223205000Y-117885000D02*
X223205000Y-118220000D01*
X215455000Y-117885000D02*
X215455000Y-118220000D01*
X215455000Y-131035000D02*
X223205000Y-131035000D01*
X215455000Y-117885000D02*
X223205000Y-117885000D01*
X215455000Y-130785000D02*
X213655000Y-130785000D01*
D11*
X99711252Y-55805000D02*
X99188748Y-55805000D01*
X99711252Y-57225000D02*
X99188748Y-57225000D01*
D12*
X222021666Y-84972142D02*
X222069285Y-85019761D01*
X222212142Y-85067380D01*
X222307380Y-85067380D01*
X222450238Y-85019761D01*
X222545476Y-84924523D01*
X222593095Y-84829285D01*
X222640714Y-84638809D01*
X222640714Y-84495952D01*
X222593095Y-84305476D01*
X222545476Y-84210238D01*
X222450238Y-84115000D01*
X222307380Y-84067380D01*
X222212142Y-84067380D01*
X222069285Y-84115000D01*
X222021666Y-84162619D01*
X221545476Y-85067380D02*
X221355000Y-85067380D01*
X221259761Y-85019761D01*
X221212142Y-84972142D01*
X221116904Y-84829285D01*
X221069285Y-84638809D01*
X221069285Y-84257857D01*
X221116904Y-84162619D01*
X221164523Y-84115000D01*
X221259761Y-84067380D01*
X221450238Y-84067380D01*
X221545476Y-84115000D01*
X221593095Y-84162619D01*
X221640714Y-84257857D01*
X221640714Y-84495952D01*
X221593095Y-84591190D01*
X221545476Y-84638809D01*
X221450238Y-84686428D01*
X221259761Y-84686428D01*
X221164523Y-84638809D01*
X221116904Y-84591190D01*
X221069285Y-84495952D01*
X212258333Y-139152380D02*
X212258333Y-139866666D01*
X212305952Y-140009523D01*
X212401190Y-140104761D01*
X212544047Y-140152380D01*
X212639285Y-140152380D01*
X211782142Y-140152380D02*
X211782142Y-139152380D01*
X211401190Y-139152380D01*
X211305952Y-139200000D01*
X211258333Y-139247619D01*
X211210714Y-139342857D01*
X211210714Y-139485714D01*
X211258333Y-139580952D01*
X211305952Y-139628571D01*
X211401190Y-139676190D01*
X211782142Y-139676190D01*
X210877380Y-139152380D02*
X210258333Y-139152380D01*
X210591666Y-139533333D01*
X210448809Y-139533333D01*
X210353571Y-139580952D01*
X210305952Y-139628571D01*
X210258333Y-139723809D01*
X210258333Y-139961904D01*
X210305952Y-140057142D01*
X210353571Y-140104761D01*
X210448809Y-140152380D01*
X210734523Y-140152380D01*
X210829761Y-140104761D01*
X210877380Y-140057142D01*
X99616666Y-69287380D02*
X99950000Y-68811190D01*
X100188095Y-69287380D02*
X100188095Y-68287380D01*
X99807142Y-68287380D01*
X99711904Y-68335000D01*
X99664285Y-68382619D01*
X99616666Y-68477857D01*
X99616666Y-68620714D01*
X99664285Y-68715952D01*
X99711904Y-68763571D01*
X99807142Y-68811190D01*
X100188095Y-68811190D01*
X98664285Y-69287380D02*
X99235714Y-69287380D01*
X98950000Y-69287380D02*
X98950000Y-68287380D01*
X99045238Y-68430238D01*
X99140476Y-68525476D01*
X99235714Y-68573095D01*
X223132857Y-134342142D02*
X223180476Y-134389761D01*
X223323333Y-134437380D01*
X223418571Y-134437380D01*
X223561428Y-134389761D01*
X223656666Y-134294523D01*
X223704285Y-134199285D01*
X223751904Y-134008809D01*
X223751904Y-133865952D01*
X223704285Y-133675476D01*
X223656666Y-133580238D01*
X223561428Y-133485000D01*
X223418571Y-133437380D01*
X223323333Y-133437380D01*
X223180476Y-133485000D01*
X223132857Y-133532619D01*
X222180476Y-134437380D02*
X222751904Y-134437380D01*
X222466190Y-134437380D02*
X222466190Y-133437380D01*
X222561428Y-133580238D01*
X222656666Y-133675476D01*
X222751904Y-133723095D01*
X221228095Y-134437380D02*
X221799523Y-134437380D01*
X221513809Y-134437380D02*
X221513809Y-133437380D01*
X221609047Y-133580238D01*
X221704285Y-133675476D01*
X221799523Y-133723095D01*
X222497857Y-111642142D02*
X222545476Y-111689761D01*
X222688333Y-111737380D01*
X222783571Y-111737380D01*
X222926428Y-111689761D01*
X223021666Y-111594523D01*
X223069285Y-111499285D01*
X223116904Y-111308809D01*
X223116904Y-111165952D01*
X223069285Y-110975476D01*
X223021666Y-110880238D01*
X222926428Y-110785000D01*
X222783571Y-110737380D01*
X222688333Y-110737380D01*
X222545476Y-110785000D01*
X222497857Y-110832619D01*
X221545476Y-111737380D02*
X222116904Y-111737380D01*
X221831190Y-111737380D02*
X221831190Y-110737380D01*
X221926428Y-110880238D01*
X222021666Y-110975476D01*
X222116904Y-111023095D01*
X220926428Y-110737380D02*
X220831190Y-110737380D01*
X220735952Y-110785000D01*
X220688333Y-110832619D01*
X220640714Y-110927857D01*
X220593095Y-111118333D01*
X220593095Y-111356428D01*
X220640714Y-111546904D01*
X220688333Y-111642142D01*
X220735952Y-111689761D01*
X220831190Y-111737380D01*
X220926428Y-111737380D01*
X221021666Y-111689761D01*
X221069285Y-111642142D01*
X221116904Y-111546904D01*
X221164523Y-111356428D01*
X221164523Y-111118333D01*
X221116904Y-110927857D01*
X221069285Y-110832619D01*
X221021666Y-110785000D01*
X220926428Y-110737380D01*
X116463333Y-109942380D02*
X116463333Y-110656666D01*
X116510952Y-110799523D01*
X116606190Y-110894761D01*
X116749047Y-110942380D01*
X116844285Y-110942380D01*
X115987142Y-110942380D02*
X115987142Y-109942380D01*
X115606190Y-109942380D01*
X115510952Y-109990000D01*
X115463333Y-110037619D01*
X115415714Y-110132857D01*
X115415714Y-110275714D01*
X115463333Y-110370952D01*
X115510952Y-110418571D01*
X115606190Y-110466190D01*
X115987142Y-110466190D01*
X114844285Y-110370952D02*
X114939523Y-110323333D01*
X114987142Y-110275714D01*
X115034761Y-110180476D01*
X115034761Y-110132857D01*
X114987142Y-110037619D01*
X114939523Y-109990000D01*
X114844285Y-109942380D01*
X114653809Y-109942380D01*
X114558571Y-109990000D01*
X114510952Y-110037619D01*
X114463333Y-110132857D01*
X114463333Y-110180476D01*
X114510952Y-110275714D01*
X114558571Y-110323333D01*
X114653809Y-110370952D01*
X114844285Y-110370952D01*
X114939523Y-110418571D01*
X114987142Y-110466190D01*
X115034761Y-110561428D01*
X115034761Y-110751904D01*
X114987142Y-110847142D01*
X114939523Y-110894761D01*
X114844285Y-110942380D01*
X114653809Y-110942380D01*
X114558571Y-110894761D01*
X114510952Y-110847142D01*
X114463333Y-110751904D01*
X114463333Y-110561428D01*
X114510952Y-110466190D01*
X114558571Y-110418571D01*
X114653809Y-110370952D01*
X221996904Y-82002380D02*
X221996904Y-82811904D01*
X221949285Y-82907142D01*
X221901666Y-82954761D01*
X221806428Y-83002380D01*
X221615952Y-83002380D01*
X221520714Y-82954761D01*
X221473095Y-82907142D01*
X221425476Y-82811904D01*
X221425476Y-82002380D01*
X220520714Y-82335714D02*
X220520714Y-83002380D01*
X220758809Y-81954761D02*
X220996904Y-82669047D01*
X220377857Y-82669047D01*
X220091904Y-109187380D02*
X220091904Y-109996904D01*
X220044285Y-110092142D01*
X219996666Y-110139761D01*
X219901428Y-110187380D01*
X219710952Y-110187380D01*
X219615714Y-110139761D01*
X219568095Y-110092142D01*
X219520476Y-109996904D01*
X219520476Y-109187380D01*
X218568095Y-109187380D02*
X219044285Y-109187380D01*
X219091904Y-109663571D01*
X219044285Y-109615952D01*
X218949047Y-109568333D01*
X218710952Y-109568333D01*
X218615714Y-109615952D01*
X218568095Y-109663571D01*
X218520476Y-109758809D01*
X218520476Y-109996904D01*
X218568095Y-110092142D01*
X218615714Y-110139761D01*
X218710952Y-110187380D01*
X218949047Y-110187380D01*
X219044285Y-110139761D01*
X219091904Y-110092142D01*
X220091904Y-131412380D02*
X220091904Y-132221904D01*
X220044285Y-132317142D01*
X219996666Y-132364761D01*
X219901428Y-132412380D01*
X219710952Y-132412380D01*
X219615714Y-132364761D01*
X219568095Y-132317142D01*
X219520476Y-132221904D01*
X219520476Y-131412380D01*
X218615714Y-131412380D02*
X218806190Y-131412380D01*
X218901428Y-131460000D01*
X218949047Y-131507619D01*
X219044285Y-131650476D01*
X219091904Y-131840952D01*
X219091904Y-132221904D01*
X219044285Y-132317142D01*
X218996666Y-132364761D01*
X218901428Y-132412380D01*
X218710952Y-132412380D01*
X218615714Y-132364761D01*
X218568095Y-132317142D01*
X218520476Y-132221904D01*
X218520476Y-131983809D01*
X218568095Y-131888571D01*
X218615714Y-131840952D01*
X218710952Y-131793333D01*
X218901428Y-131793333D01*
X218996666Y-131840952D01*
X219044285Y-131888571D01*
X219091904Y-131983809D01*
X99616666Y-55317380D02*
X99950000Y-54841190D01*
X100188095Y-55317380D02*
X100188095Y-54317380D01*
X99807142Y-54317380D01*
X99711904Y-54365000D01*
X99664285Y-54412619D01*
X99616666Y-54507857D01*
X99616666Y-54650714D01*
X99664285Y-54745952D01*
X99711904Y-54793571D01*
X99807142Y-54841190D01*
X100188095Y-54841190D01*
X99235714Y-54412619D02*
X99188095Y-54365000D01*
X99092857Y-54317380D01*
X98854761Y-54317380D01*
X98759523Y-54365000D01*
X98711904Y-54412619D01*
X98664285Y-54507857D01*
X98664285Y-54603095D01*
X98711904Y-54745952D01*
X99283333Y-55317380D01*
X98664285Y-55317380D01*
M02*
