M48
; DRILL file {KiCad (5.1.5)-3} date 25/02/2020 10:17:29
; FORMAT={-:-/ absolute / metric / decimal}
; #@! TF.CreationDate,2020-02-25T10:17:29+01:00
; #@! TF.GenerationSoftware,Kicad,Pcbnew,(5.1.5)-3
; #@! TF.FileFunction,Plated,1,2,PTH
FMAT,2
METRIC
T1C0.400
T2C0.600
T3C0.762
T4C0.800
T5C0.900
T6C1.000
T7C1.200
T8C1.500
T9C1.700
T10C1.800
%
G90
G05
T1
X95.25Y-127.0
X95.25Y-139.065
X102.87Y-95.25
X105.41Y-92.71
X106.045Y-98.425
X108.585Y-95.885
X109.855Y-121.285
X110.49Y-64.77
X111.76Y-120.015
X120.65Y-136.525
X123.19Y-128.905
X137.795Y-73.66
X142.875Y-73.66
X145.415Y-73.66
X167.005Y-114.935
X167.005Y-116.205
X212.09Y-71.12
X212.09Y-72.39
X212.09Y-73.66
X212.09Y-74.93
X212.09Y-76.2
X212.09Y-77.47
X212.09Y-78.74
X212.09Y-80.01
X212.09Y-97.79
X212.09Y-99.06
X212.09Y-100.33
X212.09Y-101.6
X212.09Y-102.87
X212.09Y-104.14
X212.09Y-105.41
X212.09Y-106.68
X212.09Y-120.015
X212.09Y-121.285
X212.09Y-122.555
X212.09Y-123.825
X212.09Y-125.095
X212.09Y-126.365
X212.09Y-127.635
X212.09Y-128.905
X214.63Y-86.36
X214.63Y-113.03
X219.71Y-125.73
X226.695Y-69.85
X226.695Y-71.12
X226.695Y-72.39
X226.695Y-73.66
X226.695Y-74.93
X226.695Y-76.2
X226.695Y-77.47
X226.695Y-78.74
X226.695Y-80.01
X226.695Y-96.52
X226.695Y-97.79
X226.695Y-99.06
X226.695Y-100.33
X226.695Y-101.6
X226.695Y-102.87
X226.695Y-104.14
X226.695Y-105.41
X226.695Y-106.68
X226.695Y-118.745
X226.695Y-120.015
X226.695Y-121.285
X226.695Y-122.555
X226.695Y-123.825
X226.695Y-125.095
X226.695Y-126.365
X226.695Y-127.635
X226.695Y-128.905
T2
X91.44Y-83.185
X91.44Y-95.25
X91.44Y-107.95
X91.44Y-120.65
X95.25Y-146.685
X95.885Y-52.705
X95.885Y-60.325
X95.885Y-66.675
X95.885Y-74.295
X99.06Y-126.365
X99.06Y-135.89
X100.965Y-84.455
X100.965Y-95.25
X102.235Y-107.95
X102.235Y-120.65
X102.235Y-137.795
X102.235Y-145.415
X104.775Y-123.19
X107.95Y-69.85
X107.95Y-127.0
X107.95Y-135.89
X111.76Y-84.455
X112.395Y-146.05
X113.665Y-137.795
X114.3Y-69.85
X114.3Y-95.25
X114.3Y-107.95
X115.57Y-78.74
X116.205Y-85.09
X117.475Y-106.045
X117.475Y-121.92
X117.475Y-133.985
X123.19Y-74.93
X125.095Y-64.77
X125.095Y-139.065
X127.0Y-52.705
X127.0Y-95.25
X127.0Y-107.95
X127.0Y-121.92
X127.635Y-133.35
X127.635Y-137.795
X129.54Y-79.375
X129.54Y-83.185
X132.715Y-64.77
X132.715Y-76.835
X133.35Y-146.05
X135.89Y-85.09
X137.16Y-121.92
X138.43Y-76.835
X138.43Y-107.95
X139.7Y-57.15
X139.7Y-95.25
X139.7Y-133.35
X143.51Y-76.835
X144.78Y-83.82
X148.59Y-74.93
X148.59Y-139.065
X151.13Y-137.795
X152.4Y-57.15
X152.4Y-82.55
X152.4Y-133.35
X154.305Y-146.05
X158.75Y-69.85
X159.385Y-91.44
X160.02Y-108.585
X160.02Y-118.11
X165.1Y-57.15
X165.1Y-77.47
X165.1Y-82.55
X165.1Y-133.35
X165.1Y-146.05
X167.64Y-109.22
X168.91Y-95.25
X170.815Y-69.85
X171.45Y-118.11
X177.8Y-57.15
X177.8Y-133.35
X177.8Y-146.05
X179.07Y-77.47
X179.07Y-82.55
X179.07Y-95.25
X184.15Y-69.85
X184.15Y-108.585
X184.15Y-118.11
X190.5Y-57.15
X190.5Y-77.47
X190.5Y-82.55
X190.5Y-95.25
X190.5Y-133.35
X190.5Y-146.05
X196.85Y-69.85
X196.85Y-108.585
X196.85Y-118.11
X203.2Y-57.15
X203.2Y-77.47
X203.2Y-82.55
X203.2Y-95.25
X203.2Y-133.35
X203.2Y-146.05
X209.55Y-108.585
X209.55Y-118.11
X212.09Y-66.04
X212.09Y-84.455
X212.09Y-92.71
X212.09Y-113.03
X212.09Y-133.35
X215.9Y-57.15
X215.9Y-146.05
X219.075Y-75.565
X219.075Y-102.235
X219.075Y-123.825
X222.25Y-92.71
X222.25Y-114.935
X222.885Y-85.09
X222.885Y-111.76
X224.155Y-66.04
X224.155Y-133.35
X226.695Y-84.455
X226.695Y-92.71
X226.695Y-113.03
X226.695Y-137.16
X228.6Y-57.15
X228.6Y-146.05
X235.585Y-113.03
X236.855Y-82.55
X236.855Y-130.81
X241.3Y-57.15
X241.3Y-82.55
X241.3Y-130.81
X241.3Y-146.05
X245.745Y-62.23
X245.745Y-72.39
X245.745Y-82.55
X245.745Y-113.03
X245.745Y-130.81
T3
X241.3Y-142.24
T4
X125.095Y-58.42
X130.095Y-58.42
T5
X92.71Y-70.485
X95.25Y-70.485
X92.71Y-56.515
X95.25Y-56.515
T6
X117.475Y-68.58
X120.015Y-68.58
X122.555Y-68.58
X125.095Y-68.58
X127.635Y-68.58
X130.175Y-68.58
X132.715Y-68.58
X135.255Y-68.58
X107.95Y-116.84
X110.49Y-116.84
X113.03Y-116.84
X115.57Y-116.84
X118.11Y-116.84
X120.65Y-116.84
X123.19Y-116.84
X125.73Y-116.84
X128.27Y-116.84
X130.81Y-116.84
X140.335Y-68.58
X142.875Y-68.58
X145.415Y-68.58
X147.955Y-68.58
X150.495Y-68.58
X153.035Y-68.58
X127.635Y-71.12
X130.175Y-71.12
X132.715Y-71.12
X135.255Y-71.12
X238.76Y-60.96
X238.76Y-63.5
X238.76Y-66.04
X238.76Y-68.58
X238.76Y-71.12
X238.76Y-73.66
X238.76Y-76.2
X238.76Y-78.74
X238.76Y-81.28
X238.76Y-83.82
X238.76Y-86.36
X238.76Y-88.9
X238.76Y-91.44
X238.76Y-93.98
X238.76Y-96.52
X238.76Y-99.06
X238.76Y-101.6
X238.76Y-104.14
X238.76Y-106.68
X238.76Y-109.22
X238.76Y-111.76
X238.76Y-114.3
X238.76Y-116.84
X238.76Y-119.38
X238.76Y-121.92
X238.76Y-124.46
X238.76Y-127.0
X238.76Y-129.54
X238.76Y-132.08
X238.76Y-134.62
X238.76Y-137.16
X238.76Y-139.7
X243.84Y-60.96
X243.84Y-63.5
X243.84Y-66.04
X243.84Y-68.58
X243.84Y-71.12
X243.84Y-73.66
X243.84Y-76.2
X243.84Y-78.74
X243.84Y-81.28
X243.84Y-83.82
X243.84Y-86.36
X243.84Y-88.9
X243.84Y-91.44
X243.84Y-93.98
X243.84Y-96.52
X243.84Y-99.06
X243.84Y-101.6
X243.84Y-104.14
X243.84Y-106.68
X243.84Y-109.22
X243.84Y-111.76
X243.84Y-114.3
X243.84Y-116.84
X243.84Y-119.38
X243.84Y-121.92
X243.84Y-124.46
X243.84Y-127.0
X243.84Y-129.54
X243.84Y-132.08
X243.84Y-134.62
X243.84Y-137.16
X243.84Y-139.7
X207.01Y-111.125
X207.01Y-113.665
X207.01Y-116.205
X135.255Y-114.3
X137.795Y-114.3
X140.335Y-114.3
X142.875Y-114.3
X145.415Y-114.3
X147.955Y-114.3
X150.495Y-114.3
X153.035Y-114.3
X140.335Y-71.12
X142.875Y-71.12
X145.415Y-71.12
X147.955Y-71.12
X150.495Y-71.12
X153.035Y-71.12
X113.03Y-114.3
X115.57Y-114.3
X118.11Y-114.3
X120.65Y-114.3
X123.19Y-114.3
X125.73Y-114.3
X128.27Y-114.3
X130.81Y-114.3
X135.255Y-116.84
X137.795Y-116.84
X140.335Y-116.84
X142.875Y-116.84
X145.415Y-116.84
X147.955Y-116.84
X150.495Y-116.84
X153.035Y-116.84
T7
X203.835Y-139.7
X206.375Y-139.7
T8
X110.49Y-59.055
T9
X107.95Y-56.515
X107.95Y-61.595
X113.03Y-56.515
X113.03Y-61.595
T10
X217.17Y-139.7
X221.13Y-139.7
X225.09Y-139.7
X229.05Y-139.7
X233.01Y-139.7
T0
M30
