G04 #@! TF.GenerationSoftware,KiCad,Pcbnew,5.1.12-84ad8e8a86~92~ubuntu18.04.1*
G04 #@! TF.CreationDate,2025-07-17T12:35:45+02:00*
G04 #@! TF.ProjectId,FPGA_buffer_board,46504741-5f62-4756-9666-65725f626f61,1.1*
G04 #@! TF.SameCoordinates,Original*
G04 #@! TF.FileFunction,Legend,Bot*
G04 #@! TF.FilePolarity,Positive*
%FSLAX46Y46*%
G04 Gerber Fmt 4.6, Leading zero omitted, Abs format (unit mm)*
G04 Created by KiCad (PCBNEW 5.1.12-84ad8e8a86~92~ubuntu18.04.1) date 2025-07-17 12:35:45*
%MOMM*%
%LPD*%
G01*
G04 APERTURE LIST*
%ADD10C,0.150000*%
%ADD11C,0.200000*%
%ADD12C,0.120000*%
G04 APERTURE END LIST*
D10*
X102380952Y-136404761D02*
X102476190Y-136452380D01*
X102666666Y-136452380D01*
X102761904Y-136404761D01*
X102809523Y-136357142D01*
X102857142Y-136261904D01*
X102857142Y-135976190D01*
X102809523Y-135880952D01*
X102761904Y-135833333D01*
X102666666Y-135785714D01*
X102476190Y-135785714D01*
X102380952Y-135833333D01*
X101809523Y-136452380D02*
X101904761Y-136404761D01*
X101952380Y-136309523D01*
X101952380Y-135452380D01*
X101285714Y-136452380D02*
X101380952Y-136404761D01*
X101428571Y-136357142D01*
X101476190Y-136261904D01*
X101476190Y-135976190D01*
X101428571Y-135880952D01*
X101380952Y-135833333D01*
X101285714Y-135785714D01*
X101142857Y-135785714D01*
X101047619Y-135833333D01*
X101000000Y-135880952D01*
X100952380Y-135976190D01*
X100952380Y-136261904D01*
X101000000Y-136357142D01*
X101047619Y-136404761D01*
X101142857Y-136452380D01*
X101285714Y-136452380D01*
X100095238Y-136404761D02*
X100190476Y-136452380D01*
X100380952Y-136452380D01*
X100476190Y-136404761D01*
X100523809Y-136357142D01*
X100571428Y-136261904D01*
X100571428Y-135976190D01*
X100523809Y-135880952D01*
X100476190Y-135833333D01*
X100380952Y-135785714D01*
X100190476Y-135785714D01*
X100095238Y-135833333D01*
X99666666Y-136452380D02*
X99666666Y-135452380D01*
X99571428Y-136071428D02*
X99285714Y-136452380D01*
X99285714Y-135785714D02*
X99666666Y-136166666D01*
X98095238Y-136452380D02*
X98095238Y-135785714D01*
X98095238Y-135452380D02*
X98142857Y-135500000D01*
X98095238Y-135547619D01*
X98047619Y-135500000D01*
X98095238Y-135452380D01*
X98095238Y-135547619D01*
X97619047Y-135785714D02*
X97619047Y-136452380D01*
X97619047Y-135880952D02*
X97571428Y-135833333D01*
X97476190Y-135785714D01*
X97333333Y-135785714D01*
X97238095Y-135833333D01*
X97190476Y-135928571D01*
X97190476Y-136452380D01*
X103464952Y-122324761D02*
X103560190Y-122372380D01*
X103750666Y-122372380D01*
X103845904Y-122324761D01*
X103893523Y-122277142D01*
X103941142Y-122181904D01*
X103941142Y-121896190D01*
X103893523Y-121800952D01*
X103845904Y-121753333D01*
X103750666Y-121705714D01*
X103560190Y-121705714D01*
X103464952Y-121753333D01*
X102893523Y-122372380D02*
X102988761Y-122324761D01*
X103036380Y-122229523D01*
X103036380Y-121372380D01*
X102369714Y-122372380D02*
X102464952Y-122324761D01*
X102512571Y-122277142D01*
X102560190Y-122181904D01*
X102560190Y-121896190D01*
X102512571Y-121800952D01*
X102464952Y-121753333D01*
X102369714Y-121705714D01*
X102226857Y-121705714D01*
X102131619Y-121753333D01*
X102084000Y-121800952D01*
X102036380Y-121896190D01*
X102036380Y-122181904D01*
X102084000Y-122277142D01*
X102131619Y-122324761D01*
X102226857Y-122372380D01*
X102369714Y-122372380D01*
X101179238Y-122324761D02*
X101274476Y-122372380D01*
X101464952Y-122372380D01*
X101560190Y-122324761D01*
X101607809Y-122277142D01*
X101655428Y-122181904D01*
X101655428Y-121896190D01*
X101607809Y-121800952D01*
X101560190Y-121753333D01*
X101464952Y-121705714D01*
X101274476Y-121705714D01*
X101179238Y-121753333D01*
X100750666Y-122372380D02*
X100750666Y-121372380D01*
X100655428Y-121991428D02*
X100369714Y-122372380D01*
X100369714Y-121705714D02*
X100750666Y-122086666D01*
X99036380Y-122372380D02*
X99131619Y-122324761D01*
X99179238Y-122277142D01*
X99226857Y-122181904D01*
X99226857Y-121896190D01*
X99179238Y-121800952D01*
X99131619Y-121753333D01*
X99036380Y-121705714D01*
X98893523Y-121705714D01*
X98798285Y-121753333D01*
X98750666Y-121800952D01*
X98703047Y-121896190D01*
X98703047Y-122181904D01*
X98750666Y-122277142D01*
X98798285Y-122324761D01*
X98893523Y-122372380D01*
X99036380Y-122372380D01*
X97845904Y-121705714D02*
X97845904Y-122372380D01*
X98274476Y-121705714D02*
X98274476Y-122229523D01*
X98226857Y-122324761D01*
X98131619Y-122372380D01*
X97988761Y-122372380D01*
X97893523Y-122324761D01*
X97845904Y-122277142D01*
X97512571Y-121705714D02*
X97131619Y-121705714D01*
X97369714Y-121372380D02*
X97369714Y-122229523D01*
X97322095Y-122324761D01*
X97226857Y-122372380D01*
X97131619Y-122372380D01*
D11*
X98109523Y-65542380D02*
X98109523Y-64875714D01*
X98109523Y-64542380D02*
X98157142Y-64590000D01*
X98109523Y-64637619D01*
X98061904Y-64590000D01*
X98109523Y-64542380D01*
X98109523Y-64637619D01*
X97633333Y-64875714D02*
X97633333Y-65542380D01*
X97633333Y-64970952D02*
X97585714Y-64923333D01*
X97490476Y-64875714D01*
X97347619Y-64875714D01*
X97252380Y-64923333D01*
X97204761Y-65018571D01*
X97204761Y-65542380D01*
X96966666Y-65637619D02*
X96204761Y-65637619D01*
X95776190Y-64542380D02*
X95680952Y-64542380D01*
X95585714Y-64590000D01*
X95538095Y-64637619D01*
X95490476Y-64732857D01*
X95442857Y-64923333D01*
X95442857Y-65161428D01*
X95490476Y-65351904D01*
X95538095Y-65447142D01*
X95585714Y-65494761D01*
X95680952Y-65542380D01*
X95776190Y-65542380D01*
X95871428Y-65494761D01*
X95919047Y-65447142D01*
X95966666Y-65351904D01*
X96014285Y-65161428D01*
X96014285Y-64923333D01*
X95966666Y-64732857D01*
X95919047Y-64637619D01*
X95871428Y-64590000D01*
X95776190Y-64542380D01*
X99066666Y-79202380D02*
X99161904Y-79154761D01*
X99209523Y-79107142D01*
X99257142Y-79011904D01*
X99257142Y-78726190D01*
X99209523Y-78630952D01*
X99161904Y-78583333D01*
X99066666Y-78535714D01*
X98923809Y-78535714D01*
X98828571Y-78583333D01*
X98780952Y-78630952D01*
X98733333Y-78726190D01*
X98733333Y-79011904D01*
X98780952Y-79107142D01*
X98828571Y-79154761D01*
X98923809Y-79202380D01*
X99066666Y-79202380D01*
X97876190Y-78535714D02*
X97876190Y-79202380D01*
X98304761Y-78535714D02*
X98304761Y-79059523D01*
X98257142Y-79154761D01*
X98161904Y-79202380D01*
X98019047Y-79202380D01*
X97923809Y-79154761D01*
X97876190Y-79107142D01*
X97542857Y-78535714D02*
X97161904Y-78535714D01*
X97400000Y-78202380D02*
X97400000Y-79059523D01*
X97352380Y-79154761D01*
X97257142Y-79202380D01*
X97161904Y-79202380D01*
X97066666Y-79297619D02*
X96304761Y-79297619D01*
X95876190Y-78202380D02*
X95780952Y-78202380D01*
X95685714Y-78250000D01*
X95638095Y-78297619D01*
X95590476Y-78392857D01*
X95542857Y-78583333D01*
X95542857Y-78821428D01*
X95590476Y-79011904D01*
X95638095Y-79107142D01*
X95685714Y-79154761D01*
X95780952Y-79202380D01*
X95876190Y-79202380D01*
X95971428Y-79154761D01*
X96019047Y-79107142D01*
X96066666Y-79011904D01*
X96114285Y-78821428D01*
X96114285Y-78583333D01*
X96066666Y-78392857D01*
X96019047Y-78297619D01*
X95971428Y-78250000D01*
X95876190Y-78202380D01*
D12*
X193625000Y-71680000D02*
X191810000Y-71680000D01*
X193625000Y-71915000D02*
X193625000Y-71680000D01*
X197485000Y-71915000D02*
X193625000Y-71915000D01*
X201345000Y-71915000D02*
X201345000Y-71680000D01*
X197485000Y-71915000D02*
X201345000Y-71915000D01*
X193625000Y-58895000D02*
X193625000Y-59130000D01*
X197485000Y-58895000D02*
X193625000Y-58895000D01*
X201345000Y-58895000D02*
X201345000Y-59130000D01*
X197485000Y-58895000D02*
X201345000Y-58895000D01*
X224790000Y-96360000D02*
X228650000Y-96360000D01*
X228650000Y-96360000D02*
X228650000Y-96595000D01*
X224790000Y-96360000D02*
X220930000Y-96360000D01*
X220930000Y-96360000D02*
X220930000Y-96595000D01*
X224790000Y-109380000D02*
X228650000Y-109380000D01*
X228650000Y-109380000D02*
X228650000Y-109145000D01*
X224790000Y-109380000D02*
X220930000Y-109380000D01*
X220930000Y-109380000D02*
X220930000Y-109145000D01*
X220930000Y-109145000D02*
X219115000Y-109145000D01*
X224790000Y-117950000D02*
X228650000Y-117950000D01*
X228650000Y-117950000D02*
X228650000Y-118185000D01*
X224790000Y-117950000D02*
X220930000Y-117950000D01*
X220930000Y-117950000D02*
X220930000Y-118185000D01*
X224790000Y-130970000D02*
X228650000Y-130970000D01*
X228650000Y-130970000D02*
X228650000Y-130735000D01*
X224790000Y-130970000D02*
X220930000Y-130970000D01*
X220930000Y-130970000D02*
X220930000Y-130735000D01*
X220930000Y-130735000D02*
X219115000Y-130735000D01*
X190550000Y-93180000D02*
X190550000Y-95980000D01*
X191250000Y-96630000D02*
X191850000Y-96630000D01*
X192550000Y-95980000D02*
X192550000Y-93180000D01*
X191850000Y-92530000D02*
X191250000Y-92530000D01*
X192750000Y-93380000D02*
X193050000Y-93080000D01*
X193050000Y-93080000D02*
X193050000Y-93680000D01*
X192750000Y-93380000D02*
X193050000Y-93680000D01*
X190550000Y-95930000D02*
G75*
G03*
X191250000Y-96630000I700000J0D01*
G01*
X191850000Y-96630000D02*
G75*
G03*
X192550000Y-95930000I0J700000D01*
G01*
X192550000Y-93230000D02*
G75*
G03*
X191850000Y-92530000I-700000J0D01*
G01*
X191250000Y-92530000D02*
G75*
G03*
X190550000Y-93230000I0J-700000D01*
G01*
X197358000Y-75786000D02*
X201218000Y-75786000D01*
X201218000Y-75786000D02*
X201218000Y-76021000D01*
X197358000Y-75786000D02*
X193498000Y-75786000D01*
X193498000Y-75786000D02*
X193498000Y-76021000D01*
X197358000Y-88806000D02*
X201218000Y-88806000D01*
X201218000Y-88806000D02*
X201218000Y-88571000D01*
X197358000Y-88806000D02*
X193498000Y-88806000D01*
X193498000Y-88806000D02*
X193498000Y-88571000D01*
X193498000Y-88571000D02*
X191683000Y-88571000D01*
X193498000Y-110415000D02*
X191683000Y-110415000D01*
X193498000Y-110650000D02*
X193498000Y-110415000D01*
X197358000Y-110650000D02*
X193498000Y-110650000D01*
X201218000Y-110650000D02*
X201218000Y-110415000D01*
X197358000Y-110650000D02*
X201218000Y-110650000D01*
X193498000Y-97630000D02*
X193498000Y-97865000D01*
X197358000Y-97630000D02*
X193498000Y-97630000D01*
X201218000Y-97630000D02*
X201218000Y-97865000D01*
X197358000Y-97630000D02*
X201218000Y-97630000D01*
X193498000Y-132005000D02*
X191683000Y-132005000D01*
X193498000Y-132240000D02*
X193498000Y-132005000D01*
X197358000Y-132240000D02*
X193498000Y-132240000D01*
X201218000Y-132240000D02*
X201218000Y-132005000D01*
X197358000Y-132240000D02*
X201218000Y-132240000D01*
X193498000Y-119220000D02*
X193498000Y-119455000D01*
X197358000Y-119220000D02*
X193498000Y-119220000D01*
X201218000Y-119220000D02*
X201218000Y-119455000D01*
X197358000Y-119220000D02*
X201218000Y-119220000D01*
X226670000Y-93680000D02*
X229470000Y-93680000D01*
X230120000Y-92980000D02*
X230120000Y-92380000D01*
X229470000Y-91680000D02*
X226670000Y-91680000D01*
X226020000Y-92380000D02*
X226020000Y-92980000D01*
X226870000Y-91480000D02*
X226570000Y-91180000D01*
X226570000Y-91180000D02*
X227170000Y-91180000D01*
X226870000Y-91480000D02*
X227170000Y-91180000D01*
X226020000Y-92980000D02*
G75*
G03*
X226720000Y-93680000I700000J0D01*
G01*
X226720000Y-91680000D02*
G75*
G03*
X226020000Y-92380000I0J-700000D01*
G01*
X230120000Y-92380000D02*
G75*
G03*
X229420000Y-91680000I-700000J0D01*
G01*
X229420000Y-93680000D02*
G75*
G03*
X230120000Y-92980000I0J700000D01*
G01*
X220930000Y-87301000D02*
X219115000Y-87301000D01*
X220930000Y-87536000D02*
X220930000Y-87301000D01*
X224790000Y-87536000D02*
X220930000Y-87536000D01*
X228650000Y-87536000D02*
X228650000Y-87301000D01*
X224790000Y-87536000D02*
X228650000Y-87536000D01*
X220930000Y-74516000D02*
X220930000Y-74751000D01*
X224790000Y-74516000D02*
X220930000Y-74516000D01*
X228650000Y-74516000D02*
X228650000Y-74751000D01*
X224790000Y-74516000D02*
X228650000Y-74516000D01*
X220930000Y-70410000D02*
X219115000Y-70410000D01*
X220930000Y-70645000D02*
X220930000Y-70410000D01*
X224790000Y-70645000D02*
X220930000Y-70645000D01*
X228650000Y-70645000D02*
X228650000Y-70410000D01*
X224790000Y-70645000D02*
X228650000Y-70645000D01*
X220930000Y-57625000D02*
X220930000Y-57860000D01*
X224790000Y-57625000D02*
X220930000Y-57625000D01*
X228650000Y-57625000D02*
X228650000Y-57860000D01*
X224790000Y-57625000D02*
X228650000Y-57625000D01*
X202646233Y-91188000D02*
X202938767Y-91188000D01*
X202646233Y-90168000D02*
X202938767Y-90168000D01*
X204722000Y-71836233D02*
X204722000Y-72128767D01*
X205742000Y-71836233D02*
X205742000Y-72128767D01*
X201213767Y-112012000D02*
X200921233Y-112012000D01*
X201213767Y-113032000D02*
X200921233Y-113032000D01*
X202646233Y-133602000D02*
X202938767Y-133602000D01*
X202646233Y-134622000D02*
X202938767Y-134622000D01*
X157224000Y-135628767D02*
X157224000Y-135336233D01*
X158244000Y-135628767D02*
X158244000Y-135336233D01*
X163955000Y-135501767D02*
X163955000Y-135209233D01*
X164975000Y-135501767D02*
X164975000Y-135209233D01*
X135507000Y-125303233D02*
X135507000Y-125595767D01*
X136527000Y-125303233D02*
X136527000Y-125595767D01*
X230078233Y-88898000D02*
X230370767Y-88898000D01*
X230078233Y-89918000D02*
X230370767Y-89918000D01*
X230078233Y-73154000D02*
X230370767Y-73154000D01*
X230078233Y-72134000D02*
X230370767Y-72134000D01*
X230078233Y-111762000D02*
X230370767Y-111762000D01*
X230078233Y-110742000D02*
X230370767Y-110742000D01*
X230078233Y-132332000D02*
X230370767Y-132332000D01*
X230078233Y-133352000D02*
X230370767Y-133352000D01*
X153408767Y-105535000D02*
X153116233Y-105535000D01*
X153408767Y-106555000D02*
X153116233Y-106555000D01*
X140460000Y-105328767D02*
X140460000Y-105036233D01*
X141480000Y-105328767D02*
X141480000Y-105036233D01*
X127735000Y-98287064D02*
X127735000Y-97832936D01*
X126265000Y-98287064D02*
X126265000Y-97832936D01*
X123090000Y-98287064D02*
X123090000Y-97832936D01*
X124560000Y-98287064D02*
X124560000Y-97832936D01*
X129440000Y-99832936D02*
X129440000Y-100287064D01*
X130910000Y-99832936D02*
X130910000Y-100287064D01*
X119915000Y-98287064D02*
X119915000Y-97832936D01*
X121385000Y-98287064D02*
X121385000Y-97832936D01*
X134085000Y-98287064D02*
X134085000Y-97832936D01*
X132615000Y-98287064D02*
X132615000Y-97832936D01*
X135790000Y-98287064D02*
X135790000Y-97832936D01*
X137260000Y-98287064D02*
X137260000Y-97832936D01*
D10*
X198246904Y-72207380D02*
X198246904Y-73016904D01*
X198199285Y-73112142D01*
X198151666Y-73159761D01*
X198056428Y-73207380D01*
X197865952Y-73207380D01*
X197770714Y-73159761D01*
X197723095Y-73112142D01*
X197675476Y-73016904D01*
X197675476Y-72207380D01*
X197246904Y-72302619D02*
X197199285Y-72255000D01*
X197104047Y-72207380D01*
X196865952Y-72207380D01*
X196770714Y-72255000D01*
X196723095Y-72302619D01*
X196675476Y-72397857D01*
X196675476Y-72493095D01*
X196723095Y-72635952D01*
X197294523Y-73207380D01*
X196675476Y-73207380D01*
X225551904Y-109672380D02*
X225551904Y-110481904D01*
X225504285Y-110577142D01*
X225456666Y-110624761D01*
X225361428Y-110672380D01*
X225170952Y-110672380D01*
X225075714Y-110624761D01*
X225028095Y-110577142D01*
X224980476Y-110481904D01*
X224980476Y-109672380D01*
X224456666Y-110672380D02*
X224266190Y-110672380D01*
X224170952Y-110624761D01*
X224123333Y-110577142D01*
X224028095Y-110434285D01*
X223980476Y-110243809D01*
X223980476Y-109862857D01*
X224028095Y-109767619D01*
X224075714Y-109720000D01*
X224170952Y-109672380D01*
X224361428Y-109672380D01*
X224456666Y-109720000D01*
X224504285Y-109767619D01*
X224551904Y-109862857D01*
X224551904Y-110100952D01*
X224504285Y-110196190D01*
X224456666Y-110243809D01*
X224361428Y-110291428D01*
X224170952Y-110291428D01*
X224075714Y-110243809D01*
X224028095Y-110196190D01*
X223980476Y-110100952D01*
X226028095Y-131262380D02*
X226028095Y-132071904D01*
X225980476Y-132167142D01*
X225932857Y-132214761D01*
X225837619Y-132262380D01*
X225647142Y-132262380D01*
X225551904Y-132214761D01*
X225504285Y-132167142D01*
X225456666Y-132071904D01*
X225456666Y-131262380D01*
X224456666Y-132262380D02*
X225028095Y-132262380D01*
X224742380Y-132262380D02*
X224742380Y-131262380D01*
X224837619Y-131405238D01*
X224932857Y-131500476D01*
X225028095Y-131548095D01*
X223837619Y-131262380D02*
X223742380Y-131262380D01*
X223647142Y-131310000D01*
X223599523Y-131357619D01*
X223551904Y-131452857D01*
X223504285Y-131643333D01*
X223504285Y-131881428D01*
X223551904Y-132071904D01*
X223599523Y-132167142D01*
X223647142Y-132214761D01*
X223742380Y-132262380D01*
X223837619Y-132262380D01*
X223932857Y-132214761D01*
X223980476Y-132167142D01*
X224028095Y-132071904D01*
X224075714Y-131881428D01*
X224075714Y-131643333D01*
X224028095Y-131452857D01*
X223980476Y-131357619D01*
X223932857Y-131310000D01*
X223837619Y-131262380D01*
X187012380Y-93736666D02*
X187726666Y-93736666D01*
X187869523Y-93689047D01*
X187964761Y-93593809D01*
X188012380Y-93450952D01*
X188012380Y-93355714D01*
X188012380Y-94212857D02*
X187012380Y-94212857D01*
X187012380Y-94593809D01*
X187060000Y-94689047D01*
X187107619Y-94736666D01*
X187202857Y-94784285D01*
X187345714Y-94784285D01*
X187440952Y-94736666D01*
X187488571Y-94689047D01*
X187536190Y-94593809D01*
X187536190Y-94212857D01*
X187107619Y-95165238D02*
X187060000Y-95212857D01*
X187012380Y-95308095D01*
X187012380Y-95546190D01*
X187060000Y-95641428D01*
X187107619Y-95689047D01*
X187202857Y-95736666D01*
X187298095Y-95736666D01*
X187440952Y-95689047D01*
X188012380Y-95117619D01*
X188012380Y-95736666D01*
X189652380Y-83604761D02*
X188652380Y-83604761D01*
X189033333Y-83604761D02*
X188985714Y-83700000D01*
X188985714Y-83890476D01*
X189033333Y-83985714D01*
X189080952Y-84033333D01*
X189176190Y-84080952D01*
X189461904Y-84080952D01*
X189557142Y-84033333D01*
X189604761Y-83985714D01*
X189652380Y-83890476D01*
X189652380Y-83700000D01*
X189604761Y-83604761D01*
X188985714Y-84938095D02*
X189652380Y-84938095D01*
X188985714Y-84509523D02*
X189509523Y-84509523D01*
X189604761Y-84557142D01*
X189652380Y-84652380D01*
X189652380Y-84795238D01*
X189604761Y-84890476D01*
X189557142Y-84938095D01*
X189604761Y-85366666D02*
X189652380Y-85461904D01*
X189652380Y-85652380D01*
X189604761Y-85747619D01*
X189509523Y-85795238D01*
X189461904Y-85795238D01*
X189366666Y-85747619D01*
X189319047Y-85652380D01*
X189319047Y-85509523D01*
X189271428Y-85414285D01*
X189176190Y-85366666D01*
X189128571Y-85366666D01*
X189033333Y-85414285D01*
X188985714Y-85509523D01*
X188985714Y-85652380D01*
X189033333Y-85747619D01*
X189652380Y-87414285D02*
X188652380Y-87414285D01*
X189604761Y-87414285D02*
X189652380Y-87319047D01*
X189652380Y-87128571D01*
X189604761Y-87033333D01*
X189557142Y-86985714D01*
X189461904Y-86938095D01*
X189176190Y-86938095D01*
X189080952Y-86985714D01*
X189033333Y-87033333D01*
X188985714Y-87128571D01*
X188985714Y-87319047D01*
X189033333Y-87414285D01*
X189652380Y-87890476D02*
X188985714Y-87890476D01*
X188652380Y-87890476D02*
X188700000Y-87842857D01*
X188747619Y-87890476D01*
X188700000Y-87938095D01*
X188652380Y-87890476D01*
X188747619Y-87890476D01*
X189652380Y-88366666D02*
X188985714Y-88366666D01*
X189176190Y-88366666D02*
X189080952Y-88414285D01*
X189033333Y-88461904D01*
X188985714Y-88557142D01*
X188985714Y-88652380D01*
X189604761Y-89366666D02*
X189652380Y-89271428D01*
X189652380Y-89080952D01*
X189604761Y-88985714D01*
X189509523Y-88938095D01*
X189128571Y-88938095D01*
X189033333Y-88985714D01*
X188985714Y-89080952D01*
X188985714Y-89271428D01*
X189033333Y-89366666D01*
X189128571Y-89414285D01*
X189223809Y-89414285D01*
X189319047Y-88938095D01*
X189604761Y-90271428D02*
X189652380Y-90176190D01*
X189652380Y-89985714D01*
X189604761Y-89890476D01*
X189557142Y-89842857D01*
X189461904Y-89795238D01*
X189176190Y-89795238D01*
X189080952Y-89842857D01*
X189033333Y-89890476D01*
X188985714Y-89985714D01*
X188985714Y-90176190D01*
X189033333Y-90271428D01*
X188985714Y-90557142D02*
X188985714Y-90938095D01*
X188652380Y-90700000D02*
X189509523Y-90700000D01*
X189604761Y-90747619D01*
X189652380Y-90842857D01*
X189652380Y-90938095D01*
X189652380Y-91271428D02*
X188985714Y-91271428D01*
X188652380Y-91271428D02*
X188700000Y-91223809D01*
X188747619Y-91271428D01*
X188700000Y-91319047D01*
X188652380Y-91271428D01*
X188747619Y-91271428D01*
X189652380Y-91890476D02*
X189604761Y-91795238D01*
X189557142Y-91747619D01*
X189461904Y-91700000D01*
X189176190Y-91700000D01*
X189080952Y-91747619D01*
X189033333Y-91795238D01*
X188985714Y-91890476D01*
X188985714Y-92033333D01*
X189033333Y-92128571D01*
X189080952Y-92176190D01*
X189176190Y-92223809D01*
X189461904Y-92223809D01*
X189557142Y-92176190D01*
X189604761Y-92128571D01*
X189652380Y-92033333D01*
X189652380Y-91890476D01*
X188985714Y-92652380D02*
X189652380Y-92652380D01*
X189080952Y-92652380D02*
X189033333Y-92700000D01*
X188985714Y-92795238D01*
X188985714Y-92938095D01*
X189033333Y-93033333D01*
X189128571Y-93080952D01*
X189652380Y-93080952D01*
X188700000Y-94842857D02*
X188652380Y-94747619D01*
X188652380Y-94604761D01*
X188700000Y-94461904D01*
X188795238Y-94366666D01*
X188890476Y-94319047D01*
X189080952Y-94271428D01*
X189223809Y-94271428D01*
X189414285Y-94319047D01*
X189509523Y-94366666D01*
X189604761Y-94461904D01*
X189652380Y-94604761D01*
X189652380Y-94700000D01*
X189604761Y-94842857D01*
X189557142Y-94890476D01*
X189223809Y-94890476D01*
X189223809Y-94700000D01*
X189652380Y-95319047D02*
X188652380Y-95319047D01*
X189652380Y-95890476D01*
X188652380Y-95890476D01*
X189652380Y-96366666D02*
X188652380Y-96366666D01*
X188652380Y-96604761D01*
X188700000Y-96747619D01*
X188795238Y-96842857D01*
X188890476Y-96890476D01*
X189080952Y-96938095D01*
X189223809Y-96938095D01*
X189414285Y-96890476D01*
X189509523Y-96842857D01*
X189604761Y-96747619D01*
X189652380Y-96604761D01*
X189652380Y-96366666D01*
X188604761Y-98080952D02*
X189890476Y-97223809D01*
X188652380Y-98890476D02*
X188652380Y-98414285D01*
X189128571Y-98366666D01*
X189080952Y-98414285D01*
X189033333Y-98509523D01*
X189033333Y-98747619D01*
X189080952Y-98842857D01*
X189128571Y-98890476D01*
X189223809Y-98938095D01*
X189461904Y-98938095D01*
X189557142Y-98890476D01*
X189604761Y-98842857D01*
X189652380Y-98747619D01*
X189652380Y-98509523D01*
X189604761Y-98414285D01*
X189557142Y-98366666D01*
X188652380Y-99223809D02*
X189652380Y-99557142D01*
X188652380Y-99890476D01*
X189128571Y-100223809D02*
X189128571Y-100985714D01*
X189414285Y-100985714D02*
X189414285Y-100223809D01*
X189652380Y-101604761D02*
X189604761Y-101509523D01*
X189557142Y-101461904D01*
X189461904Y-101414285D01*
X189176190Y-101414285D01*
X189080952Y-101461904D01*
X189033333Y-101509523D01*
X188985714Y-101604761D01*
X188985714Y-101747619D01*
X189033333Y-101842857D01*
X189080952Y-101890476D01*
X189176190Y-101938095D01*
X189461904Y-101938095D01*
X189557142Y-101890476D01*
X189604761Y-101842857D01*
X189652380Y-101747619D01*
X189652380Y-101604761D01*
X188985714Y-102795238D02*
X189652380Y-102795238D01*
X188985714Y-102366666D02*
X189509523Y-102366666D01*
X189604761Y-102414285D01*
X189652380Y-102509523D01*
X189652380Y-102652380D01*
X189604761Y-102747619D01*
X189557142Y-102795238D01*
X188985714Y-103128571D02*
X188985714Y-103509523D01*
X188652380Y-103271428D02*
X189509523Y-103271428D01*
X189604761Y-103319047D01*
X189652380Y-103414285D01*
X189652380Y-103509523D01*
X188604761Y-104557142D02*
X189890476Y-103700000D01*
X189652380Y-104890476D02*
X188985714Y-104890476D01*
X188652380Y-104890476D02*
X188700000Y-104842857D01*
X188747619Y-104890476D01*
X188700000Y-104938095D01*
X188652380Y-104890476D01*
X188747619Y-104890476D01*
X188985714Y-105366666D02*
X189652380Y-105366666D01*
X189080952Y-105366666D02*
X189033333Y-105414285D01*
X188985714Y-105509523D01*
X188985714Y-105652380D01*
X189033333Y-105747619D01*
X189128571Y-105795238D01*
X189652380Y-105795238D01*
X198119904Y-89098380D02*
X198119904Y-89907904D01*
X198072285Y-90003142D01*
X198024666Y-90050761D01*
X197929428Y-90098380D01*
X197738952Y-90098380D01*
X197643714Y-90050761D01*
X197596095Y-90003142D01*
X197548476Y-89907904D01*
X197548476Y-89098380D01*
X196548476Y-90098380D02*
X197119904Y-90098380D01*
X196834190Y-90098380D02*
X196834190Y-89098380D01*
X196929428Y-89241238D01*
X197024666Y-89336476D01*
X197119904Y-89384095D01*
X198119904Y-110942380D02*
X198119904Y-111751904D01*
X198072285Y-111847142D01*
X198024666Y-111894761D01*
X197929428Y-111942380D01*
X197738952Y-111942380D01*
X197643714Y-111894761D01*
X197596095Y-111847142D01*
X197548476Y-111751904D01*
X197548476Y-110942380D01*
X197167523Y-110942380D02*
X196548476Y-110942380D01*
X196881809Y-111323333D01*
X196738952Y-111323333D01*
X196643714Y-111370952D01*
X196596095Y-111418571D01*
X196548476Y-111513809D01*
X196548476Y-111751904D01*
X196596095Y-111847142D01*
X196643714Y-111894761D01*
X196738952Y-111942380D01*
X197024666Y-111942380D01*
X197119904Y-111894761D01*
X197167523Y-111847142D01*
X198119904Y-132532380D02*
X198119904Y-133341904D01*
X198072285Y-133437142D01*
X198024666Y-133484761D01*
X197929428Y-133532380D01*
X197738952Y-133532380D01*
X197643714Y-133484761D01*
X197596095Y-133437142D01*
X197548476Y-133341904D01*
X197548476Y-132532380D01*
X196643714Y-132865714D02*
X196643714Y-133532380D01*
X196881809Y-132484761D02*
X197119904Y-133199047D01*
X196500857Y-133199047D01*
X227963333Y-88932380D02*
X227963333Y-89646666D01*
X228010952Y-89789523D01*
X228106190Y-89884761D01*
X228249047Y-89932380D01*
X228344285Y-89932380D01*
X227487142Y-89932380D02*
X227487142Y-88932380D01*
X227106190Y-88932380D01*
X227010952Y-88980000D01*
X226963333Y-89027619D01*
X226915714Y-89122857D01*
X226915714Y-89265714D01*
X226963333Y-89360952D01*
X227010952Y-89408571D01*
X227106190Y-89456190D01*
X227487142Y-89456190D01*
X226582380Y-88932380D02*
X225915714Y-88932380D01*
X226344285Y-89932380D01*
X236792380Y-91352380D02*
X236792380Y-90352380D01*
X236792380Y-90733333D02*
X236697142Y-90685714D01*
X236506666Y-90685714D01*
X236411428Y-90733333D01*
X236363809Y-90780952D01*
X236316190Y-90876190D01*
X236316190Y-91161904D01*
X236363809Y-91257142D01*
X236411428Y-91304761D01*
X236506666Y-91352380D01*
X236697142Y-91352380D01*
X236792380Y-91304761D01*
X235459047Y-90685714D02*
X235459047Y-91352380D01*
X235887619Y-90685714D02*
X235887619Y-91209523D01*
X235840000Y-91304761D01*
X235744761Y-91352380D01*
X235601904Y-91352380D01*
X235506666Y-91304761D01*
X235459047Y-91257142D01*
X235030476Y-91304761D02*
X234935238Y-91352380D01*
X234744761Y-91352380D01*
X234649523Y-91304761D01*
X234601904Y-91209523D01*
X234601904Y-91161904D01*
X234649523Y-91066666D01*
X234744761Y-91019047D01*
X234887619Y-91019047D01*
X234982857Y-90971428D01*
X235030476Y-90876190D01*
X235030476Y-90828571D01*
X234982857Y-90733333D01*
X234887619Y-90685714D01*
X234744761Y-90685714D01*
X234649523Y-90733333D01*
X233268571Y-91352380D02*
X233363809Y-91304761D01*
X233411428Y-91257142D01*
X233459047Y-91161904D01*
X233459047Y-90876190D01*
X233411428Y-90780952D01*
X233363809Y-90733333D01*
X233268571Y-90685714D01*
X233125714Y-90685714D01*
X233030476Y-90733333D01*
X232982857Y-90780952D01*
X232935238Y-90876190D01*
X232935238Y-91161904D01*
X232982857Y-91257142D01*
X233030476Y-91304761D01*
X233125714Y-91352380D01*
X233268571Y-91352380D01*
X232078095Y-90685714D02*
X232078095Y-91352380D01*
X232506666Y-90685714D02*
X232506666Y-91209523D01*
X232459047Y-91304761D01*
X232363809Y-91352380D01*
X232220952Y-91352380D01*
X232125714Y-91304761D01*
X232078095Y-91257142D01*
X231744761Y-90685714D02*
X231363809Y-90685714D01*
X231601904Y-90352380D02*
X231601904Y-91209523D01*
X231554285Y-91304761D01*
X231459047Y-91352380D01*
X231363809Y-91352380D01*
X229887619Y-91304761D02*
X229982857Y-91352380D01*
X230173333Y-91352380D01*
X230268571Y-91304761D01*
X230316190Y-91209523D01*
X230316190Y-90828571D01*
X230268571Y-90733333D01*
X230173333Y-90685714D01*
X229982857Y-90685714D01*
X229887619Y-90733333D01*
X229840000Y-90828571D01*
X229840000Y-90923809D01*
X230316190Y-91019047D01*
X229411428Y-90685714D02*
X229411428Y-91352380D01*
X229411428Y-90780952D02*
X229363809Y-90733333D01*
X229268571Y-90685714D01*
X229125714Y-90685714D01*
X229030476Y-90733333D01*
X228982857Y-90828571D01*
X228982857Y-91352380D01*
X228078095Y-91352380D02*
X228078095Y-90828571D01*
X228125714Y-90733333D01*
X228220952Y-90685714D01*
X228411428Y-90685714D01*
X228506666Y-90733333D01*
X228078095Y-91304761D02*
X228173333Y-91352380D01*
X228411428Y-91352380D01*
X228506666Y-91304761D01*
X228554285Y-91209523D01*
X228554285Y-91114285D01*
X228506666Y-91019047D01*
X228411428Y-90971428D01*
X228173333Y-90971428D01*
X228078095Y-90923809D01*
X227601904Y-91352380D02*
X227601904Y-90352380D01*
X227601904Y-90733333D02*
X227506666Y-90685714D01*
X227316190Y-90685714D01*
X227220952Y-90733333D01*
X227173333Y-90780952D01*
X227125714Y-90876190D01*
X227125714Y-91161904D01*
X227173333Y-91257142D01*
X227220952Y-91304761D01*
X227316190Y-91352380D01*
X227506666Y-91352380D01*
X227601904Y-91304761D01*
X226554285Y-91352380D02*
X226649523Y-91304761D01*
X226697142Y-91209523D01*
X226697142Y-90352380D01*
X225792380Y-91304761D02*
X225887619Y-91352380D01*
X226078095Y-91352380D01*
X226173333Y-91304761D01*
X226220952Y-91209523D01*
X226220952Y-90828571D01*
X226173333Y-90733333D01*
X226078095Y-90685714D01*
X225887619Y-90685714D01*
X225792380Y-90733333D01*
X225744761Y-90828571D01*
X225744761Y-90923809D01*
X226220952Y-91019047D01*
X224030476Y-90400000D02*
X224125714Y-90352380D01*
X224268571Y-90352380D01*
X224411428Y-90400000D01*
X224506666Y-90495238D01*
X224554285Y-90590476D01*
X224601904Y-90780952D01*
X224601904Y-90923809D01*
X224554285Y-91114285D01*
X224506666Y-91209523D01*
X224411428Y-91304761D01*
X224268571Y-91352380D01*
X224173333Y-91352380D01*
X224030476Y-91304761D01*
X223982857Y-91257142D01*
X223982857Y-90923809D01*
X224173333Y-90923809D01*
X223554285Y-91352380D02*
X223554285Y-90352380D01*
X222982857Y-91352380D01*
X222982857Y-90352380D01*
X222506666Y-91352380D02*
X222506666Y-90352380D01*
X222268571Y-90352380D01*
X222125714Y-90400000D01*
X222030476Y-90495238D01*
X221982857Y-90590476D01*
X221935238Y-90780952D01*
X221935238Y-90923809D01*
X221982857Y-91114285D01*
X222030476Y-91209523D01*
X222125714Y-91304761D01*
X222268571Y-91352380D01*
X222506666Y-91352380D01*
X221506666Y-90828571D02*
X220744761Y-90828571D01*
X220744761Y-91114285D02*
X221506666Y-91114285D01*
X219887619Y-91304761D02*
X219982857Y-91352380D01*
X220173333Y-91352380D01*
X220268571Y-91304761D01*
X220316190Y-91209523D01*
X220316190Y-90828571D01*
X220268571Y-90733333D01*
X220173333Y-90685714D01*
X219982857Y-90685714D01*
X219887619Y-90733333D01*
X219840000Y-90828571D01*
X219840000Y-90923809D01*
X220316190Y-91019047D01*
X219411428Y-90685714D02*
X219411428Y-91352380D01*
X219411428Y-90780952D02*
X219363809Y-90733333D01*
X219268571Y-90685714D01*
X219125714Y-90685714D01*
X219030476Y-90733333D01*
X218982857Y-90828571D01*
X218982857Y-91352380D01*
X218078095Y-91352380D02*
X218078095Y-90828571D01*
X218125714Y-90733333D01*
X218220952Y-90685714D01*
X218411428Y-90685714D01*
X218506666Y-90733333D01*
X218078095Y-91304761D02*
X218173333Y-91352380D01*
X218411428Y-91352380D01*
X218506666Y-91304761D01*
X218554285Y-91209523D01*
X218554285Y-91114285D01*
X218506666Y-91019047D01*
X218411428Y-90971428D01*
X218173333Y-90971428D01*
X218078095Y-90923809D01*
X217601904Y-91352380D02*
X217601904Y-90352380D01*
X217601904Y-90733333D02*
X217506666Y-90685714D01*
X217316190Y-90685714D01*
X217220952Y-90733333D01*
X217173333Y-90780952D01*
X217125714Y-90876190D01*
X217125714Y-91161904D01*
X217173333Y-91257142D01*
X217220952Y-91304761D01*
X217316190Y-91352380D01*
X217506666Y-91352380D01*
X217601904Y-91304761D01*
X216554285Y-91352380D02*
X216649523Y-91304761D01*
X216697142Y-91209523D01*
X216697142Y-90352380D01*
X215792380Y-91304761D02*
X215887619Y-91352380D01*
X216078095Y-91352380D01*
X216173333Y-91304761D01*
X216220952Y-91209523D01*
X216220952Y-90828571D01*
X216173333Y-90733333D01*
X216078095Y-90685714D01*
X215887619Y-90685714D01*
X215792380Y-90733333D01*
X215744761Y-90828571D01*
X215744761Y-90923809D01*
X216220952Y-91019047D01*
X214887619Y-91352380D02*
X214887619Y-90352380D01*
X214887619Y-91304761D02*
X214982857Y-91352380D01*
X215173333Y-91352380D01*
X215268571Y-91304761D01*
X215316190Y-91257142D01*
X215363809Y-91161904D01*
X215363809Y-90876190D01*
X215316190Y-90780952D01*
X215268571Y-90733333D01*
X215173333Y-90685714D01*
X214982857Y-90685714D01*
X214887619Y-90733333D01*
X222671904Y-88002380D02*
X222671904Y-88811904D01*
X222624285Y-88907142D01*
X222576666Y-88954761D01*
X222481428Y-89002380D01*
X222290952Y-89002380D01*
X222195714Y-88954761D01*
X222148095Y-88907142D01*
X222100476Y-88811904D01*
X222100476Y-88002380D01*
X221719523Y-88002380D02*
X221052857Y-88002380D01*
X221481428Y-89002380D01*
X225551904Y-70937380D02*
X225551904Y-71746904D01*
X225504285Y-71842142D01*
X225456666Y-71889761D01*
X225361428Y-71937380D01*
X225170952Y-71937380D01*
X225075714Y-71889761D01*
X225028095Y-71842142D01*
X224980476Y-71746904D01*
X224980476Y-70937380D01*
X224361428Y-71365952D02*
X224456666Y-71318333D01*
X224504285Y-71270714D01*
X224551904Y-71175476D01*
X224551904Y-71127857D01*
X224504285Y-71032619D01*
X224456666Y-70985000D01*
X224361428Y-70937380D01*
X224170952Y-70937380D01*
X224075714Y-70985000D01*
X224028095Y-71032619D01*
X223980476Y-71127857D01*
X223980476Y-71175476D01*
X224028095Y-71270714D01*
X224075714Y-71318333D01*
X224170952Y-71365952D01*
X224361428Y-71365952D01*
X224456666Y-71413571D01*
X224504285Y-71461190D01*
X224551904Y-71556428D01*
X224551904Y-71746904D01*
X224504285Y-71842142D01*
X224456666Y-71889761D01*
X224361428Y-71937380D01*
X224170952Y-71937380D01*
X224075714Y-71889761D01*
X224028095Y-71842142D01*
X223980476Y-71746904D01*
X223980476Y-71556428D01*
X224028095Y-71461190D01*
X224075714Y-71413571D01*
X224170952Y-71365952D01*
X202959166Y-92465142D02*
X203006785Y-92512761D01*
X203149642Y-92560380D01*
X203244880Y-92560380D01*
X203387738Y-92512761D01*
X203482976Y-92417523D01*
X203530595Y-92322285D01*
X203578214Y-92131809D01*
X203578214Y-91988952D01*
X203530595Y-91798476D01*
X203482976Y-91703238D01*
X203387738Y-91608000D01*
X203244880Y-91560380D01*
X203149642Y-91560380D01*
X203006785Y-91608000D01*
X202959166Y-91655619D01*
X202625833Y-91560380D02*
X202006785Y-91560380D01*
X202340119Y-91941333D01*
X202197261Y-91941333D01*
X202102023Y-91988952D01*
X202054404Y-92036571D01*
X202006785Y-92131809D01*
X202006785Y-92369904D01*
X202054404Y-92465142D01*
X202102023Y-92512761D01*
X202197261Y-92560380D01*
X202482976Y-92560380D01*
X202578214Y-92512761D01*
X202625833Y-92465142D01*
X207367142Y-71715333D02*
X207414761Y-71667714D01*
X207462380Y-71524857D01*
X207462380Y-71429619D01*
X207414761Y-71286761D01*
X207319523Y-71191523D01*
X207224285Y-71143904D01*
X207033809Y-71096285D01*
X206890952Y-71096285D01*
X206700476Y-71143904D01*
X206605238Y-71191523D01*
X206510000Y-71286761D01*
X206462380Y-71429619D01*
X206462380Y-71524857D01*
X206510000Y-71667714D01*
X206557619Y-71715333D01*
X206795714Y-72572476D02*
X207462380Y-72572476D01*
X206414761Y-72334380D02*
X207129047Y-72096285D01*
X207129047Y-72715333D01*
X204128666Y-112879142D02*
X204176285Y-112926761D01*
X204319142Y-112974380D01*
X204414380Y-112974380D01*
X204557238Y-112926761D01*
X204652476Y-112831523D01*
X204700095Y-112736285D01*
X204747714Y-112545809D01*
X204747714Y-112402952D01*
X204700095Y-112212476D01*
X204652476Y-112117238D01*
X204557238Y-112022000D01*
X204414380Y-111974380D01*
X204319142Y-111974380D01*
X204176285Y-112022000D01*
X204128666Y-112069619D01*
X203223904Y-111974380D02*
X203700095Y-111974380D01*
X203747714Y-112450571D01*
X203700095Y-112402952D01*
X203604857Y-112355333D01*
X203366761Y-112355333D01*
X203271523Y-112402952D01*
X203223904Y-112450571D01*
X203176285Y-112545809D01*
X203176285Y-112783904D01*
X203223904Y-112879142D01*
X203271523Y-112926761D01*
X203366761Y-112974380D01*
X203604857Y-112974380D01*
X203700095Y-112926761D01*
X203747714Y-112879142D01*
X202959166Y-135899142D02*
X203006785Y-135946761D01*
X203149642Y-135994380D01*
X203244880Y-135994380D01*
X203387738Y-135946761D01*
X203482976Y-135851523D01*
X203530595Y-135756285D01*
X203578214Y-135565809D01*
X203578214Y-135422952D01*
X203530595Y-135232476D01*
X203482976Y-135137238D01*
X203387738Y-135042000D01*
X203244880Y-134994380D01*
X203149642Y-134994380D01*
X203006785Y-135042000D01*
X202959166Y-135089619D01*
X202102023Y-134994380D02*
X202292500Y-134994380D01*
X202387738Y-135042000D01*
X202435357Y-135089619D01*
X202530595Y-135232476D01*
X202578214Y-135422952D01*
X202578214Y-135803904D01*
X202530595Y-135899142D01*
X202482976Y-135946761D01*
X202387738Y-135994380D01*
X202197261Y-135994380D01*
X202102023Y-135946761D01*
X202054404Y-135899142D01*
X202006785Y-135803904D01*
X202006785Y-135565809D01*
X202054404Y-135470571D01*
X202102023Y-135422952D01*
X202197261Y-135375333D01*
X202387738Y-135375333D01*
X202482976Y-135422952D01*
X202530595Y-135470571D01*
X202578214Y-135565809D01*
X158091142Y-138009333D02*
X158138761Y-137961714D01*
X158186380Y-137818857D01*
X158186380Y-137723619D01*
X158138761Y-137580761D01*
X158043523Y-137485523D01*
X157948285Y-137437904D01*
X157757809Y-137390285D01*
X157614952Y-137390285D01*
X157424476Y-137437904D01*
X157329238Y-137485523D01*
X157234000Y-137580761D01*
X157186380Y-137723619D01*
X157186380Y-137818857D01*
X157234000Y-137961714D01*
X157281619Y-138009333D01*
X158186380Y-138485523D02*
X158186380Y-138676000D01*
X158138761Y-138771238D01*
X158091142Y-138818857D01*
X157948285Y-138914095D01*
X157757809Y-138961714D01*
X157376857Y-138961714D01*
X157281619Y-138914095D01*
X157234000Y-138866476D01*
X157186380Y-138771238D01*
X157186380Y-138580761D01*
X157234000Y-138485523D01*
X157281619Y-138437904D01*
X157376857Y-138390285D01*
X157614952Y-138390285D01*
X157710190Y-138437904D01*
X157757809Y-138485523D01*
X157805428Y-138580761D01*
X157805428Y-138771238D01*
X157757809Y-138866476D01*
X157710190Y-138914095D01*
X157614952Y-138961714D01*
X164949142Y-137914142D02*
X164996761Y-137866523D01*
X165044380Y-137723666D01*
X165044380Y-137628428D01*
X164996761Y-137485571D01*
X164901523Y-137390333D01*
X164806285Y-137342714D01*
X164615809Y-137295095D01*
X164472952Y-137295095D01*
X164282476Y-137342714D01*
X164187238Y-137390333D01*
X164092000Y-137485571D01*
X164044380Y-137628428D01*
X164044380Y-137723666D01*
X164092000Y-137866523D01*
X164139619Y-137914142D01*
X165044380Y-138866523D02*
X165044380Y-138295095D01*
X165044380Y-138580809D02*
X164044380Y-138580809D01*
X164187238Y-138485571D01*
X164282476Y-138390333D01*
X164330095Y-138295095D01*
X164044380Y-139485571D02*
X164044380Y-139580809D01*
X164092000Y-139676047D01*
X164139619Y-139723666D01*
X164234857Y-139771285D01*
X164425333Y-139818904D01*
X164663428Y-139818904D01*
X164853904Y-139771285D01*
X164949142Y-139723666D01*
X164996761Y-139676047D01*
X165044380Y-139580809D01*
X165044380Y-139485571D01*
X164996761Y-139390333D01*
X164949142Y-139342714D01*
X164853904Y-139295095D01*
X164663428Y-139247476D01*
X164425333Y-139247476D01*
X164234857Y-139295095D01*
X164139619Y-139342714D01*
X164092000Y-139390333D01*
X164044380Y-139485571D01*
X134944142Y-124806642D02*
X134991761Y-124759023D01*
X135039380Y-124616166D01*
X135039380Y-124520928D01*
X134991761Y-124378071D01*
X134896523Y-124282833D01*
X134801285Y-124235214D01*
X134610809Y-124187595D01*
X134467952Y-124187595D01*
X134277476Y-124235214D01*
X134182238Y-124282833D01*
X134087000Y-124378071D01*
X134039380Y-124520928D01*
X134039380Y-124616166D01*
X134087000Y-124759023D01*
X134134619Y-124806642D01*
X135039380Y-125759023D02*
X135039380Y-125187595D01*
X135039380Y-125473309D02*
X134039380Y-125473309D01*
X134182238Y-125378071D01*
X134277476Y-125282833D01*
X134325095Y-125187595D01*
X135039380Y-126711404D02*
X135039380Y-126139976D01*
X135039380Y-126425690D02*
X134039380Y-126425690D01*
X134182238Y-126330452D01*
X134277476Y-126235214D01*
X134325095Y-126139976D01*
X234322857Y-89765142D02*
X234370476Y-89812761D01*
X234513333Y-89860380D01*
X234608571Y-89860380D01*
X234751428Y-89812761D01*
X234846666Y-89717523D01*
X234894285Y-89622285D01*
X234941904Y-89431809D01*
X234941904Y-89288952D01*
X234894285Y-89098476D01*
X234846666Y-89003238D01*
X234751428Y-88908000D01*
X234608571Y-88860380D01*
X234513333Y-88860380D01*
X234370476Y-88908000D01*
X234322857Y-88955619D01*
X233370476Y-89860380D02*
X233941904Y-89860380D01*
X233656190Y-89860380D02*
X233656190Y-88860380D01*
X233751428Y-89003238D01*
X233846666Y-89098476D01*
X233941904Y-89146095D01*
X232989523Y-88955619D02*
X232941904Y-88908000D01*
X232846666Y-88860380D01*
X232608571Y-88860380D01*
X232513333Y-88908000D01*
X232465714Y-88955619D01*
X232418095Y-89050857D01*
X232418095Y-89146095D01*
X232465714Y-89288952D01*
X233037142Y-89860380D01*
X232418095Y-89860380D01*
X227718857Y-73255142D02*
X227766476Y-73302761D01*
X227909333Y-73350380D01*
X228004571Y-73350380D01*
X228147428Y-73302761D01*
X228242666Y-73207523D01*
X228290285Y-73112285D01*
X228337904Y-72921809D01*
X228337904Y-72778952D01*
X228290285Y-72588476D01*
X228242666Y-72493238D01*
X228147428Y-72398000D01*
X228004571Y-72350380D01*
X227909333Y-72350380D01*
X227766476Y-72398000D01*
X227718857Y-72445619D01*
X226766476Y-73350380D02*
X227337904Y-73350380D01*
X227052190Y-73350380D02*
X227052190Y-72350380D01*
X227147428Y-72493238D01*
X227242666Y-72588476D01*
X227337904Y-72636095D01*
X226433142Y-72350380D02*
X225814095Y-72350380D01*
X226147428Y-72731333D01*
X226004571Y-72731333D01*
X225909333Y-72778952D01*
X225861714Y-72826571D01*
X225814095Y-72921809D01*
X225814095Y-73159904D01*
X225861714Y-73255142D01*
X225909333Y-73302761D01*
X226004571Y-73350380D01*
X226290285Y-73350380D01*
X226385523Y-73302761D01*
X226433142Y-73255142D01*
X230867357Y-113039142D02*
X230914976Y-113086761D01*
X231057833Y-113134380D01*
X231153071Y-113134380D01*
X231295928Y-113086761D01*
X231391166Y-112991523D01*
X231438785Y-112896285D01*
X231486404Y-112705809D01*
X231486404Y-112562952D01*
X231438785Y-112372476D01*
X231391166Y-112277238D01*
X231295928Y-112182000D01*
X231153071Y-112134380D01*
X231057833Y-112134380D01*
X230914976Y-112182000D01*
X230867357Y-112229619D01*
X229914976Y-113134380D02*
X230486404Y-113134380D01*
X230200690Y-113134380D02*
X230200690Y-112134380D01*
X230295928Y-112277238D01*
X230391166Y-112372476D01*
X230486404Y-112420095D01*
X229057833Y-112467714D02*
X229057833Y-113134380D01*
X229295928Y-112086761D02*
X229534023Y-112801047D01*
X228914976Y-112801047D01*
X234322857Y-133199142D02*
X234370476Y-133246761D01*
X234513333Y-133294380D01*
X234608571Y-133294380D01*
X234751428Y-133246761D01*
X234846666Y-133151523D01*
X234894285Y-133056285D01*
X234941904Y-132865809D01*
X234941904Y-132722952D01*
X234894285Y-132532476D01*
X234846666Y-132437238D01*
X234751428Y-132342000D01*
X234608571Y-132294380D01*
X234513333Y-132294380D01*
X234370476Y-132342000D01*
X234322857Y-132389619D01*
X233370476Y-133294380D02*
X233941904Y-133294380D01*
X233656190Y-133294380D02*
X233656190Y-132294380D01*
X233751428Y-132437238D01*
X233846666Y-132532476D01*
X233941904Y-132580095D01*
X232465714Y-132294380D02*
X232941904Y-132294380D01*
X232989523Y-132770571D01*
X232941904Y-132722952D01*
X232846666Y-132675333D01*
X232608571Y-132675333D01*
X232513333Y-132722952D01*
X232465714Y-132770571D01*
X232418095Y-132865809D01*
X232418095Y-133103904D01*
X232465714Y-133199142D01*
X232513333Y-133246761D01*
X232608571Y-133294380D01*
X232846666Y-133294380D01*
X232941904Y-133246761D01*
X232989523Y-133199142D01*
X153905357Y-104972142D02*
X153952976Y-105019761D01*
X154095833Y-105067380D01*
X154191071Y-105067380D01*
X154333928Y-105019761D01*
X154429166Y-104924523D01*
X154476785Y-104829285D01*
X154524404Y-104638809D01*
X154524404Y-104495952D01*
X154476785Y-104305476D01*
X154429166Y-104210238D01*
X154333928Y-104115000D01*
X154191071Y-104067380D01*
X154095833Y-104067380D01*
X153952976Y-104115000D01*
X153905357Y-104162619D01*
X152952976Y-105067380D02*
X153524404Y-105067380D01*
X153238690Y-105067380D02*
X153238690Y-104067380D01*
X153333928Y-104210238D01*
X153429166Y-104305476D01*
X153524404Y-104353095D01*
X152095833Y-104067380D02*
X152286309Y-104067380D01*
X152381547Y-104115000D01*
X152429166Y-104162619D01*
X152524404Y-104305476D01*
X152572023Y-104495952D01*
X152572023Y-104876904D01*
X152524404Y-104972142D01*
X152476785Y-105019761D01*
X152381547Y-105067380D01*
X152191071Y-105067380D01*
X152095833Y-105019761D01*
X152048214Y-104972142D01*
X152000595Y-104876904D01*
X152000595Y-104638809D01*
X152048214Y-104543571D01*
X152095833Y-104495952D01*
X152191071Y-104448333D01*
X152381547Y-104448333D01*
X152476785Y-104495952D01*
X152524404Y-104543571D01*
X152572023Y-104638809D01*
X142757142Y-104539642D02*
X142804761Y-104492023D01*
X142852380Y-104349166D01*
X142852380Y-104253928D01*
X142804761Y-104111071D01*
X142709523Y-104015833D01*
X142614285Y-103968214D01*
X142423809Y-103920595D01*
X142280952Y-103920595D01*
X142090476Y-103968214D01*
X141995238Y-104015833D01*
X141900000Y-104111071D01*
X141852380Y-104253928D01*
X141852380Y-104349166D01*
X141900000Y-104492023D01*
X141947619Y-104539642D01*
X142852380Y-105492023D02*
X142852380Y-104920595D01*
X142852380Y-105206309D02*
X141852380Y-105206309D01*
X141995238Y-105111071D01*
X142090476Y-105015833D01*
X142138095Y-104920595D01*
X141852380Y-105825357D02*
X141852380Y-106492023D01*
X142852380Y-106063452D01*
X127579380Y-101179333D02*
X127103190Y-100846000D01*
X127579380Y-100607904D02*
X126579380Y-100607904D01*
X126579380Y-100988857D01*
X126627000Y-101084095D01*
X126674619Y-101131714D01*
X126769857Y-101179333D01*
X126912714Y-101179333D01*
X127007952Y-101131714D01*
X127055571Y-101084095D01*
X127103190Y-100988857D01*
X127103190Y-100607904D01*
X127579380Y-101655523D02*
X127579380Y-101846000D01*
X127531761Y-101941238D01*
X127484142Y-101988857D01*
X127341285Y-102084095D01*
X127150809Y-102131714D01*
X126769857Y-102131714D01*
X126674619Y-102084095D01*
X126627000Y-102036476D01*
X126579380Y-101941238D01*
X126579380Y-101750761D01*
X126627000Y-101655523D01*
X126674619Y-101607904D01*
X126769857Y-101560285D01*
X127007952Y-101560285D01*
X127103190Y-101607904D01*
X127150809Y-101655523D01*
X127198428Y-101750761D01*
X127198428Y-101941238D01*
X127150809Y-102036476D01*
X127103190Y-102084095D01*
X127007952Y-102131714D01*
X124277380Y-101227142D02*
X123801190Y-100893809D01*
X124277380Y-100655714D02*
X123277380Y-100655714D01*
X123277380Y-101036666D01*
X123325000Y-101131904D01*
X123372619Y-101179523D01*
X123467857Y-101227142D01*
X123610714Y-101227142D01*
X123705952Y-101179523D01*
X123753571Y-101131904D01*
X123801190Y-101036666D01*
X123801190Y-100655714D01*
X124277380Y-102179523D02*
X124277380Y-101608095D01*
X124277380Y-101893809D02*
X123277380Y-101893809D01*
X123420238Y-101798571D01*
X123515476Y-101703333D01*
X123563095Y-101608095D01*
X123277380Y-102798571D02*
X123277380Y-102893809D01*
X123325000Y-102989047D01*
X123372619Y-103036666D01*
X123467857Y-103084285D01*
X123658333Y-103131904D01*
X123896428Y-103131904D01*
X124086904Y-103084285D01*
X124182142Y-103036666D01*
X124229761Y-102989047D01*
X124277380Y-102893809D01*
X124277380Y-102798571D01*
X124229761Y-102703333D01*
X124182142Y-102655714D01*
X124086904Y-102608095D01*
X123896428Y-102560476D01*
X123658333Y-102560476D01*
X123467857Y-102608095D01*
X123372619Y-102655714D01*
X123325000Y-102703333D01*
X123277380Y-102798571D01*
X130881380Y-102735142D02*
X130405190Y-102401809D01*
X130881380Y-102163714D02*
X129881380Y-102163714D01*
X129881380Y-102544666D01*
X129929000Y-102639904D01*
X129976619Y-102687523D01*
X130071857Y-102735142D01*
X130214714Y-102735142D01*
X130309952Y-102687523D01*
X130357571Y-102639904D01*
X130405190Y-102544666D01*
X130405190Y-102163714D01*
X130881380Y-103687523D02*
X130881380Y-103116095D01*
X130881380Y-103401809D02*
X129881380Y-103401809D01*
X130024238Y-103306571D01*
X130119476Y-103211333D01*
X130167095Y-103116095D01*
X130881380Y-104639904D02*
X130881380Y-104068476D01*
X130881380Y-104354190D02*
X129881380Y-104354190D01*
X130024238Y-104258952D01*
X130119476Y-104163714D01*
X130167095Y-104068476D01*
X121102380Y-101211142D02*
X120626190Y-100877809D01*
X121102380Y-100639714D02*
X120102380Y-100639714D01*
X120102380Y-101020666D01*
X120150000Y-101115904D01*
X120197619Y-101163523D01*
X120292857Y-101211142D01*
X120435714Y-101211142D01*
X120530952Y-101163523D01*
X120578571Y-101115904D01*
X120626190Y-101020666D01*
X120626190Y-100639714D01*
X121102380Y-102163523D02*
X121102380Y-101592095D01*
X121102380Y-101877809D02*
X120102380Y-101877809D01*
X120245238Y-101782571D01*
X120340476Y-101687333D01*
X120388095Y-101592095D01*
X120530952Y-102734952D02*
X120483333Y-102639714D01*
X120435714Y-102592095D01*
X120340476Y-102544476D01*
X120292857Y-102544476D01*
X120197619Y-102592095D01*
X120150000Y-102639714D01*
X120102380Y-102734952D01*
X120102380Y-102925428D01*
X120150000Y-103020666D01*
X120197619Y-103068285D01*
X120292857Y-103115904D01*
X120340476Y-103115904D01*
X120435714Y-103068285D01*
X120483333Y-103020666D01*
X120530952Y-102925428D01*
X120530952Y-102734952D01*
X120578571Y-102639714D01*
X120626190Y-102592095D01*
X120721428Y-102544476D01*
X120911904Y-102544476D01*
X121007142Y-102592095D01*
X121054761Y-102639714D01*
X121102380Y-102734952D01*
X121102380Y-102925428D01*
X121054761Y-103020666D01*
X121007142Y-103068285D01*
X120911904Y-103115904D01*
X120721428Y-103115904D01*
X120626190Y-103068285D01*
X120578571Y-103020666D01*
X120530952Y-102925428D01*
X133802380Y-101227142D02*
X133326190Y-100893809D01*
X133802380Y-100655714D02*
X132802380Y-100655714D01*
X132802380Y-101036666D01*
X132850000Y-101131904D01*
X132897619Y-101179523D01*
X132992857Y-101227142D01*
X133135714Y-101227142D01*
X133230952Y-101179523D01*
X133278571Y-101131904D01*
X133326190Y-101036666D01*
X133326190Y-100655714D01*
X133802380Y-102179523D02*
X133802380Y-101608095D01*
X133802380Y-101893809D02*
X132802380Y-101893809D01*
X132945238Y-101798571D01*
X133040476Y-101703333D01*
X133088095Y-101608095D01*
X133802380Y-102655714D02*
X133802380Y-102846190D01*
X133754761Y-102941428D01*
X133707142Y-102989047D01*
X133564285Y-103084285D01*
X133373809Y-103131904D01*
X132992857Y-103131904D01*
X132897619Y-103084285D01*
X132850000Y-103036666D01*
X132802380Y-102941428D01*
X132802380Y-102750952D01*
X132850000Y-102655714D01*
X132897619Y-102608095D01*
X132992857Y-102560476D01*
X133230952Y-102560476D01*
X133326190Y-102608095D01*
X133373809Y-102655714D01*
X133421428Y-102750952D01*
X133421428Y-102941428D01*
X133373809Y-103036666D01*
X133326190Y-103084285D01*
X133230952Y-103131904D01*
X136072619Y-102496857D02*
X136548809Y-102830190D01*
X136072619Y-103068285D02*
X137072619Y-103068285D01*
X137072619Y-102687333D01*
X137025000Y-102592095D01*
X136977380Y-102544476D01*
X136882142Y-102496857D01*
X136739285Y-102496857D01*
X136644047Y-102544476D01*
X136596428Y-102592095D01*
X136548809Y-102687333D01*
X136548809Y-103068285D01*
X136977380Y-102115904D02*
X137025000Y-102068285D01*
X137072619Y-101973047D01*
X137072619Y-101734952D01*
X137025000Y-101639714D01*
X136977380Y-101592095D01*
X136882142Y-101544476D01*
X136786904Y-101544476D01*
X136644047Y-101592095D01*
X136072619Y-102163523D01*
X136072619Y-101544476D01*
X137072619Y-100925428D02*
X137072619Y-100830190D01*
X137025000Y-100734952D01*
X136977380Y-100687333D01*
X136882142Y-100639714D01*
X136691666Y-100592095D01*
X136453571Y-100592095D01*
X136263095Y-100639714D01*
X136167857Y-100687333D01*
X136120238Y-100734952D01*
X136072619Y-100830190D01*
X136072619Y-100925428D01*
X136120238Y-101020666D01*
X136167857Y-101068285D01*
X136263095Y-101115904D01*
X136453571Y-101163523D01*
X136691666Y-101163523D01*
X136882142Y-101115904D01*
X136977380Y-101068285D01*
X137025000Y-101020666D01*
X137072619Y-100925428D01*
M02*
