M48
; DRILL file {KiCad 5.1.12-84ad8e8a86~92~ubuntu18.04.1} date Do 17 Jul 2025 12:35:55
; FORMAT={-:-/ absolute / metric / decimal}
; #@! TF.CreationDate,2025-07-17T12:35:55+02:00
; #@! TF.GenerationSoftware,Kicad,Pcbnew,5.1.12-84ad8e8a86~92~ubuntu18.04.1
; #@! TF.FileFunction,Plated,1,2,PTH
FMAT,2
METRIC
T1C0.400
T2C0.600
T3C0.762
T4C0.800
T5C0.900
T6C1.000
T7C1.400
T8C1.500
T9C1.700
T10C1.800
T11C2.800
%
G90
G05
T1
X95.885Y-118.872
X95.948Y-125.031
X96.076Y-138.875
X96.139Y-132.588
X97.75Y-71.75
X104.775Y-63.5
X116.205Y-63.5
X120.65Y-95.25
X125.0Y-93.0
X128.27Y-63.5
X133.35Y-95.25
X136.525Y-95.25
X137.795Y-128.27
X138.43Y-111.76
X139.7Y-63.5
X140.97Y-109.855
X140.97Y-111.76
X143.51Y-111.76
X146.05Y-111.76
X146.05Y-120.65
X148.59Y-111.76
X151.13Y-111.76
X151.13Y-119.38
X153.67Y-111.76
X156.21Y-111.76
X168.0Y-134.39
X168.0Y-136.46
X170.765Y-132.665
X190.5Y-60.96
X190.5Y-62.23
X190.5Y-63.5
X190.5Y-64.77
X190.5Y-66.04
X190.5Y-67.31
X190.5Y-68.58
X190.5Y-69.85
X192.786Y-73.152
X193.04Y-133.604
X194.818Y-114.808
X195.072Y-91.44
X196.088Y-92.71
X196.088Y-97.155
X196.088Y-116.84
X196.088Y-125.73
X202.692Y-114.808
X204.216Y-67.31
X204.216Y-106.045
X204.47Y-87.407
X204.724Y-103.505
X204.724Y-120.015
X204.724Y-122.555
X204.724Y-125.095
X204.724Y-127.635
X204.978Y-131.318
X205.232Y-64.77
X205.232Y-100.965
X205.74Y-98.425
X205.994Y-76.581
X205.994Y-79.121
X205.994Y-81.661
X205.994Y-84.201
X206.248Y-62.23
X208.788Y-59.69
X213.868Y-60.96
X216.154Y-63.5
X216.662Y-99.695
X217.17Y-66.04
X217.17Y-102.235
X217.297Y-121.285
X217.297Y-123.825
X217.297Y-126.365
X217.297Y-128.905
X217.424Y-77.851
X217.424Y-80.391
X217.424Y-82.931
X217.424Y-85.471
X217.678Y-104.775
X217.805Y-130.175
X218.186Y-68.58
X218.186Y-107.315
X220.218Y-132.08
X221.742Y-56.388
X221.996Y-58.42
X223.266Y-131.318
X223.67Y-92.73
X223.774Y-61.976
X226.822Y-128.778
X227.838Y-56.388
X228.01Y-92.69
X231.648Y-74.422
X231.648Y-75.692
X231.648Y-76.962
X231.648Y-78.232
X231.648Y-79.502
X231.648Y-80.772
X231.648Y-82.042
X231.648Y-83.312
X231.902Y-58.42
X231.902Y-59.69
X232.41Y-85.852
X232.41Y-130.556
X234.315Y-114.935
X234.95Y-81.915
X235.418Y-61.0
X235.458Y-62.23
X235.458Y-63.5
X235.458Y-64.77
X235.458Y-66.04
X235.458Y-67.31
X236.728Y-78.74
X236.728Y-102.108
X236.728Y-103.378
X236.728Y-104.648
X236.728Y-105.918
X236.728Y-107.188
X236.728Y-108.458
X236.728Y-109.728
X236.728Y-110.998
X236.728Y-113.792
X236.728Y-115.062
X236.728Y-116.332
X236.728Y-117.602
X236.728Y-118.872
X236.728Y-120.142
X236.728Y-121.412
X236.728Y-122.682
X236.855Y-56.515
X241.046Y-104.14
X241.046Y-106.68
X241.046Y-109.22
X241.046Y-111.76
X241.046Y-114.3
X241.046Y-116.84
X241.046Y-119.38
X241.3Y-71.12
X241.3Y-73.66
X241.3Y-76.2
X241.3Y-135.89
X241.3Y-138.43
T2
X92.075Y-52.705
X92.075Y-88.9
X92.075Y-101.6
X92.075Y-114.3
X92.075Y-142.24
X92.71Y-133.35
X95.885Y-60.325
X95.885Y-66.675
X95.885Y-74.295
X95.885Y-80.645
X101.5Y-129.0
X101.6Y-69.85
X101.6Y-82.55
X101.6Y-95.25
X101.6Y-107.95
X101.6Y-120.65
X101.6Y-125.73
X101.6Y-133.35
X101.6Y-146.05
X104.775Y-52.705
X110.49Y-58.42
X114.3Y-69.85
X114.3Y-82.55
X114.3Y-95.25
X114.3Y-107.95
X114.3Y-120.65
X114.3Y-133.35
X114.3Y-146.05
X116.205Y-52.705
X122.555Y-58.42
X127.0Y-69.85
X127.0Y-82.55
X127.0Y-107.95
X127.0Y-120.65
X127.0Y-133.35
X127.0Y-146.05
X128.27Y-52.705
X133.35Y-109.22
X133.985Y-58.42
X136.017Y-122.809
X136.017Y-127.889
X138.43Y-69.85
X139.7Y-133.35
X139.7Y-146.05
X140.97Y-120.65
X141.605Y-102.235
X142.24Y-82.55
X146.05Y-73.025
X146.685Y-58.42
X148.46Y-90.04
X150.495Y-64.77
X151.511Y-143.383
X151.765Y-109.22
X151.765Y-125.73
X151.765Y-130.81
X152.4Y-52.705
X152.4Y-82.55
X152.4Y-146.05
X153.416Y-140.843
X155.575Y-104.775
X156.21Y-120.65
X157.226Y-141.478
X158.115Y-58.42
X158.115Y-64.77
X158.115Y-73.66
X159.131Y-134.62
X161.66Y-139.63
X163.195Y-102.235
X163.322Y-132.842
X164.419Y-134.539
X165.1Y-82.55
X165.1Y-95.25
X165.1Y-130.175
X165.1Y-146.05
X166.78Y-139.63
X168.275Y-55.88
X169.545Y-60.96
X175.895Y-64.135
X175.895Y-139.7
X177.8Y-57.15
X177.8Y-133.35
X177.8Y-146.05
X180.975Y-60.96
X181.61Y-115.57
X189.23Y-93.98
X189.865Y-98.425
X190.5Y-109.855
X190.5Y-120.015
X190.5Y-133.35
X190.5Y-146.05
X191.53Y-91.46
X191.57Y-95.885
X195.58Y-146.05
X196.85Y-73.152
X196.85Y-95.885
X197.612Y-65.278
X198.882Y-125.73
X199.39Y-105.41
X200.66Y-116.205
X203.2Y-57.15
X203.2Y-73.152
X203.2Y-146.05
X205.74Y-96.52
X205.74Y-134.112
X209.55Y-139.7
X215.9Y-57.15
X215.9Y-146.05
X217.805Y-133.35
X218.186Y-87.63
X218.186Y-96.266
X218.694Y-73.66
X219.456Y-115.57
X226.314Y-134.874
X227.32Y-90.17
X228.6Y-146.05
X231.14Y-56.896
X234.315Y-69.85
X234.95Y-52.705
X234.95Y-95.25
X234.95Y-132.842
X234.95Y-135.89
X234.95Y-138.43
X234.95Y-141.224
X236.855Y-82.55
X241.3Y-57.15
X241.3Y-67.31
X241.3Y-82.55
X241.3Y-95.25
X241.3Y-124.46
X241.3Y-133.35
X241.3Y-146.05
X245.745Y-62.23
X245.745Y-69.85
X245.745Y-82.55
X245.745Y-107.95
X245.745Y-120.65
X245.745Y-133.35
X245.872Y-95.25
T3
X238.76Y-60.96
X238.76Y-63.5
X238.76Y-66.04
X238.76Y-68.58
X238.76Y-71.12
X238.76Y-73.66
X238.76Y-76.2
X238.76Y-78.74
X238.76Y-81.28
X238.76Y-83.82
X238.76Y-86.36
X238.76Y-88.9
X238.76Y-91.44
X238.76Y-93.98
X238.76Y-96.52
X238.76Y-99.06
X238.76Y-101.6
X238.76Y-104.14
X238.76Y-106.68
X238.76Y-109.22
X238.76Y-111.76
X238.76Y-114.3
X238.76Y-116.84
X238.76Y-119.38
X238.76Y-121.92
X238.76Y-124.46
X238.76Y-127.0
X238.76Y-129.54
X238.76Y-132.08
X238.76Y-134.62
X238.76Y-137.16
X238.76Y-139.7
X243.84Y-60.96
X243.84Y-63.5
X243.84Y-66.04
X243.84Y-68.58
X243.84Y-71.12
X243.84Y-73.66
X243.84Y-76.2
X243.84Y-78.74
X243.84Y-81.28
X243.84Y-83.82
X243.84Y-86.36
X243.84Y-88.9
X243.84Y-91.44
X243.84Y-93.98
X243.84Y-96.52
X243.84Y-99.06
X243.84Y-101.6
X243.84Y-104.14
X243.84Y-106.68
X243.84Y-109.22
X243.84Y-111.76
X243.84Y-114.3
X243.84Y-116.84
X243.84Y-119.38
X243.84Y-121.92
X243.84Y-124.46
X243.84Y-127.0
X243.84Y-129.54
X243.84Y-132.08
X243.84Y-134.62
X243.84Y-137.16
X243.84Y-139.7
T4
X150.495Y-58.42
X155.495Y-58.42
T5
X94.0Y-55.25
X94.0Y-57.79
X94.0Y-69.21
X94.0Y-71.75
X94.0Y-127.71
X94.0Y-130.25
T6
X120.015Y-144.065
X133.35Y-116.84
X135.89Y-116.84
X138.43Y-114.3
X138.43Y-116.84
X139.065Y-130.175
X140.97Y-114.3
X140.97Y-116.84
X142.875Y-68.58
X143.51Y-114.3
X143.51Y-116.84
X145.415Y-68.58
X146.05Y-114.3
X146.05Y-116.84
X147.955Y-68.58
X148.59Y-114.3
X148.59Y-116.84
X150.495Y-68.58
X151.13Y-114.3
X151.13Y-116.84
X153.0Y-58.42
X153.035Y-68.58
X153.035Y-71.12
X153.67Y-114.3
X153.67Y-116.84
X155.575Y-68.58
X155.575Y-71.12
X156.21Y-114.3
X156.21Y-116.84
X158.115Y-68.58
X158.115Y-71.12
X160.655Y-55.88
X160.655Y-60.325
X160.655Y-68.58
X160.655Y-71.12
X160.655Y-114.3
X160.655Y-116.84
X163.195Y-114.3
X163.195Y-116.84
X165.735Y-68.58
X165.735Y-71.12
X165.735Y-114.3
X165.735Y-116.84
X168.275Y-68.58
X168.275Y-71.12
X168.275Y-114.3
X168.275Y-116.84
X168.91Y-130.81
X170.815Y-68.58
X170.815Y-71.12
X170.815Y-114.3
X170.815Y-116.84
X173.355Y-68.58
X173.355Y-71.12
X173.355Y-114.3
X173.355Y-116.84
X175.895Y-68.58
X175.895Y-71.12
X175.895Y-114.3
X175.895Y-116.84
X178.435Y-68.58
X178.435Y-71.12
X178.435Y-91.44
X178.435Y-93.98
X178.435Y-96.52
X178.435Y-114.3
X178.435Y-116.84
X178.435Y-139.7
X180.975Y-91.44
X180.975Y-93.98
X180.975Y-96.52
X180.975Y-133.35
X180.975Y-139.7
X183.515Y-139.7
X191.77Y-139.7
X215.265Y-131.445
X234.95Y-84.455
X234.95Y-128.27
X238.76Y-54.61
T7
X199.47Y-139.7
X204.47Y-139.7
T8
X104.775Y-58.42
X116.205Y-58.42
X128.27Y-58.42
X139.7Y-58.42
T9
X102.235Y-55.88
X102.235Y-60.96
X107.315Y-55.88
X107.315Y-60.96
X113.665Y-55.88
X113.665Y-60.96
X118.745Y-55.88
X118.745Y-60.96
X125.73Y-55.88
X125.73Y-60.96
X130.81Y-55.88
X130.81Y-60.96
X137.16Y-55.88
X137.16Y-60.96
X142.24Y-55.88
X142.24Y-60.96
T10
X213.995Y-139.7
X217.955Y-139.7
X221.915Y-139.7
X225.875Y-139.7
X229.835Y-139.7
T11
X246.38Y-55.88
X246.38Y-144.78
T0
M30
