G04 #@! TF.GenerationSoftware,KiCad,Pcbnew,5.1.12-84ad8e8a86~92~ubuntu18.04.1*
G04 #@! TF.CreationDate,2025-07-17T12:35:45+02:00*
G04 #@! TF.ProjectId,FPGA_buffer_board,46504741-5f62-4756-9666-65725f626f61,1.1*
G04 #@! TF.SameCoordinates,Original*
G04 #@! TF.FileFunction,Legend,Top*
G04 #@! TF.FilePolarity,Positive*
%FSLAX46Y46*%
G04 Gerber Fmt 4.6, Leading zero omitted, Abs format (unit mm)*
G04 Created by KiCad (PCBNEW 5.1.12-84ad8e8a86~92~ubuntu18.04.1) date 2025-07-17 12:35:45*
%MOMM*%
%LPD*%
G01*
G04 APERTURE LIST*
%ADD10C,0.150000*%
%ADD11C,0.100000*%
%ADD12C,0.300000*%
%ADD13C,0.120000*%
G04 APERTURE END LIST*
D10*
X126771428Y-129504761D02*
X126914285Y-129552380D01*
X127152380Y-129552380D01*
X127247619Y-129504761D01*
X127295238Y-129457142D01*
X127342857Y-129361904D01*
X127342857Y-129266666D01*
X127295238Y-129171428D01*
X127247619Y-129123809D01*
X127152380Y-129076190D01*
X126961904Y-129028571D01*
X126866666Y-128980952D01*
X126819047Y-128933333D01*
X126771428Y-128838095D01*
X126771428Y-128742857D01*
X126819047Y-128647619D01*
X126866666Y-128600000D01*
X126961904Y-128552380D01*
X127200000Y-128552380D01*
X127342857Y-128600000D01*
X127961904Y-128552380D02*
X128152380Y-128552380D01*
X128247619Y-128600000D01*
X128342857Y-128695238D01*
X128390476Y-128885714D01*
X128390476Y-129219047D01*
X128342857Y-129409523D01*
X128247619Y-129504761D01*
X128152380Y-129552380D01*
X127961904Y-129552380D01*
X127866666Y-129504761D01*
X127771428Y-129409523D01*
X127723809Y-129219047D01*
X127723809Y-128885714D01*
X127771428Y-128695238D01*
X127866666Y-128600000D01*
X127961904Y-128552380D01*
X128819047Y-129552380D02*
X128819047Y-128552380D01*
X129866666Y-129457142D02*
X129819047Y-129504761D01*
X129676190Y-129552380D01*
X129580952Y-129552380D01*
X129438095Y-129504761D01*
X129342857Y-129409523D01*
X129295238Y-129314285D01*
X129247619Y-129123809D01*
X129247619Y-128980952D01*
X129295238Y-128790476D01*
X129342857Y-128695238D01*
X129438095Y-128600000D01*
X129580952Y-128552380D01*
X129676190Y-128552380D01*
X129819047Y-128600000D01*
X129866666Y-128647619D01*
X131009523Y-128504761D02*
X130152380Y-129790476D01*
X131200000Y-128552380D02*
X131771428Y-128552380D01*
X131485714Y-129552380D02*
X131485714Y-128552380D01*
X132057142Y-129504761D02*
X132200000Y-129552380D01*
X132438095Y-129552380D01*
X132533333Y-129504761D01*
X132580952Y-129457142D01*
X132628571Y-129361904D01*
X132628571Y-129266666D01*
X132580952Y-129171428D01*
X132533333Y-129123809D01*
X132438095Y-129076190D01*
X132247619Y-129028571D01*
X132152380Y-128980952D01*
X132104761Y-128933333D01*
X132057142Y-128838095D01*
X132057142Y-128742857D01*
X132104761Y-128647619D01*
X132152380Y-128600000D01*
X132247619Y-128552380D01*
X132485714Y-128552380D01*
X132628571Y-128600000D01*
X133009523Y-129504761D02*
X133152380Y-129552380D01*
X133390476Y-129552380D01*
X133485714Y-129504761D01*
X133533333Y-129457142D01*
X133580952Y-129361904D01*
X133580952Y-129266666D01*
X133533333Y-129171428D01*
X133485714Y-129123809D01*
X133390476Y-129076190D01*
X133200000Y-129028571D01*
X133104761Y-128980952D01*
X133057142Y-128933333D01*
X133009523Y-128838095D01*
X133009523Y-128742857D01*
X133057142Y-128647619D01*
X133104761Y-128600000D01*
X133200000Y-128552380D01*
X133438095Y-128552380D01*
X133580952Y-128600000D01*
X134200000Y-128552380D02*
X134390476Y-128552380D01*
X134485714Y-128600000D01*
X134580952Y-128695238D01*
X134628571Y-128885714D01*
X134628571Y-129219047D01*
X134580952Y-129409523D01*
X134485714Y-129504761D01*
X134390476Y-129552380D01*
X134200000Y-129552380D01*
X134104761Y-129504761D01*
X134009523Y-129409523D01*
X133961904Y-129219047D01*
X133961904Y-128885714D01*
X134009523Y-128695238D01*
X134104761Y-128600000D01*
X134200000Y-128552380D01*
X135057142Y-129552380D02*
X135057142Y-128552380D01*
X135438095Y-128552380D01*
X135533333Y-128600000D01*
X135580952Y-128647619D01*
X135628571Y-128742857D01*
X135628571Y-128885714D01*
X135580952Y-128980952D01*
X135533333Y-129028571D01*
X135438095Y-129076190D01*
X135057142Y-129076190D01*
X197014285Y-131932380D02*
X196919047Y-131884761D01*
X196871428Y-131789523D01*
X196871428Y-130932380D01*
X197823809Y-131932380D02*
X197823809Y-131408571D01*
X197776190Y-131313333D01*
X197680952Y-131265714D01*
X197490476Y-131265714D01*
X197395238Y-131313333D01*
X197823809Y-131884761D02*
X197728571Y-131932380D01*
X197490476Y-131932380D01*
X197395238Y-131884761D01*
X197347619Y-131789523D01*
X197347619Y-131694285D01*
X197395238Y-131599047D01*
X197490476Y-131551428D01*
X197728571Y-131551428D01*
X197823809Y-131503809D01*
X198157142Y-131265714D02*
X198538095Y-131265714D01*
X198300000Y-130932380D02*
X198300000Y-131789523D01*
X198347619Y-131884761D01*
X198442857Y-131932380D01*
X198538095Y-131932380D01*
X199014285Y-131932380D02*
X198919047Y-131884761D01*
X198871428Y-131837142D01*
X198823809Y-131741904D01*
X198823809Y-131456190D01*
X198871428Y-131360952D01*
X198919047Y-131313333D01*
X199014285Y-131265714D01*
X199157142Y-131265714D01*
X199252380Y-131313333D01*
X199300000Y-131360952D01*
X199347619Y-131456190D01*
X199347619Y-131741904D01*
X199300000Y-131837142D01*
X199252380Y-131884761D01*
X199157142Y-131932380D01*
X199014285Y-131932380D01*
X200395238Y-131265714D02*
X200776190Y-131265714D01*
X200538095Y-130932380D02*
X200538095Y-131789523D01*
X200585714Y-131884761D01*
X200680952Y-131932380D01*
X200776190Y-131932380D01*
X201490476Y-131884761D02*
X201395238Y-131932380D01*
X201204761Y-131932380D01*
X201109523Y-131884761D01*
X201061904Y-131789523D01*
X201061904Y-131408571D01*
X201109523Y-131313333D01*
X201204761Y-131265714D01*
X201395238Y-131265714D01*
X201490476Y-131313333D01*
X201538095Y-131408571D01*
X201538095Y-131503809D01*
X201061904Y-131599047D01*
X201966666Y-131932380D02*
X201966666Y-131265714D01*
X201966666Y-131456190D02*
X202014285Y-131360952D01*
X202061904Y-131313333D01*
X202157142Y-131265714D01*
X202252380Y-131265714D01*
X202585714Y-131932380D02*
X202585714Y-131265714D01*
X202585714Y-131360952D02*
X202633333Y-131313333D01*
X202728571Y-131265714D01*
X202871428Y-131265714D01*
X202966666Y-131313333D01*
X203014285Y-131408571D01*
X203014285Y-131932380D01*
X203014285Y-131408571D02*
X203061904Y-131313333D01*
X203157142Y-131265714D01*
X203300000Y-131265714D01*
X203395238Y-131313333D01*
X203442857Y-131408571D01*
X203442857Y-131932380D01*
X203919047Y-131932380D02*
X203919047Y-131265714D01*
X203919047Y-130932380D02*
X203871428Y-130980000D01*
X203919047Y-131027619D01*
X203966666Y-130980000D01*
X203919047Y-130932380D01*
X203919047Y-131027619D01*
X204395238Y-131265714D02*
X204395238Y-131932380D01*
X204395238Y-131360952D02*
X204442857Y-131313333D01*
X204538095Y-131265714D01*
X204680952Y-131265714D01*
X204776190Y-131313333D01*
X204823809Y-131408571D01*
X204823809Y-131932380D01*
X205728571Y-131932380D02*
X205728571Y-131408571D01*
X205680952Y-131313333D01*
X205585714Y-131265714D01*
X205395238Y-131265714D01*
X205300000Y-131313333D01*
X205728571Y-131884761D02*
X205633333Y-131932380D01*
X205395238Y-131932380D01*
X205300000Y-131884761D01*
X205252380Y-131789523D01*
X205252380Y-131694285D01*
X205300000Y-131599047D01*
X205395238Y-131551428D01*
X205633333Y-131551428D01*
X205728571Y-131503809D01*
X206347619Y-131932380D02*
X206252380Y-131884761D01*
X206204761Y-131789523D01*
X206204761Y-130932380D01*
X206728571Y-131932380D02*
X206728571Y-131265714D01*
X206728571Y-130932380D02*
X206680952Y-130980000D01*
X206728571Y-131027619D01*
X206776190Y-130980000D01*
X206728571Y-130932380D01*
X206728571Y-131027619D01*
X163068095Y-58555000D02*
X162972857Y-58507380D01*
X162830000Y-58507380D01*
X162687142Y-58555000D01*
X162591904Y-58650238D01*
X162544285Y-58745476D01*
X162496666Y-58935952D01*
X162496666Y-59078809D01*
X162544285Y-59269285D01*
X162591904Y-59364523D01*
X162687142Y-59459761D01*
X162830000Y-59507380D01*
X162925238Y-59507380D01*
X163068095Y-59459761D01*
X163115714Y-59412142D01*
X163115714Y-59078809D01*
X162925238Y-59078809D01*
X163544285Y-59507380D02*
X163544285Y-58507380D01*
X164115714Y-59507380D01*
X164115714Y-58507380D01*
X164591904Y-59507380D02*
X164591904Y-58507380D01*
X164830000Y-58507380D01*
X164972857Y-58555000D01*
X165068095Y-58650238D01*
X165115714Y-58745476D01*
X165163333Y-58935952D01*
X165163333Y-59078809D01*
X165115714Y-59269285D01*
X165068095Y-59364523D01*
X164972857Y-59459761D01*
X164830000Y-59507380D01*
X164591904Y-59507380D01*
X159178809Y-52792380D02*
X159797857Y-52792380D01*
X159464523Y-53173333D01*
X159607380Y-53173333D01*
X159702619Y-53220952D01*
X159750238Y-53268571D01*
X159797857Y-53363809D01*
X159797857Y-53601904D01*
X159750238Y-53697142D01*
X159702619Y-53744761D01*
X159607380Y-53792380D01*
X159321666Y-53792380D01*
X159226428Y-53744761D01*
X159178809Y-53697142D01*
X160226428Y-53697142D02*
X160274047Y-53744761D01*
X160226428Y-53792380D01*
X160178809Y-53744761D01*
X160226428Y-53697142D01*
X160226428Y-53792380D01*
X160607380Y-52792380D02*
X161226428Y-52792380D01*
X160893095Y-53173333D01*
X161035952Y-53173333D01*
X161131190Y-53220952D01*
X161178809Y-53268571D01*
X161226428Y-53363809D01*
X161226428Y-53601904D01*
X161178809Y-53697142D01*
X161131190Y-53744761D01*
X161035952Y-53792380D01*
X160750238Y-53792380D01*
X160655000Y-53744761D01*
X160607380Y-53697142D01*
X161512142Y-52792380D02*
X161845476Y-53792380D01*
X162178809Y-52792380D01*
X115443095Y-142375000D02*
X115347857Y-142327380D01*
X115205000Y-142327380D01*
X115062142Y-142375000D01*
X114966904Y-142470238D01*
X114919285Y-142565476D01*
X114871666Y-142755952D01*
X114871666Y-142898809D01*
X114919285Y-143089285D01*
X114966904Y-143184523D01*
X115062142Y-143279761D01*
X115205000Y-143327380D01*
X115300238Y-143327380D01*
X115443095Y-143279761D01*
X115490714Y-143232142D01*
X115490714Y-142898809D01*
X115300238Y-142898809D01*
X115919285Y-143327380D02*
X115919285Y-142327380D01*
X116490714Y-143327380D01*
X116490714Y-142327380D01*
X116966904Y-143327380D02*
X116966904Y-142327380D01*
X117205000Y-142327380D01*
X117347857Y-142375000D01*
X117443095Y-142470238D01*
X117490714Y-142565476D01*
X117538333Y-142755952D01*
X117538333Y-142898809D01*
X117490714Y-143089285D01*
X117443095Y-143184523D01*
X117347857Y-143279761D01*
X117205000Y-143327380D01*
X116966904Y-143327380D01*
X238545952Y-58189761D02*
X238641190Y-58237380D01*
X238831666Y-58237380D01*
X238926904Y-58189761D01*
X238974523Y-58094523D01*
X238974523Y-58046904D01*
X238926904Y-57951666D01*
X238831666Y-57904047D01*
X238688809Y-57904047D01*
X238593571Y-57856428D01*
X238545952Y-57761190D01*
X238545952Y-57713571D01*
X238593571Y-57618333D01*
X238688809Y-57570714D01*
X238831666Y-57570714D01*
X238926904Y-57618333D01*
X239260238Y-57570714D02*
X239641190Y-57570714D01*
X239403095Y-57237380D02*
X239403095Y-58094523D01*
X239450714Y-58189761D01*
X239545952Y-58237380D01*
X239641190Y-58237380D01*
X239974523Y-58237380D02*
X239974523Y-57570714D01*
X239974523Y-57761190D02*
X240022142Y-57665952D01*
X240069761Y-57618333D01*
X240165000Y-57570714D01*
X240260238Y-57570714D01*
X240593571Y-58237380D02*
X240593571Y-57237380D01*
X240593571Y-57618333D02*
X240688809Y-57570714D01*
X240879285Y-57570714D01*
X240974523Y-57618333D01*
X241022142Y-57665952D01*
X241069761Y-57761190D01*
X241069761Y-58046904D01*
X241022142Y-58142142D01*
X240974523Y-58189761D01*
X240879285Y-58237380D01*
X240688809Y-58237380D01*
X240593571Y-58189761D01*
X241260238Y-58332619D02*
X242022142Y-58332619D01*
X242784047Y-58237380D02*
X242212619Y-58237380D01*
X242498333Y-58237380D02*
X242498333Y-57237380D01*
X242403095Y-57380238D01*
X242307857Y-57475476D01*
X242212619Y-57523095D01*
X232830952Y-87399761D02*
X232926190Y-87447380D01*
X233116666Y-87447380D01*
X233211904Y-87399761D01*
X233259523Y-87304523D01*
X233259523Y-87256904D01*
X233211904Y-87161666D01*
X233116666Y-87114047D01*
X232973809Y-87114047D01*
X232878571Y-87066428D01*
X232830952Y-86971190D01*
X232830952Y-86923571D01*
X232878571Y-86828333D01*
X232973809Y-86780714D01*
X233116666Y-86780714D01*
X233211904Y-86828333D01*
X233545238Y-86780714D02*
X233926190Y-86780714D01*
X233688095Y-86447380D02*
X233688095Y-87304523D01*
X233735714Y-87399761D01*
X233830952Y-87447380D01*
X233926190Y-87447380D01*
X234259523Y-87447380D02*
X234259523Y-86780714D01*
X234259523Y-86971190D02*
X234307142Y-86875952D01*
X234354761Y-86828333D01*
X234450000Y-86780714D01*
X234545238Y-86780714D01*
X234878571Y-87447380D02*
X234878571Y-86447380D01*
X234878571Y-86828333D02*
X234973809Y-86780714D01*
X235164285Y-86780714D01*
X235259523Y-86828333D01*
X235307142Y-86875952D01*
X235354761Y-86971190D01*
X235354761Y-87256904D01*
X235307142Y-87352142D01*
X235259523Y-87399761D01*
X235164285Y-87447380D01*
X234973809Y-87447380D01*
X234878571Y-87399761D01*
X235545238Y-87542619D02*
X236307142Y-87542619D01*
X236735714Y-86447380D02*
X236830952Y-86447380D01*
X236926190Y-86495000D01*
X236973809Y-86542619D01*
X237021428Y-86637857D01*
X237069047Y-86828333D01*
X237069047Y-87066428D01*
X237021428Y-87256904D01*
X236973809Y-87352142D01*
X236926190Y-87399761D01*
X236830952Y-87447380D01*
X236735714Y-87447380D01*
X236640476Y-87399761D01*
X236592857Y-87352142D01*
X236545238Y-87256904D01*
X236497619Y-87066428D01*
X236497619Y-86828333D01*
X236545238Y-86637857D01*
X236592857Y-86542619D01*
X236640476Y-86495000D01*
X236735714Y-86447380D01*
X233759523Y-131262380D02*
X233759523Y-130262380D01*
X233997619Y-130262380D01*
X234140476Y-130310000D01*
X234235714Y-130405238D01*
X234283333Y-130500476D01*
X234330952Y-130690952D01*
X234330952Y-130833809D01*
X234283333Y-131024285D01*
X234235714Y-131119523D01*
X234140476Y-131214761D01*
X233997619Y-131262380D01*
X233759523Y-131262380D01*
X234759523Y-131262380D02*
X234759523Y-130262380D01*
X234759523Y-130643333D02*
X234854761Y-130595714D01*
X235045238Y-130595714D01*
X235140476Y-130643333D01*
X235188095Y-130690952D01*
X235235714Y-130786190D01*
X235235714Y-131071904D01*
X235188095Y-131167142D01*
X235140476Y-131214761D01*
X235045238Y-131262380D01*
X234854761Y-131262380D01*
X234759523Y-131214761D01*
X235854761Y-130262380D02*
X235950000Y-130262380D01*
X236045238Y-130310000D01*
X236092857Y-130357619D01*
X236140476Y-130452857D01*
X236188095Y-130643333D01*
X236188095Y-130881428D01*
X236140476Y-131071904D01*
X236092857Y-131167142D01*
X236045238Y-131214761D01*
X235950000Y-131262380D01*
X235854761Y-131262380D01*
X235759523Y-131214761D01*
X235711904Y-131167142D01*
X235664285Y-131071904D01*
X235616666Y-130881428D01*
X235616666Y-130643333D01*
X235664285Y-130452857D01*
X235711904Y-130357619D01*
X235759523Y-130310000D01*
X235854761Y-130262380D01*
X210899523Y-131897380D02*
X210899523Y-130897380D01*
X211137619Y-130897380D01*
X211280476Y-130945000D01*
X211375714Y-131040238D01*
X211423333Y-131135476D01*
X211470952Y-131325952D01*
X211470952Y-131468809D01*
X211423333Y-131659285D01*
X211375714Y-131754523D01*
X211280476Y-131849761D01*
X211137619Y-131897380D01*
X210899523Y-131897380D01*
X211899523Y-131897380D02*
X211899523Y-130897380D01*
X211899523Y-131278333D02*
X211994761Y-131230714D01*
X212185238Y-131230714D01*
X212280476Y-131278333D01*
X212328095Y-131325952D01*
X212375714Y-131421190D01*
X212375714Y-131706904D01*
X212328095Y-131802142D01*
X212280476Y-131849761D01*
X212185238Y-131897380D01*
X211994761Y-131897380D01*
X211899523Y-131849761D01*
X213328095Y-131897380D02*
X212756666Y-131897380D01*
X213042380Y-131897380D02*
X213042380Y-130897380D01*
X212947142Y-131040238D01*
X212851904Y-131135476D01*
X212756666Y-131183095D01*
X142145000Y-130579761D02*
X142049761Y-130627380D01*
X141859285Y-130627380D01*
X141764047Y-130579761D01*
X141716428Y-130532142D01*
X141668809Y-130436904D01*
X141668809Y-130151190D01*
X141716428Y-130055952D01*
X141764047Y-130008333D01*
X141859285Y-129960714D01*
X142049761Y-129960714D01*
X142145000Y-130008333D01*
X142716428Y-130627380D02*
X142621190Y-130579761D01*
X142573571Y-130484523D01*
X142573571Y-129627380D01*
X143097380Y-130627380D02*
X143097380Y-129627380D01*
X143192619Y-130246428D02*
X143478333Y-130627380D01*
X143478333Y-129960714D02*
X143097380Y-130341666D01*
X143668809Y-130722619D02*
X144430714Y-130722619D01*
X144811666Y-130627380D02*
X144716428Y-130579761D01*
X144668809Y-130532142D01*
X144621190Y-130436904D01*
X144621190Y-130151190D01*
X144668809Y-130055952D01*
X144716428Y-130008333D01*
X144811666Y-129960714D01*
X144954523Y-129960714D01*
X145049761Y-130008333D01*
X145097380Y-130055952D01*
X145145000Y-130151190D01*
X145145000Y-130436904D01*
X145097380Y-130532142D01*
X145049761Y-130579761D01*
X144954523Y-130627380D01*
X144811666Y-130627380D01*
X146002142Y-129960714D02*
X146002142Y-130627380D01*
X145573571Y-129960714D02*
X145573571Y-130484523D01*
X145621190Y-130579761D01*
X145716428Y-130627380D01*
X145859285Y-130627380D01*
X145954523Y-130579761D01*
X146002142Y-130532142D01*
X146335476Y-129960714D02*
X146716428Y-129960714D01*
X146478333Y-129627380D02*
X146478333Y-130484523D01*
X146525952Y-130579761D01*
X146621190Y-130627380D01*
X146716428Y-130627380D01*
X167370000Y-128644761D02*
X167274761Y-128692380D01*
X167084285Y-128692380D01*
X166989047Y-128644761D01*
X166941428Y-128597142D01*
X166893809Y-128501904D01*
X166893809Y-128216190D01*
X166941428Y-128120952D01*
X166989047Y-128073333D01*
X167084285Y-128025714D01*
X167274761Y-128025714D01*
X167370000Y-128073333D01*
X167941428Y-128692380D02*
X167846190Y-128644761D01*
X167798571Y-128549523D01*
X167798571Y-127692380D01*
X168322380Y-128692380D02*
X168322380Y-127692380D01*
X168417619Y-128311428D02*
X168703333Y-128692380D01*
X168703333Y-128025714D02*
X168322380Y-128406666D01*
X168893809Y-128787619D02*
X169655714Y-128787619D01*
X169893809Y-128692380D02*
X169893809Y-128025714D01*
X169893809Y-127692380D02*
X169846190Y-127740000D01*
X169893809Y-127787619D01*
X169941428Y-127740000D01*
X169893809Y-127692380D01*
X169893809Y-127787619D01*
X170370000Y-128025714D02*
X170370000Y-128692380D01*
X170370000Y-128120952D02*
X170417619Y-128073333D01*
X170512857Y-128025714D01*
X170655714Y-128025714D01*
X170750952Y-128073333D01*
X170798571Y-128168571D01*
X170798571Y-128692380D01*
X184023095Y-132850000D02*
X183927857Y-132802380D01*
X183785000Y-132802380D01*
X183642142Y-132850000D01*
X183546904Y-132945238D01*
X183499285Y-133040476D01*
X183451666Y-133230952D01*
X183451666Y-133373809D01*
X183499285Y-133564285D01*
X183546904Y-133659523D01*
X183642142Y-133754761D01*
X183785000Y-133802380D01*
X183880238Y-133802380D01*
X184023095Y-133754761D01*
X184070714Y-133707142D01*
X184070714Y-133373809D01*
X183880238Y-133373809D01*
X184499285Y-133802380D02*
X184499285Y-132802380D01*
X185070714Y-133802380D01*
X185070714Y-132802380D01*
X185546904Y-133802380D02*
X185546904Y-132802380D01*
X185785000Y-132802380D01*
X185927857Y-132850000D01*
X186023095Y-132945238D01*
X186070714Y-133040476D01*
X186118333Y-133230952D01*
X186118333Y-133373809D01*
X186070714Y-133564285D01*
X186023095Y-133659523D01*
X185927857Y-133754761D01*
X185785000Y-133802380D01*
X185546904Y-133802380D01*
X138390476Y-63952380D02*
X138390476Y-63285714D01*
X138390476Y-62952380D02*
X138342857Y-63000000D01*
X138390476Y-63047619D01*
X138438095Y-63000000D01*
X138390476Y-62952380D01*
X138390476Y-63047619D01*
X138866666Y-63285714D02*
X138866666Y-63952380D01*
X138866666Y-63380952D02*
X138914285Y-63333333D01*
X139009523Y-63285714D01*
X139152380Y-63285714D01*
X139247619Y-63333333D01*
X139295238Y-63428571D01*
X139295238Y-63952380D01*
X139533333Y-64047619D02*
X140295238Y-64047619D01*
X140485714Y-63047619D02*
X140533333Y-63000000D01*
X140628571Y-62952380D01*
X140866666Y-62952380D01*
X140961904Y-63000000D01*
X141009523Y-63047619D01*
X141057142Y-63142857D01*
X141057142Y-63238095D01*
X141009523Y-63380952D01*
X140438095Y-63952380D01*
X141057142Y-63952380D01*
X126960476Y-63952380D02*
X126960476Y-63285714D01*
X126960476Y-62952380D02*
X126912857Y-63000000D01*
X126960476Y-63047619D01*
X127008095Y-63000000D01*
X126960476Y-62952380D01*
X126960476Y-63047619D01*
X127436666Y-63285714D02*
X127436666Y-63952380D01*
X127436666Y-63380952D02*
X127484285Y-63333333D01*
X127579523Y-63285714D01*
X127722380Y-63285714D01*
X127817619Y-63333333D01*
X127865238Y-63428571D01*
X127865238Y-63952380D01*
X128103333Y-64047619D02*
X128865238Y-64047619D01*
X129627142Y-63952380D02*
X129055714Y-63952380D01*
X129341428Y-63952380D02*
X129341428Y-62952380D01*
X129246190Y-63095238D01*
X129150952Y-63190476D01*
X129055714Y-63238095D01*
X114538333Y-63952380D02*
X114443095Y-63904761D01*
X114395476Y-63857142D01*
X114347857Y-63761904D01*
X114347857Y-63476190D01*
X114395476Y-63380952D01*
X114443095Y-63333333D01*
X114538333Y-63285714D01*
X114681190Y-63285714D01*
X114776428Y-63333333D01*
X114824047Y-63380952D01*
X114871666Y-63476190D01*
X114871666Y-63761904D01*
X114824047Y-63857142D01*
X114776428Y-63904761D01*
X114681190Y-63952380D01*
X114538333Y-63952380D01*
X115728809Y-63285714D02*
X115728809Y-63952380D01*
X115300238Y-63285714D02*
X115300238Y-63809523D01*
X115347857Y-63904761D01*
X115443095Y-63952380D01*
X115585952Y-63952380D01*
X115681190Y-63904761D01*
X115728809Y-63857142D01*
X116062142Y-63285714D02*
X116443095Y-63285714D01*
X116205000Y-62952380D02*
X116205000Y-63809523D01*
X116252619Y-63904761D01*
X116347857Y-63952380D01*
X116443095Y-63952380D01*
X116538333Y-64047619D02*
X117300238Y-64047619D01*
X117490714Y-63047619D02*
X117538333Y-63000000D01*
X117633571Y-62952380D01*
X117871666Y-62952380D01*
X117966904Y-63000000D01*
X118014523Y-63047619D01*
X118062142Y-63142857D01*
X118062142Y-63238095D01*
X118014523Y-63380952D01*
X117443095Y-63952380D01*
X118062142Y-63952380D01*
X97904761Y-131464285D02*
X97952380Y-131559523D01*
X97952380Y-131750000D01*
X97904761Y-131845238D01*
X97809523Y-131892857D01*
X97428571Y-131892857D01*
X97333333Y-131845238D01*
X97285714Y-131750000D01*
X97285714Y-131559523D01*
X97333333Y-131464285D01*
X97428571Y-131416666D01*
X97523809Y-131416666D01*
X97619047Y-131892857D01*
X97952380Y-131083333D02*
X97285714Y-130559523D01*
X97285714Y-131083333D02*
X97952380Y-130559523D01*
X97285714Y-130321428D02*
X97285714Y-129940476D01*
X96952380Y-130178571D02*
X97809523Y-130178571D01*
X97904761Y-130130952D01*
X97952380Y-130035714D01*
X97952380Y-129940476D01*
X97857142Y-129607142D02*
X97904761Y-129559523D01*
X97952380Y-129607142D01*
X97904761Y-129654761D01*
X97857142Y-129607142D01*
X97952380Y-129607142D01*
X97904761Y-128702380D02*
X97952380Y-128797619D01*
X97952380Y-128988095D01*
X97904761Y-129083333D01*
X97857142Y-129130952D01*
X97761904Y-129178571D01*
X97476190Y-129178571D01*
X97380952Y-129130952D01*
X97333333Y-129083333D01*
X97285714Y-128988095D01*
X97285714Y-128797619D01*
X97333333Y-128702380D01*
X97952380Y-128130952D02*
X97904761Y-128226190D01*
X97809523Y-128273809D01*
X96952380Y-128273809D01*
X97952380Y-127607142D02*
X97904761Y-127702380D01*
X97857142Y-127750000D01*
X97761904Y-127797619D01*
X97476190Y-127797619D01*
X97380952Y-127750000D01*
X97333333Y-127702380D01*
X97285714Y-127607142D01*
X97285714Y-127464285D01*
X97333333Y-127369047D01*
X97380952Y-127321428D01*
X97476190Y-127273809D01*
X97761904Y-127273809D01*
X97857142Y-127321428D01*
X97904761Y-127369047D01*
X97952380Y-127464285D01*
X97952380Y-127607142D01*
X97904761Y-126416666D02*
X97952380Y-126511904D01*
X97952380Y-126702380D01*
X97904761Y-126797619D01*
X97857142Y-126845238D01*
X97761904Y-126892857D01*
X97476190Y-126892857D01*
X97380952Y-126845238D01*
X97333333Y-126797619D01*
X97285714Y-126702380D01*
X97285714Y-126511904D01*
X97333333Y-126416666D01*
X97952380Y-125988095D02*
X96952380Y-125988095D01*
X97571428Y-125892857D02*
X97952380Y-125607142D01*
X97285714Y-125607142D02*
X97666666Y-125988095D01*
X97702380Y-70976190D02*
X97654761Y-71071428D01*
X97607142Y-71119047D01*
X97511904Y-71166666D01*
X97226190Y-71166666D01*
X97130952Y-71119047D01*
X97083333Y-71071428D01*
X97035714Y-70976190D01*
X97035714Y-70833333D01*
X97083333Y-70738095D01*
X97130952Y-70690476D01*
X97226190Y-70642857D01*
X97511904Y-70642857D01*
X97607142Y-70690476D01*
X97654761Y-70738095D01*
X97702380Y-70833333D01*
X97702380Y-70976190D01*
X97702380Y-70214285D02*
X96702380Y-70214285D01*
X97321428Y-70119047D02*
X97702380Y-69833333D01*
X97035714Y-69833333D02*
X97416666Y-70214285D01*
X97654761Y-57690476D02*
X97702380Y-57785714D01*
X97702380Y-57976190D01*
X97654761Y-58071428D01*
X97559523Y-58119047D01*
X97178571Y-58119047D01*
X97083333Y-58071428D01*
X97035714Y-57976190D01*
X97035714Y-57785714D01*
X97083333Y-57690476D01*
X97178571Y-57642857D01*
X97273809Y-57642857D01*
X97369047Y-58119047D01*
X97702380Y-57214285D02*
X97035714Y-57214285D01*
X97226190Y-57214285D02*
X97130952Y-57166666D01*
X97083333Y-57119047D01*
X97035714Y-57023809D01*
X97035714Y-56928571D01*
X97702380Y-56595238D02*
X97035714Y-56595238D01*
X97226190Y-56595238D02*
X97130952Y-56547619D01*
X97083333Y-56500000D01*
X97035714Y-56404761D01*
X97035714Y-56309523D01*
X97702380Y-55833333D02*
X97654761Y-55928571D01*
X97607142Y-55976190D01*
X97511904Y-56023809D01*
X97226190Y-56023809D01*
X97130952Y-55976190D01*
X97083333Y-55928571D01*
X97035714Y-55833333D01*
X97035714Y-55690476D01*
X97083333Y-55595238D01*
X97130952Y-55547619D01*
X97226190Y-55500000D01*
X97511904Y-55500000D01*
X97607142Y-55547619D01*
X97654761Y-55595238D01*
X97702380Y-55690476D01*
X97702380Y-55833333D01*
X97702380Y-55071428D02*
X97035714Y-55071428D01*
X97226190Y-55071428D02*
X97130952Y-55023809D01*
X97083333Y-54976190D01*
X97035714Y-54880952D01*
X97035714Y-54785714D01*
X95440476Y-65442380D02*
X95440476Y-64775714D01*
X95440476Y-64442380D02*
X95392857Y-64490000D01*
X95440476Y-64537619D01*
X95488095Y-64490000D01*
X95440476Y-64442380D01*
X95440476Y-64537619D01*
X95916666Y-64775714D02*
X95916666Y-65442380D01*
X95916666Y-64870952D02*
X95964285Y-64823333D01*
X96059523Y-64775714D01*
X96202380Y-64775714D01*
X96297619Y-64823333D01*
X96345238Y-64918571D01*
X96345238Y-65442380D01*
X96583333Y-65537619D02*
X97345238Y-65537619D01*
X97773809Y-64442380D02*
X97869047Y-64442380D01*
X97964285Y-64490000D01*
X98011904Y-64537619D01*
X98059523Y-64632857D01*
X98107142Y-64823333D01*
X98107142Y-65061428D01*
X98059523Y-65251904D01*
X98011904Y-65347142D01*
X97964285Y-65394761D01*
X97869047Y-65442380D01*
X97773809Y-65442380D01*
X97678571Y-65394761D01*
X97630952Y-65347142D01*
X97583333Y-65251904D01*
X97535714Y-65061428D01*
X97535714Y-64823333D01*
X97583333Y-64632857D01*
X97630952Y-64537619D01*
X97678571Y-64490000D01*
X97773809Y-64442380D01*
X208788095Y-139200000D02*
X208692857Y-139152380D01*
X208550000Y-139152380D01*
X208407142Y-139200000D01*
X208311904Y-139295238D01*
X208264285Y-139390476D01*
X208216666Y-139580952D01*
X208216666Y-139723809D01*
X208264285Y-139914285D01*
X208311904Y-140009523D01*
X208407142Y-140104761D01*
X208550000Y-140152380D01*
X208645238Y-140152380D01*
X208788095Y-140104761D01*
X208835714Y-140057142D01*
X208835714Y-139723809D01*
X208645238Y-139723809D01*
X209264285Y-140152380D02*
X209264285Y-139152380D01*
X209835714Y-140152380D01*
X209835714Y-139152380D01*
X210311904Y-140152380D02*
X210311904Y-139152380D01*
X210550000Y-139152380D01*
X210692857Y-139200000D01*
X210788095Y-139295238D01*
X210835714Y-139390476D01*
X210883333Y-139580952D01*
X210883333Y-139723809D01*
X210835714Y-139914285D01*
X210788095Y-140009523D01*
X210692857Y-140104761D01*
X210550000Y-140152380D01*
X210311904Y-140152380D01*
X195021428Y-141245714D02*
X195021428Y-140483809D01*
X195402380Y-140864761D02*
X194640476Y-140864761D01*
X194402380Y-139531428D02*
X194402380Y-140007619D01*
X194878571Y-140055238D01*
X194830952Y-140007619D01*
X194783333Y-139912380D01*
X194783333Y-139674285D01*
X194830952Y-139579047D01*
X194878571Y-139531428D01*
X194973809Y-139483809D01*
X195211904Y-139483809D01*
X195307142Y-139531428D01*
X195354761Y-139579047D01*
X195402380Y-139674285D01*
X195402380Y-139912380D01*
X195354761Y-140007619D01*
X195307142Y-140055238D01*
X194402380Y-139198095D02*
X195402380Y-138864761D01*
X194402380Y-138531428D01*
D11*
G36*
X218694000Y-96520000D02*
G01*
X216154000Y-97790000D01*
X216154000Y-95250000D01*
X218694000Y-96520000D01*
G37*
X218694000Y-96520000D02*
X216154000Y-97790000D01*
X216154000Y-95250000D01*
X218694000Y-96520000D01*
X218928190Y-97722380D02*
X219285333Y-97722380D01*
X219356761Y-97746190D01*
X219404380Y-97793809D01*
X219428190Y-97865238D01*
X219428190Y-97912857D01*
X219428190Y-97222380D02*
X219428190Y-97508095D01*
X219428190Y-97365238D02*
X218928190Y-97365238D01*
X218999619Y-97412857D01*
X219047238Y-97460476D01*
X219071047Y-97508095D01*
X218928190Y-97055714D02*
X218928190Y-96722380D01*
X219428190Y-96936666D01*
X219428190Y-96150952D02*
X218928190Y-96150952D01*
X219237714Y-96103333D02*
X219428190Y-95960476D01*
X219094857Y-95960476D02*
X219285333Y-96150952D01*
X219404380Y-95555714D02*
X219428190Y-95603333D01*
X219428190Y-95698571D01*
X219404380Y-95746190D01*
X219356761Y-95770000D01*
X219166285Y-95770000D01*
X219118666Y-95746190D01*
X219094857Y-95698571D01*
X219094857Y-95603333D01*
X219118666Y-95555714D01*
X219166285Y-95531904D01*
X219213904Y-95531904D01*
X219261523Y-95770000D01*
X219094857Y-95365238D02*
X219428190Y-95246190D01*
X219094857Y-95127142D02*
X219428190Y-95246190D01*
X219547238Y-95293809D01*
X219571047Y-95317619D01*
X219594857Y-95365238D01*
X232644190Y-97722380D02*
X233001333Y-97722380D01*
X233072761Y-97746190D01*
X233120380Y-97793809D01*
X233144190Y-97865238D01*
X233144190Y-97912857D01*
X233144190Y-97222380D02*
X233144190Y-97508095D01*
X233144190Y-97365238D02*
X232644190Y-97365238D01*
X232715619Y-97412857D01*
X232763238Y-97460476D01*
X232787047Y-97508095D01*
X232644190Y-96770000D02*
X232644190Y-97008095D01*
X232882285Y-97031904D01*
X232858476Y-97008095D01*
X232834666Y-96960476D01*
X232834666Y-96841428D01*
X232858476Y-96793809D01*
X232882285Y-96770000D01*
X232929904Y-96746190D01*
X233048952Y-96746190D01*
X233096571Y-96770000D01*
X233120380Y-96793809D01*
X233144190Y-96841428D01*
X233144190Y-96960476D01*
X233120380Y-97008095D01*
X233096571Y-97031904D01*
X233144190Y-96150952D02*
X232644190Y-96150952D01*
X232953714Y-96103333D02*
X233144190Y-95960476D01*
X232810857Y-95960476D02*
X233001333Y-96150952D01*
X233120380Y-95555714D02*
X233144190Y-95603333D01*
X233144190Y-95698571D01*
X233120380Y-95746190D01*
X233072761Y-95770000D01*
X232882285Y-95770000D01*
X232834666Y-95746190D01*
X232810857Y-95698571D01*
X232810857Y-95603333D01*
X232834666Y-95555714D01*
X232882285Y-95531904D01*
X232929904Y-95531904D01*
X232977523Y-95770000D01*
X232810857Y-95365238D02*
X233144190Y-95246190D01*
X232810857Y-95127142D02*
X233144190Y-95246190D01*
X233263238Y-95293809D01*
X233287047Y-95317619D01*
X233310857Y-95365238D01*
G36*
X232410000Y-96520000D02*
G01*
X229870000Y-97790000D01*
X229870000Y-95250000D01*
X232410000Y-96520000D01*
G37*
X232410000Y-96520000D02*
X229870000Y-97790000D01*
X229870000Y-95250000D01*
X232410000Y-96520000D01*
D10*
X95683333Y-79152380D02*
X95588095Y-79104761D01*
X95540476Y-79057142D01*
X95492857Y-78961904D01*
X95492857Y-78676190D01*
X95540476Y-78580952D01*
X95588095Y-78533333D01*
X95683333Y-78485714D01*
X95826190Y-78485714D01*
X95921428Y-78533333D01*
X95969047Y-78580952D01*
X96016666Y-78676190D01*
X96016666Y-78961904D01*
X95969047Y-79057142D01*
X95921428Y-79104761D01*
X95826190Y-79152380D01*
X95683333Y-79152380D01*
X96873809Y-78485714D02*
X96873809Y-79152380D01*
X96445238Y-78485714D02*
X96445238Y-79009523D01*
X96492857Y-79104761D01*
X96588095Y-79152380D01*
X96730952Y-79152380D01*
X96826190Y-79104761D01*
X96873809Y-79057142D01*
X97207142Y-78485714D02*
X97588095Y-78485714D01*
X97350000Y-78152380D02*
X97350000Y-79009523D01*
X97397619Y-79104761D01*
X97492857Y-79152380D01*
X97588095Y-79152380D01*
X97683333Y-79247619D02*
X98445238Y-79247619D01*
X98873809Y-78152380D02*
X98969047Y-78152380D01*
X99064285Y-78200000D01*
X99111904Y-78247619D01*
X99159523Y-78342857D01*
X99207142Y-78533333D01*
X99207142Y-78771428D01*
X99159523Y-78961904D01*
X99111904Y-79057142D01*
X99064285Y-79104761D01*
X98969047Y-79152380D01*
X98873809Y-79152380D01*
X98778571Y-79104761D01*
X98730952Y-79057142D01*
X98683333Y-78961904D01*
X98635714Y-78771428D01*
X98635714Y-78533333D01*
X98683333Y-78342857D01*
X98730952Y-78247619D01*
X98778571Y-78200000D01*
X98873809Y-78152380D01*
X103108333Y-63952380D02*
X103013095Y-63904761D01*
X102965476Y-63857142D01*
X102917857Y-63761904D01*
X102917857Y-63476190D01*
X102965476Y-63380952D01*
X103013095Y-63333333D01*
X103108333Y-63285714D01*
X103251190Y-63285714D01*
X103346428Y-63333333D01*
X103394047Y-63380952D01*
X103441666Y-63476190D01*
X103441666Y-63761904D01*
X103394047Y-63857142D01*
X103346428Y-63904761D01*
X103251190Y-63952380D01*
X103108333Y-63952380D01*
X104298809Y-63285714D02*
X104298809Y-63952380D01*
X103870238Y-63285714D02*
X103870238Y-63809523D01*
X103917857Y-63904761D01*
X104013095Y-63952380D01*
X104155952Y-63952380D01*
X104251190Y-63904761D01*
X104298809Y-63857142D01*
X104632142Y-63285714D02*
X105013095Y-63285714D01*
X104775000Y-62952380D02*
X104775000Y-63809523D01*
X104822619Y-63904761D01*
X104917857Y-63952380D01*
X105013095Y-63952380D01*
X105108333Y-64047619D02*
X105870238Y-64047619D01*
X106632142Y-63952380D02*
X106060714Y-63952380D01*
X106346428Y-63952380D02*
X106346428Y-62952380D01*
X106251190Y-63095238D01*
X106155952Y-63190476D01*
X106060714Y-63238095D01*
X97703047Y-122324761D02*
X97607809Y-122372380D01*
X97417333Y-122372380D01*
X97322095Y-122324761D01*
X97274476Y-122277142D01*
X97226857Y-122181904D01*
X97226857Y-121896190D01*
X97274476Y-121800952D01*
X97322095Y-121753333D01*
X97417333Y-121705714D01*
X97607809Y-121705714D01*
X97703047Y-121753333D01*
X98274476Y-122372380D02*
X98179238Y-122324761D01*
X98131619Y-122229523D01*
X98131619Y-121372380D01*
X98798285Y-122372380D02*
X98703047Y-122324761D01*
X98655428Y-122277142D01*
X98607809Y-122181904D01*
X98607809Y-121896190D01*
X98655428Y-121800952D01*
X98703047Y-121753333D01*
X98798285Y-121705714D01*
X98941142Y-121705714D01*
X99036380Y-121753333D01*
X99084000Y-121800952D01*
X99131619Y-121896190D01*
X99131619Y-122181904D01*
X99084000Y-122277142D01*
X99036380Y-122324761D01*
X98941142Y-122372380D01*
X98798285Y-122372380D01*
X99988761Y-122324761D02*
X99893523Y-122372380D01*
X99703047Y-122372380D01*
X99607809Y-122324761D01*
X99560190Y-122277142D01*
X99512571Y-122181904D01*
X99512571Y-121896190D01*
X99560190Y-121800952D01*
X99607809Y-121753333D01*
X99703047Y-121705714D01*
X99893523Y-121705714D01*
X99988761Y-121753333D01*
X100417333Y-122372380D02*
X100417333Y-121372380D01*
X100512571Y-121991428D02*
X100798285Y-122372380D01*
X100798285Y-121705714D02*
X100417333Y-122086666D01*
X102131619Y-122372380D02*
X102036380Y-122324761D01*
X101988761Y-122277142D01*
X101941142Y-122181904D01*
X101941142Y-121896190D01*
X101988761Y-121800952D01*
X102036380Y-121753333D01*
X102131619Y-121705714D01*
X102274476Y-121705714D01*
X102369714Y-121753333D01*
X102417333Y-121800952D01*
X102464952Y-121896190D01*
X102464952Y-122181904D01*
X102417333Y-122277142D01*
X102369714Y-122324761D01*
X102274476Y-122372380D01*
X102131619Y-122372380D01*
X103322095Y-121705714D02*
X103322095Y-122372380D01*
X102893523Y-121705714D02*
X102893523Y-122229523D01*
X102941142Y-122324761D01*
X103036380Y-122372380D01*
X103179238Y-122372380D01*
X103274476Y-122324761D01*
X103322095Y-122277142D01*
X103655428Y-121705714D02*
X104036380Y-121705714D01*
X103798285Y-121372380D02*
X103798285Y-122229523D01*
X103845904Y-122324761D01*
X103941142Y-122372380D01*
X104036380Y-122372380D01*
X97619047Y-136404761D02*
X97523809Y-136452380D01*
X97333333Y-136452380D01*
X97238095Y-136404761D01*
X97190476Y-136357142D01*
X97142857Y-136261904D01*
X97142857Y-135976190D01*
X97190476Y-135880952D01*
X97238095Y-135833333D01*
X97333333Y-135785714D01*
X97523809Y-135785714D01*
X97619047Y-135833333D01*
X98190476Y-136452380D02*
X98095238Y-136404761D01*
X98047619Y-136309523D01*
X98047619Y-135452380D01*
X98714285Y-136452380D02*
X98619047Y-136404761D01*
X98571428Y-136357142D01*
X98523809Y-136261904D01*
X98523809Y-135976190D01*
X98571428Y-135880952D01*
X98619047Y-135833333D01*
X98714285Y-135785714D01*
X98857142Y-135785714D01*
X98952380Y-135833333D01*
X99000000Y-135880952D01*
X99047619Y-135976190D01*
X99047619Y-136261904D01*
X99000000Y-136357142D01*
X98952380Y-136404761D01*
X98857142Y-136452380D01*
X98714285Y-136452380D01*
X99904761Y-136404761D02*
X99809523Y-136452380D01*
X99619047Y-136452380D01*
X99523809Y-136404761D01*
X99476190Y-136357142D01*
X99428571Y-136261904D01*
X99428571Y-135976190D01*
X99476190Y-135880952D01*
X99523809Y-135833333D01*
X99619047Y-135785714D01*
X99809523Y-135785714D01*
X99904761Y-135833333D01*
X100333333Y-136452380D02*
X100333333Y-135452380D01*
X100428571Y-136071428D02*
X100714285Y-136452380D01*
X100714285Y-135785714D02*
X100333333Y-136166666D01*
X101904761Y-136452380D02*
X101904761Y-135785714D01*
X101904761Y-135452380D02*
X101857142Y-135500000D01*
X101904761Y-135547619D01*
X101952380Y-135500000D01*
X101904761Y-135452380D01*
X101904761Y-135547619D01*
X102380952Y-135785714D02*
X102380952Y-136452380D01*
X102380952Y-135880952D02*
X102428571Y-135833333D01*
X102523809Y-135785714D01*
X102666666Y-135785714D01*
X102761904Y-135833333D01*
X102809523Y-135928571D01*
X102809523Y-136452380D01*
D12*
X95150714Y-107671428D02*
X95222142Y-107742857D01*
X95293571Y-107957142D01*
X95293571Y-108100000D01*
X95222142Y-108314285D01*
X95079285Y-108457142D01*
X94936428Y-108528571D01*
X94650714Y-108600000D01*
X94436428Y-108600000D01*
X94150714Y-108528571D01*
X94007857Y-108457142D01*
X93865000Y-108314285D01*
X93793571Y-108100000D01*
X93793571Y-107957142D01*
X93865000Y-107742857D01*
X93936428Y-107671428D01*
X95293571Y-106814285D02*
X95222142Y-106957142D01*
X95150714Y-107028571D01*
X95007857Y-107100000D01*
X94579285Y-107100000D01*
X94436428Y-107028571D01*
X94365000Y-106957142D01*
X94293571Y-106814285D01*
X94293571Y-106600000D01*
X94365000Y-106457142D01*
X94436428Y-106385714D01*
X94579285Y-106314285D01*
X95007857Y-106314285D01*
X95150714Y-106385714D01*
X95222142Y-106457142D01*
X95293571Y-106600000D01*
X95293571Y-106814285D01*
X95293571Y-105671428D02*
X94293571Y-105671428D01*
X94579285Y-105671428D02*
X94436428Y-105600000D01*
X94365000Y-105528571D01*
X94293571Y-105385714D01*
X94293571Y-105242857D01*
X95293571Y-104100000D02*
X94507857Y-104100000D01*
X94365000Y-104171428D01*
X94293571Y-104314285D01*
X94293571Y-104600000D01*
X94365000Y-104742857D01*
X95222142Y-104100000D02*
X95293571Y-104242857D01*
X95293571Y-104600000D01*
X95222142Y-104742857D01*
X95079285Y-104814285D01*
X94936428Y-104814285D01*
X94793571Y-104742857D01*
X94722142Y-104600000D01*
X94722142Y-104242857D01*
X94650714Y-104100000D01*
X94722142Y-103385714D02*
X94722142Y-102242857D01*
X93793571Y-101671428D02*
X93793571Y-100671428D01*
X95293571Y-101671428D01*
X95293571Y-100671428D01*
X93793571Y-100242857D02*
X93793571Y-99242857D01*
X95293571Y-99885714D01*
X94722142Y-98671428D02*
X94722142Y-97528571D01*
X95293571Y-96028571D02*
X95293571Y-96885714D01*
X95293571Y-96457142D02*
X93793571Y-96457142D01*
X94007857Y-96600000D01*
X94150714Y-96742857D01*
X94222142Y-96885714D01*
X93793571Y-95100000D02*
X93793571Y-94957142D01*
X93865000Y-94814285D01*
X93936428Y-94742857D01*
X94079285Y-94671428D01*
X94365000Y-94600000D01*
X94722142Y-94600000D01*
X95007857Y-94671428D01*
X95150714Y-94742857D01*
X95222142Y-94814285D01*
X95293571Y-94957142D01*
X95293571Y-95100000D01*
X95222142Y-95242857D01*
X95150714Y-95314285D01*
X95007857Y-95385714D01*
X94722142Y-95457142D01*
X94365000Y-95457142D01*
X94079285Y-95385714D01*
X93936428Y-95314285D01*
X93865000Y-95242857D01*
X93793571Y-95100000D01*
D13*
X231895000Y-134790000D02*
X231895000Y-141810000D01*
X231895000Y-141810000D02*
X230695000Y-141810000D01*
X230695000Y-141810000D02*
X230695000Y-143510000D01*
X230695000Y-143510000D02*
X213135000Y-143510000D01*
X213135000Y-143510000D02*
X213135000Y-141810000D01*
X213135000Y-141810000D02*
X211935000Y-141810000D01*
X211935000Y-141810000D02*
X211935000Y-134790000D01*
X211935000Y-134790000D02*
X231895000Y-134790000D01*
X232095000Y-139700000D02*
X232695000Y-139400000D01*
X232695000Y-139400000D02*
X232695000Y-140000000D01*
X232695000Y-140000000D02*
X232095000Y-139700000D01*
X88930000Y-130540000D02*
G75*
G02*
X88930000Y-127420000I0J1560000D01*
G01*
X92920000Y-130250000D02*
X92920000Y-130250000D01*
X92790000Y-130250000D02*
X92920000Y-130250000D01*
X92790000Y-130250000D02*
X92790000Y-130250000D01*
X92920000Y-130250000D02*
X92790000Y-130250000D01*
X92920000Y-127710000D02*
X92920000Y-127710000D01*
X92790000Y-127710000D02*
X92920000Y-127710000D01*
X92790000Y-127710000D02*
X92790000Y-127710000D01*
X92920000Y-127710000D02*
X92790000Y-127710000D01*
X92790000Y-130540000D02*
X92790000Y-130940000D01*
X91670000Y-130540000D02*
X92790000Y-130540000D01*
X91670000Y-130940000D02*
X91670000Y-130540000D01*
X92790000Y-130940000D02*
X91670000Y-130940000D01*
X92790000Y-127420000D02*
X92790000Y-130540000D01*
X92790000Y-130540000D02*
X88930000Y-130540000D01*
X92790000Y-127420000D02*
X88930000Y-127420000D01*
X88930000Y-72040000D02*
G75*
G02*
X88930000Y-68920000I0J1560000D01*
G01*
X92920000Y-71750000D02*
X92920000Y-71750000D01*
X92790000Y-71750000D02*
X92920000Y-71750000D01*
X92790000Y-71750000D02*
X92790000Y-71750000D01*
X92920000Y-71750000D02*
X92790000Y-71750000D01*
X92920000Y-69210000D02*
X92920000Y-69210000D01*
X92790000Y-69210000D02*
X92920000Y-69210000D01*
X92790000Y-69210000D02*
X92790000Y-69210000D01*
X92920000Y-69210000D02*
X92790000Y-69210000D01*
X92790000Y-72040000D02*
X92790000Y-72440000D01*
X91670000Y-72040000D02*
X92790000Y-72040000D01*
X91670000Y-72440000D02*
X91670000Y-72040000D01*
X92790000Y-72440000D02*
X91670000Y-72440000D01*
X92790000Y-68920000D02*
X92790000Y-72040000D01*
X92790000Y-72040000D02*
X88930000Y-72040000D01*
X92790000Y-68920000D02*
X88930000Y-68920000D01*
X88930000Y-58080000D02*
G75*
G02*
X88930000Y-54960000I0J1560000D01*
G01*
X92920000Y-57790000D02*
X92920000Y-57790000D01*
X92790000Y-57790000D02*
X92920000Y-57790000D01*
X92790000Y-57790000D02*
X92790000Y-57790000D01*
X92920000Y-57790000D02*
X92790000Y-57790000D01*
X92920000Y-55250000D02*
X92920000Y-55250000D01*
X92790000Y-55250000D02*
X92920000Y-55250000D01*
X92790000Y-55250000D02*
X92790000Y-55250000D01*
X92920000Y-55250000D02*
X92790000Y-55250000D01*
X92790000Y-58080000D02*
X92790000Y-58480000D01*
X91670000Y-58080000D02*
X92790000Y-58080000D01*
X91670000Y-58480000D02*
X91670000Y-58080000D01*
X92790000Y-58480000D02*
X91670000Y-58480000D01*
X92790000Y-54960000D02*
X92790000Y-58080000D01*
X92790000Y-58080000D02*
X88930000Y-58080000D01*
X92790000Y-54960000D02*
X88930000Y-54960000D01*
X151670000Y-59750000D02*
X154330000Y-59750000D01*
X151670000Y-59690000D02*
X151670000Y-59750000D01*
X154330000Y-59690000D02*
X154330000Y-59750000D01*
X151670000Y-59690000D02*
X154330000Y-59690000D01*
X151670000Y-58420000D02*
X151670000Y-57090000D01*
X151670000Y-57090000D02*
X153000000Y-57090000D01*
X131555000Y-123851000D02*
X136381000Y-123851000D01*
X136381000Y-123851000D02*
X136381000Y-126899000D01*
X136381000Y-126899000D02*
X131555000Y-126899000D01*
X131555000Y-126899000D02*
X131555000Y-123851000D01*
X128126000Y-122835000D02*
X134222000Y-122835000D01*
X134222000Y-122835000D02*
X134222000Y-127915000D01*
X134222000Y-127915000D02*
X128126000Y-127915000D01*
X128126000Y-127915000D02*
X128126000Y-122835000D01*
D10*
X160110000Y-138655000D02*
X163110000Y-138655000D01*
X161610000Y-135405000D02*
X163110000Y-135405000D01*
D13*
X179765000Y-67250000D02*
X179765000Y-69850000D01*
X179765000Y-67250000D02*
X164405000Y-67250000D01*
X164405000Y-67250000D02*
X164405000Y-72450000D01*
X177165000Y-72450000D02*
X164405000Y-72450000D01*
X177165000Y-69850000D02*
X177165000Y-72450000D01*
X179765000Y-69850000D02*
X177165000Y-69850000D01*
X179765000Y-72450000D02*
X178435000Y-72450000D01*
X179765000Y-71120000D02*
X179765000Y-72450000D01*
X201975000Y-87120000D02*
X201975000Y-88140000D01*
X196775000Y-87120000D02*
X196775000Y-88140000D01*
X201975000Y-84580000D02*
X201975000Y-85600000D01*
X196775000Y-84580000D02*
X196775000Y-85600000D01*
X201975000Y-82040000D02*
X201975000Y-83060000D01*
X196775000Y-82040000D02*
X196775000Y-83060000D01*
X201975000Y-79500000D02*
X201975000Y-80520000D01*
X196775000Y-79500000D02*
X196775000Y-80520000D01*
X201975000Y-76960000D02*
X201975000Y-77980000D01*
X196775000Y-76960000D02*
X196775000Y-77980000D01*
X201975000Y-89660000D02*
X201975000Y-90230000D01*
X196775000Y-89660000D02*
X196775000Y-90230000D01*
X201975000Y-74870000D02*
X201975000Y-75440000D01*
X196775000Y-74870000D02*
X196775000Y-75440000D01*
X195335000Y-75440000D02*
X196775000Y-75440000D01*
X196775000Y-90230000D02*
X201975000Y-90230000D01*
X196775000Y-74870000D02*
X201975000Y-74870000D01*
X161474000Y-131642000D02*
X161174000Y-131342000D01*
X161774000Y-131342000D02*
X161174000Y-131342000D01*
X161474000Y-131642000D02*
X161774000Y-131342000D01*
X162324000Y-132542000D02*
X162324000Y-133142000D01*
X158874000Y-131842000D02*
X161674000Y-131842000D01*
X158224000Y-133142000D02*
X158224000Y-132542000D01*
X161674000Y-133842000D02*
X158874000Y-133842000D01*
X158924000Y-133842000D02*
G75*
G02*
X158224000Y-133142000I0J700000D01*
G01*
X158224000Y-132542000D02*
G75*
G02*
X158924000Y-131842000I700000J0D01*
G01*
X161624000Y-131842000D02*
G75*
G02*
X162324000Y-132542000I0J-700000D01*
G01*
X162324000Y-133142000D02*
G75*
G02*
X161624000Y-133842000I-700000J0D01*
G01*
X157115000Y-58420000D02*
G75*
G03*
X157115000Y-58420000I-4120000J0D01*
G01*
X152995000Y-54340000D02*
X152995000Y-62500000D01*
X153035000Y-54340000D02*
X153035000Y-62500000D01*
X153075000Y-54340000D02*
X153075000Y-62500000D01*
X153115000Y-54341000D02*
X153115000Y-62499000D01*
X153155000Y-54343000D02*
X153155000Y-62497000D01*
X153195000Y-54344000D02*
X153195000Y-62496000D01*
X153235000Y-54346000D02*
X153235000Y-62494000D01*
X153275000Y-54349000D02*
X153275000Y-62491000D01*
X153315000Y-54352000D02*
X153315000Y-62488000D01*
X153355000Y-54355000D02*
X153355000Y-62485000D01*
X153395000Y-54359000D02*
X153395000Y-62481000D01*
X153435000Y-54363000D02*
X153435000Y-62477000D01*
X153475000Y-54368000D02*
X153475000Y-62472000D01*
X153515000Y-54372000D02*
X153515000Y-62468000D01*
X153555000Y-54378000D02*
X153555000Y-62462000D01*
X153595000Y-54383000D02*
X153595000Y-62457000D01*
X153635000Y-54390000D02*
X153635000Y-62450000D01*
X153675000Y-54396000D02*
X153675000Y-62444000D01*
X153716000Y-54403000D02*
X153716000Y-62437000D01*
X153756000Y-54410000D02*
X153756000Y-62430000D01*
X153796000Y-54418000D02*
X153796000Y-62422000D01*
X153836000Y-54426000D02*
X153836000Y-62414000D01*
X153876000Y-54435000D02*
X153876000Y-62405000D01*
X153916000Y-54444000D02*
X153916000Y-62396000D01*
X153956000Y-54453000D02*
X153956000Y-62387000D01*
X153996000Y-54463000D02*
X153996000Y-62377000D01*
X154036000Y-54473000D02*
X154036000Y-62367000D01*
X154076000Y-54484000D02*
X154076000Y-62356000D01*
X154116000Y-54495000D02*
X154116000Y-62345000D01*
X154156000Y-54506000D02*
X154156000Y-62334000D01*
X154196000Y-54518000D02*
X154196000Y-62322000D01*
X154236000Y-54531000D02*
X154236000Y-62309000D01*
X154276000Y-54543000D02*
X154276000Y-62297000D01*
X154316000Y-54557000D02*
X154316000Y-62283000D01*
X154356000Y-54570000D02*
X154356000Y-62270000D01*
X154396000Y-54585000D02*
X154396000Y-62255000D01*
X154436000Y-54599000D02*
X154436000Y-62241000D01*
X154476000Y-54615000D02*
X154476000Y-57380000D01*
X154476000Y-59460000D02*
X154476000Y-62225000D01*
X154516000Y-54630000D02*
X154516000Y-57380000D01*
X154516000Y-59460000D02*
X154516000Y-62210000D01*
X154556000Y-54646000D02*
X154556000Y-57380000D01*
X154556000Y-59460000D02*
X154556000Y-62194000D01*
X154596000Y-54663000D02*
X154596000Y-57380000D01*
X154596000Y-59460000D02*
X154596000Y-62177000D01*
X154636000Y-54680000D02*
X154636000Y-57380000D01*
X154636000Y-59460000D02*
X154636000Y-62160000D01*
X154676000Y-54698000D02*
X154676000Y-57380000D01*
X154676000Y-59460000D02*
X154676000Y-62142000D01*
X154716000Y-54716000D02*
X154716000Y-57380000D01*
X154716000Y-59460000D02*
X154716000Y-62124000D01*
X154756000Y-54734000D02*
X154756000Y-57380000D01*
X154756000Y-59460000D02*
X154756000Y-62106000D01*
X154796000Y-54754000D02*
X154796000Y-57380000D01*
X154796000Y-59460000D02*
X154796000Y-62086000D01*
X154836000Y-54773000D02*
X154836000Y-57380000D01*
X154836000Y-59460000D02*
X154836000Y-62067000D01*
X154876000Y-54793000D02*
X154876000Y-57380000D01*
X154876000Y-59460000D02*
X154876000Y-62047000D01*
X154916000Y-54814000D02*
X154916000Y-57380000D01*
X154916000Y-59460000D02*
X154916000Y-62026000D01*
X154956000Y-54836000D02*
X154956000Y-57380000D01*
X154956000Y-59460000D02*
X154956000Y-62004000D01*
X154996000Y-54858000D02*
X154996000Y-57380000D01*
X154996000Y-59460000D02*
X154996000Y-61982000D01*
X155036000Y-54880000D02*
X155036000Y-57380000D01*
X155036000Y-59460000D02*
X155036000Y-61960000D01*
X155076000Y-54903000D02*
X155076000Y-57380000D01*
X155076000Y-59460000D02*
X155076000Y-61937000D01*
X155116000Y-54927000D02*
X155116000Y-57380000D01*
X155116000Y-59460000D02*
X155116000Y-61913000D01*
X155156000Y-54951000D02*
X155156000Y-57380000D01*
X155156000Y-59460000D02*
X155156000Y-61889000D01*
X155196000Y-54976000D02*
X155196000Y-57380000D01*
X155196000Y-59460000D02*
X155196000Y-61864000D01*
X155236000Y-55002000D02*
X155236000Y-57380000D01*
X155236000Y-59460000D02*
X155236000Y-61838000D01*
X155276000Y-55028000D02*
X155276000Y-57380000D01*
X155276000Y-59460000D02*
X155276000Y-61812000D01*
X155316000Y-55055000D02*
X155316000Y-57380000D01*
X155316000Y-59460000D02*
X155316000Y-61785000D01*
X155356000Y-55082000D02*
X155356000Y-57380000D01*
X155356000Y-59460000D02*
X155356000Y-61758000D01*
X155396000Y-55111000D02*
X155396000Y-57380000D01*
X155396000Y-59460000D02*
X155396000Y-61729000D01*
X155436000Y-55140000D02*
X155436000Y-57380000D01*
X155436000Y-59460000D02*
X155436000Y-61700000D01*
X155476000Y-55170000D02*
X155476000Y-57380000D01*
X155476000Y-59460000D02*
X155476000Y-61670000D01*
X155516000Y-55200000D02*
X155516000Y-57380000D01*
X155516000Y-59460000D02*
X155516000Y-61640000D01*
X155556000Y-55231000D02*
X155556000Y-57380000D01*
X155556000Y-59460000D02*
X155556000Y-61609000D01*
X155596000Y-55264000D02*
X155596000Y-57380000D01*
X155596000Y-59460000D02*
X155596000Y-61576000D01*
X155636000Y-55296000D02*
X155636000Y-57380000D01*
X155636000Y-59460000D02*
X155636000Y-61544000D01*
X155676000Y-55330000D02*
X155676000Y-57380000D01*
X155676000Y-59460000D02*
X155676000Y-61510000D01*
X155716000Y-55365000D02*
X155716000Y-57380000D01*
X155716000Y-59460000D02*
X155716000Y-61475000D01*
X155756000Y-55401000D02*
X155756000Y-57380000D01*
X155756000Y-59460000D02*
X155756000Y-61439000D01*
X155796000Y-55437000D02*
X155796000Y-57380000D01*
X155796000Y-59460000D02*
X155796000Y-61403000D01*
X155836000Y-55475000D02*
X155836000Y-57380000D01*
X155836000Y-59460000D02*
X155836000Y-61365000D01*
X155876000Y-55513000D02*
X155876000Y-57380000D01*
X155876000Y-59460000D02*
X155876000Y-61327000D01*
X155916000Y-55553000D02*
X155916000Y-57380000D01*
X155916000Y-59460000D02*
X155916000Y-61287000D01*
X155956000Y-55594000D02*
X155956000Y-57380000D01*
X155956000Y-59460000D02*
X155956000Y-61246000D01*
X155996000Y-55636000D02*
X155996000Y-57380000D01*
X155996000Y-59460000D02*
X155996000Y-61204000D01*
X156036000Y-55679000D02*
X156036000Y-57380000D01*
X156036000Y-59460000D02*
X156036000Y-61161000D01*
X156076000Y-55723000D02*
X156076000Y-57380000D01*
X156076000Y-59460000D02*
X156076000Y-61117000D01*
X156116000Y-55769000D02*
X156116000Y-57380000D01*
X156116000Y-59460000D02*
X156116000Y-61071000D01*
X156156000Y-55816000D02*
X156156000Y-57380000D01*
X156156000Y-59460000D02*
X156156000Y-61024000D01*
X156196000Y-55864000D02*
X156196000Y-57380000D01*
X156196000Y-59460000D02*
X156196000Y-60976000D01*
X156236000Y-55915000D02*
X156236000Y-57380000D01*
X156236000Y-59460000D02*
X156236000Y-60925000D01*
X156276000Y-55966000D02*
X156276000Y-57380000D01*
X156276000Y-59460000D02*
X156276000Y-60874000D01*
X156316000Y-56020000D02*
X156316000Y-57380000D01*
X156316000Y-59460000D02*
X156316000Y-60820000D01*
X156356000Y-56075000D02*
X156356000Y-57380000D01*
X156356000Y-59460000D02*
X156356000Y-60765000D01*
X156396000Y-56133000D02*
X156396000Y-57380000D01*
X156396000Y-59460000D02*
X156396000Y-60707000D01*
X156436000Y-56192000D02*
X156436000Y-57380000D01*
X156436000Y-59460000D02*
X156436000Y-60648000D01*
X156476000Y-56254000D02*
X156476000Y-57380000D01*
X156476000Y-59460000D02*
X156476000Y-60586000D01*
X156516000Y-56318000D02*
X156516000Y-57380000D01*
X156516000Y-59460000D02*
X156516000Y-60522000D01*
X156556000Y-56386000D02*
X156556000Y-60454000D01*
X156596000Y-56456000D02*
X156596000Y-60384000D01*
X156636000Y-56530000D02*
X156636000Y-60310000D01*
X156676000Y-56607000D02*
X156676000Y-60233000D01*
X156716000Y-56689000D02*
X156716000Y-60151000D01*
X156756000Y-56775000D02*
X156756000Y-60065000D01*
X156796000Y-56868000D02*
X156796000Y-59972000D01*
X156836000Y-56967000D02*
X156836000Y-59873000D01*
X156876000Y-57074000D02*
X156876000Y-59766000D01*
X156916000Y-57191000D02*
X156916000Y-59649000D01*
X156956000Y-57322000D02*
X156956000Y-59518000D01*
X156996000Y-57472000D02*
X156996000Y-59368000D01*
X157036000Y-57652000D02*
X157036000Y-59188000D01*
X157076000Y-57887000D02*
X157076000Y-58953000D01*
X148585302Y-56105000D02*
X149385302Y-56105000D01*
X148985302Y-55705000D02*
X148985302Y-56505000D01*
X161801000Y-142478000D02*
X159001000Y-142478000D01*
X158351000Y-141778000D02*
X158351000Y-141178000D01*
X159001000Y-140478000D02*
X161801000Y-140478000D01*
X162451000Y-141178000D02*
X162451000Y-141778000D01*
X161601000Y-140278000D02*
X161901000Y-139978000D01*
X161901000Y-139978000D02*
X161301000Y-139978000D01*
X161601000Y-140278000D02*
X161301000Y-139978000D01*
X162451000Y-141778000D02*
G75*
G02*
X161751000Y-142478000I-700000J0D01*
G01*
X161751000Y-140478000D02*
G75*
G02*
X162451000Y-141178000I0J-700000D01*
G01*
X158351000Y-141178000D02*
G75*
G02*
X159051000Y-140478000I700000J0D01*
G01*
X159051000Y-142478000D02*
G75*
G02*
X158351000Y-141778000I0J700000D01*
G01*
X164281000Y-142678000D02*
X164581000Y-142978000D01*
X163981000Y-142978000D02*
X164581000Y-142978000D01*
X164281000Y-142678000D02*
X163981000Y-142978000D01*
X163431000Y-141778000D02*
X163431000Y-141178000D01*
X166881000Y-142478000D02*
X164081000Y-142478000D01*
X167531000Y-141178000D02*
X167531000Y-141778000D01*
X164081000Y-140478000D02*
X166881000Y-140478000D01*
X166831000Y-140478000D02*
G75*
G02*
X167531000Y-141178000I0J-700000D01*
G01*
X167531000Y-141778000D02*
G75*
G02*
X166831000Y-142478000I-700000J0D01*
G01*
X164131000Y-142478000D02*
G75*
G02*
X163431000Y-141778000I0J700000D01*
G01*
X163431000Y-141178000D02*
G75*
G02*
X164131000Y-140478000I700000J0D01*
G01*
X138119000Y-123895000D02*
X137819000Y-124195000D01*
X137819000Y-123595000D02*
X137819000Y-124195000D01*
X138119000Y-123895000D02*
X137819000Y-123595000D01*
X139019000Y-123045000D02*
X139619000Y-123045000D01*
X138319000Y-126495000D02*
X138319000Y-123695000D01*
X139619000Y-127145000D02*
X139019000Y-127145000D01*
X140319000Y-123695000D02*
X140319000Y-126495000D01*
X140319000Y-126445000D02*
G75*
G02*
X139619000Y-127145000I-700000J0D01*
G01*
X139019000Y-127145000D02*
G75*
G02*
X138319000Y-126445000I0J700000D01*
G01*
X138319000Y-123745000D02*
G75*
G02*
X139019000Y-123045000I700000J0D01*
G01*
X139619000Y-123045000D02*
G75*
G02*
X140319000Y-123745000I0J-700000D01*
G01*
X177105000Y-138370000D02*
X177105000Y-141030000D01*
X182245000Y-138370000D02*
X177105000Y-138370000D01*
X182245000Y-141030000D02*
X177105000Y-141030000D01*
X182245000Y-138370000D02*
X182245000Y-141030000D01*
X183515000Y-138370000D02*
X184845000Y-138370000D01*
X184845000Y-138370000D02*
X184845000Y-139700000D01*
X156410000Y-63260000D02*
X152025000Y-63260000D01*
X152025000Y-63260000D02*
X152025000Y-66280000D01*
X152025000Y-66280000D02*
X156410000Y-66280000D01*
X196775000Y-97730000D02*
X201975000Y-97730000D01*
X196775000Y-113090000D02*
X201975000Y-113090000D01*
X195335000Y-98300000D02*
X196775000Y-98300000D01*
X196775000Y-97730000D02*
X196775000Y-98300000D01*
X201975000Y-97730000D02*
X201975000Y-98300000D01*
X196775000Y-112520000D02*
X196775000Y-113090000D01*
X201975000Y-112520000D02*
X201975000Y-113090000D01*
X196775000Y-99820000D02*
X196775000Y-100840000D01*
X201975000Y-99820000D02*
X201975000Y-100840000D01*
X196775000Y-102360000D02*
X196775000Y-103380000D01*
X201975000Y-102360000D02*
X201975000Y-103380000D01*
X196775000Y-104900000D02*
X196775000Y-105920000D01*
X201975000Y-104900000D02*
X201975000Y-105920000D01*
X196775000Y-107440000D02*
X196775000Y-108460000D01*
X201975000Y-107440000D02*
X201975000Y-108460000D01*
X196775000Y-109980000D02*
X196775000Y-111000000D01*
X201975000Y-109980000D02*
X201975000Y-111000000D01*
X95785000Y-135640000D02*
X95285000Y-135890000D01*
X95785000Y-136140000D02*
X95785000Y-135640000D01*
X95285000Y-135890000D02*
X95785000Y-136140000D01*
X95285000Y-121920000D02*
X95785000Y-122170000D01*
X95785000Y-122170000D02*
X95785000Y-121670000D01*
X95785000Y-121670000D02*
X95285000Y-121920000D01*
X196670000Y-144000000D02*
X198670000Y-144000000D01*
X196670000Y-141760000D02*
X196670000Y-144000000D01*
X203170000Y-140783000D02*
X203120000Y-140833000D01*
X205603000Y-138350000D02*
X205578000Y-138374000D01*
X203362000Y-141025000D02*
X203338000Y-141050000D01*
X205820000Y-138567000D02*
X205771000Y-138617000D01*
X207030000Y-133140000D02*
X207030000Y-143760000D01*
X196910000Y-133140000D02*
X196910000Y-143760000D01*
X196910000Y-143760000D02*
X207030000Y-143760000D01*
X196910000Y-133140000D02*
X207030000Y-133140000D01*
X196910000Y-136700000D02*
X207030000Y-136700000D01*
X196910000Y-137700000D02*
X207030000Y-137700000D01*
X196910000Y-141700000D02*
X207030000Y-141700000D01*
X206250000Y-139700000D02*
G75*
G03*
X206250000Y-139700000I-1780000J0D01*
G01*
X200165501Y-141338499D02*
G75*
G02*
X199470000Y-141480000I-695501J1638499D01*
G01*
X201109205Y-139004484D02*
G75*
G02*
X201109000Y-140396000I-1639205J-695516D01*
G01*
X198774484Y-138060795D02*
G75*
G02*
X200166000Y-138061000I695516J-1639205D01*
G01*
X197830795Y-140395516D02*
G75*
G02*
X197831000Y-139004000I1639205J695516D01*
G01*
X199500814Y-141480389D02*
G75*
G02*
X198774000Y-141339000I-30814J1780389D01*
G01*
X232934000Y-75060000D02*
X232934000Y-72260000D01*
X233634000Y-71610000D02*
X234234000Y-71610000D01*
X234934000Y-72260000D02*
X234934000Y-75060000D01*
X234234000Y-75710000D02*
X233634000Y-75710000D01*
X235134000Y-74860000D02*
X235434000Y-75160000D01*
X235434000Y-75160000D02*
X235434000Y-74560000D01*
X235134000Y-74860000D02*
X235434000Y-74560000D01*
X232934000Y-72310000D02*
G75*
G02*
X233634000Y-71610000I700000J0D01*
G01*
X234234000Y-71610000D02*
G75*
G02*
X234934000Y-72310000I0J-700000D01*
G01*
X234934000Y-75010000D02*
G75*
G02*
X234234000Y-75710000I-700000J0D01*
G01*
X233634000Y-75710000D02*
G75*
G02*
X232934000Y-75010000I0J700000D01*
G01*
X157612267Y-135253000D02*
X157319733Y-135253000D01*
X157612267Y-136273000D02*
X157319733Y-136273000D01*
X157612267Y-138813000D02*
X157319733Y-138813000D01*
X157612267Y-137793000D02*
X157319733Y-137793000D01*
X222205000Y-67820000D02*
X222205000Y-66800000D01*
X227405000Y-67820000D02*
X227405000Y-66800000D01*
X222205000Y-70360000D02*
X222205000Y-69340000D01*
X227405000Y-70360000D02*
X227405000Y-69340000D01*
X222205000Y-72900000D02*
X222205000Y-71880000D01*
X227405000Y-72900000D02*
X227405000Y-71880000D01*
X222205000Y-75440000D02*
X222205000Y-74420000D01*
X227405000Y-75440000D02*
X227405000Y-74420000D01*
X222205000Y-77980000D02*
X222205000Y-76960000D01*
X227405000Y-77980000D02*
X227405000Y-76960000D01*
X222205000Y-80520000D02*
X222205000Y-79500000D01*
X227405000Y-80520000D02*
X227405000Y-79500000D01*
X222205000Y-83060000D02*
X222205000Y-82040000D01*
X227405000Y-83060000D02*
X227405000Y-82040000D01*
X222205000Y-85600000D02*
X222205000Y-84580000D01*
X227405000Y-85600000D02*
X227405000Y-84580000D01*
X222205000Y-88140000D02*
X222205000Y-87120000D01*
X227405000Y-88140000D02*
X227405000Y-87120000D01*
X222205000Y-90680000D02*
X222205000Y-89660000D01*
X227405000Y-90680000D02*
X227405000Y-89660000D01*
X222205000Y-93220000D02*
X222205000Y-92200000D01*
X227405000Y-93220000D02*
X227405000Y-92200000D01*
X222205000Y-95760000D02*
X222205000Y-94740000D01*
X227405000Y-95760000D02*
X227405000Y-94740000D01*
X222205000Y-98300000D02*
X222205000Y-97280000D01*
X227405000Y-98300000D02*
X227405000Y-97280000D01*
X222205000Y-100840000D02*
X222205000Y-99820000D01*
X227405000Y-100840000D02*
X227405000Y-99820000D01*
X222205000Y-103380000D02*
X222205000Y-102360000D01*
X227405000Y-103380000D02*
X227405000Y-102360000D01*
X222205000Y-105920000D02*
X222205000Y-104900000D01*
X227405000Y-105920000D02*
X227405000Y-104900000D01*
X222205000Y-108460000D02*
X222205000Y-107440000D01*
X227405000Y-108460000D02*
X227405000Y-107440000D01*
X222205000Y-111000000D02*
X222205000Y-109980000D01*
X227405000Y-111000000D02*
X227405000Y-109980000D01*
X222205000Y-113540000D02*
X222205000Y-112520000D01*
X227405000Y-113540000D02*
X227405000Y-112520000D01*
X222205000Y-116080000D02*
X222205000Y-115060000D01*
X227405000Y-116080000D02*
X227405000Y-115060000D01*
X222205000Y-118620000D02*
X222205000Y-117600000D01*
X227405000Y-118620000D02*
X227405000Y-117600000D01*
X222205000Y-121160000D02*
X222205000Y-120140000D01*
X227405000Y-121160000D02*
X227405000Y-120140000D01*
X222205000Y-123700000D02*
X222205000Y-122680000D01*
X227405000Y-123700000D02*
X227405000Y-122680000D01*
X222205000Y-126240000D02*
X222205000Y-125220000D01*
X227405000Y-126240000D02*
X227405000Y-125220000D01*
X222205000Y-65280000D02*
X222205000Y-64710000D01*
X227405000Y-65280000D02*
X227405000Y-64710000D01*
X222205000Y-128330000D02*
X222205000Y-127760000D01*
X227405000Y-128330000D02*
X227405000Y-127760000D01*
X228845000Y-127760000D02*
X227405000Y-127760000D01*
X227405000Y-64710000D02*
X222205000Y-64710000D01*
X227405000Y-128330000D02*
X222205000Y-128330000D01*
X208713000Y-67820000D02*
X208713000Y-66800000D01*
X213913000Y-67820000D02*
X213913000Y-66800000D01*
X208713000Y-70360000D02*
X208713000Y-69340000D01*
X213913000Y-70360000D02*
X213913000Y-69340000D01*
X208713000Y-72900000D02*
X208713000Y-71880000D01*
X213913000Y-72900000D02*
X213913000Y-71880000D01*
X208713000Y-75440000D02*
X208713000Y-74420000D01*
X213913000Y-75440000D02*
X213913000Y-74420000D01*
X208713000Y-77980000D02*
X208713000Y-76960000D01*
X213913000Y-77980000D02*
X213913000Y-76960000D01*
X208713000Y-80520000D02*
X208713000Y-79500000D01*
X213913000Y-80520000D02*
X213913000Y-79500000D01*
X208713000Y-83060000D02*
X208713000Y-82040000D01*
X213913000Y-83060000D02*
X213913000Y-82040000D01*
X208713000Y-85600000D02*
X208713000Y-84580000D01*
X213913000Y-85600000D02*
X213913000Y-84580000D01*
X208713000Y-88140000D02*
X208713000Y-87120000D01*
X213913000Y-88140000D02*
X213913000Y-87120000D01*
X208713000Y-90680000D02*
X208713000Y-89660000D01*
X213913000Y-90680000D02*
X213913000Y-89660000D01*
X208713000Y-93220000D02*
X208713000Y-92200000D01*
X213913000Y-93220000D02*
X213913000Y-92200000D01*
X208713000Y-95760000D02*
X208713000Y-94740000D01*
X213913000Y-95760000D02*
X213913000Y-94740000D01*
X208713000Y-98300000D02*
X208713000Y-97280000D01*
X213913000Y-98300000D02*
X213913000Y-97280000D01*
X208713000Y-100840000D02*
X208713000Y-99820000D01*
X213913000Y-100840000D02*
X213913000Y-99820000D01*
X208713000Y-103380000D02*
X208713000Y-102360000D01*
X213913000Y-103380000D02*
X213913000Y-102360000D01*
X208713000Y-105920000D02*
X208713000Y-104900000D01*
X213913000Y-105920000D02*
X213913000Y-104900000D01*
X208713000Y-108460000D02*
X208713000Y-107440000D01*
X213913000Y-108460000D02*
X213913000Y-107440000D01*
X208713000Y-111000000D02*
X208713000Y-109980000D01*
X213913000Y-111000000D02*
X213913000Y-109980000D01*
X208713000Y-113540000D02*
X208713000Y-112520000D01*
X213913000Y-113540000D02*
X213913000Y-112520000D01*
X208713000Y-116080000D02*
X208713000Y-115060000D01*
X213913000Y-116080000D02*
X213913000Y-115060000D01*
X208713000Y-118620000D02*
X208713000Y-117600000D01*
X213913000Y-118620000D02*
X213913000Y-117600000D01*
X208713000Y-121160000D02*
X208713000Y-120140000D01*
X213913000Y-121160000D02*
X213913000Y-120140000D01*
X208713000Y-123700000D02*
X208713000Y-122680000D01*
X213913000Y-123700000D02*
X213913000Y-122680000D01*
X208713000Y-126240000D02*
X208713000Y-125220000D01*
X213913000Y-126240000D02*
X213913000Y-125220000D01*
X208713000Y-65280000D02*
X208713000Y-64710000D01*
X213913000Y-65280000D02*
X213913000Y-64710000D01*
X208713000Y-128330000D02*
X208713000Y-127760000D01*
X213913000Y-128330000D02*
X213913000Y-127760000D01*
X215353000Y-127760000D02*
X213913000Y-127760000D01*
X213913000Y-64710000D02*
X208713000Y-64710000D01*
X213913000Y-128330000D02*
X208713000Y-128330000D01*
X182305000Y-90110000D02*
X177105000Y-90110000D01*
X182305000Y-95250000D02*
X182305000Y-90110000D01*
X177105000Y-97850000D02*
X177105000Y-90110000D01*
X182305000Y-95250000D02*
X179705000Y-95250000D01*
X179705000Y-95250000D02*
X179705000Y-97850000D01*
X179705000Y-97850000D02*
X177105000Y-97850000D01*
X182305000Y-96520000D02*
X182305000Y-97850000D01*
X182305000Y-97850000D02*
X180975000Y-97850000D01*
X243840000Y-53340000D02*
X257810000Y-53340000D01*
X248920000Y-53340000D02*
X248920000Y-147320000D01*
X257810000Y-147320000D02*
X243840000Y-147320000D01*
X243840000Y-147320000D02*
X243840000Y-53340000D01*
X257810000Y-147320000D02*
X257810000Y-53340000D01*
X146375436Y-134980000D02*
X147829564Y-134980000D01*
X146375436Y-136800000D02*
X147829564Y-136800000D01*
X146375436Y-139340000D02*
X147829564Y-139340000D01*
X146375436Y-137520000D02*
X147829564Y-137520000D01*
X150601000Y-140517564D02*
X150601000Y-139063436D01*
X152421000Y-140517564D02*
X152421000Y-139063436D01*
X153141000Y-140517564D02*
X153141000Y-139063436D01*
X154961000Y-140517564D02*
X154961000Y-139063436D01*
X153141000Y-133548436D02*
X153141000Y-135002564D01*
X154961000Y-133548436D02*
X154961000Y-135002564D01*
X150601000Y-133548436D02*
X150601000Y-135002564D01*
X152421000Y-133548436D02*
X152421000Y-135002564D01*
X143037936Y-127735000D02*
X143492064Y-127735000D01*
X143037936Y-126265000D02*
X143492064Y-126265000D01*
X143037936Y-124179000D02*
X143492064Y-124179000D01*
X143037936Y-122709000D02*
X143492064Y-122709000D01*
X95285000Y-63500000D02*
X95785000Y-63750000D01*
X95785000Y-63750000D02*
X95785000Y-63250000D01*
X95785000Y-63250000D02*
X95285000Y-63500000D01*
X102975000Y-54740000D02*
X106575000Y-54740000D01*
X102975000Y-62100000D02*
X106575000Y-62100000D01*
X108455000Y-56620000D02*
X108455000Y-60220000D01*
X101095000Y-56620000D02*
X101095000Y-60220000D01*
X114405000Y-54740000D02*
X118005000Y-54740000D01*
X114405000Y-62100000D02*
X118005000Y-62100000D01*
X119885000Y-56620000D02*
X119885000Y-60220000D01*
X112525000Y-56620000D02*
X112525000Y-60220000D01*
X143410000Y-98287064D02*
X143410000Y-97832936D01*
X144880000Y-98287064D02*
X144880000Y-97832936D01*
X156564000Y-101589064D02*
X156564000Y-101134936D01*
X155094000Y-101589064D02*
X155094000Y-101134936D01*
X148055000Y-98287064D02*
X148055000Y-97832936D01*
X146585000Y-98287064D02*
X146585000Y-97832936D01*
X140377936Y-98325000D02*
X140832064Y-98325000D01*
X140377936Y-99795000D02*
X140832064Y-99795000D01*
X160104064Y-101627000D02*
X159649936Y-101627000D01*
X160104064Y-103097000D02*
X159649936Y-103097000D01*
X151087064Y-99795000D02*
X150632936Y-99795000D01*
X151087064Y-98325000D02*
X150632936Y-98325000D01*
X137900000Y-54740000D02*
X141500000Y-54740000D01*
X137900000Y-62100000D02*
X141500000Y-62100000D01*
X143380000Y-56620000D02*
X143380000Y-60220000D01*
X136020000Y-56620000D02*
X136020000Y-60220000D01*
X124590000Y-56620000D02*
X124590000Y-60220000D01*
X131950000Y-56620000D02*
X131950000Y-60220000D01*
X126470000Y-62100000D02*
X130070000Y-62100000D01*
X126470000Y-54740000D02*
X130070000Y-54740000D01*
X95285000Y-77470000D02*
X95785000Y-77720000D01*
X95785000Y-77720000D02*
X95785000Y-77220000D01*
X95785000Y-77220000D02*
X95285000Y-77470000D01*
X138430000Y-103435000D02*
X134830000Y-103435000D01*
X138430000Y-103435000D02*
X140630000Y-103435000D01*
X138430000Y-108655000D02*
X136230000Y-108655000D01*
X138430000Y-108655000D02*
X140630000Y-108655000D01*
X137220000Y-115510000D02*
X137220000Y-116840000D01*
X135890000Y-115510000D02*
X137220000Y-115510000D01*
X134620000Y-115510000D02*
X134620000Y-118170000D01*
X134620000Y-118170000D02*
X132020000Y-118170000D01*
X134620000Y-115510000D02*
X132020000Y-115510000D01*
X132020000Y-115510000D02*
X132020000Y-118170000D01*
X161985000Y-67250000D02*
X161985000Y-68580000D01*
X160655000Y-67250000D02*
X161985000Y-67250000D01*
X159385000Y-67250000D02*
X159385000Y-69910000D01*
X159385000Y-69910000D02*
X141545000Y-69910000D01*
X159385000Y-67250000D02*
X141545000Y-67250000D01*
X141545000Y-67250000D02*
X141545000Y-69910000D01*
X161985000Y-69790000D02*
X161985000Y-71120000D01*
X160655000Y-69790000D02*
X161985000Y-69790000D01*
X159385000Y-69790000D02*
X159385000Y-72450000D01*
X159385000Y-72450000D02*
X151705000Y-72450000D01*
X159385000Y-69790000D02*
X151705000Y-69790000D01*
X151705000Y-69790000D02*
X151705000Y-72450000D01*
X137100000Y-112970000D02*
X137100000Y-118170000D01*
X154940000Y-112970000D02*
X137100000Y-112970000D01*
X157540000Y-118170000D02*
X137100000Y-118170000D01*
X154940000Y-112970000D02*
X154940000Y-115570000D01*
X154940000Y-115570000D02*
X157540000Y-115570000D01*
X157540000Y-115570000D02*
X157540000Y-118170000D01*
X156210000Y-112970000D02*
X157540000Y-112970000D01*
X157540000Y-112970000D02*
X157540000Y-114300000D01*
X179765000Y-112970000D02*
X179765000Y-114300000D01*
X178435000Y-112970000D02*
X179765000Y-112970000D01*
X179765000Y-115570000D02*
X179765000Y-118170000D01*
X177165000Y-115570000D02*
X179765000Y-115570000D01*
X177165000Y-112970000D02*
X177165000Y-115570000D01*
X179765000Y-118170000D02*
X159325000Y-118170000D01*
X177165000Y-112970000D02*
X159325000Y-112970000D01*
X159325000Y-112970000D02*
X159325000Y-118170000D01*
D10*
X149886000Y-104799000D02*
X148811000Y-104799000D01*
X149886000Y-107924000D02*
X153136000Y-107924000D01*
X149886000Y-104674000D02*
X153136000Y-104674000D01*
X149886000Y-107924000D02*
X149886000Y-107699000D01*
X153136000Y-107924000D02*
X153136000Y-107699000D01*
X153136000Y-104674000D02*
X153136000Y-104899000D01*
X149886000Y-104674000D02*
X149886000Y-104799000D01*
D13*
X193270000Y-139700000D02*
G75*
G03*
X193270000Y-139700000I-1500000J0D01*
G01*
X162155000Y-55880000D02*
G75*
G03*
X162155000Y-55880000I-1500000J0D01*
G01*
X182475000Y-133350000D02*
G75*
G03*
X182475000Y-133350000I-1500000J0D01*
G01*
X240260000Y-54610000D02*
G75*
G03*
X240260000Y-54610000I-1500000J0D01*
G01*
X236450000Y-84455000D02*
G75*
G03*
X236450000Y-84455000I-1500000J0D01*
G01*
X236450000Y-128270000D02*
G75*
G03*
X236450000Y-128270000I-1500000J0D01*
G01*
X216765000Y-131445000D02*
G75*
G03*
X216765000Y-131445000I-1500000J0D01*
G01*
X140565000Y-130175000D02*
G75*
G03*
X140565000Y-130175000I-1500000J0D01*
G01*
X170410000Y-130810000D02*
G75*
G03*
X170410000Y-130810000I-1500000J0D01*
G01*
X121515000Y-144065001D02*
G75*
G03*
X121515000Y-144065001I-1500000J0D01*
G01*
X162155000Y-60325000D02*
G75*
G03*
X162155000Y-60325000I-1500000J0D01*
G01*
D10*
X209816666Y-134707380D02*
X209816666Y-135421666D01*
X209769047Y-135564523D01*
X209673809Y-135659761D01*
X209530952Y-135707380D01*
X209435714Y-135707380D01*
X210245238Y-134802619D02*
X210292857Y-134755000D01*
X210388095Y-134707380D01*
X210626190Y-134707380D01*
X210721428Y-134755000D01*
X210769047Y-134802619D01*
X210816666Y-134897857D01*
X210816666Y-134993095D01*
X210769047Y-135135952D01*
X210197619Y-135707380D01*
X210816666Y-135707380D01*
X96412380Y-129718095D02*
X95412380Y-129718095D01*
X95412380Y-129480000D01*
X95460000Y-129337142D01*
X95555238Y-129241904D01*
X95650476Y-129194285D01*
X95840952Y-129146666D01*
X95983809Y-129146666D01*
X96174285Y-129194285D01*
X96269523Y-129241904D01*
X96364761Y-129337142D01*
X96412380Y-129480000D01*
X96412380Y-129718095D01*
X95412380Y-128813333D02*
X95412380Y-128194285D01*
X95793333Y-128527619D01*
X95793333Y-128384761D01*
X95840952Y-128289523D01*
X95888571Y-128241904D01*
X95983809Y-128194285D01*
X96221904Y-128194285D01*
X96317142Y-128241904D01*
X96364761Y-128289523D01*
X96412380Y-128384761D01*
X96412380Y-128670476D01*
X96364761Y-128765714D01*
X96317142Y-128813333D01*
X96412380Y-71218095D02*
X95412380Y-71218095D01*
X95412380Y-70980000D01*
X95460000Y-70837142D01*
X95555238Y-70741904D01*
X95650476Y-70694285D01*
X95840952Y-70646666D01*
X95983809Y-70646666D01*
X96174285Y-70694285D01*
X96269523Y-70741904D01*
X96364761Y-70837142D01*
X96412380Y-70980000D01*
X96412380Y-71218095D01*
X95507619Y-70265714D02*
X95460000Y-70218095D01*
X95412380Y-70122857D01*
X95412380Y-69884761D01*
X95460000Y-69789523D01*
X95507619Y-69741904D01*
X95602857Y-69694285D01*
X95698095Y-69694285D01*
X95840952Y-69741904D01*
X96412380Y-70313333D01*
X96412380Y-69694285D01*
X96412380Y-57258095D02*
X95412380Y-57258095D01*
X95412380Y-57020000D01*
X95460000Y-56877142D01*
X95555238Y-56781904D01*
X95650476Y-56734285D01*
X95840952Y-56686666D01*
X95983809Y-56686666D01*
X96174285Y-56734285D01*
X96269523Y-56781904D01*
X96364761Y-56877142D01*
X96412380Y-57020000D01*
X96412380Y-57258095D01*
X96412380Y-55734285D02*
X96412380Y-56305714D01*
X96412380Y-56020000D02*
X95412380Y-56020000D01*
X95555238Y-56115238D01*
X95650476Y-56210476D01*
X95698095Y-56305714D01*
X130412095Y-121017380D02*
X130412095Y-121826904D01*
X130459714Y-121922142D01*
X130507333Y-121969761D01*
X130602571Y-122017380D01*
X130793047Y-122017380D01*
X130888285Y-121969761D01*
X130935904Y-121922142D01*
X130983523Y-121826904D01*
X130983523Y-121017380D01*
X131888285Y-121017380D02*
X131697809Y-121017380D01*
X131602571Y-121065000D01*
X131554952Y-121112619D01*
X131459714Y-121255476D01*
X131412095Y-121445952D01*
X131412095Y-121826904D01*
X131459714Y-121922142D01*
X131507333Y-121969761D01*
X131602571Y-122017380D01*
X131793047Y-122017380D01*
X131888285Y-121969761D01*
X131935904Y-121922142D01*
X131983523Y-121826904D01*
X131983523Y-121588809D01*
X131935904Y-121493571D01*
X131888285Y-121445952D01*
X131793047Y-121398333D01*
X131602571Y-121398333D01*
X131507333Y-121445952D01*
X131459714Y-121493571D01*
X131412095Y-121588809D01*
X160848095Y-133932380D02*
X160848095Y-134741904D01*
X160895714Y-134837142D01*
X160943333Y-134884761D01*
X161038571Y-134932380D01*
X161229047Y-134932380D01*
X161324285Y-134884761D01*
X161371904Y-134837142D01*
X161419523Y-134741904D01*
X161419523Y-133932380D01*
X162371904Y-133932380D02*
X161895714Y-133932380D01*
X161848095Y-134408571D01*
X161895714Y-134360952D01*
X161990952Y-134313333D01*
X162229047Y-134313333D01*
X162324285Y-134360952D01*
X162371904Y-134408571D01*
X162419523Y-134503809D01*
X162419523Y-134741904D01*
X162371904Y-134837142D01*
X162324285Y-134884761D01*
X162229047Y-134932380D01*
X161990952Y-134932380D01*
X161895714Y-134884761D01*
X161848095Y-134837142D01*
X180657380Y-70183333D02*
X181371666Y-70183333D01*
X181514523Y-70230952D01*
X181609761Y-70326190D01*
X181657380Y-70469047D01*
X181657380Y-70564285D01*
X181657380Y-69659523D02*
X181657380Y-69469047D01*
X181609761Y-69373809D01*
X181562142Y-69326190D01*
X181419285Y-69230952D01*
X181228809Y-69183333D01*
X180847857Y-69183333D01*
X180752619Y-69230952D01*
X180705000Y-69278571D01*
X180657380Y-69373809D01*
X180657380Y-69564285D01*
X180705000Y-69659523D01*
X180752619Y-69707142D01*
X180847857Y-69754761D01*
X181085952Y-69754761D01*
X181181190Y-69707142D01*
X181228809Y-69659523D01*
X181276428Y-69564285D01*
X181276428Y-69373809D01*
X181228809Y-69278571D01*
X181181190Y-69230952D01*
X181085952Y-69183333D01*
X198565476Y-73322380D02*
X198565476Y-74036666D01*
X198517857Y-74179523D01*
X198422619Y-74274761D01*
X198279761Y-74322380D01*
X198184523Y-74322380D01*
X199565476Y-74322380D02*
X198994047Y-74322380D01*
X199279761Y-74322380D02*
X199279761Y-73322380D01*
X199184523Y-73465238D01*
X199089285Y-73560476D01*
X198994047Y-73608095D01*
X200184523Y-73322380D02*
X200279761Y-73322380D01*
X200375000Y-73370000D01*
X200422619Y-73417619D01*
X200470238Y-73512857D01*
X200517857Y-73703333D01*
X200517857Y-73941428D01*
X200470238Y-74131904D01*
X200422619Y-74227142D01*
X200375000Y-74274761D01*
X200279761Y-74322380D01*
X200184523Y-74322380D01*
X200089285Y-74274761D01*
X200041666Y-74227142D01*
X199994047Y-74131904D01*
X199946428Y-73941428D01*
X199946428Y-73703333D01*
X199994047Y-73512857D01*
X200041666Y-73417619D01*
X200089285Y-73370000D01*
X200184523Y-73322380D01*
X159821666Y-130262380D02*
X159821666Y-130976666D01*
X159774047Y-131119523D01*
X159678809Y-131214761D01*
X159535952Y-131262380D01*
X159440714Y-131262380D01*
X160297857Y-131262380D02*
X160297857Y-130262380D01*
X160678809Y-130262380D01*
X160774047Y-130310000D01*
X160821666Y-130357619D01*
X160869285Y-130452857D01*
X160869285Y-130595714D01*
X160821666Y-130690952D01*
X160774047Y-130738571D01*
X160678809Y-130786190D01*
X160297857Y-130786190D01*
X161202619Y-130262380D02*
X161821666Y-130262380D01*
X161488333Y-130643333D01*
X161631190Y-130643333D01*
X161726428Y-130690952D01*
X161774047Y-130738571D01*
X161821666Y-130833809D01*
X161821666Y-131071904D01*
X161774047Y-131167142D01*
X161726428Y-131214761D01*
X161631190Y-131262380D01*
X161345476Y-131262380D01*
X161250238Y-131214761D01*
X161202619Y-131167142D01*
X158583333Y-57507142D02*
X158535714Y-57554761D01*
X158392857Y-57602380D01*
X158297619Y-57602380D01*
X158154761Y-57554761D01*
X158059523Y-57459523D01*
X158011904Y-57364285D01*
X157964285Y-57173809D01*
X157964285Y-57030952D01*
X158011904Y-56840476D01*
X158059523Y-56745238D01*
X158154761Y-56650000D01*
X158297619Y-56602380D01*
X158392857Y-56602380D01*
X158535714Y-56650000D01*
X158583333Y-56697619D01*
X159535714Y-57602380D02*
X158964285Y-57602380D01*
X159250000Y-57602380D02*
X159250000Y-56602380D01*
X159154761Y-56745238D01*
X159059523Y-56840476D01*
X158964285Y-56888095D01*
X158932666Y-142835380D02*
X158932666Y-143549666D01*
X158885047Y-143692523D01*
X158789809Y-143787761D01*
X158646952Y-143835380D01*
X158551714Y-143835380D01*
X159408857Y-143835380D02*
X159408857Y-142835380D01*
X159789809Y-142835380D01*
X159885047Y-142883000D01*
X159932666Y-142930619D01*
X159980285Y-143025857D01*
X159980285Y-143168714D01*
X159932666Y-143263952D01*
X159885047Y-143311571D01*
X159789809Y-143359190D01*
X159408857Y-143359190D01*
X160837428Y-143168714D02*
X160837428Y-143835380D01*
X160599333Y-142787761D02*
X160361238Y-143502047D01*
X160980285Y-143502047D01*
X168457666Y-140930380D02*
X168457666Y-141644666D01*
X168410047Y-141787523D01*
X168314809Y-141882761D01*
X168171952Y-141930380D01*
X168076714Y-141930380D01*
X168933857Y-141930380D02*
X168933857Y-140930380D01*
X169314809Y-140930380D01*
X169410047Y-140978000D01*
X169457666Y-141025619D01*
X169505285Y-141120857D01*
X169505285Y-141263714D01*
X169457666Y-141358952D01*
X169410047Y-141406571D01*
X169314809Y-141454190D01*
X168933857Y-141454190D01*
X170410047Y-140930380D02*
X169933857Y-140930380D01*
X169886238Y-141406571D01*
X169933857Y-141358952D01*
X170029095Y-141311333D01*
X170267190Y-141311333D01*
X170362428Y-141358952D01*
X170410047Y-141406571D01*
X170457666Y-141501809D01*
X170457666Y-141739904D01*
X170410047Y-141835142D01*
X170362428Y-141882761D01*
X170267190Y-141930380D01*
X170029095Y-141930380D01*
X169933857Y-141882761D01*
X169886238Y-141835142D01*
X138612666Y-121626380D02*
X138612666Y-122340666D01*
X138565047Y-122483523D01*
X138469809Y-122578761D01*
X138326952Y-122626380D01*
X138231714Y-122626380D01*
X139088857Y-122626380D02*
X139088857Y-121626380D01*
X139469809Y-121626380D01*
X139565047Y-121674000D01*
X139612666Y-121721619D01*
X139660285Y-121816857D01*
X139660285Y-121959714D01*
X139612666Y-122054952D01*
X139565047Y-122102571D01*
X139469809Y-122150190D01*
X139088857Y-122150190D01*
X140517428Y-121626380D02*
X140326952Y-121626380D01*
X140231714Y-121674000D01*
X140184095Y-121721619D01*
X140088857Y-121864476D01*
X140041238Y-122054952D01*
X140041238Y-122435904D01*
X140088857Y-122531142D01*
X140136476Y-122578761D01*
X140231714Y-122626380D01*
X140422190Y-122626380D01*
X140517428Y-122578761D01*
X140565047Y-122531142D01*
X140612666Y-122435904D01*
X140612666Y-122197809D01*
X140565047Y-122102571D01*
X140517428Y-122054952D01*
X140422190Y-122007333D01*
X140231714Y-122007333D01*
X140136476Y-122054952D01*
X140088857Y-122102571D01*
X140041238Y-122197809D01*
X185832380Y-140509523D02*
X186546666Y-140509523D01*
X186689523Y-140557142D01*
X186784761Y-140652380D01*
X186832380Y-140795238D01*
X186832380Y-140890476D01*
X186832380Y-139509523D02*
X186832380Y-140080952D01*
X186832380Y-139795238D02*
X185832380Y-139795238D01*
X185975238Y-139890476D01*
X186070476Y-139985714D01*
X186118095Y-140080952D01*
X185927619Y-139128571D02*
X185880000Y-139080952D01*
X185832380Y-138985714D01*
X185832380Y-138747619D01*
X185880000Y-138652380D01*
X185927619Y-138604761D01*
X186022857Y-138557142D01*
X186118095Y-138557142D01*
X186260952Y-138604761D01*
X186832380Y-139176190D01*
X186832380Y-138557142D01*
X158583333Y-63857142D02*
X158535714Y-63904761D01*
X158392857Y-63952380D01*
X158297619Y-63952380D01*
X158154761Y-63904761D01*
X158059523Y-63809523D01*
X158011904Y-63714285D01*
X157964285Y-63523809D01*
X157964285Y-63380952D01*
X158011904Y-63190476D01*
X158059523Y-63095238D01*
X158154761Y-63000000D01*
X158297619Y-62952380D01*
X158392857Y-62952380D01*
X158535714Y-63000000D01*
X158583333Y-63047619D01*
X158964285Y-63047619D02*
X159011904Y-63000000D01*
X159107142Y-62952380D01*
X159345238Y-62952380D01*
X159440476Y-63000000D01*
X159488095Y-63047619D01*
X159535714Y-63142857D01*
X159535714Y-63238095D01*
X159488095Y-63380952D01*
X158916666Y-63952380D01*
X159535714Y-63952380D01*
X198565476Y-96182380D02*
X198565476Y-96896666D01*
X198517857Y-97039523D01*
X198422619Y-97134761D01*
X198279761Y-97182380D01*
X198184523Y-97182380D01*
X199565476Y-97182380D02*
X198994047Y-97182380D01*
X199279761Y-97182380D02*
X199279761Y-96182380D01*
X199184523Y-96325238D01*
X199089285Y-96420476D01*
X198994047Y-96468095D01*
X200517857Y-97182380D02*
X199946428Y-97182380D01*
X200232142Y-97182380D02*
X200232142Y-96182380D01*
X200136904Y-96325238D01*
X200041666Y-96420476D01*
X199946428Y-96468095D01*
X92535476Y-130262380D02*
X92535476Y-130976666D01*
X92487857Y-131119523D01*
X92392619Y-131214761D01*
X92249761Y-131262380D01*
X92154523Y-131262380D01*
X93535476Y-131262380D02*
X92964047Y-131262380D01*
X93249761Y-131262380D02*
X93249761Y-130262380D01*
X93154523Y-130405238D01*
X93059285Y-130500476D01*
X92964047Y-130548095D01*
X94392619Y-130262380D02*
X94202142Y-130262380D01*
X94106904Y-130310000D01*
X94059285Y-130357619D01*
X93964047Y-130500476D01*
X93916428Y-130690952D01*
X93916428Y-131071904D01*
X93964047Y-131167142D01*
X94011666Y-131214761D01*
X94106904Y-131262380D01*
X94297380Y-131262380D01*
X94392619Y-131214761D01*
X94440238Y-131167142D01*
X94487857Y-131071904D01*
X94487857Y-130833809D01*
X94440238Y-130738571D01*
X94392619Y-130690952D01*
X94297380Y-130643333D01*
X94106904Y-130643333D01*
X94011666Y-130690952D01*
X93964047Y-130738571D01*
X93916428Y-130833809D01*
X92535476Y-116292380D02*
X92535476Y-117006666D01*
X92487857Y-117149523D01*
X92392619Y-117244761D01*
X92249761Y-117292380D01*
X92154523Y-117292380D01*
X93535476Y-117292380D02*
X92964047Y-117292380D01*
X93249761Y-117292380D02*
X93249761Y-116292380D01*
X93154523Y-116435238D01*
X93059285Y-116530476D01*
X92964047Y-116578095D01*
X93868809Y-116292380D02*
X94535476Y-116292380D01*
X94106904Y-117292380D01*
X200706666Y-127632380D02*
X200706666Y-128346666D01*
X200659047Y-128489523D01*
X200563809Y-128584761D01*
X200420952Y-128632380D01*
X200325714Y-128632380D01*
X201706666Y-128632380D02*
X201135238Y-128632380D01*
X201420952Y-128632380D02*
X201420952Y-127632380D01*
X201325714Y-127775238D01*
X201230476Y-127870476D01*
X201135238Y-127918095D01*
X188800952Y-130254761D02*
X188896190Y-130302380D01*
X189086666Y-130302380D01*
X189181904Y-130254761D01*
X189229523Y-130159523D01*
X189229523Y-130111904D01*
X189181904Y-130016666D01*
X189086666Y-129969047D01*
X188943809Y-129969047D01*
X188848571Y-129921428D01*
X188800952Y-129826190D01*
X188800952Y-129778571D01*
X188848571Y-129683333D01*
X188943809Y-129635714D01*
X189086666Y-129635714D01*
X189181904Y-129683333D01*
X190086666Y-129635714D02*
X190086666Y-130302380D01*
X189658095Y-129635714D02*
X189658095Y-130159523D01*
X189705714Y-130254761D01*
X189800952Y-130302380D01*
X189943809Y-130302380D01*
X190039047Y-130254761D01*
X190086666Y-130207142D01*
X190562857Y-129635714D02*
X190562857Y-130635714D01*
X190562857Y-129683333D02*
X190658095Y-129635714D01*
X190848571Y-129635714D01*
X190943809Y-129683333D01*
X190991428Y-129730952D01*
X191039047Y-129826190D01*
X191039047Y-130111904D01*
X190991428Y-130207142D01*
X190943809Y-130254761D01*
X190848571Y-130302380D01*
X190658095Y-130302380D01*
X190562857Y-130254761D01*
X191467619Y-129635714D02*
X191467619Y-130635714D01*
X191467619Y-129683333D02*
X191562857Y-129635714D01*
X191753333Y-129635714D01*
X191848571Y-129683333D01*
X191896190Y-129730952D01*
X191943809Y-129826190D01*
X191943809Y-130111904D01*
X191896190Y-130207142D01*
X191848571Y-130254761D01*
X191753333Y-130302380D01*
X191562857Y-130302380D01*
X191467619Y-130254761D01*
X192515238Y-130302380D02*
X192420000Y-130254761D01*
X192372380Y-130159523D01*
X192372380Y-129302380D01*
X192800952Y-129635714D02*
X193039047Y-130302380D01*
X193277142Y-129635714D02*
X193039047Y-130302380D01*
X192943809Y-130540476D01*
X192896190Y-130588095D01*
X192800952Y-130635714D01*
X194705714Y-130683333D02*
X194658095Y-130635714D01*
X194562857Y-130492857D01*
X194515238Y-130397619D01*
X194467619Y-130254761D01*
X194420000Y-130016666D01*
X194420000Y-129826190D01*
X194467619Y-129588095D01*
X194515238Y-129445238D01*
X194562857Y-129350000D01*
X194658095Y-129207142D01*
X194705714Y-129159523D01*
X195039047Y-130254761D02*
X195134285Y-130302380D01*
X195324761Y-130302380D01*
X195420000Y-130254761D01*
X195467619Y-130159523D01*
X195467619Y-130111904D01*
X195420000Y-130016666D01*
X195324761Y-129969047D01*
X195181904Y-129969047D01*
X195086666Y-129921428D01*
X195039047Y-129826190D01*
X195039047Y-129778571D01*
X195086666Y-129683333D01*
X195181904Y-129635714D01*
X195324761Y-129635714D01*
X195420000Y-129683333D01*
X196039047Y-130302380D02*
X195943809Y-130254761D01*
X195896190Y-130207142D01*
X195848571Y-130111904D01*
X195848571Y-129826190D01*
X195896190Y-129730952D01*
X195943809Y-129683333D01*
X196039047Y-129635714D01*
X196181904Y-129635714D01*
X196277142Y-129683333D01*
X196324761Y-129730952D01*
X196372380Y-129826190D01*
X196372380Y-130111904D01*
X196324761Y-130207142D01*
X196277142Y-130254761D01*
X196181904Y-130302380D01*
X196039047Y-130302380D01*
X196800952Y-130302380D02*
X196800952Y-129635714D01*
X196800952Y-129826190D02*
X196848571Y-129730952D01*
X196896190Y-129683333D01*
X196991428Y-129635714D01*
X197086666Y-129635714D01*
X197848571Y-129635714D02*
X197848571Y-130445238D01*
X197800952Y-130540476D01*
X197753333Y-130588095D01*
X197658095Y-130635714D01*
X197515238Y-130635714D01*
X197420000Y-130588095D01*
X197848571Y-130254761D02*
X197753333Y-130302380D01*
X197562857Y-130302380D01*
X197467619Y-130254761D01*
X197420000Y-130207142D01*
X197372380Y-130111904D01*
X197372380Y-129826190D01*
X197420000Y-129730952D01*
X197467619Y-129683333D01*
X197562857Y-129635714D01*
X197753333Y-129635714D01*
X197848571Y-129683333D01*
X198705714Y-130254761D02*
X198610476Y-130302380D01*
X198420000Y-130302380D01*
X198324761Y-130254761D01*
X198277142Y-130159523D01*
X198277142Y-129778571D01*
X198324761Y-129683333D01*
X198420000Y-129635714D01*
X198610476Y-129635714D01*
X198705714Y-129683333D01*
X198753333Y-129778571D01*
X198753333Y-129873809D01*
X198277142Y-129969047D01*
X199181904Y-129635714D02*
X199181904Y-130302380D01*
X199181904Y-129730952D02*
X199229523Y-129683333D01*
X199324761Y-129635714D01*
X199467619Y-129635714D01*
X199562857Y-129683333D01*
X199610476Y-129778571D01*
X199610476Y-130302380D01*
X199943809Y-129635714D02*
X200324761Y-129635714D01*
X200086666Y-129302380D02*
X200086666Y-130159523D01*
X200134285Y-130254761D01*
X200229523Y-130302380D01*
X200324761Y-130302380D01*
X201039047Y-130254761D02*
X200943809Y-130302380D01*
X200753333Y-130302380D01*
X200658095Y-130254761D01*
X200610476Y-130159523D01*
X200610476Y-129778571D01*
X200658095Y-129683333D01*
X200753333Y-129635714D01*
X200943809Y-129635714D01*
X201039047Y-129683333D01*
X201086666Y-129778571D01*
X201086666Y-129873809D01*
X200610476Y-129969047D01*
X201420000Y-130683333D02*
X201467619Y-130635714D01*
X201562857Y-130492857D01*
X201610476Y-130397619D01*
X201658095Y-130254761D01*
X201705714Y-130016666D01*
X201705714Y-129826190D01*
X201658095Y-129588095D01*
X201610476Y-129445238D01*
X201562857Y-129350000D01*
X201467619Y-129207142D01*
X201420000Y-129159523D01*
X202943809Y-129921428D02*
X203705714Y-129921428D01*
X203324761Y-130302380D02*
X203324761Y-129540476D01*
X204658095Y-129302380D02*
X204181904Y-129302380D01*
X204134285Y-129778571D01*
X204181904Y-129730952D01*
X204277142Y-129683333D01*
X204515238Y-129683333D01*
X204610476Y-129730952D01*
X204658095Y-129778571D01*
X204705714Y-129873809D01*
X204705714Y-130111904D01*
X204658095Y-130207142D01*
X204610476Y-130254761D01*
X204515238Y-130302380D01*
X204277142Y-130302380D01*
X204181904Y-130254761D01*
X204134285Y-130207142D01*
X204991428Y-129302380D02*
X205324761Y-130302380D01*
X205658095Y-129302380D01*
X207086666Y-129778571D02*
X206753333Y-129778571D01*
X206753333Y-130302380D02*
X206753333Y-129302380D01*
X207229523Y-129302380D01*
X207610476Y-130302380D02*
X207610476Y-129302380D01*
X207991428Y-129302380D01*
X208086666Y-129350000D01*
X208134285Y-129397619D01*
X208181904Y-129492857D01*
X208181904Y-129635714D01*
X208134285Y-129730952D01*
X208086666Y-129778571D01*
X207991428Y-129826190D01*
X207610476Y-129826190D01*
X209134285Y-129350000D02*
X209039047Y-129302380D01*
X208896190Y-129302380D01*
X208753333Y-129350000D01*
X208658095Y-129445238D01*
X208610476Y-129540476D01*
X208562857Y-129730952D01*
X208562857Y-129873809D01*
X208610476Y-130064285D01*
X208658095Y-130159523D01*
X208753333Y-130254761D01*
X208896190Y-130302380D01*
X208991428Y-130302380D01*
X209134285Y-130254761D01*
X209181904Y-130207142D01*
X209181904Y-129873809D01*
X208991428Y-129873809D01*
X209562857Y-130016666D02*
X210039047Y-130016666D01*
X209467619Y-130302380D02*
X209800952Y-129302380D01*
X210134285Y-130302380D01*
X231586380Y-74493333D02*
X232300666Y-74493333D01*
X232443523Y-74540952D01*
X232538761Y-74636190D01*
X232586380Y-74779047D01*
X232586380Y-74874285D01*
X232586380Y-74017142D02*
X231586380Y-74017142D01*
X231586380Y-73636190D01*
X231634000Y-73540952D01*
X231681619Y-73493333D01*
X231776857Y-73445714D01*
X231919714Y-73445714D01*
X232014952Y-73493333D01*
X232062571Y-73540952D01*
X232110190Y-73636190D01*
X232110190Y-74017142D01*
X232586380Y-72493333D02*
X232586380Y-73064761D01*
X232586380Y-72779047D02*
X231586380Y-72779047D01*
X231729238Y-72874285D01*
X231824476Y-72969523D01*
X231872095Y-73064761D01*
X236238761Y-78421904D02*
X236286380Y-78326666D01*
X236286380Y-78136190D01*
X236238761Y-78040952D01*
X236143523Y-77993333D01*
X236095904Y-77993333D01*
X236000666Y-78040952D01*
X235953047Y-78136190D01*
X235953047Y-78279047D01*
X235905428Y-78374285D01*
X235810190Y-78421904D01*
X235762571Y-78421904D01*
X235667333Y-78374285D01*
X235619714Y-78279047D01*
X235619714Y-78136190D01*
X235667333Y-78040952D01*
X235619714Y-77707619D02*
X235619714Y-77326666D01*
X235286380Y-77564761D02*
X236143523Y-77564761D01*
X236238761Y-77517142D01*
X236286380Y-77421904D01*
X236286380Y-77326666D01*
X236286380Y-76993333D02*
X235619714Y-76993333D01*
X235810190Y-76993333D02*
X235714952Y-76945714D01*
X235667333Y-76898095D01*
X235619714Y-76802857D01*
X235619714Y-76707619D01*
X236286380Y-76231428D02*
X236238761Y-76326666D01*
X236191142Y-76374285D01*
X236095904Y-76421904D01*
X235810190Y-76421904D01*
X235714952Y-76374285D01*
X235667333Y-76326666D01*
X235619714Y-76231428D01*
X235619714Y-76088571D01*
X235667333Y-75993333D01*
X235714952Y-75945714D01*
X235810190Y-75898095D01*
X236095904Y-75898095D01*
X236191142Y-75945714D01*
X236238761Y-75993333D01*
X236286380Y-76088571D01*
X236286380Y-76231428D01*
X236286380Y-75469523D02*
X235286380Y-75469523D01*
X235667333Y-75469523D02*
X235619714Y-75374285D01*
X235619714Y-75183809D01*
X235667333Y-75088571D01*
X235714952Y-75040952D01*
X235810190Y-74993333D01*
X236095904Y-74993333D01*
X236191142Y-75040952D01*
X236238761Y-75088571D01*
X236286380Y-75183809D01*
X236286380Y-75374285D01*
X236238761Y-75469523D01*
X236238761Y-74183809D02*
X236286380Y-74279047D01*
X236286380Y-74469523D01*
X236238761Y-74564761D01*
X236143523Y-74612380D01*
X235762571Y-74612380D01*
X235667333Y-74564761D01*
X235619714Y-74469523D01*
X235619714Y-74279047D01*
X235667333Y-74183809D01*
X235762571Y-74136190D01*
X235857809Y-74136190D01*
X235953047Y-74612380D01*
X236238761Y-72993333D02*
X236286380Y-72898095D01*
X236286380Y-72707619D01*
X236238761Y-72612380D01*
X236143523Y-72564761D01*
X236095904Y-72564761D01*
X236000666Y-72612380D01*
X235953047Y-72707619D01*
X235953047Y-72850476D01*
X235905428Y-72945714D01*
X235810190Y-72993333D01*
X235762571Y-72993333D01*
X235667333Y-72945714D01*
X235619714Y-72850476D01*
X235619714Y-72707619D01*
X235667333Y-72612380D01*
X236238761Y-71755238D02*
X236286380Y-71850476D01*
X236286380Y-72040952D01*
X236238761Y-72136190D01*
X236143523Y-72183809D01*
X235762571Y-72183809D01*
X235667333Y-72136190D01*
X235619714Y-72040952D01*
X235619714Y-71850476D01*
X235667333Y-71755238D01*
X235762571Y-71707619D01*
X235857809Y-71707619D01*
X235953047Y-72183809D01*
X236286380Y-71136190D02*
X236238761Y-71231428D01*
X236143523Y-71279047D01*
X235286380Y-71279047D01*
X236238761Y-70374285D02*
X236286380Y-70469523D01*
X236286380Y-70660000D01*
X236238761Y-70755238D01*
X236143523Y-70802857D01*
X235762571Y-70802857D01*
X235667333Y-70755238D01*
X235619714Y-70660000D01*
X235619714Y-70469523D01*
X235667333Y-70374285D01*
X235762571Y-70326666D01*
X235857809Y-70326666D01*
X235953047Y-70802857D01*
X236238761Y-69469523D02*
X236286380Y-69564761D01*
X236286380Y-69755238D01*
X236238761Y-69850476D01*
X236191142Y-69898095D01*
X236095904Y-69945714D01*
X235810190Y-69945714D01*
X235714952Y-69898095D01*
X235667333Y-69850476D01*
X235619714Y-69755238D01*
X235619714Y-69564761D01*
X235667333Y-69469523D01*
X235619714Y-69183809D02*
X235619714Y-68802857D01*
X235286380Y-69040952D02*
X236143523Y-69040952D01*
X236238761Y-68993333D01*
X236286380Y-68898095D01*
X236286380Y-68802857D01*
X155408333Y-136247142D02*
X155360714Y-136294761D01*
X155217857Y-136342380D01*
X155122619Y-136342380D01*
X154979761Y-136294761D01*
X154884523Y-136199523D01*
X154836904Y-136104285D01*
X154789285Y-135913809D01*
X154789285Y-135770952D01*
X154836904Y-135580476D01*
X154884523Y-135485238D01*
X154979761Y-135390000D01*
X155122619Y-135342380D01*
X155217857Y-135342380D01*
X155360714Y-135390000D01*
X155408333Y-135437619D01*
X155741666Y-135342380D02*
X156408333Y-135342380D01*
X155979761Y-136342380D01*
X157299333Y-140090142D02*
X157251714Y-140137761D01*
X157108857Y-140185380D01*
X157013619Y-140185380D01*
X156870761Y-140137761D01*
X156775523Y-140042523D01*
X156727904Y-139947285D01*
X156680285Y-139756809D01*
X156680285Y-139613952D01*
X156727904Y-139423476D01*
X156775523Y-139328238D01*
X156870761Y-139233000D01*
X157013619Y-139185380D01*
X157108857Y-139185380D01*
X157251714Y-139233000D01*
X157299333Y-139280619D01*
X157870761Y-139613952D02*
X157775523Y-139566333D01*
X157727904Y-139518714D01*
X157680285Y-139423476D01*
X157680285Y-139375857D01*
X157727904Y-139280619D01*
X157775523Y-139233000D01*
X157870761Y-139185380D01*
X158061238Y-139185380D01*
X158156476Y-139233000D01*
X158204095Y-139280619D01*
X158251714Y-139375857D01*
X158251714Y-139423476D01*
X158204095Y-139518714D01*
X158156476Y-139566333D01*
X158061238Y-139613952D01*
X157870761Y-139613952D01*
X157775523Y-139661571D01*
X157727904Y-139709190D01*
X157680285Y-139804428D01*
X157680285Y-139994904D01*
X157727904Y-140090142D01*
X157775523Y-140137761D01*
X157870761Y-140185380D01*
X158061238Y-140185380D01*
X158156476Y-140137761D01*
X158204095Y-140090142D01*
X158251714Y-139994904D01*
X158251714Y-139804428D01*
X158204095Y-139709190D01*
X158156476Y-139661571D01*
X158061238Y-139613952D01*
X223980476Y-129052380D02*
X223980476Y-129766666D01*
X223932857Y-129909523D01*
X223837619Y-130004761D01*
X223694761Y-130052380D01*
X223599523Y-130052380D01*
X224980476Y-130052380D02*
X224409047Y-130052380D01*
X224694761Y-130052380D02*
X224694761Y-129052380D01*
X224599523Y-129195238D01*
X224504285Y-129290476D01*
X224409047Y-129338095D01*
X225313809Y-129052380D02*
X225932857Y-129052380D01*
X225599523Y-129433333D01*
X225742380Y-129433333D01*
X225837619Y-129480952D01*
X225885238Y-129528571D01*
X225932857Y-129623809D01*
X225932857Y-129861904D01*
X225885238Y-129957142D01*
X225837619Y-130004761D01*
X225742380Y-130052380D01*
X225456666Y-130052380D01*
X225361428Y-130004761D01*
X225313809Y-129957142D01*
X215310476Y-129152380D02*
X215310476Y-129866666D01*
X215262857Y-130009523D01*
X215167619Y-130104761D01*
X215024761Y-130152380D01*
X214929523Y-130152380D01*
X216310476Y-130152380D02*
X215739047Y-130152380D01*
X216024761Y-130152380D02*
X216024761Y-129152380D01*
X215929523Y-129295238D01*
X215834285Y-129390476D01*
X215739047Y-129438095D01*
X217215238Y-129152380D02*
X216739047Y-129152380D01*
X216691428Y-129628571D01*
X216739047Y-129580952D01*
X216834285Y-129533333D01*
X217072380Y-129533333D01*
X217167619Y-129580952D01*
X217215238Y-129628571D01*
X217262857Y-129723809D01*
X217262857Y-129961904D01*
X217215238Y-130057142D01*
X217167619Y-130104761D01*
X217072380Y-130152380D01*
X216834285Y-130152380D01*
X216739047Y-130104761D01*
X216691428Y-130057142D01*
X179371666Y-98302380D02*
X179371666Y-99016666D01*
X179324047Y-99159523D01*
X179228809Y-99254761D01*
X179085952Y-99302380D01*
X178990714Y-99302380D01*
X179752619Y-98302380D02*
X180419285Y-98302380D01*
X179990714Y-99302380D01*
X244935476Y-52157380D02*
X244935476Y-52871666D01*
X244887857Y-53014523D01*
X244792619Y-53109761D01*
X244649761Y-53157380D01*
X244554523Y-53157380D01*
X245935476Y-53157380D02*
X245364047Y-53157380D01*
X245649761Y-53157380D02*
X245649761Y-52157380D01*
X245554523Y-52300238D01*
X245459285Y-52395476D01*
X245364047Y-52443095D01*
X246792619Y-52490714D02*
X246792619Y-53157380D01*
X246554523Y-52109761D02*
X246316428Y-52824047D01*
X246935476Y-52824047D01*
X146935833Y-134522380D02*
X146602500Y-134046190D01*
X146364404Y-134522380D02*
X146364404Y-133522380D01*
X146745357Y-133522380D01*
X146840595Y-133570000D01*
X146888214Y-133617619D01*
X146935833Y-133712857D01*
X146935833Y-133855714D01*
X146888214Y-133950952D01*
X146840595Y-133998571D01*
X146745357Y-134046190D01*
X146364404Y-134046190D01*
X147888214Y-134522380D02*
X147316785Y-134522380D01*
X147602500Y-134522380D02*
X147602500Y-133522380D01*
X147507261Y-133665238D01*
X147412023Y-133760476D01*
X147316785Y-133808095D01*
X146935833Y-137062380D02*
X146602500Y-136586190D01*
X146364404Y-137062380D02*
X146364404Y-136062380D01*
X146745357Y-136062380D01*
X146840595Y-136110000D01*
X146888214Y-136157619D01*
X146935833Y-136252857D01*
X146935833Y-136395714D01*
X146888214Y-136490952D01*
X146840595Y-136538571D01*
X146745357Y-136586190D01*
X146364404Y-136586190D01*
X147316785Y-136157619D02*
X147364404Y-136110000D01*
X147459642Y-136062380D01*
X147697738Y-136062380D01*
X147792976Y-136110000D01*
X147840595Y-136157619D01*
X147888214Y-136252857D01*
X147888214Y-136348095D01*
X147840595Y-136490952D01*
X147269166Y-137062380D01*
X147888214Y-137062380D01*
X150143380Y-139957166D02*
X149667190Y-140290500D01*
X150143380Y-140528595D02*
X149143380Y-140528595D01*
X149143380Y-140147642D01*
X149191000Y-140052404D01*
X149238619Y-140004785D01*
X149333857Y-139957166D01*
X149476714Y-139957166D01*
X149571952Y-140004785D01*
X149619571Y-140052404D01*
X149667190Y-140147642D01*
X149667190Y-140528595D01*
X149143380Y-139623833D02*
X149143380Y-139004785D01*
X149524333Y-139338119D01*
X149524333Y-139195261D01*
X149571952Y-139100023D01*
X149619571Y-139052404D01*
X149714809Y-139004785D01*
X149952904Y-139004785D01*
X150048142Y-139052404D01*
X150095761Y-139100023D01*
X150143380Y-139195261D01*
X150143380Y-139480976D01*
X150095761Y-139576214D01*
X150048142Y-139623833D01*
X152683380Y-139957166D02*
X152207190Y-140290500D01*
X152683380Y-140528595D02*
X151683380Y-140528595D01*
X151683380Y-140147642D01*
X151731000Y-140052404D01*
X151778619Y-140004785D01*
X151873857Y-139957166D01*
X152016714Y-139957166D01*
X152111952Y-140004785D01*
X152159571Y-140052404D01*
X152207190Y-140147642D01*
X152207190Y-140528595D01*
X152016714Y-139100023D02*
X152683380Y-139100023D01*
X151635761Y-139338119D02*
X152350047Y-139576214D01*
X152350047Y-138957166D01*
X156323380Y-134442166D02*
X155847190Y-134775500D01*
X156323380Y-135013595D02*
X155323380Y-135013595D01*
X155323380Y-134632642D01*
X155371000Y-134537404D01*
X155418619Y-134489785D01*
X155513857Y-134442166D01*
X155656714Y-134442166D01*
X155751952Y-134489785D01*
X155799571Y-134537404D01*
X155847190Y-134632642D01*
X155847190Y-135013595D01*
X155323380Y-133537404D02*
X155323380Y-134013595D01*
X155799571Y-134061214D01*
X155751952Y-134013595D01*
X155704333Y-133918357D01*
X155704333Y-133680261D01*
X155751952Y-133585023D01*
X155799571Y-133537404D01*
X155894809Y-133489785D01*
X156132904Y-133489785D01*
X156228142Y-133537404D01*
X156275761Y-133585023D01*
X156323380Y-133680261D01*
X156323380Y-133918357D01*
X156275761Y-134013595D01*
X156228142Y-134061214D01*
X153783380Y-134442166D02*
X153307190Y-134775500D01*
X153783380Y-135013595D02*
X152783380Y-135013595D01*
X152783380Y-134632642D01*
X152831000Y-134537404D01*
X152878619Y-134489785D01*
X152973857Y-134442166D01*
X153116714Y-134442166D01*
X153211952Y-134489785D01*
X153259571Y-134537404D01*
X153307190Y-134632642D01*
X153307190Y-135013595D01*
X152783380Y-133585023D02*
X152783380Y-133775500D01*
X152831000Y-133870738D01*
X152878619Y-133918357D01*
X153021476Y-134013595D01*
X153211952Y-134061214D01*
X153592904Y-134061214D01*
X153688142Y-134013595D01*
X153735761Y-133965976D01*
X153783380Y-133870738D01*
X153783380Y-133680261D01*
X153735761Y-133585023D01*
X153688142Y-133537404D01*
X153592904Y-133489785D01*
X153354809Y-133489785D01*
X153259571Y-133537404D01*
X153211952Y-133585023D01*
X153164333Y-133680261D01*
X153164333Y-133870738D01*
X153211952Y-133965976D01*
X153259571Y-134013595D01*
X153354809Y-134061214D01*
X143098333Y-125802380D02*
X142765000Y-125326190D01*
X142526904Y-125802380D02*
X142526904Y-124802380D01*
X142907857Y-124802380D01*
X143003095Y-124850000D01*
X143050714Y-124897619D01*
X143098333Y-124992857D01*
X143098333Y-125135714D01*
X143050714Y-125230952D01*
X143003095Y-125278571D01*
X142907857Y-125326190D01*
X142526904Y-125326190D01*
X143431666Y-124802380D02*
X144098333Y-124802380D01*
X143669761Y-125802380D01*
X143098333Y-122246380D02*
X142765000Y-121770190D01*
X142526904Y-122246380D02*
X142526904Y-121246380D01*
X142907857Y-121246380D01*
X143003095Y-121294000D01*
X143050714Y-121341619D01*
X143098333Y-121436857D01*
X143098333Y-121579714D01*
X143050714Y-121674952D01*
X143003095Y-121722571D01*
X142907857Y-121770190D01*
X142526904Y-121770190D01*
X143669761Y-121674952D02*
X143574523Y-121627333D01*
X143526904Y-121579714D01*
X143479285Y-121484476D01*
X143479285Y-121436857D01*
X143526904Y-121341619D01*
X143574523Y-121294000D01*
X143669761Y-121246380D01*
X143860238Y-121246380D01*
X143955476Y-121294000D01*
X144003095Y-121341619D01*
X144050714Y-121436857D01*
X144050714Y-121484476D01*
X144003095Y-121579714D01*
X143955476Y-121627333D01*
X143860238Y-121674952D01*
X143669761Y-121674952D01*
X143574523Y-121722571D01*
X143526904Y-121770190D01*
X143479285Y-121865428D01*
X143479285Y-122055904D01*
X143526904Y-122151142D01*
X143574523Y-122198761D01*
X143669761Y-122246380D01*
X143860238Y-122246380D01*
X143955476Y-122198761D01*
X144003095Y-122151142D01*
X144050714Y-122055904D01*
X144050714Y-121865428D01*
X144003095Y-121770190D01*
X143955476Y-121722571D01*
X143860238Y-121674952D01*
X95630476Y-61532380D02*
X95630476Y-62246666D01*
X95582857Y-62389523D01*
X95487619Y-62484761D01*
X95344761Y-62532380D01*
X95249523Y-62532380D01*
X96630476Y-62532380D02*
X96059047Y-62532380D01*
X96344761Y-62532380D02*
X96344761Y-61532380D01*
X96249523Y-61675238D01*
X96154285Y-61770476D01*
X96059047Y-61818095D01*
X97201904Y-61960952D02*
X97106666Y-61913333D01*
X97059047Y-61865714D01*
X97011428Y-61770476D01*
X97011428Y-61722857D01*
X97059047Y-61627619D01*
X97106666Y-61580000D01*
X97201904Y-61532380D01*
X97392380Y-61532380D01*
X97487619Y-61580000D01*
X97535238Y-61627619D01*
X97582857Y-61722857D01*
X97582857Y-61770476D01*
X97535238Y-61865714D01*
X97487619Y-61913333D01*
X97392380Y-61960952D01*
X97201904Y-61960952D01*
X97106666Y-62008571D01*
X97059047Y-62056190D01*
X97011428Y-62151428D01*
X97011428Y-62341904D01*
X97059047Y-62437142D01*
X97106666Y-62484761D01*
X97201904Y-62532380D01*
X97392380Y-62532380D01*
X97487619Y-62484761D01*
X97535238Y-62437142D01*
X97582857Y-62341904D01*
X97582857Y-62151428D01*
X97535238Y-62056190D01*
X97487619Y-62008571D01*
X97392380Y-61960952D01*
X103965476Y-53122380D02*
X103965476Y-53836666D01*
X103917857Y-53979523D01*
X103822619Y-54074761D01*
X103679761Y-54122380D01*
X103584523Y-54122380D01*
X104394047Y-53217619D02*
X104441666Y-53170000D01*
X104536904Y-53122380D01*
X104775000Y-53122380D01*
X104870238Y-53170000D01*
X104917857Y-53217619D01*
X104965476Y-53312857D01*
X104965476Y-53408095D01*
X104917857Y-53550952D01*
X104346428Y-54122380D01*
X104965476Y-54122380D01*
X105346428Y-53217619D02*
X105394047Y-53170000D01*
X105489285Y-53122380D01*
X105727380Y-53122380D01*
X105822619Y-53170000D01*
X105870238Y-53217619D01*
X105917857Y-53312857D01*
X105917857Y-53408095D01*
X105870238Y-53550952D01*
X105298809Y-54122380D01*
X105917857Y-54122380D01*
X115395476Y-53122380D02*
X115395476Y-53836666D01*
X115347857Y-53979523D01*
X115252619Y-54074761D01*
X115109761Y-54122380D01*
X115014523Y-54122380D01*
X115824047Y-53217619D02*
X115871666Y-53170000D01*
X115966904Y-53122380D01*
X116205000Y-53122380D01*
X116300238Y-53170000D01*
X116347857Y-53217619D01*
X116395476Y-53312857D01*
X116395476Y-53408095D01*
X116347857Y-53550952D01*
X115776428Y-54122380D01*
X116395476Y-54122380D01*
X116728809Y-53122380D02*
X117347857Y-53122380D01*
X117014523Y-53503333D01*
X117157380Y-53503333D01*
X117252619Y-53550952D01*
X117300238Y-53598571D01*
X117347857Y-53693809D01*
X117347857Y-53931904D01*
X117300238Y-54027142D01*
X117252619Y-54074761D01*
X117157380Y-54122380D01*
X116871666Y-54122380D01*
X116776428Y-54074761D01*
X116728809Y-54027142D01*
X143327380Y-95257857D02*
X142851190Y-95591190D01*
X143327380Y-95829285D02*
X142327380Y-95829285D01*
X142327380Y-95448333D01*
X142375000Y-95353095D01*
X142422619Y-95305476D01*
X142517857Y-95257857D01*
X142660714Y-95257857D01*
X142755952Y-95305476D01*
X142803571Y-95353095D01*
X142851190Y-95448333D01*
X142851190Y-95829285D01*
X143327380Y-94305476D02*
X143327380Y-94876904D01*
X143327380Y-94591190D02*
X142327380Y-94591190D01*
X142470238Y-94686428D01*
X142565476Y-94781666D01*
X142613095Y-94876904D01*
X142422619Y-93924523D02*
X142375000Y-93876904D01*
X142327380Y-93781666D01*
X142327380Y-93543571D01*
X142375000Y-93448333D01*
X142422619Y-93400714D01*
X142517857Y-93353095D01*
X142613095Y-93353095D01*
X142755952Y-93400714D01*
X143327380Y-93972142D01*
X143327380Y-93353095D01*
X156662380Y-98432857D02*
X156186190Y-98766190D01*
X156662380Y-99004285D02*
X155662380Y-99004285D01*
X155662380Y-98623333D01*
X155710000Y-98528095D01*
X155757619Y-98480476D01*
X155852857Y-98432857D01*
X155995714Y-98432857D01*
X156090952Y-98480476D01*
X156138571Y-98528095D01*
X156186190Y-98623333D01*
X156186190Y-99004285D01*
X156662380Y-97480476D02*
X156662380Y-98051904D01*
X156662380Y-97766190D02*
X155662380Y-97766190D01*
X155805238Y-97861428D01*
X155900476Y-97956666D01*
X155948095Y-98051904D01*
X155662380Y-97147142D02*
X155662380Y-96528095D01*
X156043333Y-96861428D01*
X156043333Y-96718571D01*
X156090952Y-96623333D01*
X156138571Y-96575714D01*
X156233809Y-96528095D01*
X156471904Y-96528095D01*
X156567142Y-96575714D01*
X156614761Y-96623333D01*
X156662380Y-96718571D01*
X156662380Y-97004285D01*
X156614761Y-97099523D01*
X156567142Y-97147142D01*
X149042380Y-95257857D02*
X148566190Y-95591190D01*
X149042380Y-95829285D02*
X148042380Y-95829285D01*
X148042380Y-95448333D01*
X148090000Y-95353095D01*
X148137619Y-95305476D01*
X148232857Y-95257857D01*
X148375714Y-95257857D01*
X148470952Y-95305476D01*
X148518571Y-95353095D01*
X148566190Y-95448333D01*
X148566190Y-95829285D01*
X149042380Y-94305476D02*
X149042380Y-94876904D01*
X149042380Y-94591190D02*
X148042380Y-94591190D01*
X148185238Y-94686428D01*
X148280476Y-94781666D01*
X148328095Y-94876904D01*
X148375714Y-93448333D02*
X149042380Y-93448333D01*
X147994761Y-93686428D02*
X148709047Y-93924523D01*
X148709047Y-93305476D01*
X139962142Y-97862380D02*
X139628809Y-97386190D01*
X139390714Y-97862380D02*
X139390714Y-96862380D01*
X139771666Y-96862380D01*
X139866904Y-96910000D01*
X139914523Y-96957619D01*
X139962142Y-97052857D01*
X139962142Y-97195714D01*
X139914523Y-97290952D01*
X139866904Y-97338571D01*
X139771666Y-97386190D01*
X139390714Y-97386190D01*
X140914523Y-97862380D02*
X140343095Y-97862380D01*
X140628809Y-97862380D02*
X140628809Y-96862380D01*
X140533571Y-97005238D01*
X140438333Y-97100476D01*
X140343095Y-97148095D01*
X141819285Y-96862380D02*
X141343095Y-96862380D01*
X141295476Y-97338571D01*
X141343095Y-97290952D01*
X141438333Y-97243333D01*
X141676428Y-97243333D01*
X141771666Y-97290952D01*
X141819285Y-97338571D01*
X141866904Y-97433809D01*
X141866904Y-97671904D01*
X141819285Y-97767142D01*
X141771666Y-97814761D01*
X141676428Y-97862380D01*
X141438333Y-97862380D01*
X141343095Y-97814761D01*
X141295476Y-97767142D01*
X162552142Y-102687380D02*
X162218809Y-102211190D01*
X161980714Y-102687380D02*
X161980714Y-101687380D01*
X162361666Y-101687380D01*
X162456904Y-101735000D01*
X162504523Y-101782619D01*
X162552142Y-101877857D01*
X162552142Y-102020714D01*
X162504523Y-102115952D01*
X162456904Y-102163571D01*
X162361666Y-102211190D01*
X161980714Y-102211190D01*
X163504523Y-102687380D02*
X162933095Y-102687380D01*
X163218809Y-102687380D02*
X163218809Y-101687380D01*
X163123571Y-101830238D01*
X163028333Y-101925476D01*
X162933095Y-101973095D01*
X164361666Y-101687380D02*
X164171190Y-101687380D01*
X164075952Y-101735000D01*
X164028333Y-101782619D01*
X163933095Y-101925476D01*
X163885476Y-102115952D01*
X163885476Y-102496904D01*
X163933095Y-102592142D01*
X163980714Y-102639761D01*
X164075952Y-102687380D01*
X164266428Y-102687380D01*
X164361666Y-102639761D01*
X164409285Y-102592142D01*
X164456904Y-102496904D01*
X164456904Y-102258809D01*
X164409285Y-102163571D01*
X164361666Y-102115952D01*
X164266428Y-102068333D01*
X164075952Y-102068333D01*
X163980714Y-102115952D01*
X163933095Y-102163571D01*
X163885476Y-102258809D01*
X150217142Y-97607380D02*
X149883809Y-97131190D01*
X149645714Y-97607380D02*
X149645714Y-96607380D01*
X150026666Y-96607380D01*
X150121904Y-96655000D01*
X150169523Y-96702619D01*
X150217142Y-96797857D01*
X150217142Y-96940714D01*
X150169523Y-97035952D01*
X150121904Y-97083571D01*
X150026666Y-97131190D01*
X149645714Y-97131190D01*
X151169523Y-97607380D02*
X150598095Y-97607380D01*
X150883809Y-97607380D02*
X150883809Y-96607380D01*
X150788571Y-96750238D01*
X150693333Y-96845476D01*
X150598095Y-96893095D01*
X151502857Y-96607380D02*
X152169523Y-96607380D01*
X151740952Y-97607380D01*
X138890476Y-53122380D02*
X138890476Y-53836666D01*
X138842857Y-53979523D01*
X138747619Y-54074761D01*
X138604761Y-54122380D01*
X138509523Y-54122380D01*
X139890476Y-54122380D02*
X139319047Y-54122380D01*
X139604761Y-54122380D02*
X139604761Y-53122380D01*
X139509523Y-53265238D01*
X139414285Y-53360476D01*
X139319047Y-53408095D01*
X140366666Y-54122380D02*
X140557142Y-54122380D01*
X140652380Y-54074761D01*
X140700000Y-54027142D01*
X140795238Y-53884285D01*
X140842857Y-53693809D01*
X140842857Y-53312857D01*
X140795238Y-53217619D01*
X140747619Y-53170000D01*
X140652380Y-53122380D01*
X140461904Y-53122380D01*
X140366666Y-53170000D01*
X140319047Y-53217619D01*
X140271428Y-53312857D01*
X140271428Y-53550952D01*
X140319047Y-53646190D01*
X140366666Y-53693809D01*
X140461904Y-53741428D01*
X140652380Y-53741428D01*
X140747619Y-53693809D01*
X140795238Y-53646190D01*
X140842857Y-53550952D01*
X127460476Y-53122380D02*
X127460476Y-53836666D01*
X127412857Y-53979523D01*
X127317619Y-54074761D01*
X127174761Y-54122380D01*
X127079523Y-54122380D01*
X127889047Y-53217619D02*
X127936666Y-53170000D01*
X128031904Y-53122380D01*
X128270000Y-53122380D01*
X128365238Y-53170000D01*
X128412857Y-53217619D01*
X128460476Y-53312857D01*
X128460476Y-53408095D01*
X128412857Y-53550952D01*
X127841428Y-54122380D01*
X128460476Y-54122380D01*
X129079523Y-53122380D02*
X129174761Y-53122380D01*
X129270000Y-53170000D01*
X129317619Y-53217619D01*
X129365238Y-53312857D01*
X129412857Y-53503333D01*
X129412857Y-53741428D01*
X129365238Y-53931904D01*
X129317619Y-54027142D01*
X129270000Y-54074761D01*
X129174761Y-54122380D01*
X129079523Y-54122380D01*
X128984285Y-54074761D01*
X128936666Y-54027142D01*
X128889047Y-53931904D01*
X128841428Y-53741428D01*
X128841428Y-53503333D01*
X128889047Y-53312857D01*
X128936666Y-53217619D01*
X128984285Y-53170000D01*
X129079523Y-53122380D01*
X95830476Y-75022380D02*
X95830476Y-75736666D01*
X95782857Y-75879523D01*
X95687619Y-75974761D01*
X95544761Y-76022380D01*
X95449523Y-76022380D01*
X96259047Y-75117619D02*
X96306666Y-75070000D01*
X96401904Y-75022380D01*
X96640000Y-75022380D01*
X96735238Y-75070000D01*
X96782857Y-75117619D01*
X96830476Y-75212857D01*
X96830476Y-75308095D01*
X96782857Y-75450952D01*
X96211428Y-76022380D01*
X96830476Y-76022380D01*
X97782857Y-76022380D02*
X97211428Y-76022380D01*
X97497142Y-76022380D02*
X97497142Y-75022380D01*
X97401904Y-75165238D01*
X97306666Y-75260476D01*
X97211428Y-75308095D01*
X137191904Y-102047380D02*
X137191904Y-102856904D01*
X137239523Y-102952142D01*
X137287142Y-102999761D01*
X137382380Y-103047380D01*
X137572857Y-103047380D01*
X137668095Y-102999761D01*
X137715714Y-102952142D01*
X137763333Y-102856904D01*
X137763333Y-102047380D01*
X138763333Y-103047380D02*
X138191904Y-103047380D01*
X138477619Y-103047380D02*
X138477619Y-102047380D01*
X138382380Y-102190238D01*
X138287142Y-102285476D01*
X138191904Y-102333095D01*
X139715714Y-103047380D02*
X139144285Y-103047380D01*
X139430000Y-103047380D02*
X139430000Y-102047380D01*
X139334761Y-102190238D01*
X139239523Y-102285476D01*
X139144285Y-102333095D01*
X137672380Y-117173333D02*
X138386666Y-117173333D01*
X138529523Y-117220952D01*
X138624761Y-117316190D01*
X138672380Y-117459047D01*
X138672380Y-117554285D01*
X137672380Y-116792380D02*
X137672380Y-116173333D01*
X138053333Y-116506666D01*
X138053333Y-116363809D01*
X138100952Y-116268571D01*
X138148571Y-116220952D01*
X138243809Y-116173333D01*
X138481904Y-116173333D01*
X138577142Y-116220952D01*
X138624761Y-116268571D01*
X138672380Y-116363809D01*
X138672380Y-116649523D01*
X138624761Y-116744761D01*
X138577142Y-116792380D01*
X162437380Y-68913333D02*
X163151666Y-68913333D01*
X163294523Y-68960952D01*
X163389761Y-69056190D01*
X163437380Y-69199047D01*
X163437380Y-69294285D01*
X162437380Y-67960952D02*
X162437380Y-68437142D01*
X162913571Y-68484761D01*
X162865952Y-68437142D01*
X162818333Y-68341904D01*
X162818333Y-68103809D01*
X162865952Y-68008571D01*
X162913571Y-67960952D01*
X163008809Y-67913333D01*
X163246904Y-67913333D01*
X163342142Y-67960952D01*
X163389761Y-68008571D01*
X163437380Y-68103809D01*
X163437380Y-68341904D01*
X163389761Y-68437142D01*
X163342142Y-68484761D01*
X162437380Y-71453333D02*
X163151666Y-71453333D01*
X163294523Y-71500952D01*
X163389761Y-71596190D01*
X163437380Y-71739047D01*
X163437380Y-71834285D01*
X162437380Y-70548571D02*
X162437380Y-70739047D01*
X162485000Y-70834285D01*
X162532619Y-70881904D01*
X162675476Y-70977142D01*
X162865952Y-71024761D01*
X163246904Y-71024761D01*
X163342142Y-70977142D01*
X163389761Y-70929523D01*
X163437380Y-70834285D01*
X163437380Y-70643809D01*
X163389761Y-70548571D01*
X163342142Y-70500952D01*
X163246904Y-70453333D01*
X163008809Y-70453333D01*
X162913571Y-70500952D01*
X162865952Y-70548571D01*
X162818333Y-70643809D01*
X162818333Y-70834285D01*
X162865952Y-70929523D01*
X162913571Y-70977142D01*
X163008809Y-71024761D01*
X157992380Y-115903333D02*
X158706666Y-115903333D01*
X158849523Y-115950952D01*
X158944761Y-116046190D01*
X158992380Y-116189047D01*
X158992380Y-116284285D01*
X158325714Y-114998571D02*
X158992380Y-114998571D01*
X157944761Y-115236666D02*
X158659047Y-115474761D01*
X158659047Y-114855714D01*
X180217380Y-115903333D02*
X180931666Y-115903333D01*
X181074523Y-115950952D01*
X181169761Y-116046190D01*
X181217380Y-116189047D01*
X181217380Y-116284285D01*
X180645952Y-115284285D02*
X180598333Y-115379523D01*
X180550714Y-115427142D01*
X180455476Y-115474761D01*
X180407857Y-115474761D01*
X180312619Y-115427142D01*
X180265000Y-115379523D01*
X180217380Y-115284285D01*
X180217380Y-115093809D01*
X180265000Y-114998571D01*
X180312619Y-114950952D01*
X180407857Y-114903333D01*
X180455476Y-114903333D01*
X180550714Y-114950952D01*
X180598333Y-114998571D01*
X180645952Y-115093809D01*
X180645952Y-115284285D01*
X180693571Y-115379523D01*
X180741190Y-115427142D01*
X180836428Y-115474761D01*
X181026904Y-115474761D01*
X181122142Y-115427142D01*
X181169761Y-115379523D01*
X181217380Y-115284285D01*
X181217380Y-115093809D01*
X181169761Y-114998571D01*
X181122142Y-114950952D01*
X181026904Y-114903333D01*
X180836428Y-114903333D01*
X180741190Y-114950952D01*
X180693571Y-114998571D01*
X180645952Y-115093809D01*
X150272904Y-103201380D02*
X150272904Y-104010904D01*
X150320523Y-104106142D01*
X150368142Y-104153761D01*
X150463380Y-104201380D01*
X150653857Y-104201380D01*
X150749095Y-104153761D01*
X150796714Y-104106142D01*
X150844333Y-104010904D01*
X150844333Y-103201380D01*
X151844333Y-104201380D02*
X151272904Y-104201380D01*
X151558619Y-104201380D02*
X151558619Y-103201380D01*
X151463380Y-103344238D01*
X151368142Y-103439476D01*
X151272904Y-103487095D01*
X152225285Y-103296619D02*
X152272904Y-103249000D01*
X152368142Y-103201380D01*
X152606238Y-103201380D01*
X152701476Y-103249000D01*
X152749095Y-103296619D01*
X152796714Y-103391857D01*
X152796714Y-103487095D01*
X152749095Y-103629952D01*
X152177666Y-104201380D01*
X152796714Y-104201380D01*
X190508095Y-142327380D02*
X191079523Y-142327380D01*
X190793809Y-143327380D02*
X190793809Y-142327380D01*
X191412857Y-143327380D02*
X191412857Y-142327380D01*
X191793809Y-142327380D01*
X191889047Y-142375000D01*
X191936666Y-142422619D01*
X191984285Y-142517857D01*
X191984285Y-142660714D01*
X191936666Y-142755952D01*
X191889047Y-142803571D01*
X191793809Y-142851190D01*
X191412857Y-142851190D01*
X192936666Y-143327380D02*
X192365238Y-143327380D01*
X192650952Y-143327380D02*
X192650952Y-142327380D01*
X192555714Y-142470238D01*
X192460476Y-142565476D01*
X192365238Y-142613095D01*
X162568095Y-55332380D02*
X163139523Y-55332380D01*
X162853809Y-56332380D02*
X162853809Y-55332380D01*
X163472857Y-56332380D02*
X163472857Y-55332380D01*
X163853809Y-55332380D01*
X163949047Y-55380000D01*
X163996666Y-55427619D01*
X164044285Y-55522857D01*
X164044285Y-55665714D01*
X163996666Y-55760952D01*
X163949047Y-55808571D01*
X163853809Y-55856190D01*
X163472857Y-55856190D01*
X164425238Y-55427619D02*
X164472857Y-55380000D01*
X164568095Y-55332380D01*
X164806190Y-55332380D01*
X164901428Y-55380000D01*
X164949047Y-55427619D01*
X164996666Y-55522857D01*
X164996666Y-55618095D01*
X164949047Y-55760952D01*
X164377619Y-56332380D01*
X164996666Y-56332380D01*
X179713095Y-135977380D02*
X180284523Y-135977380D01*
X179998809Y-136977380D02*
X179998809Y-135977380D01*
X180617857Y-136977380D02*
X180617857Y-135977380D01*
X180998809Y-135977380D01*
X181094047Y-136025000D01*
X181141666Y-136072619D01*
X181189285Y-136167857D01*
X181189285Y-136310714D01*
X181141666Y-136405952D01*
X181094047Y-136453571D01*
X180998809Y-136501190D01*
X180617857Y-136501190D01*
X181522619Y-135977380D02*
X182141666Y-135977380D01*
X181808333Y-136358333D01*
X181951190Y-136358333D01*
X182046428Y-136405952D01*
X182094047Y-136453571D01*
X182141666Y-136548809D01*
X182141666Y-136786904D01*
X182094047Y-136882142D01*
X182046428Y-136929761D01*
X181951190Y-136977380D01*
X181665476Y-136977380D01*
X181570238Y-136929761D01*
X181522619Y-136882142D01*
X240038095Y-55967380D02*
X240609523Y-55967380D01*
X240323809Y-56967380D02*
X240323809Y-55967380D01*
X240942857Y-56967380D02*
X240942857Y-55967380D01*
X241323809Y-55967380D01*
X241419047Y-56015000D01*
X241466666Y-56062619D01*
X241514285Y-56157857D01*
X241514285Y-56300714D01*
X241466666Y-56395952D01*
X241419047Y-56443571D01*
X241323809Y-56491190D01*
X240942857Y-56491190D01*
X242371428Y-55967380D02*
X242180952Y-55967380D01*
X242085714Y-56015000D01*
X242038095Y-56062619D01*
X241942857Y-56205476D01*
X241895238Y-56395952D01*
X241895238Y-56776904D01*
X241942857Y-56872142D01*
X241990476Y-56919761D01*
X242085714Y-56967380D01*
X242276190Y-56967380D01*
X242371428Y-56919761D01*
X242419047Y-56872142D01*
X242466666Y-56776904D01*
X242466666Y-56538809D01*
X242419047Y-56443571D01*
X242371428Y-56395952D01*
X242276190Y-56348333D01*
X242085714Y-56348333D01*
X241990476Y-56395952D01*
X241942857Y-56443571D01*
X241895238Y-56538809D01*
X234323095Y-81367380D02*
X234894523Y-81367380D01*
X234608809Y-82367380D02*
X234608809Y-81367380D01*
X235227857Y-82367380D02*
X235227857Y-81367380D01*
X235608809Y-81367380D01*
X235704047Y-81415000D01*
X235751666Y-81462619D01*
X235799285Y-81557857D01*
X235799285Y-81700714D01*
X235751666Y-81795952D01*
X235704047Y-81843571D01*
X235608809Y-81891190D01*
X235227857Y-81891190D01*
X236132619Y-81367380D02*
X236799285Y-81367380D01*
X236370714Y-82367380D01*
X234958095Y-125182380D02*
X235529523Y-125182380D01*
X235243809Y-126182380D02*
X235243809Y-125182380D01*
X235862857Y-126182380D02*
X235862857Y-125182380D01*
X236243809Y-125182380D01*
X236339047Y-125230000D01*
X236386666Y-125277619D01*
X236434285Y-125372857D01*
X236434285Y-125515714D01*
X236386666Y-125610952D01*
X236339047Y-125658571D01*
X236243809Y-125706190D01*
X235862857Y-125706190D01*
X237005714Y-125610952D02*
X236910476Y-125563333D01*
X236862857Y-125515714D01*
X236815238Y-125420476D01*
X236815238Y-125372857D01*
X236862857Y-125277619D01*
X236910476Y-125230000D01*
X237005714Y-125182380D01*
X237196190Y-125182380D01*
X237291428Y-125230000D01*
X237339047Y-125277619D01*
X237386666Y-125372857D01*
X237386666Y-125420476D01*
X237339047Y-125515714D01*
X237291428Y-125563333D01*
X237196190Y-125610952D01*
X237005714Y-125610952D01*
X236910476Y-125658571D01*
X236862857Y-125706190D01*
X236815238Y-125801428D01*
X236815238Y-125991904D01*
X236862857Y-126087142D01*
X236910476Y-126134761D01*
X237005714Y-126182380D01*
X237196190Y-126182380D01*
X237291428Y-126134761D01*
X237339047Y-126087142D01*
X237386666Y-125991904D01*
X237386666Y-125801428D01*
X237339047Y-125706190D01*
X237291428Y-125658571D01*
X237196190Y-125610952D01*
X210828095Y-132167380D02*
X211399523Y-132167380D01*
X211113809Y-133167380D02*
X211113809Y-132167380D01*
X211732857Y-133167380D02*
X211732857Y-132167380D01*
X212113809Y-132167380D01*
X212209047Y-132215000D01*
X212256666Y-132262619D01*
X212304285Y-132357857D01*
X212304285Y-132500714D01*
X212256666Y-132595952D01*
X212209047Y-132643571D01*
X212113809Y-132691190D01*
X211732857Y-132691190D01*
X212780476Y-133167380D02*
X212970952Y-133167380D01*
X213066190Y-133119761D01*
X213113809Y-133072142D01*
X213209047Y-132929285D01*
X213256666Y-132738809D01*
X213256666Y-132357857D01*
X213209047Y-132262619D01*
X213161428Y-132215000D01*
X213066190Y-132167380D01*
X212875714Y-132167380D01*
X212780476Y-132215000D01*
X212732857Y-132262619D01*
X212685238Y-132357857D01*
X212685238Y-132595952D01*
X212732857Y-132691190D01*
X212780476Y-132738809D01*
X212875714Y-132786428D01*
X213066190Y-132786428D01*
X213161428Y-132738809D01*
X213209047Y-132691190D01*
X213256666Y-132595952D01*
X141136904Y-131532380D02*
X141708333Y-131532380D01*
X141422619Y-132532380D02*
X141422619Y-131532380D01*
X142041666Y-132532380D02*
X142041666Y-131532380D01*
X142422619Y-131532380D01*
X142517857Y-131580000D01*
X142565476Y-131627619D01*
X142613095Y-131722857D01*
X142613095Y-131865714D01*
X142565476Y-131960952D01*
X142517857Y-132008571D01*
X142422619Y-132056190D01*
X142041666Y-132056190D01*
X143565476Y-132532380D02*
X142994047Y-132532380D01*
X143279761Y-132532380D02*
X143279761Y-131532380D01*
X143184523Y-131675238D01*
X143089285Y-131770476D01*
X142994047Y-131818095D01*
X144184523Y-131532380D02*
X144279761Y-131532380D01*
X144375000Y-131580000D01*
X144422619Y-131627619D01*
X144470238Y-131722857D01*
X144517857Y-131913333D01*
X144517857Y-132151428D01*
X144470238Y-132341904D01*
X144422619Y-132437142D01*
X144375000Y-132484761D01*
X144279761Y-132532380D01*
X144184523Y-132532380D01*
X144089285Y-132484761D01*
X144041666Y-132437142D01*
X143994047Y-132341904D01*
X143946428Y-132151428D01*
X143946428Y-131913333D01*
X143994047Y-131722857D01*
X144041666Y-131627619D01*
X144089285Y-131580000D01*
X144184523Y-131532380D01*
X163361904Y-129627380D02*
X163933333Y-129627380D01*
X163647619Y-130627380D02*
X163647619Y-129627380D01*
X164266666Y-130627380D02*
X164266666Y-129627380D01*
X164647619Y-129627380D01*
X164742857Y-129675000D01*
X164790476Y-129722619D01*
X164838095Y-129817857D01*
X164838095Y-129960714D01*
X164790476Y-130055952D01*
X164742857Y-130103571D01*
X164647619Y-130151190D01*
X164266666Y-130151190D01*
X165790476Y-130627380D02*
X165219047Y-130627380D01*
X165504761Y-130627380D02*
X165504761Y-129627380D01*
X165409523Y-129770238D01*
X165314285Y-129865476D01*
X165219047Y-129913095D01*
X166742857Y-130627380D02*
X166171428Y-130627380D01*
X166457142Y-130627380D02*
X166457142Y-129627380D01*
X166361904Y-129770238D01*
X166266666Y-129865476D01*
X166171428Y-129913095D01*
X114943095Y-144867380D02*
X115514523Y-144867380D01*
X115228809Y-145867380D02*
X115228809Y-144867380D01*
X115847857Y-145867380D02*
X115847857Y-144867380D01*
X116228809Y-144867380D01*
X116324047Y-144915000D01*
X116371666Y-144962619D01*
X116419285Y-145057857D01*
X116419285Y-145200714D01*
X116371666Y-145295952D01*
X116324047Y-145343571D01*
X116228809Y-145391190D01*
X115847857Y-145391190D01*
X117276428Y-145200714D02*
X117276428Y-145867380D01*
X117038333Y-144819761D02*
X116800238Y-145534047D01*
X117419285Y-145534047D01*
X162568095Y-60412380D02*
X163139523Y-60412380D01*
X162853809Y-61412380D02*
X162853809Y-60412380D01*
X163472857Y-61412380D02*
X163472857Y-60412380D01*
X163853809Y-60412380D01*
X163949047Y-60460000D01*
X163996666Y-60507619D01*
X164044285Y-60602857D01*
X164044285Y-60745714D01*
X163996666Y-60840952D01*
X163949047Y-60888571D01*
X163853809Y-60936190D01*
X163472857Y-60936190D01*
X164949047Y-60412380D02*
X164472857Y-60412380D01*
X164425238Y-60888571D01*
X164472857Y-60840952D01*
X164568095Y-60793333D01*
X164806190Y-60793333D01*
X164901428Y-60840952D01*
X164949047Y-60888571D01*
X164996666Y-60983809D01*
X164996666Y-61221904D01*
X164949047Y-61317142D01*
X164901428Y-61364761D01*
X164806190Y-61412380D01*
X164568095Y-61412380D01*
X164472857Y-61364761D01*
X164425238Y-61317142D01*
M02*
